<svg width="255" height="146" viewBox="0 0 255 146" fill="none" xmlns="http://www.w3.org/2000/svg">
<path d="M202.192 142.858C202.528 143.693 203.711 143.693 204.047 142.858L210.465 126.914C210.729 126.257 210.246 125.54 209.537 125.54L196.702 125.54C195.994 125.54 195.51 126.257 195.775 126.914L202.192 142.858Z" fill="#28C65C"/>
<rect width="255" height="132" rx="20" transform="matrix(-1 0 0 1 255 0)" fill="#28C65C"/>
<path d="M21.328 39L18.906 34.912H17.1V39H16.12V29.214H19.06C20.152 29.214 20.978 29.4753 21.538 29.998C22.1073 30.5207 22.392 31.2067 22.392 32.056C22.392 32.7653 22.1867 33.372 21.776 33.876C21.3747 34.3707 20.7773 34.6927 19.984 34.842L22.504 39H21.328ZM17.1 34.114H19.074C19.8393 34.114 20.4133 33.9273 20.796 33.554C21.188 33.1807 21.384 32.6813 21.384 32.056C21.384 31.412 21.1973 30.9173 20.824 30.572C20.4507 30.2173 19.8627 30.04 19.06 30.04H17.1V34.114ZM31.2528 34.786C31.2528 35.122 31.2435 35.3787 31.2248 35.556H24.8828C24.9108 36.1347 25.0508 36.6293 25.3028 37.04C25.5548 37.4507 25.8861 37.7633 26.2968 37.978C26.7075 38.1833 27.1555 38.286 27.6408 38.286C28.2755 38.286 28.8075 38.132 29.2368 37.824C29.6755 37.516 29.9648 37.1007 30.1048 36.578H31.1408C30.9541 37.3247 30.5528 37.936 29.9368 38.412C29.3301 38.8787 28.5648 39.112 27.6408 39.112C26.9221 39.112 26.2781 38.9533 25.7088 38.636C25.1395 38.3093 24.6915 37.852 24.3648 37.264C24.0475 36.6667 23.8888 35.9713 23.8888 35.178C23.8888 34.3847 24.0475 33.6893 24.3648 33.092C24.6821 32.4947 25.1255 32.0373 25.6948 31.72C26.2641 31.4027 26.9128 31.244 27.6408 31.244C28.3688 31.244 29.0035 31.4027 29.5448 31.72C30.0955 32.0373 30.5155 32.4667 30.8048 33.008C31.1035 33.54 31.2528 34.1327 31.2528 34.786ZM30.2588 34.758C30.2681 34.1887 30.1515 33.7033 29.9088 33.302C29.6755 32.9007 29.3535 32.5973 28.9428 32.392C28.5321 32.1867 28.0841 32.084 27.5988 32.084C26.8708 32.084 26.2501 32.3173 25.7368 32.784C25.2235 33.2507 24.9388 33.9087 24.8828 34.758H30.2588ZM36.0558 32.182H34.2778V39H33.2978V32.182H32.2338V31.356H33.2978V30.824C33.2978 29.9933 33.5078 29.382 33.9278 28.99C34.3571 28.598 35.0478 28.402 35.9998 28.402V29.242C35.3651 29.242 34.9171 29.3633 34.6558 29.606C34.4038 29.8487 34.2778 30.2547 34.2778 30.824V31.356H36.0558V32.182ZM38.0885 29.914C37.8925 29.914 37.7245 29.844 37.5845 29.704C37.4445 29.564 37.3745 29.3913 37.3745 29.186C37.3745 28.9807 37.4445 28.8127 37.5845 28.682C37.7245 28.542 37.8925 28.472 38.0885 28.472C38.2845 28.472 38.4525 28.542 38.5925 28.682C38.7325 28.8127 38.8025 28.9807 38.8025 29.186C38.8025 29.3913 38.7325 29.564 38.5925 29.704C38.4525 29.844 38.2845 29.914 38.0885 29.914ZM38.5785 31.356V39H37.5985V31.356H38.5785ZM44.3817 31.216C45.2964 31.216 46.0431 31.5007 46.6217 32.07C47.2004 32.63 47.4897 33.4467 47.4897 34.52V39H46.5237V34.632C46.5237 33.8013 46.3137 33.1667 45.8937 32.728C45.4831 32.2893 44.9184 32.07 44.1997 32.07C43.4624 32.07 42.8744 32.3033 42.4357 32.77C41.9971 33.2367 41.7777 33.9227 41.7777 34.828V39H40.7977V31.356H41.7777V32.658C42.0204 32.1913 42.3704 31.8367 42.8277 31.594C43.2851 31.342 43.8031 31.216 44.3817 31.216ZM56.5731 34.786C56.5731 35.122 56.5638 35.3787 56.5451 35.556H50.2031C50.2311 36.1347 50.3711 36.6293 50.6231 37.04C50.8751 37.4507 51.2064 37.7633 51.6171 37.978C52.0278 38.1833 52.4758 38.286 52.9611 38.286C53.5958 38.286 54.1278 38.132 54.5571 37.824C54.9958 37.516 55.2851 37.1007 55.4251 36.578H56.4611C56.2744 37.3247 55.8731 37.936 55.2571 38.412C54.6504 38.8787 53.8851 39.112 52.9611 39.112C52.2424 39.112 51.5984 38.9533 51.0291 38.636C50.4598 38.3093 50.0118 37.852 49.6851 37.264C49.3678 36.6667 49.2091 35.9713 49.2091 35.178C49.2091 34.3847 49.3678 33.6893 49.6851 33.092C50.0024 32.4947 50.4458 32.0373 51.0151 31.72C51.5844 31.4027 52.2331 31.244 52.9611 31.244C53.6891 31.244 54.3238 31.4027 54.8651 31.72C55.4158 32.0373 55.8358 32.4667 56.1251 33.008C56.4238 33.54 56.5731 34.1327 56.5731 34.786ZM55.5791 34.758C55.5884 34.1887 55.4718 33.7033 55.2291 33.302C54.9958 32.9007 54.6738 32.5973 54.2631 32.392C53.8524 32.1867 53.4044 32.084 52.9191 32.084C52.1911 32.084 51.5704 32.3173 51.0571 32.784C50.5438 33.2507 50.2591 33.9087 50.2031 34.758H55.5791ZM68.5079 31.356L63.9719 42.598H62.9499L64.4339 38.958L61.2979 31.356H62.3759L64.9799 37.88L67.4999 31.356H68.5079ZM73.1828 39.112C72.4641 39.112 71.8155 38.9533 71.2368 38.636C70.6675 38.3093 70.2148 37.852 69.8788 37.264C69.5521 36.6667 69.3888 35.9713 69.3888 35.178C69.3888 34.3847 69.5568 33.694 69.8928 33.106C70.2288 32.5087 70.6861 32.0513 71.2648 31.734C71.8435 31.4073 72.4921 31.244 73.2108 31.244C73.9295 31.244 74.5781 31.4073 75.1568 31.734C75.7448 32.0513 76.2021 32.5087 76.5288 33.106C76.8648 33.694 77.0328 34.3847 77.0328 35.178C77.0328 35.962 76.8648 36.6527 76.5288 37.25C76.1928 37.8473 75.7308 38.3093 75.1428 38.636C74.5548 38.9533 73.9015 39.112 73.1828 39.112ZM73.1828 38.258C73.6868 38.258 74.1535 38.146 74.5828 37.922C75.0121 37.6887 75.3575 37.3433 75.6188 36.886C75.8895 36.4193 76.0248 35.85 76.0248 35.178C76.0248 34.506 75.8941 33.9413 75.6328 33.484C75.3715 33.0173 75.0261 32.672 74.5968 32.448C74.1675 32.2147 73.7008 32.098 73.1968 32.098C72.6928 32.098 72.2261 32.2147 71.7968 32.448C71.3675 32.672 71.0221 33.0173 70.7608 33.484C70.5088 33.9413 70.3828 34.506 70.3828 35.178C70.3828 35.85 70.5088 36.4193 70.7608 36.886C71.0221 37.3433 71.3628 37.6887 71.7828 37.922C72.2121 38.146 72.6788 38.258 73.1828 38.258ZM85.4412 31.356V39H84.4612V37.656C84.2372 38.132 83.8919 38.496 83.4252 38.748C82.9586 39 82.4359 39.126 81.8572 39.126C80.9426 39.126 80.1959 38.846 79.6172 38.286C79.0386 37.7167 78.7492 36.8953 78.7492 35.822V31.356H79.7152V35.71C79.7152 36.5407 79.9206 37.1753 80.3312 37.614C80.7512 38.0527 81.3206 38.272 82.0392 38.272C82.7766 38.272 83.3646 38.0387 83.8032 37.572C84.2419 37.1053 84.4612 36.4193 84.4612 35.514V31.356H85.4412ZM88.6586 32.714C88.8733 32.238 89.1999 31.8693 89.6386 31.608C90.0866 31.3467 90.6326 31.216 91.2766 31.216V32.238H91.0106C90.3013 32.238 89.7319 32.4293 89.3026 32.812C88.8733 33.1947 88.6586 33.834 88.6586 34.73V39H87.6786V31.356H88.6586V32.714ZM97.5587 33.036C97.8013 32.5227 98.184 32.098 98.7067 31.762C99.2387 31.4167 99.8687 31.244 100.597 31.244C101.287 31.244 101.908 31.4073 102.459 31.734C103.019 32.0513 103.453 32.5087 103.761 33.106C104.078 33.694 104.237 34.38 104.237 35.164C104.237 35.948 104.078 36.6387 103.761 37.236C103.453 37.8333 103.019 38.2953 102.459 38.622C101.908 38.9487 101.287 39.112 100.597 39.112C99.878 39.112 99.2527 38.944 98.7207 38.608C98.1887 38.2627 97.8013 37.8333 97.5587 37.32V42.612H96.5927V31.356H97.5587V33.036ZM103.243 35.164C103.243 34.5293 103.117 33.9833 102.865 33.526C102.622 33.0593 102.286 32.7047 101.857 32.462C101.427 32.2193 100.942 32.098 100.401 32.098C99.878 32.098 99.3973 32.224 98.9587 32.476C98.5293 32.728 98.1887 33.0873 97.9367 33.554C97.6847 34.0207 97.5587 34.562 97.5587 35.178C97.5587 35.794 97.6847 36.3353 97.9367 36.802C98.1887 37.2687 98.5293 37.628 98.9587 37.88C99.3973 38.132 99.878 38.258 100.401 38.258C100.942 38.258 101.427 38.1367 101.857 37.894C102.286 37.642 102.622 37.2827 102.865 36.816C103.117 36.34 103.243 35.7893 103.243 35.164ZM107.02 32.714C107.235 32.238 107.561 31.8693 108 31.608C108.448 31.3467 108.994 31.216 109.638 31.216V32.238H109.372C108.663 32.238 108.093 32.4293 107.664 32.812C107.235 33.1947 107.02 33.834 107.02 34.73V39H106.04V31.356H107.02V32.714ZM114.458 39.112C113.74 39.112 113.091 38.9533 112.512 38.636C111.943 38.3093 111.49 37.852 111.154 37.264C110.828 36.6667 110.664 35.9713 110.664 35.178C110.664 34.3847 110.832 33.694 111.168 33.106C111.504 32.5087 111.962 32.0513 112.54 31.734C113.119 31.4073 113.768 31.244 114.486 31.244C115.205 31.244 115.854 31.4073 116.432 31.734C117.02 32.0513 117.478 32.5087 117.804 33.106C118.14 33.694 118.308 34.3847 118.308 35.178C118.308 35.962 118.14 36.6527 117.804 37.25C117.468 37.8473 117.006 38.3093 116.418 38.636C115.83 38.9533 115.177 39.112 114.458 39.112ZM114.458 38.258C114.962 38.258 115.429 38.146 115.858 37.922C116.288 37.6887 116.633 37.3433 116.894 36.886C117.165 36.4193 117.3 35.85 117.3 35.178C117.3 34.506 117.17 33.9413 116.908 33.484C116.647 33.0173 116.302 32.672 115.872 32.448C115.443 32.2147 114.976 32.098 114.472 32.098C113.968 32.098 113.502 32.2147 113.072 32.448C112.643 32.672 112.298 33.0173 112.036 33.484C111.784 33.9413 111.658 34.506 111.658 35.178C111.658 35.85 111.784 36.4193 112.036 36.886C112.298 37.3433 112.638 37.6887 113.058 37.922C113.488 38.146 113.954 38.258 114.458 38.258ZM121.061 33.05C121.313 32.518 121.7 32.084 122.223 31.748C122.755 31.412 123.38 31.244 124.099 31.244C124.799 31.244 125.424 31.4073 125.975 31.734C126.525 32.0513 126.955 32.5087 127.263 33.106C127.58 33.694 127.739 34.38 127.739 35.164C127.739 35.948 127.58 36.6387 127.263 37.236C126.955 37.8333 126.521 38.2953 125.961 38.622C125.41 38.9487 124.789 39.112 124.099 39.112C123.371 39.112 122.741 38.9487 122.209 38.622C121.686 38.286 121.303 37.852 121.061 37.32V39H120.095V28.64H121.061V33.05ZM126.745 35.164C126.745 34.5293 126.619 33.9833 126.367 33.526C126.124 33.0593 125.788 32.7047 125.359 32.462C124.929 32.2193 124.444 32.098 123.903 32.098C123.38 32.098 122.899 32.224 122.461 32.476C122.031 32.728 121.691 33.0873 121.439 33.554C121.187 34.0207 121.061 34.562 121.061 35.178C121.061 35.794 121.187 36.3353 121.439 36.802C121.691 37.2687 122.031 37.628 122.461 37.88C122.899 38.132 123.38 38.258 123.903 38.258C124.444 38.258 124.929 38.1367 125.359 37.894C125.788 37.642 126.124 37.2827 126.367 36.816C126.619 36.34 126.745 35.7893 126.745 35.164ZM130.522 28.64V39H129.542V28.64H130.522ZM139.657 34.786C139.657 35.122 139.648 35.3787 139.629 35.556H133.287C133.315 36.1347 133.455 36.6293 133.707 37.04C133.959 37.4507 134.29 37.7633 134.701 37.978C135.112 38.1833 135.56 38.286 136.045 38.286C136.68 38.286 137.212 38.132 137.641 37.824C138.08 37.516 138.369 37.1007 138.509 36.578H139.545C139.358 37.3247 138.957 37.936 138.341 38.412C137.734 38.8787 136.969 39.112 136.045 39.112C135.326 39.112 134.682 38.9533 134.113 38.636C133.544 38.3093 133.096 37.852 132.769 37.264C132.452 36.6667 132.293 35.9713 132.293 35.178C132.293 34.3847 132.452 33.6893 132.769 33.092C133.086 32.4947 133.53 32.0373 134.099 31.72C134.668 31.4027 135.317 31.244 136.045 31.244C136.773 31.244 137.408 31.4027 137.949 31.72C138.5 32.0373 138.92 32.4667 139.209 33.008C139.508 33.54 139.657 34.1327 139.657 34.786ZM138.663 34.758C138.672 34.1887 138.556 33.7033 138.313 33.302C138.08 32.9007 137.758 32.5973 137.347 32.392C136.936 32.1867 136.488 32.084 136.003 32.084C135.275 32.084 134.654 32.3173 134.141 32.784C133.628 33.2507 133.343 33.9087 133.287 34.758H138.663ZM150.55 31.216C151.446 31.216 152.174 31.5007 152.734 32.07C153.303 32.63 153.588 33.4467 153.588 34.52V39H152.622V34.632C152.622 33.8013 152.421 33.1667 152.02 32.728C151.619 32.2893 151.073 32.07 150.382 32.07C149.663 32.07 149.089 32.308 148.66 32.784C148.231 33.26 148.016 33.9507 148.016 34.856V39H147.05V34.632C147.05 33.8013 146.849 33.1667 146.448 32.728C146.047 32.2893 145.496 32.07 144.796 32.07C144.077 32.07 143.503 32.308 143.074 32.784C142.645 33.26 142.43 33.9507 142.43 34.856V39H141.45V31.356H142.43V32.672C142.673 32.196 143.018 31.8367 143.466 31.594C143.914 31.342 144.413 31.216 144.964 31.216C145.627 31.216 146.205 31.3747 146.7 31.692C147.204 32.0093 147.568 32.476 147.792 33.092C147.997 32.4853 148.347 32.0233 148.842 31.706C149.346 31.3793 149.915 31.216 150.55 31.216ZM166.228 31.356V39H165.248V37.656C165.024 38.132 164.679 38.496 164.212 38.748C163.746 39 163.223 39.126 162.644 39.126C161.73 39.126 160.983 38.846 160.404 38.286C159.826 37.7167 159.536 36.8953 159.536 35.822V31.356H160.502V35.71C160.502 36.5407 160.708 37.1753 161.118 37.614C161.538 38.0527 162.108 38.272 162.826 38.272C163.564 38.272 164.152 38.0387 164.59 37.572C165.029 37.1053 165.248 36.4193 165.248 35.514V31.356H166.228ZM172.05 31.216C172.964 31.216 173.711 31.5007 174.29 32.07C174.868 32.63 175.158 33.4467 175.158 34.52V39H174.192V34.632C174.192 33.8013 173.982 33.1667 173.562 32.728C173.151 32.2893 172.586 32.07 171.868 32.07C171.13 32.07 170.542 32.3033 170.104 32.77C169.665 33.2367 169.446 33.9227 169.446 34.828V39H168.466V31.356H169.446V32.658C169.688 32.1913 170.038 31.8367 170.496 31.594C170.953 31.342 171.471 31.216 172.05 31.216ZM178.599 32.182V36.928C178.599 37.3947 178.688 37.7167 178.865 37.894C179.042 38.0713 179.355 38.16 179.803 38.16H180.699V39H179.649C178.958 39 178.445 38.8413 178.109 38.524C177.773 38.1973 177.605 37.6653 177.605 36.928V32.182H176.541V31.356H177.605V29.438H178.599V31.356H180.699V32.182H178.599ZM182.805 29.914C182.609 29.914 182.441 29.844 182.301 29.704C182.161 29.564 182.091 29.3913 182.091 29.186C182.091 28.9807 182.161 28.8127 182.301 28.682C182.441 28.542 182.609 28.472 182.805 28.472C183.001 28.472 183.169 28.542 183.309 28.682C183.449 28.8127 183.519 28.9807 183.519 29.186C183.519 29.3913 183.449 29.564 183.309 29.704C183.169 29.844 183.001 29.914 182.805 29.914ZM183.295 31.356V39H182.315V31.356H183.295ZM186.495 28.64V39H185.515V28.64H186.495ZM193.046 29.914C192.85 29.914 192.682 29.844 192.542 29.704C192.402 29.564 192.332 29.3913 192.332 29.186C192.332 28.9807 192.402 28.8127 192.542 28.682C192.682 28.542 192.85 28.472 193.046 28.472C193.242 28.472 193.41 28.542 193.55 28.682C193.69 28.8127 193.76 28.9807 193.76 29.186C193.76 29.3913 193.69 29.564 193.55 29.704C193.41 29.844 193.242 29.914 193.046 29.914ZM193.536 31.356V39H192.556V31.356H193.536ZM197.029 32.182V36.928C197.029 37.3947 197.117 37.7167 197.295 37.894C197.472 38.0713 197.785 38.16 198.233 38.16H199.129V39H198.079C197.388 39 196.875 38.8413 196.539 38.524C196.203 38.1973 196.035 37.6653 196.035 36.928V32.182H194.971V31.356H196.035V29.438H197.029V31.356H199.129V32.182H197.029ZM200.871 29.214H202.005L200.773 32.238H200.059L200.871 29.214ZM206.139 39.112C205.261 39.112 204.543 38.9113 203.983 38.51C203.432 38.0993 203.124 37.544 203.059 36.844H204.067C204.113 37.2733 204.314 37.6233 204.669 37.894C205.033 38.1553 205.518 38.286 206.125 38.286C206.657 38.286 207.072 38.16 207.371 37.908C207.679 37.656 207.833 37.3433 207.833 36.97C207.833 36.7087 207.749 36.494 207.581 36.326C207.413 36.158 207.198 36.0273 206.937 35.934C206.685 35.8313 206.339 35.724 205.901 35.612C205.331 35.4627 204.869 35.3133 204.515 35.164C204.16 35.0147 203.857 34.7953 203.605 34.506C203.362 34.2073 203.241 33.8107 203.241 33.316C203.241 32.9427 203.353 32.5973 203.577 32.28C203.801 31.9627 204.118 31.7107 204.529 31.524C204.939 31.3373 205.406 31.244 205.929 31.244C206.75 31.244 207.413 31.454 207.917 31.874C208.421 32.2847 208.691 32.854 208.729 33.582H207.749C207.721 33.134 207.543 32.7747 207.217 32.504C206.899 32.224 206.461 32.084 205.901 32.084C205.406 32.084 205.005 32.2007 204.697 32.434C204.389 32.6673 204.235 32.9567 204.235 33.302C204.235 33.6007 204.323 33.848 204.501 34.044C204.687 34.2307 204.916 34.38 205.187 34.492C205.457 34.5947 205.821 34.7113 206.279 34.842C206.829 34.9913 207.268 35.136 207.595 35.276C207.921 35.416 208.201 35.6213 208.435 35.892C208.668 36.1627 208.789 36.522 208.799 36.97C208.799 37.3807 208.687 37.7493 208.463 38.076C208.239 38.3933 207.926 38.6453 207.525 38.832C207.123 39.0187 206.661 39.112 206.139 39.112ZM15.672 56.178C15.672 55.3847 15.8307 54.694 16.148 54.106C16.4653 53.5087 16.904 53.0513 17.464 52.734C18.024 52.4073 18.6633 52.244 19.382 52.244C20.3247 52.244 21.0993 52.4773 21.706 52.944C22.322 53.4107 22.7187 54.0453 22.896 54.848H21.846C21.7153 54.2973 21.4307 53.868 20.992 53.56C20.5627 53.2427 20.026 53.084 19.382 53.084C18.8687 53.084 18.4067 53.2007 17.996 53.434C17.5853 53.6673 17.2587 54.0173 17.016 54.484C16.7827 54.9413 16.666 55.506 16.666 56.178C16.666 56.85 16.7827 57.4193 17.016 57.886C17.2587 58.3527 17.5853 58.7027 17.996 58.936C18.4067 59.1693 18.8687 59.286 19.382 59.286C20.026 59.286 20.5627 59.132 20.992 58.824C21.4307 58.5067 21.7153 58.068 21.846 57.508H22.896C22.7187 58.292 22.322 58.922 21.706 59.398C21.09 59.874 20.3153 60.112 19.382 60.112C18.6633 60.112 18.024 59.9533 17.464 59.636C16.904 59.3093 16.4653 58.852 16.148 58.264C15.8307 57.6667 15.672 56.9713 15.672 56.178ZM25.6859 49.64V60H24.7059V49.64H25.6859ZM34.8212 55.786C34.8212 56.122 34.8118 56.3787 34.7932 56.556H28.4512C28.4792 57.1347 28.6192 57.6293 28.8712 58.04C29.1232 58.4507 29.4545 58.7633 29.8652 58.978C30.2758 59.1833 30.7238 59.286 31.2092 59.286C31.8438 59.286 32.3758 59.132 32.8052 58.824C33.2438 58.516 33.5332 58.1007 33.6732 57.578H34.7092C34.5225 58.3247 34.1212 58.936 33.5052 59.412C32.8985 59.8787 32.1332 60.112 31.2092 60.112C30.4905 60.112 29.8465 59.9533 29.2772 59.636C28.7078 59.3093 28.2598 58.852 27.9332 58.264C27.6158 57.6667 27.4572 56.9713 27.4572 56.178C27.4572 55.3847 27.6158 54.6893 27.9332 54.092C28.2505 53.4947 28.6938 53.0373 29.2632 52.72C29.8325 52.4027 30.4812 52.244 31.2092 52.244C31.9372 52.244 32.5718 52.4027 33.1132 52.72C33.6638 53.0373 34.0838 53.4667 34.3732 54.008C34.6718 54.54 34.8212 55.1327 34.8212 55.786ZM33.8272 55.758C33.8365 55.1887 33.7198 54.7033 33.4772 54.302C33.2438 53.9007 32.9218 53.5973 32.5112 53.392C32.1005 53.1867 31.6525 53.084 31.1672 53.084C30.4392 53.084 29.8185 53.3173 29.3052 53.784C28.7918 54.2507 28.5072 54.9087 28.4512 55.758H33.8272ZM36.1661 56.164C36.1661 55.38 36.3201 54.694 36.6281 54.106C36.9455 53.5087 37.3795 53.0513 37.9301 52.734C38.4901 52.4073 39.1201 52.244 39.8201 52.244C40.5481 52.244 41.1735 52.412 41.6961 52.748C42.2281 53.084 42.6108 53.5133 42.8441 54.036V52.356H43.8241V60H42.8441V58.306C42.6015 58.8287 42.2141 59.2627 41.6821 59.608C41.1595 59.944 40.5341 60.112 39.8061 60.112C39.1155 60.112 38.4901 59.9487 37.9301 59.622C37.3795 59.2953 36.9455 58.8333 36.6281 58.236C36.3201 57.6387 36.1661 56.948 36.1661 56.164ZM42.8441 56.178C42.8441 55.562 42.7181 55.0207 42.4661 54.554C42.2141 54.0873 41.8688 53.728 41.4301 53.476C41.0008 53.224 40.5248 53.098 40.0021 53.098C39.4608 53.098 38.9755 53.2193 38.5461 53.462C38.1168 53.7047 37.7761 54.0593 37.5241 54.526C37.2815 54.9833 37.1601 55.5293 37.1601 56.164C37.1601 56.7893 37.2815 57.34 37.5241 57.816C37.7761 58.2827 38.1168 58.642 38.5461 58.894C38.9755 59.1367 39.4608 59.258 40.0021 59.258C40.5248 59.258 41.0008 59.132 41.4301 58.88C41.8688 58.628 42.2141 58.2687 42.4661 57.802C42.7181 57.3353 42.8441 56.794 42.8441 56.178ZM47.0414 53.714C47.2561 53.238 47.5827 52.8693 48.0214 52.608C48.4694 52.3467 49.0154 52.216 49.6594 52.216V53.238H49.3934C48.6841 53.238 48.1147 53.4293 47.6854 53.812C47.2561 54.1947 47.0414 54.834 47.0414 55.73V60H46.0614V52.356H47.0414V53.714ZM54.5275 56.164C54.5275 55.38 54.6815 54.694 54.9895 54.106C55.3068 53.5087 55.7408 53.0513 56.2915 52.734C56.8515 52.4073 57.4815 52.244 58.1815 52.244C58.9095 52.244 59.5348 52.412 60.0575 52.748C60.5895 53.084 60.9721 53.5133 61.2055 54.036V52.356H62.1855V60H61.2055V58.306C60.9628 58.8287 60.5755 59.2627 60.0435 59.608C59.5208 59.944 58.8955 60.112 58.1675 60.112C57.4768 60.112 56.8515 59.9487 56.2915 59.622C55.7408 59.2953 55.3068 58.8333 54.9895 58.236C54.6815 57.6387 54.5275 56.948 54.5275 56.164ZM61.2055 56.178C61.2055 55.562 61.0795 55.0207 60.8275 54.554C60.5755 54.0873 60.2301 53.728 59.7915 53.476C59.3621 53.224 58.8861 53.098 58.3635 53.098C57.8221 53.098 57.3368 53.2193 56.9075 53.462C56.4781 53.7047 56.1375 54.0593 55.8855 54.526C55.6428 54.9833 55.5215 55.5293 55.5215 56.164C55.5215 56.7893 55.6428 57.34 55.8855 57.816C56.1375 58.2827 56.4781 58.642 56.9075 58.894C57.3368 59.1367 57.8221 59.258 58.3635 59.258C58.8861 59.258 59.3621 59.132 59.7915 58.88C60.2301 58.628 60.5755 58.2687 60.8275 57.802C61.0795 57.3353 61.2055 56.794 61.2055 56.178ZM68.0067 52.216C68.9214 52.216 69.6681 52.5007 70.2467 53.07C70.8254 53.63 71.1147 54.4467 71.1147 55.52V60H70.1487V55.632C70.1487 54.8013 69.9387 54.1667 69.5187 53.728C69.1081 53.2893 68.5434 53.07 67.8247 53.07C67.0874 53.07 66.4994 53.3033 66.0607 53.77C65.6221 54.2367 65.4027 54.9227 65.4027 55.828V60H64.4227V52.356H65.4027V53.658C65.6454 53.1913 65.9954 52.8367 66.4527 52.594C66.9101 52.342 67.4281 52.216 68.0067 52.216ZM72.8341 56.164C72.8341 55.38 72.9928 54.694 73.3101 54.106C73.6274 53.5087 74.0614 53.0513 74.6121 52.734C75.1721 52.4073 75.8021 52.244 76.5021 52.244C77.1741 52.244 77.7808 52.4073 78.3221 52.734C78.8634 53.0607 79.2601 53.4853 79.5121 54.008V49.64H80.4921V60H79.5121V58.292C79.2788 58.824 78.8961 59.2627 78.3641 59.608C77.8321 59.944 77.2068 60.112 76.4881 60.112C75.7881 60.112 75.1581 59.9487 74.5981 59.622C74.0474 59.2953 73.6134 58.8333 73.2961 58.236C72.9881 57.6387 72.8341 56.948 72.8341 56.164ZM79.5121 56.178C79.5121 55.562 79.3861 55.0207 79.1341 54.554C78.8821 54.0873 78.5368 53.728 78.0981 53.476C77.6688 53.224 77.1928 53.098 76.6701 53.098C76.1288 53.098 75.6434 53.2193 75.2141 53.462C74.7848 53.7047 74.4441 54.0593 74.1921 54.526C73.9494 54.9833 73.8281 55.5293 73.8281 56.164C73.8281 56.7893 73.9494 57.34 74.1921 57.816C74.4441 58.2827 74.7848 58.642 75.2141 58.894C75.6434 59.1367 76.1288 59.258 76.6701 59.258C77.1928 59.258 77.6688 59.132 78.0981 58.88C78.5368 58.628 78.8821 58.2687 79.1341 57.802C79.3861 57.3353 79.5121 56.794 79.5121 56.178ZM89.2032 60.112C88.3258 60.112 87.6072 59.9113 87.0472 59.51C86.4965 59.0993 86.1885 58.544 86.1232 57.844H87.1312C87.1778 58.2733 87.3785 58.6233 87.7332 58.894C88.0972 59.1553 88.5825 59.286 89.1892 59.286C89.7212 59.286 90.1365 59.16 90.4352 58.908C90.7432 58.656 90.8972 58.3433 90.8972 57.97C90.8972 57.7087 90.8132 57.494 90.6452 57.326C90.4772 57.158 90.2625 57.0273 90.0012 56.934C89.7492 56.8313 89.4038 56.724 88.9652 56.612C88.3958 56.4627 87.9338 56.3133 87.5792 56.164C87.2245 56.0147 86.9212 55.7953 86.6692 55.506C86.4265 55.2073 86.3052 54.8107 86.3052 54.316C86.3052 53.9427 86.4172 53.5973 86.6412 53.28C86.8652 52.9627 87.1825 52.7107 87.5932 52.524C88.0038 52.3373 88.4705 52.244 88.9932 52.244C89.8145 52.244 90.4772 52.454 90.9812 52.874C91.4852 53.2847 91.7558 53.854 91.7932 54.582H90.8132C90.7852 54.134 90.6078 53.7747 90.2812 53.504C89.9638 53.224 89.5252 53.084 88.9652 53.084C88.4705 53.084 88.0692 53.2007 87.7612 53.434C87.4532 53.6673 87.2992 53.9567 87.2992 54.302C87.2992 54.6007 87.3878 54.848 87.5652 55.044C87.7518 55.2307 87.9805 55.38 88.2512 55.492C88.5218 55.5947 88.8858 55.7113 89.3432 55.842C89.8938 55.9913 90.3325 56.136 90.6592 56.276C90.9858 56.416 91.2658 56.6213 91.4992 56.892C91.7325 57.1627 91.8538 57.522 91.8632 57.97C91.8632 58.3807 91.7512 58.7493 91.5272 59.076C91.3032 59.3933 90.9905 59.6453 90.5892 59.832C90.1878 60.0187 89.7258 60.112 89.2032 60.112ZM94.6739 54.036C94.9166 53.5227 95.2992 53.098 95.8219 52.762C96.3539 52.4167 96.9839 52.244 97.7119 52.244C98.4026 52.244 99.0232 52.4073 99.5739 52.734C100.134 53.0513 100.568 53.5087 100.876 54.106C101.193 54.694 101.352 55.38 101.352 56.164C101.352 56.948 101.193 57.6387 100.876 58.236C100.568 58.8333 100.134 59.2953 99.5739 59.622C99.0232 59.9487 98.4026 60.112 97.7119 60.112C96.9932 60.112 96.3679 59.944 95.8359 59.608C95.3039 59.2627 94.9166 58.8333 94.6739 58.32V63.612H93.7079V52.356H94.6739V54.036ZM100.358 56.164C100.358 55.5293 100.232 54.9833 99.9799 54.526C99.7372 54.0593 99.4012 53.7047 98.9719 53.462C98.5426 53.2193 98.0572 53.098 97.5159 53.098C96.9932 53.098 96.5126 53.224 96.0739 53.476C95.6446 53.728 95.3039 54.0873 95.0519 54.554C94.7999 55.0207 94.6739 55.562 94.6739 56.178C94.6739 56.794 94.7999 57.3353 95.0519 57.802C95.3039 58.2687 95.6446 58.628 96.0739 58.88C96.5126 59.132 96.9932 59.258 97.5159 59.258C98.0572 59.258 98.5426 59.1367 98.9719 58.894C99.4012 58.642 99.7372 58.2827 99.9799 57.816C100.232 57.34 100.358 56.7893 100.358 56.164ZM110.071 55.786C110.071 56.122 110.062 56.3787 110.043 56.556H103.701C103.729 57.1347 103.869 57.6293 104.121 58.04C104.373 58.4507 104.704 58.7633 105.115 58.978C105.526 59.1833 105.974 59.286 106.459 59.286C107.094 59.286 107.626 59.132 108.055 58.824C108.494 58.516 108.783 58.1007 108.923 57.578H109.959C109.772 58.3247 109.371 58.936 108.755 59.412C108.148 59.8787 107.383 60.112 106.459 60.112C105.74 60.112 105.096 59.9533 104.527 59.636C103.958 59.3093 103.51 58.852 103.183 58.264C102.866 57.6667 102.707 56.9713 102.707 56.178C102.707 55.3847 102.866 54.6893 103.183 54.092C103.5 53.4947 103.944 53.0373 104.513 52.72C105.082 52.4027 105.731 52.244 106.459 52.244C107.187 52.244 107.822 52.4027 108.363 52.72C108.914 53.0373 109.334 53.4667 109.623 54.008C109.922 54.54 110.071 55.1327 110.071 55.786ZM109.077 55.758C109.086 55.1887 108.97 54.7033 108.727 54.302C108.494 53.9007 108.172 53.5973 107.761 53.392C107.35 53.1867 106.902 53.084 106.417 53.084C105.689 53.084 105.068 53.3173 104.555 53.784C104.042 54.2507 103.757 54.9087 103.701 55.758H109.077ZM111.416 56.178C111.416 55.3847 111.575 54.694 111.892 54.106C112.209 53.5087 112.648 53.0513 113.208 52.734C113.768 52.4073 114.407 52.244 115.126 52.244C116.069 52.244 116.843 52.4773 117.45 52.944C118.066 53.4107 118.463 54.0453 118.64 54.848H117.59C117.459 54.2973 117.175 53.868 116.736 53.56C116.307 53.2427 115.77 53.084 115.126 53.084C114.613 53.084 114.151 53.2007 113.74 53.434C113.329 53.6673 113.003 54.0173 112.76 54.484C112.527 54.9413 112.41 55.506 112.41 56.178C112.41 56.85 112.527 57.4193 112.76 57.886C113.003 58.3527 113.329 58.7027 113.74 58.936C114.151 59.1693 114.613 59.286 115.126 59.286C115.77 59.286 116.307 59.132 116.736 58.824C117.175 58.5067 117.459 58.068 117.59 57.508H118.64C118.463 58.292 118.066 58.922 117.45 59.398C116.834 59.874 116.059 60.112 115.126 60.112C114.407 60.112 113.768 59.9533 113.208 59.636C112.648 59.3093 112.209 58.852 111.892 58.264C111.575 57.6667 111.416 56.9713 111.416 56.178ZM120.94 50.914C120.744 50.914 120.576 50.844 120.436 50.704C120.296 50.564 120.226 50.3913 120.226 50.186C120.226 49.9807 120.296 49.8127 120.436 49.682C120.576 49.542 120.744 49.472 120.94 49.472C121.136 49.472 121.304 49.542 121.444 49.682C121.584 49.8127 121.654 49.9807 121.654 50.186C121.654 50.3913 121.584 50.564 121.444 50.704C121.304 50.844 121.136 50.914 120.94 50.914ZM121.43 52.356V60H120.45V52.356H121.43ZM126.659 53.182H124.881V60H123.901V53.182H122.837V52.356H123.901V51.824C123.901 50.9933 124.111 50.382 124.531 49.99C124.961 49.598 125.651 49.402 126.603 49.402V50.242C125.969 50.242 125.521 50.3633 125.259 50.606C125.007 50.8487 124.881 51.2547 124.881 51.824V52.356H126.659V53.182ZM128.692 50.914C128.496 50.914 128.328 50.844 128.188 50.704C128.048 50.564 127.978 50.3913 127.978 50.186C127.978 49.9807 128.048 49.8127 128.188 49.682C128.328 49.542 128.496 49.472 128.692 49.472C128.888 49.472 129.056 49.542 129.196 49.682C129.336 49.8127 129.406 49.9807 129.406 50.186C129.406 50.3913 129.336 50.564 129.196 50.704C129.056 50.844 128.888 50.914 128.692 50.914ZM129.182 52.356V60H128.202V52.356H129.182ZM130.953 56.178C130.953 55.3847 131.112 54.694 131.429 54.106C131.747 53.5087 132.185 53.0513 132.745 52.734C133.305 52.4073 133.945 52.244 134.663 52.244C135.606 52.244 136.381 52.4773 136.987 52.944C137.603 53.4107 138 54.0453 138.177 54.848H137.127C136.997 54.2973 136.712 53.868 136.273 53.56C135.844 53.2427 135.307 53.084 134.663 53.084C134.15 53.084 133.688 53.2007 133.277 53.434C132.867 53.6673 132.54 54.0173 132.297 54.484C132.064 54.9413 131.947 55.506 131.947 56.178C131.947 56.85 132.064 57.4193 132.297 57.886C132.54 58.3527 132.867 58.7027 133.277 58.936C133.688 59.1693 134.15 59.286 134.663 59.286C135.307 59.286 135.844 59.132 136.273 58.824C136.712 58.5067 136.997 58.068 137.127 57.508H138.177C138 58.292 137.603 58.922 136.987 59.398C136.371 59.874 135.597 60.112 134.663 60.112C133.945 60.112 133.305 59.9533 132.745 59.636C132.185 59.3093 131.747 58.852 131.429 58.264C131.112 57.6667 130.953 56.9713 130.953 56.178ZM150.745 55.786C150.745 56.122 150.736 56.3787 150.717 56.556H144.375C144.403 57.1347 144.543 57.6293 144.795 58.04C145.047 58.4507 145.378 58.7633 145.789 58.978C146.2 59.1833 146.648 59.286 147.133 59.286C147.768 59.286 148.3 59.132 148.729 58.824C149.168 58.516 149.457 58.1007 149.597 57.578H150.633C150.446 58.3247 150.045 58.936 149.429 59.412C148.822 59.8787 148.057 60.112 147.133 60.112C146.414 60.112 145.77 59.9533 145.201 59.636C144.632 59.3093 144.184 58.852 143.857 58.264C143.54 57.6667 143.381 56.9713 143.381 56.178C143.381 55.3847 143.54 54.6893 143.857 54.092C144.174 53.4947 144.618 53.0373 145.187 52.72C145.756 52.4027 146.405 52.244 147.133 52.244C147.861 52.244 148.496 52.4027 149.037 52.72C149.588 53.0373 150.008 53.4667 150.297 54.008C150.596 54.54 150.745 55.1327 150.745 55.786ZM149.751 55.758C149.76 55.1887 149.644 54.7033 149.401 54.302C149.168 53.9007 148.846 53.5973 148.435 53.392C148.024 53.1867 147.576 53.084 147.091 53.084C146.363 53.084 145.742 53.3173 145.229 53.784C144.716 54.2507 144.431 54.9087 144.375 55.758H149.751ZM156.122 52.216C157.037 52.216 157.783 52.5007 158.362 53.07C158.941 53.63 159.23 54.4467 159.23 55.52V60H158.264V55.632C158.264 54.8013 158.054 54.1667 157.634 53.728C157.223 53.2893 156.659 53.07 155.94 53.07C155.203 53.07 154.615 53.3033 154.176 53.77C153.737 54.2367 153.518 54.9227 153.518 55.828V60H152.538V52.356H153.518V53.658C153.761 53.1913 154.111 52.8367 154.568 52.594C155.025 52.342 155.543 52.216 156.122 52.216ZM164.743 60.112C164.025 60.112 163.376 59.9533 162.797 59.636C162.228 59.3093 161.775 58.852 161.439 58.264C161.113 57.6667 160.949 56.9713 160.949 56.178C160.949 55.3847 161.117 54.694 161.453 54.106C161.789 53.5087 162.247 53.0513 162.825 52.734C163.404 52.4073 164.053 52.244 164.771 52.244C165.49 52.244 166.139 52.4073 166.717 52.734C167.305 53.0513 167.763 53.5087 168.089 54.106C168.425 54.694 168.593 55.3847 168.593 56.178C168.593 56.962 168.425 57.6527 168.089 58.25C167.753 58.8473 167.291 59.3093 166.703 59.636C166.115 59.9533 165.462 60.112 164.743 60.112ZM164.743 59.258C165.247 59.258 165.714 59.146 166.143 58.922C166.573 58.6887 166.918 58.3433 167.179 57.886C167.45 57.4193 167.585 56.85 167.585 56.178C167.585 55.506 167.455 54.9413 167.193 54.484C166.932 54.0173 166.587 53.672 166.157 53.448C165.728 53.2147 165.261 53.098 164.757 53.098C164.253 53.098 163.787 53.2147 163.357 53.448C162.928 53.672 162.583 54.0173 162.321 54.484C162.069 54.9413 161.943 55.506 161.943 56.178C161.943 56.85 162.069 57.4193 162.321 57.886C162.583 58.3433 162.923 58.6887 163.343 58.922C163.773 59.146 164.239 59.258 164.743 59.258ZM177.002 52.356V60H176.022V58.656C175.798 59.132 175.452 59.496 174.986 59.748C174.519 60 173.996 60.126 173.418 60.126C172.503 60.126 171.756 59.846 171.178 59.286C170.599 58.7167 170.31 57.8953 170.31 56.822V52.356H171.276V56.71C171.276 57.5407 171.481 58.1753 171.892 58.614C172.312 59.0527 172.881 59.272 173.6 59.272C174.337 59.272 174.925 59.0387 175.364 58.572C175.802 58.1053 176.022 57.4193 176.022 56.514V52.356H177.002ZM182.445 52.244C183.164 52.244 183.789 52.412 184.321 52.748C184.853 53.084 185.236 53.5087 185.469 54.022V52.356H186.449V60.196C186.449 60.896 186.295 61.5167 185.987 62.058C185.688 62.5993 185.268 63.0147 184.727 63.304C184.186 63.6027 183.57 63.752 182.879 63.752C181.899 63.752 181.082 63.5187 180.429 63.052C179.785 62.5853 179.384 61.9507 179.225 61.148H180.191C180.359 61.68 180.676 62.1047 181.143 62.422C181.619 62.7393 182.198 62.898 182.879 62.898C183.374 62.898 183.817 62.7907 184.209 62.576C184.601 62.3707 184.909 62.0627 185.133 61.652C185.357 61.2413 185.469 60.756 185.469 60.196V58.306C185.226 58.8287 184.839 59.2627 184.307 59.608C183.784 59.944 183.164 60.112 182.445 60.112C181.745 60.112 181.115 59.9487 180.555 59.622C180.004 59.2953 179.57 58.8333 179.253 58.236C178.945 57.6387 178.791 56.948 178.791 56.164C178.791 55.38 178.945 54.694 179.253 54.106C179.57 53.5087 180.004 53.0513 180.555 52.734C181.115 52.4073 181.745 52.244 182.445 52.244ZM185.469 56.178C185.469 55.562 185.343 55.0207 185.091 54.554C184.839 54.0873 184.494 53.728 184.055 53.476C183.626 53.224 183.15 53.098 182.627 53.098C182.086 53.098 181.6 53.2193 181.171 53.462C180.742 53.7047 180.401 54.0593 180.149 54.526C179.906 54.9833 179.785 55.5293 179.785 56.164C179.785 56.7893 179.906 57.34 180.149 57.816C180.401 58.2827 180.742 58.642 181.171 58.894C181.6 59.1367 182.086 59.258 182.627 59.258C183.15 59.258 183.626 59.132 184.055 58.88C184.494 58.628 184.839 58.2687 185.091 57.802C185.343 57.3353 185.469 56.794 185.469 56.178ZM192.326 52.216C192.905 52.216 193.423 52.3373 193.88 52.58C194.347 52.8227 194.711 53.196 194.972 53.7C195.243 54.1947 195.378 54.8013 195.378 55.52V60H194.412V55.632C194.412 54.8013 194.202 54.1667 193.782 53.728C193.372 53.2893 192.807 53.07 192.088 53.07C191.351 53.07 190.763 53.3033 190.324 53.77C189.886 54.2367 189.666 54.9227 189.666 55.828V60H188.686V49.64H189.666V53.658C189.909 53.2007 190.264 52.846 190.73 52.594C191.206 52.342 191.738 52.216 192.326 52.216ZM207.688 52.356L203.152 63.598H202.13L203.614 59.958L200.478 52.356H201.556L204.16 58.88L206.68 52.356H207.688ZM212.362 60.112C211.644 60.112 210.995 59.9533 210.416 59.636C209.847 59.3093 209.394 58.852 209.058 58.264C208.732 57.6667 208.568 56.9713 208.568 56.178C208.568 55.3847 208.736 54.694 209.072 54.106C209.408 53.5087 209.866 53.0513 210.444 52.734C211.023 52.4073 211.672 52.244 212.39 52.244C213.109 52.244 213.758 52.4073 214.336 52.734C214.924 53.0513 215.382 53.5087 215.708 54.106C216.044 54.694 216.212 55.3847 216.212 56.178C216.212 56.962 216.044 57.6527 215.708 58.25C215.372 58.8473 214.91 59.3093 214.322 59.636C213.734 59.9533 213.081 60.112 212.362 60.112ZM212.362 59.258C212.866 59.258 213.333 59.146 213.762 58.922C214.192 58.6887 214.537 58.3433 214.798 57.886C215.069 57.4193 215.204 56.85 215.204 56.178C215.204 55.506 215.074 54.9413 214.812 54.484C214.551 54.0173 214.206 53.672 213.776 53.448C213.347 53.2147 212.88 53.098 212.376 53.098C211.872 53.098 211.406 53.2147 210.976 53.448C210.547 53.672 210.202 54.0173 209.94 54.484C209.688 54.9413 209.562 55.506 209.562 56.178C209.562 56.85 209.688 57.4193 209.94 57.886C210.202 58.3433 210.542 58.6887 210.962 58.922C211.392 59.146 211.858 59.258 212.362 59.258ZM224.621 52.356V60H223.641V58.656C223.417 59.132 223.072 59.496 222.605 59.748C222.138 60 221.616 60.126 221.037 60.126C220.122 60.126 219.376 59.846 218.797 59.286C218.218 58.7167 217.929 57.8953 217.929 56.822V52.356H218.895V56.71C218.895 57.5407 219.1 58.1753 219.511 58.614C219.931 59.0527 220.5 59.272 221.219 59.272C221.956 59.272 222.544 59.0387 222.983 58.572C223.422 58.1053 223.641 57.4193 223.641 56.514V52.356H224.621ZM227.838 53.714C228.053 53.238 228.38 52.8693 228.818 52.608C229.266 52.3467 229.812 52.216 230.456 52.216V53.238H230.19C229.481 53.238 228.912 53.4293 228.482 53.812C228.053 54.1947 227.838 54.834 227.838 55.73V60H226.858V52.356H227.838V53.714ZM19.704 73.216C20.6187 73.216 21.3653 73.5007 21.944 74.07C22.5227 74.63 22.812 75.4467 22.812 76.52V81H21.846V76.632C21.846 75.8013 21.636 75.1667 21.216 74.728C20.8053 74.2893 20.2407 74.07 19.522 74.07C18.7847 74.07 18.1967 74.3033 17.758 74.77C17.3193 75.2367 17.1 75.9227 17.1 76.828V81H16.12V73.356H17.1V74.658C17.3427 74.1913 17.6927 73.8367 18.15 73.594C18.6073 73.342 19.1253 73.216 19.704 73.216ZM31.8954 76.786C31.8954 77.122 31.886 77.3787 31.8674 77.556H25.5254C25.5534 78.1347 25.6934 78.6293 25.9454 79.04C26.1974 79.4507 26.5287 79.7633 26.9394 79.978C27.35 80.1833 27.798 80.286 28.2834 80.286C28.918 80.286 29.45 80.132 29.8794 79.824C30.318 79.516 30.6074 79.1007 30.7474 78.578H31.7834C31.5967 79.3247 31.1954 79.936 30.5794 80.412C29.9727 80.8787 29.2074 81.112 28.2834 81.112C27.5647 81.112 26.9207 80.9533 26.3514 80.636C25.782 80.3093 25.334 79.852 25.0074 79.264C24.69 78.6667 24.5314 77.9713 24.5314 77.178C24.5314 76.3847 24.69 75.6893 25.0074 75.092C25.3247 74.4947 25.768 74.0373 26.3374 73.72C26.9067 73.4027 27.5554 73.244 28.2834 73.244C29.0114 73.244 29.646 73.4027 30.1874 73.72C30.738 74.0373 31.158 74.4667 31.4474 75.008C31.746 75.54 31.8954 76.1327 31.8954 76.786ZM30.9014 76.758C30.9107 76.1887 30.794 75.7033 30.5514 75.302C30.318 74.9007 29.996 74.5973 29.5854 74.392C29.1747 74.1867 28.7267 74.084 28.2414 74.084C27.5134 74.084 26.8927 74.3173 26.3794 74.784C25.866 75.2507 25.5814 75.9087 25.5254 76.758H30.9014ZM34.1784 71.914C33.9824 71.914 33.8144 71.844 33.6744 71.704C33.5344 71.564 33.4644 71.3913 33.4644 71.186C33.4644 70.9807 33.5344 70.8127 33.6744 70.682C33.8144 70.542 33.9824 70.472 34.1784 70.472C34.3744 70.472 34.5424 70.542 34.6824 70.682C34.8224 70.8127 34.8924 70.9807 34.8924 71.186C34.8924 71.3913 34.8224 71.564 34.6824 71.704C34.5424 71.844 34.3744 71.914 34.1784 71.914ZM34.6684 73.356V81H33.6884V73.356H34.6684ZM40.0936 73.244C40.8122 73.244 41.4376 73.412 41.9696 73.748C42.5016 74.084 42.8842 74.5087 43.1176 75.022V73.356H44.0976V81.196C44.0976 81.896 43.9436 82.5167 43.6356 83.058C43.3369 83.5993 42.9169 84.0147 42.3756 84.304C41.8342 84.6027 41.2182 84.752 40.5276 84.752C39.5476 84.752 38.7309 84.5187 38.0776 84.052C37.4336 83.5853 37.0322 82.9507 36.8736 82.148H37.8396C38.0076 82.68 38.3249 83.1047 38.7916 83.422C39.2676 83.7393 39.8462 83.898 40.5276 83.898C41.0222 83.898 41.4656 83.7907 41.8576 83.576C42.2496 83.3707 42.5576 83.0627 42.7816 82.652C43.0056 82.2413 43.1176 81.756 43.1176 81.196V79.306C42.8749 79.8287 42.4876 80.2627 41.9556 80.608C41.4329 80.944 40.8122 81.112 40.0936 81.112C39.3936 81.112 38.7636 80.9487 38.2036 80.622C37.6529 80.2953 37.2189 79.8333 36.9016 79.236C36.5936 78.6387 36.4396 77.948 36.4396 77.164C36.4396 76.38 36.5936 75.694 36.9016 75.106C37.2189 74.5087 37.6529 74.0513 38.2036 73.734C38.7636 73.4073 39.3936 73.244 40.0936 73.244ZM43.1176 77.178C43.1176 76.562 42.9916 76.0207 42.7396 75.554C42.4876 75.0873 42.1422 74.728 41.7036 74.476C41.2742 74.224 40.7982 74.098 40.2756 74.098C39.7342 74.098 39.2489 74.2193 38.8196 74.462C38.3902 74.7047 38.0496 75.0593 37.7976 75.526C37.5549 75.9833 37.4336 76.5293 37.4336 77.164C37.4336 77.7893 37.5549 78.34 37.7976 78.816C38.0496 79.2827 38.3902 79.642 38.8196 79.894C39.2489 80.1367 39.7342 80.258 40.2756 80.258C40.7982 80.258 41.2742 80.132 41.7036 79.88C42.1422 79.628 42.4876 79.2687 42.7396 78.802C42.9916 78.3353 43.1176 77.794 43.1176 77.178ZM49.9748 73.216C50.5535 73.216 51.0715 73.3373 51.5288 73.58C51.9955 73.8227 52.3595 74.196 52.6208 74.7C52.8915 75.1947 53.0268 75.8013 53.0268 76.52V81H52.0608V76.632C52.0608 75.8013 51.8508 75.1667 51.4308 74.728C51.0202 74.2893 50.4555 74.07 49.7368 74.07C48.9995 74.07 48.4115 74.3033 47.9728 74.77C47.5342 75.2367 47.3148 75.9227 47.3148 76.828V81H46.3348V70.64H47.3148V74.658C47.5575 74.2007 47.9122 73.846 48.3788 73.594C48.8548 73.342 49.3868 73.216 49.9748 73.216ZM56.1602 75.05C56.4122 74.518 56.7996 74.084 57.3222 73.748C57.8542 73.412 58.4796 73.244 59.1982 73.244C59.8982 73.244 60.5236 73.4073 61.0742 73.734C61.6249 74.0513 62.0542 74.5087 62.3622 75.106C62.6796 75.694 62.8382 76.38 62.8382 77.164C62.8382 77.948 62.6796 78.6387 62.3622 79.236C62.0542 79.8333 61.6202 80.2953 61.0602 80.622C60.5096 80.9487 59.8889 81.112 59.1982 81.112C58.4702 81.112 57.8402 80.9487 57.3082 80.622C56.7856 80.286 56.4029 79.852 56.1602 79.32V81H55.1942V70.64H56.1602V75.05ZM61.8442 77.164C61.8442 76.5293 61.7182 75.9833 61.4662 75.526C61.2236 75.0593 60.8876 74.7047 60.4582 74.462C60.0289 74.2193 59.5436 74.098 59.0022 74.098C58.4796 74.098 57.9989 74.224 57.5602 74.476C57.1309 74.728 56.7902 75.0873 56.5382 75.554C56.2862 76.0207 56.1602 76.562 56.1602 77.178C56.1602 77.794 56.2862 78.3353 56.5382 78.802C56.7902 79.2687 57.1309 79.628 57.5602 79.88C57.9989 80.132 58.4796 80.258 59.0022 80.258C59.5436 80.258 60.0289 80.1367 60.4582 79.894C60.8876 79.642 61.2236 79.2827 61.4662 78.816C61.7182 78.34 61.8442 77.7893 61.8442 77.164ZM67.9875 81.112C67.2688 81.112 66.6202 80.9533 66.0415 80.636C65.4722 80.3093 65.0195 79.852 64.6835 79.264C64.3568 78.6667 64.1935 77.9713 64.1935 77.178C64.1935 76.3847 64.3615 75.694 64.6975 75.106C65.0335 74.5087 65.4908 74.0513 66.0695 73.734C66.6482 73.4073 67.2968 73.244 68.0155 73.244C68.7342 73.244 69.3828 73.4073 69.9615 73.734C70.5495 74.0513 71.0068 74.5087 71.3335 75.106C71.6695 75.694 71.8375 76.3847 71.8375 77.178C71.8375 77.962 71.6695 78.6527 71.3335 79.25C70.9975 79.8473 70.5355 80.3093 69.9475 80.636C69.3595 80.9533 68.7062 81.112 67.9875 81.112ZM67.9875 80.258C68.4915 80.258 68.9582 80.146 69.3875 79.922C69.8168 79.6887 70.1622 79.3433 70.4235 78.886C70.6942 78.4193 70.8295 77.85 70.8295 77.178C70.8295 76.506 70.6988 75.9413 70.4375 75.484C70.1762 75.0173 69.8308 74.672 69.4015 74.448C68.9722 74.2147 68.5055 74.098 68.0015 74.098C67.4975 74.098 67.0308 74.2147 66.6015 74.448C66.1722 74.672 65.8268 75.0173 65.5655 75.484C65.3135 75.9413 65.1875 76.506 65.1875 77.178C65.1875 77.85 65.3135 78.4193 65.5655 78.886C65.8268 79.3433 66.1675 79.6887 66.5875 79.922C67.0168 80.146 67.4835 80.258 67.9875 80.258ZM74.6039 74.714C74.8186 74.238 75.1452 73.8693 75.5839 73.608C76.0319 73.3467 76.5779 73.216 77.2219 73.216V74.238H76.9559C76.2466 74.238 75.6772 74.4293 75.2479 74.812C74.8186 75.1947 74.6039 75.834 74.6039 76.73V81H73.6239V73.356H74.6039V74.714ZM82.09 77.178C82.09 76.3847 82.2486 75.694 82.566 75.106C82.8833 74.5087 83.322 74.0513 83.882 73.734C84.442 73.4073 85.0813 73.244 85.8 73.244C86.7426 73.244 87.5173 73.4773 88.124 73.944C88.74 74.4107 89.1366 75.0453 89.314 75.848H88.264C88.1333 75.2973 87.8486 74.868 87.41 74.56C86.9806 74.2427 86.444 74.084 85.8 74.084C85.2866 74.084 84.8246 74.2007 84.414 74.434C84.0033 74.6673 83.6766 75.0173 83.434 75.484C83.2006 75.9413 83.084 76.506 83.084 77.178C83.084 77.85 83.2006 78.4193 83.434 78.886C83.6766 79.3527 84.0033 79.7027 84.414 79.936C84.8246 80.1693 85.2866 80.286 85.8 80.286C86.444 80.286 86.9806 80.132 87.41 79.824C87.8486 79.5067 88.1333 79.068 88.264 78.508H89.314C89.1366 79.292 88.74 79.922 88.124 80.398C87.508 80.874 86.7333 81.112 85.8 81.112C85.0813 81.112 84.442 80.9533 83.882 80.636C83.322 80.3093 82.8833 79.852 82.566 79.264C82.2486 78.6667 82.09 77.9713 82.09 77.178ZM90.6759 77.164C90.6759 76.38 90.8299 75.694 91.1379 75.106C91.4552 74.5087 91.8892 74.0513 92.4399 73.734C92.9999 73.4073 93.6299 73.244 94.3299 73.244C95.0579 73.244 95.6832 73.412 96.2059 73.748C96.7379 74.084 97.1206 74.5133 97.3539 75.036V73.356H98.3339V81H97.3539V79.306C97.1112 79.8287 96.7239 80.2627 96.1919 80.608C95.6692 80.944 95.0439 81.112 94.3159 81.112C93.6252 81.112 92.9999 80.9487 92.4399 80.622C91.8892 80.2953 91.4552 79.8333 91.1379 79.236C90.8299 78.6387 90.6759 77.948 90.6759 77.164ZM97.3539 77.178C97.3539 76.562 97.2279 76.0207 96.9759 75.554C96.7239 75.0873 96.3786 74.728 95.9399 74.476C95.5106 74.224 95.0346 74.098 94.5119 74.098C93.9706 74.098 93.4852 74.2193 93.0559 74.462C92.6266 74.7047 92.2859 75.0593 92.0339 75.526C91.7912 75.9833 91.6699 76.5293 91.6699 77.164C91.6699 77.7893 91.7912 78.34 92.0339 78.816C92.2859 79.2827 92.6266 79.642 93.0559 79.894C93.4852 80.1367 93.9706 80.258 94.5119 80.258C95.0346 80.258 95.5106 80.132 95.9399 79.88C96.3786 79.628 96.7239 79.2687 96.9759 78.802C97.2279 78.3353 97.3539 77.794 97.3539 77.178ZM104.155 73.216C105.07 73.216 105.817 73.5007 106.395 74.07C106.974 74.63 107.263 75.4467 107.263 76.52V81H106.297V76.632C106.297 75.8013 106.087 75.1667 105.667 74.728C105.257 74.2893 104.692 74.07 103.973 74.07C103.236 74.07 102.648 74.3033 102.209 74.77C101.771 75.2367 101.551 75.9227 101.551 76.828V81H100.571V73.356H101.551V74.658C101.794 74.1913 102.144 73.8367 102.601 73.594C103.059 73.342 103.577 73.216 104.155 73.216ZM119.894 73.356V81H118.914V79.656C118.69 80.132 118.345 80.496 117.878 80.748C117.412 81 116.889 81.126 116.31 81.126C115.396 81.126 114.649 80.846 114.07 80.286C113.492 79.7167 113.202 78.8953 113.202 77.822V73.356H114.168V77.71C114.168 78.5407 114.374 79.1753 114.784 79.614C115.204 80.0527 115.774 80.272 116.492 80.272C117.23 80.272 117.818 80.0387 118.256 79.572C118.695 79.1053 118.914 78.4193 118.914 77.514V73.356H119.894ZM125.716 73.216C126.63 73.216 127.377 73.5007 127.956 74.07C128.534 74.63 128.824 75.4467 128.824 76.52V81H127.858V76.632C127.858 75.8013 127.648 75.1667 127.228 74.728C126.817 74.2893 126.252 74.07 125.534 74.07C124.796 74.07 124.208 74.3033 123.77 74.77C123.331 75.2367 123.112 75.9227 123.112 76.828V81H122.132V73.356H123.112V74.658C123.354 74.1913 123.704 73.8367 124.162 73.594C124.619 73.342 125.137 73.216 125.716 73.216ZM130.543 77.164C130.543 76.38 130.702 75.694 131.019 75.106C131.336 74.5087 131.77 74.0513 132.321 73.734C132.881 73.4073 133.511 73.244 134.211 73.244C134.883 73.244 135.49 73.4073 136.031 73.734C136.572 74.0607 136.969 74.4853 137.221 75.008V70.64H138.201V81H137.221V79.292C136.988 79.824 136.605 80.2627 136.073 80.608C135.541 80.944 134.916 81.112 134.197 81.112C133.497 81.112 132.867 80.9487 132.307 80.622C131.756 80.2953 131.322 79.8333 131.005 79.236C130.697 78.6387 130.543 77.948 130.543 77.164ZM137.221 77.178C137.221 76.562 137.095 76.0207 136.843 75.554C136.591 75.0873 136.246 74.728 135.807 74.476C135.378 74.224 134.902 74.098 134.379 74.098C133.838 74.098 133.352 74.2193 132.923 74.462C132.494 74.7047 132.153 75.0593 131.901 75.526C131.658 75.9833 131.537 76.5293 131.537 77.164C131.537 77.7893 131.658 78.34 131.901 78.816C132.153 79.2827 132.494 79.642 132.923 79.894C133.352 80.1367 133.838 80.258 134.379 80.258C134.902 80.258 135.378 80.132 135.807 79.88C136.246 79.628 136.591 79.2687 136.843 78.802C137.095 78.3353 137.221 77.794 137.221 77.178ZM147.354 76.786C147.354 77.122 147.345 77.3787 147.326 77.556H140.984C141.012 78.1347 141.152 78.6293 141.404 79.04C141.656 79.4507 141.988 79.7633 142.398 79.978C142.809 80.1833 143.257 80.286 143.742 80.286C144.377 80.286 144.909 80.132 145.338 79.824C145.777 79.516 146.066 79.1007 146.206 78.578H147.242C147.056 79.3247 146.654 79.936 146.038 80.412C145.432 80.8787 144.666 81.112 143.742 81.112C143.024 81.112 142.38 80.9533 141.81 80.636C141.241 80.3093 140.793 79.852 140.466 79.264C140.149 78.6667 139.99 77.9713 139.99 77.178C139.99 76.3847 140.149 75.6893 140.466 75.092C140.784 74.4947 141.227 74.0373 141.796 73.72C142.366 73.4027 143.014 73.244 143.742 73.244C144.47 73.244 145.105 73.4027 145.646 73.72C146.197 74.0373 146.617 74.4667 146.906 75.008C147.205 75.54 147.354 76.1327 147.354 76.786ZM146.36 76.758C146.37 76.1887 146.253 75.7033 146.01 75.302C145.777 74.9007 145.455 74.5973 145.044 74.392C144.634 74.1867 144.186 74.084 143.7 74.084C142.972 74.084 142.352 74.3173 141.838 74.784C141.325 75.2507 141.04 75.9087 140.984 76.758H146.36ZM150.127 74.714C150.342 74.238 150.669 73.8693 151.107 73.608C151.555 73.3467 152.101 73.216 152.745 73.216V74.238H152.479C151.77 74.238 151.201 74.4293 150.771 74.812C150.342 75.1947 150.127 75.834 150.127 76.73V81H149.147V73.356H150.127V74.714ZM156.852 81.112C155.974 81.112 155.256 80.9113 154.696 80.51C154.145 80.0993 153.837 79.544 153.772 78.844H154.78C154.826 79.2733 155.027 79.6233 155.382 79.894C155.746 80.1553 156.231 80.286 156.838 80.286C157.37 80.286 157.785 80.16 158.084 79.908C158.392 79.656 158.546 79.3433 158.546 78.97C158.546 78.7087 158.462 78.494 158.294 78.326C158.126 78.158 157.911 78.0273 157.65 77.934C157.398 77.8313 157.052 77.724 156.614 77.612C156.044 77.4627 155.582 77.3133 155.228 77.164C154.873 77.0147 154.57 76.7953 154.318 76.506C154.075 76.2073 153.954 75.8107 153.954 75.316C153.954 74.9427 154.066 74.5973 154.29 74.28C154.514 73.9627 154.831 73.7107 155.242 73.524C155.652 73.3373 156.119 73.244 156.642 73.244C157.463 73.244 158.126 73.454 158.63 73.874C159.134 74.2847 159.404 74.854 159.442 75.582H158.462C158.434 75.134 158.256 74.7747 157.93 74.504C157.612 74.224 157.174 74.084 156.614 74.084C156.119 74.084 155.718 74.2007 155.41 74.434C155.102 74.6673 154.948 74.9567 154.948 75.302C154.948 75.6007 155.036 75.848 155.214 76.044C155.4 76.2307 155.629 76.38 155.9 76.492C156.17 76.5947 156.534 76.7113 156.992 76.842C157.542 76.9913 157.981 77.136 158.308 77.276C158.634 77.416 158.914 77.6213 159.148 77.892C159.381 78.1627 159.502 78.522 159.512 78.97C159.512 79.3807 159.4 79.7493 159.176 80.076C158.952 80.3933 158.639 80.6453 158.238 80.832C157.836 81.0187 157.374 81.112 156.852 81.112ZM162.63 74.182V78.928C162.63 79.3947 162.719 79.7167 162.896 79.894C163.074 80.0713 163.386 80.16 163.834 80.16H164.73V81H163.68C162.99 81 162.476 80.8413 162.14 80.524C161.804 80.1973 161.636 79.6653 161.636 78.928V74.182H160.572V73.356H161.636V71.438H162.63V73.356H164.73V74.182H162.63ZM165.899 77.164C165.899 76.38 166.053 75.694 166.361 75.106C166.678 74.5087 167.112 74.0513 167.663 73.734C168.223 73.4073 168.853 73.244 169.553 73.244C170.281 73.244 170.906 73.412 171.429 73.748C171.961 74.084 172.343 74.5133 172.577 75.036V73.356H173.557V81H172.577V79.306C172.334 79.8287 171.947 80.2627 171.415 80.608C170.892 80.944 170.267 81.112 169.539 81.112C168.848 81.112 168.223 80.9487 167.663 80.622C167.112 80.2953 166.678 79.8333 166.361 79.236C166.053 78.6387 165.899 77.948 165.899 77.164ZM172.577 77.178C172.577 76.562 172.451 76.0207 172.199 75.554C171.947 75.0873 171.601 74.728 171.163 74.476C170.733 74.224 170.257 74.098 169.735 74.098C169.193 74.098 168.708 74.2193 168.279 74.462C167.849 74.7047 167.509 75.0593 167.257 75.526C167.014 75.9833 166.893 76.5293 166.893 77.164C166.893 77.7893 167.014 78.34 167.257 78.816C167.509 79.2827 167.849 79.642 168.279 79.894C168.708 80.1367 169.193 80.258 169.735 80.258C170.257 80.258 170.733 80.132 171.163 79.88C171.601 79.628 171.947 79.2687 172.199 78.802C172.451 78.3353 172.577 77.794 172.577 77.178ZM179.378 73.216C180.292 73.216 181.039 73.5007 181.618 74.07C182.196 74.63 182.486 75.4467 182.486 76.52V81H181.52V76.632C181.52 75.8013 181.31 75.1667 180.89 74.728C180.479 74.2893 179.914 74.07 179.196 74.07C178.458 74.07 177.87 74.3033 177.432 74.77C176.993 75.2367 176.774 75.9227 176.774 76.828V81H175.794V73.356H176.774V74.658C177.016 74.1913 177.366 73.8367 177.824 73.594C178.281 73.342 178.799 73.216 179.378 73.216ZM184.205 77.164C184.205 76.38 184.364 75.694 184.681 75.106C184.999 74.5087 185.433 74.0513 185.983 73.734C186.543 73.4073 187.173 73.244 187.873 73.244C188.545 73.244 189.152 73.4073 189.693 73.734C190.235 74.0607 190.631 74.4853 190.883 75.008V70.64H191.863V81H190.883V79.292C190.65 79.824 190.267 80.2627 189.735 80.608C189.203 80.944 188.578 81.112 187.859 81.112C187.159 81.112 186.529 80.9487 185.969 80.622C185.419 80.2953 184.985 79.8333 184.667 79.236C184.359 78.6387 184.205 77.948 184.205 77.164ZM190.883 77.178C190.883 76.562 190.757 76.0207 190.505 75.554C190.253 75.0873 189.908 74.728 189.469 74.476C189.04 74.224 188.564 74.098 188.041 74.098C187.5 74.098 187.015 74.2193 186.585 74.462C186.156 74.7047 185.815 75.0593 185.563 75.526C185.321 75.9833 185.199 76.5293 185.199 77.164C185.199 77.7893 185.321 78.34 185.563 78.816C185.815 79.2827 186.156 79.642 186.585 79.894C187.015 80.1367 187.5 80.258 188.041 80.258C188.564 80.258 189.04 80.132 189.469 79.88C189.908 79.628 190.253 79.2687 190.505 78.802C190.757 78.3353 190.883 77.794 190.883 77.178ZM198.432 71.914C198.236 71.914 198.068 71.844 197.928 71.704C197.788 71.564 197.718 71.3913 197.718 71.186C197.718 70.9807 197.788 70.8127 197.928 70.682C198.068 70.542 198.236 70.472 198.432 70.472C198.628 70.472 198.796 70.542 198.936 70.682C199.076 70.8127 199.146 70.9807 199.146 71.186C199.146 71.3913 199.076 71.564 198.936 71.704C198.796 71.844 198.628 71.914 198.432 71.914ZM198.922 73.356V81H197.942V73.356H198.922ZM202.415 74.182V78.928C202.415 79.3947 202.504 79.7167 202.681 79.894C202.859 80.0713 203.171 80.16 203.619 80.16H204.515V81H203.465C202.775 81 202.261 80.8413 201.925 80.524C201.589 80.1973 201.421 79.6653 201.421 78.928V74.182H200.357V73.356H201.421V71.438H202.415V73.356H204.515V74.182H202.415ZM210.464 71.914C210.268 71.914 210.1 71.844 209.96 71.704C209.82 71.564 209.75 71.3913 209.75 71.186C209.75 70.9807 209.82 70.8127 209.96 70.682C210.1 70.542 210.268 70.472 210.464 70.472C210.66 70.472 210.828 70.542 210.968 70.682C211.108 70.8127 211.178 70.9807 211.178 71.186C211.178 71.3913 211.108 71.564 210.968 71.704C210.828 71.844 210.66 71.914 210.464 71.914ZM210.954 73.356V81H209.974V73.356H210.954ZM216.757 73.216C217.671 73.216 218.418 73.5007 218.997 74.07C219.575 74.63 219.865 75.4467 219.865 76.52V81H218.899V76.632C218.899 75.8013 218.689 75.1667 218.269 74.728C217.858 74.2893 217.293 74.07 216.575 74.07C215.837 74.07 215.249 74.3033 214.811 74.77C214.372 75.2367 214.153 75.9227 214.153 76.828V81H213.173V73.356H214.153V74.658C214.395 74.1913 214.745 73.8367 215.203 73.594C215.66 73.342 216.178 73.216 216.757 73.216ZM19.466 102.112C18.7473 102.112 18.0987 101.953 17.52 101.636C16.9507 101.309 16.498 100.852 16.162 100.264C15.8353 99.6667 15.672 98.9713 15.672 98.178C15.672 97.3847 15.84 96.694 16.176 96.106C16.512 95.5087 16.9693 95.0513 17.548 94.734C18.1267 94.4073 18.7753 94.244 19.494 94.244C20.2127 94.244 20.8613 94.4073 21.44 94.734C22.028 95.0513 22.4853 95.5087 22.812 96.106C23.148 96.694 23.316 97.3847 23.316 98.178C23.316 98.962 23.148 99.6527 22.812 100.25C22.476 100.847 22.014 101.309 21.426 101.636C20.838 101.953 20.1847 102.112 19.466 102.112ZM19.466 101.258C19.97 101.258 20.4367 101.146 20.866 100.922C21.2953 100.689 21.6407 100.343 21.902 99.886C22.1727 99.4193 22.308 98.85 22.308 98.178C22.308 97.506 22.1773 96.9413 21.916 96.484C21.6547 96.0173 21.3093 95.672 20.88 95.448C20.4507 95.2147 19.984 95.098 19.48 95.098C18.976 95.098 18.5093 95.2147 18.08 95.448C17.6507 95.672 17.3053 96.0173 17.044 96.484C16.792 96.9413 16.666 97.506 16.666 98.178C16.666 98.85 16.792 99.4193 17.044 99.886C17.3053 100.343 17.646 100.689 18.066 100.922C18.4953 101.146 18.962 101.258 19.466 101.258ZM28.6864 94.216C29.6011 94.216 30.3478 94.5007 30.9264 95.07C31.5051 95.63 31.7944 96.4467 31.7944 97.52V102H30.8284V97.632C30.8284 96.8013 30.6184 96.1667 30.1984 95.728C29.7878 95.2893 29.2231 95.07 28.5044 95.07C27.7671 95.07 27.1791 95.3033 26.7404 95.77C26.3018 96.2367 26.0824 96.9227 26.0824 97.828V102H25.1024V94.356H26.0824V95.658C26.3251 95.1913 26.6751 94.8367 27.1324 94.594C27.5898 94.342 28.1078 94.216 28.6864 94.216ZM40.8778 97.786C40.8778 98.122 40.8685 98.3787 40.8498 98.556H34.5078C34.5358 99.1347 34.6758 99.6293 34.9278 100.04C35.1798 100.451 35.5111 100.763 35.9218 100.978C36.3325 101.183 36.7805 101.286 37.2658 101.286C37.9005 101.286 38.4325 101.132 38.8618 100.824C39.3005 100.516 39.5898 100.101 39.7298 99.578H40.7658C40.5791 100.325 40.1778 100.936 39.5618 101.412C38.9551 101.879 38.1898 102.112 37.2658 102.112C36.5471 102.112 35.9031 101.953 35.3338 101.636C34.7645 101.309 34.3165 100.852 33.9898 100.264C33.6725 99.6667 33.5138 98.9713 33.5138 98.178C33.5138 97.3847 33.6725 96.6893 33.9898 96.092C34.3071 95.4947 34.7505 95.0373 35.3198 94.72C35.8891 94.4027 36.5378 94.244 37.2658 94.244C37.9938 94.244 38.6285 94.4027 39.1698 94.72C39.7205 95.0373 40.1405 95.4667 40.4298 96.008C40.7285 96.54 40.8778 97.1327 40.8778 97.786ZM39.8838 97.758C39.8931 97.1887 39.7765 96.7033 39.5338 96.302C39.3005 95.9007 38.9785 95.5973 38.5678 95.392C38.1571 95.1867 37.7091 95.084 37.2238 95.084C36.4958 95.084 35.8751 95.3173 35.3618 95.784C34.8485 96.2507 34.5638 96.9087 34.5078 97.758H39.8838ZM49.1446 102.112C48.2672 102.112 47.5486 101.911 46.9886 101.51C46.4379 101.099 46.1299 100.544 46.0646 99.844H47.0726C47.1192 100.273 47.3199 100.623 47.6746 100.894C48.0386 101.155 48.5239 101.286 49.1306 101.286C49.6626 101.286 50.0779 101.16 50.3766 100.908C50.6846 100.656 50.8386 100.343 50.8386 99.97C50.8386 99.7087 50.7546 99.494 50.5866 99.326C50.4186 99.158 50.2039 99.0273 49.9426 98.934C49.6906 98.8313 49.3452 98.724 48.9066 98.612C48.3372 98.4627 47.8752 98.3133 47.5206 98.164C47.1659 98.0147 46.8626 97.7953 46.6106 97.506C46.3679 97.2073 46.2466 96.8107 46.2466 96.316C46.2466 95.9427 46.3586 95.5973 46.5826 95.28C46.8066 94.9627 47.1239 94.7107 47.5346 94.524C47.9452 94.3373 48.4119 94.244 48.9346 94.244C49.7559 94.244 50.4186 94.454 50.9226 94.874C51.4266 95.2847 51.6972 95.854 51.7346 96.582H50.7546C50.7266 96.134 50.5492 95.7747 50.2226 95.504C49.9052 95.224 49.4666 95.084 48.9066 95.084C48.4119 95.084 48.0106 95.2007 47.7026 95.434C47.3946 95.6673 47.2406 95.9567 47.2406 96.302C47.2406 96.6007 47.3292 96.848 47.5066 97.044C47.6932 97.2307 47.9219 97.38 48.1926 97.492C48.4632 97.5947 48.8272 97.7113 49.2846 97.842C49.8352 97.9913 50.2739 98.136 50.6006 98.276C50.9272 98.416 51.2072 98.6213 51.4406 98.892C51.6739 99.1627 51.7952 99.522 51.8046 99.97C51.8046 100.381 51.6926 100.749 51.4686 101.076C51.2446 101.393 50.9319 101.645 50.5306 101.832C50.1292 102.019 49.6672 102.112 49.1446 102.112ZM60.5653 97.786C60.5653 98.122 60.556 98.3787 60.5373 98.556H54.1953C54.2233 99.1347 54.3633 99.6293 54.6153 100.04C54.8673 100.451 55.1986 100.763 55.6093 100.978C56.02 101.183 56.468 101.286 56.9533 101.286C57.588 101.286 58.12 101.132 58.5493 100.824C58.988 100.516 59.2773 100.101 59.4173 99.578H60.4533C60.2666 100.325 59.8653 100.936 59.2493 101.412C58.6426 101.879 57.8773 102.112 56.9533 102.112C56.2346 102.112 55.5906 101.953 55.0213 101.636C54.452 101.309 54.004 100.852 53.6773 100.264C53.36 99.6667 53.2013 98.9713 53.2013 98.178C53.2013 97.3847 53.36 96.6893 53.6773 96.092C53.9946 95.4947 54.438 95.0373 55.0073 94.72C55.5766 94.4027 56.2253 94.244 56.9533 94.244C57.6813 94.244 58.316 94.4027 58.8573 94.72C59.408 95.0373 59.828 95.4667 60.1173 96.008C60.416 96.54 60.5653 97.1327 60.5653 97.786ZM59.5713 97.758C59.5806 97.1887 59.464 96.7033 59.2213 96.302C58.988 95.9007 58.666 95.5973 58.2553 95.392C57.8446 95.1867 57.3966 95.084 56.9113 95.084C56.1833 95.084 55.5626 95.3173 55.0493 95.784C54.536 96.2507 54.2513 96.9087 54.1953 97.758H59.5713ZM65.9423 94.216C66.8569 94.216 67.6036 94.5007 68.1823 95.07C68.7609 95.63 69.0503 96.4467 69.0503 97.52V102H68.0843V97.632C68.0843 96.8013 67.8743 96.1667 67.4543 95.728C67.0436 95.2893 66.4789 95.07 65.7603 95.07C65.0229 95.07 64.4349 95.3033 63.9963 95.77C63.5576 96.2367 63.3383 96.9227 63.3383 97.828V102H62.3583V94.356H63.3383V95.658C63.5809 95.1913 63.9309 94.8367 64.3883 94.594C64.8456 94.342 65.3636 94.216 65.9423 94.216ZM72.4917 95.182V99.928C72.4917 100.395 72.5803 100.717 72.7577 100.894C72.935 101.071 73.2477 101.16 73.6957 101.16H74.5917V102H73.5417C72.851 102 72.3377 101.841 72.0017 101.524C71.6657 101.197 71.4977 100.665 71.4977 99.928V95.182H70.4337V94.356H71.4977V92.438H72.4917V94.356H74.5917V95.182H72.4917ZM83.1239 97.786C83.1239 98.122 83.1146 98.3787 83.0959 98.556H76.7539C76.7819 99.1347 76.9219 99.6293 77.1739 100.04C77.4259 100.451 77.7572 100.763 78.1679 100.978C78.5786 101.183 79.0266 101.286 79.5119 101.286C80.1466 101.286 80.6786 101.132 81.1079 100.824C81.5466 100.516 81.8359 100.101 81.9759 99.578H83.0119C82.8252 100.325 82.4239 100.936 81.8079 101.412C81.2012 101.879 80.4359 102.112 79.5119 102.112C78.7932 102.112 78.1492 101.953 77.5799 101.636C77.0106 101.309 76.5626 100.852 76.2359 100.264C75.9186 99.6667 75.7599 98.9713 75.7599 98.178C75.7599 97.3847 75.9186 96.6893 76.2359 96.092C76.5532 95.4947 76.9966 95.0373 77.5659 94.72C78.1352 94.4027 78.7839 94.244 79.5119 94.244C80.2399 94.244 80.8746 94.4027 81.4159 94.72C81.9666 95.0373 82.3866 95.4667 82.6759 96.008C82.9746 96.54 83.1239 97.1327 83.1239 97.786ZM82.1299 97.758C82.1392 97.1887 82.0226 96.7033 81.7799 96.302C81.5466 95.9007 81.2246 95.5973 80.8139 95.392C80.4032 95.1867 79.9552 95.084 79.4699 95.084C78.7419 95.084 78.1212 95.3173 77.6079 95.784C77.0946 96.2507 76.8099 96.9087 76.7539 97.758H82.1299ZM88.5009 94.216C89.4155 94.216 90.1622 94.5007 90.7409 95.07C91.3195 95.63 91.6089 96.4467 91.6089 97.52V102H90.6429V97.632C90.6429 96.8013 90.4329 96.1667 90.0129 95.728C89.6022 95.2893 89.0375 95.07 88.3189 95.07C87.5815 95.07 86.9935 95.3033 86.5549 95.77C86.1162 96.2367 85.8969 96.9227 85.8969 97.828V102H84.9169V94.356H85.8969V95.658C86.1395 95.1913 86.4895 94.8367 86.9469 94.594C87.4042 94.342 87.9222 94.216 88.5009 94.216ZM93.3283 98.178C93.3283 97.3847 93.4869 96.694 93.8043 96.106C94.1216 95.5087 94.5603 95.0513 95.1203 94.734C95.6803 94.4073 96.3196 94.244 97.0383 94.244C97.9809 94.244 98.7556 94.4773 99.3623 94.944C99.9783 95.4107 100.375 96.0453 100.552 96.848H99.5023C99.3716 96.2973 99.0869 95.868 98.6483 95.56C98.2189 95.2427 97.6823 95.084 97.0383 95.084C96.5249 95.084 96.0629 95.2007 95.6523 95.434C95.2416 95.6673 94.9149 96.0173 94.6723 96.484C94.4389 96.9413 94.3223 97.506 94.3223 98.178C94.3223 98.85 94.4389 99.4193 94.6723 99.886C94.9149 100.353 95.2416 100.703 95.6523 100.936C96.0629 101.169 96.5249 101.286 97.0383 101.286C97.6823 101.286 98.2189 101.132 98.6483 100.824C99.0869 100.507 99.3716 100.068 99.5023 99.508H100.552C100.375 100.292 99.9783 100.922 99.3623 101.398C98.7463 101.874 97.9716 102.112 97.0383 102.112C96.3196 102.112 95.6803 101.953 95.1203 101.636C94.5603 101.309 94.1216 100.852 93.8043 100.264C93.4869 99.6667 93.3283 98.9713 93.3283 98.178ZM109.278 97.786C109.278 98.122 109.269 98.3787 109.25 98.556H102.908C102.936 99.1347 103.076 99.6293 103.328 100.04C103.58 100.451 103.912 100.763 104.322 100.978C104.733 101.183 105.181 101.286 105.666 101.286C106.301 101.286 106.833 101.132 107.262 100.824C107.701 100.516 107.99 100.101 108.13 99.578H109.166C108.98 100.325 108.578 100.936 107.962 101.412C107.356 101.879 106.59 102.112 105.666 102.112C104.948 102.112 104.304 101.953 103.734 101.636C103.165 101.309 102.717 100.852 102.39 100.264C102.073 99.6667 101.914 98.9713 101.914 98.178C101.914 97.3847 102.073 96.6893 102.39 96.092C102.708 95.4947 103.151 95.0373 103.72 94.72C104.29 94.4027 104.938 94.244 105.666 94.244C106.394 94.244 107.029 94.4027 107.57 94.72C108.121 95.0373 108.541 95.4667 108.83 96.008C109.129 96.54 109.278 97.1327 109.278 97.786ZM108.284 97.758C108.294 97.1887 108.177 96.7033 107.934 96.302C107.701 95.9007 107.379 95.5973 106.968 95.392C106.558 95.1867 106.11 95.084 105.624 95.084C104.896 95.084 104.276 95.3173 103.762 95.784C103.249 96.2507 102.964 96.9087 102.908 97.758H108.284Z" fill="white"/>
</svg>
