<svg width="255" height="146" viewBox="0 0 255 146" fill="none" xmlns="http://www.w3.org/2000/svg">
<path d="M202.192 142.857C202.528 143.693 203.711 143.693 204.047 142.857L210.465 126.913C210.729 126.256 210.246 125.54 209.537 125.54L196.702 125.54C195.994 125.54 195.51 126.256 195.775 126.913L202.192 142.857Z" fill="#28C65C"/>
<rect width="255" height="132" rx="20" transform="matrix(-1 0 0 1 255 0)" fill="#28C65C"/>
<path d="M22.378 32.028C22.378 32.868 22.1027 33.5447 21.552 34.058C21.0013 34.5713 20.1753 34.828 19.074 34.828H17.1V39H16.12V29.214H19.074C20.166 29.214 20.9873 29.4707 21.538 29.984C22.098 30.4973 22.378 31.1787 22.378 32.028ZM19.074 33.988C20.6047 33.988 21.37 33.3347 21.37 32.028C21.37 31.3747 21.188 30.88 20.824 30.544C20.46 30.208 19.8767 30.04 19.074 30.04H17.1V33.988H19.074ZM23.5743 35.164C23.5743 34.38 23.7283 33.694 24.0363 33.106C24.3537 32.5087 24.7877 32.0513 25.3383 31.734C25.8983 31.4073 26.5283 31.244 27.2283 31.244C27.9563 31.244 28.5817 31.412 29.1043 31.748C29.6363 32.084 30.019 32.5133 30.2523 33.036V31.356H31.2323V39H30.2523V37.306C30.0097 37.8287 29.6223 38.2627 29.0903 38.608C28.5677 38.944 27.9423 39.112 27.2143 39.112C26.5237 39.112 25.8983 38.9487 25.3383 38.622C24.7877 38.2953 24.3537 37.8333 24.0363 37.236C23.7283 36.6387 23.5743 35.948 23.5743 35.164ZM30.2523 35.178C30.2523 34.562 30.1263 34.0207 29.8743 33.554C29.6223 33.0873 29.277 32.728 28.8383 32.476C28.409 32.224 27.933 32.098 27.4103 32.098C26.869 32.098 26.3837 32.2193 25.9543 32.462C25.525 32.7047 25.1843 33.0593 24.9323 33.526C24.6897 33.9833 24.5683 34.5293 24.5683 35.164C24.5683 35.7893 24.6897 36.34 24.9323 36.816C25.1843 37.2827 25.525 37.642 25.9543 37.894C26.3837 38.1367 26.869 38.258 27.4103 38.258C27.933 38.258 28.409 38.132 28.8383 37.88C29.277 37.628 29.6223 37.2687 29.8743 36.802C30.1263 36.3353 30.2523 35.794 30.2523 35.178ZM34.4496 32.714C34.6643 32.238 34.9909 31.8693 35.4296 31.608C35.8776 31.3467 36.4236 31.216 37.0676 31.216V32.238H36.8016C36.0923 32.238 35.5229 32.4293 35.0936 32.812C34.6643 33.1947 34.4496 33.834 34.4496 34.73V39H33.4696V31.356H34.4496V32.714ZM39.8159 32.182V36.928C39.8159 37.3947 39.9045 37.7167 40.0819 37.894C40.2592 38.0713 40.5719 38.16 41.0199 38.16H41.9159V39H40.8659C40.1752 39 39.6619 38.8413 39.3259 38.524C38.9899 38.1973 38.8219 37.6653 38.8219 36.928V32.182H37.7579V31.356H38.8219V29.438H39.8159V31.356H41.9159V32.182H39.8159ZM47.1161 31.216C48.0308 31.216 48.7774 31.5007 49.3561 32.07C49.9348 32.63 50.2241 33.4467 50.2241 34.52V39H49.2581V34.632C49.2581 33.8013 49.0481 33.1667 48.6281 32.728C48.2174 32.2893 47.6528 32.07 46.9341 32.07C46.1968 32.07 45.6088 32.3033 45.1701 32.77C44.7314 33.2367 44.5121 33.9227 44.5121 34.828V39H43.5321V31.356H44.5121V32.658C44.7548 32.1913 45.1048 31.8367 45.5621 31.594C46.0194 31.342 46.5374 31.216 47.1161 31.216ZM59.3075 34.786C59.3075 35.122 59.2982 35.3787 59.2795 35.556H52.9375C52.9655 36.1347 53.1055 36.6293 53.3575 37.04C53.6095 37.4507 53.9408 37.7633 54.3515 37.978C54.7622 38.1833 55.2102 38.286 55.6955 38.286C56.3302 38.286 56.8622 38.132 57.2915 37.824C57.7302 37.516 58.0195 37.1007 58.1595 36.578H59.1955C59.0088 37.3247 58.6075 37.936 57.9915 38.412C57.3848 38.8787 56.6195 39.112 55.6955 39.112C54.9768 39.112 54.3328 38.9533 53.7635 38.636C53.1942 38.3093 52.7462 37.852 52.4195 37.264C52.1022 36.6667 51.9435 35.9713 51.9435 35.178C51.9435 34.3847 52.1022 33.6893 52.4195 33.092C52.7368 32.4947 53.1802 32.0373 53.7495 31.72C54.3188 31.4027 54.9675 31.244 55.6955 31.244C56.4235 31.244 57.0582 31.4027 57.5995 31.72C58.1502 32.0373 58.5702 32.4667 58.8595 33.008C59.1582 33.54 59.3075 34.1327 59.3075 34.786ZM58.3135 34.758C58.3228 34.1887 58.2062 33.7033 57.9635 33.302C57.7302 32.9007 57.4082 32.5973 56.9975 32.392C56.5868 32.1867 56.1388 32.084 55.6535 32.084C54.9255 32.084 54.3048 32.3173 53.7915 32.784C53.2782 33.2507 52.9935 33.9087 52.9375 34.758H58.3135ZM62.0805 32.714C62.2951 32.238 62.6218 31.8693 63.0605 31.608C63.5085 31.3467 64.0545 31.216 64.6985 31.216V32.238H64.4325C63.7231 32.238 63.1538 32.4293 62.7245 32.812C62.2951 33.1947 62.0805 33.834 62.0805 34.73V39H61.1005V31.356H62.0805V32.714ZM68.8047 39.112C67.9274 39.112 67.2087 38.9113 66.6487 38.51C66.0981 38.0993 65.7901 37.544 65.7247 36.844H66.7327C66.7794 37.2733 66.9801 37.6233 67.3347 37.894C67.6987 38.1553 68.1841 38.286 68.7907 38.286C69.3227 38.286 69.7381 38.16 70.0367 37.908C70.3447 37.656 70.4987 37.3433 70.4987 36.97C70.4987 36.7087 70.4147 36.494 70.2467 36.326C70.0787 36.158 69.8641 36.0273 69.6027 35.934C69.3507 35.8313 69.0054 35.724 68.5667 35.612C67.9974 35.4627 67.5354 35.3133 67.1807 35.164C66.8261 35.0147 66.5227 34.7953 66.2707 34.506C66.0281 34.2073 65.9067 33.8107 65.9067 33.316C65.9067 32.9427 66.0187 32.5973 66.2427 32.28C66.4667 31.9627 66.7841 31.7107 67.1947 31.524C67.6054 31.3373 68.0721 31.244 68.5947 31.244C69.4161 31.244 70.0787 31.454 70.5827 31.874C71.0867 32.2847 71.3574 32.854 71.3947 33.582H70.4147C70.3867 33.134 70.2094 32.7747 69.8827 32.504C69.5654 32.224 69.1267 32.084 68.5667 32.084C68.0721 32.084 67.6707 32.2007 67.3627 32.434C67.0547 32.6673 66.9007 32.9567 66.9007 33.302C66.9007 33.6007 66.9894 33.848 67.1667 34.044C67.3534 34.2307 67.5821 34.38 67.8527 34.492C68.1234 34.5947 68.4874 34.7113 68.9447 34.842C69.4954 34.9913 69.9341 35.136 70.2607 35.276C70.5874 35.416 70.8674 35.6213 71.1007 35.892C71.3341 36.1627 71.4554 36.522 71.4647 36.97C71.4647 37.3807 71.3527 37.7493 71.1287 38.076C70.9047 38.3933 70.5921 38.6453 70.1907 38.832C69.7894 39.0187 69.3274 39.112 68.8047 39.112ZM76.9495 31.216C77.5281 31.216 78.0461 31.3373 78.5035 31.58C78.9701 31.8227 79.3341 32.196 79.5955 32.7C79.8661 33.1947 80.0015 33.8013 80.0015 34.52V39H79.0355V34.632C79.0355 33.8013 78.8255 33.1667 78.4055 32.728C77.9948 32.2893 77.4301 32.07 76.7115 32.07C75.9741 32.07 75.3861 32.3033 74.9475 32.77C74.5088 33.2367 74.2895 33.9227 74.2895 34.828V39H73.3095V28.64H74.2895V32.658C74.5321 32.2007 74.8868 31.846 75.3535 31.594C75.8295 31.342 76.3615 31.216 76.9495 31.216ZM82.6588 29.914C82.4628 29.914 82.2948 29.844 82.1548 29.704C82.0148 29.564 81.9448 29.3913 81.9448 29.186C81.9448 28.9807 82.0148 28.8127 82.1548 28.682C82.2948 28.542 82.4628 28.472 82.6588 28.472C82.8548 28.472 83.0228 28.542 83.1628 28.682C83.3028 28.8127 83.3728 28.9807 83.3728 29.186C83.3728 29.3913 83.3028 29.564 83.1628 29.704C83.0228 29.844 82.8548 29.914 82.6588 29.914ZM83.1488 31.356V39H82.1688V31.356H83.1488ZM86.334 33.036C86.5767 32.5227 86.9594 32.098 87.482 31.762C88.014 31.4167 88.644 31.244 89.372 31.244C90.0627 31.244 90.6834 31.4073 91.234 31.734C91.794 32.0513 92.228 32.5087 92.536 33.106C92.8534 33.694 93.012 34.38 93.012 35.164C93.012 35.948 92.8534 36.6387 92.536 37.236C92.228 37.8333 91.794 38.2953 91.234 38.622C90.6834 38.9487 90.0627 39.112 89.372 39.112C88.6534 39.112 88.028 38.944 87.496 38.608C86.964 38.2627 86.5767 37.8333 86.334 37.32V42.612H85.368V31.356H86.334V33.036ZM92.018 35.164C92.018 34.5293 91.892 33.9833 91.64 33.526C91.3974 33.0593 91.0614 32.7047 90.632 32.462C90.2027 32.2193 89.7174 32.098 89.176 32.098C88.6534 32.098 88.1727 32.224 87.734 32.476C87.3047 32.728 86.964 33.0873 86.712 33.554C86.46 34.0207 86.334 34.562 86.334 35.178C86.334 35.794 86.46 36.3353 86.712 36.802C86.964 37.2687 87.3047 37.628 87.734 37.88C88.1727 38.132 88.6534 38.258 89.176 38.258C89.7174 38.258 90.2027 38.1367 90.632 37.894C91.0614 37.642 91.3974 37.2827 91.64 36.816C91.892 36.34 92.018 35.7893 92.018 35.164ZM97.4473 39.112C96.57 39.112 95.8513 38.9113 95.2913 38.51C94.7406 38.0993 94.4326 37.544 94.3673 36.844H95.3753C95.422 37.2733 95.6226 37.6233 95.9773 37.894C96.3413 38.1553 96.8266 38.286 97.4333 38.286C97.9653 38.286 98.3806 38.16 98.6793 37.908C98.9873 37.656 99.1413 37.3433 99.1413 36.97C99.1413 36.7087 99.0573 36.494 98.8893 36.326C98.7213 36.158 98.5066 36.0273 98.2453 35.934C97.9933 35.8313 97.648 35.724 97.2093 35.612C96.64 35.4627 96.178 35.3133 95.8233 35.164C95.4686 35.0147 95.1653 34.7953 94.9133 34.506C94.6706 34.2073 94.5493 33.8107 94.5493 33.316C94.5493 32.9427 94.6613 32.5973 94.8853 32.28C95.1093 31.9627 95.4266 31.7107 95.8373 31.524C96.248 31.3373 96.7146 31.244 97.2373 31.244C98.0586 31.244 98.7213 31.454 99.2253 31.874C99.7293 32.2847 100 32.854 100.037 33.582H99.0573C99.0293 33.134 98.852 32.7747 98.5253 32.504C98.208 32.224 97.7693 32.084 97.2093 32.084C96.7146 32.084 96.3133 32.2007 96.0053 32.434C95.6973 32.6673 95.5433 32.9567 95.5433 33.302C95.5433 33.6007 95.632 33.848 95.8093 34.044C95.996 34.2307 96.2246 34.38 96.4953 34.492C96.766 34.5947 97.13 34.7113 97.5873 34.842C98.138 34.9913 98.5766 35.136 98.9033 35.276C99.23 35.416 99.51 35.6213 99.7433 35.892C99.9766 36.1627 100.098 36.522 100.107 36.97C100.107 37.3807 99.9953 37.7493 99.7713 38.076C99.5473 38.3933 99.2346 38.6453 98.8333 38.832C98.432 39.0187 97.97 39.112 97.4473 39.112ZM108.426 39.112C107.548 39.112 106.83 38.9113 106.27 38.51C105.719 38.0993 105.411 37.544 105.346 36.844H106.354C106.4 37.2733 106.601 37.6233 106.956 37.894C107.32 38.1553 107.805 38.286 108.412 38.286C108.944 38.286 109.359 38.16 109.658 37.908C109.966 37.656 110.12 37.3433 110.12 36.97C110.12 36.7087 110.036 36.494 109.868 36.326C109.7 36.158 109.485 36.0273 109.224 35.934C108.972 35.8313 108.626 35.724 108.188 35.612C107.618 35.4627 107.156 35.3133 106.802 35.164C106.447 35.0147 106.144 34.7953 105.892 34.506C105.649 34.2073 105.528 33.8107 105.528 33.316C105.528 32.9427 105.64 32.5973 105.864 32.28C106.088 31.9627 106.405 31.7107 106.816 31.524C107.226 31.3373 107.693 31.244 108.216 31.244C109.037 31.244 109.7 31.454 110.204 31.874C110.708 32.2847 110.978 32.854 111.016 33.582H110.036C110.008 33.134 109.83 32.7747 109.504 32.504C109.186 32.224 108.748 32.084 108.188 32.084C107.693 32.084 107.292 32.2007 106.984 32.434C106.676 32.6673 106.522 32.9567 106.522 33.302C106.522 33.6007 106.61 33.848 106.788 34.044C106.974 34.2307 107.203 34.38 107.474 34.492C107.744 34.5947 108.108 34.7113 108.566 34.842C109.116 34.9913 109.555 35.136 109.882 35.276C110.208 35.416 110.488 35.6213 110.722 35.892C110.955 36.1627 111.076 36.522 111.086 36.97C111.086 37.3807 110.974 37.7493 110.75 38.076C110.526 38.3933 110.213 38.6453 109.812 38.832C109.41 39.0187 108.948 39.112 108.426 39.112ZM114.205 32.182V36.928C114.205 37.3947 114.293 37.7167 114.471 37.894C114.648 38.0713 114.961 38.16 115.409 38.16H116.305V39H115.255C114.564 39 114.051 38.8413 113.715 38.524C113.379 38.1973 113.211 37.6653 113.211 36.928V32.182H112.147V31.356H113.211V29.438H114.205V31.356H116.305V32.182H114.205ZM124.837 34.786C124.837 35.122 124.827 35.3787 124.809 35.556H118.467C118.495 36.1347 118.635 36.6293 118.887 37.04C119.139 37.4507 119.47 37.7633 119.881 37.978C120.291 38.1833 120.739 38.286 121.225 38.286C121.859 38.286 122.391 38.132 122.821 37.824C123.259 37.516 123.549 37.1007 123.689 36.578H124.725C124.538 37.3247 124.137 37.936 123.521 38.412C122.914 38.8787 122.149 39.112 121.225 39.112C120.506 39.112 119.862 38.9533 119.293 38.636C118.723 38.3093 118.275 37.852 117.949 37.264C117.631 36.6667 117.473 35.9713 117.473 35.178C117.473 34.3847 117.631 33.6893 117.949 33.092C118.266 32.4947 118.709 32.0373 119.279 31.72C119.848 31.4027 120.497 31.244 121.225 31.244C121.953 31.244 122.587 31.4027 123.129 31.72C123.679 32.0373 124.099 32.4667 124.389 33.008C124.687 33.54 124.837 34.1327 124.837 34.786ZM123.843 34.758C123.852 34.1887 123.735 33.7033 123.493 33.302C123.259 32.9007 122.937 32.5973 122.527 32.392C122.116 32.1867 121.668 32.084 121.183 32.084C120.455 32.084 119.834 32.3173 119.321 32.784C118.807 33.2507 118.523 33.9087 118.467 34.758H123.843ZM135.73 31.216C136.626 31.216 137.354 31.5007 137.914 32.07C138.483 32.63 138.768 33.4467 138.768 34.52V39H137.802V34.632C137.802 33.8013 137.601 33.1667 137.2 32.728C136.798 32.2893 136.252 32.07 135.562 32.07C134.843 32.07 134.269 32.308 133.84 32.784C133.41 33.26 133.196 33.9507 133.196 34.856V39H132.23V34.632C132.23 33.8013 132.029 33.1667 131.628 32.728C131.226 32.2893 130.676 32.07 129.976 32.07C129.257 32.07 128.683 32.308 128.254 32.784C127.824 33.26 127.61 33.9507 127.61 34.856V39H126.63V31.356H127.61V32.672C127.852 32.196 128.198 31.8367 128.646 31.594C129.094 31.342 129.593 31.216 130.144 31.216C130.806 31.216 131.385 31.3747 131.88 31.692C132.384 32.0093 132.748 32.476 132.972 33.092C133.177 32.4853 133.527 32.0233 134.022 31.706C134.526 31.3793 135.095 31.216 135.73 31.216ZM147.796 32.182H146.018V39H145.038V32.182H143.974V31.356H145.038V30.824C145.038 29.9933 145.248 29.382 145.668 28.99C146.097 28.598 146.788 28.402 147.74 28.402V29.242C147.105 29.242 146.657 29.3633 146.396 29.606C146.144 29.8487 146.018 30.2547 146.018 30.824V31.356H147.796V32.182ZM150.319 32.714C150.533 32.238 150.86 31.8693 151.299 31.608C151.747 31.3467 152.293 31.216 152.937 31.216V32.238H152.671C151.961 32.238 151.392 32.4293 150.963 32.812C150.533 33.1947 150.319 33.834 150.319 34.73V39H149.339V31.356H150.319V32.714ZM157.757 39.112C157.038 39.112 156.39 38.9533 155.811 38.636C155.242 38.3093 154.789 37.852 154.453 37.264C154.126 36.6667 153.963 35.9713 153.963 35.178C153.963 34.3847 154.131 33.694 154.467 33.106C154.803 32.5087 155.26 32.0513 155.839 31.734C156.418 31.4073 157.066 31.244 157.785 31.244C158.504 31.244 159.152 31.4073 159.731 31.734C160.319 32.0513 160.776 32.5087 161.103 33.106C161.439 33.694 161.607 34.3847 161.607 35.178C161.607 35.962 161.439 36.6527 161.103 37.25C160.767 37.8473 160.305 38.3093 159.717 38.636C159.129 38.9533 158.476 39.112 157.757 39.112ZM157.757 38.258C158.261 38.258 158.728 38.146 159.157 37.922C159.586 37.6887 159.932 37.3433 160.193 36.886C160.464 36.4193 160.599 35.85 160.599 35.178C160.599 34.506 160.468 33.9413 160.207 33.484C159.946 33.0173 159.6 32.672 159.171 32.448C158.742 32.2147 158.275 32.098 157.771 32.098C157.267 32.098 156.8 32.2147 156.371 32.448C155.942 32.672 155.596 33.0173 155.335 33.484C155.083 33.9413 154.957 34.506 154.957 35.178C154.957 35.85 155.083 36.4193 155.335 36.886C155.596 37.3433 155.937 37.6887 156.357 37.922C156.786 38.146 157.253 38.258 157.757 38.258ZM172.493 31.216C173.389 31.216 174.117 31.5007 174.677 32.07C175.247 32.63 175.531 33.4467 175.531 34.52V39H174.565V34.632C174.565 33.8013 174.365 33.1667 173.963 32.728C173.562 32.2893 173.016 32.07 172.325 32.07C171.607 32.07 171.033 32.308 170.603 32.784C170.174 33.26 169.959 33.9507 169.959 34.856V39H168.993V34.632C168.993 33.8013 168.793 33.1667 168.391 32.728C167.99 32.2893 167.439 32.07 166.739 32.07C166.021 32.07 165.447 32.308 165.017 32.784C164.588 33.26 164.373 33.9507 164.373 34.856V39H163.393V31.356H164.373V32.672C164.616 32.196 164.961 31.8367 165.409 31.594C165.857 31.342 166.357 31.216 166.907 31.216C167.57 31.216 168.149 31.3747 168.643 31.692C169.147 32.0093 169.511 32.476 169.735 33.092C169.941 32.4853 170.291 32.0233 170.785 31.706C171.289 31.3793 171.859 31.216 172.493 31.216ZM184.756 31.244C185.474 31.244 186.1 31.412 186.632 31.748C187.164 32.084 187.546 32.5087 187.78 33.022V31.356H188.76V39.196C188.76 39.896 188.606 40.5167 188.298 41.058C187.999 41.5993 187.579 42.0147 187.038 42.304C186.496 42.6027 185.88 42.752 185.19 42.752C184.21 42.752 183.393 42.5187 182.74 42.052C182.096 41.5853 181.694 40.9507 181.536 40.148H182.502C182.67 40.68 182.987 41.1047 183.454 41.422C183.93 41.7393 184.508 41.898 185.19 41.898C185.684 41.898 186.128 41.7907 186.52 41.576C186.912 41.3707 187.22 41.0627 187.444 40.652C187.668 40.2413 187.78 39.756 187.78 39.196V37.306C187.537 37.8287 187.15 38.2627 186.618 38.608C186.095 38.944 185.474 39.112 184.756 39.112C184.056 39.112 183.426 38.9487 182.866 38.622C182.315 38.2953 181.881 37.8333 181.564 37.236C181.256 36.6387 181.102 35.948 181.102 35.164C181.102 34.38 181.256 33.694 181.564 33.106C181.881 32.5087 182.315 32.0513 182.866 31.734C183.426 31.4073 184.056 31.244 184.756 31.244ZM187.78 35.178C187.78 34.562 187.654 34.0207 187.402 33.554C187.15 33.0873 186.804 32.728 186.366 32.476C185.936 32.224 185.46 32.098 184.938 32.098C184.396 32.098 183.911 32.2193 183.482 32.462C183.052 32.7047 182.712 33.0593 182.46 33.526C182.217 33.9833 182.096 34.5293 182.096 35.164C182.096 35.7893 182.217 36.34 182.46 36.816C182.712 37.2827 183.052 37.642 183.482 37.894C183.911 38.1367 184.396 38.258 184.938 38.258C185.46 38.258 185.936 38.132 186.366 37.88C186.804 37.628 187.15 37.2687 187.402 36.802C187.654 36.3353 187.78 35.794 187.78 35.178ZM194.343 39.112C193.624 39.112 192.976 38.9533 192.397 38.636C191.828 38.3093 191.375 37.852 191.039 37.264C190.712 36.6667 190.549 35.9713 190.549 35.178C190.549 34.3847 190.717 33.694 191.053 33.106C191.389 32.5087 191.846 32.0513 192.425 31.734C193.004 31.4073 193.652 31.244 194.371 31.244C195.09 31.244 195.738 31.4073 196.317 31.734C196.905 32.0513 197.362 32.5087 197.689 33.106C198.025 33.694 198.193 34.3847 198.193 35.178C198.193 35.962 198.025 36.6527 197.689 37.25C197.353 37.8473 196.891 38.3093 196.303 38.636C195.715 38.9533 195.062 39.112 194.343 39.112ZM194.343 38.258C194.847 38.258 195.314 38.146 195.743 37.922C196.172 37.6887 196.518 37.3433 196.779 36.886C197.05 36.4193 197.185 35.85 197.185 35.178C197.185 34.506 197.054 33.9413 196.793 33.484C196.532 33.0173 196.186 32.672 195.757 32.448C195.328 32.2147 194.861 32.098 194.357 32.098C193.853 32.098 193.386 32.2147 192.957 32.448C192.528 32.672 192.182 33.0173 191.921 33.484C191.669 33.9413 191.543 34.506 191.543 35.178C191.543 35.85 191.669 36.4193 191.921 36.886C192.182 37.3433 192.523 37.6887 192.943 37.922C193.372 38.146 193.839 38.258 194.343 38.258ZM203.325 39.112C202.607 39.112 201.958 38.9533 201.379 38.636C200.81 38.3093 200.357 37.852 200.021 37.264C199.695 36.6667 199.531 35.9713 199.531 35.178C199.531 34.3847 199.699 33.694 200.035 33.106C200.371 32.5087 200.829 32.0513 201.407 31.734C201.986 31.4073 202.635 31.244 203.353 31.244C204.072 31.244 204.721 31.4073 205.299 31.734C205.887 32.0513 206.345 32.5087 206.671 33.106C207.007 33.694 207.175 34.3847 207.175 35.178C207.175 35.962 207.007 36.6527 206.671 37.25C206.335 37.8473 205.873 38.3093 205.285 38.636C204.697 38.9533 204.044 39.112 203.325 39.112ZM203.325 38.258C203.829 38.258 204.296 38.146 204.725 37.922C205.155 37.6887 205.5 37.3433 205.761 36.886C206.032 36.4193 206.167 35.85 206.167 35.178C206.167 34.506 206.037 33.9413 205.775 33.484C205.514 33.0173 205.169 32.672 204.739 32.448C204.31 32.2147 203.843 32.098 203.339 32.098C202.835 32.098 202.369 32.2147 201.939 32.448C201.51 32.672 201.165 33.0173 200.903 33.484C200.651 33.9413 200.525 34.506 200.525 35.178C200.525 35.85 200.651 36.4193 200.903 36.886C201.165 37.3433 201.505 37.6887 201.925 37.922C202.355 38.146 202.821 38.258 203.325 38.258ZM208.514 35.164C208.514 34.38 208.672 33.694 208.99 33.106C209.307 32.5087 209.741 32.0513 210.292 31.734C210.852 31.4073 211.482 31.244 212.182 31.244C212.854 31.244 213.46 31.4073 214.002 31.734C214.543 32.0607 214.94 32.4853 215.192 33.008V28.64H216.172V39H215.192V37.292C214.958 37.824 214.576 38.2627 214.044 38.608C213.512 38.944 212.886 39.112 212.168 39.112C211.468 39.112 210.838 38.9487 210.278 38.622C209.727 38.2953 209.293 37.8333 208.976 37.236C208.668 36.6387 208.514 35.948 208.514 35.164ZM215.192 35.178C215.192 34.562 215.066 34.0207 214.814 33.554C214.562 33.0873 214.216 32.728 213.778 32.476C213.348 32.224 212.872 32.098 212.35 32.098C211.808 32.098 211.323 32.2193 210.894 32.462C210.464 32.7047 210.124 33.0593 209.872 33.526C209.629 33.9833 209.508 34.5293 209.508 35.164C209.508 35.7893 209.629 36.34 209.872 36.816C210.124 37.2827 210.464 37.642 210.894 37.894C211.323 38.1367 211.808 38.258 212.35 38.258C212.872 38.258 213.348 38.132 213.778 37.88C214.216 37.628 214.562 37.2687 214.814 36.802C215.066 36.3353 215.192 35.794 215.192 35.178ZM17.1 53.714C17.3147 53.238 17.6413 52.8693 18.08 52.608C18.528 52.3467 19.074 52.216 19.718 52.216V53.238H19.452C18.7427 53.238 18.1733 53.4293 17.744 53.812C17.3147 54.1947 17.1 54.834 17.1 55.73V60H16.12V52.356H17.1V53.714ZM28.1083 55.786C28.1083 56.122 28.0989 56.3787 28.0803 56.556H21.7383C21.7663 57.1347 21.9063 57.6293 22.1583 58.04C22.4103 58.4507 22.7416 58.7633 23.1523 58.978C23.5629 59.1833 24.0109 59.286 24.4963 59.286C25.1309 59.286 25.6629 59.132 26.0923 58.824C26.5309 58.516 26.8203 58.1007 26.9603 57.578H27.9963C27.8096 58.3247 27.4083 58.936 26.7923 59.412C26.1856 59.8787 25.4203 60.112 24.4963 60.112C23.7776 60.112 23.1336 59.9533 22.5643 59.636C21.9949 59.3093 21.5469 58.852 21.2203 58.264C20.9029 57.6667 20.7443 56.9713 20.7443 56.178C20.7443 55.3847 20.9029 54.6893 21.2203 54.092C21.5376 53.4947 21.9809 53.0373 22.5503 52.72C23.1196 52.4027 23.7683 52.244 24.4963 52.244C25.2243 52.244 25.8589 52.4027 26.4003 52.72C26.9509 53.0373 27.3709 53.4667 27.6603 54.008C27.9589 54.54 28.1083 55.1327 28.1083 55.786ZM27.1143 55.758C27.1236 55.1887 27.0069 54.7033 26.7643 54.302C26.5309 53.9007 26.2089 53.5973 25.7983 53.392C25.3876 53.1867 24.9396 53.084 24.4543 53.084C23.7263 53.084 23.1056 53.3173 22.5923 53.784C22.0789 54.2507 21.7943 54.9087 21.7383 55.758H27.1143ZM30.8813 49.64V60H29.9013V49.64H30.8813ZM32.6525 56.164C32.6525 55.38 32.8065 54.694 33.1145 54.106C33.4318 53.5087 33.8658 53.0513 34.4165 52.734C34.9765 52.4073 35.6065 52.244 36.3065 52.244C37.0345 52.244 37.6598 52.412 38.1825 52.748C38.7145 53.084 39.0971 53.5133 39.3305 54.036V52.356H40.3105V60H39.3305V58.306C39.0878 58.8287 38.7005 59.2627 38.1685 59.608C37.6458 59.944 37.0205 60.112 36.2925 60.112C35.6018 60.112 34.9765 59.9487 34.4165 59.622C33.8658 59.2953 33.4318 58.8333 33.1145 58.236C32.8065 57.6387 32.6525 56.948 32.6525 56.164ZM39.3305 56.178C39.3305 55.562 39.2045 55.0207 38.9525 54.554C38.7005 54.0873 38.3551 53.728 37.9165 53.476C37.4871 53.224 37.0111 53.098 36.4885 53.098C35.9471 53.098 35.4618 53.2193 35.0325 53.462C34.6031 53.7047 34.2625 54.0593 34.0105 54.526C33.7678 54.9833 33.6465 55.5293 33.6465 56.164C33.6465 56.7893 33.7678 57.34 34.0105 57.816C34.2625 58.2827 34.6031 58.642 35.0325 58.894C35.4618 59.1367 35.9471 59.258 36.4885 59.258C37.0111 59.258 37.4871 59.132 37.9165 58.88C38.3551 58.628 38.7005 58.2687 38.9525 57.802C39.2045 57.3353 39.3305 56.794 39.3305 56.178ZM43.8217 53.182V57.928C43.8217 58.3947 43.9104 58.7167 44.0877 58.894C44.2651 59.0713 44.5777 59.16 45.0257 59.16H45.9217V60H44.8717C44.1811 60 43.6677 59.8413 43.3317 59.524C42.9957 59.1973 42.8277 58.6653 42.8277 57.928V53.182H41.7637V52.356H42.8277V50.438H43.8217V52.356H45.9217V53.182H43.8217ZM48.028 50.914C47.832 50.914 47.664 50.844 47.524 50.704C47.384 50.564 47.314 50.3913 47.314 50.186C47.314 49.9807 47.384 49.8127 47.524 49.682C47.664 49.542 47.832 49.472 48.028 49.472C48.224 49.472 48.392 49.542 48.532 49.682C48.672 49.8127 48.742 49.9807 48.742 50.186C48.742 50.3913 48.672 50.564 48.532 50.704C48.392 50.844 48.224 50.914 48.028 50.914ZM48.518 52.356V60H47.538V52.356H48.518ZM54.0832 60.112C53.3645 60.112 52.7159 59.9533 52.1372 59.636C51.5679 59.3093 51.1152 58.852 50.7792 58.264C50.4525 57.6667 50.2892 56.9713 50.2892 56.178C50.2892 55.3847 50.4572 54.694 50.7932 54.106C51.1292 53.5087 51.5865 53.0513 52.1652 52.734C52.7439 52.4073 53.3925 52.244 54.1112 52.244C54.8299 52.244 55.4785 52.4073 56.0572 52.734C56.6452 53.0513 57.1025 53.5087 57.4292 54.106C57.7652 54.694 57.9332 55.3847 57.9332 56.178C57.9332 56.962 57.7652 57.6527 57.4292 58.25C57.0932 58.8473 56.6312 59.3093 56.0432 59.636C55.4552 59.9533 54.8019 60.112 54.0832 60.112ZM54.0832 59.258C54.5872 59.258 55.0539 59.146 55.4832 58.922C55.9125 58.6887 56.2579 58.3433 56.5192 57.886C56.7899 57.4193 56.9252 56.85 56.9252 56.178C56.9252 55.506 56.7945 54.9413 56.5332 54.484C56.2719 54.0173 55.9265 53.672 55.4972 53.448C55.0679 53.2147 54.6012 53.098 54.0972 53.098C53.5932 53.098 53.1265 53.2147 52.6972 53.448C52.2679 53.672 51.9225 54.0173 51.6612 54.484C51.4092 54.9413 51.2832 55.506 51.2832 56.178C51.2832 56.85 51.4092 57.4193 51.6612 57.886C51.9225 58.3433 52.2632 58.6887 52.6832 58.922C53.1125 59.146 53.5792 59.258 54.0832 59.258ZM63.3036 52.216C64.2183 52.216 64.9649 52.5007 65.5436 53.07C66.1223 53.63 66.4116 54.4467 66.4116 55.52V60H65.4456V55.632C65.4456 54.8013 65.2356 54.1667 64.8156 53.728C64.4049 53.2893 63.8403 53.07 63.1216 53.07C62.3843 53.07 61.7963 53.3033 61.3576 53.77C60.9189 54.2367 60.6996 54.9227 60.6996 55.828V60H59.7196V52.356H60.6996V53.658C60.9423 53.1913 61.2923 52.8367 61.7496 52.594C62.2069 52.342 62.7249 52.216 63.3036 52.216ZM71.211 60.112C70.3337 60.112 69.615 59.9113 69.055 59.51C68.5043 59.0993 68.1963 58.544 68.131 57.844H69.139C69.1857 58.2733 69.3863 58.6233 69.741 58.894C70.105 59.1553 70.5903 59.286 71.197 59.286C71.729 59.286 72.1443 59.16 72.443 58.908C72.751 58.656 72.905 58.3433 72.905 57.97C72.905 57.7087 72.821 57.494 72.653 57.326C72.485 57.158 72.2703 57.0273 72.009 56.934C71.757 56.8313 71.4117 56.724 70.973 56.612C70.4037 56.4627 69.9417 56.3133 69.587 56.164C69.2323 56.0147 68.929 55.7953 68.677 55.506C68.4343 55.2073 68.313 54.8107 68.313 54.316C68.313 53.9427 68.425 53.5973 68.649 53.28C68.873 52.9627 69.1903 52.7107 69.601 52.524C70.0117 52.3373 70.4783 52.244 71.001 52.244C71.8223 52.244 72.485 52.454 72.989 52.874C73.493 53.2847 73.7637 53.854 73.801 54.582H72.821C72.793 54.134 72.6157 53.7747 72.289 53.504C71.9717 53.224 71.533 53.084 70.973 53.084C70.4783 53.084 70.077 53.2007 69.769 53.434C69.461 53.6673 69.307 53.9567 69.307 54.302C69.307 54.6007 69.3957 54.848 69.573 55.044C69.7597 55.2307 69.9883 55.38 70.259 55.492C70.5297 55.5947 70.8937 55.7113 71.351 55.842C71.9017 55.9913 72.3403 56.136 72.667 56.276C72.9937 56.416 73.2737 56.6213 73.507 56.892C73.7403 57.1627 73.8617 57.522 73.871 57.97C73.871 58.3807 73.759 58.7493 73.535 59.076C73.311 59.3933 72.9983 59.6453 72.597 59.832C72.1957 60.0187 71.7337 60.112 71.211 60.112ZM79.3557 52.216C79.9344 52.216 80.4524 52.3373 80.9097 52.58C81.3764 52.8227 81.7404 53.196 82.0017 53.7C82.2724 54.1947 82.4077 54.8013 82.4077 55.52V60H81.4417V55.632C81.4417 54.8013 81.2317 54.1667 80.8117 53.728C80.401 53.2893 79.8364 53.07 79.1177 53.07C78.3804 53.07 77.7924 53.3033 77.3537 53.77C76.915 54.2367 76.6957 54.9227 76.6957 55.828V60H75.7157V49.64H76.6957V53.658C76.9384 53.2007 77.293 52.846 77.7597 52.594C78.2357 52.342 78.7677 52.216 79.3557 52.216ZM85.0651 50.914C84.8691 50.914 84.7011 50.844 84.5611 50.704C84.4211 50.564 84.3511 50.3913 84.3511 50.186C84.3511 49.9807 84.4211 49.8127 84.5611 49.682C84.7011 49.542 84.8691 49.472 85.0651 49.472C85.2611 49.472 85.4291 49.542 85.5691 49.682C85.7091 49.8127 85.7791 49.9807 85.7791 50.186C85.7791 50.3913 85.7091 50.564 85.5691 50.704C85.4291 50.844 85.2611 50.914 85.0651 50.914ZM85.5551 52.356V60H84.5751V52.356H85.5551ZM88.7403 54.036C88.983 53.5227 89.3656 53.098 89.8883 52.762C90.4203 52.4167 91.0503 52.244 91.7783 52.244C92.469 52.244 93.0896 52.4073 93.6403 52.734C94.2003 53.0513 94.6343 53.5087 94.9423 54.106C95.2596 54.694 95.4183 55.38 95.4183 56.164C95.4183 56.948 95.2596 57.6387 94.9423 58.236C94.6343 58.8333 94.2003 59.2953 93.6403 59.622C93.0896 59.9487 92.469 60.112 91.7783 60.112C91.0596 60.112 90.4343 59.944 89.9023 59.608C89.3703 59.2627 88.983 58.8333 88.7403 58.32V63.612H87.7743V52.356H88.7403V54.036ZM94.4243 56.164C94.4243 55.5293 94.2983 54.9833 94.0463 54.526C93.8036 54.0593 93.4676 53.7047 93.0383 53.462C92.609 53.2193 92.1236 53.098 91.5823 53.098C91.0596 53.098 90.579 53.224 90.1403 53.476C89.711 53.728 89.3703 54.0873 89.1183 54.554C88.8663 55.0207 88.7403 55.562 88.7403 56.178C88.7403 56.794 88.8663 57.3353 89.1183 57.802C89.3703 58.2687 89.711 58.628 90.1403 58.88C90.579 59.132 91.0596 59.258 91.5823 59.258C92.1236 59.258 92.609 59.1367 93.0383 58.894C93.4676 58.642 93.8036 58.2827 94.0463 57.816C94.2983 57.34 94.4243 56.7893 94.4243 56.164ZM99.8536 60.112C98.9762 60.112 98.2576 59.9113 97.6976 59.51C97.1469 59.0993 96.8389 58.544 96.7736 57.844H97.7816C97.8282 58.2733 98.0289 58.6233 98.3836 58.894C98.7476 59.1553 99.2329 59.286 99.8396 59.286C100.372 59.286 100.787 59.16 101.086 58.908C101.394 58.656 101.548 58.3433 101.548 57.97C101.548 57.7087 101.464 57.494 101.296 57.326C101.128 57.158 100.913 57.0273 100.652 56.934C100.4 56.8313 100.054 56.724 99.6156 56.612C99.0462 56.4627 98.5842 56.3133 98.2296 56.164C97.8749 56.0147 97.5716 55.7953 97.3196 55.506C97.0769 55.2073 96.9556 54.8107 96.9556 54.316C96.9556 53.9427 97.0676 53.5973 97.2916 53.28C97.5156 52.9627 97.8329 52.7107 98.2436 52.524C98.6542 52.3373 99.1209 52.244 99.6436 52.244C100.465 52.244 101.128 52.454 101.632 52.874C102.136 53.2847 102.406 53.854 102.444 54.582H101.464C101.436 54.134 101.258 53.7747 100.932 53.504C100.614 53.224 100.176 53.084 99.6156 53.084C99.1209 53.084 98.7196 53.2007 98.4116 53.434C98.1036 53.6673 97.9496 53.9567 97.9496 54.302C97.9496 54.6007 98.0382 54.848 98.2156 55.044C98.4022 55.2307 98.6309 55.38 98.9016 55.492C99.1722 55.5947 99.5362 55.7113 99.9936 55.842C100.544 55.9913 100.983 56.136 101.31 56.276C101.636 56.416 101.916 56.6213 102.15 56.892C102.383 57.1627 102.504 57.522 102.514 57.97C102.514 58.3807 102.402 58.7493 102.178 59.076C101.954 59.3933 101.641 59.6453 101.24 59.832C100.838 60.0187 100.376 60.112 99.8536 60.112ZM110.832 60.112C109.955 60.112 109.236 59.9113 108.676 59.51C108.125 59.0993 107.817 58.544 107.752 57.844H108.76C108.807 58.2733 109.007 58.6233 109.362 58.894C109.726 59.1553 110.211 59.286 110.818 59.286C111.35 59.286 111.765 59.16 112.064 58.908C112.372 58.656 112.526 58.3433 112.526 57.97C112.526 57.7087 112.442 57.494 112.274 57.326C112.106 57.158 111.891 57.0273 111.63 56.934C111.378 56.8313 111.033 56.724 110.594 56.612C110.025 56.4627 109.563 56.3133 109.208 56.164C108.853 56.0147 108.55 55.7953 108.298 55.506C108.055 55.2073 107.934 54.8107 107.934 54.316C107.934 53.9427 108.046 53.5973 108.27 53.28C108.494 52.9627 108.811 52.7107 109.222 52.524C109.633 52.3373 110.099 52.244 110.622 52.244C111.443 52.244 112.106 52.454 112.61 52.874C113.114 53.2847 113.385 53.854 113.422 54.582H112.442C112.414 54.134 112.237 53.7747 111.91 53.504C111.593 53.224 111.154 53.084 110.594 53.084C110.099 53.084 109.698 53.2007 109.39 53.434C109.082 53.6673 108.928 53.9567 108.928 54.302C108.928 54.6007 109.017 54.848 109.194 55.044C109.381 55.2307 109.609 55.38 109.88 55.492C110.151 55.5947 110.515 55.7113 110.972 55.842C111.523 55.9913 111.961 56.136 112.288 56.276C112.615 56.416 112.895 56.6213 113.128 56.892C113.361 57.1627 113.483 57.522 113.492 57.97C113.492 58.3807 113.38 58.7493 113.156 59.076C112.932 59.3933 112.619 59.6453 112.218 59.832C111.817 60.0187 111.355 60.112 110.832 60.112ZM118.683 60.112C117.964 60.112 117.315 59.9533 116.737 59.636C116.167 59.3093 115.715 58.852 115.379 58.264C115.052 57.6667 114.889 56.9713 114.889 56.178C114.889 55.3847 115.057 54.694 115.393 54.106C115.729 53.5087 116.186 53.0513 116.765 52.734C117.343 52.4073 117.992 52.244 118.711 52.244C119.429 52.244 120.078 52.4073 120.657 52.734C121.245 53.0513 121.702 53.5087 122.029 54.106C122.365 54.694 122.533 55.3847 122.533 56.178C122.533 56.962 122.365 57.6527 122.029 58.25C121.693 58.8473 121.231 59.3093 120.643 59.636C120.055 59.9533 119.401 60.112 118.683 60.112ZM118.683 59.258C119.187 59.258 119.653 59.146 120.083 58.922C120.512 58.6887 120.857 58.3433 121.119 57.886C121.389 57.4193 121.525 56.85 121.525 56.178C121.525 55.506 121.394 54.9413 121.133 54.484C120.871 54.0173 120.526 53.672 120.097 53.448C119.667 53.2147 119.201 53.098 118.697 53.098C118.193 53.098 117.726 53.2147 117.297 53.448C116.867 53.672 116.522 54.0173 116.261 54.484C116.009 54.9413 115.883 55.506 115.883 56.178C115.883 56.85 116.009 57.4193 116.261 57.886C116.522 58.3433 116.863 58.6887 117.283 58.922C117.712 59.146 118.179 59.258 118.683 59.258ZM137.261 52.216C138.157 52.216 138.885 52.5007 139.445 53.07C140.014 53.63 140.299 54.4467 140.299 55.52V60H139.333V55.632C139.333 54.8013 139.132 54.1667 138.731 53.728C138.33 53.2893 137.784 53.07 137.093 53.07C136.374 53.07 135.8 53.308 135.371 53.784C134.942 54.26 134.727 54.9507 134.727 55.856V60H133.761V55.632C133.761 54.8013 133.56 54.1667 133.159 53.728C132.758 53.2893 132.207 53.07 131.507 53.07C130.788 53.07 130.214 53.308 129.785 53.784C129.356 54.26 129.141 54.9507 129.141 55.856V60H128.161V52.356H129.141V53.672C129.384 53.196 129.729 52.8367 130.177 52.594C130.625 52.342 131.124 52.216 131.675 52.216C132.338 52.216 132.916 52.3747 133.411 52.692C133.915 53.0093 134.279 53.476 134.503 54.092C134.708 53.4853 135.058 53.0233 135.553 52.706C136.057 52.3793 136.626 52.216 137.261 52.216ZM142.027 56.164C142.027 55.38 142.181 54.694 142.489 54.106C142.807 53.5087 143.241 53.0513 143.791 52.734C144.351 52.4073 144.981 52.244 145.681 52.244C146.409 52.244 147.035 52.412 147.557 52.748C148.089 53.084 148.472 53.5133 148.705 54.036V52.356H149.685V60H148.705V58.306C148.463 58.8287 148.075 59.2627 147.543 59.608C147.021 59.944 146.395 60.112 145.667 60.112C144.977 60.112 144.351 59.9487 143.791 59.622C143.241 59.2953 142.807 58.8333 142.489 58.236C142.181 57.6387 142.027 56.948 142.027 56.164ZM148.705 56.178C148.705 55.562 148.579 55.0207 148.327 54.554C148.075 54.0873 147.73 53.728 147.291 53.476C146.862 53.224 146.386 53.098 145.863 53.098C145.322 53.098 144.837 53.2193 144.407 53.462C143.978 53.7047 143.637 54.0593 143.385 54.526C143.143 54.9833 143.021 55.5293 143.021 56.164C143.021 56.7893 143.143 57.34 143.385 57.816C143.637 58.2827 143.978 58.642 144.407 58.894C144.837 59.1367 145.322 59.258 145.863 59.258C146.386 59.258 146.862 59.132 147.291 58.88C147.73 58.628 148.075 58.2687 148.327 57.802C148.579 57.3353 148.705 56.794 148.705 56.178ZM156.053 60L152.903 56.57V60H151.923V49.64H152.903V55.772L155.983 52.356H157.355L153.729 56.164L157.383 60H156.053ZM165.565 55.786C165.565 56.122 165.556 56.3787 165.537 56.556H159.195C159.223 57.1347 159.363 57.6293 159.615 58.04C159.867 58.4507 160.199 58.7633 160.609 58.978C161.02 59.1833 161.468 59.286 161.953 59.286C162.588 59.286 163.12 59.132 163.549 58.824C163.988 58.516 164.277 58.1007 164.417 57.578H165.453C165.267 58.3247 164.865 58.936 164.249 59.412C163.643 59.8787 162.877 60.112 161.953 60.112C161.235 60.112 160.591 59.9533 160.021 59.636C159.452 59.3093 159.004 58.852 158.677 58.264C158.36 57.6667 158.201 56.9713 158.201 56.178C158.201 55.3847 158.36 54.6893 158.677 54.092C158.995 53.4947 159.438 53.0373 160.007 52.72C160.577 52.4027 161.225 52.244 161.953 52.244C162.681 52.244 163.316 52.4027 163.857 52.72C164.408 53.0373 164.828 53.4667 165.117 54.008C165.416 54.54 165.565 55.1327 165.565 55.786ZM164.571 55.758C164.581 55.1887 164.464 54.7033 164.221 54.302C163.988 53.9007 163.666 53.5973 163.255 53.392C162.845 53.1867 162.397 53.084 161.911 53.084C161.183 53.084 160.563 53.3173 160.049 53.784C159.536 54.2507 159.251 54.9087 159.195 55.758H164.571ZM174.21 53.182H172.432V60H171.452V53.182H170.388V52.356H171.452V51.824C171.452 50.9933 171.662 50.382 172.082 49.99C172.511 49.598 173.202 49.402 174.154 49.402V50.242C173.519 50.242 173.071 50.3633 172.81 50.606C172.558 50.8487 172.432 51.2547 172.432 51.824V52.356H174.21V53.182ZM176.733 53.714C176.947 53.238 177.274 52.8693 177.713 52.608C178.161 52.3467 178.707 52.216 179.351 52.216V53.238H179.085C178.375 53.238 177.806 53.4293 177.377 53.812C176.947 54.1947 176.733 54.834 176.733 55.73V60H175.753V52.356H176.733V53.714ZM181.315 50.914C181.119 50.914 180.951 50.844 180.811 50.704C180.671 50.564 180.601 50.3913 180.601 50.186C180.601 49.9807 180.671 49.8127 180.811 49.682C180.951 49.542 181.119 49.472 181.315 49.472C181.511 49.472 181.679 49.542 181.819 49.682C181.959 49.8127 182.029 49.9807 182.029 50.186C182.029 50.3913 181.959 50.564 181.819 50.704C181.679 50.844 181.511 50.914 181.315 50.914ZM181.805 52.356V60H180.825V52.356H181.805ZM190.94 55.786C190.94 56.122 190.931 56.3787 190.912 56.556H184.57C184.598 57.1347 184.738 57.6293 184.99 58.04C185.242 58.4507 185.574 58.7633 185.984 58.978C186.395 59.1833 186.843 59.286 187.328 59.286C187.963 59.286 188.495 59.132 188.924 58.824C189.363 58.516 189.652 58.1007 189.792 57.578H190.828C190.642 58.3247 190.24 58.936 189.624 59.412C189.018 59.8787 188.252 60.112 187.328 60.112C186.61 60.112 185.966 59.9533 185.396 59.636C184.827 59.3093 184.379 58.852 184.052 58.264C183.735 57.6667 183.576 56.9713 183.576 56.178C183.576 55.3847 183.735 54.6893 184.052 54.092C184.37 53.4947 184.813 53.0373 185.382 52.72C185.952 52.4027 186.6 52.244 187.328 52.244C188.056 52.244 188.691 52.4027 189.232 52.72C189.783 53.0373 190.203 53.4667 190.492 54.008C190.791 54.54 190.94 55.1327 190.94 55.786ZM189.946 55.758C189.956 55.1887 189.839 54.7033 189.596 54.302C189.363 53.9007 189.041 53.5973 188.63 53.392C188.22 53.1867 187.772 53.084 187.286 53.084C186.558 53.084 185.938 53.3173 185.424 53.784C184.911 54.2507 184.626 54.9087 184.57 55.758H189.946ZM196.317 52.216C197.232 52.216 197.979 52.5007 198.557 53.07C199.136 53.63 199.425 54.4467 199.425 55.52V60H198.459V55.632C198.459 54.8013 198.249 54.1667 197.829 53.728C197.419 53.2893 196.854 53.07 196.135 53.07C195.398 53.07 194.81 53.3033 194.371 53.77C193.933 54.2367 193.713 54.9227 193.713 55.828V60H192.733V52.356H193.713V53.658C193.956 53.1913 194.306 52.8367 194.763 52.594C195.221 52.342 195.739 52.216 196.317 52.216ZM201.145 56.164C201.145 55.38 201.303 54.694 201.621 54.106C201.938 53.5087 202.372 53.0513 202.923 52.734C203.483 52.4073 204.113 52.244 204.813 52.244C205.485 52.244 206.091 52.4073 206.633 52.734C207.174 53.0607 207.571 53.4853 207.823 54.008V49.64H208.803V60H207.823V58.292C207.589 58.824 207.207 59.2627 206.675 59.608C206.143 59.944 205.517 60.112 204.799 60.112C204.099 60.112 203.469 59.9487 202.909 59.622C202.358 59.2953 201.924 58.8333 201.607 58.236C201.299 57.6387 201.145 56.948 201.145 56.164ZM207.823 56.178C207.823 55.562 207.697 55.0207 207.445 54.554C207.193 54.0873 206.847 53.728 206.409 53.476C205.979 53.224 205.503 53.098 204.981 53.098C204.439 53.098 203.954 53.2193 203.525 53.462C203.095 53.7047 202.755 54.0593 202.503 54.526C202.26 54.9833 202.139 55.5293 202.139 56.164C202.139 56.7893 202.26 57.34 202.503 57.816C202.755 58.2827 203.095 58.642 203.525 58.894C203.954 59.1367 204.439 59.258 204.981 59.258C205.503 59.258 205.979 59.132 206.409 58.88C206.847 58.628 207.193 58.2687 207.445 57.802C207.697 57.3353 207.823 56.794 207.823 56.178ZM213.672 60.112C212.795 60.112 212.076 59.9113 211.516 59.51C210.965 59.0993 210.657 58.544 210.592 57.844H211.6C211.647 58.2733 211.847 58.6233 212.202 58.894C212.566 59.1553 213.051 59.286 213.658 59.286C214.19 59.286 214.605 59.16 214.904 58.908C215.212 58.656 215.366 58.3433 215.366 57.97C215.366 57.7087 215.282 57.494 215.114 57.326C214.946 57.158 214.731 57.0273 214.47 56.934C214.218 56.8313 213.873 56.724 213.434 56.612C212.865 56.4627 212.403 56.3133 212.048 56.164C211.693 56.0147 211.39 55.7953 211.138 55.506C210.895 55.2073 210.774 54.8107 210.774 54.316C210.774 53.9427 210.886 53.5973 211.11 53.28C211.334 52.9627 211.651 52.7107 212.062 52.524C212.473 52.3373 212.939 52.244 213.462 52.244C214.283 52.244 214.946 52.454 215.45 52.874C215.954 53.2847 216.225 53.854 216.262 54.582H215.282C215.254 54.134 215.077 53.7747 214.75 53.504C214.433 53.224 213.994 53.084 213.434 53.084C212.939 53.084 212.538 53.2007 212.23 53.434C211.922 53.6673 211.768 53.9567 211.768 54.302C211.768 54.6007 211.857 54.848 212.034 55.044C212.221 55.2307 212.449 55.38 212.72 55.492C212.991 55.5947 213.355 55.7113 213.812 55.842C214.363 55.9913 214.801 56.136 215.128 56.276C215.455 56.416 215.735 56.6213 215.968 56.892C216.201 57.1627 216.323 57.522 216.332 57.97C216.332 58.3807 216.22 58.7493 215.996 59.076C215.772 59.3933 215.459 59.6453 215.058 59.832C214.657 60.0187 214.195 60.112 213.672 60.112ZM26.2 73.356L23.806 81H22.826L20.712 74.588L18.598 81H17.604L15.21 73.356H16.204L18.108 80.006L20.25 73.356H21.23L23.344 80.02L25.234 73.356H26.2ZM28.026 71.914C27.83 71.914 27.662 71.844 27.522 71.704C27.382 71.564 27.312 71.3913 27.312 71.186C27.312 70.9807 27.382 70.8127 27.522 70.682C27.662 70.542 27.83 70.472 28.026 70.472C28.222 70.472 28.39 70.542 28.53 70.682C28.67 70.8127 28.74 70.9807 28.74 71.186C28.74 71.3913 28.67 71.564 28.53 71.704C28.39 71.844 28.222 71.914 28.026 71.914ZM28.516 73.356V81H27.536V73.356H28.516ZM32.0092 74.182V78.928C32.0092 79.3947 32.0979 79.7167 32.2752 79.894C32.4526 80.0713 32.7652 80.16 33.2132 80.16H34.1092V81H33.0592C32.3686 81 31.8552 80.8413 31.5192 80.524C31.1832 80.1973 31.0152 79.6653 31.0152 78.928V74.182H29.9512V73.356H31.0152V71.438H32.0092V73.356H34.1092V74.182H32.0092ZM39.3655 73.216C39.9441 73.216 40.4621 73.3373 40.9195 73.58C41.3861 73.8227 41.7501 74.196 42.0115 74.7C42.2821 75.1947 42.4175 75.8013 42.4175 76.52V81H41.4515V76.632C41.4515 75.8013 41.2415 75.1667 40.8215 74.728C40.4108 74.2893 39.8461 74.07 39.1275 74.07C38.3901 74.07 37.8021 74.3033 37.3635 74.77C36.9248 75.2367 36.7055 75.9227 36.7055 76.828V81H35.7255V70.64H36.7055V74.658C36.9481 74.2007 37.3028 73.846 37.7695 73.594C38.2455 73.342 38.7775 73.216 39.3655 73.216ZM51.0586 81.112C50.1813 81.112 49.4626 80.9113 48.9026 80.51C48.352 80.0993 48.044 79.544 47.9786 78.844H48.9866C49.0333 79.2733 49.234 79.6233 49.5886 79.894C49.9526 80.1553 50.438 80.286 51.0446 80.286C51.5766 80.286 51.992 80.16 52.2906 79.908C52.5986 79.656 52.7526 79.3433 52.7526 78.97C52.7526 78.7087 52.6686 78.494 52.5006 78.326C52.3326 78.158 52.118 78.0273 51.8566 77.934C51.6046 77.8313 51.2593 77.724 50.8206 77.612C50.2513 77.4627 49.7893 77.3133 49.4346 77.164C49.08 77.0147 48.7766 76.7953 48.5246 76.506C48.282 76.2073 48.1606 75.8107 48.1606 75.316C48.1606 74.9427 48.2726 74.5973 48.4966 74.28C48.7206 73.9627 49.038 73.7107 49.4486 73.524C49.8593 73.3373 50.326 73.244 50.8486 73.244C51.67 73.244 52.3326 73.454 52.8366 73.874C53.3406 74.2847 53.6113 74.854 53.6486 75.582H52.6686C52.6406 75.134 52.4633 74.7747 52.1366 74.504C51.8193 74.224 51.3806 74.084 50.8206 74.084C50.326 74.084 49.9246 74.2007 49.6166 74.434C49.3086 74.6673 49.1546 74.9567 49.1546 75.302C49.1546 75.6007 49.2433 75.848 49.4206 76.044C49.6073 76.2307 49.836 76.38 50.1066 76.492C50.3773 76.5947 50.7413 76.7113 51.1986 76.842C51.7493 76.9913 52.188 77.136 52.5146 77.276C52.8413 77.416 53.1213 77.6213 53.3546 77.892C53.588 78.1627 53.7093 78.522 53.7186 78.97C53.7186 79.3807 53.6066 79.7493 53.3826 80.076C53.1586 80.3933 52.846 80.6453 52.4446 80.832C52.0433 81.0187 51.5813 81.112 51.0586 81.112ZM58.9094 81.112C58.1907 81.112 57.542 80.9533 56.9634 80.636C56.394 80.3093 55.9414 79.852 55.6054 79.264C55.2787 78.6667 55.1154 77.9713 55.1154 77.178C55.1154 76.3847 55.2834 75.694 55.6194 75.106C55.9554 74.5087 56.4127 74.0513 56.9914 73.734C57.57 73.4073 58.2187 73.244 58.9374 73.244C59.656 73.244 60.3047 73.4073 60.8834 73.734C61.4714 74.0513 61.9287 74.5087 62.2554 75.106C62.5914 75.694 62.7594 76.3847 62.7594 77.178C62.7594 77.962 62.5914 78.6527 62.2554 79.25C61.9194 79.8473 61.4574 80.3093 60.8694 80.636C60.2814 80.9533 59.628 81.112 58.9094 81.112ZM58.9094 80.258C59.4134 80.258 59.88 80.146 60.3094 79.922C60.7387 79.6887 61.084 79.3433 61.3454 78.886C61.616 78.4193 61.7514 77.85 61.7514 77.178C61.7514 76.506 61.6207 75.9413 61.3594 75.484C61.098 75.0173 60.7527 74.672 60.3234 74.448C59.894 74.2147 59.4274 74.098 58.9234 74.098C58.4194 74.098 57.9527 74.2147 57.5234 74.448C57.094 74.672 56.7487 75.0173 56.4874 75.484C56.2354 75.9413 56.1094 76.506 56.1094 77.178C56.1094 77.85 56.2354 78.4193 56.4874 78.886C56.7487 79.3433 57.0894 79.6887 57.5094 79.922C57.9387 80.146 58.4054 80.258 58.9094 80.258ZM73.6458 73.216C74.5418 73.216 75.2698 73.5007 75.8298 74.07C76.3991 74.63 76.6838 75.4467 76.6838 76.52V81H75.7178V76.632C75.7178 75.8013 75.5171 75.1667 75.1158 74.728C74.7144 74.2893 74.1684 74.07 73.4778 74.07C72.7591 74.07 72.1851 74.308 71.7558 74.784C71.3264 75.26 71.1118 75.9507 71.1118 76.856V81H70.1458V76.632C70.1458 75.8013 69.9451 75.1667 69.5438 74.728C69.1424 74.2893 68.5918 74.07 67.8918 74.07C67.1731 74.07 66.5991 74.308 66.1698 74.784C65.7404 75.26 65.5258 75.9507 65.5258 76.856V81H64.5458V73.356H65.5258V74.672C65.7684 74.196 66.1138 73.8367 66.5618 73.594C67.0098 73.342 67.5091 73.216 68.0598 73.216C68.7224 73.216 69.3011 73.3747 69.7958 73.692C70.2998 74.0093 70.6638 74.476 70.8878 75.092C71.0931 74.4853 71.4431 74.0233 71.9378 73.706C72.4418 73.3793 73.0111 73.216 73.6458 73.216ZM85.7762 76.786C85.7762 77.122 85.7669 77.3787 85.7482 77.556H79.4062C79.4342 78.1347 79.5742 78.6293 79.8262 79.04C80.0782 79.4507 80.4096 79.7633 80.8202 79.978C81.2309 80.1833 81.6789 80.286 82.1642 80.286C82.7989 80.286 83.3309 80.132 83.7602 79.824C84.1989 79.516 84.4882 79.1007 84.6282 78.578H85.6642C85.4776 79.3247 85.0762 79.936 84.4602 80.412C83.8536 80.8787 83.0882 81.112 82.1642 81.112C81.4456 81.112 80.8016 80.9533 80.2322 80.636C79.6629 80.3093 79.2149 79.852 78.8882 79.264C78.5709 78.6667 78.4122 77.9713 78.4122 77.178C78.4122 76.3847 78.5709 75.6893 78.8882 75.092C79.2056 74.4947 79.6489 74.0373 80.2182 73.72C80.7876 73.4027 81.4362 73.244 82.1642 73.244C82.8922 73.244 83.5269 73.4027 84.0682 73.72C84.6189 74.0373 85.0389 74.4667 85.3282 75.008C85.6269 75.54 85.7762 76.1327 85.7762 76.786ZM84.7822 76.758C84.7916 76.1887 84.6749 75.7033 84.4322 75.302C84.1989 74.9007 83.8769 74.5973 83.4662 74.392C83.0556 74.1867 82.6076 74.084 82.1222 74.084C81.3942 74.084 80.7736 74.3173 80.2602 74.784C79.7469 75.2507 79.4622 75.9087 79.4062 76.758H84.7822ZM90.9152 81.112C90.1966 81.112 89.5479 80.9533 88.9692 80.636C88.3999 80.3093 87.9472 79.852 87.6112 79.264C87.2846 78.6667 87.1212 77.9713 87.1212 77.178C87.1212 76.3847 87.2892 75.694 87.6252 75.106C87.9612 74.5087 88.4186 74.0513 88.9972 73.734C89.5759 73.4073 90.2246 73.244 90.9432 73.244C91.6619 73.244 92.3106 73.4073 92.8892 73.734C93.4772 74.0513 93.9346 74.5087 94.2612 75.106C94.5972 75.694 94.7652 76.3847 94.7652 77.178C94.7652 77.962 94.5972 78.6527 94.2612 79.25C93.9252 79.8473 93.4632 80.3093 92.8752 80.636C92.2872 80.9533 91.6339 81.112 90.9152 81.112ZM90.9152 80.258C91.4192 80.258 91.8859 80.146 92.3152 79.922C92.7446 79.6887 93.0899 79.3433 93.3512 78.886C93.6219 78.4193 93.7572 77.85 93.7572 77.178C93.7572 76.506 93.6266 75.9413 93.3652 75.484C93.1039 75.0173 92.7586 74.672 92.3292 74.448C91.8999 74.2147 91.4332 74.098 90.9292 74.098C90.4252 74.098 89.9586 74.2147 89.5292 74.448C89.0999 74.672 88.7546 75.0173 88.4932 75.484C88.2412 75.9413 88.1152 76.506 88.1152 77.178C88.1152 77.85 88.2412 78.4193 88.4932 78.886C88.7546 79.3433 89.0952 79.6887 89.5152 79.922C89.9446 80.146 90.4112 80.258 90.9152 80.258ZM100.136 73.216C101.05 73.216 101.797 73.5007 102.376 74.07C102.954 74.63 103.244 75.4467 103.244 76.52V81H102.278V76.632C102.278 75.8013 102.068 75.1667 101.648 74.728C101.237 74.2893 100.672 74.07 99.9536 74.07C99.2163 74.07 98.6283 74.3033 98.1896 74.77C97.751 75.2367 97.5316 75.9227 97.5316 76.828V81H96.5516V73.356H97.5316V74.658C97.7743 74.1913 98.1243 73.8367 98.5816 73.594C99.039 73.342 99.557 73.216 100.136 73.216ZM112.327 76.786C112.327 77.122 112.318 77.3787 112.299 77.556H105.957C105.985 78.1347 106.125 78.6293 106.377 79.04C106.629 79.4507 106.96 79.7633 107.371 79.978C107.782 80.1833 108.23 80.286 108.715 80.286C109.35 80.286 109.882 80.132 110.311 79.824C110.75 79.516 111.039 79.1007 111.179 78.578H112.215C112.028 79.3247 111.627 79.936 111.011 80.412C110.404 80.8787 109.639 81.112 108.715 81.112C107.996 81.112 107.352 80.9533 106.783 80.636C106.214 80.3093 105.766 79.852 105.439 79.264C105.122 78.6667 104.963 77.9713 104.963 77.178C104.963 76.3847 105.122 75.6893 105.439 75.092C105.756 74.4947 106.2 74.0373 106.769 73.72C107.338 73.4027 107.987 73.244 108.715 73.244C109.443 73.244 110.078 73.4027 110.619 73.72C111.17 74.0373 111.59 74.4667 111.879 75.008C112.178 75.54 112.327 76.1327 112.327 76.786ZM111.333 76.758C111.342 76.1887 111.226 75.7033 110.983 75.302C110.75 74.9007 110.428 74.5973 110.017 74.392C109.606 74.1867 109.158 74.084 108.673 74.084C107.945 74.084 107.324 74.3173 106.811 74.784C106.298 75.2507 106.013 75.9087 105.957 76.758H111.333ZM128.042 73.356L125.648 81H124.668L122.554 74.588L120.44 81H119.446L117.052 73.356H118.046L119.95 80.006L122.092 73.356H123.072L125.186 80.02L127.076 73.356H128.042ZM133.018 73.216C133.596 73.216 134.114 73.3373 134.572 73.58C135.038 73.8227 135.402 74.196 135.664 74.7C135.934 75.1947 136.07 75.8013 136.07 76.52V81H135.104V76.632C135.104 75.8013 134.894 75.1667 134.474 74.728C134.063 74.2893 133.498 74.07 132.78 74.07C132.042 74.07 131.454 74.3033 131.016 74.77C130.577 75.2367 130.358 75.9227 130.358 76.828V81H129.378V70.64H130.358V74.658C130.6 74.2007 130.955 73.846 131.422 73.594C131.898 73.342 132.43 73.216 133.018 73.216ZM141.583 81.112C140.865 81.112 140.216 80.9533 139.637 80.636C139.068 80.3093 138.615 79.852 138.279 79.264C137.953 78.6667 137.789 77.9713 137.789 77.178C137.789 76.3847 137.957 75.694 138.293 75.106C138.629 74.5087 139.087 74.0513 139.665 73.734C140.244 73.4073 140.893 73.244 141.611 73.244C142.33 73.244 142.979 73.4073 143.557 73.734C144.145 74.0513 144.603 74.5087 144.929 75.106C145.265 75.694 145.433 76.3847 145.433 77.178C145.433 77.962 145.265 78.6527 144.929 79.25C144.593 79.8473 144.131 80.3093 143.543 80.636C142.955 80.9533 142.302 81.112 141.583 81.112ZM141.583 80.258C142.087 80.258 142.554 80.146 142.983 79.922C143.413 79.6887 143.758 79.3433 144.019 78.886C144.29 78.4193 144.425 77.85 144.425 77.178C144.425 76.506 144.295 75.9413 144.033 75.484C143.772 75.0173 143.427 74.672 142.997 74.448C142.568 74.2147 142.101 74.098 141.597 74.098C141.093 74.098 140.627 74.2147 140.197 74.448C139.768 74.672 139.423 75.0173 139.161 75.484C138.909 75.9413 138.783 76.506 138.783 77.178C138.783 77.85 138.909 78.4193 139.161 78.886C139.423 79.3433 139.763 79.6887 140.183 79.922C140.613 80.146 141.079 80.258 141.583 80.258ZM151.551 71.914C151.355 71.914 151.187 71.844 151.047 71.704C150.907 71.564 150.837 71.3913 150.837 71.186C150.837 70.9807 150.907 70.8127 151.047 70.682C151.187 70.542 151.355 70.472 151.551 70.472C151.747 70.472 151.915 70.542 152.055 70.682C152.195 70.8127 152.265 70.9807 152.265 71.186C152.265 71.3913 152.195 71.564 152.055 71.704C151.915 71.844 151.747 71.914 151.551 71.914ZM152.041 73.356V81H151.061V73.356H152.041ZM156.893 81.112C156.015 81.112 155.297 80.9113 154.737 80.51C154.186 80.0993 153.878 79.544 153.813 78.844H154.821C154.867 79.2733 155.068 79.6233 155.423 79.894C155.787 80.1553 156.272 80.286 156.879 80.286C157.411 80.286 157.826 80.16 158.125 79.908C158.433 79.656 158.587 79.3433 158.587 78.97C158.587 78.7087 158.503 78.494 158.335 78.326C158.167 78.158 157.952 78.0273 157.691 77.934C157.439 77.8313 157.093 77.724 156.655 77.612C156.085 77.4627 155.623 77.3133 155.269 77.164C154.914 77.0147 154.611 76.7953 154.359 76.506C154.116 76.2073 153.995 75.8107 153.995 75.316C153.995 74.9427 154.107 74.5973 154.331 74.28C154.555 73.9627 154.872 73.7107 155.283 73.524C155.693 73.3373 156.16 73.244 156.683 73.244C157.504 73.244 158.167 73.454 158.671 73.874C159.175 74.2847 159.445 74.854 159.483 75.582H158.503C158.475 75.134 158.297 74.7747 157.971 74.504C157.653 74.224 157.215 74.084 156.655 74.084C156.16 74.084 155.759 74.2007 155.451 74.434C155.143 74.6673 154.989 74.9567 154.989 75.302C154.989 75.6007 155.077 75.848 155.255 76.044C155.441 76.2307 155.67 76.38 155.941 76.492C156.211 76.5947 156.575 76.7113 157.033 76.842C157.583 76.9913 158.022 77.136 158.349 77.276C158.675 77.416 158.955 77.6213 159.189 77.892C159.422 78.1627 159.543 78.522 159.553 78.97C159.553 79.3807 159.441 79.7493 159.217 80.076C158.993 80.3933 158.68 80.6453 158.279 80.832C157.877 81.0187 157.415 81.112 156.893 81.112ZM172.155 76.786C172.155 77.122 172.146 77.3787 172.127 77.556H165.785C165.813 78.1347 165.953 78.6293 166.205 79.04C166.457 79.4507 166.788 79.7633 167.199 79.978C167.61 80.1833 168.058 80.286 168.543 80.286C169.178 80.286 169.71 80.132 170.139 79.824C170.578 79.516 170.867 79.1007 171.007 78.578H172.043C171.856 79.3247 171.455 79.936 170.839 80.412C170.232 80.8787 169.467 81.112 168.543 81.112C167.824 81.112 167.18 80.9533 166.611 80.636C166.042 80.3093 165.594 79.852 165.267 79.264C164.95 78.6667 164.791 77.9713 164.791 77.178C164.791 76.3847 164.95 75.6893 165.267 75.092C165.584 74.4947 166.028 74.0373 166.597 73.72C167.166 73.4027 167.815 73.244 168.543 73.244C169.271 73.244 169.906 73.4027 170.447 73.72C170.998 74.0373 171.418 74.4667 171.707 75.008C172.006 75.54 172.155 76.1327 172.155 76.786ZM171.161 76.758C171.17 76.1887 171.054 75.7033 170.811 75.302C170.578 74.9007 170.256 74.5973 169.845 74.392C169.434 74.1867 168.986 74.084 168.501 74.084C167.773 74.084 167.152 74.3173 166.639 74.784C166.126 75.2507 165.841 75.9087 165.785 76.758H171.161ZM173.5 77.164C173.5 76.38 173.659 75.694 173.976 75.106C174.293 74.5087 174.727 74.0513 175.278 73.734C175.838 73.4073 176.468 73.244 177.168 73.244C177.887 73.244 178.512 73.4167 179.044 73.762C179.576 74.098 179.954 74.5227 180.178 75.036V73.356H181.158V84.612H180.178V79.32C179.954 79.8333 179.571 80.2627 179.03 80.608C178.498 80.944 177.868 81.112 177.14 81.112C176.449 81.112 175.824 80.9487 175.264 80.622C174.713 80.2953 174.279 79.8333 173.962 79.236C173.654 78.6387 173.5 77.948 173.5 77.164ZM180.178 77.178C180.178 76.562 180.052 76.0207 179.8 75.554C179.548 75.0873 179.203 74.728 178.764 74.476C178.335 74.224 177.859 74.098 177.336 74.098C176.795 74.098 176.309 74.2193 175.88 74.462C175.451 74.7047 175.11 75.0593 174.858 75.526C174.615 75.9833 174.494 76.5293 174.494 77.164C174.494 77.7893 174.615 78.34 174.858 78.816C175.11 79.2827 175.451 79.642 175.88 79.894C176.309 80.1367 176.795 80.258 177.336 80.258C177.859 80.258 178.335 80.132 178.764 79.88C179.203 79.628 179.548 79.2687 179.8 78.802C180.052 78.3353 180.178 77.794 180.178 77.178ZM190.017 73.356V81H189.037V79.656C188.813 80.132 188.468 80.496 188.001 80.748C187.535 81 187.012 81.126 186.433 81.126C185.519 81.126 184.772 80.846 184.193 80.286C183.615 79.7167 183.325 78.8953 183.325 77.822V73.356H184.291V77.71C184.291 78.5407 184.497 79.1753 184.907 79.614C185.327 80.0527 185.897 80.272 186.615 80.272C187.353 80.272 187.941 80.0387 188.379 79.572C188.818 79.1053 189.037 78.4193 189.037 77.514V73.356H190.017ZM191.807 77.164C191.807 76.38 191.961 75.694 192.269 75.106C192.586 74.5087 193.02 74.0513 193.571 73.734C194.131 73.4073 194.761 73.244 195.461 73.244C196.189 73.244 196.814 73.412 197.337 73.748C197.869 74.084 198.251 74.5133 198.485 75.036V73.356H199.465V81H198.485V79.306C198.242 79.8287 197.855 80.2627 197.323 80.608C196.8 80.944 196.175 81.112 195.447 81.112C194.756 81.112 194.131 80.9487 193.571 80.622C193.02 80.2953 192.586 79.8333 192.269 79.236C191.961 78.6387 191.807 77.948 191.807 77.164ZM198.485 77.178C198.485 76.562 198.359 76.0207 198.107 75.554C197.855 75.0873 197.509 74.728 197.071 74.476C196.641 74.224 196.165 74.098 195.643 74.098C195.101 74.098 194.616 74.2193 194.187 74.462C193.757 74.7047 193.417 75.0593 193.165 75.526C192.922 75.9833 192.801 76.5293 192.801 77.164C192.801 77.7893 192.922 78.34 193.165 78.816C193.417 79.2827 193.757 79.642 194.187 79.894C194.616 80.1367 195.101 80.258 195.643 80.258C196.165 80.258 196.641 80.132 197.071 79.88C197.509 79.628 197.855 79.2687 198.107 78.802C198.359 78.3353 198.485 77.794 198.485 77.178ZM202.682 70.64V81H201.702V70.64H202.682ZM205.881 70.64V81H204.901V70.64H205.881ZM214.4 73.356L209.864 84.598H208.842L210.326 80.958L207.19 73.356H208.268L210.872 79.88L213.392 73.356H214.4ZM23.036 97.786C23.036 98.122 23.0267 98.3787 23.008 98.556H16.666C16.694 99.1347 16.834 99.6293 17.086 100.04C17.338 100.451 17.6693 100.763 18.08 100.978C18.4907 101.183 18.9387 101.286 19.424 101.286C20.0587 101.286 20.5907 101.132 21.02 100.824C21.4587 100.516 21.748 100.101 21.888 99.578H22.924C22.7373 100.325 22.336 100.936 21.72 101.412C21.1133 101.879 20.348 102.112 19.424 102.112C18.7053 102.112 18.0613 101.953 17.492 101.636C16.9227 101.309 16.4747 100.852 16.148 100.264C15.8307 99.6667 15.672 98.9713 15.672 98.178C15.672 97.3847 15.8307 96.6893 16.148 96.092C16.4653 95.4947 16.9087 95.0373 17.478 94.72C18.0473 94.4027 18.696 94.244 19.424 94.244C20.152 94.244 20.7867 94.4027 21.328 94.72C21.8787 95.0373 22.2987 95.4667 22.588 96.008C22.8867 96.54 23.036 97.1327 23.036 97.786ZM22.042 97.758C22.0513 97.1887 21.9347 96.7033 21.692 96.302C21.4587 95.9007 21.1367 95.5973 20.726 95.392C20.3153 95.1867 19.8673 95.084 19.382 95.084C18.654 95.084 18.0333 95.3173 17.52 95.784C17.0067 96.2507 16.722 96.9087 16.666 97.758H22.042ZM28.833 102L26.859 98.92L24.955 102H23.919L26.383 98.178L23.947 94.356H25.053L26.999 97.394L28.889 94.356H29.911L27.475 98.136L29.939 102H28.833ZM30.8204 98.178C30.8204 97.3847 30.9791 96.694 31.2964 96.106C31.6138 95.5087 32.0524 95.0513 32.6124 94.734C33.1724 94.4073 33.8118 94.244 34.5304 94.244C35.4731 94.244 36.2478 94.4773 36.8544 94.944C37.4704 95.4107 37.8671 96.0453 38.0444 96.848H36.9944C36.8638 96.2973 36.5791 95.868 36.1404 95.56C35.7111 95.2427 35.1744 95.084 34.5304 95.084C34.0171 95.084 33.5551 95.2007 33.1444 95.434C32.7338 95.6673 32.4071 96.0173 32.1644 96.484C31.9311 96.9413 31.8144 97.506 31.8144 98.178C31.8144 98.85 31.9311 99.4193 32.1644 99.886C32.4071 100.353 32.7338 100.703 33.1444 100.936C33.5551 101.169 34.0171 101.286 34.5304 101.286C35.1744 101.286 35.7111 101.132 36.1404 100.824C36.5791 100.507 36.8638 100.068 36.9944 99.508H38.0444C37.8671 100.292 37.4704 100.922 36.8544 101.398C36.2384 101.874 35.4638 102.112 34.5304 102.112C33.8118 102.112 33.1724 101.953 32.6124 101.636C32.0524 101.309 31.6138 100.852 31.2964 100.264C30.9791 99.6667 30.8204 98.9713 30.8204 98.178ZM40.3444 92.914C40.1484 92.914 39.9804 92.844 39.8404 92.704C39.7004 92.564 39.6304 92.3913 39.6304 92.186C39.6304 91.9807 39.7004 91.8127 39.8404 91.682C39.9804 91.542 40.1484 91.472 40.3444 91.472C40.5404 91.472 40.7084 91.542 40.8484 91.682C40.9884 91.8127 41.0584 91.9807 41.0584 92.186C41.0584 92.3913 40.9884 92.564 40.8484 92.704C40.7084 92.844 40.5404 92.914 40.3444 92.914ZM40.8344 94.356V102H39.8544V94.356H40.8344ZM44.3276 95.182V99.928C44.3276 100.395 44.4163 100.717 44.5936 100.894C44.7709 101.071 45.0836 101.16 45.5316 101.16H46.4276V102H45.3776C44.6869 102 44.1736 101.841 43.8376 101.524C43.5016 101.197 43.3336 100.665 43.3336 99.928V95.182H42.2696V94.356H43.3336V92.438H44.3276V94.356H46.4276V95.182H44.3276ZM54.9598 97.786C54.9598 98.122 54.9505 98.3787 54.9318 98.556H48.5898C48.6178 99.1347 48.7578 99.6293 49.0098 100.04C49.2618 100.451 49.5932 100.763 50.0038 100.978C50.4145 101.183 50.8625 101.286 51.3478 101.286C51.9825 101.286 52.5145 101.132 52.9438 100.824C53.3825 100.516 53.6718 100.101 53.8118 99.578H54.8478C54.6612 100.325 54.2598 100.936 53.6438 101.412C53.0372 101.879 52.2718 102.112 51.3478 102.112C50.6292 102.112 49.9852 101.953 49.4158 101.636C48.8465 101.309 48.3985 100.852 48.0718 100.264C47.7545 99.6667 47.5958 98.9713 47.5958 98.178C47.5958 97.3847 47.7545 96.6893 48.0718 96.092C48.3892 95.4947 48.8325 95.0373 49.4018 94.72C49.9712 94.4027 50.6198 94.244 51.3478 94.244C52.0758 94.244 52.7105 94.4027 53.2518 94.72C53.8025 95.0373 54.2225 95.4667 54.5118 96.008C54.8105 96.54 54.9598 97.1327 54.9598 97.786ZM53.9658 97.758C53.9752 97.1887 53.8585 96.7033 53.6158 96.302C53.3825 95.9007 53.0605 95.5973 52.6498 95.392C52.2392 95.1867 51.7912 95.084 51.3058 95.084C50.5778 95.084 49.9572 95.3173 49.4438 95.784C48.9305 96.2507 48.6458 96.9087 48.5898 97.758H53.9658ZM56.3048 98.164C56.3048 97.38 56.4635 96.694 56.7808 96.106C57.0981 95.5087 57.5321 95.0513 58.0828 94.734C58.6428 94.4073 59.2728 94.244 59.9728 94.244C60.6448 94.244 61.2515 94.4073 61.7928 94.734C62.3341 95.0607 62.7308 95.4853 62.9828 96.008V91.64H63.9628V102H62.9828V100.292C62.7495 100.824 62.3668 101.263 61.8348 101.608C61.3028 101.944 60.6775 102.112 59.9588 102.112C59.2588 102.112 58.6288 101.949 58.0688 101.622C57.5181 101.295 57.0841 100.833 56.7668 100.236C56.4588 99.6387 56.3048 98.948 56.3048 98.164ZM62.9828 98.178C62.9828 97.562 62.8568 97.0207 62.6048 96.554C62.3528 96.0873 62.0075 95.728 61.5688 95.476C61.1395 95.224 60.6635 95.098 60.1408 95.098C59.5995 95.098 59.1141 95.2193 58.6848 95.462C58.2555 95.7047 57.9148 96.0593 57.6628 96.526C57.4201 96.9833 57.2988 97.5293 57.2988 98.164C57.2988 98.7893 57.4201 99.34 57.6628 99.816C57.9148 100.283 58.2555 100.642 58.6848 100.894C59.1141 101.137 59.5995 101.258 60.1408 101.258C60.6635 101.258 61.1395 101.132 61.5688 100.88C62.0075 100.628 62.3528 100.269 62.6048 99.802C62.8568 99.3353 62.9828 98.794 62.9828 98.178ZM69.5939 98.164C69.5939 97.38 69.7479 96.694 70.0559 96.106C70.3732 95.5087 70.8072 95.0513 71.3579 94.734C71.9179 94.4073 72.5479 94.244 73.2479 94.244C73.9759 94.244 74.6012 94.412 75.1239 94.748C75.6559 95.084 76.0385 95.5133 76.2719 96.036V94.356H77.2519V102H76.2719V100.306C76.0292 100.829 75.6419 101.263 75.1099 101.608C74.5872 101.944 73.9619 102.112 73.2339 102.112C72.5432 102.112 71.9179 101.949 71.3579 101.622C70.8072 101.295 70.3732 100.833 70.0559 100.236C69.7479 99.6387 69.5939 98.948 69.5939 98.164ZM76.2719 98.178C76.2719 97.562 76.1459 97.0207 75.8939 96.554C75.6419 96.0873 75.2965 95.728 74.8579 95.476C74.4285 95.224 73.9525 95.098 73.4299 95.098C72.8885 95.098 72.4032 95.2193 71.9739 95.462C71.5445 95.7047 71.2039 96.0593 70.9519 96.526C70.7092 96.9833 70.5879 97.5293 70.5879 98.164C70.5879 98.7893 70.7092 99.34 70.9519 99.816C71.2039 100.283 71.5445 100.642 71.9739 100.894C72.4032 101.137 72.8885 101.258 73.4299 101.258C73.9525 101.258 74.4285 101.132 74.8579 100.88C75.2965 100.628 75.6419 100.269 75.8939 99.802C76.1459 99.3353 76.2719 98.794 76.2719 98.178ZM80.4551 96.05C80.7071 95.518 81.0945 95.084 81.6171 94.748C82.1491 94.412 82.7745 94.244 83.4931 94.244C84.1931 94.244 84.8185 94.4073 85.3691 94.734C85.9198 95.0513 86.3491 95.5087 86.6571 96.106C86.9745 96.694 87.1331 97.38 87.1331 98.164C87.1331 98.948 86.9745 99.6387 86.6571 100.236C86.3491 100.833 85.9151 101.295 85.3551 101.622C84.8045 101.949 84.1838 102.112 83.4931 102.112C82.7651 102.112 82.1351 101.949 81.6031 101.622C81.0805 101.286 80.6978 100.852 80.4551 100.32V102H79.4891V91.64H80.4551V96.05ZM86.1391 98.164C86.1391 97.5293 86.0131 96.9833 85.7611 96.526C85.5185 96.0593 85.1825 95.7047 84.7531 95.462C84.3238 95.2193 83.8385 95.098 83.2971 95.098C82.7745 95.098 82.2938 95.224 81.8551 95.476C81.4258 95.728 81.0851 96.0873 80.8331 96.554C80.5811 97.0207 80.4551 97.562 80.4551 98.178C80.4551 98.794 80.5811 99.3353 80.8331 99.802C81.0851 100.269 81.4258 100.628 81.8551 100.88C82.2938 101.132 82.7745 101.258 83.2971 101.258C83.8385 101.258 84.3238 101.137 84.7531 100.894C85.1825 100.642 85.5185 100.283 85.7611 99.816C86.0131 99.34 86.1391 98.7893 86.1391 98.164ZM92.2824 102.112C91.5637 102.112 90.9151 101.953 90.3364 101.636C89.7671 101.309 89.3144 100.852 88.9784 100.264C88.6517 99.6667 88.4884 98.9713 88.4884 98.178C88.4884 97.3847 88.6564 96.694 88.9924 96.106C89.3284 95.5087 89.7857 95.0513 90.3644 94.734C90.9431 94.4073 91.5917 94.244 92.3104 94.244C93.0291 94.244 93.6777 94.4073 94.2564 94.734C94.8444 95.0513 95.3017 95.5087 95.6284 96.106C95.9644 96.694 96.1324 97.3847 96.1324 98.178C96.1324 98.962 95.9644 99.6527 95.6284 100.25C95.2924 100.847 94.8304 101.309 94.2424 101.636C93.6544 101.953 93.0011 102.112 92.2824 102.112ZM92.2824 101.258C92.7864 101.258 93.2531 101.146 93.6824 100.922C94.1117 100.689 94.4571 100.343 94.7184 99.886C94.9891 99.4193 95.1244 98.85 95.1244 98.178C95.1244 97.506 94.9937 96.9413 94.7324 96.484C94.4711 96.0173 94.1257 95.672 93.6964 95.448C93.2671 95.2147 92.8004 95.098 92.2964 95.098C91.7924 95.098 91.3257 95.2147 90.8964 95.448C90.4671 95.672 90.1217 96.0173 89.8604 96.484C89.6084 96.9413 89.4824 97.506 89.4824 98.178C89.4824 98.85 89.6084 99.4193 89.8604 99.886C90.1217 100.343 90.4624 100.689 90.8824 100.922C91.3117 101.146 91.7784 101.258 92.2824 101.258ZM104.541 94.356V102H103.561V100.656C103.337 101.132 102.991 101.496 102.525 101.748C102.058 102 101.535 102.126 100.957 102.126C100.042 102.126 99.2955 101.846 98.7168 101.286C98.1382 100.717 97.8488 99.8953 97.8488 98.822V94.356H98.8148V98.71C98.8148 99.5407 99.0202 100.175 99.4308 100.614C99.8508 101.053 100.42 101.272 101.139 101.272C101.876 101.272 102.464 101.039 102.903 100.572C103.341 100.105 103.561 99.4193 103.561 98.514V94.356H104.541ZM108.052 95.182V99.928C108.052 100.395 108.141 100.717 108.318 100.894C108.496 101.071 108.808 101.16 109.256 101.16H110.152V102H109.102C108.412 102 107.898 101.841 107.562 101.524C107.226 101.197 107.058 100.665 107.058 99.928V95.182H105.994V94.356H107.058V92.438H108.052V94.356H110.152V95.182H108.052ZM121.91 94.356L117.374 105.598H116.352L117.836 101.958L114.7 94.356H115.778L118.382 100.88L120.902 94.356H121.91ZM126.585 102.112C125.866 102.112 125.218 101.953 124.639 101.636C124.07 101.309 123.617 100.852 123.281 100.264C122.954 99.6667 122.791 98.9713 122.791 98.178C122.791 97.3847 122.959 96.694 123.295 96.106C123.631 95.5087 124.088 95.0513 124.667 94.734C125.246 94.4073 125.894 94.244 126.613 94.244C127.332 94.244 127.98 94.4073 128.559 94.734C129.147 95.0513 129.604 95.5087 129.931 96.106C130.267 96.694 130.435 97.3847 130.435 98.178C130.435 98.962 130.267 99.6527 129.931 100.25C129.595 100.847 129.133 101.309 128.545 101.636C127.957 101.953 127.304 102.112 126.585 102.112ZM126.585 101.258C127.089 101.258 127.556 101.146 127.985 100.922C128.414 100.689 128.76 100.343 129.021 99.886C129.292 99.4193 129.427 98.85 129.427 98.178C129.427 97.506 129.296 96.9413 129.035 96.484C128.774 96.0173 128.428 95.672 127.999 95.448C127.57 95.2147 127.103 95.098 126.599 95.098C126.095 95.098 125.628 95.2147 125.199 95.448C124.77 95.672 124.424 96.0173 124.163 96.484C123.911 96.9413 123.785 97.506 123.785 98.178C123.785 98.85 123.911 99.4193 124.163 99.886C124.424 100.343 124.765 100.689 125.185 100.922C125.614 101.146 126.081 101.258 126.585 101.258ZM138.844 94.356V102H137.864V100.656C137.64 101.132 137.294 101.496 136.828 101.748C136.361 102 135.838 102.126 135.26 102.126C134.345 102.126 133.598 101.846 133.02 101.286C132.441 100.717 132.152 99.8953 132.152 98.822V94.356H133.118V98.71C133.118 99.5407 133.323 100.175 133.734 100.614C134.154 101.053 134.723 101.272 135.442 101.272C136.179 101.272 136.767 101.039 137.206 100.572C137.644 100.105 137.864 99.4193 137.864 98.514V94.356H138.844ZM142.061 95.714C142.276 95.238 142.602 94.8693 143.041 94.608C143.489 94.3467 144.035 94.216 144.679 94.216V95.238H144.413C143.704 95.238 143.134 95.4293 142.705 95.812C142.276 96.1947 142.061 96.834 142.061 97.73V102H141.081V94.356H142.061V95.714ZM150.961 96.036C151.204 95.5227 151.586 95.098 152.109 94.762C152.641 94.4167 153.271 94.244 153.999 94.244C154.69 94.244 155.31 94.4073 155.861 94.734C156.421 95.0513 156.855 95.5087 157.163 96.106C157.48 96.694 157.639 97.38 157.639 98.164C157.639 98.948 157.48 99.6387 157.163 100.236C156.855 100.833 156.421 101.295 155.861 101.622C155.31 101.949 154.69 102.112 153.999 102.112C153.28 102.112 152.655 101.944 152.123 101.608C151.591 101.263 151.204 100.833 150.961 100.32V105.612H149.995V94.356H150.961V96.036ZM156.645 98.164C156.645 97.5293 156.519 96.9833 156.267 96.526C156.024 96.0593 155.688 95.7047 155.259 95.462C154.83 95.2193 154.344 95.098 153.803 95.098C153.28 95.098 152.8 95.224 152.361 95.476C151.932 95.728 151.591 96.0873 151.339 96.554C151.087 97.0207 150.961 97.562 150.961 98.178C150.961 98.794 151.087 99.3353 151.339 99.802C151.591 100.269 151.932 100.628 152.361 100.88C152.8 101.132 153.28 101.258 153.803 101.258C154.344 101.258 154.83 101.137 155.259 100.894C155.688 100.642 156.024 100.283 156.267 99.816C156.519 99.34 156.645 98.7893 156.645 98.164ZM160.422 95.714C160.637 95.238 160.964 94.8693 161.402 94.608C161.85 94.3467 162.396 94.216 163.04 94.216V95.238H162.774C162.065 95.238 161.496 95.4293 161.066 95.812C160.637 96.1947 160.422 96.834 160.422 97.73V102H159.442V94.356H160.422V95.714ZM167.861 102.112C167.142 102.112 166.493 101.953 165.915 101.636C165.345 101.309 164.893 100.852 164.557 100.264C164.23 99.6667 164.067 98.9713 164.067 98.178C164.067 97.3847 164.235 96.694 164.571 96.106C164.907 95.5087 165.364 95.0513 165.943 94.734C166.521 94.4073 167.17 94.244 167.889 94.244C168.607 94.244 169.256 94.4073 169.835 94.734C170.423 95.0513 170.88 95.5087 171.207 96.106C171.543 96.694 171.711 97.3847 171.711 98.178C171.711 98.962 171.543 99.6527 171.207 100.25C170.871 100.847 170.409 101.309 169.821 101.636C169.233 101.953 168.579 102.112 167.861 102.112ZM167.861 101.258C168.365 101.258 168.831 101.146 169.261 100.922C169.69 100.689 170.035 100.343 170.297 99.886C170.567 99.4193 170.703 98.85 170.703 98.178C170.703 97.506 170.572 96.9413 170.311 96.484C170.049 96.0173 169.704 95.672 169.275 95.448C168.845 95.2147 168.379 95.098 167.875 95.098C167.371 95.098 166.904 95.2147 166.475 95.448C166.045 95.672 165.7 96.0173 165.439 96.484C165.187 96.9413 165.061 97.506 165.061 98.178C165.061 98.85 165.187 99.4193 165.439 99.886C165.7 100.343 166.041 100.689 166.461 100.922C166.89 101.146 167.357 101.258 167.861 101.258ZM174.057 92.914C173.861 92.914 173.693 92.844 173.553 92.704C173.413 92.564 173.343 92.3913 173.343 92.186C173.343 91.9807 173.413 91.8127 173.553 91.682C173.693 91.542 173.861 91.472 174.057 91.472C174.253 91.472 174.416 91.542 174.547 91.682C174.687 91.8127 174.757 91.9807 174.757 92.186C174.757 92.3913 174.687 92.564 174.547 92.704C174.416 92.844 174.253 92.914 174.057 92.914ZM174.533 103.806C174.533 104.422 174.379 104.875 174.071 105.164C173.763 105.463 173.301 105.612 172.685 105.612H171.999V104.772H172.531C172.895 104.772 173.156 104.693 173.315 104.534C173.474 104.385 173.553 104.128 173.553 103.764V94.356H174.533V103.806ZM183.694 97.786C183.694 98.122 183.685 98.3787 183.666 98.556H177.324C177.352 99.1347 177.492 99.6293 177.744 100.04C177.996 100.451 178.328 100.763 178.738 100.978C179.149 101.183 179.597 101.286 180.082 101.286C180.717 101.286 181.249 101.132 181.678 100.824C182.117 100.516 182.406 100.101 182.546 99.578H183.582C183.396 100.325 182.994 100.936 182.378 101.412C181.772 101.879 181.006 102.112 180.082 102.112C179.364 102.112 178.72 101.953 178.15 101.636C177.581 101.309 177.133 100.852 176.806 100.264C176.489 99.6667 176.33 98.9713 176.33 98.178C176.33 97.3847 176.489 96.6893 176.806 96.092C177.124 95.4947 177.567 95.0373 178.136 94.72C178.706 94.4027 179.354 94.244 180.082 94.244C180.81 94.244 181.445 94.4027 181.986 94.72C182.537 95.0373 182.957 95.4667 183.246 96.008C183.545 96.54 183.694 97.1327 183.694 97.786ZM182.7 97.758C182.71 97.1887 182.593 96.7033 182.35 96.302C182.117 95.9007 181.795 95.5973 181.384 95.392C180.974 95.1867 180.526 95.084 180.04 95.084C179.312 95.084 178.692 95.3173 178.178 95.784C177.665 96.2507 177.38 96.9087 177.324 97.758H182.7ZM185.039 98.178C185.039 97.3847 185.198 96.694 185.515 96.106C185.833 95.5087 186.271 95.0513 186.831 94.734C187.391 94.4073 188.031 94.244 188.749 94.244C189.692 94.244 190.467 94.4773 191.073 94.944C191.689 95.4107 192.086 96.0453 192.263 96.848H191.213C191.083 96.2973 190.798 95.868 190.359 95.56C189.93 95.2427 189.393 95.084 188.749 95.084C188.236 95.084 187.774 95.2007 187.363 95.434C186.953 95.6673 186.626 96.0173 186.383 96.484C186.15 96.9413 186.033 97.506 186.033 98.178C186.033 98.85 186.15 99.4193 186.383 99.886C186.626 100.353 186.953 100.703 187.363 100.936C187.774 101.169 188.236 101.286 188.749 101.286C189.393 101.286 189.93 101.132 190.359 100.824C190.798 100.507 191.083 100.068 191.213 99.508H192.263C192.086 100.292 191.689 100.922 191.073 101.398C190.457 101.874 189.683 102.112 188.749 102.112C188.031 102.112 187.391 101.953 186.831 101.636C186.271 101.309 185.833 100.852 185.515 100.264C185.198 99.6667 185.039 98.9713 185.039 98.178ZM195.347 95.182V99.928C195.347 100.395 195.436 100.717 195.613 100.894C195.79 101.071 196.103 101.16 196.551 101.16H197.447V102H196.397C195.706 102 195.193 101.841 194.857 101.524C194.521 101.197 194.353 100.665 194.353 99.928V95.182H193.289V94.356H194.353V92.438H195.347V94.356H197.447V95.182H195.347ZM199.231 102.07C199.026 102.07 198.853 102 198.713 101.86C198.583 101.72 198.517 101.547 198.517 101.342C198.517 101.137 198.583 100.969 198.713 100.838C198.853 100.698 199.026 100.628 199.231 100.628C199.427 100.628 199.591 100.698 199.721 100.838C199.861 100.969 199.931 101.137 199.931 101.342C199.931 101.547 199.861 101.72 199.721 101.86C199.591 102 199.427 102.07 199.231 102.07Z" fill="white"/>
</svg>
