<svg width="255" height="146" viewBox="0 0 255 146" fill="none" xmlns="http://www.w3.org/2000/svg">
<path d="M202.192 142.857C202.528 143.693 203.711 143.693 204.047 142.857L210.465 126.913C210.729 126.256 210.246 125.54 209.537 125.54L196.702 125.54C195.994 125.54 195.51 126.256 195.775 126.913L202.192 142.857Z" fill="#28C65C"/>
<rect width="255" height="132" rx="20" transform="matrix(-1 0 0 1 255 0)" fill="#28C65C"/>
<path d="M22.378 22.028C22.378 22.868 22.1027 23.5447 21.552 24.058C21.0013 24.5713 20.1753 24.828 19.074 24.828H17.1V29H16.12V19.214H19.074C20.166 19.214 20.9873 19.4707 21.538 19.984C22.098 20.4973 22.378 21.1787 22.378 22.028ZM19.074 23.988C20.6047 23.988 21.37 23.3347 21.37 22.028C21.37 21.3747 21.188 20.88 20.824 20.544C20.46 20.208 19.8767 20.04 19.074 20.04H17.1V23.988H19.074ZM25.0023 18.64V29H24.0223V18.64H25.0023ZM26.7736 25.164C26.7736 24.38 26.9276 23.694 27.2356 23.106C27.5529 22.5087 27.9869 22.0513 28.5376 21.734C29.0976 21.4073 29.7276 21.244 30.4276 21.244C31.1556 21.244 31.7809 21.412 32.3036 21.748C32.8356 22.084 33.2182 22.5133 33.4516 23.036V21.356H34.4316V29H33.4516V27.306C33.2089 27.8287 32.8216 28.2627 32.2896 28.608C31.7669 28.944 31.1416 29.112 30.4136 29.112C29.7229 29.112 29.0976 28.9487 28.5376 28.622C27.9869 28.2953 27.5529 27.8333 27.2356 27.236C26.9276 26.6387 26.7736 25.948 26.7736 25.164ZM33.4516 25.178C33.4516 24.562 33.3256 24.0207 33.0736 23.554C32.8216 23.0873 32.4762 22.728 32.0376 22.476C31.6082 22.224 31.1322 22.098 30.6096 22.098C30.0682 22.098 29.5829 22.2193 29.1536 22.462C28.7242 22.7047 28.3836 23.0593 28.1316 23.526C27.8889 23.9833 27.7676 24.5293 27.7676 25.164C27.7676 25.7893 27.8889 26.34 28.1316 26.816C28.3836 27.2827 28.7242 27.642 29.1536 27.894C29.5829 28.1367 30.0682 28.258 30.6096 28.258C31.1322 28.258 31.6082 28.132 32.0376 27.88C32.4762 27.628 32.8216 27.2687 33.0736 26.802C33.3256 26.3353 33.4516 25.794 33.4516 25.178ZM40.2528 21.216C41.1675 21.216 41.9142 21.5007 42.4928 22.07C43.0715 22.63 43.3608 23.4467 43.3608 24.52V29H42.3948V24.632C42.3948 23.8013 42.1848 23.1667 41.7648 22.728C41.3542 22.2893 40.7895 22.07 40.0708 22.07C39.3335 22.07 38.7455 22.3033 38.3068 22.77C37.8682 23.2367 37.6488 23.9227 37.6488 24.828V29H36.6688V21.356H37.6488V22.658C37.8915 22.1913 38.2415 21.8367 38.6988 21.594C39.1562 21.342 39.6742 21.216 40.2528 21.216ZM49.1122 21.216C50.0269 21.216 50.7735 21.5007 51.3522 22.07C51.9309 22.63 52.2202 23.4467 52.2202 24.52V29H51.2542V24.632C51.2542 23.8013 51.0442 23.1667 50.6242 22.728C50.2135 22.2893 49.6489 22.07 48.9302 22.07C48.1929 22.07 47.6049 22.3033 47.1662 22.77C46.7275 23.2367 46.5082 23.9227 46.5082 24.828V29H45.5282V21.356H46.5082V22.658C46.7509 22.1913 47.1009 21.8367 47.5582 21.594C48.0155 21.342 48.5335 21.216 49.1122 21.216ZM54.8776 19.914C54.6816 19.914 54.5136 19.844 54.3736 19.704C54.2336 19.564 54.1636 19.3913 54.1636 19.186C54.1636 18.9807 54.2336 18.8127 54.3736 18.682C54.5136 18.542 54.6816 18.472 54.8776 18.472C55.0736 18.472 55.2416 18.542 55.3816 18.682C55.5216 18.8127 55.5916 18.9807 55.5916 19.186C55.5916 19.3913 55.5216 19.564 55.3816 19.704C55.2416 19.844 55.0736 19.914 54.8776 19.914ZM55.3676 21.356V29H54.3876V21.356H55.3676ZM61.1708 21.216C62.0855 21.216 62.8321 21.5007 63.4108 22.07C63.9895 22.63 64.2788 23.4467 64.2788 24.52V29H63.3128V24.632C63.3128 23.8013 63.1028 23.1667 62.6828 22.728C62.2721 22.2893 61.7075 22.07 60.9888 22.07C60.2515 22.07 59.6635 22.3033 59.2248 22.77C58.7861 23.2367 58.5668 23.9227 58.5668 24.828V29H57.5868V21.356H58.5668V22.658C58.8095 22.1913 59.1595 21.8367 59.6168 21.594C60.0741 21.342 60.5921 21.216 61.1708 21.216ZM69.6522 21.244C70.3708 21.244 70.9962 21.412 71.5282 21.748C72.0602 22.084 72.4428 22.5087 72.6762 23.022V21.356H73.6562V29.196C73.6562 29.896 73.5022 30.5167 73.1942 31.058C72.8955 31.5993 72.4755 32.0147 71.9342 32.304C71.3928 32.6027 70.7768 32.752 70.0862 32.752C69.1062 32.752 68.2895 32.5187 67.6362 32.052C66.9922 31.5853 66.5908 30.9507 66.4322 30.148H67.3982C67.5662 30.68 67.8835 31.1047 68.3502 31.422C68.8262 31.7393 69.4048 31.898 70.0862 31.898C70.5808 31.898 71.0242 31.7907 71.4162 31.576C71.8082 31.3707 72.1162 31.0627 72.3402 30.652C72.5642 30.2413 72.6762 29.756 72.6762 29.196V27.306C72.4335 27.8287 72.0462 28.2627 71.5142 28.608C70.9915 28.944 70.3708 29.112 69.6522 29.112C68.9522 29.112 68.3222 28.9487 67.7622 28.622C67.2115 28.2953 66.7775 27.8333 66.4602 27.236C66.1522 26.6387 65.9982 25.948 65.9982 25.164C65.9982 24.38 66.1522 23.694 66.4602 23.106C66.7775 22.5087 67.2115 22.0513 67.7622 21.734C68.3222 21.4073 68.9522 21.244 69.6522 21.244ZM72.6762 25.178C72.6762 24.562 72.5502 24.0207 72.2982 23.554C72.0462 23.0873 71.7008 22.728 71.2622 22.476C70.8328 22.224 70.3568 22.098 69.8342 22.098C69.2928 22.098 68.8075 22.2193 68.3782 22.462C67.9488 22.7047 67.6082 23.0593 67.3562 23.526C67.1135 23.9833 66.9922 24.5293 66.9922 25.164C66.9922 25.7893 67.1135 26.34 67.3562 26.816C67.6082 27.2827 67.9488 27.642 68.3782 27.894C68.8075 28.1367 69.2928 28.258 69.8342 28.258C70.3568 28.258 70.8328 28.132 71.2622 27.88C71.7008 27.628 72.0462 27.2687 72.2982 26.802C72.5502 26.3353 72.6762 25.794 72.6762 25.178ZM80.2252 19.914C80.0292 19.914 79.8612 19.844 79.7212 19.704C79.5812 19.564 79.5112 19.3913 79.5112 19.186C79.5112 18.9807 79.5812 18.8127 79.7212 18.682C79.8612 18.542 80.0292 18.472 80.2252 18.472C80.4212 18.472 80.5892 18.542 80.7292 18.682C80.8692 18.8127 80.9392 18.9807 80.9392 19.186C80.9392 19.3913 80.8692 19.564 80.7292 19.704C80.5892 19.844 80.4212 19.914 80.2252 19.914ZM80.7152 21.356V29H79.7352V21.356H80.7152ZM85.5665 29.112C84.6891 29.112 83.9705 28.9113 83.4105 28.51C82.8598 28.0993 82.5518 27.544 82.4865 26.844H83.4945C83.5411 27.2733 83.7418 27.6233 84.0965 27.894C84.4605 28.1553 84.9458 28.286 85.5525 28.286C86.0845 28.286 86.4998 28.16 86.7985 27.908C87.1065 27.656 87.2605 27.3433 87.2605 26.97C87.2605 26.7087 87.1765 26.494 87.0085 26.326C86.8405 26.158 86.6258 26.0273 86.3645 25.934C86.1125 25.8313 85.7671 25.724 85.3285 25.612C84.7591 25.4627 84.2971 25.3133 83.9425 25.164C83.5878 25.0147 83.2845 24.7953 83.0325 24.506C82.7898 24.2073 82.6685 23.8107 82.6685 23.316C82.6685 22.9427 82.7805 22.5973 83.0045 22.28C83.2285 21.9627 83.5458 21.7107 83.9565 21.524C84.3671 21.3373 84.8338 21.244 85.3565 21.244C86.1778 21.244 86.8405 21.454 87.3445 21.874C87.8485 22.2847 88.1191 22.854 88.1565 23.582H87.1765C87.1485 23.134 86.9711 22.7747 86.6445 22.504C86.3271 22.224 85.8885 22.084 85.3285 22.084C84.8338 22.084 84.4325 22.2007 84.1245 22.434C83.8165 22.6673 83.6625 22.9567 83.6625 23.302C83.6625 23.6007 83.7511 23.848 83.9285 24.044C84.1151 24.2307 84.3438 24.38 84.6145 24.492C84.8851 24.5947 85.2491 24.7113 85.7065 24.842C86.2571 24.9913 86.6958 25.136 87.0225 25.276C87.3491 25.416 87.6291 25.6213 87.8625 25.892C88.0958 26.1627 88.2171 26.522 88.2265 26.97C88.2265 27.3807 88.1145 27.7493 87.8905 28.076C87.6665 28.3933 87.3538 28.6453 86.9525 28.832C86.5511 29.0187 86.0891 29.112 85.5665 29.112ZM93.465 25.164C93.465 24.38 93.619 23.694 93.927 23.106C94.2443 22.5087 94.6783 22.0513 95.229 21.734C95.789 21.4073 96.419 21.244 97.119 21.244C97.847 21.244 98.4723 21.412 98.995 21.748C99.527 22.084 99.9096 22.5133 100.143 23.036V21.356H101.123V29H100.143V27.306C99.9003 27.8287 99.513 28.2627 98.981 28.608C98.4583 28.944 97.833 29.112 97.105 29.112C96.4143 29.112 95.789 28.9487 95.229 28.622C94.6783 28.2953 94.2443 27.8333 93.927 27.236C93.619 26.6387 93.465 25.948 93.465 25.164ZM100.143 25.178C100.143 24.562 100.017 24.0207 99.765 23.554C99.513 23.0873 99.1676 22.728 98.729 22.476C98.2996 22.224 97.8236 22.098 97.301 22.098C96.7596 22.098 96.2743 22.2193 95.845 22.462C95.4156 22.7047 95.075 23.0593 94.823 23.526C94.5803 23.9833 94.459 24.5293 94.459 25.164C94.459 25.7893 94.5803 26.34 94.823 26.816C95.075 27.2827 95.4156 27.642 95.845 27.894C96.2743 28.1367 96.7596 28.258 97.301 28.258C97.8236 28.258 98.2996 28.132 98.729 27.88C99.1676 27.628 99.513 27.2687 99.765 26.802C100.017 26.3353 100.143 25.794 100.143 25.178ZM116.302 21.216C117.198 21.216 117.926 21.5007 118.486 22.07C119.055 22.63 119.34 23.4467 119.34 24.52V29H118.374V24.632C118.374 23.8013 118.173 23.1667 117.772 22.728C117.371 22.2893 116.825 22.07 116.134 22.07C115.415 22.07 114.841 22.308 114.412 22.784C113.983 23.26 113.768 23.9507 113.768 24.856V29H112.802V24.632C112.802 23.8013 112.601 23.1667 112.2 22.728C111.799 22.2893 111.248 22.07 110.548 22.07C109.829 22.07 109.255 22.308 108.826 22.784C108.397 23.26 108.182 23.9507 108.182 24.856V29H107.202V21.356H108.182V22.672C108.425 22.196 108.77 21.8367 109.218 21.594C109.666 21.342 110.165 21.216 110.716 21.216C111.379 21.216 111.957 21.3747 112.452 21.692C112.956 22.0093 113.32 22.476 113.544 23.092C113.749 22.4853 114.099 22.0233 114.594 21.706C115.098 21.3793 115.667 21.216 116.302 21.216ZM121.068 25.164C121.068 24.38 121.222 23.694 121.53 23.106C121.848 22.5087 122.282 22.0513 122.832 21.734C123.392 21.4073 124.022 21.244 124.722 21.244C125.45 21.244 126.076 21.412 126.598 21.748C127.13 22.084 127.513 22.5133 127.746 23.036V21.356H128.726V29H127.746V27.306C127.504 27.8287 127.116 28.2627 126.584 28.608C126.062 28.944 125.436 29.112 124.708 29.112C124.018 29.112 123.392 28.9487 122.832 28.622C122.282 28.2953 121.848 27.8333 121.53 27.236C121.222 26.6387 121.068 25.948 121.068 25.164ZM127.746 25.178C127.746 24.562 127.62 24.0207 127.368 23.554C127.116 23.0873 126.771 22.728 126.332 22.476C125.903 22.224 125.427 22.098 124.904 22.098C124.363 22.098 123.878 22.2193 123.448 22.462C123.019 22.7047 122.678 23.0593 122.426 23.526C122.184 23.9833 122.062 24.5293 122.062 25.164C122.062 25.7893 122.184 26.34 122.426 26.816C122.678 27.2827 123.019 27.642 123.448 27.894C123.878 28.1367 124.363 28.258 124.904 28.258C125.427 28.258 125.903 28.132 126.332 27.88C126.771 27.628 127.116 27.2687 127.368 26.802C127.62 26.3353 127.746 25.794 127.746 25.178ZM134.17 21.244C134.888 21.244 135.514 21.412 136.046 21.748C136.578 22.084 136.96 22.5087 137.194 23.022V21.356H138.174V29.196C138.174 29.896 138.02 30.5167 137.712 31.058C137.413 31.5993 136.993 32.0147 136.452 32.304C135.91 32.6027 135.294 32.752 134.604 32.752C133.624 32.752 132.807 32.5187 132.154 32.052C131.51 31.5853 131.108 30.9507 130.95 30.148H131.916C132.084 30.68 132.401 31.1047 132.868 31.422C133.344 31.7393 133.922 31.898 134.604 31.898C135.098 31.898 135.542 31.7907 135.934 31.576C136.326 31.3707 136.634 31.0627 136.858 30.652C137.082 30.2413 137.194 29.756 137.194 29.196V27.306C136.951 27.8287 136.564 28.2627 136.032 28.608C135.509 28.944 134.888 29.112 134.17 29.112C133.47 29.112 132.84 28.9487 132.28 28.622C131.729 28.2953 131.295 27.8333 130.978 27.236C130.67 26.6387 130.516 25.948 130.516 25.164C130.516 24.38 130.67 23.694 130.978 23.106C131.295 22.5087 131.729 22.0513 132.28 21.734C132.84 21.4073 133.47 21.244 134.17 21.244ZM137.194 25.178C137.194 24.562 137.068 24.0207 136.816 23.554C136.564 23.0873 136.218 22.728 135.78 22.476C135.35 22.224 134.874 22.098 134.352 22.098C133.81 22.098 133.325 22.2193 132.896 22.462C132.466 22.7047 132.126 23.0593 131.874 23.526C131.631 23.9833 131.51 24.5293 131.51 25.164C131.51 25.7893 131.631 26.34 131.874 26.816C132.126 27.2827 132.466 27.642 132.896 27.894C133.325 28.1367 133.81 28.258 134.352 28.258C134.874 28.258 135.35 28.132 135.78 27.88C136.218 27.628 136.564 27.2687 136.816 26.802C137.068 26.3353 137.194 25.794 137.194 25.178ZM140.901 19.914C140.705 19.914 140.537 19.844 140.397 19.704C140.257 19.564 140.187 19.3913 140.187 19.186C140.187 18.9807 140.257 18.8127 140.397 18.682C140.537 18.542 140.705 18.472 140.901 18.472C141.097 18.472 141.265 18.542 141.405 18.682C141.545 18.8127 141.615 18.9807 141.615 19.186C141.615 19.3913 141.545 19.564 141.405 19.704C141.265 19.844 141.097 19.914 140.901 19.914ZM141.391 21.356V29H140.411V21.356H141.391ZM143.162 25.178C143.162 24.3847 143.321 23.694 143.638 23.106C143.956 22.5087 144.394 22.0513 144.954 21.734C145.514 21.4073 146.154 21.244 146.872 21.244C147.815 21.244 148.59 21.4773 149.196 21.944C149.812 22.4107 150.209 23.0453 150.386 23.848H149.336C149.206 23.2973 148.921 22.868 148.482 22.56C148.053 22.2427 147.516 22.084 146.872 22.084C146.359 22.084 145.897 22.2007 145.486 22.434C145.076 22.6673 144.749 23.0173 144.506 23.484C144.273 23.9413 144.156 24.506 144.156 25.178C144.156 25.85 144.273 26.4193 144.506 26.886C144.749 27.3527 145.076 27.7027 145.486 27.936C145.897 28.1693 146.359 28.286 146.872 28.286C147.516 28.286 148.053 28.132 148.482 27.824C148.921 27.5067 149.206 27.068 149.336 26.508H150.386C150.209 27.292 149.812 27.922 149.196 28.398C148.58 28.874 147.806 29.112 146.872 29.112C146.154 29.112 145.514 28.9533 144.954 28.636C144.394 28.3093 143.956 27.852 143.638 27.264C143.321 26.6667 143.162 25.9713 143.162 25.178ZM151.748 25.164C151.748 24.38 151.902 23.694 152.21 23.106C152.528 22.5087 152.962 22.0513 153.512 21.734C154.072 21.4073 154.702 21.244 155.402 21.244C156.13 21.244 156.756 21.412 157.278 21.748C157.81 22.084 158.193 22.5133 158.426 23.036V21.356H159.406V29H158.426V27.306C158.184 27.8287 157.796 28.2627 157.264 28.608C156.742 28.944 156.116 29.112 155.388 29.112C154.698 29.112 154.072 28.9487 153.512 28.622C152.962 28.2953 152.528 27.8333 152.21 27.236C151.902 26.6387 151.748 25.948 151.748 25.164ZM158.426 25.178C158.426 24.562 158.3 24.0207 158.048 23.554C157.796 23.0873 157.451 22.728 157.012 22.476C156.583 22.224 156.107 22.098 155.584 22.098C155.043 22.098 154.558 22.2193 154.128 22.462C153.699 22.7047 153.358 23.0593 153.106 23.526C152.864 23.9833 152.742 24.5293 152.742 25.164C152.742 25.7893 152.864 26.34 153.106 26.816C153.358 27.2827 153.699 27.642 154.128 27.894C154.558 28.1367 155.043 28.258 155.584 28.258C156.107 28.258 156.583 28.132 157.012 27.88C157.451 27.628 157.796 27.2687 158.048 26.802C158.3 26.3353 158.426 25.794 158.426 25.178ZM162.623 18.64V29H161.643V18.64H162.623ZM17.394 43.182V47.928C17.394 48.3947 17.4827 48.7167 17.66 48.894C17.8373 49.0713 18.15 49.16 18.598 49.16H19.494V50H18.444C17.7533 50 17.24 49.8413 16.904 49.524C16.568 49.1973 16.4 48.6653 16.4 47.928V43.182H15.336V42.356H16.4V40.438H17.394V42.356H19.494V43.182H17.394ZM21.6002 40.914C21.4042 40.914 21.2362 40.844 21.0962 40.704C20.9562 40.564 20.8862 40.3913 20.8862 40.186C20.8862 39.9807 20.9562 39.8127 21.0962 39.682C21.2362 39.542 21.4042 39.472 21.6002 39.472C21.7962 39.472 21.9642 39.542 22.1042 39.682C22.2442 39.8127 22.3142 39.9807 22.3142 40.186C22.3142 40.3913 22.2442 40.564 22.1042 40.704C21.9642 40.844 21.7962 40.914 21.6002 40.914ZM22.0902 42.356V50H21.1102V42.356H22.0902ZM33.4095 42.216C34.3055 42.216 35.0335 42.5007 35.5935 43.07C36.1628 43.63 36.4475 44.4467 36.4475 45.52V50H35.4815V45.632C35.4815 44.8013 35.2808 44.1667 34.8795 43.728C34.4781 43.2893 33.9321 43.07 33.2415 43.07C32.5228 43.07 31.9488 43.308 31.5195 43.784C31.0901 44.26 30.8755 44.9507 30.8755 45.856V50H29.9095V45.632C29.9095 44.8013 29.7088 44.1667 29.3075 43.728C28.9061 43.2893 28.3555 43.07 27.6555 43.07C26.9368 43.07 26.3628 43.308 25.9335 43.784C25.5041 44.26 25.2895 44.9507 25.2895 45.856V50H24.3095V42.356H25.2895V43.672C25.5321 43.196 25.8775 42.8367 26.3255 42.594C26.7735 42.342 27.2728 42.216 27.8235 42.216C28.4861 42.216 29.0648 42.3747 29.5595 42.692C30.0635 43.0093 30.4275 43.476 30.6515 44.092C30.8568 43.4853 31.2068 43.0233 31.7015 42.706C32.2055 42.3793 32.7748 42.216 33.4095 42.216ZM45.5399 45.786C45.5399 46.122 45.5306 46.3787 45.5119 46.556H39.1699C39.1979 47.1347 39.3379 47.6293 39.5899 48.04C39.8419 48.4507 40.1732 48.7633 40.5839 48.978C40.9946 49.1833 41.4426 49.286 41.9279 49.286C42.5626 49.286 43.0946 49.132 43.5239 48.824C43.9626 48.516 44.2519 48.1007 44.3919 47.578H45.4279C45.2412 48.3247 44.8399 48.936 44.2239 49.412C43.6172 49.8787 42.8519 50.112 41.9279 50.112C41.2092 50.112 40.5652 49.9533 39.9959 49.636C39.4266 49.3093 38.9786 48.852 38.6519 48.264C38.3346 47.6667 38.1759 46.9713 38.1759 46.178C38.1759 45.3847 38.3346 44.6893 38.6519 44.092C38.9692 43.4947 39.4126 43.0373 39.9819 42.72C40.5512 42.4027 41.1999 42.244 41.9279 42.244C42.6559 42.244 43.2906 42.4027 43.8319 42.72C44.3826 43.0373 44.8026 43.4667 45.0919 44.008C45.3906 44.54 45.5399 45.1327 45.5399 45.786ZM44.5459 45.758C44.5552 45.1887 44.4386 44.7033 44.1959 44.302C43.9626 43.9007 43.6406 43.5973 43.2299 43.392C42.8192 43.1867 42.3712 43.084 41.8859 43.084C41.1579 43.084 40.5372 43.3173 40.0239 43.784C39.5106 44.2507 39.2259 44.9087 39.1699 45.758H44.5459ZM52.0789 44.4V45.226H46.6329V44.4H52.0789ZM57.2247 50.112C56.3473 50.112 55.6287 49.9113 55.0687 49.51C54.518 49.0993 54.21 48.544 54.1447 47.844H55.1527C55.1993 48.2733 55.4 48.6233 55.7547 48.894C56.1187 49.1553 56.604 49.286 57.2107 49.286C57.7427 49.286 58.158 49.16 58.4567 48.908C58.7647 48.656 58.9187 48.3433 58.9187 47.97C58.9187 47.7087 58.8347 47.494 58.6667 47.326C58.4987 47.158 58.284 47.0273 58.0227 46.934C57.7707 46.8313 57.4253 46.724 56.9867 46.612C56.4173 46.4627 55.9553 46.3133 55.6007 46.164C55.246 46.0147 54.9427 45.7953 54.6907 45.506C54.448 45.2073 54.3267 44.8107 54.3267 44.316C54.3267 43.9427 54.4387 43.5973 54.6627 43.28C54.8867 42.9627 55.204 42.7107 55.6147 42.524C56.0253 42.3373 56.492 42.244 57.0147 42.244C57.836 42.244 58.4987 42.454 59.0027 42.874C59.5067 43.2847 59.7773 43.854 59.8147 44.582H58.8347C58.8067 44.134 58.6293 43.7747 58.3027 43.504C57.9853 43.224 57.5467 43.084 56.9867 43.084C56.492 43.084 56.0907 43.2007 55.7827 43.434C55.4747 43.6673 55.3207 43.9567 55.3207 44.302C55.3207 44.6007 55.4093 44.848 55.5867 45.044C55.7733 45.2307 56.002 45.38 56.2727 45.492C56.5433 45.5947 56.9073 45.7113 57.3647 45.842C57.9153 45.9913 58.354 46.136 58.6807 46.276C59.0073 46.416 59.2873 46.6213 59.5207 46.892C59.754 47.1627 59.8753 47.522 59.8847 47.97C59.8847 48.3807 59.7727 48.7493 59.5487 49.076C59.3247 49.3933 59.012 49.6453 58.6107 49.832C58.2093 50.0187 57.7473 50.112 57.2247 50.112ZM61.2814 46.164C61.2814 45.38 61.4354 44.694 61.7434 44.106C62.0607 43.5087 62.4947 43.0513 63.0454 42.734C63.6054 42.4073 64.2354 42.244 64.9354 42.244C65.6634 42.244 66.2887 42.412 66.8114 42.748C67.3434 43.084 67.726 43.5133 67.9594 44.036V42.356H68.9394V50H67.9594V48.306C67.7167 48.8287 67.3294 49.2627 66.7974 49.608C66.2747 49.944 65.6494 50.112 64.9214 50.112C64.2307 50.112 63.6054 49.9487 63.0454 49.622C62.4947 49.2953 62.0607 48.8333 61.7434 48.236C61.4354 47.6387 61.2814 46.948 61.2814 46.164ZM67.9594 46.178C67.9594 45.562 67.8334 45.0207 67.5814 44.554C67.3294 44.0873 66.984 43.728 66.5454 43.476C66.116 43.224 65.64 43.098 65.1174 43.098C64.576 43.098 64.0907 43.2193 63.6614 43.462C63.232 43.7047 62.8914 44.0593 62.6394 44.526C62.3967 44.9833 62.2754 45.5293 62.2754 46.164C62.2754 46.7893 62.3967 47.34 62.6394 47.816C62.8914 48.2827 63.232 48.642 63.6614 48.894C64.0907 49.1367 64.576 49.258 65.1174 49.258C65.64 49.258 66.116 49.132 66.5454 48.88C66.984 48.628 67.3294 48.2687 67.5814 47.802C67.8334 47.3353 67.9594 46.794 67.9594 46.178ZM73.8926 49.048L76.4686 42.356H77.5046L74.4386 50H73.3326L70.2666 42.356H71.3166L73.8926 49.048ZM79.3229 40.914C79.1269 40.914 78.9589 40.844 78.8189 40.704C78.6789 40.564 78.6089 40.3913 78.6089 40.186C78.6089 39.9807 78.6789 39.8127 78.8189 39.682C78.9589 39.542 79.1269 39.472 79.3229 39.472C79.5189 39.472 79.6869 39.542 79.8269 39.682C79.9669 39.8127 80.0369 39.9807 80.0369 40.186C80.0369 40.3913 79.9669 40.564 79.8269 40.704C79.6869 40.844 79.5189 40.914 79.3229 40.914ZM79.8129 42.356V50H78.8329V42.356H79.8129ZM85.6161 42.216C86.5308 42.216 87.2774 42.5007 87.8561 43.07C88.4348 43.63 88.7241 44.4467 88.7241 45.52V50H87.7581V45.632C87.7581 44.8013 87.5481 44.1667 87.1281 43.728C86.7174 43.2893 86.1528 43.07 85.4341 43.07C84.6968 43.07 84.1088 43.3033 83.6701 43.77C83.2314 44.2367 83.0121 44.9227 83.0121 45.828V50H82.0321V42.356H83.0121V43.658C83.2548 43.1913 83.6048 42.8367 84.0621 42.594C84.5194 42.342 85.0374 42.216 85.6161 42.216ZM94.0975 42.244C94.8162 42.244 95.4415 42.412 95.9735 42.748C96.5055 43.084 96.8882 43.5087 97.1215 44.022V42.356H98.1015V50.196C98.1015 50.896 97.9475 51.5167 97.6395 52.058C97.3408 52.5993 96.9208 53.0147 96.3795 53.304C95.8382 53.6027 95.2222 53.752 94.5315 53.752C93.5515 53.752 92.7348 53.5187 92.0815 53.052C91.4375 52.5853 91.0362 51.9507 90.8775 51.148H91.8435C92.0115 51.68 92.3288 52.1047 92.7955 52.422C93.2715 52.7393 93.8502 52.898 94.5315 52.898C95.0262 52.898 95.4695 52.7907 95.8615 52.576C96.2535 52.3707 96.5615 52.0627 96.7855 51.652C97.0095 51.2413 97.1215 50.756 97.1215 50.196V48.306C96.8788 48.8287 96.4915 49.2627 95.9595 49.608C95.4368 49.944 94.8162 50.112 94.0975 50.112C93.3975 50.112 92.7675 49.9487 92.2075 49.622C91.6568 49.2953 91.2228 48.8333 90.9055 48.236C90.5975 47.6387 90.4435 46.948 90.4435 46.164C90.4435 45.38 90.5975 44.694 90.9055 44.106C91.2228 43.5087 91.6568 43.0513 92.2075 42.734C92.7675 42.4073 93.3975 42.244 94.0975 42.244ZM97.1215 46.178C97.1215 45.562 96.9955 45.0207 96.7435 44.554C96.4915 44.0873 96.1462 43.728 95.7075 43.476C95.2782 43.224 94.8022 43.098 94.2795 43.098C93.7382 43.098 93.2528 43.2193 92.8235 43.462C92.3942 43.7047 92.0535 44.0593 91.8015 44.526C91.5588 44.9833 91.4375 45.5293 91.4375 46.164C91.4375 46.7893 91.5588 47.34 91.8015 47.816C92.0535 48.2827 92.3942 48.642 92.8235 48.894C93.2528 49.1367 93.7382 49.258 94.2795 49.258C94.8022 49.258 95.2782 49.132 95.7075 48.88C96.1462 48.628 96.4915 48.2687 96.7435 47.802C96.9955 47.3353 97.1215 46.794 97.1215 46.178ZM103.733 46.164C103.733 45.38 103.891 44.694 104.209 44.106C104.526 43.5087 104.96 43.0513 105.511 42.734C106.071 42.4073 106.701 42.244 107.401 42.244C108.073 42.244 108.679 42.4073 109.221 42.734C109.762 43.0607 110.159 43.4853 110.411 44.008V39.64H111.391V50H110.411V48.292C110.177 48.824 109.795 49.2627 109.263 49.608C108.731 49.944 108.105 50.112 107.387 50.112C106.687 50.112 106.057 49.9487 105.497 49.622C104.946 49.2953 104.512 48.8333 104.195 48.236C103.887 47.6387 103.733 46.948 103.733 46.164ZM110.411 46.178C110.411 45.562 110.285 45.0207 110.033 44.554C109.781 44.0873 109.435 43.728 108.997 43.476C108.567 43.224 108.091 43.098 107.569 43.098C107.027 43.098 106.542 43.2193 106.113 43.462C105.683 43.7047 105.343 44.0593 105.091 44.526C104.848 44.9833 104.727 45.5293 104.727 46.164C104.727 46.7893 104.848 47.34 105.091 47.816C105.343 48.2827 105.683 48.642 106.113 48.894C106.542 49.1367 107.027 49.258 107.569 49.258C108.091 49.258 108.567 49.132 108.997 48.88C109.435 48.628 109.781 48.2687 110.033 47.802C110.285 47.3353 110.411 46.794 110.411 46.178ZM120.544 45.786C120.544 46.122 120.534 46.3787 120.516 46.556H114.174C114.202 47.1347 114.342 47.6293 114.594 48.04C114.846 48.4507 115.177 48.7633 115.588 48.978C115.998 49.1833 116.446 49.286 116.932 49.286C117.566 49.286 118.098 49.132 118.528 48.824C118.966 48.516 119.256 48.1007 119.396 47.578H120.432C120.245 48.3247 119.844 48.936 119.228 49.412C118.621 49.8787 117.856 50.112 116.932 50.112C116.213 50.112 115.569 49.9533 115 49.636C114.43 49.3093 113.982 48.852 113.656 48.264C113.338 47.6667 113.18 46.9713 113.18 46.178C113.18 45.3847 113.338 44.6893 113.656 44.092C113.973 43.4947 114.416 43.0373 114.986 42.72C115.555 42.4027 116.204 42.244 116.932 42.244C117.66 42.244 118.294 42.4027 118.836 42.72C119.386 43.0373 119.806 43.4667 120.096 44.008C120.394 44.54 120.544 45.1327 120.544 45.786ZM119.55 45.758C119.559 45.1887 119.442 44.7033 119.2 44.302C118.966 43.9007 118.644 43.5973 118.234 43.392C117.823 43.1867 117.375 43.084 116.89 43.084C116.162 43.084 115.541 43.3173 115.028 43.784C114.514 44.2507 114.23 44.9087 114.174 45.758H119.55ZM125.053 49.048L127.629 42.356H128.665L125.599 50H124.493L121.427 42.356H122.477L125.053 49.048ZM130.483 40.914C130.287 40.914 130.119 40.844 129.979 40.704C129.839 40.564 129.769 40.3913 129.769 40.186C129.769 39.9807 129.839 39.8127 129.979 39.682C130.119 39.542 130.287 39.472 130.483 39.472C130.679 39.472 130.847 39.542 130.987 39.682C131.127 39.8127 131.197 39.9807 131.197 40.186C131.197 40.3913 131.127 40.564 130.987 40.704C130.847 40.844 130.679 40.914 130.483 40.914ZM130.973 42.356V50H129.993V42.356H130.973ZM132.744 46.178C132.744 45.3847 132.903 44.694 133.22 44.106C133.538 43.5087 133.976 43.0513 134.536 42.734C135.096 42.4073 135.736 42.244 136.454 42.244C137.397 42.244 138.172 42.4773 138.778 42.944C139.394 43.4107 139.791 44.0453 139.968 44.848H138.918C138.788 44.2973 138.503 43.868 138.064 43.56C137.635 43.2427 137.098 43.084 136.454 43.084C135.941 43.084 135.479 43.2007 135.068 43.434C134.658 43.6673 134.331 44.0173 134.088 44.484C133.855 44.9413 133.738 45.506 133.738 46.178C133.738 46.85 133.855 47.4193 134.088 47.886C134.331 48.3527 134.658 48.7027 135.068 48.936C135.479 49.1693 135.941 49.286 136.454 49.286C137.098 49.286 137.635 49.132 138.064 48.824C138.503 48.5067 138.788 48.068 138.918 47.508H139.968C139.791 48.292 139.394 48.922 138.778 49.398C138.162 49.874 137.388 50.112 136.454 50.112C135.736 50.112 135.096 49.9533 134.536 49.636C133.976 49.3093 133.538 48.852 133.22 48.264C132.903 47.6667 132.744 46.9713 132.744 46.178ZM148.694 45.786C148.694 46.122 148.685 46.3787 148.666 46.556H142.324C142.352 47.1347 142.492 47.6293 142.744 48.04C142.996 48.4507 143.328 48.7633 143.738 48.978C144.149 49.1833 144.597 49.286 145.082 49.286C145.717 49.286 146.249 49.132 146.678 48.824C147.117 48.516 147.406 48.1007 147.546 47.578H148.582C148.396 48.3247 147.994 48.936 147.378 49.412C146.772 49.8787 146.006 50.112 145.082 50.112C144.364 50.112 143.72 49.9533 143.15 49.636C142.581 49.3093 142.133 48.852 141.806 48.264C141.489 47.6667 141.33 46.9713 141.33 46.178C141.33 45.3847 141.489 44.6893 141.806 44.092C142.124 43.4947 142.567 43.0373 143.136 42.72C143.706 42.4027 144.354 42.244 145.082 42.244C145.81 42.244 146.445 42.4027 146.986 42.72C147.537 43.0373 147.957 43.4667 148.246 44.008C148.545 44.54 148.694 45.1327 148.694 45.786ZM147.7 45.758C147.71 45.1887 147.593 44.7033 147.35 44.302C147.117 43.9007 146.795 43.5973 146.384 43.392C145.974 43.1867 145.526 43.084 145.04 43.084C144.312 43.084 143.692 43.3173 143.178 43.784C142.665 44.2507 142.38 44.9087 142.324 45.758H147.7ZM150.655 50.07C150.45 50.07 150.277 50 150.137 49.86C150.007 49.72 149.941 49.5473 149.941 49.342C149.941 49.1367 150.007 48.9687 150.137 48.838C150.277 48.698 150.45 48.628 150.655 48.628C150.851 48.628 151.015 48.698 151.145 48.838C151.285 48.9687 151.355 49.1367 151.355 49.342C151.355 49.5473 151.285 49.72 151.145 49.86C151.015 50 150.851 50.07 150.655 50.07ZM159.77 40.214C160.853 40.214 161.781 40.41 162.556 40.802C163.331 41.194 163.923 41.7587 164.334 42.496C164.745 43.2333 164.95 44.1107 164.95 45.128C164.95 46.136 164.745 47.0087 164.334 47.746C163.923 48.474 163.331 49.034 162.556 49.426C161.781 49.8087 160.853 50 159.77 50H156.872V40.214H159.77ZM159.77 49.188C161.133 49.188 162.169 48.8333 162.878 48.124C163.597 47.4053 163.956 46.4067 163.956 45.128C163.956 43.84 163.597 42.8367 162.878 42.118C162.169 41.39 161.133 41.026 159.77 41.026H157.852V49.188H159.77ZM170.103 50.112C169.384 50.112 168.735 49.9533 168.157 49.636C167.587 49.3093 167.135 48.852 166.799 48.264C166.472 47.6667 166.309 46.9713 166.309 46.178C166.309 45.3847 166.477 44.694 166.813 44.106C167.149 43.5087 167.606 43.0513 168.185 42.734C168.763 42.4073 169.412 42.244 170.131 42.244C170.849 42.244 171.498 42.4073 172.077 42.734C172.665 43.0513 173.122 43.5087 173.449 44.106C173.785 44.694 173.953 45.3847 173.953 46.178C173.953 46.962 173.785 47.6527 173.449 48.25C173.113 48.8473 172.651 49.3093 172.063 49.636C171.475 49.9533 170.821 50.112 170.103 50.112ZM170.103 49.258C170.607 49.258 171.073 49.146 171.503 48.922C171.932 48.6887 172.277 48.3433 172.539 47.886C172.809 47.4193 172.945 46.85 172.945 46.178C172.945 45.506 172.814 44.9413 172.553 44.484C172.291 44.0173 171.946 43.672 171.517 43.448C171.087 43.2147 170.621 43.098 170.117 43.098C169.613 43.098 169.146 43.2147 168.717 43.448C168.287 43.672 167.942 44.0173 167.681 44.484C167.429 44.9413 167.303 45.506 167.303 46.178C167.303 46.85 167.429 47.4193 167.681 47.886C167.942 48.3433 168.283 48.6887 168.703 48.922C169.132 49.146 169.599 49.258 170.103 49.258ZM180.071 40.914C179.875 40.914 179.707 40.844 179.567 40.704C179.427 40.564 179.357 40.3913 179.357 40.186C179.357 39.9807 179.427 39.8127 179.567 39.682C179.707 39.542 179.875 39.472 180.071 39.472C180.267 39.472 180.435 39.542 180.575 39.682C180.715 39.8127 180.785 39.9807 180.785 40.186C180.785 40.3913 180.715 40.564 180.575 40.704C180.435 40.844 180.267 40.914 180.071 40.914ZM180.561 42.356V50H179.581V42.356H180.561ZM184.054 43.182V47.928C184.054 48.3947 184.143 48.7167 184.32 48.894C184.497 49.0713 184.81 49.16 185.258 49.16H186.154V50H185.104C184.413 50 183.9 49.8413 183.564 49.524C183.228 49.1973 183.06 48.6653 183.06 47.928V43.182H181.996V42.356H183.06V40.438H184.054V42.356H186.154V43.182H184.054ZM192.578 44.05C192.83 43.518 193.218 43.084 193.74 42.748C194.272 42.412 194.898 42.244 195.616 42.244C196.316 42.244 196.942 42.4073 197.492 42.734C198.043 43.0513 198.472 43.5087 198.78 44.106C199.098 44.694 199.256 45.38 199.256 46.164C199.256 46.948 199.098 47.6387 198.78 48.236C198.472 48.8333 198.038 49.2953 197.478 49.622C196.928 49.9487 196.307 50.112 195.616 50.112C194.888 50.112 194.258 49.9487 193.726 49.622C193.204 49.286 192.821 48.852 192.578 48.32V50H191.612V39.64H192.578V44.05ZM198.262 46.164C198.262 45.5293 198.136 44.9833 197.884 44.526C197.642 44.0593 197.306 43.7047 196.876 43.462C196.447 43.2193 195.962 43.098 195.42 43.098C194.898 43.098 194.417 43.224 193.978 43.476C193.549 43.728 193.208 44.0873 192.956 44.554C192.704 45.0207 192.578 45.562 192.578 46.178C192.578 46.794 192.704 47.3353 192.956 47.802C193.208 48.2687 193.549 48.628 193.978 48.88C194.417 49.132 194.898 49.258 195.42 49.258C195.962 49.258 196.447 49.1367 196.876 48.894C197.306 48.642 197.642 48.2827 197.884 47.816C198.136 47.34 198.262 46.7893 198.262 46.164ZM207.975 45.786C207.975 46.122 207.966 46.3787 207.947 46.556H201.605C201.633 47.1347 201.773 47.6293 202.025 48.04C202.277 48.4507 202.609 48.7633 203.019 48.978C203.43 49.1833 203.878 49.286 204.363 49.286C204.998 49.286 205.53 49.132 205.959 48.824C206.398 48.516 206.687 48.1007 206.827 47.578H207.863C207.677 48.3247 207.275 48.936 206.659 49.412C206.053 49.8787 205.287 50.112 204.363 50.112C203.645 50.112 203.001 49.9533 202.431 49.636C201.862 49.3093 201.414 48.852 201.087 48.264C200.77 47.6667 200.611 46.9713 200.611 46.178C200.611 45.3847 200.77 44.6893 201.087 44.092C201.405 43.4947 201.848 43.0373 202.417 42.72C202.987 42.4027 203.635 42.244 204.363 42.244C205.091 42.244 205.726 42.4027 206.267 42.72C206.818 43.0373 207.238 43.4667 207.527 44.008C207.826 44.54 207.975 45.1327 207.975 45.786ZM206.981 45.758C206.991 45.1887 206.874 44.7033 206.631 44.302C206.398 43.9007 206.076 43.5973 205.665 43.392C205.255 43.1867 204.807 43.084 204.321 43.084C203.593 43.084 202.973 43.3173 202.459 43.784C201.946 44.2507 201.661 44.9087 201.605 45.758H206.981ZM211.042 43.182V47.928C211.042 48.3947 211.131 48.7167 211.308 48.894C211.486 49.0713 211.798 49.16 212.246 49.16H213.142V50H212.092C211.402 50 210.888 49.8413 210.552 49.524C210.216 49.1973 210.048 48.6653 210.048 47.928V43.182H208.984V42.356H210.048V40.438H211.042V42.356H213.142V43.182H211.042ZM216.033 43.182V47.928C216.033 48.3947 216.121 48.7167 216.299 48.894C216.476 49.0713 216.789 49.16 217.237 49.16H218.133V50H217.083C216.392 50 215.879 49.8413 215.543 49.524C215.207 49.1973 215.039 48.6653 215.039 47.928V43.182H213.975V42.356H215.039V40.438H216.033V42.356H218.133V43.182H216.033ZM226.665 45.786C226.665 46.122 226.656 46.3787 226.637 46.556H220.295C220.323 47.1347 220.463 47.6293 220.715 48.04C220.967 48.4507 221.298 48.7633 221.709 48.978C222.12 49.1833 222.568 49.286 223.053 49.286C223.688 49.286 224.22 49.132 224.649 48.824C225.088 48.516 225.377 48.1007 225.517 47.578H226.553C226.366 48.3247 225.965 48.936 225.349 49.412C224.742 49.8787 223.977 50.112 223.053 50.112C222.334 50.112 221.69 49.9533 221.121 49.636C220.552 49.3093 220.104 48.852 219.777 48.264C219.46 47.6667 219.301 46.9713 219.301 46.178C219.301 45.3847 219.46 44.6893 219.777 44.092C220.094 43.4947 220.538 43.0373 221.107 42.72C221.676 42.4027 222.325 42.244 223.053 42.244C223.781 42.244 224.416 42.4027 224.957 42.72C225.508 43.0373 225.928 43.4667 226.217 44.008C226.516 44.54 226.665 45.1327 226.665 45.786ZM225.671 45.758C225.68 45.1887 225.564 44.7033 225.321 44.302C225.088 43.9007 224.766 43.5973 224.355 43.392C223.944 43.1867 223.496 43.084 223.011 43.084C222.283 43.084 221.662 43.3173 221.149 43.784C220.636 44.2507 220.351 44.9087 220.295 45.758H225.671ZM229.438 43.714C229.653 43.238 229.979 42.8693 230.418 42.608C230.866 42.3467 231.412 42.216 232.056 42.216V43.238H231.79C231.081 43.238 230.511 43.4293 230.082 43.812C229.653 44.1947 229.438 44.834 229.438 45.73V50H228.458V42.356H229.438V43.714ZM17.086 65.05C17.338 64.518 17.7253 64.084 18.248 63.748C18.78 63.412 19.4053 63.244 20.124 63.244C20.824 63.244 21.4493 63.4073 22 63.734C22.5507 64.0513 22.98 64.5087 23.288 65.106C23.6053 65.694 23.764 66.38 23.764 67.164C23.764 67.948 23.6053 68.6387 23.288 69.236C22.98 69.8333 22.546 70.2953 21.986 70.622C21.4353 70.9487 20.8147 71.112 20.124 71.112C19.396 71.112 18.766 70.9487 18.234 70.622C17.7113 70.286 17.3287 69.852 17.086 69.32V71H16.12V60.64H17.086V65.05ZM22.77 67.164C22.77 66.5293 22.644 65.9833 22.392 65.526C22.1493 65.0593 21.8133 64.7047 21.384 64.462C20.9547 64.2193 20.4693 64.098 19.928 64.098C19.4053 64.098 18.9247 64.224 18.486 64.476C18.0567 64.728 17.716 65.0873 17.464 65.554C17.212 66.0207 17.086 66.562 17.086 67.178C17.086 67.794 17.212 68.3353 17.464 68.802C17.716 69.2687 18.0567 69.628 18.486 69.88C18.9247 70.132 19.4053 70.258 19.928 70.258C20.4693 70.258 20.9547 70.1367 21.384 69.894C21.8133 69.642 22.1493 69.2827 22.392 68.816C22.644 68.34 22.77 67.7893 22.77 67.164ZM31.8673 63.356L27.3313 74.598H26.3093L27.7933 70.958L24.6573 63.356H25.7353L28.3393 69.88L30.8593 63.356H31.8673ZM38.312 64.182V68.928C38.312 69.3947 38.4006 69.7167 38.578 69.894C38.7553 70.0713 39.068 70.16 39.516 70.16H40.412V71H39.362C38.6713 71 38.158 70.8413 37.822 70.524C37.486 70.1973 37.318 69.6653 37.318 68.928V64.182H36.254V63.356H37.318V61.438H38.312V63.356H40.412V64.182H38.312ZM45.6682 63.216C46.2469 63.216 46.7649 63.3373 47.2222 63.58C47.6889 63.8227 48.0529 64.196 48.3142 64.7C48.5849 65.1947 48.7202 65.8013 48.7202 66.52V71H47.7542V66.632C47.7542 65.8013 47.5442 65.1667 47.1242 64.728C46.7135 64.2893 46.1489 64.07 45.4302 64.07C44.6929 64.07 44.1049 64.3033 43.6662 64.77C43.2275 65.2367 43.0082 65.9227 43.0082 66.828V71H42.0282V60.64H43.0082V64.658C43.2509 64.2007 43.6055 63.846 44.0722 63.594C44.5482 63.342 45.0802 63.216 45.6682 63.216ZM51.3776 61.914C51.1816 61.914 51.0136 61.844 50.8736 61.704C50.7336 61.564 50.6636 61.3913 50.6636 61.186C50.6636 60.9807 50.7336 60.8127 50.8736 60.682C51.0136 60.542 51.1816 60.472 51.3776 60.472C51.5736 60.472 51.7416 60.542 51.8816 60.682C52.0216 60.8127 52.0916 60.9807 52.0916 61.186C52.0916 61.3913 52.0216 61.564 51.8816 61.704C51.7416 61.844 51.5736 61.914 51.3776 61.914ZM51.8676 63.356V71H50.8876V63.356H51.8676ZM57.6708 63.216C58.5855 63.216 59.3321 63.5007 59.9108 64.07C60.4895 64.63 60.7788 65.4467 60.7788 66.52V71H59.8128V66.632C59.8128 65.8013 59.6028 65.1667 59.1828 64.728C58.7721 64.2893 58.2075 64.07 57.4888 64.07C56.7515 64.07 56.1635 64.3033 55.7248 64.77C55.2861 65.2367 55.0668 65.9227 55.0668 66.828V71H54.0868V63.356H55.0668V64.658C55.3095 64.1913 55.6595 63.8367 56.1168 63.594C56.5741 63.342 57.0921 63.216 57.6708 63.216ZM67.0762 71L63.9262 67.57V71H62.9462V60.64H63.9262V66.772L67.0062 63.356H68.3782L64.7522 67.164L68.4062 71H67.0762ZM70.1627 61.914C69.9667 61.914 69.7987 61.844 69.6587 61.704C69.5187 61.564 69.4487 61.3913 69.4487 61.186C69.4487 60.9807 69.5187 60.8127 69.6587 60.682C69.7987 60.542 69.9667 60.472 70.1627 60.472C70.3587 60.472 70.5267 60.542 70.6667 60.682C70.8067 60.8127 70.8767 60.9807 70.8767 61.186C70.8767 61.3913 70.8067 61.564 70.6667 61.704C70.5267 61.844 70.3587 61.914 70.1627 61.914ZM70.6527 63.356V71H69.6727V63.356H70.6527ZM76.456 63.216C77.3706 63.216 78.1173 63.5007 78.696 64.07C79.2746 64.63 79.564 65.4467 79.564 66.52V71H78.598V66.632C78.598 65.8013 78.388 65.1667 77.968 64.728C77.5573 64.2893 76.9926 64.07 76.274 64.07C75.5366 64.07 74.9486 64.3033 74.51 64.77C74.0713 65.2367 73.852 65.9227 73.852 66.828V71H72.872V63.356H73.852V64.658C74.0946 64.1913 74.4446 63.8367 74.902 63.594C75.3593 63.342 75.8773 63.216 76.456 63.216ZM84.9373 63.244C85.656 63.244 86.2813 63.412 86.8133 63.748C87.3453 64.084 87.728 64.5087 87.9613 65.022V63.356H88.9413V71.196C88.9413 71.896 88.7873 72.5167 88.4793 73.058C88.1807 73.5993 87.7607 74.0147 87.2193 74.304C86.678 74.6027 86.062 74.752 85.3713 74.752C84.3913 74.752 83.5747 74.5187 82.9213 74.052C82.2773 73.5853 81.876 72.9507 81.7173 72.148H82.6833C82.8513 72.68 83.1687 73.1047 83.6353 73.422C84.1113 73.7393 84.69 73.898 85.3713 73.898C85.866 73.898 86.3093 73.7907 86.7013 73.576C87.0933 73.3707 87.4013 73.0627 87.6253 72.652C87.8493 72.2413 87.9613 71.756 87.9613 71.196V69.306C87.7187 69.8287 87.3313 70.2627 86.7993 70.608C86.2767 70.944 85.656 71.112 84.9373 71.112C84.2373 71.112 83.6073 70.9487 83.0473 70.622C82.4967 70.2953 82.0627 69.8333 81.7453 69.236C81.4373 68.6387 81.2833 67.948 81.2833 67.164C81.2833 66.38 81.4373 65.694 81.7453 65.106C82.0627 64.5087 82.4967 64.0513 83.0473 63.734C83.6073 63.4073 84.2373 63.244 84.9373 63.244ZM87.9613 67.178C87.9613 66.562 87.8353 66.0207 87.5833 65.554C87.3313 65.0873 86.986 64.728 86.5473 64.476C86.118 64.224 85.642 64.098 85.1193 64.098C84.578 64.098 84.0927 64.2193 83.6633 64.462C83.234 64.7047 82.8933 65.0593 82.6413 65.526C82.3987 65.9833 82.2773 66.5293 82.2773 67.164C82.2773 67.7893 82.3987 68.34 82.6413 68.816C82.8933 69.2827 83.234 69.642 83.6633 69.894C84.0927 70.1367 84.578 70.258 85.1193 70.258C85.642 70.258 86.118 70.132 86.5473 69.88C86.986 69.628 87.3313 69.2687 87.5833 68.802C87.8353 68.3353 87.9613 67.794 87.9613 67.178ZM94.5724 67.164C94.5724 66.38 94.7264 65.694 95.0344 65.106C95.3517 64.5087 95.7857 64.0513 96.3364 63.734C96.8964 63.4073 97.5264 63.244 98.2264 63.244C98.9544 63.244 99.5797 63.412 100.102 63.748C100.634 64.084 101.017 64.5133 101.25 65.036V63.356H102.23V71H101.25V69.306C101.008 69.8287 100.62 70.2627 100.088 70.608C99.5657 70.944 98.9404 71.112 98.2124 71.112C97.5217 71.112 96.8964 70.9487 96.3364 70.622C95.7857 70.2953 95.3517 69.8333 95.0344 69.236C94.7264 68.6387 94.5724 67.948 94.5724 67.164ZM101.25 67.178C101.25 66.562 101.124 66.0207 100.872 65.554C100.62 65.0873 100.275 64.728 99.8364 64.476C99.4071 64.224 98.9311 64.098 98.4084 64.098C97.8671 64.098 97.3817 64.2193 96.9524 64.462C96.5231 64.7047 96.1824 65.0593 95.9304 65.526C95.6877 65.9833 95.5664 66.5293 95.5664 67.164C95.5664 67.7893 95.6877 68.34 95.9304 68.816C96.1824 69.2827 96.5231 69.642 96.9524 69.894C97.3817 70.1367 97.8671 70.258 98.4084 70.258C98.9311 70.258 99.4071 70.132 99.8364 69.88C100.275 69.628 100.62 69.2687 100.872 68.802C101.124 68.3353 101.25 67.794 101.25 67.178ZM105.434 65.05C105.686 64.518 106.073 64.084 106.596 63.748C107.128 63.412 107.753 63.244 108.472 63.244C109.172 63.244 109.797 63.4073 110.348 63.734C110.898 64.0513 111.328 64.5087 111.636 65.106C111.953 65.694 112.112 66.38 112.112 67.164C112.112 67.948 111.953 68.6387 111.636 69.236C111.328 69.8333 110.894 70.2953 110.334 70.622C109.783 70.9487 109.162 71.112 108.472 71.112C107.744 71.112 107.114 70.9487 106.582 70.622C106.059 70.286 105.676 69.852 105.434 69.32V71H104.468V60.64H105.434V65.05ZM111.118 67.164C111.118 66.5293 110.992 65.9833 110.74 65.526C110.497 65.0593 110.161 64.7047 109.732 64.462C109.302 64.2193 108.817 64.098 108.276 64.098C107.753 64.098 107.272 64.224 106.834 64.476C106.404 64.728 106.064 65.0873 105.812 65.554C105.56 66.0207 105.434 66.562 105.434 67.178C105.434 67.794 105.56 68.3353 105.812 68.802C106.064 69.2687 106.404 69.628 106.834 69.88C107.272 70.132 107.753 70.258 108.276 70.258C108.817 70.258 109.302 70.1367 109.732 69.894C110.161 69.642 110.497 69.2827 110.74 68.816C110.992 68.34 111.118 67.7893 111.118 67.164ZM117.261 71.112C116.542 71.112 115.894 70.9533 115.315 70.636C114.746 70.3093 114.293 69.852 113.957 69.264C113.63 68.6667 113.467 67.9713 113.467 67.178C113.467 66.3847 113.635 65.694 113.971 65.106C114.307 64.5087 114.764 64.0513 115.343 63.734C115.922 63.4073 116.57 63.244 117.289 63.244C118.008 63.244 118.656 63.4073 119.235 63.734C119.823 64.0513 120.28 64.5087 120.607 65.106C120.943 65.694 121.111 66.3847 121.111 67.178C121.111 67.962 120.943 68.6527 120.607 69.25C120.271 69.8473 119.809 70.3093 119.221 70.636C118.633 70.9533 117.98 71.112 117.261 71.112ZM117.261 70.258C117.765 70.258 118.232 70.146 118.661 69.922C119.09 69.6887 119.436 69.3433 119.697 68.886C119.968 68.4193 120.103 67.85 120.103 67.178C120.103 66.506 119.972 65.9413 119.711 65.484C119.45 65.0173 119.104 64.672 118.675 64.448C118.246 64.2147 117.779 64.098 117.275 64.098C116.771 64.098 116.304 64.2147 115.875 64.448C115.446 64.672 115.1 65.0173 114.839 65.484C114.587 65.9413 114.461 66.506 114.461 67.178C114.461 67.85 114.587 68.4193 114.839 68.886C115.1 69.3433 115.441 69.6887 115.861 69.922C116.29 70.146 116.757 70.258 117.261 70.258ZM129.519 63.356V71H128.539V69.656C128.315 70.132 127.97 70.496 127.503 70.748C127.037 71 126.514 71.126 125.935 71.126C125.021 71.126 124.274 70.846 123.695 70.286C123.117 69.7167 122.827 68.8953 122.827 67.822V63.356H123.793V67.71C123.793 68.5407 123.999 69.1753 124.409 69.614C124.829 70.0527 125.399 70.272 126.117 70.272C126.855 70.272 127.443 70.0387 127.881 69.572C128.32 69.1053 128.539 68.4193 128.539 67.514V63.356H129.519ZM133.031 64.182V68.928C133.031 69.3947 133.119 69.7167 133.297 69.894C133.474 70.0713 133.787 70.16 134.235 70.16H135.131V71H134.081C133.39 71 132.877 70.8413 132.541 70.524C132.205 70.1973 132.037 69.6653 132.037 68.928V64.182H130.973V63.356H132.037V61.438H133.031V63.356H135.131V64.182H133.031ZM147.505 66.786C147.505 67.122 147.495 67.3787 147.477 67.556H141.135C141.163 68.1347 141.303 68.6293 141.555 69.04C141.807 69.4507 142.138 69.7633 142.549 69.978C142.959 70.1833 143.407 70.286 143.893 70.286C144.527 70.286 145.059 70.132 145.489 69.824C145.927 69.516 146.217 69.1007 146.357 68.578H147.393C147.206 69.3247 146.805 69.936 146.189 70.412C145.582 70.8787 144.817 71.112 143.893 71.112C143.174 71.112 142.53 70.9533 141.961 70.636C141.391 70.3093 140.943 69.852 140.617 69.264C140.299 68.6667 140.141 67.9713 140.141 67.178C140.141 66.3847 140.299 65.6893 140.617 65.092C140.934 64.4947 141.377 64.0373 141.947 63.72C142.516 63.4027 143.165 63.244 143.893 63.244C144.621 63.244 145.255 63.4027 145.797 63.72C146.347 64.0373 146.767 64.4667 147.057 65.008C147.355 65.54 147.505 66.1327 147.505 66.786ZM146.511 66.758C146.52 66.1887 146.403 65.7033 146.161 65.302C145.927 64.9007 145.605 64.5973 145.195 64.392C144.784 64.1867 144.336 64.084 143.851 64.084C143.123 64.084 142.502 64.3173 141.989 64.784C141.475 65.2507 141.191 65.9087 141.135 66.758H146.511ZM152.014 70.048L154.59 63.356H155.626L152.56 71H151.454L148.388 63.356H149.438L152.014 70.048ZM163.87 66.786C163.87 67.122 163.861 67.3787 163.842 67.556H157.5C157.528 68.1347 157.668 68.6293 157.92 69.04C158.172 69.4507 158.503 69.7633 158.914 69.978C159.325 70.1833 159.773 70.286 160.258 70.286C160.893 70.286 161.425 70.132 161.854 69.824C162.293 69.516 162.582 69.1007 162.722 68.578H163.758C163.571 69.3247 163.17 69.936 162.554 70.412C161.947 70.8787 161.182 71.112 160.258 71.112C159.539 71.112 158.895 70.9533 158.326 70.636C157.757 70.3093 157.309 69.852 156.982 69.264C156.665 68.6667 156.506 67.9713 156.506 67.178C156.506 66.3847 156.665 65.6893 156.982 65.092C157.299 64.4947 157.743 64.0373 158.312 63.72C158.881 63.4027 159.53 63.244 160.258 63.244C160.986 63.244 161.621 63.4027 162.162 63.72C162.713 64.0373 163.133 64.4667 163.422 65.008C163.721 65.54 163.87 66.1327 163.87 66.786ZM162.876 66.758C162.885 66.1887 162.769 65.7033 162.526 65.302C162.293 64.9007 161.971 64.5973 161.56 64.392C161.149 64.1867 160.701 64.084 160.216 64.084C159.488 64.084 158.867 64.3173 158.354 64.784C157.841 65.2507 157.556 65.9087 157.5 66.758H162.876ZM166.643 64.714C166.858 64.238 167.184 63.8693 167.623 63.608C168.071 63.3467 168.617 63.216 169.261 63.216V64.238H168.995C168.286 64.238 167.716 64.4293 167.287 64.812C166.858 65.1947 166.643 65.834 166.643 66.73V71H165.663V63.356H166.643V64.714ZM177.035 63.356L172.499 74.598H171.477L172.961 70.958L169.825 63.356H170.903L173.507 69.88L176.027 63.356H177.035ZM179.638 64.182V68.928C179.638 69.3947 179.727 69.7167 179.904 69.894C180.081 70.0713 180.394 70.16 180.842 70.16H181.738V71H180.688C179.997 71 179.484 70.8413 179.148 70.524C178.812 70.1973 178.644 69.6653 178.644 68.928V64.182H177.58V63.356H178.644V61.438H179.638V63.356H181.738V64.182H179.638ZM186.994 63.216C187.573 63.216 188.091 63.3373 188.548 63.58C189.015 63.8227 189.379 64.196 189.64 64.7C189.911 65.1947 190.046 65.8013 190.046 66.52V71H189.08V66.632C189.08 65.8013 188.87 65.1667 188.45 64.728C188.04 64.2893 187.475 64.07 186.756 64.07C186.019 64.07 185.431 64.3033 184.992 64.77C184.554 65.2367 184.334 65.9227 184.334 66.828V71H183.354V60.64H184.334V64.658C184.577 64.2007 184.932 63.846 185.398 63.594C185.874 63.342 186.406 63.216 186.994 63.216ZM192.704 61.914C192.508 61.914 192.34 61.844 192.2 61.704C192.06 61.564 191.99 61.3913 191.99 61.186C191.99 60.9807 192.06 60.8127 192.2 60.682C192.34 60.542 192.508 60.472 192.704 60.472C192.9 60.472 193.068 60.542 193.208 60.682C193.348 60.8127 193.418 60.9807 193.418 61.186C193.418 61.3913 193.348 61.564 193.208 61.704C193.068 61.844 192.9 61.914 192.704 61.914ZM193.194 63.356V71H192.214V63.356H193.194ZM198.997 63.216C199.912 63.216 200.658 63.5007 201.237 64.07C201.816 64.63 202.105 65.4467 202.105 66.52V71H201.139V66.632C201.139 65.8013 200.929 65.1667 200.509 64.728C200.098 64.2893 199.534 64.07 198.815 64.07C198.078 64.07 197.49 64.3033 197.051 64.77C196.612 65.2367 196.393 65.9227 196.393 66.828V71H195.413V63.356H196.393V64.658C196.636 64.1913 196.986 63.8367 197.443 63.594C197.9 63.342 198.418 63.216 198.997 63.216ZM207.478 63.244C208.197 63.244 208.822 63.412 209.354 63.748C209.886 64.084 210.269 64.5087 210.502 65.022V63.356H211.482V71.196C211.482 71.896 211.328 72.5167 211.02 73.058C210.722 73.5993 210.302 74.0147 209.76 74.304C209.219 74.6027 208.603 74.752 207.912 74.752C206.932 74.752 206.116 74.5187 205.462 74.052C204.818 73.5853 204.417 72.9507 204.258 72.148H205.224C205.392 72.68 205.71 73.1047 206.176 73.422C206.652 73.7393 207.231 73.898 207.912 73.898C208.407 73.898 208.85 73.7907 209.242 73.576C209.634 73.3707 209.942 73.0627 210.166 72.652C210.39 72.2413 210.502 71.756 210.502 71.196V69.306C210.26 69.8287 209.872 70.2627 209.34 70.608C208.818 70.944 208.197 71.112 207.478 71.112C206.778 71.112 206.148 70.9487 205.588 70.622C205.038 70.2953 204.604 69.8333 204.286 69.236C203.978 68.6387 203.824 67.948 203.824 67.164C203.824 66.38 203.978 65.694 204.286 65.106C204.604 64.5087 205.038 64.0513 205.588 63.734C206.148 63.4073 206.778 63.244 207.478 63.244ZM210.502 67.178C210.502 66.562 210.376 66.0207 210.124 65.554C209.872 65.0873 209.527 64.728 209.088 64.476C208.659 64.224 208.183 64.098 207.66 64.098C207.119 64.098 206.634 64.2193 206.204 64.462C205.775 64.7047 205.434 65.0593 205.182 65.526C204.94 65.9833 204.818 66.5293 204.818 67.164C204.818 67.7893 204.94 68.34 205.182 68.816C205.434 69.2827 205.775 69.642 206.204 69.894C206.634 70.1367 207.119 70.258 207.66 70.258C208.183 70.258 208.659 70.132 209.088 69.88C209.527 69.628 209.872 69.2687 210.124 68.802C210.376 68.3353 210.502 67.794 210.502 67.178ZM17.394 85.182V89.928C17.394 90.3947 17.4827 90.7167 17.66 90.894C17.8373 91.0713 18.15 91.16 18.598 91.16H19.494V92H18.444C17.7533 92 17.24 91.8413 16.904 91.524C16.568 91.1973 16.4 90.6653 16.4 89.928V85.182H15.336V84.356H16.4V82.438H17.394V84.356H19.494V85.182H17.394ZM24.7502 84.216C25.3289 84.216 25.8469 84.3373 26.3042 84.58C26.7709 84.8227 27.1349 85.196 27.3962 85.7C27.6669 86.1947 27.8022 86.8013 27.8022 87.52V92H26.8362V87.632C26.8362 86.8013 26.6262 86.1667 26.2062 85.728C25.7956 85.2893 25.2309 85.07 24.5122 85.07C23.7749 85.07 23.1869 85.3033 22.7482 85.77C22.3096 86.2367 22.0902 86.9227 22.0902 87.828V92H21.1102V81.64H22.0902V85.658C22.3329 85.2007 22.6876 84.846 23.1542 84.594C23.6302 84.342 24.1622 84.216 24.7502 84.216ZM29.5216 88.164C29.5216 87.38 29.6756 86.694 29.9836 86.106C30.3009 85.5087 30.7349 85.0513 31.2856 84.734C31.8456 84.4073 32.4756 84.244 33.1756 84.244C33.9036 84.244 34.5289 84.412 35.0516 84.748C35.5836 85.084 35.9663 85.5133 36.1996 86.036V84.356H37.1796V92H36.1996V90.306C35.9569 90.8287 35.5696 91.2627 35.0376 91.608C34.5149 91.944 33.8896 92.112 33.1616 92.112C32.4709 92.112 31.8456 91.9487 31.2856 91.622C30.7349 91.2953 30.3009 90.8333 29.9836 90.236C29.6756 89.6387 29.5216 88.948 29.5216 88.164ZM36.1996 88.178C36.1996 87.562 36.0736 87.0207 35.8216 86.554C35.5696 86.0873 35.2243 85.728 34.7856 85.476C34.3563 85.224 33.8803 85.098 33.3576 85.098C32.8163 85.098 32.3309 85.2193 31.9016 85.462C31.4723 85.7047 31.1316 86.0593 30.8796 86.526C30.6369 86.9833 30.5156 87.5293 30.5156 88.164C30.5156 88.7893 30.6369 89.34 30.8796 89.816C31.1316 90.2827 31.4723 90.642 31.9016 90.894C32.3309 91.1367 32.8163 91.258 33.3576 91.258C33.8803 91.258 34.3563 91.132 34.7856 90.88C35.2243 90.628 35.5696 90.2687 35.8216 89.802C36.0736 89.3353 36.1996 88.794 36.1996 88.178ZM40.6909 85.182V89.928C40.6909 90.3947 40.7795 90.7167 40.9569 90.894C41.1342 91.0713 41.4469 91.16 41.8949 91.16H42.7909V92H41.7409C41.0502 92 40.5369 91.8413 40.2009 91.524C39.8649 91.1973 39.6969 90.6653 39.6969 89.928V85.182H38.6329V84.356H39.6969V82.438H40.6909V84.356H42.7909V85.182H40.6909ZM47.8009 88.178C47.8009 87.3847 47.9596 86.694 48.2769 86.106C48.5942 85.5087 49.0329 85.0513 49.5929 84.734C50.1529 84.4073 50.7922 84.244 51.5109 84.244C52.4536 84.244 53.2282 84.4773 53.8349 84.944C54.4509 85.4107 54.8476 86.0453 55.0249 86.848H53.9749C53.8442 86.2973 53.5596 85.868 53.1209 85.56C52.6916 85.2427 52.1549 85.084 51.5109 85.084C50.9976 85.084 50.5356 85.2007 50.1249 85.434C49.7142 85.6673 49.3876 86.0173 49.1449 86.484C48.9116 86.9413 48.7949 87.506 48.7949 88.178C48.7949 88.85 48.9116 89.4193 49.1449 89.886C49.3876 90.3527 49.7142 90.7027 50.1249 90.936C50.5356 91.1693 50.9976 91.286 51.5109 91.286C52.1549 91.286 52.6916 91.132 53.1209 90.824C53.5596 90.5067 53.8442 90.068 53.9749 89.508H55.0249C54.8476 90.292 54.4509 90.922 53.8349 91.398C53.2189 91.874 52.4442 92.112 51.5109 92.112C50.7922 92.112 50.1529 91.9533 49.5929 91.636C49.0329 91.3093 48.5942 90.852 48.2769 90.264C47.9596 89.6667 47.8009 88.9713 47.8009 88.178ZM60.1808 92.112C59.4622 92.112 58.8135 91.9533 58.2348 91.636C57.6655 91.3093 57.2128 90.852 56.8768 90.264C56.5502 89.6667 56.3868 88.9713 56.3868 88.178C56.3868 87.3847 56.5548 86.694 56.8908 86.106C57.2268 85.5087 57.6842 85.0513 58.2628 84.734C58.8415 84.4073 59.4902 84.244 60.2088 84.244C60.9275 84.244 61.5762 84.4073 62.1548 84.734C62.7428 85.0513 63.2002 85.5087 63.5268 86.106C63.8628 86.694 64.0308 87.3847 64.0308 88.178C64.0308 88.962 63.8628 89.6527 63.5268 90.25C63.1908 90.8473 62.7288 91.3093 62.1408 91.636C61.5528 91.9533 60.8995 92.112 60.1808 92.112ZM60.1808 91.258C60.6848 91.258 61.1515 91.146 61.5808 90.922C62.0102 90.6887 62.3555 90.3433 62.6168 89.886C62.8875 89.4193 63.0228 88.85 63.0228 88.178C63.0228 87.506 62.8922 86.9413 62.6308 86.484C62.3695 86.0173 62.0242 85.672 61.5948 85.448C61.1655 85.2147 60.6988 85.098 60.1948 85.098C59.6908 85.098 59.2242 85.2147 58.7948 85.448C58.3655 85.672 58.0202 86.0173 57.7588 86.484C57.5068 86.9413 57.3808 87.506 57.3808 88.178C57.3808 88.85 57.5068 89.4193 57.7588 89.886C58.0202 90.3433 58.3608 90.6887 58.7808 90.922C59.2102 91.146 59.6768 91.258 60.1808 91.258ZM72.4393 84.356V92H71.4593V90.656C71.2353 91.132 70.8899 91.496 70.4233 91.748C69.9566 92 69.4339 92.126 68.8553 92.126C67.9406 92.126 67.1939 91.846 66.6153 91.286C66.0366 90.7167 65.7473 89.8953 65.7473 88.822V84.356H66.7133V88.71C66.7133 89.5407 66.9186 90.1753 67.3293 90.614C67.7493 91.0527 68.3186 91.272 69.0373 91.272C69.7746 91.272 70.3626 91.0387 70.8013 90.572C71.2399 90.1053 71.4593 89.4193 71.4593 88.514V84.356H72.4393ZM75.6566 81.64V92H74.6766V81.64H75.6566ZM77.4279 88.164C77.4279 87.38 77.5865 86.694 77.9039 86.106C78.2212 85.5087 78.6552 85.0513 79.2059 84.734C79.7659 84.4073 80.3959 84.244 81.0959 84.244C81.7679 84.244 82.3745 84.4073 82.9159 84.734C83.4572 85.0607 83.8539 85.4853 84.1059 86.008V81.64H85.0859V92H84.1059V90.292C83.8725 90.824 83.4899 91.2627 82.9579 91.608C82.4259 91.944 81.8005 92.112 81.0819 92.112C80.3819 92.112 79.7519 91.9487 79.1919 91.622C78.6412 91.2953 78.2072 90.8333 77.8899 90.236C77.5819 89.6387 77.4279 88.948 77.4279 88.164ZM84.1059 88.178C84.1059 87.562 83.9799 87.0207 83.7279 86.554C83.4759 86.0873 83.1305 85.728 82.6919 85.476C82.2625 85.224 81.7865 85.098 81.2639 85.098C80.7225 85.098 80.2372 85.2193 79.8079 85.462C79.3785 85.7047 79.0379 86.0593 78.7859 86.526C78.5432 86.9833 78.4219 87.5293 78.4219 88.164C78.4219 88.7893 78.5432 89.34 78.7859 89.816C79.0379 90.2827 79.3785 90.642 79.8079 90.894C80.2372 91.1367 80.7225 91.258 81.2639 91.258C81.7865 91.258 82.2625 91.132 82.6919 90.88C83.1305 90.628 83.4759 90.2687 83.7279 89.802C83.9799 89.3353 84.1059 88.794 84.1059 88.178ZM94.3709 84.244C95.0896 84.244 95.7149 84.412 96.2469 84.748C96.7789 85.084 97.1616 85.5087 97.3949 86.022V84.356H98.3749V92.196C98.3749 92.896 98.2209 93.5167 97.9129 94.058C97.6143 94.5993 97.1943 95.0147 96.6529 95.304C96.1116 95.6027 95.4956 95.752 94.8049 95.752C93.8249 95.752 93.0083 95.5187 92.3549 95.052C91.7109 94.5853 91.3096 93.9507 91.1509 93.148H92.1169C92.2849 93.68 92.6023 94.1047 93.0689 94.422C93.5449 94.7393 94.1236 94.898 94.8049 94.898C95.2996 94.898 95.7429 94.7907 96.1349 94.576C96.5269 94.3707 96.8349 94.0627 97.0589 93.652C97.2829 93.2413 97.3949 92.756 97.3949 92.196V90.306C97.1523 90.8287 96.7649 91.2627 96.2329 91.608C95.7103 91.944 95.0896 92.112 94.3709 92.112C93.6709 92.112 93.0409 91.9487 92.4809 91.622C91.9303 91.2953 91.4963 90.8333 91.1789 90.236C90.8709 89.6387 90.7169 88.948 90.7169 88.164C90.7169 87.38 90.8709 86.694 91.1789 86.106C91.4963 85.5087 91.9303 85.0513 92.4809 84.734C93.0409 84.4073 93.6709 84.244 94.3709 84.244ZM97.3949 88.178C97.3949 87.562 97.2689 87.0207 97.0169 86.554C96.7649 86.0873 96.4196 85.728 95.9809 85.476C95.5516 85.224 95.0756 85.098 94.5529 85.098C94.0116 85.098 93.5263 85.2193 93.0969 85.462C92.6676 85.7047 92.3269 86.0593 92.0749 86.526C91.8323 86.9833 91.7109 87.5293 91.7109 88.164C91.7109 88.7893 91.8323 89.34 92.0749 89.816C92.3269 90.2827 92.6676 90.642 93.0969 90.894C93.5263 91.1367 94.0116 91.258 94.5529 91.258C95.0756 91.258 95.5516 91.132 95.9809 90.88C96.4196 90.628 96.7649 90.2687 97.0169 89.802C97.2689 89.3353 97.3949 88.794 97.3949 88.178ZM103.958 92.112C103.24 92.112 102.591 91.9533 102.012 91.636C101.443 91.3093 100.99 90.852 100.654 90.264C100.328 89.6667 100.164 88.9713 100.164 88.178C100.164 87.3847 100.332 86.694 100.668 86.106C101.004 85.5087 101.462 85.0513 102.04 84.734C102.619 84.4073 103.268 84.244 103.986 84.244C104.705 84.244 105.354 84.4073 105.932 84.734C106.52 85.0513 106.978 85.5087 107.304 86.106C107.64 86.694 107.808 87.3847 107.808 88.178C107.808 88.962 107.64 89.6527 107.304 90.25C106.968 90.8473 106.506 91.3093 105.918 91.636C105.33 91.9533 104.677 92.112 103.958 92.112ZM103.958 91.258C104.462 91.258 104.929 91.146 105.358 90.922C105.788 90.6887 106.133 90.3433 106.394 89.886C106.665 89.4193 106.8 88.85 106.8 88.178C106.8 87.506 106.67 86.9413 106.408 86.484C106.147 86.0173 105.802 85.672 105.372 85.448C104.943 85.2147 104.476 85.098 103.972 85.098C103.468 85.098 103.002 85.2147 102.572 85.448C102.143 85.672 101.798 86.0173 101.536 86.484C101.284 86.9413 101.158 87.506 101.158 88.178C101.158 88.85 101.284 89.4193 101.536 89.886C101.798 90.3433 102.138 90.6887 102.558 90.922C102.988 91.146 103.454 91.258 103.958 91.258ZM123.516 84.356L121.122 92H120.142L118.028 85.588L115.914 92H114.92L112.526 84.356H113.52L115.424 91.006L117.566 84.356H118.546L120.66 91.02L122.55 84.356H123.516ZM125.832 85.714C126.047 85.238 126.374 84.8693 126.812 84.608C127.26 84.3467 127.806 84.216 128.45 84.216V85.238H128.184C127.475 85.238 126.906 85.4293 126.476 85.812C126.047 86.1947 125.832 86.834 125.832 87.73V92H124.852V84.356H125.832V85.714ZM133.271 92.112C132.552 92.112 131.903 91.9533 131.325 91.636C130.755 91.3093 130.303 90.852 129.967 90.264C129.64 89.6667 129.477 88.9713 129.477 88.178C129.477 87.3847 129.645 86.694 129.981 86.106C130.317 85.5087 130.774 85.0513 131.353 84.734C131.931 84.4073 132.58 84.244 133.299 84.244C134.017 84.244 134.666 84.4073 135.245 84.734C135.833 85.0513 136.29 85.5087 136.617 86.106C136.953 86.694 137.121 87.3847 137.121 88.178C137.121 88.962 136.953 89.6527 136.617 90.25C136.281 90.8473 135.819 91.3093 135.231 91.636C134.643 91.9533 133.989 92.112 133.271 92.112ZM133.271 91.258C133.775 91.258 134.241 91.146 134.671 90.922C135.1 90.6887 135.445 90.3433 135.707 89.886C135.977 89.4193 136.113 88.85 136.113 88.178C136.113 87.506 135.982 86.9413 135.721 86.484C135.459 86.0173 135.114 85.672 134.685 85.448C134.255 85.2147 133.789 85.098 133.285 85.098C132.781 85.098 132.314 85.2147 131.885 85.448C131.455 85.672 131.11 86.0173 130.849 86.484C130.597 86.9413 130.471 87.506 130.471 88.178C130.471 88.85 130.597 89.4193 130.849 89.886C131.11 90.3433 131.451 90.6887 131.871 90.922C132.3 91.146 132.767 91.258 133.271 91.258ZM142.491 84.216C143.406 84.216 144.152 84.5007 144.731 85.07C145.31 85.63 145.599 86.4467 145.599 87.52V92H144.633V87.632C144.633 86.8013 144.423 86.1667 144.003 85.728C143.592 85.2893 143.028 85.07 142.309 85.07C141.572 85.07 140.984 85.3033 140.545 85.77C140.106 86.2367 139.887 86.9227 139.887 87.828V92H138.907V84.356H139.887V85.658C140.13 85.1913 140.48 84.8367 140.937 84.594C141.394 84.342 141.912 84.216 142.491 84.216ZM150.972 84.244C151.691 84.244 152.316 84.412 152.848 84.748C153.38 85.084 153.763 85.5087 153.996 86.022V84.356H154.976V92.196C154.976 92.896 154.822 93.5167 154.514 94.058C154.216 94.5993 153.796 95.0147 153.254 95.304C152.713 95.6027 152.097 95.752 151.406 95.752C150.426 95.752 149.61 95.5187 148.956 95.052C148.312 94.5853 147.911 93.9507 147.752 93.148H148.718C148.886 93.68 149.204 94.1047 149.67 94.422C150.146 94.7393 150.725 94.898 151.406 94.898C151.901 94.898 152.344 94.7907 152.736 94.576C153.128 94.3707 153.436 94.0627 153.66 93.652C153.884 93.2413 153.996 92.756 153.996 92.196V90.306C153.754 90.8287 153.366 91.2627 152.834 91.608C152.312 91.944 151.691 92.112 150.972 92.112C150.272 92.112 149.642 91.9487 149.082 91.622C148.532 91.2953 148.098 90.8333 147.78 90.236C147.472 89.6387 147.318 88.948 147.318 88.164C147.318 87.38 147.472 86.694 147.78 86.106C148.098 85.5087 148.532 85.0513 149.082 84.734C149.642 84.4073 150.272 84.244 150.972 84.244ZM153.996 88.178C153.996 87.562 153.87 87.0207 153.618 86.554C153.366 86.0873 153.021 85.728 152.582 85.476C152.153 85.224 151.677 85.098 151.154 85.098C150.613 85.098 150.128 85.2193 149.698 85.462C149.269 85.7047 148.928 86.0593 148.676 86.526C148.434 86.9833 148.312 87.5293 148.312 88.164C148.312 88.7893 148.434 89.34 148.676 89.816C148.928 90.2827 149.269 90.642 149.698 90.894C150.128 91.1367 150.613 91.258 151.154 91.258C151.677 91.258 152.153 91.132 152.582 90.88C153.021 90.628 153.366 90.2687 153.618 89.802C153.87 89.3353 153.996 88.794 153.996 88.178ZM160.608 88.164C160.608 87.38 160.762 86.694 161.07 86.106C161.387 85.5087 161.821 85.0513 162.372 84.734C162.932 84.4073 163.562 84.244 164.262 84.244C164.99 84.244 165.615 84.412 166.138 84.748C166.67 85.084 167.052 85.5133 167.286 86.036V84.356H168.266V92H167.286V90.306C167.043 90.8287 166.656 91.2627 166.124 91.608C165.601 91.944 164.976 92.112 164.248 92.112C163.557 92.112 162.932 91.9487 162.372 91.622C161.821 91.2953 161.387 90.8333 161.07 90.236C160.762 89.6387 160.608 88.948 160.608 88.164ZM167.286 88.178C167.286 87.562 167.16 87.0207 166.908 86.554C166.656 86.0873 166.31 85.728 165.872 85.476C165.442 85.224 164.966 85.098 164.444 85.098C163.902 85.098 163.417 85.2193 162.988 85.462C162.558 85.7047 162.218 86.0593 161.966 86.526C161.723 86.9833 161.602 87.5293 161.602 88.164C161.602 88.7893 161.723 89.34 161.966 89.816C162.218 90.2827 162.558 90.642 162.988 90.894C163.417 91.1367 163.902 91.258 164.444 91.258C164.966 91.258 165.442 91.132 165.872 90.88C166.31 90.628 166.656 90.2687 166.908 89.802C167.16 89.3353 167.286 88.794 167.286 88.178ZM174.087 84.216C175.001 84.216 175.748 84.5007 176.327 85.07C176.905 85.63 177.195 86.4467 177.195 87.52V92H176.229V87.632C176.229 86.8013 176.019 86.1667 175.599 85.728C175.188 85.2893 174.623 85.07 173.905 85.07C173.167 85.07 172.579 85.3033 172.141 85.77C171.702 86.2367 171.483 86.9227 171.483 87.828V92H170.503V84.356H171.483V85.658C171.725 85.1913 172.075 84.8367 172.533 84.594C172.99 84.342 173.508 84.216 174.087 84.216ZM178.914 88.164C178.914 87.38 179.073 86.694 179.39 86.106C179.708 85.5087 180.142 85.0513 180.692 84.734C181.252 84.4073 181.882 84.244 182.582 84.244C183.254 84.244 183.861 84.4073 184.402 84.734C184.944 85.0607 185.34 85.4853 185.592 86.008V81.64H186.572V92H185.592V90.292C185.359 90.824 184.976 91.2627 184.444 91.608C183.912 91.944 183.287 92.112 182.568 92.112C181.868 92.112 181.238 91.9487 180.678 91.622C180.128 91.2953 179.694 90.8333 179.376 90.236C179.068 89.6387 178.914 88.948 178.914 88.164ZM185.592 88.178C185.592 87.562 185.466 87.0207 185.214 86.554C184.962 86.0873 184.617 85.728 184.178 85.476C183.749 85.224 183.273 85.098 182.75 85.098C182.209 85.098 181.724 85.2193 181.294 85.462C180.865 85.7047 180.524 86.0593 180.272 86.526C180.03 86.9833 179.908 87.5293 179.908 88.164C179.908 88.7893 180.03 89.34 180.272 89.816C180.524 90.2827 180.865 90.642 181.294 90.894C181.724 91.1367 182.209 91.258 182.75 91.258C183.273 91.258 183.749 91.132 184.178 90.88C184.617 90.628 184.962 90.2687 185.214 89.802C185.466 89.3353 185.592 88.794 185.592 88.178ZM195.283 92.112C194.406 92.112 193.687 91.9113 193.127 91.51C192.577 91.0993 192.269 90.544 192.203 89.844H193.211C193.258 90.2733 193.459 90.6233 193.813 90.894C194.177 91.1553 194.663 91.286 195.269 91.286C195.801 91.286 196.217 91.16 196.515 90.908C196.823 90.656 196.977 90.3433 196.977 89.97C196.977 89.7087 196.893 89.494 196.725 89.326C196.557 89.158 196.343 89.0273 196.081 88.934C195.829 88.8313 195.484 88.724 195.045 88.612C194.476 88.4627 194.014 88.3133 193.659 88.164C193.305 88.0147 193.001 87.7953 192.749 87.506C192.507 87.2073 192.385 86.8107 192.385 86.316C192.385 85.9427 192.497 85.5973 192.721 85.28C192.945 84.9627 193.263 84.7107 193.673 84.524C194.084 84.3373 194.551 84.244 195.073 84.244C195.895 84.244 196.557 84.454 197.061 84.874C197.565 85.2847 197.836 85.854 197.873 86.582H196.893C196.865 86.134 196.688 85.7747 196.361 85.504C196.044 85.224 195.605 85.084 195.045 85.084C194.551 85.084 194.149 85.2007 193.841 85.434C193.533 85.6673 193.379 85.9567 193.379 86.302C193.379 86.6007 193.468 86.848 193.645 87.044C193.832 87.2307 194.061 87.38 194.331 87.492C194.602 87.5947 194.966 87.7113 195.423 87.842C195.974 87.9913 196.413 88.136 196.739 88.276C197.066 88.416 197.346 88.6213 197.579 88.892C197.813 89.1627 197.934 89.522 197.943 89.97C197.943 90.3807 197.831 90.7493 197.607 91.076C197.383 91.3933 197.071 91.6453 196.669 91.832C196.268 92.0187 195.806 92.112 195.283 92.112ZM206.704 87.786C206.704 88.122 206.695 88.3787 206.676 88.556H200.334C200.362 89.1347 200.502 89.6293 200.754 90.04C201.006 90.4507 201.337 90.7633 201.748 90.978C202.159 91.1833 202.607 91.286 203.092 91.286C203.727 91.286 204.259 91.132 204.688 90.824C205.127 90.516 205.416 90.1007 205.556 89.578H206.592C206.405 90.3247 206.004 90.936 205.388 91.412C204.781 91.8787 204.016 92.112 203.092 92.112C202.373 92.112 201.729 91.9533 201.16 91.636C200.591 91.3093 200.143 90.852 199.816 90.264C199.499 89.6667 199.34 88.9713 199.34 88.178C199.34 87.3847 199.499 86.6893 199.816 86.092C200.133 85.4947 200.577 85.0373 201.146 84.72C201.715 84.4027 202.364 84.244 203.092 84.244C203.82 84.244 204.455 84.4027 204.996 84.72C205.547 85.0373 205.967 85.4667 206.256 86.008C206.555 86.54 206.704 87.1327 206.704 87.786ZM205.71 87.758C205.719 87.1887 205.603 86.7033 205.36 86.302C205.127 85.9007 204.805 85.5973 204.394 85.392C203.983 85.1867 203.535 85.084 203.05 85.084C202.322 85.084 201.701 85.3173 201.188 85.784C200.675 86.2507 200.39 86.9087 200.334 87.758H205.71ZM215.413 87.786C215.413 88.122 215.404 88.3787 215.385 88.556H209.043C209.071 89.1347 209.211 89.6293 209.463 90.04C209.715 90.4507 210.046 90.7633 210.457 90.978C210.868 91.1833 211.316 91.286 211.801 91.286C212.436 91.286 212.968 91.132 213.397 90.824C213.836 90.516 214.125 90.1007 214.265 89.578H215.301C215.114 90.3247 214.713 90.936 214.097 91.412C213.49 91.8787 212.725 92.112 211.801 92.112C211.082 92.112 210.438 91.9533 209.869 91.636C209.3 91.3093 208.852 90.852 208.525 90.264C208.208 89.6667 208.049 88.9713 208.049 88.178C208.049 87.3847 208.208 86.6893 208.525 86.092C208.842 85.4947 209.286 85.0373 209.855 84.72C210.424 84.4027 211.073 84.244 211.801 84.244C212.529 84.244 213.164 84.4027 213.705 84.72C214.256 85.0373 214.676 85.4667 214.965 86.008C215.264 86.54 215.413 87.1327 215.413 87.786ZM214.419 87.758C214.428 87.1887 214.312 86.7033 214.069 86.302C213.836 85.9007 213.514 85.5973 213.103 85.392C212.692 85.1867 212.244 85.084 211.759 85.084C211.031 85.084 210.41 85.3173 209.897 85.784C209.384 86.2507 209.099 86.9087 209.043 87.758H214.419ZM221.538 82.914C221.342 82.914 221.174 82.844 221.034 82.704C220.894 82.564 220.824 82.3913 220.824 82.186C220.824 81.9807 220.894 81.8127 221.034 81.682C221.174 81.542 221.342 81.472 221.538 81.472C221.734 81.472 221.902 81.542 222.042 81.682C222.182 81.8127 222.252 81.9807 222.252 82.186C222.252 82.3913 222.182 82.564 222.042 82.704C221.902 82.844 221.734 82.914 221.538 82.914ZM222.028 84.356V92H221.048V84.356H222.028ZM227.257 85.182H225.479V92H224.499V85.182H223.435V84.356H224.499V83.824C224.499 82.9933 224.709 82.382 225.129 81.99C225.558 81.598 226.249 81.402 227.201 81.402V82.242C226.566 82.242 226.118 82.3633 225.857 82.606C225.605 82.8487 225.479 83.2547 225.479 83.824V84.356H227.257V85.182ZM22.42 105.356L17.884 116.598H16.862L18.346 112.958L15.21 105.356H16.288L18.892 111.88L21.412 105.356H22.42ZM27.0949 113.112C26.3762 113.112 25.7276 112.953 25.1489 112.636C24.5796 112.309 24.1269 111.852 23.7909 111.264C23.4642 110.667 23.3009 109.971 23.3009 109.178C23.3009 108.385 23.4689 107.694 23.8049 107.106C24.1409 106.509 24.5982 106.051 25.1769 105.734C25.7556 105.407 26.4042 105.244 27.1229 105.244C27.8416 105.244 28.4902 105.407 29.0689 105.734C29.6569 106.051 30.1142 106.509 30.4409 107.106C30.7769 107.694 30.9449 108.385 30.9449 109.178C30.9449 109.962 30.7769 110.653 30.4409 111.25C30.1049 111.847 29.6429 112.309 29.0549 112.636C28.4669 112.953 27.8136 113.112 27.0949 113.112ZM27.0949 112.258C27.5989 112.258 28.0656 112.146 28.4949 111.922C28.9242 111.689 29.2696 111.343 29.5309 110.886C29.8016 110.419 29.9369 109.85 29.9369 109.178C29.9369 108.506 29.8062 107.941 29.5449 107.484C29.2836 107.017 28.9382 106.672 28.5089 106.448C28.0796 106.215 27.6129 106.098 27.1089 106.098C26.6049 106.098 26.1382 106.215 25.7089 106.448C25.2796 106.672 24.9342 107.017 24.6729 107.484C24.4209 107.941 24.2949 108.506 24.2949 109.178C24.2949 109.85 24.4209 110.419 24.6729 110.886C24.9342 111.343 25.2749 111.689 25.6949 111.922C26.1242 112.146 26.5909 112.258 27.0949 112.258ZM39.3533 105.356V113H38.3733V111.656C38.1493 112.132 37.804 112.496 37.3373 112.748C36.8707 113 36.348 113.126 35.7693 113.126C34.8547 113.126 34.108 112.846 33.5293 112.286C32.9507 111.717 32.6613 110.895 32.6613 109.822V105.356H33.6273V109.71C33.6273 110.541 33.8327 111.175 34.2433 111.614C34.6633 112.053 35.2327 112.272 35.9513 112.272C36.6887 112.272 37.2767 112.039 37.7153 111.572C38.154 111.105 38.3733 110.419 38.3733 109.514V105.356H39.3533ZM42.5707 106.714C42.7854 106.238 43.112 105.869 43.5507 105.608C43.9987 105.347 44.5447 105.216 45.1887 105.216V106.238H44.9227C44.2134 106.238 43.644 106.429 43.2147 106.812C42.7854 107.195 42.5707 107.834 42.5707 108.73V113H41.5907V105.356H42.5707V106.714ZM51.4708 107.036C51.7134 106.523 52.0961 106.098 52.6188 105.762C53.1508 105.417 53.7808 105.244 54.5088 105.244C55.1994 105.244 55.8201 105.407 56.3708 105.734C56.9308 106.051 57.3648 106.509 57.6728 107.106C57.9901 107.694 58.1488 108.38 58.1488 109.164C58.1488 109.948 57.9901 110.639 57.6728 111.236C57.3648 111.833 56.9308 112.295 56.3708 112.622C55.8201 112.949 55.1994 113.112 54.5088 113.112C53.7901 113.112 53.1648 112.944 52.6328 112.608C52.1008 112.263 51.7134 111.833 51.4708 111.32V116.612H50.5048V105.356H51.4708V107.036ZM57.1548 109.164C57.1548 108.529 57.0288 107.983 56.7768 107.526C56.5341 107.059 56.1981 106.705 55.7688 106.462C55.3394 106.219 54.8541 106.098 54.3128 106.098C53.7901 106.098 53.3094 106.224 52.8708 106.476C52.4414 106.728 52.1008 107.087 51.8488 107.554C51.5968 108.021 51.4708 108.562 51.4708 109.178C51.4708 109.794 51.5968 110.335 51.8488 110.802C52.1008 111.269 52.4414 111.628 52.8708 111.88C53.3094 112.132 53.7901 112.258 54.3128 112.258C54.8541 112.258 55.3394 112.137 55.7688 111.894C56.1981 111.642 56.5341 111.283 56.7768 110.816C57.0288 110.34 57.1548 109.789 57.1548 109.164ZM59.504 109.164C59.504 108.38 59.658 107.694 59.966 107.106C60.2834 106.509 60.7174 106.051 61.268 105.734C61.828 105.407 62.458 105.244 63.158 105.244C63.886 105.244 64.5114 105.412 65.034 105.748C65.566 106.084 65.9487 106.513 66.182 107.036V105.356H67.162V113H66.182V111.306C65.9394 111.829 65.552 112.263 65.02 112.608C64.4974 112.944 63.872 113.112 63.144 113.112C62.4534 113.112 61.828 112.949 61.268 112.622C60.7174 112.295 60.2834 111.833 59.966 111.236C59.658 110.639 59.504 109.948 59.504 109.164ZM66.182 109.178C66.182 108.562 66.056 108.021 65.804 107.554C65.552 107.087 65.2067 106.728 64.768 106.476C64.3387 106.224 63.8627 106.098 63.34 106.098C62.7987 106.098 62.3134 106.219 61.884 106.462C61.4547 106.705 61.114 107.059 60.862 107.526C60.6194 107.983 60.498 108.529 60.498 109.164C60.498 109.789 60.6194 110.34 60.862 110.816C61.114 111.283 61.4547 111.642 61.884 111.894C62.3134 112.137 62.7987 112.258 63.34 112.258C63.8627 112.258 64.3387 112.132 64.768 111.88C65.2067 111.628 65.552 111.269 65.804 110.802C66.056 110.335 66.182 109.794 66.182 109.178ZM70.3793 106.714C70.594 106.238 70.9206 105.869 71.3593 105.608C71.8073 105.347 72.3533 105.216 72.9973 105.216V106.238H72.7313C72.022 106.238 71.4526 106.429 71.0233 106.812C70.594 107.195 70.3793 107.834 70.3793 108.73V113H69.3993V105.356H70.3793V106.714ZM75.7456 106.182V110.928C75.7456 111.395 75.8342 111.717 76.0116 111.894C76.1889 112.071 76.5016 112.16 76.9496 112.16H77.8456V113H76.7956C76.1049 113 75.5916 112.841 75.2556 112.524C74.9196 112.197 74.7516 111.665 74.7516 110.928V106.182H73.6876V105.356H74.7516V103.438H75.7456V105.356H77.8456V106.182H75.7456ZM83.0458 105.216C83.9605 105.216 84.7071 105.501 85.2858 106.07C85.8645 106.63 86.1538 107.447 86.1538 108.52V113H85.1878V108.632C85.1878 107.801 84.9778 107.167 84.5578 106.728C84.1471 106.289 83.5825 106.07 82.8638 106.07C82.1265 106.07 81.5385 106.303 81.0998 106.77C80.6611 107.237 80.4418 107.923 80.4418 108.828V113H79.4618V105.356H80.4418V106.658C80.6845 106.191 81.0345 105.837 81.4918 105.594C81.9491 105.342 82.4671 105.216 83.0458 105.216ZM95.2372 108.786C95.2372 109.122 95.2278 109.379 95.2092 109.556H88.8672C88.8952 110.135 89.0352 110.629 89.2872 111.04C89.5392 111.451 89.8705 111.763 90.2812 111.978C90.6918 112.183 91.1398 112.286 91.6252 112.286C92.2598 112.286 92.7918 112.132 93.2212 111.824C93.6598 111.516 93.9492 111.101 94.0892 110.578H95.1252C94.9385 111.325 94.5372 111.936 93.9212 112.412C93.3145 112.879 92.5492 113.112 91.6252 113.112C90.9065 113.112 90.2625 112.953 89.6932 112.636C89.1238 112.309 88.6758 111.852 88.3492 111.264C88.0318 110.667 87.8732 109.971 87.8732 109.178C87.8732 108.385 88.0318 107.689 88.3492 107.092C88.6665 106.495 89.1098 106.037 89.6792 105.72C90.2485 105.403 90.8972 105.244 91.6252 105.244C92.3532 105.244 92.9878 105.403 93.5292 105.72C94.0798 106.037 94.4998 106.467 94.7892 107.008C95.0878 107.54 95.2372 108.133 95.2372 108.786ZM94.2432 108.758C94.2525 108.189 94.1358 107.703 93.8932 107.302C93.6598 106.901 93.3378 106.597 92.9272 106.392C92.5165 106.187 92.0685 106.084 91.5832 106.084C90.8552 106.084 90.2345 106.317 89.7212 106.784C89.2078 107.251 88.9232 107.909 88.8672 108.758H94.2432ZM98.0102 106.714C98.2248 106.238 98.5515 105.869 98.9902 105.608C99.4382 105.347 99.9842 105.216 100.628 105.216V106.238H100.362C99.6528 106.238 99.0835 106.429 98.6542 106.812C98.2248 107.195 98.0102 107.834 98.0102 108.73V113H97.0302V105.356H98.0102V106.714ZM104.734 113.112C103.857 113.112 103.138 112.911 102.578 112.51C102.028 112.099 101.72 111.544 101.654 110.844H102.662C102.709 111.273 102.91 111.623 103.264 111.894C103.628 112.155 104.114 112.286 104.72 112.286C105.252 112.286 105.668 112.16 105.966 111.908C106.274 111.656 106.428 111.343 106.428 110.97C106.428 110.709 106.344 110.494 106.176 110.326C106.008 110.158 105.794 110.027 105.532 109.934C105.28 109.831 104.935 109.724 104.496 109.612C103.927 109.463 103.465 109.313 103.11 109.164C102.756 109.015 102.452 108.795 102.2 108.506C101.958 108.207 101.836 107.811 101.836 107.316C101.836 106.943 101.948 106.597 102.172 106.28C102.396 105.963 102.714 105.711 103.124 105.524C103.535 105.337 104.002 105.244 104.524 105.244C105.346 105.244 106.008 105.454 106.512 105.874C107.016 106.285 107.287 106.854 107.324 107.582H106.344C106.316 107.134 106.139 106.775 105.812 106.504C105.495 106.224 105.056 106.084 104.496 106.084C104.002 106.084 103.6 106.201 103.292 106.434C102.984 106.667 102.83 106.957 102.83 107.302C102.83 107.601 102.919 107.848 103.096 108.044C103.283 108.231 103.512 108.38 103.782 108.492C104.053 108.595 104.417 108.711 104.874 108.842C105.425 108.991 105.864 109.136 106.19 109.276C106.517 109.416 106.797 109.621 107.03 109.892C107.264 110.163 107.385 110.522 107.394 110.97C107.394 111.381 107.282 111.749 107.058 112.076C106.834 112.393 106.522 112.645 106.12 112.832C105.719 113.019 105.257 113.112 104.734 113.112ZM112.633 109.164C112.633 108.38 112.787 107.694 113.095 107.106C113.412 106.509 113.846 106.051 114.397 105.734C114.957 105.407 115.587 105.244 116.287 105.244C117.015 105.244 117.64 105.412 118.163 105.748C118.695 106.084 119.078 106.513 119.311 107.036V105.356H120.291V113H119.311V111.306C119.068 111.829 118.681 112.263 118.149 112.608C117.626 112.944 117.001 113.112 116.273 113.112C115.582 113.112 114.957 112.949 114.397 112.622C113.846 112.295 113.412 111.833 113.095 111.236C112.787 110.639 112.633 109.948 112.633 109.164ZM119.311 109.178C119.311 108.562 119.185 108.021 118.933 107.554C118.681 107.087 118.336 106.728 117.897 106.476C117.468 106.224 116.992 106.098 116.469 106.098C115.928 106.098 115.442 106.219 115.013 106.462C114.584 106.705 114.243 107.059 113.991 107.526C113.748 107.983 113.627 108.529 113.627 109.164C113.627 109.789 113.748 110.34 113.991 110.816C114.243 111.283 114.584 111.642 115.013 111.894C115.442 112.137 115.928 112.258 116.469 112.258C116.992 112.258 117.468 112.132 117.897 111.88C118.336 111.628 118.681 111.269 118.933 110.802C119.185 110.335 119.311 109.794 119.311 109.178ZM125.734 105.244C126.453 105.244 127.078 105.412 127.61 105.748C128.142 106.084 128.525 106.509 128.758 107.022V105.356H129.738V113.196C129.738 113.896 129.584 114.517 129.276 115.058C128.978 115.599 128.558 116.015 128.016 116.304C127.475 116.603 126.859 116.752 126.168 116.752C125.188 116.752 124.372 116.519 123.718 116.052C123.074 115.585 122.673 114.951 122.514 114.148H123.48C123.648 114.68 123.966 115.105 124.432 115.422C124.908 115.739 125.487 115.898 126.168 115.898C126.663 115.898 127.106 115.791 127.498 115.576C127.89 115.371 128.198 115.063 128.422 114.652C128.646 114.241 128.758 113.756 128.758 113.196V111.306C128.516 111.829 128.128 112.263 127.596 112.608C127.074 112.944 126.453 113.112 125.734 113.112C125.034 113.112 124.404 112.949 123.844 112.622C123.294 112.295 122.86 111.833 122.542 111.236C122.234 110.639 122.08 109.948 122.08 109.164C122.08 108.38 122.234 107.694 122.542 107.106C122.86 106.509 123.294 106.051 123.844 105.734C124.404 105.407 125.034 105.244 125.734 105.244ZM128.758 109.178C128.758 108.562 128.632 108.021 128.38 107.554C128.128 107.087 127.783 106.728 127.344 106.476C126.915 106.224 126.439 106.098 125.916 106.098C125.375 106.098 124.89 106.219 124.46 106.462C124.031 106.705 123.69 107.059 123.438 107.526C123.196 107.983 123.074 108.529 123.074 109.164C123.074 109.789 123.196 110.34 123.438 110.816C123.69 111.283 124.031 111.642 124.46 111.894C124.89 112.137 125.375 112.258 125.916 112.258C126.439 112.258 126.915 112.132 127.344 111.88C127.783 111.628 128.128 111.269 128.38 110.802C128.632 110.335 128.758 109.794 128.758 109.178ZM132.955 106.714C133.17 106.238 133.497 105.869 133.935 105.608C134.383 105.347 134.929 105.216 135.573 105.216V106.238H135.307C134.598 106.238 134.029 106.429 133.599 106.812C133.17 107.195 132.955 107.834 132.955 108.73V113H131.975V105.356H132.955V106.714ZM143.964 108.786C143.964 109.122 143.954 109.379 143.936 109.556H137.594C137.622 110.135 137.762 110.629 138.014 111.04C138.266 111.451 138.597 111.763 139.008 111.978C139.418 112.183 139.866 112.286 140.352 112.286C140.986 112.286 141.518 112.132 141.948 111.824C142.386 111.516 142.676 111.101 142.816 110.578H143.852C143.665 111.325 143.264 111.936 142.648 112.412C142.041 112.879 141.276 113.112 140.352 113.112C139.633 113.112 138.989 112.953 138.42 112.636C137.85 112.309 137.402 111.852 137.076 111.264C136.758 110.667 136.6 109.971 136.6 109.178C136.6 108.385 136.758 107.689 137.076 107.092C137.393 106.495 137.836 106.037 138.406 105.72C138.975 105.403 139.624 105.244 140.352 105.244C141.08 105.244 141.714 105.403 142.256 105.72C142.806 106.037 143.226 106.467 143.516 107.008C143.814 107.54 143.964 108.133 143.964 108.786ZM142.97 108.758C142.979 108.189 142.862 107.703 142.62 107.302C142.386 106.901 142.064 106.597 141.654 106.392C141.243 106.187 140.795 106.084 140.31 106.084C139.582 106.084 138.961 106.317 138.448 106.784C137.934 107.251 137.65 107.909 137.594 108.758H142.97ZM152.673 108.786C152.673 109.122 152.663 109.379 152.645 109.556H146.303C146.331 110.135 146.471 110.629 146.723 111.04C146.975 111.451 147.306 111.763 147.717 111.978C148.127 112.183 148.575 112.286 149.061 112.286C149.695 112.286 150.227 112.132 150.657 111.824C151.095 111.516 151.385 111.101 151.525 110.578H152.561C152.374 111.325 151.973 111.936 151.357 112.412C150.75 112.879 149.985 113.112 149.061 113.112C148.342 113.112 147.698 112.953 147.129 112.636C146.559 112.309 146.111 111.852 145.785 111.264C145.467 110.667 145.309 109.971 145.309 109.178C145.309 108.385 145.467 107.689 145.785 107.092C146.102 106.495 146.545 106.037 147.115 105.72C147.684 105.403 148.333 105.244 149.061 105.244C149.789 105.244 150.423 105.403 150.965 105.72C151.515 106.037 151.935 106.467 152.225 107.008C152.523 107.54 152.673 108.133 152.673 108.786ZM151.679 108.758C151.688 108.189 151.571 107.703 151.329 107.302C151.095 106.901 150.773 106.597 150.363 106.392C149.952 106.187 149.504 106.084 149.019 106.084C148.291 106.084 147.67 106.317 147.157 106.784C146.643 107.251 146.359 107.909 146.303 108.758H151.679ZM154.634 113.07C154.428 113.07 154.256 113 154.116 112.86C153.985 112.72 153.92 112.547 153.92 112.342C153.92 112.137 153.985 111.969 154.116 111.838C154.256 111.698 154.428 111.628 154.634 111.628C154.83 111.628 154.993 111.698 155.124 111.838C155.264 111.969 155.334 112.137 155.334 112.342C155.334 112.547 155.264 112.72 155.124 112.86C154.993 113 154.83 113.07 154.634 113.07Z" fill="white"/>
</svg>
