<svg width="255" height="146" viewBox="0 0 255 146" fill="none" xmlns="http://www.w3.org/2000/svg">
<path d="M202.192 142.857C202.528 143.693 203.711 143.693 204.047 142.857L210.465 126.913C210.729 126.256 210.246 125.54 209.537 125.54L196.702 125.54C195.994 125.54 195.51 126.256 195.775 126.913L202.192 142.857Z" fill="#28C65C"/>
<rect width="255" height="132" rx="20" transform="matrix(-1 0 0 1 255 0)" fill="#28C65C"/>
<path d="M17.1 8.214V18H16.12V8.214H17.1ZM20.5932 11.182V15.928C20.5932 16.3947 20.6819 16.7167 20.8592 16.894C21.0366 17.0713 21.3492 17.16 21.7972 17.16H22.6932V18H21.6432C20.9526 18 20.4392 17.8413 20.1032 17.524C19.7672 17.1973 19.5992 16.6653 19.5992 15.928V11.182H18.5352V10.356H19.5992V8.438H20.5932V10.356H22.6932V11.182H20.5932ZM24.4355 8.214H25.5695L24.3375 11.238H23.6235L24.4355 8.214ZM29.7032 18.112C28.8258 18.112 28.1072 17.9113 27.5472 17.51C26.9965 17.0993 26.6885 16.544 26.6232 15.844H27.6312C27.6778 16.2733 27.8785 16.6233 28.2332 16.894C28.5972 17.1553 29.0825 17.286 29.6892 17.286C30.2212 17.286 30.6365 17.16 30.9352 16.908C31.2432 16.656 31.3972 16.3433 31.3972 15.97C31.3972 15.7087 31.3132 15.494 31.1452 15.326C30.9772 15.158 30.7625 15.0273 30.5012 14.934C30.2492 14.8313 29.9038 14.724 29.4652 14.612C28.8958 14.4627 28.4338 14.3133 28.0792 14.164C27.7245 14.0147 27.4212 13.7953 27.1692 13.506C26.9265 13.2073 26.8052 12.8107 26.8052 12.316C26.8052 11.9427 26.9172 11.5973 27.1412 11.28C27.3652 10.9627 27.6825 10.7107 28.0932 10.524C28.5038 10.3373 28.9705 10.244 29.4932 10.244C30.3145 10.244 30.9772 10.454 31.4812 10.874C31.9852 11.2847 32.2558 11.854 32.2932 12.582H31.3132C31.2852 12.134 31.1078 11.7747 30.7812 11.504C30.4638 11.224 30.0252 11.084 29.4652 11.084C28.9705 11.084 28.5692 11.2007 28.2612 11.434C27.9532 11.6673 27.7992 11.9567 27.7992 12.302C27.7992 12.6007 27.8878 12.848 28.0652 13.044C28.2518 13.2307 28.4805 13.38 28.7512 13.492C29.0218 13.5947 29.3858 13.7113 29.8432 13.842C30.3938 13.9913 30.8325 14.136 31.1592 14.276C31.4858 14.416 31.7658 14.6213 31.9992 14.892C32.2325 15.1627 32.3538 15.522 32.3632 15.97C32.3632 16.3807 32.2512 16.7493 32.0272 17.076C31.8032 17.3933 31.4905 17.6453 31.0892 17.832C30.6878 18.0187 30.2258 18.112 29.7032 18.112ZM38.5397 8.914C38.3437 8.914 38.1757 8.844 38.0357 8.704C37.8957 8.564 37.8257 8.39133 37.8257 8.186C37.8257 7.98067 37.8957 7.81267 38.0357 7.682C38.1757 7.542 38.3437 7.472 38.5397 7.472C38.7357 7.472 38.9037 7.542 39.0437 7.682C39.1837 7.81267 39.2537 7.98067 39.2537 8.186C39.2537 8.39133 39.1837 8.564 39.0437 8.704C38.9037 8.844 38.7357 8.914 38.5397 8.914ZM39.0297 10.356V18H38.0497V10.356H39.0297ZM50.3489 10.216C51.2449 10.216 51.9729 10.5007 52.5329 11.07C53.1022 11.63 53.3869 12.4467 53.3869 13.52V18H52.4209V13.632C52.4209 12.8013 52.2202 12.1667 51.8189 11.728C51.4176 11.2893 50.8716 11.07 50.1809 11.07C49.4622 11.07 48.8882 11.308 48.4589 11.784C48.0296 12.26 47.8149 12.9507 47.8149 13.856V18H46.8489V13.632C46.8489 12.8013 46.6482 12.1667 46.2469 11.728C45.8456 11.2893 45.2949 11.07 44.5949 11.07C43.8762 11.07 43.3022 11.308 42.8729 11.784C42.4436 12.26 42.2289 12.9507 42.2289 13.856V18H41.2489V10.356H42.2289V11.672C42.4716 11.196 42.8169 10.8367 43.2649 10.594C43.7129 10.342 44.2122 10.216 44.7629 10.216C45.4256 10.216 46.0042 10.3747 46.4989 10.692C47.0029 11.0093 47.3669 11.476 47.5909 12.092C47.7962 11.4853 48.1462 11.0233 48.6409 10.706C49.1449 10.3793 49.7142 10.216 50.3489 10.216ZM56.5294 12.036C56.772 11.5227 57.1547 11.098 57.6774 10.762C58.2094 10.4167 58.8394 10.244 59.5674 10.244C60.258 10.244 60.8787 10.4073 61.4294 10.734C61.9894 11.0513 62.4234 11.5087 62.7314 12.106C63.0487 12.694 63.2074 13.38 63.2074 14.164C63.2074 14.948 63.0487 15.6387 62.7314 16.236C62.4234 16.8333 61.9894 17.2953 61.4294 17.622C60.8787 17.9487 60.258 18.112 59.5674 18.112C58.8487 18.112 58.2234 17.944 57.6914 17.608C57.1594 17.2627 56.772 16.8333 56.5294 16.32V21.612H55.5634V10.356H56.5294V12.036ZM62.2134 14.164C62.2134 13.5293 62.0874 12.9833 61.8354 12.526C61.5927 12.0593 61.2567 11.7047 60.8274 11.462C60.398 11.2193 59.9127 11.098 59.3714 11.098C58.8487 11.098 58.368 11.224 57.9294 11.476C57.5 11.728 57.1594 12.0873 56.9074 12.554C56.6554 13.0207 56.5294 13.562 56.5294 14.178C56.5294 14.794 56.6554 15.3353 56.9074 15.802C57.1594 16.2687 57.5 16.628 57.9294 16.88C58.368 17.132 58.8487 17.258 59.3714 17.258C59.9127 17.258 60.398 17.1367 60.8274 16.894C61.2567 16.642 61.5927 16.2827 61.8354 15.816C62.0874 15.34 62.2134 14.7893 62.2134 14.164ZM68.3566 18.112C67.638 18.112 66.9893 17.9533 66.4106 17.636C65.8413 17.3093 65.3886 16.852 65.0526 16.264C64.726 15.6667 64.5626 14.9713 64.5626 14.178C64.5626 13.3847 64.7306 12.694 65.0666 12.106C65.4026 11.5087 65.86 11.0513 66.4386 10.734C67.0173 10.4073 67.666 10.244 68.3846 10.244C69.1033 10.244 69.752 10.4073 70.3306 10.734C70.9186 11.0513 71.376 11.5087 71.7026 12.106C72.0386 12.694 72.2066 13.3847 72.2066 14.178C72.2066 14.962 72.0386 15.6527 71.7026 16.25C71.3666 16.8473 70.9046 17.3093 70.3166 17.636C69.7286 17.9533 69.0753 18.112 68.3566 18.112ZM68.3566 17.258C68.8606 17.258 69.3273 17.146 69.7566 16.922C70.186 16.6887 70.5313 16.3433 70.7926 15.886C71.0633 15.4193 71.1986 14.85 71.1986 14.178C71.1986 13.506 71.068 12.9413 70.8066 12.484C70.5453 12.0173 70.2 11.672 69.7706 11.448C69.3413 11.2147 68.8746 11.098 68.3706 11.098C67.8666 11.098 67.4 11.2147 66.9706 11.448C66.5413 11.672 66.196 12.0173 65.9346 12.484C65.6826 12.9413 65.5566 13.506 65.5566 14.178C65.5566 14.85 65.6826 15.4193 65.9346 15.886C66.196 16.3433 66.5366 16.6887 66.9566 16.922C67.386 17.146 67.8526 17.258 68.3566 17.258ZM74.973 11.714C75.1877 11.238 75.5144 10.8693 75.953 10.608C76.401 10.3467 76.947 10.216 77.591 10.216V11.238H77.325C76.6157 11.238 76.0464 11.4293 75.617 11.812C75.1877 12.1947 74.973 12.834 74.973 13.73V18H73.993V10.356H74.973V11.714ZM80.3393 11.182V15.928C80.3393 16.3947 80.428 16.7167 80.6053 16.894C80.7826 17.0713 81.0953 17.16 81.5433 17.16H82.4393V18H81.3893C80.6986 18 80.1853 17.8413 79.8493 17.524C79.5133 17.1973 79.3453 16.6653 79.3453 15.928V11.182H78.2813V10.356H79.3453V8.438H80.3393V10.356H82.4393V11.182H80.3393ZM83.6075 14.164C83.6075 13.38 83.7615 12.694 84.0695 12.106C84.3869 11.5087 84.8209 11.0513 85.3715 10.734C85.9315 10.4073 86.5615 10.244 87.2615 10.244C87.9895 10.244 88.6149 10.412 89.1375 10.748C89.6695 11.084 90.0522 11.5133 90.2855 12.036V10.356H91.2655V18H90.2855V16.306C90.0429 16.8287 89.6555 17.2627 89.1235 17.608C88.6009 17.944 87.9755 18.112 87.2475 18.112C86.5569 18.112 85.9315 17.9487 85.3715 17.622C84.8209 17.2953 84.3869 16.8333 84.0695 16.236C83.7615 15.6387 83.6075 14.948 83.6075 14.164ZM90.2855 14.178C90.2855 13.562 90.1595 13.0207 89.9075 12.554C89.6555 12.0873 89.3102 11.728 88.8715 11.476C88.4422 11.224 87.9662 11.098 87.4435 11.098C86.9022 11.098 86.4169 11.2193 85.9875 11.462C85.5582 11.7047 85.2175 12.0593 84.9655 12.526C84.7229 12.9833 84.6015 13.5293 84.6015 14.164C84.6015 14.7893 84.7229 15.34 84.9655 15.816C85.2175 16.2827 85.5582 16.642 85.9875 16.894C86.4169 17.1367 86.9022 17.258 87.4435 17.258C87.9662 17.258 88.4422 17.132 88.8715 16.88C89.3102 16.628 89.6555 16.2687 89.9075 15.802C90.1595 15.3353 90.2855 14.794 90.2855 14.178ZM97.0868 10.216C98.0015 10.216 98.7481 10.5007 99.3268 11.07C99.9055 11.63 100.195 12.4467 100.195 13.52V18H99.2288V13.632C99.2288 12.8013 99.0188 12.1667 98.5988 11.728C98.1881 11.2893 97.6235 11.07 96.9048 11.07C96.1675 11.07 95.5795 11.3033 95.1408 11.77C94.7021 12.2367 94.4828 12.9227 94.4828 13.828V18H93.5028V10.356H94.4828V11.658C94.7255 11.1913 95.0755 10.8367 95.5328 10.594C95.9901 10.342 96.5081 10.216 97.0868 10.216ZM103.636 11.182V15.928C103.636 16.3947 103.725 16.7167 103.902 16.894C104.08 17.0713 104.392 17.16 104.84 17.16H105.736V18H104.686C103.996 18 103.482 17.8413 103.146 17.524C102.81 17.1973 102.642 16.6653 102.642 15.928V11.182H101.578V10.356H102.642V8.438H103.636V10.356H105.736V11.182H103.636ZM112.468 11.182V15.928C112.468 16.3947 112.557 16.7167 112.734 16.894C112.912 17.0713 113.224 17.16 113.672 17.16H114.568V18H113.518C112.828 18 112.314 17.8413 111.978 17.524C111.642 17.1973 111.474 16.6653 111.474 15.928V11.182H110.41V10.356H111.474V8.438H112.468V10.356H114.568V11.182H112.468ZM119.53 18.112C118.812 18.112 118.163 17.9533 117.584 17.636C117.015 17.3093 116.562 16.852 116.226 16.264C115.9 15.6667 115.736 14.9713 115.736 14.178C115.736 13.3847 115.904 12.694 116.24 12.106C116.576 11.5087 117.034 11.0513 117.612 10.734C118.191 10.4073 118.84 10.244 119.558 10.244C120.277 10.244 120.926 10.4073 121.504 10.734C122.092 11.0513 122.55 11.5087 122.876 12.106C123.212 12.694 123.38 13.3847 123.38 14.178C123.38 14.962 123.212 15.6527 122.876 16.25C122.54 16.8473 122.078 17.3093 121.49 17.636C120.902 17.9533 120.249 18.112 119.53 18.112ZM119.53 17.258C120.034 17.258 120.501 17.146 120.93 16.922C121.36 16.6887 121.705 16.3433 121.966 15.886C122.237 15.4193 122.372 14.85 122.372 14.178C122.372 13.506 122.242 12.9413 121.98 12.484C121.719 12.0173 121.374 11.672 120.944 11.448C120.515 11.2147 120.048 11.098 119.544 11.098C119.04 11.098 118.574 11.2147 118.144 11.448C117.715 11.672 117.37 12.0173 117.108 12.484C116.856 12.9413 116.73 13.506 116.73 14.178C116.73 14.85 116.856 15.4193 117.108 15.886C117.37 16.3433 117.71 16.6887 118.13 16.922C118.56 17.146 119.026 17.258 119.53 17.258ZM132.649 10.216C133.227 10.216 133.745 10.3373 134.203 10.58C134.669 10.8227 135.033 11.196 135.295 11.7C135.565 12.1947 135.701 12.8013 135.701 13.52V18H134.735V13.632C134.735 12.8013 134.525 12.1667 134.105 11.728C133.694 11.2893 133.129 11.07 132.411 11.07C131.673 11.07 131.085 11.3033 130.647 11.77C130.208 12.2367 129.989 12.9227 129.989 13.828V18H129.009V7.64H129.989V11.658C130.231 11.2007 130.586 10.846 131.053 10.594C131.529 10.342 132.061 10.216 132.649 10.216ZM137.42 14.164C137.42 13.38 137.574 12.694 137.882 12.106C138.199 11.5087 138.633 11.0513 139.184 10.734C139.744 10.4073 140.374 10.244 141.074 10.244C141.802 10.244 142.427 10.412 142.95 10.748C143.482 11.084 143.865 11.5133 144.098 12.036V10.356H145.078V18H144.098V16.306C143.855 16.8287 143.468 17.2627 142.936 17.608C142.413 17.944 141.788 18.112 141.06 18.112C140.369 18.112 139.744 17.9487 139.184 17.622C138.633 17.2953 138.199 16.8333 137.882 16.236C137.574 15.6387 137.42 14.948 137.42 14.164ZM144.098 14.178C144.098 13.562 143.972 13.0207 143.72 12.554C143.468 12.0873 143.123 11.728 142.684 11.476C142.255 11.224 141.779 11.098 141.256 11.098C140.715 11.098 140.229 11.2193 139.8 11.462C139.371 11.7047 139.03 12.0593 138.778 12.526C138.535 12.9833 138.414 13.5293 138.414 14.164C138.414 14.7893 138.535 15.34 138.778 15.816C139.03 16.2827 139.371 16.642 139.8 16.894C140.229 17.1367 140.715 17.258 141.256 17.258C141.779 17.258 142.255 17.132 142.684 16.88C143.123 16.628 143.468 16.2687 143.72 15.802C143.972 15.3353 144.098 14.794 144.098 14.178ZM150.031 17.048L152.607 10.356H153.643L150.577 18H149.471L146.405 10.356H147.455L150.031 17.048ZM161.888 13.786C161.888 14.122 161.878 14.3787 161.86 14.556H155.518C155.546 15.1347 155.686 15.6293 155.938 16.04C156.19 16.4507 156.521 16.7633 156.932 16.978C157.342 17.1833 157.79 17.286 158.276 17.286C158.91 17.286 159.442 17.132 159.872 16.824C160.31 16.516 160.6 16.1007 160.74 15.578H161.776C161.589 16.3247 161.188 16.936 160.572 17.412C159.965 17.8787 159.2 18.112 158.276 18.112C157.557 18.112 156.913 17.9533 156.344 17.636C155.774 17.3093 155.326 16.852 155 16.264C154.682 15.6667 154.524 14.9713 154.524 14.178C154.524 13.3847 154.682 12.6893 155 12.092C155.317 11.4947 155.76 11.0373 156.33 10.72C156.899 10.4027 157.548 10.244 158.276 10.244C159.004 10.244 159.638 10.4027 160.18 10.72C160.73 11.0373 161.15 11.4667 161.44 12.008C161.738 12.54 161.888 13.1327 161.888 13.786ZM160.894 13.758C160.903 13.1887 160.786 12.7033 160.544 12.302C160.31 11.9007 159.988 11.5973 159.578 11.392C159.167 11.1867 158.719 11.084 158.234 11.084C157.506 11.084 156.885 11.3173 156.372 11.784C155.858 12.2507 155.574 12.9087 155.518 13.758H160.894ZM167.074 14.164C167.074 13.38 167.228 12.694 167.536 12.106C167.854 11.5087 168.288 11.0513 168.838 10.734C169.398 10.4073 170.028 10.244 170.728 10.244C171.456 10.244 172.082 10.412 172.604 10.748C173.136 11.084 173.519 11.5133 173.752 12.036V10.356H174.732V18H173.752V16.306C173.51 16.8287 173.122 17.2627 172.59 17.608C172.068 17.944 171.442 18.112 170.714 18.112C170.024 18.112 169.398 17.9487 168.838 17.622C168.288 17.2953 167.854 16.8333 167.536 16.236C167.228 15.6387 167.074 14.948 167.074 14.164ZM173.752 14.178C173.752 13.562 173.626 13.0207 173.374 12.554C173.122 12.0873 172.777 11.728 172.338 11.476C171.909 11.224 171.433 11.098 170.91 11.098C170.369 11.098 169.884 11.2193 169.454 11.462C169.025 11.7047 168.684 12.0593 168.432 12.526C168.19 12.9833 168.068 13.5293 168.068 14.164C168.068 14.7893 168.19 15.34 168.432 15.816C168.684 16.2827 169.025 16.642 169.454 16.894C169.884 17.1367 170.369 17.258 170.91 17.258C171.433 17.258 171.909 17.132 172.338 16.88C172.777 16.628 173.122 16.2687 173.374 15.802C173.626 15.3353 173.752 14.794 173.752 14.178ZM181.777 12.036C182.02 11.5227 182.403 11.098 182.925 10.762C183.457 10.4167 184.087 10.244 184.815 10.244C185.506 10.244 186.127 10.4073 186.677 10.734C187.237 11.0513 187.671 11.5087 187.979 12.106C188.297 12.694 188.455 13.38 188.455 14.164C188.455 14.948 188.297 15.6387 187.979 16.236C187.671 16.8333 187.237 17.2953 186.677 17.622C186.127 17.9487 185.506 18.112 184.815 18.112C184.097 18.112 183.471 17.944 182.939 17.608C182.407 17.2627 182.02 16.8333 181.777 16.32V21.612H180.811V10.356H181.777V12.036ZM187.461 14.164C187.461 13.5293 187.335 12.9833 187.083 12.526C186.841 12.0593 186.505 11.7047 186.075 11.462C185.646 11.2193 185.161 11.098 184.619 11.098C184.097 11.098 183.616 11.224 183.177 11.476C182.748 11.728 182.407 12.0873 182.155 12.554C181.903 13.0207 181.777 13.562 181.777 14.178C181.777 14.794 181.903 15.3353 182.155 15.802C182.407 16.2687 182.748 16.628 183.177 16.88C183.616 17.132 184.097 17.258 184.619 17.258C185.161 17.258 185.646 17.1367 186.075 16.894C186.505 16.642 186.841 16.2827 187.083 15.816C187.335 15.34 187.461 14.7893 187.461 14.164ZM191.239 7.64V18H190.259V7.64H191.239ZM193.01 14.164C193.01 13.38 193.164 12.694 193.472 12.106C193.789 11.5087 194.223 11.0513 194.774 10.734C195.334 10.4073 195.964 10.244 196.664 10.244C197.392 10.244 198.017 10.412 198.54 10.748C199.072 11.084 199.455 11.5133 199.688 12.036V10.356H200.668V18H199.688V16.306C199.445 16.8287 199.058 17.2627 198.526 17.608C198.003 17.944 197.378 18.112 196.65 18.112C195.959 18.112 195.334 17.9487 194.774 17.622C194.223 17.2953 193.789 16.8333 193.472 16.236C193.164 15.6387 193.01 14.948 193.01 14.164ZM199.688 14.178C199.688 13.562 199.562 13.0207 199.31 12.554C199.058 12.0873 198.713 11.728 198.274 11.476C197.845 11.224 197.369 11.098 196.846 11.098C196.305 11.098 195.819 11.2193 195.39 11.462C194.961 11.7047 194.62 12.0593 194.368 12.526C194.125 12.9833 194.004 13.5293 194.004 14.164C194.004 14.7893 194.125 15.34 194.368 15.816C194.62 16.2827 194.961 16.642 195.39 16.894C195.819 17.1367 196.305 17.258 196.846 17.258C197.369 17.258 197.845 17.132 198.274 16.88C198.713 16.628 199.058 16.2687 199.31 15.802C199.562 15.3353 199.688 14.794 199.688 14.178ZM206.489 10.216C207.404 10.216 208.15 10.5007 208.729 11.07C209.308 11.63 209.597 12.4467 209.597 13.52V18H208.631V13.632C208.631 12.8013 208.421 12.1667 208.001 11.728C207.59 11.2893 207.026 11.07 206.307 11.07C205.57 11.07 204.982 11.3033 204.543 11.77C204.104 12.2367 203.885 12.9227 203.885 13.828V18H202.905V10.356H203.885V11.658C204.128 11.1913 204.478 10.8367 204.935 10.594C205.392 10.342 205.91 10.216 206.489 10.216ZM216.096 8.914C215.9 8.914 215.732 8.844 215.592 8.704C215.452 8.564 215.382 8.39133 215.382 8.186C215.382 7.98067 215.452 7.81267 215.592 7.682C215.732 7.542 215.9 7.472 216.096 7.472C216.292 7.472 216.46 7.542 216.6 7.682C216.74 7.81267 216.81 7.98067 216.81 8.186C216.81 8.39133 216.74 8.564 216.6 8.704C216.46 8.844 216.292 8.914 216.096 8.914ZM216.586 10.356V18H215.606V10.356H216.586ZM222.39 10.216C223.304 10.216 224.051 10.5007 224.63 11.07C225.208 11.63 225.498 12.4467 225.498 13.52V18H224.532V13.632C224.532 12.8013 224.322 12.1667 223.902 11.728C223.491 11.2893 222.926 11.07 222.208 11.07C221.47 11.07 220.882 11.3033 220.444 11.77C220.005 12.2367 219.786 12.9227 219.786 13.828V18H218.806V10.356H219.786V11.658C220.028 11.1913 220.378 10.8367 220.836 10.594C221.293 10.342 221.811 10.216 222.39 10.216ZM17.086 33.036C17.3287 32.5227 17.7113 32.098 18.234 31.762C18.766 31.4167 19.396 31.244 20.124 31.244C20.8147 31.244 21.4353 31.4073 21.986 31.734C22.546 32.0513 22.98 32.5087 23.288 33.106C23.6053 33.694 23.764 34.38 23.764 35.164C23.764 35.948 23.6053 36.6387 23.288 37.236C22.98 37.8333 22.546 38.2953 21.986 38.622C21.4353 38.9487 20.8147 39.112 20.124 39.112C19.4053 39.112 18.78 38.944 18.248 38.608C17.716 38.2627 17.3287 37.8333 17.086 37.32V42.612H16.12V31.356H17.086V33.036ZM22.77 35.164C22.77 34.5293 22.644 33.9833 22.392 33.526C22.1493 33.0593 21.8133 32.7047 21.384 32.462C20.9547 32.2193 20.4693 32.098 19.928 32.098C19.4053 32.098 18.9247 32.224 18.486 32.476C18.0567 32.728 17.716 33.0873 17.464 33.554C17.212 34.0207 17.086 34.562 17.086 35.178C17.086 35.794 17.212 36.3353 17.464 36.802C17.716 37.2687 18.0567 37.628 18.486 37.88C18.9247 38.132 19.4053 38.258 19.928 38.258C20.4693 38.258 20.9547 38.1367 21.384 37.894C21.8133 37.642 22.1493 37.2827 22.392 36.816C22.644 36.34 22.77 35.7893 22.77 35.164ZM26.5473 28.64V39H25.5673V28.64H26.5473ZM28.3185 35.164C28.3185 34.38 28.4725 33.694 28.7805 33.106C29.0978 32.5087 29.5318 32.0513 30.0825 31.734C30.6425 31.4073 31.2725 31.244 31.9725 31.244C32.7005 31.244 33.3258 31.412 33.8485 31.748C34.3805 32.084 34.7632 32.5133 34.9965 33.036V31.356H35.9765V39H34.9965V37.306C34.7538 37.8287 34.3665 38.2627 33.8345 38.608C33.3118 38.944 32.6865 39.112 31.9585 39.112C31.2678 39.112 30.6425 38.9487 30.0825 38.622C29.5318 38.2953 29.0978 37.8333 28.7805 37.236C28.4725 36.6387 28.3185 35.948 28.3185 35.164ZM34.9965 35.178C34.9965 34.562 34.8705 34.0207 34.6185 33.554C34.3665 33.0873 34.0212 32.728 33.5825 32.476C33.1532 32.224 32.6772 32.098 32.1545 32.098C31.6132 32.098 31.1278 32.2193 30.6985 32.462C30.2692 32.7047 29.9285 33.0593 29.6765 33.526C29.4338 33.9833 29.3125 34.5293 29.3125 35.164C29.3125 35.7893 29.4338 36.34 29.6765 36.816C29.9285 37.2827 30.2692 37.642 30.6985 37.894C31.1278 38.1367 31.6132 38.258 32.1545 38.258C32.6772 38.258 33.1532 38.132 33.5825 37.88C34.0212 37.628 34.3665 37.2687 34.6185 36.802C34.8705 36.3353 34.9965 35.794 34.9965 35.178ZM37.7658 35.178C37.7658 34.3847 37.9244 33.694 38.2418 33.106C38.5591 32.5087 38.9978 32.0513 39.5578 31.734C40.1178 31.4073 40.7571 31.244 41.4758 31.244C42.4184 31.244 43.1931 31.4773 43.7998 31.944C44.4158 32.4107 44.8124 33.0453 44.9898 33.848H43.9398C43.8091 33.2973 43.5244 32.868 43.0858 32.56C42.6564 32.2427 42.1198 32.084 41.4758 32.084C40.9624 32.084 40.5004 32.2007 40.0898 32.434C39.6791 32.6673 39.3524 33.0173 39.1098 33.484C38.8764 33.9413 38.7598 34.506 38.7598 35.178C38.7598 35.85 38.8764 36.4193 39.1098 36.886C39.3524 37.3527 39.6791 37.7027 40.0898 37.936C40.5004 38.1693 40.9624 38.286 41.4758 38.286C42.1198 38.286 42.6564 38.132 43.0858 37.824C43.5244 37.5067 43.8091 37.068 43.9398 36.508H44.9898C44.8124 37.292 44.4158 37.922 43.7998 38.398C43.1838 38.874 42.4091 39.112 41.4758 39.112C40.7571 39.112 40.1178 38.9533 39.5578 38.636C38.9978 38.3093 38.5591 37.852 38.2418 37.264C37.9244 36.6667 37.7658 35.9713 37.7658 35.178ZM53.7157 34.786C53.7157 35.122 53.7064 35.3787 53.6877 35.556H47.3457C47.3737 36.1347 47.5137 36.6293 47.7657 37.04C48.0177 37.4507 48.349 37.7633 48.7597 37.978C49.1704 38.1833 49.6184 38.286 50.1037 38.286C50.7384 38.286 51.2704 38.132 51.6997 37.824C52.1384 37.516 52.4277 37.1007 52.5677 36.578H53.6037C53.417 37.3247 53.0157 37.936 52.3997 38.412C51.793 38.8787 51.0277 39.112 50.1037 39.112C49.385 39.112 48.741 38.9533 48.1717 38.636C47.6024 38.3093 47.1544 37.852 46.8277 37.264C46.5104 36.6667 46.3517 35.9713 46.3517 35.178C46.3517 34.3847 46.5104 33.6893 46.8277 33.092C47.145 32.4947 47.5884 32.0373 48.1577 31.72C48.727 31.4027 49.3757 31.244 50.1037 31.244C50.8317 31.244 51.4664 31.4027 52.0077 31.72C52.5584 32.0373 52.9784 32.4667 53.2677 33.008C53.5664 33.54 53.7157 34.1327 53.7157 34.786ZM52.7217 34.758C52.731 34.1887 52.6144 33.7033 52.3717 33.302C52.1384 32.9007 51.8164 32.5973 51.4057 32.392C50.995 32.1867 50.547 32.084 50.0617 32.084C49.3337 32.084 48.713 32.3173 48.1997 32.784C47.6864 33.2507 47.4017 33.9087 47.3457 34.758H52.7217ZM60.6245 32.182V36.928C60.6245 37.3947 60.7131 37.7167 60.8905 37.894C61.0678 38.0713 61.3805 38.16 61.8285 38.16H62.7245V39H61.6745C60.9838 39 60.4705 38.8413 60.1345 38.524C59.7985 38.1973 59.6305 37.6653 59.6305 36.928V32.182H58.5665V31.356H59.6305V29.438H60.6245V31.356H62.7245V32.182H60.6245ZM67.6867 39.112C66.968 39.112 66.3194 38.9533 65.7407 38.636C65.1714 38.3093 64.7187 37.852 64.3827 37.264C64.056 36.6667 63.8927 35.9713 63.8927 35.178C63.8927 34.3847 64.0607 33.694 64.3967 33.106C64.7327 32.5087 65.19 32.0513 65.7687 31.734C66.3474 31.4073 66.996 31.244 67.7147 31.244C68.4334 31.244 69.082 31.4073 69.6607 31.734C70.2487 32.0513 70.706 32.5087 71.0327 33.106C71.3687 33.694 71.5367 34.3847 71.5367 35.178C71.5367 35.962 71.3687 36.6527 71.0327 37.25C70.6967 37.8473 70.2347 38.3093 69.6467 38.636C69.0587 38.9533 68.4054 39.112 67.6867 39.112ZM67.6867 38.258C68.1907 38.258 68.6574 38.146 69.0867 37.922C69.516 37.6887 69.8614 37.3433 70.1227 36.886C70.3934 36.4193 70.5287 35.85 70.5287 35.178C70.5287 34.506 70.398 33.9413 70.1367 33.484C69.8754 33.0173 69.53 32.672 69.1007 32.448C68.6714 32.2147 68.2047 32.098 67.7007 32.098C67.1967 32.098 66.73 32.2147 66.3007 32.448C65.8714 32.672 65.526 33.0173 65.2647 33.484C65.0127 33.9413 64.8867 34.506 64.8867 35.178C64.8867 35.85 65.0127 36.4193 65.2647 36.886C65.526 37.3433 65.8667 37.6887 66.2867 37.922C66.716 38.146 67.1827 38.258 67.6867 38.258ZM80.8049 31.216C81.3836 31.216 81.9016 31.3373 82.3589 31.58C82.8256 31.8227 83.1896 32.196 83.4509 32.7C83.7216 33.1947 83.8569 33.8013 83.8569 34.52V39H82.8909V34.632C82.8909 33.8013 82.6809 33.1667 82.2609 32.728C81.8503 32.2893 81.2856 32.07 80.5669 32.07C79.8296 32.07 79.2416 32.3033 78.8029 32.77C78.3643 33.2367 78.1449 33.9227 78.1449 34.828V39H77.1649V28.64H78.1449V32.658C78.3876 32.2007 78.7423 31.846 79.2089 31.594C79.6849 31.342 80.2169 31.216 80.8049 31.216ZM86.5143 29.914C86.3183 29.914 86.1503 29.844 86.0103 29.704C85.8703 29.564 85.8003 29.3913 85.8003 29.186C85.8003 28.9807 85.8703 28.8127 86.0103 28.682C86.1503 28.542 86.3183 28.472 86.5143 28.472C86.7103 28.472 86.8783 28.542 87.0183 28.682C87.1583 28.8127 87.2283 28.9807 87.2283 29.186C87.2283 29.3913 87.1583 29.564 87.0183 29.704C86.8783 29.844 86.7103 29.914 86.5143 29.914ZM87.0043 31.356V39H86.0243V31.356H87.0043ZM92.4295 31.244C93.1482 31.244 93.7735 31.412 94.3055 31.748C94.8375 32.084 95.2202 32.5087 95.4535 33.022V31.356H96.4335V39.196C96.4335 39.896 96.2795 40.5167 95.9715 41.058C95.6728 41.5993 95.2528 42.0147 94.7115 42.304C94.1702 42.6027 93.5542 42.752 92.8635 42.752C91.8835 42.752 91.0668 42.5187 90.4135 42.052C89.7695 41.5853 89.3682 40.9507 89.2095 40.148H90.1755C90.3435 40.68 90.6608 41.1047 91.1275 41.422C91.6035 41.7393 92.1822 41.898 92.8635 41.898C93.3582 41.898 93.8015 41.7907 94.1935 41.576C94.5855 41.3707 94.8935 41.0627 95.1175 40.652C95.3415 40.2413 95.4535 39.756 95.4535 39.196V37.306C95.2108 37.8287 94.8235 38.2627 94.2915 38.608C93.7688 38.944 93.1482 39.112 92.4295 39.112C91.7295 39.112 91.0995 38.9487 90.5395 38.622C89.9888 38.2953 89.5548 37.8333 89.2375 37.236C88.9295 36.6387 88.7755 35.948 88.7755 35.164C88.7755 34.38 88.9295 33.694 89.2375 33.106C89.5548 32.5087 89.9888 32.0513 90.5395 31.734C91.0995 31.4073 91.7295 31.244 92.4295 31.244ZM95.4535 35.178C95.4535 34.562 95.3275 34.0207 95.0755 33.554C94.8235 33.0873 94.4782 32.728 94.0395 32.476C93.6102 32.224 93.1342 32.098 92.6115 32.098C92.0702 32.098 91.5848 32.2193 91.1555 32.462C90.7262 32.7047 90.3855 33.0593 90.1335 33.526C89.8908 33.9833 89.7695 34.5293 89.7695 35.164C89.7695 35.7893 89.8908 36.34 90.1335 36.816C90.3855 37.2827 90.7262 37.642 91.1555 37.894C91.5848 38.1367 92.0702 38.258 92.6115 38.258C93.1342 38.258 93.6102 38.132 94.0395 37.88C94.4782 37.628 94.8235 37.2687 95.0755 36.802C95.3275 36.3353 95.4535 35.794 95.4535 35.178ZM102.311 31.216C102.889 31.216 103.407 31.3373 103.865 31.58C104.331 31.8227 104.695 32.196 104.957 32.7C105.227 33.1947 105.363 33.8013 105.363 34.52V39H104.397V34.632C104.397 33.8013 104.187 33.1667 103.767 32.728C103.356 32.2893 102.791 32.07 102.073 32.07C101.335 32.07 100.747 32.3033 100.309 32.77C99.8701 33.2367 99.6508 33.9227 99.6508 34.828V39H98.6708V28.64H99.6508V32.658C99.8934 32.2007 100.248 31.846 100.715 31.594C101.191 31.342 101.723 31.216 102.311 31.216ZM108.51 28.64V39H107.53V28.64H108.51ZM111.219 29.914C111.023 29.914 110.855 29.844 110.715 29.704C110.575 29.564 110.505 29.3913 110.505 29.186C110.505 28.9807 110.575 28.8127 110.715 28.682C110.855 28.542 111.023 28.472 111.219 28.472C111.415 28.472 111.583 28.542 111.723 28.682C111.863 28.8127 111.933 28.9807 111.933 29.186C111.933 29.3913 111.863 29.564 111.723 29.704C111.583 29.844 111.415 29.914 111.219 29.914ZM111.709 31.356V39H110.729V31.356H111.709ZM117.135 31.244C117.853 31.244 118.479 31.412 119.011 31.748C119.543 32.084 119.925 32.5087 120.159 33.022V31.356H121.139V39.196C121.139 39.896 120.985 40.5167 120.677 41.058C120.378 41.5993 119.958 42.0147 119.417 42.304C118.875 42.6027 118.259 42.752 117.569 42.752C116.589 42.752 115.772 42.5187 115.119 42.052C114.475 41.5853 114.073 40.9507 113.915 40.148H114.881C115.049 40.68 115.366 41.1047 115.833 41.422C116.309 41.7393 116.887 41.898 117.569 41.898C118.063 41.898 118.507 41.7907 118.899 41.576C119.291 41.3707 119.599 41.0627 119.823 40.652C120.047 40.2413 120.159 39.756 120.159 39.196V37.306C119.916 37.8287 119.529 38.2627 118.997 38.608C118.474 38.944 117.853 39.112 117.135 39.112C116.435 39.112 115.805 38.9487 115.245 38.622C114.694 38.2953 114.26 37.8333 113.943 37.236C113.635 36.6387 113.481 35.948 113.481 35.164C113.481 34.38 113.635 33.694 113.943 33.106C114.26 32.5087 114.694 32.0513 115.245 31.734C115.805 31.4073 116.435 31.244 117.135 31.244ZM120.159 35.178C120.159 34.562 120.033 34.0207 119.781 33.554C119.529 33.0873 119.183 32.728 118.745 32.476C118.315 32.224 117.839 32.098 117.317 32.098C116.775 32.098 116.29 32.2193 115.861 32.462C115.431 32.7047 115.091 33.0593 114.839 33.526C114.596 33.9833 114.475 34.5293 114.475 35.164C114.475 35.7893 114.596 36.34 114.839 36.816C115.091 37.2827 115.431 37.642 115.861 37.894C116.29 38.1367 116.775 38.258 117.317 38.258C117.839 38.258 118.315 38.132 118.745 37.88C119.183 37.628 119.529 37.2687 119.781 36.802C120.033 36.3353 120.159 35.794 120.159 35.178ZM127.016 31.216C127.595 31.216 128.113 31.3373 128.57 31.58C129.037 31.8227 129.401 32.196 129.662 32.7C129.933 33.1947 130.068 33.8013 130.068 34.52V39H129.102V34.632C129.102 33.8013 128.892 33.1667 128.472 32.728C128.061 32.2893 127.497 32.07 126.778 32.07C126.041 32.07 125.453 32.3033 125.014 32.77C124.575 33.2367 124.356 33.9227 124.356 34.828V39H123.376V28.64H124.356V32.658C124.599 32.2007 124.953 31.846 125.42 31.594C125.896 31.342 126.428 31.216 127.016 31.216ZM133.509 32.182V36.928C133.509 37.3947 133.598 37.7167 133.775 37.894C133.953 38.0713 134.265 38.16 134.713 38.16H135.609V39H134.559C133.869 39 133.355 38.8413 133.019 38.524C132.683 38.1973 132.515 37.6653 132.515 36.928V32.182H131.451V31.356H132.515V29.438H133.509V31.356H135.609V32.182H133.509ZM142.341 32.182V36.928C142.341 37.3947 142.43 37.7167 142.607 37.894C142.785 38.0713 143.097 38.16 143.545 38.16H144.441V39H143.391C142.701 39 142.187 38.8413 141.851 38.524C141.515 38.1973 141.347 37.6653 141.347 36.928V32.182H140.283V31.356H141.347V29.438H142.341V31.356H144.441V32.182H142.341ZM149.698 31.216C150.276 31.216 150.794 31.3373 151.252 31.58C151.718 31.8227 152.082 32.196 152.344 32.7C152.614 33.1947 152.75 33.8013 152.75 34.52V39H151.784V34.632C151.784 33.8013 151.574 33.1667 151.154 32.728C150.743 32.2893 150.178 32.07 149.46 32.07C148.722 32.07 148.134 32.3033 147.696 32.77C147.257 33.2367 147.038 33.9227 147.038 34.828V39H146.058V28.64H147.038V32.658C147.28 32.2007 147.635 31.846 148.102 31.594C148.578 31.342 149.11 31.216 149.698 31.216ZM161.833 34.786C161.833 35.122 161.824 35.3787 161.805 35.556H155.463C155.491 36.1347 155.631 36.6293 155.883 37.04C156.135 37.4507 156.466 37.7633 156.877 37.978C157.288 38.1833 157.736 38.286 158.221 38.286C158.856 38.286 159.388 38.132 159.817 37.824C160.256 37.516 160.545 37.1007 160.685 36.578H161.721C161.534 37.3247 161.133 37.936 160.517 38.412C159.91 38.8787 159.145 39.112 158.221 39.112C157.502 39.112 156.858 38.9533 156.289 38.636C155.72 38.3093 155.272 37.852 154.945 37.264C154.628 36.6667 154.469 35.9713 154.469 35.178C154.469 34.3847 154.628 33.6893 154.945 33.092C155.262 32.4947 155.706 32.0373 156.275 31.72C156.844 31.4027 157.493 31.244 158.221 31.244C158.949 31.244 159.584 31.4027 160.125 31.72C160.676 32.0373 161.096 32.4667 161.385 33.008C161.684 33.54 161.833 34.1327 161.833 34.786ZM160.839 34.758C160.848 34.1887 160.732 33.7033 160.489 33.302C160.256 32.9007 159.934 32.5973 159.523 32.392C159.112 32.1867 158.664 32.084 158.179 32.084C157.451 32.084 156.83 32.3173 156.317 32.784C155.804 33.2507 155.519 33.9087 155.463 34.758H160.839ZM168.434 33.036C168.676 32.5227 169.059 32.098 169.582 31.762C170.114 31.4167 170.744 31.244 171.472 31.244C172.162 31.244 172.783 31.4073 173.334 31.734C173.894 32.0513 174.328 32.5087 174.636 33.106C174.953 33.694 175.112 34.38 175.112 35.164C175.112 35.948 174.953 36.6387 174.636 37.236C174.328 37.8333 173.894 38.2953 173.334 38.622C172.783 38.9487 172.162 39.112 171.472 39.112C170.753 39.112 170.128 38.944 169.596 38.608C169.064 38.2627 168.676 37.8333 168.434 37.32V42.612H167.468V31.356H168.434V33.036ZM174.118 35.164C174.118 34.5293 173.992 33.9833 173.74 33.526C173.497 33.0593 173.161 32.7047 172.732 32.462C172.302 32.2193 171.817 32.098 171.276 32.098C170.753 32.098 170.272 32.224 169.834 32.476C169.404 32.728 169.064 33.0873 168.812 33.554C168.56 34.0207 168.434 34.562 168.434 35.178C168.434 35.794 168.56 36.3353 168.812 36.802C169.064 37.2687 169.404 37.628 169.834 37.88C170.272 38.132 170.753 38.258 171.276 38.258C171.817 38.258 172.302 38.1367 172.732 37.894C173.161 37.642 173.497 37.2827 173.74 36.816C173.992 36.34 174.118 35.7893 174.118 35.164ZM177.895 32.714C178.11 32.238 178.436 31.8693 178.875 31.608C179.323 31.3467 179.869 31.216 180.513 31.216V32.238H180.247C179.538 32.238 178.968 32.4293 178.539 32.812C178.11 33.1947 177.895 33.834 177.895 34.73V39H176.915V31.356H177.895V32.714ZM185.333 39.112C184.615 39.112 183.966 38.9533 183.387 38.636C182.818 38.3093 182.365 37.852 182.029 37.264C181.703 36.6667 181.539 35.9713 181.539 35.178C181.539 34.3847 181.707 33.694 182.043 33.106C182.379 32.5087 182.837 32.0513 183.415 31.734C183.994 31.4073 184.643 31.244 185.361 31.244C186.08 31.244 186.729 31.4073 187.307 31.734C187.895 32.0513 188.353 32.5087 188.679 33.106C189.015 33.694 189.183 34.3847 189.183 35.178C189.183 35.962 189.015 36.6527 188.679 37.25C188.343 37.8473 187.881 38.3093 187.293 38.636C186.705 38.9533 186.052 39.112 185.333 39.112ZM185.333 38.258C185.837 38.258 186.304 38.146 186.733 37.922C187.163 37.6887 187.508 37.3433 187.769 36.886C188.04 36.4193 188.175 35.85 188.175 35.178C188.175 34.506 188.045 33.9413 187.783 33.484C187.522 33.0173 187.177 32.672 186.747 32.448C186.318 32.2147 185.851 32.098 185.347 32.098C184.843 32.098 184.377 32.2147 183.947 32.448C183.518 32.672 183.173 33.0173 182.911 33.484C182.659 33.9413 182.533 34.506 182.533 35.178C182.533 35.85 182.659 36.4193 182.911 36.886C183.173 37.3433 183.513 37.6887 183.933 37.922C184.363 38.146 184.829 38.258 185.333 38.258ZM191.53 29.914C191.334 29.914 191.166 29.844 191.026 29.704C190.886 29.564 190.816 29.3913 190.816 29.186C190.816 28.9807 190.886 28.8127 191.026 28.682C191.166 28.542 191.334 28.472 191.53 28.472C191.726 28.472 191.889 28.542 192.02 28.682C192.16 28.8127 192.23 28.9807 192.23 29.186C192.23 29.3913 192.16 29.564 192.02 29.704C191.889 29.844 191.726 29.914 191.53 29.914ZM192.006 40.806C192.006 41.422 191.852 41.8747 191.544 42.164C191.236 42.4627 190.774 42.612 190.158 42.612H189.472V41.772H190.004C190.368 41.772 190.629 41.6927 190.788 41.534C190.946 41.3847 191.026 41.128 191.026 40.764V31.356H192.006V40.806ZM201.167 34.786C201.167 35.122 201.158 35.3787 201.139 35.556H194.797C194.825 36.1347 194.965 36.6293 195.217 37.04C195.469 37.4507 195.8 37.7633 196.211 37.978C196.622 38.1833 197.07 38.286 197.555 38.286C198.19 38.286 198.722 38.132 199.151 37.824C199.59 37.516 199.879 37.1007 200.019 36.578H201.055C200.868 37.3247 200.467 37.936 199.851 38.412C199.244 38.8787 198.479 39.112 197.555 39.112C196.836 39.112 196.192 38.9533 195.623 38.636C195.054 38.3093 194.606 37.852 194.279 37.264C193.962 36.6667 193.803 35.9713 193.803 35.178C193.803 34.3847 193.962 33.6893 194.279 33.092C194.596 32.4947 195.04 32.0373 195.609 31.72C196.178 31.4027 196.827 31.244 197.555 31.244C198.283 31.244 198.918 31.4027 199.459 31.72C200.01 32.0373 200.43 32.4667 200.719 33.008C201.018 33.54 201.167 34.1327 201.167 34.786ZM200.173 34.758C200.182 34.1887 200.066 33.7033 199.823 33.302C199.59 32.9007 199.268 32.5973 198.857 32.392C198.446 32.1867 197.998 32.084 197.513 32.084C196.785 32.084 196.164 32.3173 195.651 32.784C195.138 33.2507 194.853 33.9087 194.797 34.758H200.173ZM202.512 35.178C202.512 34.3847 202.671 33.694 202.988 33.106C203.305 32.5087 203.744 32.0513 204.304 31.734C204.864 31.4073 205.503 31.244 206.222 31.244C207.165 31.244 207.939 31.4773 208.546 31.944C209.162 32.4107 209.559 33.0453 209.736 33.848H208.686C208.555 33.2973 208.271 32.868 207.832 32.56C207.403 32.2427 206.866 32.084 206.222 32.084C205.709 32.084 205.247 32.2007 204.836 32.434C204.425 32.6673 204.099 33.0173 203.856 33.484C203.623 33.9413 203.506 34.506 203.506 35.178C203.506 35.85 203.623 36.4193 203.856 36.886C204.099 37.3527 204.425 37.7027 204.836 37.936C205.247 38.1693 205.709 38.286 206.222 38.286C206.866 38.286 207.403 38.132 207.832 37.824C208.271 37.5067 208.555 37.068 208.686 36.508H209.736C209.559 37.292 209.162 37.922 208.546 38.398C207.93 38.874 207.155 39.112 206.222 39.112C205.503 39.112 204.864 38.9533 204.304 38.636C203.744 38.3093 203.305 37.852 202.988 37.264C202.671 36.6667 202.512 35.9713 202.512 35.178ZM212.82 32.182V36.928C212.82 37.3947 212.908 37.7167 213.086 37.894C213.263 38.0713 213.576 38.16 214.024 38.16H214.92V39H213.87C213.179 39 212.666 38.8413 212.33 38.524C211.994 38.1973 211.826 37.6653 211.826 36.928V32.182H210.762V31.356H211.826V29.438H212.82V31.356H214.92V32.182H212.82ZM216.662 29.214H217.796L216.564 32.238H215.85L216.662 29.214ZM221.93 39.112C221.052 39.112 220.334 38.9113 219.774 38.51C219.223 38.0993 218.915 37.544 218.85 36.844H219.858C219.904 37.2733 220.105 37.6233 220.46 37.894C220.824 38.1553 221.309 38.286 221.916 38.286C222.448 38.286 222.863 38.16 223.162 37.908C223.47 37.656 223.624 37.3433 223.624 36.97C223.624 36.7087 223.54 36.494 223.372 36.326C223.204 36.158 222.989 36.0273 222.728 35.934C222.476 35.8313 222.13 35.724 221.692 35.612C221.122 35.4627 220.66 35.3133 220.306 35.164C219.951 35.0147 219.648 34.7953 219.396 34.506C219.153 34.2073 219.032 33.8107 219.032 33.316C219.032 32.9427 219.144 32.5973 219.368 32.28C219.592 31.9627 219.909 31.7107 220.32 31.524C220.73 31.3373 221.197 31.244 221.72 31.244C222.541 31.244 223.204 31.454 223.708 31.874C224.212 32.2847 224.482 32.854 224.52 33.582H223.54C223.512 33.134 223.334 32.7747 223.008 32.504C222.69 32.224 222.252 32.084 221.692 32.084C221.197 32.084 220.796 32.2007 220.488 32.434C220.18 32.6673 220.026 32.9567 220.026 33.302C220.026 33.6007 220.114 33.848 220.292 34.044C220.478 34.2307 220.707 34.38 220.978 34.492C221.248 34.5947 221.612 34.7113 222.07 34.842C222.62 34.9913 223.059 35.136 223.386 35.276C223.712 35.416 223.992 35.6213 224.226 35.892C224.459 36.1627 224.58 36.522 224.59 36.97C224.59 37.3807 224.478 37.7493 224.254 38.076C224.03 38.3933 223.717 38.6453 223.316 38.832C222.914 39.0187 222.452 39.112 221.93 39.112ZM26.2 52.356L23.806 60H22.826L20.712 53.588L18.598 60H17.604L15.21 52.356H16.204L18.108 59.006L20.25 52.356H21.23L23.344 59.02L25.234 52.356H26.2ZM28.026 50.914C27.83 50.914 27.662 50.844 27.522 50.704C27.382 50.564 27.312 50.3913 27.312 50.186C27.312 49.9807 27.382 49.8127 27.522 49.682C27.662 49.542 27.83 49.472 28.026 49.472C28.222 49.472 28.39 49.542 28.53 49.682C28.67 49.8127 28.74 49.9807 28.74 50.186C28.74 50.3913 28.67 50.564 28.53 50.704C28.39 50.844 28.222 50.914 28.026 50.914ZM28.516 52.356V60H27.536V52.356H28.516ZM34.3192 52.216C35.2339 52.216 35.9806 52.5007 36.5592 53.07C37.1379 53.63 37.4272 54.4467 37.4272 55.52V60H36.4612V55.632C36.4612 54.8013 36.2512 54.1667 35.8312 53.728C35.4206 53.2893 34.8559 53.07 34.1372 53.07C33.3999 53.07 32.8119 53.3033 32.3732 53.77C31.9346 54.2367 31.7152 54.9227 31.7152 55.828V60H30.7352V52.356H31.7152V53.658C31.9579 53.1913 32.3079 52.8367 32.7652 52.594C33.2226 52.342 33.7406 52.216 34.3192 52.216ZM42.2266 60.112C41.3493 60.112 40.6306 59.9113 40.0706 59.51C39.5199 59.0993 39.2119 58.544 39.1466 57.844H40.1546C40.2013 58.2733 40.4019 58.6233 40.7566 58.894C41.1206 59.1553 41.6059 59.286 42.2126 59.286C42.7446 59.286 43.1599 59.16 43.4586 58.908C43.7666 58.656 43.9206 58.3433 43.9206 57.97C43.9206 57.7087 43.8366 57.494 43.6686 57.326C43.5006 57.158 43.2859 57.0273 43.0246 56.934C42.7726 56.8313 42.4273 56.724 41.9886 56.612C41.4193 56.4627 40.9573 56.3133 40.6026 56.164C40.2479 56.0147 39.9446 55.7953 39.6926 55.506C39.4499 55.2073 39.3286 54.8107 39.3286 54.316C39.3286 53.9427 39.4406 53.5973 39.6646 53.28C39.8886 52.9627 40.2059 52.7107 40.6166 52.524C41.0273 52.3373 41.4939 52.244 42.0166 52.244C42.8379 52.244 43.5006 52.454 44.0046 52.874C44.5086 53.2847 44.7793 53.854 44.8166 54.582H43.8366C43.8086 54.134 43.6313 53.7747 43.3046 53.504C42.9873 53.224 42.5486 53.084 41.9886 53.084C41.4939 53.084 41.0926 53.2007 40.7846 53.434C40.4766 53.6673 40.3226 53.9567 40.3226 54.302C40.3226 54.6007 40.4113 54.848 40.5886 55.044C40.7753 55.2307 41.0039 55.38 41.2746 55.492C41.5453 55.5947 41.9093 55.7113 42.3666 55.842C42.9173 55.9913 43.3559 56.136 43.6826 56.276C44.0093 56.416 44.2893 56.6213 44.5226 56.892C44.7559 57.1627 44.8773 57.522 44.8866 57.97C44.8866 58.3807 44.7746 58.7493 44.5506 59.076C44.3266 59.3933 44.0139 59.6453 43.6126 59.832C43.2113 60.0187 42.7493 60.112 42.2266 60.112ZM46.8993 60.07C46.694 60.07 46.5213 60 46.3813 59.86C46.2507 59.72 46.1853 59.5473 46.1853 59.342C46.1853 59.1367 46.2507 58.9687 46.3813 58.838C46.5213 58.698 46.694 58.628 46.8993 58.628C47.0953 58.628 47.2587 58.698 47.3893 58.838C47.5293 58.9687 47.5993 59.1367 47.5993 59.342C47.5993 59.5473 47.5293 59.72 47.3893 59.86C47.2587 60 47.0953 60.07 46.8993 60.07ZM54.0961 50.214V60H53.1161V50.214H54.0961ZM57.5893 53.182V57.928C57.5893 58.3947 57.678 58.7167 57.8553 58.894C58.0326 59.0713 58.3453 59.16 58.7933 59.16H59.6893V60H58.6393C57.9486 60 57.4353 59.8413 57.0993 59.524C56.7633 59.1973 56.5953 58.6653 56.5953 57.928V53.182H55.5313V52.356H56.5953V50.438H57.5893V52.356H59.6893V53.182H57.5893ZM61.4315 50.214H62.5655L61.3335 53.238H60.6195L61.4315 50.214ZM66.6993 60.112C65.8219 60.112 65.1033 59.9113 64.5433 59.51C63.9926 59.0993 63.6846 58.544 63.6193 57.844H64.6273C64.6739 58.2733 64.8746 58.6233 65.2293 58.894C65.5933 59.1553 66.0786 59.286 66.6853 59.286C67.2173 59.286 67.6326 59.16 67.9313 58.908C68.2393 58.656 68.3933 58.3433 68.3933 57.97C68.3933 57.7087 68.3093 57.494 68.1413 57.326C67.9733 57.158 67.7586 57.0273 67.4973 56.934C67.2453 56.8313 66.8999 56.724 66.4613 56.612C65.8919 56.4627 65.4299 56.3133 65.0753 56.164C64.7206 56.0147 64.4173 55.7953 64.1653 55.506C63.9226 55.2073 63.8013 54.8107 63.8013 54.316C63.8013 53.9427 63.9133 53.5973 64.1373 53.28C64.3613 52.9627 64.6786 52.7107 65.0893 52.524C65.4999 52.3373 65.9666 52.244 66.4893 52.244C67.3106 52.244 67.9733 52.454 68.4773 52.874C68.9813 53.2847 69.2519 53.854 69.2893 54.582H68.3093C68.2813 54.134 68.1039 53.7747 67.7773 53.504C67.4599 53.224 67.0213 53.084 66.4613 53.084C65.9666 53.084 65.5653 53.2007 65.2573 53.434C64.9493 53.6673 64.7953 53.9567 64.7953 54.302C64.7953 54.6007 64.8839 54.848 65.0613 55.044C65.2479 55.2307 65.4766 55.38 65.7473 55.492C66.0179 55.5947 66.3819 55.7113 66.8393 55.842C67.3899 55.9913 67.8286 56.136 68.1553 56.276C68.4819 56.416 68.7619 56.6213 68.9953 56.892C69.2286 57.1627 69.3499 57.522 69.3593 57.97C69.3593 58.3807 69.2473 58.7493 69.0233 59.076C68.7993 59.3933 68.4866 59.6453 68.0853 59.832C67.6839 60.0187 67.2219 60.112 66.6993 60.112ZM81.9618 55.786C81.9618 56.122 81.9524 56.3787 81.9338 56.556H75.5918C75.6198 57.1347 75.7598 57.6293 76.0118 58.04C76.2638 58.4507 76.5951 58.7633 77.0058 58.978C77.4164 59.1833 77.8644 59.286 78.3498 59.286C78.9844 59.286 79.5164 59.132 79.9458 58.824C80.3844 58.516 80.6738 58.1007 80.8138 57.578H81.8498C81.6631 58.3247 81.2618 58.936 80.6458 59.412C80.0391 59.8787 79.2738 60.112 78.3498 60.112C77.6311 60.112 76.9871 59.9533 76.4178 59.636C75.8484 59.3093 75.4004 58.852 75.0738 58.264C74.7564 57.6667 74.5978 56.9713 74.5978 56.178C74.5978 55.3847 74.7564 54.6893 75.0738 54.092C75.3911 53.4947 75.8344 53.0373 76.4038 52.72C76.9731 52.4027 77.6218 52.244 78.3498 52.244C79.0778 52.244 79.7124 52.4027 80.2538 52.72C80.8044 53.0373 81.2244 53.4667 81.5138 54.008C81.8124 54.54 81.9618 55.1327 81.9618 55.786ZM80.9678 55.758C80.9771 55.1887 80.8604 54.7033 80.6178 54.302C80.3844 53.9007 80.0624 53.5973 79.6518 53.392C79.2411 53.1867 78.7931 53.084 78.3078 53.084C77.5798 53.084 76.9591 53.3173 76.4458 53.784C75.9324 54.2507 75.6478 54.9087 75.5918 55.758H80.9678ZM86.3868 60.112C85.5094 60.112 84.7908 59.9113 84.2308 59.51C83.6801 59.0993 83.3721 58.544 83.3068 57.844H84.3148C84.3614 58.2733 84.5621 58.6233 84.9168 58.894C85.2808 59.1553 85.7661 59.286 86.3728 59.286C86.9048 59.286 87.3201 59.16 87.6188 58.908C87.9268 58.656 88.0808 58.3433 88.0808 57.97C88.0808 57.7087 87.9968 57.494 87.8288 57.326C87.6608 57.158 87.4461 57.0273 87.1848 56.934C86.9328 56.8313 86.5874 56.724 86.1488 56.612C85.5794 56.4627 85.1174 56.3133 84.7628 56.164C84.4081 56.0147 84.1048 55.7953 83.8528 55.506C83.6101 55.2073 83.4888 54.8107 83.4888 54.316C83.4888 53.9427 83.6008 53.5973 83.8248 53.28C84.0488 52.9627 84.3661 52.7107 84.7768 52.524C85.1874 52.3373 85.6541 52.244 86.1768 52.244C86.9981 52.244 87.6608 52.454 88.1648 52.874C88.6688 53.2847 88.9394 53.854 88.9768 54.582H87.9968C87.9688 54.134 87.7914 53.7747 87.4648 53.504C87.1474 53.224 86.7088 53.084 86.1488 53.084C85.6541 53.084 85.2528 53.2007 84.9448 53.434C84.6368 53.6673 84.4828 53.9567 84.4828 54.302C84.4828 54.6007 84.5714 54.848 84.7488 55.044C84.9354 55.2307 85.1641 55.38 85.4348 55.492C85.7054 55.5947 86.0694 55.7113 86.5268 55.842C87.0774 55.9913 87.5161 56.136 87.8428 56.276C88.1694 56.416 88.4494 56.6213 88.6828 56.892C88.9161 57.1627 89.0374 57.522 89.0468 57.97C89.0468 58.3807 88.9348 58.7493 88.7108 59.076C88.4868 59.3933 88.1741 59.6453 87.7728 59.832C87.3714 60.0187 86.9094 60.112 86.3868 60.112ZM93.5235 60.112C92.6462 60.112 91.9275 59.9113 91.3675 59.51C90.8168 59.0993 90.5088 58.544 90.4435 57.844H91.4515C91.4982 58.2733 91.6988 58.6233 92.0535 58.894C92.4175 59.1553 92.9028 59.286 93.5095 59.286C94.0415 59.286 94.4568 59.16 94.7555 58.908C95.0635 58.656 95.2175 58.3433 95.2175 57.97C95.2175 57.7087 95.1335 57.494 94.9655 57.326C94.7975 57.158 94.5828 57.0273 94.3215 56.934C94.0695 56.8313 93.7242 56.724 93.2855 56.612C92.7162 56.4627 92.2542 56.3133 91.8995 56.164C91.5448 56.0147 91.2415 55.7953 90.9895 55.506C90.7468 55.2073 90.6255 54.8107 90.6255 54.316C90.6255 53.9427 90.7375 53.5973 90.9615 53.28C91.1855 52.9627 91.5028 52.7107 91.9135 52.524C92.3242 52.3373 92.7908 52.244 93.3135 52.244C94.1348 52.244 94.7975 52.454 95.3015 52.874C95.8055 53.2847 96.0762 53.854 96.1135 54.582H95.1335C95.1055 54.134 94.9282 53.7747 94.6015 53.504C94.2842 53.224 93.8455 53.084 93.2855 53.084C92.7908 53.084 92.3895 53.2007 92.0815 53.434C91.7735 53.6673 91.6195 53.9567 91.6195 54.302C91.6195 54.6007 91.7082 54.848 91.8855 55.044C92.0722 55.2307 92.3008 55.38 92.5715 55.492C92.8422 55.5947 93.2062 55.7113 93.6635 55.842C94.2142 55.9913 94.6528 56.136 94.9795 56.276C95.3062 56.416 95.5862 56.6213 95.8195 56.892C96.0528 57.1627 96.1742 57.522 96.1835 57.97C96.1835 58.3807 96.0715 58.7493 95.8475 59.076C95.6235 59.3933 95.3108 59.6453 94.9095 59.832C94.5082 60.0187 94.0462 60.112 93.5235 60.112ZM104.944 55.786C104.944 56.122 104.935 56.3787 104.916 56.556H98.5742C98.6022 57.1347 98.7422 57.6293 98.9942 58.04C99.2462 58.4507 99.5775 58.7633 99.9882 58.978C100.399 59.1833 100.847 59.286 101.332 59.286C101.967 59.286 102.499 59.132 102.928 58.824C103.367 58.516 103.656 58.1007 103.796 57.578H104.832C104.646 58.3247 104.244 58.936 103.628 59.412C103.022 59.8787 102.256 60.112 101.332 60.112C100.614 60.112 99.9695 59.9533 99.4002 59.636C98.8309 59.3093 98.3829 58.852 98.0562 58.264C97.7389 57.6667 97.5802 56.9713 97.5802 56.178C97.5802 55.3847 97.7389 54.6893 98.0562 54.092C98.3735 53.4947 98.8169 53.0373 99.3862 52.72C99.9555 52.4027 100.604 52.244 101.332 52.244C102.06 52.244 102.695 52.4027 103.236 52.72C103.787 53.0373 104.207 53.4667 104.496 54.008C104.795 54.54 104.944 55.1327 104.944 55.786ZM103.95 55.758C103.96 55.1887 103.843 54.7033 103.6 54.302C103.367 53.9007 103.045 53.5973 102.634 53.392C102.224 53.1867 101.776 53.084 101.29 53.084C100.562 53.084 99.9415 53.3173 99.4282 53.784C98.9149 54.2507 98.6302 54.9087 98.5742 55.758H103.95ZM110.321 52.216C111.236 52.216 111.983 52.5007 112.561 53.07C113.14 53.63 113.429 54.4467 113.429 55.52V60H112.463V55.632C112.463 54.8013 112.253 54.1667 111.833 53.728C111.423 53.2893 110.858 53.07 110.139 53.07C109.402 53.07 108.814 53.3033 108.375 53.77C107.937 54.2367 107.717 54.9227 107.717 55.828V60H106.737V52.356H107.717V53.658C107.96 53.1913 108.31 52.8367 108.767 52.594C109.225 52.342 109.743 52.216 110.321 52.216ZM116.871 53.182V57.928C116.871 58.3947 116.959 58.7167 117.137 58.894C117.314 59.0713 117.627 59.16 118.075 59.16H118.971V60H117.921C117.23 60 116.717 59.8413 116.381 59.524C116.045 59.1973 115.877 58.6653 115.877 57.928V53.182H114.813V52.356H115.877V50.438H116.871V52.356H118.971V53.182H116.871ZM121.077 50.914C120.881 50.914 120.713 50.844 120.573 50.704C120.433 50.564 120.363 50.3913 120.363 50.186C120.363 49.9807 120.433 49.8127 120.573 49.682C120.713 49.542 120.881 49.472 121.077 49.472C121.273 49.472 121.441 49.542 121.581 49.682C121.721 49.8127 121.791 49.9807 121.791 50.186C121.791 50.3913 121.721 50.564 121.581 50.704C121.441 50.844 121.273 50.914 121.077 50.914ZM121.567 52.356V60H120.587V52.356H121.567ZM123.338 56.164C123.338 55.38 123.492 54.694 123.8 54.106C124.117 53.5087 124.551 53.0513 125.102 52.734C125.662 52.4073 126.292 52.244 126.992 52.244C127.72 52.244 128.345 52.412 128.868 52.748C129.4 53.084 129.783 53.5133 130.016 54.036V52.356H130.996V60H130.016V58.306C129.773 58.8287 129.386 59.2627 128.854 59.608C128.331 59.944 127.706 60.112 126.978 60.112C126.287 60.112 125.662 59.9487 125.102 59.622C124.551 59.2953 124.117 58.8333 123.8 58.236C123.492 57.6387 123.338 56.948 123.338 56.164ZM130.016 56.178C130.016 55.562 129.89 55.0207 129.638 54.554C129.386 54.0873 129.041 53.728 128.602 53.476C128.173 53.224 127.697 53.098 127.174 53.098C126.633 53.098 126.147 53.2193 125.718 53.462C125.289 53.7047 124.948 54.0593 124.696 54.526C124.453 54.9833 124.332 55.5293 124.332 56.164C124.332 56.7893 124.453 57.34 124.696 57.816C124.948 58.2827 125.289 58.642 125.718 58.894C126.147 59.1367 126.633 59.258 127.174 59.258C127.697 59.258 128.173 59.132 128.602 58.88C129.041 58.628 129.386 58.2687 129.638 57.802C129.89 57.3353 130.016 56.794 130.016 56.178ZM134.213 49.64V60H133.233V49.64H134.213ZM143.284 53.182H141.506V60H140.526V53.182H139.462V52.356H140.526V51.824C140.526 50.9933 140.736 50.382 141.156 49.99C141.586 49.598 142.276 49.402 143.228 49.402V50.242C142.594 50.242 142.146 50.3633 141.884 50.606C141.632 50.8487 141.506 51.2547 141.506 51.824V52.356H143.284V53.182ZM148.173 60.112C147.454 60.112 146.806 59.9533 146.227 59.636C145.658 59.3093 145.205 58.852 144.869 58.264C144.542 57.6667 144.379 56.9713 144.379 56.178C144.379 55.3847 144.547 54.694 144.883 54.106C145.219 53.5087 145.676 53.0513 146.255 52.734C146.834 52.4073 147.482 52.244 148.201 52.244C148.92 52.244 149.568 52.4073 150.147 52.734C150.735 53.0513 151.192 53.5087 151.519 54.106C151.855 54.694 152.023 55.3847 152.023 56.178C152.023 56.962 151.855 57.6527 151.519 58.25C151.183 58.8473 150.721 59.3093 150.133 59.636C149.545 59.9533 148.892 60.112 148.173 60.112ZM148.173 59.258C148.677 59.258 149.144 59.146 149.573 58.922C150.002 58.6887 150.348 58.3433 150.609 57.886C150.88 57.4193 151.015 56.85 151.015 56.178C151.015 55.506 150.884 54.9413 150.623 54.484C150.362 54.0173 150.016 53.672 149.587 53.448C149.158 53.2147 148.691 53.098 148.187 53.098C147.683 53.098 147.216 53.2147 146.787 53.448C146.358 53.672 146.012 54.0173 145.751 54.484C145.499 54.9413 145.373 55.506 145.373 56.178C145.373 56.85 145.499 57.4193 145.751 57.886C146.012 58.3433 146.353 58.6887 146.773 58.922C147.202 59.146 147.669 59.258 148.173 59.258ZM154.789 53.714C155.004 53.238 155.331 52.8693 155.769 52.608C156.217 52.3467 156.763 52.216 157.407 52.216V53.238H157.141C156.432 53.238 155.863 53.4293 155.433 53.812C155.004 54.1947 154.789 54.834 154.789 55.73V60H153.809V52.356H154.789V53.714ZM163.69 54.036C163.932 53.5227 164.315 53.098 164.838 52.762C165.37 52.4167 166 52.244 166.728 52.244C167.418 52.244 168.039 52.4073 168.59 52.734C169.15 53.0513 169.584 53.5087 169.892 54.106C170.209 54.694 170.368 55.38 170.368 56.164C170.368 56.948 170.209 57.6387 169.892 58.236C169.584 58.8333 169.15 59.2953 168.59 59.622C168.039 59.9487 167.418 60.112 166.728 60.112C166.009 60.112 165.384 59.944 164.852 59.608C164.32 59.2627 163.932 58.8333 163.69 58.32V63.612H162.724V52.356H163.69V54.036ZM169.374 56.164C169.374 55.5293 169.248 54.9833 168.996 54.526C168.753 54.0593 168.417 53.7047 167.988 53.462C167.558 53.2193 167.073 53.098 166.532 53.098C166.009 53.098 165.528 53.224 165.09 53.476C164.66 53.728 164.32 54.0873 164.068 54.554C163.816 55.0207 163.69 55.562 163.69 56.178C163.69 56.794 163.816 57.3353 164.068 57.802C164.32 58.2687 164.66 58.628 165.09 58.88C165.528 59.132 166.009 59.258 166.532 59.258C167.073 59.258 167.558 59.1367 167.988 58.894C168.417 58.642 168.753 58.2827 168.996 57.816C169.248 57.34 169.374 56.7893 169.374 56.164ZM171.723 56.164C171.723 55.38 171.877 54.694 172.185 54.106C172.502 53.5087 172.936 53.0513 173.487 52.734C174.047 52.4073 174.677 52.244 175.377 52.244C176.105 52.244 176.73 52.412 177.253 52.748C177.785 53.084 178.167 53.5133 178.401 54.036V52.356H179.381V60H178.401V58.306C178.158 58.8287 177.771 59.2627 177.239 59.608C176.716 59.944 176.091 60.112 175.363 60.112C174.672 60.112 174.047 59.9487 173.487 59.622C172.936 59.2953 172.502 58.8333 172.185 58.236C171.877 57.6387 171.723 56.948 171.723 56.164ZM178.401 56.178C178.401 55.562 178.275 55.0207 178.023 54.554C177.771 54.0873 177.425 53.728 176.987 53.476C176.557 53.224 176.081 53.098 175.559 53.098C175.017 53.098 174.532 53.2193 174.103 53.462C173.673 53.7047 173.333 54.0593 173.081 54.526C172.838 54.9833 172.717 55.5293 172.717 56.164C172.717 56.7893 172.838 57.34 173.081 57.816C173.333 58.2827 173.673 58.642 174.103 58.894C174.532 59.1367 175.017 59.258 175.559 59.258C176.081 59.258 176.557 59.132 176.987 58.88C177.425 58.628 177.771 58.2687 178.023 57.802C178.275 57.3353 178.401 56.794 178.401 56.178ZM182.598 53.714C182.813 53.238 183.139 52.8693 183.578 52.608C184.026 52.3467 184.572 52.216 185.216 52.216V53.238H184.95C184.241 53.238 183.671 53.4293 183.242 53.812C182.813 54.1947 182.598 54.834 182.598 55.73V60H181.618V52.356H182.598V53.714ZM187.964 53.182V57.928C187.964 58.3947 188.053 58.7167 188.23 58.894C188.408 59.0713 188.72 59.16 189.168 59.16H190.064V60H189.014C188.324 60 187.81 59.8413 187.474 59.524C187.138 59.1973 186.97 58.6653 186.97 57.928V53.182H185.906V52.356H186.97V50.438H187.964V52.356H190.064V53.182H187.964ZM195.265 52.216C196.179 52.216 196.926 52.5007 197.505 53.07C198.083 53.63 198.373 54.4467 198.373 55.52V60H197.407V55.632C197.407 54.8013 197.197 54.1667 196.777 53.728C196.366 53.2893 195.801 53.07 195.083 53.07C194.345 53.07 193.757 53.3033 193.319 53.77C192.88 54.2367 192.661 54.9227 192.661 55.828V60H191.681V52.356H192.661V53.658C192.903 53.1913 193.253 52.8367 193.711 52.594C194.168 52.342 194.686 52.216 195.265 52.216ZM207.456 55.786C207.456 56.122 207.447 56.3787 207.428 56.556H201.086C201.114 57.1347 201.254 57.6293 201.506 58.04C201.758 58.4507 202.089 58.7633 202.5 58.978C202.911 59.1833 203.359 59.286 203.844 59.286C204.479 59.286 205.011 59.132 205.44 58.824C205.879 58.516 206.168 58.1007 206.308 57.578H207.344C207.157 58.3247 206.756 58.936 206.14 59.412C205.533 59.8787 204.768 60.112 203.844 60.112C203.125 60.112 202.481 59.9533 201.912 59.636C201.343 59.3093 200.895 58.852 200.568 58.264C200.251 57.6667 200.092 56.9713 200.092 56.178C200.092 55.3847 200.251 54.6893 200.568 54.092C200.885 53.4947 201.329 53.0373 201.898 52.72C202.467 52.4027 203.116 52.244 203.844 52.244C204.572 52.244 205.207 52.4027 205.748 52.72C206.299 53.0373 206.719 53.4667 207.008 54.008C207.307 54.54 207.456 55.1327 207.456 55.786ZM206.462 55.758C206.471 55.1887 206.355 54.7033 206.112 54.302C205.879 53.9007 205.557 53.5973 205.146 53.392C204.735 53.1867 204.287 53.084 203.802 53.084C203.074 53.084 202.453 53.3173 201.94 53.784C201.427 54.2507 201.142 54.9087 201.086 55.758H206.462ZM210.229 53.714C210.444 53.238 210.77 52.8693 211.209 52.608C211.657 52.3467 212.203 52.216 212.847 52.216V53.238H212.581C211.872 53.238 211.302 53.4293 210.873 53.812C210.444 54.1947 210.229 54.834 210.229 55.73V60H209.249V52.356H210.229V53.714ZM216.953 60.112C216.076 60.112 215.357 59.9113 214.797 59.51C214.247 59.0993 213.939 58.544 213.873 57.844H214.881C214.928 58.2733 215.129 58.6233 215.483 58.894C215.847 59.1553 216.333 59.286 216.939 59.286C217.471 59.286 217.887 59.16 218.185 58.908C218.493 58.656 218.647 58.3433 218.647 57.97C218.647 57.7087 218.563 57.494 218.395 57.326C218.227 57.158 218.013 57.0273 217.751 56.934C217.499 56.8313 217.154 56.724 216.715 56.612C216.146 56.4627 215.684 56.3133 215.329 56.164C214.975 56.0147 214.671 55.7953 214.419 55.506C214.177 55.2073 214.055 54.8107 214.055 54.316C214.055 53.9427 214.167 53.5973 214.391 53.28C214.615 52.9627 214.933 52.7107 215.343 52.524C215.754 52.3373 216.221 52.244 216.743 52.244C217.565 52.244 218.227 52.454 218.731 52.874C219.235 53.2847 219.506 53.854 219.543 54.582H218.563C218.535 54.134 218.358 53.7747 218.031 53.504C217.714 53.224 217.275 53.084 216.715 53.084C216.221 53.084 215.819 53.2007 215.511 53.434C215.203 53.6673 215.049 53.9567 215.049 54.302C215.049 54.6007 215.138 54.848 215.315 55.044C215.502 55.2307 215.731 55.38 216.001 55.492C216.272 55.5947 216.636 55.7113 217.093 55.842C217.644 55.9913 218.083 56.136 218.409 56.276C218.736 56.416 219.016 56.6213 219.249 56.892C219.483 57.1627 219.604 57.522 219.613 57.97C219.613 58.3807 219.501 58.7493 219.277 59.076C219.053 59.3933 218.741 59.6453 218.339 59.832C217.938 60.0187 217.476 60.112 216.953 60.112ZM226.574 53.182V57.928C226.574 58.3947 226.662 58.7167 226.84 58.894C227.017 59.0713 227.33 59.16 227.778 59.16H228.674V60H227.624C226.933 60 226.42 59.8413 226.084 59.524C225.748 59.1973 225.58 58.6653 225.58 57.928V53.182H224.516V52.356H225.58V50.438H226.574V52.356H228.674V53.182H226.574ZM233.636 60.112C232.917 60.112 232.269 59.9533 231.69 59.636C231.121 59.3093 230.668 58.852 230.332 58.264C230.005 57.6667 229.842 56.9713 229.842 56.178C229.842 55.3847 230.01 54.694 230.346 54.106C230.682 53.5087 231.139 53.0513 231.718 52.734C232.297 52.4073 232.945 52.244 233.664 52.244C234.383 52.244 235.031 52.4073 235.61 52.734C236.198 53.0513 236.655 53.5087 236.982 54.106C237.318 54.694 237.486 55.3847 237.486 56.178C237.486 56.962 237.318 57.6527 236.982 58.25C236.646 58.8473 236.184 59.3093 235.596 59.636C235.008 59.9533 234.355 60.112 233.636 60.112ZM233.636 59.258C234.14 59.258 234.607 59.146 235.036 58.922C235.465 58.6887 235.811 58.3433 236.072 57.886C236.343 57.4193 236.478 56.85 236.478 56.178C236.478 55.506 236.347 54.9413 236.086 54.484C235.825 54.0173 235.479 53.672 235.05 53.448C234.621 53.2147 234.154 53.098 233.65 53.098C233.146 53.098 232.679 53.2147 232.25 53.448C231.821 53.672 231.475 54.0173 231.214 54.484C230.962 54.9413 230.836 55.506 230.836 56.178C230.836 56.85 230.962 57.4193 231.214 57.886C231.475 58.3433 231.816 58.6887 232.236 58.922C232.665 59.146 233.132 59.258 233.636 59.258ZM17.086 75.05C17.338 74.518 17.7253 74.084 18.248 73.748C18.78 73.412 19.4053 73.244 20.124 73.244C20.824 73.244 21.4493 73.4073 22 73.734C22.5507 74.0513 22.98 74.5087 23.288 75.106C23.6053 75.694 23.764 76.38 23.764 77.164C23.764 77.948 23.6053 78.6387 23.288 79.236C22.98 79.8333 22.546 80.2953 21.986 80.622C21.4353 80.9487 20.8147 81.112 20.124 81.112C19.396 81.112 18.766 80.9487 18.234 80.622C17.7113 80.286 17.3287 79.852 17.086 79.32V81H16.12V70.64H17.086V75.05ZM22.77 77.164C22.77 76.5293 22.644 75.9833 22.392 75.526C22.1493 75.0593 21.8133 74.7047 21.384 74.462C20.9547 74.2193 20.4693 74.098 19.928 74.098C19.4053 74.098 18.9247 74.224 18.486 74.476C18.0567 74.728 17.716 75.0873 17.464 75.554C17.212 76.0207 17.086 76.562 17.086 77.178C17.086 77.794 17.212 78.3353 17.464 78.802C17.716 79.2687 18.0567 79.628 18.486 79.88C18.9247 80.132 19.4053 80.258 19.928 80.258C20.4693 80.258 20.9547 80.1367 21.384 79.894C21.8133 79.642 22.1493 79.2827 22.392 78.816C22.644 78.34 22.77 77.7893 22.77 77.164ZM32.4833 76.786C32.4833 77.122 32.4739 77.3787 32.4553 77.556H26.1133C26.1413 78.1347 26.2813 78.6293 26.5333 79.04C26.7853 79.4507 27.1166 79.7633 27.5273 79.978C27.9379 80.1833 28.3859 80.286 28.8713 80.286C29.5059 80.286 30.0379 80.132 30.4673 79.824C30.9059 79.516 31.1953 79.1007 31.3353 78.578H32.3713C32.1846 79.3247 31.7833 79.936 31.1673 80.412C30.5606 80.8787 29.7953 81.112 28.8713 81.112C28.1526 81.112 27.5086 80.9533 26.9393 80.636C26.3699 80.3093 25.9219 79.852 25.5953 79.264C25.2779 78.6667 25.1193 77.9713 25.1193 77.178C25.1193 76.3847 25.2779 75.6893 25.5953 75.092C25.9126 74.4947 26.3559 74.0373 26.9253 73.72C27.4946 73.4027 28.1433 73.244 28.8713 73.244C29.5993 73.244 30.2339 73.4027 30.7753 73.72C31.3259 74.0373 31.7459 74.4667 32.0353 75.008C32.3339 75.54 32.4833 76.1327 32.4833 76.786ZM31.4893 76.758C31.4986 76.1887 31.3819 75.7033 31.1393 75.302C30.9059 74.9007 30.5839 74.5973 30.1733 74.392C29.7626 74.1867 29.3146 74.084 28.8293 74.084C28.1013 74.084 27.4806 74.3173 26.9673 74.784C26.4539 75.2507 26.1693 75.9087 26.1133 76.758H31.4893ZM37.67 77.164C37.67 76.38 37.824 75.694 38.132 75.106C38.4494 74.5087 38.8834 74.0513 39.434 73.734C39.994 73.4073 40.624 73.244 41.324 73.244C42.052 73.244 42.6774 73.412 43.2 73.748C43.732 74.084 44.1147 74.5133 44.348 75.036V73.356H45.328V81H44.348V79.306C44.1054 79.8287 43.718 80.2627 43.186 80.608C42.6634 80.944 42.038 81.112 41.31 81.112C40.6194 81.112 39.994 80.9487 39.434 80.622C38.8834 80.2953 38.4494 79.8333 38.132 79.236C37.824 78.6387 37.67 77.948 37.67 77.164ZM44.348 77.178C44.348 76.562 44.222 76.0207 43.97 75.554C43.718 75.0873 43.3727 74.728 42.934 74.476C42.5047 74.224 42.0287 74.098 41.506 74.098C40.9647 74.098 40.4794 74.2193 40.05 74.462C39.6207 74.7047 39.28 75.0593 39.028 75.526C38.7854 75.9833 38.664 76.5293 38.664 77.164C38.664 77.7893 38.7854 78.34 39.028 78.816C39.28 79.2827 39.6207 79.642 40.05 79.894C40.4794 80.1367 40.9647 80.258 41.506 80.258C42.0287 80.258 42.5047 80.132 42.934 79.88C43.3727 79.628 43.718 79.2687 43.97 78.802C44.222 78.3353 44.348 77.794 44.348 77.178ZM48.5313 75.05C48.7833 74.518 49.1706 74.084 49.6933 73.748C50.2253 73.412 50.8506 73.244 51.5693 73.244C52.2693 73.244 52.8946 73.4073 53.4453 73.734C53.996 74.0513 54.4253 74.5087 54.7333 75.106C55.0506 75.694 55.2093 76.38 55.2093 77.164C55.2093 77.948 55.0506 78.6387 54.7333 79.236C54.4253 79.8333 53.9913 80.2953 53.4313 80.622C52.8806 80.9487 52.26 81.112 51.5693 81.112C50.8413 81.112 50.2113 80.9487 49.6793 80.622C49.1566 80.286 48.774 79.852 48.5313 79.32V81H47.5653V70.64H48.5313V75.05ZM54.2153 77.164C54.2153 76.5293 54.0893 75.9833 53.8373 75.526C53.5946 75.0593 53.2586 74.7047 52.8293 74.462C52.4 74.2193 51.9146 74.098 51.3733 74.098C50.8506 74.098 50.37 74.224 49.9313 74.476C49.502 74.728 49.1613 75.0873 48.9093 75.554C48.6573 76.0207 48.5313 76.562 48.5313 77.178C48.5313 77.794 48.6573 78.3353 48.9093 78.802C49.1613 79.2687 49.502 79.628 49.9313 79.88C50.37 80.132 50.8506 80.258 51.3733 80.258C51.9146 80.258 52.4 80.1367 52.8293 79.894C53.2586 79.642 53.5946 79.2827 53.8373 78.816C54.0893 78.34 54.2153 77.7893 54.2153 77.164ZM57.9926 70.64V81H57.0126V70.64H57.9926ZM67.1278 76.786C67.1278 77.122 67.1185 77.3787 67.0998 77.556H60.7578C60.7858 78.1347 60.9258 78.6293 61.1778 79.04C61.4298 79.4507 61.7611 79.7633 62.1718 79.978C62.5825 80.1833 63.0305 80.286 63.5158 80.286C64.1505 80.286 64.6825 80.132 65.1118 79.824C65.5505 79.516 65.8398 79.1007 65.9798 78.578H67.0158C66.8291 79.3247 66.4278 79.936 65.8118 80.412C65.2051 80.8787 64.4398 81.112 63.5158 81.112C62.7971 81.112 62.1531 80.9533 61.5838 80.636C61.0145 80.3093 60.5665 79.852 60.2398 79.264C59.9225 78.6667 59.7638 77.9713 59.7638 77.178C59.7638 76.3847 59.9225 75.6893 60.2398 75.092C60.5571 74.4947 61.0005 74.0373 61.5698 73.72C62.1391 73.4027 62.7878 73.244 63.5158 73.244C64.2438 73.244 64.8785 73.4027 65.4198 73.72C65.9705 74.0373 66.3905 74.4667 66.6798 75.008C66.9785 75.54 67.1278 76.1327 67.1278 76.786ZM66.1338 76.758C66.1431 76.1887 66.0265 75.7033 65.7838 75.302C65.5505 74.9007 65.2285 74.5973 64.8178 74.392C64.4071 74.1867 63.9591 74.084 63.4738 74.084C62.7458 74.084 62.1251 74.3173 61.6118 74.784C61.0985 75.2507 60.8138 75.9087 60.7578 76.758H66.1338ZM74.0366 74.182V78.928C74.0366 79.3947 74.1252 79.7167 74.3026 79.894C74.4799 80.0713 74.7926 80.16 75.2406 80.16H76.1366V81H75.0866C74.3959 81 73.8826 80.8413 73.5466 80.524C73.2106 80.1973 73.0426 79.6653 73.0426 78.928V74.182H71.9786V73.356H73.0426V71.438H74.0366V73.356H76.1366V74.182H74.0366ZM81.0988 81.112C80.3801 81.112 79.7315 80.9533 79.1528 80.636C78.5835 80.3093 78.1308 79.852 77.7948 79.264C77.4681 78.6667 77.3048 77.9713 77.3048 77.178C77.3048 76.3847 77.4728 75.694 77.8088 75.106C78.1448 74.5087 78.6021 74.0513 79.1808 73.734C79.7595 73.4073 80.4081 73.244 81.1268 73.244C81.8455 73.244 82.4941 73.4073 83.0728 73.734C83.6608 74.0513 84.1181 74.5087 84.4448 75.106C84.7808 75.694 84.9488 76.3847 84.9488 77.178C84.9488 77.962 84.7808 78.6527 84.4448 79.25C84.1088 79.8473 83.6468 80.3093 83.0588 80.636C82.4708 80.9533 81.8175 81.112 81.0988 81.112ZM81.0988 80.258C81.6028 80.258 82.0695 80.146 82.4988 79.922C82.9281 79.6887 83.2735 79.3433 83.5348 78.886C83.8055 78.4193 83.9408 77.85 83.9408 77.178C83.9408 76.506 83.8101 75.9413 83.5488 75.484C83.2875 75.0173 82.9421 74.672 82.5128 74.448C82.0835 74.2147 81.6168 74.098 81.1128 74.098C80.6088 74.098 80.1421 74.2147 79.7128 74.448C79.2835 74.672 78.9381 75.0173 78.6768 75.484C78.4248 75.9413 78.2988 76.506 78.2988 77.178C78.2988 77.85 78.4248 78.4193 78.6768 78.886C78.9381 79.3433 79.2788 79.6887 79.6988 79.922C80.1281 80.146 80.5948 80.258 81.0988 80.258ZM97.493 76.786C97.493 77.122 97.4837 77.3787 97.465 77.556H91.123C91.151 78.1347 91.291 78.6293 91.543 79.04C91.795 79.4507 92.1264 79.7633 92.537 79.978C92.9477 80.1833 93.3957 80.286 93.881 80.286C94.5157 80.286 95.0477 80.132 95.477 79.824C95.9157 79.516 96.205 79.1007 96.345 78.578H97.381C97.1944 79.3247 96.793 79.936 96.177 80.412C95.5704 80.8787 94.805 81.112 93.881 81.112C93.1624 81.112 92.5184 80.9533 91.949 80.636C91.3797 80.3093 90.9317 79.852 90.605 79.264C90.2877 78.6667 90.129 77.9713 90.129 77.178C90.129 76.3847 90.2877 75.6893 90.605 75.092C90.9224 74.4947 91.3657 74.0373 91.935 73.72C92.5044 73.4027 93.153 73.244 93.881 73.244C94.609 73.244 95.2437 73.4027 95.785 73.72C96.3357 74.0373 96.7557 74.4667 97.045 75.008C97.3437 75.54 97.493 76.1327 97.493 76.786ZM96.499 76.758C96.5084 76.1887 96.3917 75.7033 96.149 75.302C95.9157 74.9007 95.5937 74.5973 95.183 74.392C94.7724 74.1867 94.3244 74.084 93.839 74.084C93.111 74.084 92.4904 74.3173 91.977 74.784C91.4637 75.2507 91.179 75.9087 91.123 76.758H96.499ZM98.838 77.164C98.838 76.38 98.992 75.694 99.3 75.106C99.6173 74.5087 100.051 74.0513 100.602 73.734C101.162 73.4073 101.792 73.244 102.492 73.244C103.22 73.244 103.845 73.412 104.368 73.748C104.9 74.084 105.283 74.5133 105.516 75.036V73.356H106.496V81H105.516V79.306C105.273 79.8287 104.886 80.2627 104.354 80.608C103.831 80.944 103.206 81.112 102.478 81.112C101.787 81.112 101.162 80.9487 100.602 80.622C100.051 80.2953 99.6173 79.8333 99.3 79.236C98.992 78.6387 98.838 77.948 98.838 77.164ZM105.516 77.178C105.516 76.562 105.39 76.0207 105.138 75.554C104.886 75.0873 104.541 74.728 104.102 74.476C103.673 74.224 103.197 74.098 102.674 74.098C102.133 74.098 101.647 74.2193 101.218 74.462C100.789 74.7047 100.448 75.0593 100.196 75.526C99.9533 75.9833 99.832 76.5293 99.832 77.164C99.832 77.7893 99.9533 78.34 100.196 78.816C100.448 79.2827 100.789 79.642 101.218 79.894C101.647 80.1367 102.133 80.258 102.674 80.258C103.197 80.258 103.673 80.132 104.102 79.88C104.541 79.628 104.886 79.2687 105.138 78.802C105.39 78.3353 105.516 77.794 105.516 77.178ZM111.365 81.112C110.488 81.112 109.769 80.9113 109.209 80.51C108.659 80.0993 108.351 79.544 108.285 78.844H109.293C109.34 79.2733 109.541 79.6233 109.895 79.894C110.259 80.1553 110.745 80.286 111.351 80.286C111.883 80.286 112.299 80.16 112.597 79.908C112.905 79.656 113.059 79.3433 113.059 78.97C113.059 78.7087 112.975 78.494 112.807 78.326C112.639 78.158 112.425 78.0273 112.163 77.934C111.911 77.8313 111.566 77.724 111.127 77.612C110.558 77.4627 110.096 77.3133 109.741 77.164C109.387 77.0147 109.083 76.7953 108.831 76.506C108.589 76.2073 108.467 75.8107 108.467 75.316C108.467 74.9427 108.579 74.5973 108.803 74.28C109.027 73.9627 109.345 73.7107 109.755 73.524C110.166 73.3373 110.633 73.244 111.155 73.244C111.977 73.244 112.639 73.454 113.143 73.874C113.647 74.2847 113.918 74.854 113.955 75.582H112.975C112.947 75.134 112.77 74.7747 112.443 74.504C112.126 74.224 111.687 74.084 111.127 74.084C110.633 74.084 110.231 74.2007 109.923 74.434C109.615 74.6673 109.461 74.9567 109.461 75.302C109.461 75.6007 109.55 75.848 109.727 76.044C109.914 76.2307 110.143 76.38 110.413 76.492C110.684 76.5947 111.048 76.7113 111.505 76.842C112.056 76.9913 112.495 77.136 112.821 77.276C113.148 77.416 113.428 77.6213 113.661 77.892C113.895 78.1627 114.016 78.522 114.025 78.97C114.025 79.3807 113.913 79.7493 113.689 80.076C113.465 80.3933 113.153 80.6453 112.751 80.832C112.35 81.0187 111.888 81.112 111.365 81.112ZM116.36 71.914C116.164 71.914 115.996 71.844 115.856 71.704C115.716 71.564 115.646 71.3913 115.646 71.186C115.646 70.9807 115.716 70.8127 115.856 70.682C115.996 70.542 116.164 70.472 116.36 70.472C116.556 70.472 116.724 70.542 116.864 70.682C117.004 70.8127 117.074 70.9807 117.074 71.186C117.074 71.3913 117.004 71.564 116.864 71.704C116.724 71.844 116.556 71.914 116.36 71.914ZM116.85 73.356V81H115.87V73.356H116.85ZM120.049 70.64V81H119.069V70.64H120.049ZM128.568 73.356L124.032 84.598H123.01L124.494 80.958L121.358 73.356H122.436L125.04 79.88L127.56 73.356H128.568ZM136.371 81.112C135.494 81.112 134.775 80.9113 134.215 80.51C133.664 80.0993 133.356 79.544 133.291 78.844H134.299C134.346 79.2733 134.546 79.6233 134.901 79.894C135.265 80.1553 135.75 80.286 136.357 80.286C136.889 80.286 137.304 80.16 137.603 79.908C137.911 79.656 138.065 79.3433 138.065 78.97C138.065 78.7087 137.981 78.494 137.813 78.326C137.645 78.158 137.43 78.0273 137.169 77.934C136.917 77.8313 136.572 77.724 136.133 77.612C135.564 77.4627 135.102 77.3133 134.747 77.164C134.392 77.0147 134.089 76.7953 133.837 76.506C133.594 76.2073 133.473 75.8107 133.473 75.316C133.473 74.9427 133.585 74.5973 133.809 74.28C134.033 73.9627 134.35 73.7107 134.761 73.524C135.172 73.3373 135.638 73.244 136.161 73.244C136.982 73.244 137.645 73.454 138.149 73.874C138.653 74.2847 138.924 74.854 138.961 75.582H137.981C137.953 75.134 137.776 74.7747 137.449 74.504C137.132 74.224 136.693 74.084 136.133 74.084C135.638 74.084 135.237 74.2007 134.929 74.434C134.621 74.6673 134.467 74.9567 134.467 75.302C134.467 75.6007 134.556 75.848 134.733 76.044C134.92 76.2307 135.148 76.38 135.419 76.492C135.69 76.5947 136.054 76.7113 136.511 76.842C137.062 76.9913 137.5 77.136 137.827 77.276C138.154 77.416 138.434 77.6213 138.667 77.892C138.9 78.1627 139.022 78.522 139.031 78.97C139.031 79.3807 138.919 79.7493 138.695 80.076C138.471 80.3933 138.158 80.6453 137.757 80.832C137.356 81.0187 136.894 81.112 136.371 81.112ZM144.516 73.216C145.095 73.216 145.613 73.3373 146.07 73.58C146.537 73.8227 146.901 74.196 147.162 74.7C147.433 75.1947 147.568 75.8013 147.568 76.52V81H146.602V76.632C146.602 75.8013 146.392 75.1667 145.972 74.728C145.561 74.2893 144.997 74.07 144.278 74.07C143.541 74.07 142.953 74.3033 142.514 74.77C142.075 75.2367 141.856 75.9227 141.856 76.828V81H140.876V70.64H141.856V74.658C142.099 74.2007 142.453 73.846 142.92 73.594C143.396 73.342 143.928 73.216 144.516 73.216ZM153.081 81.112C152.363 81.112 151.714 80.9533 151.135 80.636C150.566 80.3093 150.113 79.852 149.777 79.264C149.451 78.6667 149.287 77.9713 149.287 77.178C149.287 76.3847 149.455 75.694 149.791 75.106C150.127 74.5087 150.585 74.0513 151.163 73.734C151.742 73.4073 152.391 73.244 153.109 73.244C153.828 73.244 154.477 73.4073 155.055 73.734C155.643 74.0513 156.101 74.5087 156.427 75.106C156.763 75.694 156.931 76.3847 156.931 77.178C156.931 77.962 156.763 78.6527 156.427 79.25C156.091 79.8473 155.629 80.3093 155.041 80.636C154.453 80.9533 153.8 81.112 153.081 81.112ZM153.081 80.258C153.585 80.258 154.052 80.146 154.481 79.922C154.911 79.6887 155.256 79.3433 155.517 78.886C155.788 78.4193 155.923 77.85 155.923 77.178C155.923 76.506 155.793 75.9413 155.531 75.484C155.27 75.0173 154.925 74.672 154.495 74.448C154.066 74.2147 153.599 74.098 153.095 74.098C152.591 74.098 152.125 74.2147 151.695 74.448C151.266 74.672 150.921 75.0173 150.659 75.484C150.407 75.9413 150.281 76.506 150.281 77.178C150.281 77.85 150.407 78.4193 150.659 78.886C150.921 79.3433 151.261 79.6887 151.681 79.922C152.111 80.146 152.577 80.258 153.081 80.258ZM168.798 73.356L166.404 81H165.424L163.31 74.588L161.196 81H160.202L157.808 73.356H158.802L160.706 80.006L162.848 73.356H163.828L165.942 80.02L167.832 73.356H168.798ZM177.321 81.112C176.603 81.112 175.954 80.9533 175.375 80.636C174.806 80.3093 174.353 79.852 174.017 79.264C173.691 78.6667 173.527 77.9713 173.527 77.178C173.527 76.3847 173.695 75.694 174.031 75.106C174.367 74.5087 174.825 74.0513 175.403 73.734C175.982 73.4073 176.631 73.244 177.349 73.244C178.068 73.244 178.717 73.4073 179.295 73.734C179.883 74.0513 180.341 74.5087 180.667 75.106C181.003 75.694 181.171 76.3847 181.171 77.178C181.171 77.962 181.003 78.6527 180.667 79.25C180.331 79.8473 179.869 80.3093 179.281 80.636C178.693 80.9533 178.04 81.112 177.321 81.112ZM177.321 80.258C177.825 80.258 178.292 80.146 178.721 79.922C179.151 79.6887 179.496 79.3433 179.757 78.886C180.028 78.4193 180.163 77.85 180.163 77.178C180.163 76.506 180.033 75.9413 179.771 75.484C179.51 75.0173 179.165 74.672 178.735 74.448C178.306 74.2147 177.839 74.098 177.335 74.098C176.831 74.098 176.365 74.2147 175.935 74.448C175.506 74.672 175.161 75.0173 174.899 75.484C174.647 75.9413 174.521 76.506 174.521 77.178C174.521 77.85 174.647 78.4193 174.899 78.886C175.161 79.3433 175.501 79.6887 175.921 79.922C176.351 80.146 176.817 80.258 177.321 80.258ZM185.968 74.182H184.19V81H183.21V74.182H182.146V73.356H183.21V72.824C183.21 71.9933 183.42 71.382 183.84 70.99C184.269 70.598 184.96 70.402 185.912 70.402V71.242C185.277 71.242 184.829 71.3633 184.568 71.606C184.316 71.8487 184.19 72.2547 184.19 72.824V73.356H185.968V74.182ZM190.521 74.182H188.743V81H187.763V74.182H186.699V73.356H187.763V72.824C187.763 71.9933 187.973 71.382 188.393 70.99C188.822 70.598 189.513 70.402 190.465 70.402V71.242C189.83 71.242 189.382 71.3633 189.121 71.606C188.869 71.8487 188.743 72.2547 188.743 72.824V73.356H190.521V74.182ZM197.179 74.182V78.928C197.179 79.3947 197.268 79.7167 197.445 79.894C197.622 80.0713 197.935 80.16 198.383 80.16H199.279V81H198.229C197.538 81 197.025 80.8413 196.689 80.524C196.353 80.1973 196.185 79.6653 196.185 78.928V74.182H195.121V73.356H196.185V71.438H197.179V73.356H199.279V74.182H197.179ZM204.535 73.216C205.114 73.216 205.632 73.3373 206.089 73.58C206.556 73.8227 206.92 74.196 207.181 74.7C207.452 75.1947 207.587 75.8013 207.587 76.52V81H206.621V76.632C206.621 75.8013 206.411 75.1667 205.991 74.728C205.581 74.2893 205.016 74.07 204.297 74.07C203.56 74.07 202.972 74.3033 202.533 74.77C202.095 75.2367 201.875 75.9227 201.875 76.828V81H200.895V70.64H201.875V74.658C202.118 74.2007 202.473 73.846 202.939 73.594C203.415 73.342 203.947 73.216 204.535 73.216ZM216.671 76.786C216.671 77.122 216.661 77.3787 216.643 77.556H210.301C210.329 78.1347 210.469 78.6293 210.721 79.04C210.973 79.4507 211.304 79.7633 211.715 79.978C212.125 80.1833 212.573 80.286 213.059 80.286C213.693 80.286 214.225 80.132 214.655 79.824C215.093 79.516 215.383 79.1007 215.523 78.578H216.559C216.372 79.3247 215.971 79.936 215.355 80.412C214.748 80.8787 213.983 81.112 213.059 81.112C212.34 81.112 211.696 80.9533 211.127 80.636C210.557 80.3093 210.109 79.852 209.783 79.264C209.465 78.6667 209.307 77.9713 209.307 77.178C209.307 76.3847 209.465 75.6893 209.783 75.092C210.1 74.4947 210.543 74.0373 211.113 73.72C211.682 73.4027 212.331 73.244 213.059 73.244C213.787 73.244 214.421 73.4027 214.963 73.72C215.513 74.0373 215.933 74.4667 216.223 75.008C216.521 75.54 216.671 76.1327 216.671 76.786ZM215.677 76.758C215.686 76.1887 215.569 75.7033 215.327 75.302C215.093 74.9007 214.771 74.5973 214.361 74.392C213.95 74.1867 213.502 74.084 213.017 74.084C212.289 74.084 211.668 74.3173 211.155 74.784C210.641 75.2507 210.357 75.9087 210.301 76.758H215.677ZM19.326 94.244C20.0447 94.244 20.67 94.412 21.202 94.748C21.734 95.084 22.1167 95.5087 22.35 96.022V94.356H23.33V102.196C23.33 102.896 23.176 103.517 22.868 104.058C22.5693 104.599 22.1493 105.015 21.608 105.304C21.0667 105.603 20.4507 105.752 19.76 105.752C18.78 105.752 17.9633 105.519 17.31 105.052C16.666 104.585 16.2647 103.951 16.106 103.148H17.072C17.24 103.68 17.5573 104.105 18.024 104.422C18.5 104.739 19.0787 104.898 19.76 104.898C20.2547 104.898 20.698 104.791 21.09 104.576C21.482 104.371 21.79 104.063 22.014 103.652C22.238 103.241 22.35 102.756 22.35 102.196V100.306C22.1073 100.829 21.72 101.263 21.188 101.608C20.6653 101.944 20.0447 102.112 19.326 102.112C18.626 102.112 17.996 101.949 17.436 101.622C16.8853 101.295 16.4513 100.833 16.134 100.236C15.826 99.6387 15.672 98.948 15.672 98.164C15.672 97.38 15.826 96.694 16.134 96.106C16.4513 95.5087 16.8853 95.0513 17.436 94.734C17.996 94.4073 18.626 94.244 19.326 94.244ZM22.35 98.178C22.35 97.562 22.224 97.0207 21.972 96.554C21.72 96.0873 21.3747 95.728 20.936 95.476C20.5067 95.224 20.0307 95.098 19.508 95.098C18.9667 95.098 18.4813 95.2193 18.052 95.462C17.6227 95.7047 17.282 96.0593 17.03 96.526C16.7873 96.9833 16.666 97.5293 16.666 98.164C16.666 98.7893 16.7873 99.34 17.03 99.816C17.282 100.283 17.6227 100.642 18.052 100.894C18.4813 101.137 18.9667 101.258 19.508 101.258C20.0307 101.258 20.5067 101.132 20.936 100.88C21.3747 100.628 21.72 100.269 21.972 99.802C22.224 99.3353 22.35 98.794 22.35 98.178ZM28.9133 102.112C28.1946 102.112 27.5459 101.953 26.9673 101.636C26.3979 101.309 25.9453 100.852 25.6093 100.264C25.2826 99.6667 25.1193 98.9713 25.1193 98.178C25.1193 97.3847 25.2873 96.694 25.6233 96.106C25.9593 95.5087 26.4166 95.0513 26.9953 94.734C27.5739 94.4073 28.2226 94.244 28.9413 94.244C29.6599 94.244 30.3086 94.4073 30.8873 94.734C31.4753 95.0513 31.9326 95.5087 32.2593 96.106C32.5953 96.694 32.7633 97.3847 32.7633 98.178C32.7633 98.962 32.5953 99.6527 32.2593 100.25C31.9233 100.847 31.4613 101.309 30.8733 101.636C30.2853 101.953 29.6319 102.112 28.9133 102.112ZM28.9133 101.258C29.4173 101.258 29.8839 101.146 30.3133 100.922C30.7426 100.689 31.0879 100.343 31.3493 99.886C31.6199 99.4193 31.7553 98.85 31.7553 98.178C31.7553 97.506 31.6246 96.9413 31.3633 96.484C31.1019 96.0173 30.7566 95.672 30.3273 95.448C29.8979 95.2147 29.4313 95.098 28.9273 95.098C28.4233 95.098 27.9566 95.2147 27.5273 95.448C27.0979 95.672 26.7526 96.0173 26.4913 96.484C26.2393 96.9413 26.1133 97.506 26.1133 98.178C26.1133 98.85 26.2393 99.4193 26.4913 99.886C26.7526 100.343 27.0933 100.689 27.5133 100.922C27.9426 101.146 28.4093 101.258 28.9133 101.258ZM37.8957 102.112C37.177 102.112 36.5284 101.953 35.9497 101.636C35.3804 101.309 34.9277 100.852 34.5917 100.264C34.265 99.6667 34.1017 98.9713 34.1017 98.178C34.1017 97.3847 34.2697 96.694 34.6057 96.106C34.9417 95.5087 35.399 95.0513 35.9777 94.734C36.5564 94.4073 37.205 94.244 37.9237 94.244C38.6424 94.244 39.291 94.4073 39.8697 94.734C40.4577 95.0513 40.915 95.5087 41.2417 96.106C41.5777 96.694 41.7457 97.3847 41.7457 98.178C41.7457 98.962 41.5777 99.6527 41.2417 100.25C40.9057 100.847 40.4437 101.309 39.8557 101.636C39.2677 101.953 38.6144 102.112 37.8957 102.112ZM37.8957 101.258C38.3997 101.258 38.8664 101.146 39.2957 100.922C39.725 100.689 40.0704 100.343 40.3317 99.886C40.6024 99.4193 40.7377 98.85 40.7377 98.178C40.7377 97.506 40.607 96.9413 40.3457 96.484C40.0844 96.0173 39.739 95.672 39.3097 95.448C38.8804 95.2147 38.4137 95.098 37.9097 95.098C37.4057 95.098 36.939 95.2147 36.5097 95.448C36.0804 95.672 35.735 96.0173 35.4737 96.484C35.2217 96.9413 35.0957 97.506 35.0957 98.178C35.0957 98.85 35.2217 99.4193 35.4737 99.886C35.735 100.343 36.0757 100.689 36.4957 100.922C36.925 101.146 37.3917 101.258 37.8957 101.258ZM43.0841 98.164C43.0841 97.38 43.2428 96.694 43.5601 96.106C43.8774 95.5087 44.3114 95.0513 44.8621 94.734C45.4221 94.4073 46.0521 94.244 46.7521 94.244C47.4241 94.244 48.0308 94.4073 48.5721 94.734C49.1134 95.0607 49.5101 95.4853 49.7621 96.008V91.64H50.7421V102H49.7621V100.292C49.5288 100.824 49.1461 101.263 48.6141 101.608C48.0821 101.944 47.4568 102.112 46.7381 102.112C46.0381 102.112 45.4081 101.949 44.8481 101.622C44.2974 101.295 43.8634 100.833 43.5461 100.236C43.2381 99.6387 43.0841 98.948 43.0841 98.164ZM49.7621 98.178C49.7621 97.562 49.6361 97.0207 49.3841 96.554C49.1321 96.0873 48.7868 95.728 48.3481 95.476C47.9188 95.224 47.4428 95.098 46.9201 95.098C46.3788 95.098 45.8934 95.2193 45.4641 95.462C45.0348 95.7047 44.6941 96.0593 44.4421 96.526C44.1994 96.9833 44.0781 97.5293 44.0781 98.164C44.0781 98.7893 44.1994 99.34 44.4421 99.816C44.6941 100.283 45.0348 100.642 45.4641 100.894C45.8934 101.137 46.3788 101.258 46.9201 101.258C47.4428 101.258 47.9188 101.132 48.3481 100.88C48.7868 100.628 49.1321 100.269 49.3841 99.802C49.6361 99.3353 49.7621 98.794 49.7621 98.178ZM66.9012 94.356L64.5072 102H63.5272L61.4132 95.588L59.2992 102H58.3052L55.9112 94.356H56.9052L58.8092 101.006L60.9512 94.356H61.9312L64.0452 101.02L65.9352 94.356H66.9012ZM71.5832 102.112C70.8645 102.112 70.2159 101.953 69.6372 101.636C69.0679 101.309 68.6152 100.852 68.2792 100.264C67.9525 99.6667 67.7892 98.9713 67.7892 98.178C67.7892 97.3847 67.9572 96.694 68.2932 96.106C68.6292 95.5087 69.0865 95.0513 69.6652 94.734C70.2439 94.4073 70.8925 94.244 71.6112 94.244C72.3299 94.244 72.9785 94.4073 73.5572 94.734C74.1452 95.0513 74.6025 95.5087 74.9292 96.106C75.2652 96.694 75.4332 97.3847 75.4332 98.178C75.4332 98.962 75.2652 99.6527 74.9292 100.25C74.5932 100.847 74.1312 101.309 73.5432 101.636C72.9552 101.953 72.3019 102.112 71.5832 102.112ZM71.5832 101.258C72.0872 101.258 72.5539 101.146 72.9832 100.922C73.4125 100.689 73.7579 100.343 74.0192 99.886C74.2899 99.4193 74.4252 98.85 74.4252 98.178C74.4252 97.506 74.2945 96.9413 74.0332 96.484C73.7719 96.0173 73.4265 95.672 72.9972 95.448C72.5679 95.2147 72.1012 95.098 71.5972 95.098C71.0932 95.098 70.6265 95.2147 70.1972 95.448C69.7679 95.672 69.4225 96.0173 69.1612 96.484C68.9092 96.9413 68.7832 97.506 68.7832 98.178C68.7832 98.85 68.9092 99.4193 69.1612 99.886C69.4225 100.343 69.7632 100.689 70.1832 100.922C70.6125 101.146 71.0792 101.258 71.5832 101.258ZM78.1996 95.714C78.4143 95.238 78.7409 94.8693 79.1796 94.608C79.6276 94.3467 80.1736 94.216 80.8176 94.216V95.238H80.5516C79.8423 95.238 79.2729 95.4293 78.8436 95.812C78.4143 96.1947 78.1996 96.834 78.1996 97.73V102H77.2196V94.356H78.1996V95.714ZM86.4219 102L83.2719 98.57V102H82.2919V91.64H83.2719V97.772L86.3519 94.356H87.7239L84.0979 98.164L87.7519 102H86.4219ZM94.1342 95.182V99.928C94.1342 100.395 94.2229 100.717 94.4002 100.894C94.5776 101.071 94.8902 101.16 95.3382 101.16H96.2342V102H95.1842C94.4936 102 93.9802 101.841 93.6442 101.524C93.3082 101.197 93.1402 100.665 93.1402 99.928V95.182H92.0762V94.356H93.1402V92.438H94.1342V94.356H96.2342V95.182H94.1342ZM101.49 94.216C102.069 94.216 102.587 94.3373 103.044 94.58C103.511 94.8227 103.875 95.196 104.136 95.7C104.407 96.1947 104.542 96.8013 104.542 97.52V102H103.576V97.632C103.576 96.8013 103.366 96.1667 102.946 95.728C102.536 95.2893 101.971 95.07 101.252 95.07C100.515 95.07 99.9271 95.3033 99.4885 95.77C99.0498 96.2367 98.8305 96.9227 98.8305 97.828V102H97.8505V91.64H98.8305V95.658C99.0731 95.2007 99.4278 94.846 99.8945 94.594C100.37 94.342 100.902 94.216 101.49 94.216ZM113.626 97.786C113.626 98.122 113.617 98.3787 113.598 98.556H107.256C107.284 99.1347 107.424 99.6293 107.676 100.04C107.928 100.451 108.259 100.763 108.67 100.978C109.081 101.183 109.529 101.286 110.014 101.286C110.649 101.286 111.181 101.132 111.61 100.824C112.049 100.516 112.338 100.101 112.478 99.578H113.514C113.327 100.325 112.926 100.936 112.31 101.412C111.703 101.879 110.938 102.112 110.014 102.112C109.295 102.112 108.651 101.953 108.082 101.636C107.513 101.309 107.065 100.852 106.738 100.264C106.421 99.6667 106.262 98.9713 106.262 98.178C106.262 97.3847 106.421 96.6893 106.738 96.092C107.055 95.4947 107.499 95.0373 108.068 94.72C108.637 94.4027 109.286 94.244 110.014 94.244C110.742 94.244 111.377 94.4027 111.918 94.72C112.469 95.0373 112.889 95.4667 113.178 96.008C113.477 96.54 113.626 97.1327 113.626 97.786ZM112.632 97.758C112.641 97.1887 112.525 96.7033 112.282 96.302C112.049 95.9007 111.727 95.5973 111.316 95.392C110.905 95.1867 110.457 95.084 109.972 95.084C109.244 95.084 108.623 95.3173 108.11 95.784C107.597 96.2507 107.312 96.9087 107.256 97.758H112.632ZM121.719 94.356L117.183 105.598H116.161L117.645 101.958L114.509 94.356H115.587L118.191 100.88L120.711 94.356H121.719ZM123.174 92.214H124.308L123.076 95.238H122.362L123.174 92.214ZM128.525 101.048L131.101 94.356H132.137L129.071 102H127.965L124.899 94.356H125.949L128.525 101.048ZM140.382 97.786C140.382 98.122 140.372 98.3787 140.354 98.556H134.012C134.04 99.1347 134.18 99.6293 134.432 100.04C134.684 100.451 135.015 100.763 135.426 100.978C135.836 101.183 136.284 101.286 136.77 101.286C137.404 101.286 137.936 101.132 138.366 100.824C138.804 100.516 139.094 100.101 139.234 99.578H140.27C140.083 100.325 139.682 100.936 139.066 101.412C138.459 101.879 137.694 102.112 136.77 102.112C136.051 102.112 135.407 101.953 134.838 101.636C134.268 101.309 133.82 100.852 133.494 100.264C133.176 99.6667 133.018 98.9713 133.018 98.178C133.018 97.3847 133.176 96.6893 133.494 96.092C133.811 95.4947 134.254 95.0373 134.824 94.72C135.393 94.4027 136.042 94.244 136.77 94.244C137.498 94.244 138.132 94.4027 138.674 94.72C139.224 95.0373 139.644 95.4667 139.934 96.008C140.232 96.54 140.382 97.1327 140.382 97.786ZM139.388 97.758C139.397 97.1887 139.28 96.7033 139.038 96.302C138.804 95.9007 138.482 95.5973 138.072 95.392C137.661 95.1867 137.213 95.084 136.728 95.084C136 95.084 135.379 95.3173 134.866 95.784C134.352 96.2507 134.068 96.9087 134.012 97.758H139.388ZM146.982 96.05C147.234 95.518 147.622 95.084 148.144 94.748C148.676 94.412 149.302 94.244 150.02 94.244C150.72 94.244 151.346 94.4073 151.896 94.734C152.447 95.0513 152.876 95.5087 153.184 96.106C153.502 96.694 153.66 97.38 153.66 98.164C153.66 98.948 153.502 99.6387 153.184 100.236C152.876 100.833 152.442 101.295 151.882 101.622C151.332 101.949 150.711 102.112 150.02 102.112C149.292 102.112 148.662 101.949 148.13 101.622C147.608 101.286 147.225 100.852 146.982 100.32V102H146.016V91.64H146.982V96.05ZM152.666 98.164C152.666 97.5293 152.54 96.9833 152.288 96.526C152.046 96.0593 151.71 95.7047 151.28 95.462C150.851 95.2193 150.366 95.098 149.824 95.098C149.302 95.098 148.821 95.224 148.382 95.476C147.953 95.728 147.612 96.0873 147.36 96.554C147.108 97.0207 146.982 97.562 146.982 98.178C146.982 98.794 147.108 99.3353 147.36 99.802C147.612 100.269 147.953 100.628 148.382 100.88C148.821 101.132 149.302 101.258 149.824 101.258C150.366 101.258 150.851 101.137 151.28 100.894C151.71 100.642 152.046 100.283 152.288 99.816C152.54 99.34 152.666 98.7893 152.666 98.164ZM162.38 97.786C162.38 98.122 162.37 98.3787 162.352 98.556H156.01C156.038 99.1347 156.178 99.6293 156.43 100.04C156.682 100.451 157.013 100.763 157.424 100.978C157.834 101.183 158.282 101.286 158.768 101.286C159.402 101.286 159.934 101.132 160.364 100.824C160.802 100.516 161.092 100.101 161.232 99.578H162.268C162.081 100.325 161.68 100.936 161.064 101.412C160.457 101.879 159.692 102.112 158.768 102.112C158.049 102.112 157.405 101.953 156.836 101.636C156.266 101.309 155.818 100.852 155.492 100.264C155.174 99.6667 155.016 98.9713 155.016 98.178C155.016 97.3847 155.174 96.6893 155.492 96.092C155.809 95.4947 156.252 95.0373 156.822 94.72C157.391 94.4027 158.04 94.244 158.768 94.244C159.496 94.244 160.13 94.4027 160.672 94.72C161.222 95.0373 161.642 95.4667 161.932 96.008C162.23 96.54 162.38 97.1327 162.38 97.786ZM161.386 97.758C161.395 97.1887 161.278 96.7033 161.036 96.302C160.802 95.9007 160.48 95.5973 160.07 95.392C159.659 95.1867 159.211 95.084 158.726 95.084C157.998 95.084 157.377 95.3173 156.864 95.784C156.35 96.2507 156.066 96.9087 156.01 97.758H161.386ZM171.089 97.786C171.089 98.122 171.079 98.3787 171.061 98.556H164.719C164.747 99.1347 164.887 99.6293 165.139 100.04C165.391 100.451 165.722 100.763 166.133 100.978C166.543 101.183 166.991 101.286 167.477 101.286C168.111 101.286 168.643 101.132 169.073 100.824C169.511 100.516 169.801 100.101 169.941 99.578H170.977C170.79 100.325 170.389 100.936 169.773 101.412C169.166 101.879 168.401 102.112 167.477 102.112C166.758 102.112 166.114 101.953 165.545 101.636C164.975 101.309 164.527 100.852 164.201 100.264C163.883 99.6667 163.725 98.9713 163.725 98.178C163.725 97.3847 163.883 96.6893 164.201 96.092C164.518 95.4947 164.961 95.0373 165.531 94.72C166.1 94.4027 166.749 94.244 167.477 94.244C168.205 94.244 168.839 94.4027 169.381 94.72C169.931 95.0373 170.351 95.4667 170.641 96.008C170.939 96.54 171.089 97.1327 171.089 97.786ZM170.095 97.758C170.104 97.1887 169.987 96.7033 169.745 96.302C169.511 95.9007 169.189 95.5973 168.779 95.392C168.368 95.1867 167.92 95.084 167.435 95.084C166.707 95.084 166.086 95.3173 165.573 95.784C165.059 96.2507 164.775 96.9087 164.719 97.758H170.095ZM176.466 94.216C177.38 94.216 178.127 94.5007 178.706 95.07C179.284 95.63 179.574 96.4467 179.574 97.52V102H178.608V97.632C178.608 96.8013 178.398 96.1667 177.978 95.728C177.567 95.2893 177.002 95.07 176.284 95.07C175.546 95.07 174.958 95.3033 174.52 95.77C174.081 96.2367 173.862 96.9227 173.862 97.828V102H172.882V94.356H173.862V95.658C174.104 95.1913 174.454 94.8367 174.912 94.594C175.369 94.342 175.887 94.216 176.466 94.216ZM185.135 98.164C185.135 97.38 185.294 96.694 185.611 96.106C185.928 95.5087 186.362 95.0513 186.913 94.734C187.473 94.4073 188.103 94.244 188.803 94.244C189.475 94.244 190.082 94.4073 190.623 94.734C191.164 95.0607 191.561 95.4853 191.813 96.008V91.64H192.793V102H191.813V100.292C191.58 100.824 191.197 101.263 190.665 101.608C190.133 101.944 189.508 102.112 188.789 102.112C188.089 102.112 187.459 101.949 186.899 101.622C186.348 101.295 185.914 100.833 185.597 100.236C185.289 99.6387 185.135 98.948 185.135 98.164ZM191.813 98.178C191.813 97.562 191.687 97.0207 191.435 96.554C191.183 96.0873 190.838 95.728 190.399 95.476C189.97 95.224 189.494 95.098 188.971 95.098C188.43 95.098 187.944 95.2193 187.515 95.462C187.086 95.7047 186.745 96.0593 186.493 96.526C186.25 96.9833 186.129 97.5293 186.129 98.164C186.129 98.7893 186.25 99.34 186.493 99.816C186.745 100.283 187.086 100.642 187.515 100.894C187.944 101.137 188.43 101.258 188.971 101.258C189.494 101.258 189.97 101.132 190.399 100.88C190.838 100.628 191.183 100.269 191.435 99.802C191.687 99.3353 191.813 98.794 191.813 98.178ZM198.376 102.112C197.657 102.112 197.009 101.953 196.43 101.636C195.861 101.309 195.408 100.852 195.072 100.264C194.745 99.6667 194.582 98.9713 194.582 98.178C194.582 97.3847 194.75 96.694 195.086 96.106C195.422 95.5087 195.879 95.0513 196.458 94.734C197.037 94.4073 197.685 94.244 198.404 94.244C199.123 94.244 199.771 94.4073 200.35 94.734C200.938 95.0513 201.395 95.5087 201.722 96.106C202.058 96.694 202.226 97.3847 202.226 98.178C202.226 98.962 202.058 99.6527 201.722 100.25C201.386 100.847 200.924 101.309 200.336 101.636C199.748 101.953 199.095 102.112 198.376 102.112ZM198.376 101.258C198.88 101.258 199.347 101.146 199.776 100.922C200.205 100.689 200.551 100.343 200.812 99.886C201.083 99.4193 201.218 98.85 201.218 98.178C201.218 97.506 201.087 96.9413 200.826 96.484C200.565 96.0173 200.219 95.672 199.79 95.448C199.361 95.2147 198.894 95.098 198.39 95.098C197.886 95.098 197.419 95.2147 196.99 95.448C196.561 95.672 196.215 96.0173 195.954 96.484C195.702 96.9413 195.576 97.506 195.576 98.178C195.576 98.85 195.702 99.4193 195.954 99.886C196.215 100.343 196.556 100.689 196.976 100.922C197.405 101.146 197.872 101.258 198.376 101.258ZM204.503 92.914C204.307 92.914 204.139 92.844 203.999 92.704C203.859 92.564 203.789 92.3913 203.789 92.186C203.789 91.9807 203.859 91.8127 203.999 91.682C204.139 91.542 204.307 91.472 204.503 91.472C204.699 91.472 204.867 91.542 205.007 91.682C205.147 91.8127 205.217 91.9807 205.217 92.186C205.217 92.3913 205.147 92.564 205.007 92.704C204.867 92.844 204.699 92.914 204.503 92.914ZM204.993 94.356V102H204.013V94.356H204.993ZM210.796 94.216C211.71 94.216 212.457 94.5007 213.036 95.07C213.614 95.63 213.904 96.4467 213.904 97.52V102H212.938V97.632C212.938 96.8013 212.728 96.1667 212.308 95.728C211.897 95.2893 211.332 95.07 210.614 95.07C209.876 95.07 209.288 95.3033 208.85 95.77C208.411 96.2367 208.192 96.9227 208.192 97.828V102H207.212V94.356H208.192V95.658C208.434 95.1913 208.784 94.8367 209.242 94.594C209.699 94.342 210.217 94.216 210.796 94.216ZM219.277 94.244C219.996 94.244 220.621 94.412 221.153 94.748C221.685 95.084 222.068 95.5087 222.301 96.022V94.356H223.281V102.196C223.281 102.896 223.127 103.517 222.819 104.058C222.521 104.599 222.101 105.015 221.559 105.304C221.018 105.603 220.402 105.752 219.711 105.752C218.731 105.752 217.915 105.519 217.261 105.052C216.617 104.585 216.216 103.951 216.057 103.148H217.023C217.191 103.68 217.509 104.105 217.975 104.422C218.451 104.739 219.03 104.898 219.711 104.898C220.206 104.898 220.649 104.791 221.041 104.576C221.433 104.371 221.741 104.063 221.965 103.652C222.189 103.241 222.301 102.756 222.301 102.196V100.306C222.059 100.829 221.671 101.263 221.139 101.608C220.617 101.944 219.996 102.112 219.277 102.112C218.577 102.112 217.947 101.949 217.387 101.622C216.837 101.295 216.403 100.833 216.085 100.236C215.777 99.6387 215.623 98.948 215.623 98.164C215.623 97.38 215.777 96.694 216.085 96.106C216.403 95.5087 216.837 95.0513 217.387 94.734C217.947 94.4073 218.577 94.244 219.277 94.244ZM222.301 98.178C222.301 97.562 222.175 97.0207 221.923 96.554C221.671 96.0873 221.326 95.728 220.887 95.476C220.458 95.224 219.982 95.098 219.459 95.098C218.918 95.098 218.433 95.2193 218.003 95.462C217.574 95.7047 217.233 96.0593 216.981 96.526C216.739 96.9833 216.617 97.5293 216.617 98.164C216.617 98.7893 216.739 99.34 216.981 99.816C217.233 100.283 217.574 100.642 218.003 100.894C218.433 101.137 218.918 101.258 219.459 101.258C219.982 101.258 220.458 101.132 220.887 100.88C221.326 100.628 221.671 100.269 221.923 99.802C222.175 99.3353 222.301 98.794 222.301 98.178ZM17.394 116.182V120.928C17.394 121.395 17.4827 121.717 17.66 121.894C17.8373 122.071 18.15 122.16 18.598 122.16H19.494V123H18.444C17.7533 123 17.24 122.841 16.904 122.524C16.568 122.197 16.4 121.665 16.4 120.928V116.182H15.336V115.356H16.4V113.438H17.394V115.356H19.494V116.182H17.394ZM24.4562 123.112C23.7376 123.112 23.0889 122.953 22.5102 122.636C21.9409 122.309 21.4882 121.852 21.1522 121.264C20.8256 120.667 20.6622 119.971 20.6622 119.178C20.6622 118.385 20.8302 117.694 21.1662 117.106C21.5022 116.509 21.9596 116.051 22.5382 115.734C23.1169 115.407 23.7656 115.244 24.4842 115.244C25.2029 115.244 25.8516 115.407 26.4302 115.734C27.0182 116.051 27.4756 116.509 27.8022 117.106C28.1382 117.694 28.3062 118.385 28.3062 119.178C28.3062 119.962 28.1382 120.653 27.8022 121.25C27.4662 121.847 27.0042 122.309 26.4162 122.636C25.8282 122.953 25.1749 123.112 24.4562 123.112ZM24.4562 122.258C24.9602 122.258 25.4269 122.146 25.8562 121.922C26.2856 121.689 26.6309 121.343 26.8922 120.886C27.1629 120.419 27.2982 119.85 27.2982 119.178C27.2982 118.506 27.1676 117.941 26.9062 117.484C26.6449 117.017 26.2996 116.672 25.8702 116.448C25.4409 116.215 24.9742 116.098 24.4702 116.098C23.9662 116.098 23.4996 116.215 23.0702 116.448C22.6409 116.672 22.2956 117.017 22.0342 117.484C21.7822 117.941 21.6562 118.506 21.6562 119.178C21.6562 119.85 21.7822 120.419 22.0342 120.886C22.2956 121.343 22.6362 121.689 23.0562 121.922C23.4856 122.146 23.9522 122.258 24.4562 122.258ZM33.4387 123.112C32.72 123.112 32.0713 122.953 31.4927 122.636C30.9233 122.309 30.4707 121.852 30.1347 121.264C29.808 120.667 29.6447 119.971 29.6447 119.178C29.6447 118.385 29.8127 117.694 30.1487 117.106C30.4847 116.509 30.942 116.051 31.5207 115.734C32.0993 115.407 32.748 115.244 33.4667 115.244C34.1853 115.244 34.834 115.407 35.4127 115.734C36.0007 116.051 36.458 116.509 36.7847 117.106C37.1207 117.694 37.2887 118.385 37.2887 119.178C37.2887 119.962 37.1207 120.653 36.7847 121.25C36.4487 121.847 35.9867 122.309 35.3987 122.636C34.8107 122.953 34.1573 123.112 33.4387 123.112ZM33.4387 122.258C33.9427 122.258 34.4093 122.146 34.8387 121.922C35.268 121.689 35.6133 121.343 35.8747 120.886C36.1453 120.419 36.2807 119.85 36.2807 119.178C36.2807 118.506 36.15 117.941 35.8887 117.484C35.6273 117.017 35.282 116.672 34.8527 116.448C34.4233 116.215 33.9567 116.098 33.4527 116.098C32.9487 116.098 32.482 116.215 32.0527 116.448C31.6233 116.672 31.278 117.017 31.0167 117.484C30.7647 117.941 30.6387 118.506 30.6387 119.178C30.6387 119.85 30.7647 120.419 31.0167 120.886C31.278 121.343 31.6187 121.689 32.0387 121.922C32.468 122.146 32.9347 122.258 33.4387 122.258ZM39.2431 123.07C39.0377 123.07 38.8651 123 38.7251 122.86C38.5944 122.72 38.5291 122.547 38.5291 122.342C38.5291 122.137 38.5944 121.969 38.7251 121.838C38.8651 121.698 39.0377 121.628 39.2431 121.628C39.4391 121.628 39.6024 121.698 39.7331 121.838C39.8731 121.969 39.9431 122.137 39.9431 122.342C39.9431 122.547 39.8731 122.72 39.7331 122.86C39.6024 123 39.4391 123.07 39.2431 123.07Z" fill="white"/>
</svg>
