<svg width="107" height="42" viewBox="0 0 107 42" fill="none" xmlns="http://www.w3.org/2000/svg">
<g clip-path="url(#clip0)">
<path d="M48.5511 0.0129395H22.6787V25.8854H48.5511V0.0129395Z" fill="#333333"/>
<path d="M65.5655 36.7124C65.5655 36.8655 65.5584 37.0174 65.5466 37.1705C65.5337 37.3236 65.5148 37.4755 65.4901 37.6286H57.8391C58.0169 38.0867 58.2842 38.4589 58.6399 38.745C58.9967 39.0312 59.3912 39.2161 59.8234 39.2985C60.2556 39.3821 60.6877 39.3562 61.1211 39.222C61.5533 39.0889 61.9348 38.8369 62.2658 38.4683H65.2616C64.906 39.4857 64.3843 40.2712 63.6966 40.8247C63.01 41.3782 62.2587 41.7338 61.445 41.8928C60.6312 42.0518 59.8104 42.0235 58.9837 41.8068C58.157 41.5913 57.4293 41.2157 56.7992 40.681C56.1704 40.1464 55.6899 39.4693 55.359 38.6496C55.0281 37.8288 54.9515 36.8914 55.1305 35.8351C55.3083 34.7788 55.6899 33.9179 56.2752 33.2502C56.8605 32.5825 57.5411 32.102 58.316 31.81C59.0921 31.5179 59.9058 31.4061 60.7584 31.4755C61.6098 31.5462 62.3929 31.79 63.1054 32.2104C63.8179 32.6308 64.4055 33.2184 64.8707 33.9756C65.3335 34.7317 65.5655 35.6443 65.5655 36.7124ZM58.3148 34.9955H62.3023C62.0349 34.6905 61.7264 34.4585 61.3766 34.2995C61.0269 34.1405 60.6701 34.0604 60.3085 34.0604C59.9458 34.0604 59.5902 34.1405 59.2404 34.2995C58.8907 34.4585 58.5821 34.6905 58.3148 34.9955Z" fill="#333333"/>
<path d="M70.024 31.8087V32.1714C70.6092 31.8405 71.2075 31.6273 71.8175 31.5319C72.4275 31.4365 73.0257 31.4436 73.611 31.5508C74.1963 31.6591 74.7486 31.8628 75.2715 32.162C75.7931 32.4611 76.2477 32.8367 76.6363 33.2878C77.0238 33.74 77.3323 34.2546 77.5619 34.8328C77.7904 35.4122 77.9058 36.0375 77.9058 36.7123V36.7311V41.2721V41.9786H75.2726V36.7311C75.2726 36.3755 75.2055 36.0352 75.0724 35.7101C74.9382 35.3863 74.7509 35.106 74.5095 34.8705C74.2681 34.635 73.9878 34.4477 73.6699 34.3076C73.3519 34.1675 73.0081 34.098 72.6395 34.098C72.2826 34.098 71.9494 34.1651 71.6373 34.2982C71.3252 34.4312 71.052 34.6126 70.8165 34.8422C70.581 35.0707 70.3937 35.338 70.2536 35.643C70.1135 35.948 70.0369 36.2731 70.024 36.6157V36.6346V36.7111V36.73V41.2709V41.9775H67.392V31.466H70.024V31.8087Z" fill="#333333"/>
<path d="M89.9375 34.9389H86.9417C86.5342 34.4937 86.0667 34.2205 85.5391 34.1181C85.0115 34.0168 84.5122 34.0545 84.0412 34.2323C83.5701 34.4101 83.1697 34.7128 82.8388 35.1391C82.5079 35.5654 82.343 36.0835 82.343 36.6935C82.343 37.2918 82.5079 37.8029 82.8388 38.2292C83.1697 38.6555 83.5701 38.9605 84.0412 39.1454C84.511 39.3302 85.0103 39.3715 85.5391 39.269C86.0667 39.1677 86.5342 38.8933 86.9417 38.4482H89.9375C89.6066 39.3774 89.1273 40.1145 88.4973 40.661C87.8673 41.2086 87.1736 41.5795 86.4176 41.7774C85.6604 41.974 84.8879 42.0058 84.0989 41.8727C83.3099 41.7397 82.5915 41.4535 81.9426 41.0143C81.2938 40.575 80.7626 39.9909 80.3493 39.2584C79.936 38.5271 79.7287 37.6722 79.7287 36.6924C79.7287 35.7126 79.936 34.8576 80.3493 34.1263C80.7626 33.395 81.2938 32.8097 81.9426 32.3717C82.5915 31.9324 83.3099 31.6462 84.0989 31.5132C84.8867 31.3801 85.6604 31.4119 86.4176 31.6086C87.1736 31.8052 87.8673 32.1774 88.4973 32.725C89.1273 33.2725 89.6066 34.0097 89.9375 34.9389Z" fill="#333333"/>
<path d="M102.294 36.7124C102.294 36.8655 102.287 37.0174 102.276 37.1705C102.263 37.3236 102.244 37.4755 102.219 37.6286H94.5679C94.7458 38.0867 95.0131 38.4589 95.3687 38.745C95.7256 39.0312 96.1201 39.2161 96.5522 39.2985C96.9844 39.3821 97.4166 39.3562 97.85 39.222C98.2822 39.0889 98.6637 38.8369 98.9946 38.4683H101.991C101.635 39.4857 101.113 40.2712 100.425 40.8247C99.7389 41.3782 98.9876 41.7338 98.1738 41.8928C97.3601 42.0518 96.5393 42.0235 95.7126 41.8068C94.8859 41.5913 94.1581 41.2157 93.5281 40.681C92.8993 40.1464 92.4188 39.4693 92.0879 38.6496C91.757 37.8288 91.6804 36.8914 91.8594 35.8351C92.0372 34.7788 92.4188 33.9179 93.0041 33.2502C93.5893 32.5825 94.27 32.102 95.0449 31.81C95.8209 31.5179 96.6347 31.4061 97.4873 31.4755C98.3387 31.5462 99.1218 31.79 99.8343 32.2104C100.547 32.6308 101.134 33.2184 101.6 33.9756C102.061 34.7317 102.294 35.6443 102.294 36.7124ZM95.0437 34.9955H99.0311C98.7638 34.6905 98.4553 34.4585 98.1055 34.2995C97.7558 34.1405 97.399 34.0604 97.0374 34.0604C96.6747 34.0604 96.3191 34.1405 95.9693 34.2995C95.6184 34.4585 95.311 34.6905 95.0437 34.9955Z" fill="#333333"/>
<path d="M106.753 41.9786H104.12V29.073H106.753V41.9786Z" fill="#333333"/>
<path d="M65.5667 24.0872V25.8431H62.9336V24.0872C62.9336 23.7316 62.8629 23.3913 62.724 23.0662C62.5838 22.7424 62.3966 22.4621 62.161 22.2266C61.9255 21.9911 61.6452 21.8038 61.3214 21.6637C60.9975 21.5236 60.656 21.4541 60.3004 21.4541C59.9318 21.4541 59.5879 21.5236 59.27 21.6637C58.952 21.8038 58.6753 21.9911 58.4398 22.2266C58.2042 22.4621 58.017 22.7412 57.8768 23.0662C57.7367 23.3901 57.6672 23.7316 57.6672 24.0872V25.8431H55.0341V20.5767V12.9504H57.6672V16.0358V19.5275L61.8655 15.3304H65.5667L61.8454 19.0706C62.3919 19.2354 62.8947 19.4839 63.3528 19.8148C63.8109 20.1457 64.2054 20.5308 64.5363 20.9689C64.8672 21.4081 65.1204 21.8945 65.2994 22.428C65.4772 22.9614 65.5667 23.5149 65.5667 24.0872Z" fill="#333333"/>
<path d="M91.2648 20.5956V25.8431H88.6316V20.6085C88.6316 20.2399 88.561 19.8972 88.422 19.5804C88.2819 19.2637 88.0946 18.9846 87.8591 18.7432C87.6236 18.5029 87.3445 18.3157 87.0194 18.1814C86.6956 18.0484 86.3541 17.9812 85.9984 17.9812C85.6416 17.9812 85.3084 18.0448 84.9963 18.172C84.6842 18.2992 84.411 18.477 84.1755 18.7043C83.94 18.9328 83.7492 19.1989 83.6032 19.5039C83.4571 19.8089 83.377 20.1386 83.3653 20.4943V20.5131V20.5708V20.6085V25.1388V25.8431H80.7321V20.6085C80.7321 20.2399 80.665 19.8972 80.5319 19.5804C80.3977 19.2637 80.2104 18.9846 79.969 18.7432C79.7276 18.5029 79.4473 18.3157 79.1294 18.1814C78.8114 18.0484 78.4746 17.9812 78.1178 17.9812C77.7492 17.9812 77.4053 18.0484 77.0874 18.1814C76.7694 18.3145 76.4927 18.4982 76.2571 18.7337C76.0216 18.9681 75.8332 19.2448 75.6942 19.5616C75.5541 19.8784 75.4846 20.2152 75.4846 20.5708V20.6085V20.7039V25.1388V25.8431H72.8514V15.3304H75.4858V15.6766V16.0417C76.0204 15.7214 76.5857 15.5106 77.1839 15.4081C77.7822 15.3057 78.3698 15.3021 78.9492 15.3987C79.5286 15.4953 80.0844 15.686 80.6191 15.9734C81.1537 16.2607 81.6306 16.6399 82.0499 17.111C82.6728 16.4115 83.3759 15.9216 84.1578 15.6389C84.9398 15.3575 85.7252 15.2609 86.5142 15.3504C86.6037 15.3634 86.6862 15.3728 86.7627 15.3787C86.8393 15.3857 86.9146 15.4011 86.9924 15.427C87.056 15.427 87.1254 15.4399 87.202 15.4646C87.2408 15.4776 87.2809 15.487 87.3256 15.4929C87.3704 15.5 87.4116 15.5094 87.4493 15.5212C87.8308 15.6354 88.2124 15.8014 88.5939 16.017L88.8224 16.1312C88.886 16.1689 88.9402 16.2077 88.9849 16.2454C89.0297 16.2831 89.0838 16.322 89.1474 16.3596C89.1981 16.3973 89.2616 16.455 89.3382 16.5316C89.7963 16.9002 90.1814 17.3394 90.4923 17.8482C90.8043 18.3569 91.0234 18.9163 91.1506 19.5275C91.1635 19.591 91.1824 19.6735 91.2083 19.7759C91.2448 20.0421 91.2648 20.3153 91.2648 20.5956Z" fill="#333333"/>
<path d="M70.5197 15.3101H66.8373V17.9597H70.5197V15.3101Z" fill="#333333"/>
<path d="M70.5197 17.0093H67.8477V25.8415H70.5197V17.0093Z" fill="#333333"/>
<path d="M68.9452 14.5328C69.6008 14.5328 70.1323 14.0013 70.1323 13.3457C70.1323 12.6902 69.6008 12.1587 68.9452 12.1587C68.2896 12.1587 67.7582 12.6902 67.7582 13.3457C67.7582 14.0013 68.2896 14.5328 68.9452 14.5328Z" fill="#333333"/>
<path d="M22.6599 41.9234V36.9751C22.6599 27.2585 14.7828 19.3813 5.06619 19.3813H0.0212402V41.9234H22.6599Z" fill="#333333"/>
<path d="M41.9729 35.5315V42.0002H38.6944C29.8634 42.0002 22.6787 34.8131 22.6787 25.9821V25.8867H29.1474V25.9821C29.1474 31.2473 33.4316 35.5315 38.6944 35.5315H41.9729Z" fill="#333333"/>
<path d="M10.82 0V0.170756C10.82 5.43592 6.53817 9.72012 1.27537 9.72012H0V16.1888H1.27537C10.1064 16.1888 17.2887 9.00412 17.2887 0.170756V0H10.82Z" fill="#333333"/>
</g>
<defs>
<clipPath id="clip0">
<rect width="106.753" height="42" fill="white"/>
</clipPath>
</defs>
</svg>
