<svg width="24" height="18" viewBox="0 0 24 18" fill="none" xmlns="http://www.w3.org/2000/svg">
<path d="M0.075 2.3325L12 9.621L23.925 2.3325C23.7738 1.66986 23.402 1.07822 22.8706 0.654463C22.3392 0.230706 21.6797 -4.57416e-05 21 6.80121e-09H3C2.32033 -4.57416e-05 1.66078 0.230706 1.12938 0.654463C0.597983 1.07822 0.226227 1.66986 0.075 2.3325ZM24 4.0455L15.1875 9.4305L24 14.6145V4.0455ZM23.748 16.2075L13.7355 10.3185L12 11.379L10.2645 10.3185L0.252 16.2075C0.48651 16.7409 0.871254 17.1944 1.35925 17.5127C1.84724 17.831 2.41737 18.0003 3 18H21C21.5826 18.0003 22.1528 17.831 22.6408 17.5127C23.1287 17.1944 23.5135 16.7409 23.748 16.2075ZM0 14.6145L8.8125 9.4305L0 4.0455V14.6145Z" fill="#333333"/>
</svg>
