<svg width="16" height="25" viewBox="0 0 16 25" fill="none" xmlns="http://www.w3.org/2000/svg">
<path d="M0 3.05C0 2.24109 0.321338 1.46531 0.893324 0.893324C1.46531 0.321338 2.24109 0 3.05 0L12.2 0C13.0089 0 13.7847 0.321338 14.3567 0.893324C14.9287 1.46531 15.25 2.24109 15.25 3.05V21.35C15.25 22.1589 14.9287 22.9347 14.3567 23.5067C13.7847 24.0787 13.0089 24.4 12.2 24.4H3.05C2.24109 24.4 1.46531 24.0787 0.893324 23.5067C0.321338 22.9347 0 22.1589 0 21.35V3.05ZM9.15 19.825C9.15 19.4205 8.98933 19.0327 8.70334 18.7467C8.41734 18.4607 8.02946 18.3 7.625 18.3C7.22054 18.3 6.83266 18.4607 6.54666 18.7467C6.26067 19.0327 6.1 19.4205 6.1 19.825C6.1 20.2295 6.26067 20.6173 6.54666 20.9033C6.83266 21.1893 7.22054 21.35 7.625 21.35C8.02946 21.35 8.41734 21.1893 8.70334 20.9033C8.98933 20.6173 9.15 20.2295 9.15 19.825Z" fill="#333333"/>
</svg>
