<svg width="25" height="25" viewBox="0 0 25 25" fill="none" xmlns="http://www.w3.org/2000/svg">
<rect y="25" width="25" height="25" rx="12.5" transform="rotate(-90 0 25)" fill="#3D37CD"/>
<path d="M13.5459 14.2896H11.5537L11.2715 5.91406H13.8281L13.5459 14.2896ZM12.5498 15.6011C12.9538 15.6011 13.2775 15.7201 13.521 15.958C13.77 16.196 13.8945 16.5003 13.8945 16.8711C13.8945 17.2363 13.77 17.5379 13.521 17.7759C13.2775 18.0138 12.9538 18.1328 12.5498 18.1328C12.1514 18.1328 11.8276 18.0138 11.5786 17.7759C11.3351 17.5379 11.2134 17.2363 11.2134 16.8711C11.2134 16.5059 11.3351 16.2043 11.5786 15.9663C11.8276 15.7228 12.1514 15.6011 12.5498 15.6011Z" fill="white"/>
</svg>
