<svg width="255" height="146" viewBox="0 0 255 146" fill="none" xmlns="http://www.w3.org/2000/svg">
<path d="M202.192 142.858C202.528 143.693 203.711 143.693 204.047 142.858L210.465 126.914C210.729 126.257 210.246 125.54 209.537 125.54L196.702 125.54C195.994 125.54 195.51 126.257 195.775 126.914L202.192 142.858Z" fill="#3D37CD"/>
<rect width="255" height="132" rx="20" transform="matrix(-1 0 0 1 255 0)" fill="#3D37CD"/>
<path d="M26.328 31L23.906 26.912H22.1V31H21.12V21.214H24.06C25.152 21.214 25.978 21.4753 26.538 21.998C27.1073 22.5207 27.392 23.2067 27.392 24.056C27.392 24.7653 27.1867 25.372 26.776 25.876C26.3747 26.3707 25.7773 26.6927 24.984 26.842L27.504 31H26.328ZM22.1 26.114H24.074C24.8393 26.114 25.4133 25.9273 25.796 25.554C26.188 25.1807 26.384 24.6813 26.384 24.056C26.384 23.412 26.1973 22.9173 25.824 22.572C25.4507 22.2173 24.8627 22.04 24.06 22.04H22.1V26.114ZM36.2528 26.786C36.2528 27.122 36.2435 27.3787 36.2248 27.556H29.8828C29.9108 28.1347 30.0508 28.6293 30.3028 29.04C30.5548 29.4507 30.8861 29.7633 31.2968 29.978C31.7075 30.1833 32.1555 30.286 32.6408 30.286C33.2755 30.286 33.8075 30.132 34.2368 29.824C34.6755 29.516 34.9648 29.1007 35.1048 28.578H36.1408C35.9541 29.3247 35.5528 29.936 34.9368 30.412C34.3301 30.8787 33.5648 31.112 32.6408 31.112C31.9221 31.112 31.2781 30.9533 30.7088 30.636C30.1395 30.3093 29.6915 29.852 29.3648 29.264C29.0475 28.6667 28.8888 27.9713 28.8888 27.178C28.8888 26.3847 29.0475 25.6893 29.3648 25.092C29.6821 24.4947 30.1255 24.0373 30.6948 23.72C31.2641 23.4027 31.9128 23.244 32.6408 23.244C33.3688 23.244 34.0035 23.4027 34.5448 23.72C35.0955 24.0373 35.5155 24.4667 35.8048 25.008C36.1035 25.54 36.2528 26.1327 36.2528 26.786ZM35.2588 26.758C35.2681 26.1887 35.1515 25.7033 34.9088 25.302C34.6755 24.9007 34.3535 24.5973 33.9428 24.392C33.5321 24.1867 33.0841 24.084 32.5988 24.084C31.8708 24.084 31.2501 24.3173 30.7368 24.784C30.2235 25.2507 29.9388 25.9087 29.8828 26.758H35.2588ZM41.0558 24.182H39.2778V31H38.2978V24.182H37.2338V23.356H38.2978V22.824C38.2978 21.9933 38.5078 21.382 38.9278 20.99C39.3571 20.598 40.0478 20.402 40.9998 20.402V21.242C40.3651 21.242 39.9171 21.3633 39.6558 21.606C39.4038 21.8487 39.2778 22.2547 39.2778 22.824V23.356H41.0558V24.182ZM43.0885 21.914C42.8925 21.914 42.7245 21.844 42.5845 21.704C42.4445 21.564 42.3745 21.3913 42.3745 21.186C42.3745 20.9807 42.4445 20.8127 42.5845 20.682C42.7245 20.542 42.8925 20.472 43.0885 20.472C43.2845 20.472 43.4525 20.542 43.5925 20.682C43.7325 20.8127 43.8025 20.9807 43.8025 21.186C43.8025 21.3913 43.7325 21.564 43.5925 21.704C43.4525 21.844 43.2845 21.914 43.0885 21.914ZM43.5785 23.356V31H42.5985V23.356H43.5785ZM49.3817 23.216C50.2964 23.216 51.0431 23.5007 51.6217 24.07C52.2004 24.63 52.4897 25.4467 52.4897 26.52V31H51.5237V26.632C51.5237 25.8013 51.3137 25.1667 50.8937 24.728C50.4831 24.2893 49.9184 24.07 49.1997 24.07C48.4624 24.07 47.8744 24.3033 47.4357 24.77C46.9971 25.2367 46.7777 25.9227 46.7777 26.828V31H45.7977V23.356H46.7777V24.658C47.0204 24.1913 47.3704 23.8367 47.8277 23.594C48.2851 23.342 48.8031 23.216 49.3817 23.216ZM61.5731 26.786C61.5731 27.122 61.5638 27.3787 61.5451 27.556H55.2031C55.2311 28.1347 55.3711 28.6293 55.6231 29.04C55.8751 29.4507 56.2064 29.7633 56.6171 29.978C57.0278 30.1833 57.4758 30.286 57.9611 30.286C58.5958 30.286 59.1278 30.132 59.5571 29.824C59.9958 29.516 60.2851 29.1007 60.4251 28.578H61.4611C61.2744 29.3247 60.8731 29.936 60.2571 30.412C59.6504 30.8787 58.8851 31.112 57.9611 31.112C57.2424 31.112 56.5984 30.9533 56.0291 30.636C55.4598 30.3093 55.0118 29.852 54.6851 29.264C54.3678 28.6667 54.2091 27.9713 54.2091 27.178C54.2091 26.3847 54.3678 25.6893 54.6851 25.092C55.0024 24.4947 55.4458 24.0373 56.0151 23.72C56.5844 23.4027 57.2331 23.244 57.9611 23.244C58.6891 23.244 59.3238 23.4027 59.8651 23.72C60.4158 24.0373 60.8358 24.4667 61.1251 25.008C61.4238 25.54 61.5731 26.1327 61.5731 26.786ZM60.5791 26.758C60.5884 26.1887 60.4718 25.7033 60.2291 25.302C59.9958 24.9007 59.6738 24.5973 59.2631 24.392C58.8524 24.1867 58.4044 24.084 57.9191 24.084C57.1911 24.084 56.5704 24.3173 56.0571 24.784C55.5438 25.2507 55.2591 25.9087 55.2031 26.758H60.5791ZM73.5079 23.356L68.9719 34.598H67.9499L69.4339 30.958L66.2979 23.356H67.3759L69.9799 29.88L72.4999 23.356H73.5079ZM78.1828 31.112C77.4641 31.112 76.8155 30.9533 76.2368 30.636C75.6675 30.3093 75.2148 29.852 74.8788 29.264C74.5521 28.6667 74.3888 27.9713 74.3888 27.178C74.3888 26.3847 74.5568 25.694 74.8928 25.106C75.2288 24.5087 75.6861 24.0513 76.2648 23.734C76.8435 23.4073 77.4921 23.244 78.2108 23.244C78.9295 23.244 79.5781 23.4073 80.1568 23.734C80.7448 24.0513 81.2021 24.5087 81.5288 25.106C81.8648 25.694 82.0328 26.3847 82.0328 27.178C82.0328 27.962 81.8648 28.6527 81.5288 29.25C81.1928 29.8473 80.7308 30.3093 80.1428 30.636C79.5548 30.9533 78.9015 31.112 78.1828 31.112ZM78.1828 30.258C78.6868 30.258 79.1535 30.146 79.5828 29.922C80.0121 29.6887 80.3575 29.3433 80.6188 28.886C80.8895 28.4193 81.0248 27.85 81.0248 27.178C81.0248 26.506 80.8941 25.9413 80.6328 25.484C80.3715 25.0173 80.0261 24.672 79.5968 24.448C79.1675 24.2147 78.7008 24.098 78.1968 24.098C77.6928 24.098 77.2261 24.2147 76.7968 24.448C76.3675 24.672 76.0221 25.0173 75.7608 25.484C75.5088 25.9413 75.3828 26.506 75.3828 27.178C75.3828 27.85 75.5088 28.4193 75.7608 28.886C76.0221 29.3433 76.3628 29.6887 76.7828 29.922C77.2121 30.146 77.6788 30.258 78.1828 30.258ZM90.4412 23.356V31H89.4612V29.656C89.2372 30.132 88.8919 30.496 88.4252 30.748C87.9586 31 87.4359 31.126 86.8572 31.126C85.9426 31.126 85.1959 30.846 84.6172 30.286C84.0386 29.7167 83.7492 28.8953 83.7492 27.822V23.356H84.7152V27.71C84.7152 28.5407 84.9206 29.1753 85.3312 29.614C85.7512 30.0527 86.3206 30.272 87.0392 30.272C87.7766 30.272 88.3646 30.0387 88.8032 29.572C89.2419 29.1053 89.4612 28.4193 89.4612 27.514V23.356H90.4412ZM93.6586 24.714C93.8733 24.238 94.1999 23.8693 94.6386 23.608C95.0866 23.3467 95.6326 23.216 96.2766 23.216V24.238H96.0106C95.3013 24.238 94.7319 24.4293 94.3026 24.812C93.8733 25.1947 93.6586 25.834 93.6586 26.73V31H92.6786V23.356H93.6586V24.714ZM102.559 25.036C102.801 24.5227 103.184 24.098 103.707 23.762C104.239 23.4167 104.869 23.244 105.597 23.244C106.287 23.244 106.908 23.4073 107.459 23.734C108.019 24.0513 108.453 24.5087 108.761 25.106C109.078 25.694 109.237 26.38 109.237 27.164C109.237 27.948 109.078 28.6387 108.761 29.236C108.453 29.8333 108.019 30.2953 107.459 30.622C106.908 30.9487 106.287 31.112 105.597 31.112C104.878 31.112 104.253 30.944 103.721 30.608C103.189 30.2627 102.801 29.8333 102.559 29.32V34.612H101.593V23.356H102.559V25.036ZM108.243 27.164C108.243 26.5293 108.117 25.9833 107.865 25.526C107.622 25.0593 107.286 24.7047 106.857 24.462C106.427 24.2193 105.942 24.098 105.401 24.098C104.878 24.098 104.397 24.224 103.959 24.476C103.529 24.728 103.189 25.0873 102.937 25.554C102.685 26.0207 102.559 26.562 102.559 27.178C102.559 27.794 102.685 28.3353 102.937 28.802C103.189 29.2687 103.529 29.628 103.959 29.88C104.397 30.132 104.878 30.258 105.401 30.258C105.942 30.258 106.427 30.1367 106.857 29.894C107.286 29.642 107.622 29.2827 107.865 28.816C108.117 28.34 108.243 27.7893 108.243 27.164ZM112.02 24.714C112.235 24.238 112.561 23.8693 113 23.608C113.448 23.3467 113.994 23.216 114.638 23.216V24.238H114.372C113.663 24.238 113.093 24.4293 112.664 24.812C112.235 25.1947 112.02 25.834 112.02 26.73V31H111.04V23.356H112.02V24.714ZM119.458 31.112C118.74 31.112 118.091 30.9533 117.512 30.636C116.943 30.3093 116.49 29.852 116.154 29.264C115.828 28.6667 115.664 27.9713 115.664 27.178C115.664 26.3847 115.832 25.694 116.168 25.106C116.504 24.5087 116.962 24.0513 117.54 23.734C118.119 23.4073 118.768 23.244 119.486 23.244C120.205 23.244 120.854 23.4073 121.432 23.734C122.02 24.0513 122.478 24.5087 122.804 25.106C123.14 25.694 123.308 26.3847 123.308 27.178C123.308 27.962 123.14 28.6527 122.804 29.25C122.468 29.8473 122.006 30.3093 121.418 30.636C120.83 30.9533 120.177 31.112 119.458 31.112ZM119.458 30.258C119.962 30.258 120.429 30.146 120.858 29.922C121.288 29.6887 121.633 29.3433 121.894 28.886C122.165 28.4193 122.3 27.85 122.3 27.178C122.3 26.506 122.17 25.9413 121.908 25.484C121.647 25.0173 121.302 24.672 120.872 24.448C120.443 24.2147 119.976 24.098 119.472 24.098C118.968 24.098 118.502 24.2147 118.072 24.448C117.643 24.672 117.298 25.0173 117.036 25.484C116.784 25.9413 116.658 26.506 116.658 27.178C116.658 27.85 116.784 28.4193 117.036 28.886C117.298 29.3433 117.638 29.6887 118.058 29.922C118.488 30.146 118.954 30.258 119.458 30.258ZM126.061 25.05C126.313 24.518 126.7 24.084 127.223 23.748C127.755 23.412 128.38 23.244 129.099 23.244C129.799 23.244 130.424 23.4073 130.975 23.734C131.525 24.0513 131.955 24.5087 132.263 25.106C132.58 25.694 132.739 26.38 132.739 27.164C132.739 27.948 132.58 28.6387 132.263 29.236C131.955 29.8333 131.521 30.2953 130.961 30.622C130.41 30.9487 129.789 31.112 129.099 31.112C128.371 31.112 127.741 30.9487 127.209 30.622C126.686 30.286 126.303 29.852 126.061 29.32V31H125.095V20.64H126.061V25.05ZM131.745 27.164C131.745 26.5293 131.619 25.9833 131.367 25.526C131.124 25.0593 130.788 24.7047 130.359 24.462C129.929 24.2193 129.444 24.098 128.903 24.098C128.38 24.098 127.899 24.224 127.461 24.476C127.031 24.728 126.691 25.0873 126.439 25.554C126.187 26.0207 126.061 26.562 126.061 27.178C126.061 27.794 126.187 28.3353 126.439 28.802C126.691 29.2687 127.031 29.628 127.461 29.88C127.899 30.132 128.38 30.258 128.903 30.258C129.444 30.258 129.929 30.1367 130.359 29.894C130.788 29.642 131.124 29.2827 131.367 28.816C131.619 28.34 131.745 27.7893 131.745 27.164ZM135.522 20.64V31H134.542V20.64H135.522ZM144.657 26.786C144.657 27.122 144.648 27.3787 144.629 27.556H138.287C138.315 28.1347 138.455 28.6293 138.707 29.04C138.959 29.4507 139.29 29.7633 139.701 29.978C140.112 30.1833 140.56 30.286 141.045 30.286C141.68 30.286 142.212 30.132 142.641 29.824C143.08 29.516 143.369 29.1007 143.509 28.578H144.545C144.358 29.3247 143.957 29.936 143.341 30.412C142.734 30.8787 141.969 31.112 141.045 31.112C140.326 31.112 139.682 30.9533 139.113 30.636C138.544 30.3093 138.096 29.852 137.769 29.264C137.452 28.6667 137.293 27.9713 137.293 27.178C137.293 26.3847 137.452 25.6893 137.769 25.092C138.086 24.4947 138.53 24.0373 139.099 23.72C139.668 23.4027 140.317 23.244 141.045 23.244C141.773 23.244 142.408 23.4027 142.949 23.72C143.5 24.0373 143.92 24.4667 144.209 25.008C144.508 25.54 144.657 26.1327 144.657 26.786ZM143.663 26.758C143.672 26.1887 143.556 25.7033 143.313 25.302C143.08 24.9007 142.758 24.5973 142.347 24.392C141.936 24.1867 141.488 24.084 141.003 24.084C140.275 24.084 139.654 24.3173 139.141 24.784C138.628 25.2507 138.343 25.9087 138.287 26.758H143.663ZM155.55 23.216C156.446 23.216 157.174 23.5007 157.734 24.07C158.303 24.63 158.588 25.4467 158.588 26.52V31H157.622V26.632C157.622 25.8013 157.421 25.1667 157.02 24.728C156.619 24.2893 156.073 24.07 155.382 24.07C154.663 24.07 154.089 24.308 153.66 24.784C153.231 25.26 153.016 25.9507 153.016 26.856V31H152.05V26.632C152.05 25.8013 151.849 25.1667 151.448 24.728C151.047 24.2893 150.496 24.07 149.796 24.07C149.077 24.07 148.503 24.308 148.074 24.784C147.645 25.26 147.43 25.9507 147.43 26.856V31H146.45V23.356H147.43V24.672C147.673 24.196 148.018 23.8367 148.466 23.594C148.914 23.342 149.413 23.216 149.964 23.216C150.627 23.216 151.205 23.3747 151.7 23.692C152.204 24.0093 152.568 24.476 152.792 25.092C152.997 24.4853 153.347 24.0233 153.842 23.706C154.346 23.3793 154.915 23.216 155.55 23.216ZM171.228 23.356V31H170.248V29.656C170.024 30.132 169.679 30.496 169.212 30.748C168.746 31 168.223 31.126 167.644 31.126C166.73 31.126 165.983 30.846 165.404 30.286C164.826 29.7167 164.536 28.8953 164.536 27.822V23.356H165.502V27.71C165.502 28.5407 165.708 29.1753 166.118 29.614C166.538 30.0527 167.108 30.272 167.826 30.272C168.564 30.272 169.152 30.0387 169.59 29.572C170.029 29.1053 170.248 28.4193 170.248 27.514V23.356H171.228ZM177.05 23.216C177.964 23.216 178.711 23.5007 179.29 24.07C179.868 24.63 180.158 25.4467 180.158 26.52V31H179.192V26.632C179.192 25.8013 178.982 25.1667 178.562 24.728C178.151 24.2893 177.586 24.07 176.868 24.07C176.13 24.07 175.542 24.3033 175.104 24.77C174.665 25.2367 174.446 25.9227 174.446 26.828V31H173.466V23.356H174.446V24.658C174.688 24.1913 175.038 23.8367 175.496 23.594C175.953 23.342 176.471 23.216 177.05 23.216ZM183.599 24.182V28.928C183.599 29.3947 183.688 29.7167 183.865 29.894C184.042 30.0713 184.355 30.16 184.803 30.16H185.699V31H184.649C183.958 31 183.445 30.8413 183.109 30.524C182.773 30.1973 182.605 29.6653 182.605 28.928V24.182H181.541V23.356H182.605V21.438H183.599V23.356H185.699V24.182H183.599ZM187.805 21.914C187.609 21.914 187.441 21.844 187.301 21.704C187.161 21.564 187.091 21.3913 187.091 21.186C187.091 20.9807 187.161 20.8127 187.301 20.682C187.441 20.542 187.609 20.472 187.805 20.472C188.001 20.472 188.169 20.542 188.309 20.682C188.449 20.8127 188.519 20.9807 188.519 21.186C188.519 21.3913 188.449 21.564 188.309 21.704C188.169 21.844 188.001 21.914 187.805 21.914ZM188.295 23.356V31H187.315V23.356H188.295ZM191.495 20.64V31H190.515V20.64H191.495ZM198.046 21.914C197.85 21.914 197.682 21.844 197.542 21.704C197.402 21.564 197.332 21.3913 197.332 21.186C197.332 20.9807 197.402 20.8127 197.542 20.682C197.682 20.542 197.85 20.472 198.046 20.472C198.242 20.472 198.41 20.542 198.55 20.682C198.69 20.8127 198.76 20.9807 198.76 21.186C198.76 21.3913 198.69 21.564 198.55 21.704C198.41 21.844 198.242 21.914 198.046 21.914ZM198.536 23.356V31H197.556V23.356H198.536ZM202.029 24.182V28.928C202.029 29.3947 202.117 29.7167 202.295 29.894C202.472 30.0713 202.785 30.16 203.233 30.16H204.129V31H203.079C202.388 31 201.875 30.8413 201.539 30.524C201.203 30.1973 201.035 29.6653 201.035 28.928V24.182H199.971V23.356H201.035V21.438H202.029V23.356H204.129V24.182H202.029ZM205.871 21.214H207.005L205.773 24.238H205.059L205.871 21.214ZM211.139 31.112C210.261 31.112 209.543 30.9113 208.983 30.51C208.432 30.0993 208.124 29.544 208.059 28.844H209.067C209.113 29.2733 209.314 29.6233 209.669 29.894C210.033 30.1553 210.518 30.286 211.125 30.286C211.657 30.286 212.072 30.16 212.371 29.908C212.679 29.656 212.833 29.3433 212.833 28.97C212.833 28.7087 212.749 28.494 212.581 28.326C212.413 28.158 212.198 28.0273 211.937 27.934C211.685 27.8313 211.339 27.724 210.901 27.612C210.331 27.4627 209.869 27.3133 209.515 27.164C209.16 27.0147 208.857 26.7953 208.605 26.506C208.362 26.2073 208.241 25.8107 208.241 25.316C208.241 24.9427 208.353 24.5973 208.577 24.28C208.801 23.9627 209.118 23.7107 209.529 23.524C209.939 23.3373 210.406 23.244 210.929 23.244C211.75 23.244 212.413 23.454 212.917 23.874C213.421 24.2847 213.691 24.854 213.729 25.582H212.749C212.721 25.134 212.543 24.7747 212.217 24.504C211.899 24.224 211.461 24.084 210.901 24.084C210.406 24.084 210.005 24.2007 209.697 24.434C209.389 24.6673 209.235 24.9567 209.235 25.302C209.235 25.6007 209.323 25.848 209.501 26.044C209.687 26.2307 209.916 26.38 210.187 26.492C210.457 26.5947 210.821 26.7113 211.279 26.842C211.829 26.9913 212.268 27.136 212.595 27.276C212.921 27.416 213.201 27.6213 213.435 27.892C213.668 28.1627 213.789 28.522 213.799 28.97C213.799 29.3807 213.687 29.7493 213.463 30.076C213.239 30.3933 212.926 30.6453 212.525 30.832C212.123 31.0187 211.661 31.112 211.139 31.112ZM20.672 48.178C20.672 47.3847 20.8307 46.694 21.148 46.106C21.4653 45.5087 21.904 45.0513 22.464 44.734C23.024 44.4073 23.6633 44.244 24.382 44.244C25.3247 44.244 26.0993 44.4773 26.706 44.944C27.322 45.4107 27.7187 46.0453 27.896 46.848H26.846C26.7153 46.2973 26.4307 45.868 25.992 45.56C25.5627 45.2427 25.026 45.084 24.382 45.084C23.8687 45.084 23.4067 45.2007 22.996 45.434C22.5853 45.6673 22.2587 46.0173 22.016 46.484C21.7827 46.9413 21.666 47.506 21.666 48.178C21.666 48.85 21.7827 49.4193 22.016 49.886C22.2587 50.3527 22.5853 50.7027 22.996 50.936C23.4067 51.1693 23.8687 51.286 24.382 51.286C25.026 51.286 25.5627 51.132 25.992 50.824C26.4307 50.5067 26.7153 50.068 26.846 49.508H27.896C27.7187 50.292 27.322 50.922 26.706 51.398C26.09 51.874 25.3153 52.112 24.382 52.112C23.6633 52.112 23.024 51.9533 22.464 51.636C21.904 51.3093 21.4653 50.852 21.148 50.264C20.8307 49.6667 20.672 48.9713 20.672 48.178ZM30.6859 41.64V52H29.7059V41.64H30.6859ZM39.8212 47.786C39.8212 48.122 39.8118 48.3787 39.7932 48.556H33.4512C33.4792 49.1347 33.6192 49.6293 33.8712 50.04C34.1232 50.4507 34.4545 50.7633 34.8652 50.978C35.2758 51.1833 35.7238 51.286 36.2092 51.286C36.8438 51.286 37.3758 51.132 37.8052 50.824C38.2438 50.516 38.5332 50.1007 38.6732 49.578H39.7092C39.5225 50.3247 39.1212 50.936 38.5052 51.412C37.8985 51.8787 37.1332 52.112 36.2092 52.112C35.4905 52.112 34.8465 51.9533 34.2772 51.636C33.7078 51.3093 33.2598 50.852 32.9332 50.264C32.6158 49.6667 32.4572 48.9713 32.4572 48.178C32.4572 47.3847 32.6158 46.6893 32.9332 46.092C33.2505 45.4947 33.6938 45.0373 34.2632 44.72C34.8325 44.4027 35.4812 44.244 36.2092 44.244C36.9372 44.244 37.5718 44.4027 38.1132 44.72C38.6638 45.0373 39.0838 45.4667 39.3732 46.008C39.6718 46.54 39.8212 47.1327 39.8212 47.786ZM38.8272 47.758C38.8365 47.1887 38.7198 46.7033 38.4772 46.302C38.2438 45.9007 37.9218 45.5973 37.5112 45.392C37.1005 45.1867 36.6525 45.084 36.1672 45.084C35.4392 45.084 34.8185 45.3173 34.3052 45.784C33.7918 46.2507 33.5072 46.9087 33.4512 47.758H38.8272ZM41.1661 48.164C41.1661 47.38 41.3201 46.694 41.6281 46.106C41.9455 45.5087 42.3795 45.0513 42.9301 44.734C43.4901 44.4073 44.1201 44.244 44.8201 44.244C45.5481 44.244 46.1735 44.412 46.6961 44.748C47.2281 45.084 47.6108 45.5133 47.8441 46.036V44.356H48.8241V52H47.8441V50.306C47.6015 50.8287 47.2141 51.2627 46.6821 51.608C46.1595 51.944 45.5341 52.112 44.8061 52.112C44.1155 52.112 43.4901 51.9487 42.9301 51.622C42.3795 51.2953 41.9455 50.8333 41.6281 50.236C41.3201 49.6387 41.1661 48.948 41.1661 48.164ZM47.8441 48.178C47.8441 47.562 47.7181 47.0207 47.4661 46.554C47.2141 46.0873 46.8688 45.728 46.4301 45.476C46.0008 45.224 45.5248 45.098 45.0021 45.098C44.4608 45.098 43.9755 45.2193 43.5461 45.462C43.1168 45.7047 42.7761 46.0593 42.5241 46.526C42.2815 46.9833 42.1601 47.5293 42.1601 48.164C42.1601 48.7893 42.2815 49.34 42.5241 49.816C42.7761 50.2827 43.1168 50.642 43.5461 50.894C43.9755 51.1367 44.4608 51.258 45.0021 51.258C45.5248 51.258 46.0008 51.132 46.4301 50.88C46.8688 50.628 47.2141 50.2687 47.4661 49.802C47.7181 49.3353 47.8441 48.794 47.8441 48.178ZM52.0414 45.714C52.2561 45.238 52.5827 44.8693 53.0214 44.608C53.4694 44.3467 54.0154 44.216 54.6594 44.216V45.238H54.3934C53.6841 45.238 53.1147 45.4293 52.6854 45.812C52.2561 46.1947 52.0414 46.834 52.0414 47.73V52H51.0614V44.356H52.0414V45.714ZM59.5275 48.164C59.5275 47.38 59.6815 46.694 59.9895 46.106C60.3068 45.5087 60.7408 45.0513 61.2915 44.734C61.8515 44.4073 62.4815 44.244 63.1815 44.244C63.9095 44.244 64.5348 44.412 65.0575 44.748C65.5895 45.084 65.9721 45.5133 66.2055 46.036V44.356H67.1855V52H66.2055V50.306C65.9628 50.8287 65.5755 51.2627 65.0435 51.608C64.5208 51.944 63.8955 52.112 63.1675 52.112C62.4768 52.112 61.8515 51.9487 61.2915 51.622C60.7408 51.2953 60.3068 50.8333 59.9895 50.236C59.6815 49.6387 59.5275 48.948 59.5275 48.164ZM66.2055 48.178C66.2055 47.562 66.0795 47.0207 65.8275 46.554C65.5755 46.0873 65.2301 45.728 64.7915 45.476C64.3621 45.224 63.8861 45.098 63.3635 45.098C62.8221 45.098 62.3368 45.2193 61.9075 45.462C61.4781 45.7047 61.1375 46.0593 60.8855 46.526C60.6428 46.9833 60.5215 47.5293 60.5215 48.164C60.5215 48.7893 60.6428 49.34 60.8855 49.816C61.1375 50.2827 61.4781 50.642 61.9075 50.894C62.3368 51.1367 62.8221 51.258 63.3635 51.258C63.8861 51.258 64.3621 51.132 64.7915 50.88C65.2301 50.628 65.5755 50.2687 65.8275 49.802C66.0795 49.3353 66.2055 48.794 66.2055 48.178ZM73.0067 44.216C73.9214 44.216 74.6681 44.5007 75.2467 45.07C75.8254 45.63 76.1147 46.4467 76.1147 47.52V52H75.1487V47.632C75.1487 46.8013 74.9387 46.1667 74.5187 45.728C74.1081 45.2893 73.5434 45.07 72.8247 45.07C72.0874 45.07 71.4994 45.3033 71.0607 45.77C70.6221 46.2367 70.4027 46.9227 70.4027 47.828V52H69.4227V44.356H70.4027V45.658C70.6454 45.1913 70.9954 44.8367 71.4527 44.594C71.9101 44.342 72.4281 44.216 73.0067 44.216ZM77.8341 48.164C77.8341 47.38 77.9928 46.694 78.3101 46.106C78.6274 45.5087 79.0614 45.0513 79.6121 44.734C80.1721 44.4073 80.8021 44.244 81.5021 44.244C82.1741 44.244 82.7808 44.4073 83.3221 44.734C83.8634 45.0607 84.2601 45.4853 84.5121 46.008V41.64H85.4921V52H84.5121V50.292C84.2788 50.824 83.8961 51.2627 83.3641 51.608C82.8321 51.944 82.2068 52.112 81.4881 52.112C80.7881 52.112 80.1581 51.9487 79.5981 51.622C79.0474 51.2953 78.6134 50.8333 78.2961 50.236C77.9881 49.6387 77.8341 48.948 77.8341 48.164ZM84.5121 48.178C84.5121 47.562 84.3861 47.0207 84.1341 46.554C83.8821 46.0873 83.5368 45.728 83.0981 45.476C82.6688 45.224 82.1928 45.098 81.6701 45.098C81.1288 45.098 80.6434 45.2193 80.2141 45.462C79.7848 45.7047 79.4441 46.0593 79.1921 46.526C78.9494 46.9833 78.8281 47.5293 78.8281 48.164C78.8281 48.7893 78.9494 49.34 79.1921 49.816C79.4441 50.2827 79.7848 50.642 80.2141 50.894C80.6434 51.1367 81.1288 51.258 81.6701 51.258C82.1928 51.258 82.6688 51.132 83.0981 50.88C83.5368 50.628 83.8821 50.2687 84.1341 49.802C84.3861 49.3353 84.5121 48.794 84.5121 48.178ZM94.2032 52.112C93.3258 52.112 92.6072 51.9113 92.0472 51.51C91.4965 51.0993 91.1885 50.544 91.1232 49.844H92.1312C92.1778 50.2733 92.3785 50.6233 92.7332 50.894C93.0972 51.1553 93.5825 51.286 94.1892 51.286C94.7212 51.286 95.1365 51.16 95.4352 50.908C95.7432 50.656 95.8972 50.3433 95.8972 49.97C95.8972 49.7087 95.8132 49.494 95.6452 49.326C95.4772 49.158 95.2625 49.0273 95.0012 48.934C94.7492 48.8313 94.4038 48.724 93.9652 48.612C93.3958 48.4627 92.9338 48.3133 92.5792 48.164C92.2245 48.0147 91.9212 47.7953 91.6692 47.506C91.4265 47.2073 91.3052 46.8107 91.3052 46.316C91.3052 45.9427 91.4172 45.5973 91.6412 45.28C91.8652 44.9627 92.1825 44.7107 92.5932 44.524C93.0038 44.3373 93.4705 44.244 93.9932 44.244C94.8145 44.244 95.4772 44.454 95.9812 44.874C96.4852 45.2847 96.7558 45.854 96.7932 46.582H95.8132C95.7852 46.134 95.6078 45.7747 95.2812 45.504C94.9638 45.224 94.5252 45.084 93.9652 45.084C93.4705 45.084 93.0692 45.2007 92.7612 45.434C92.4532 45.6673 92.2992 45.9567 92.2992 46.302C92.2992 46.6007 92.3878 46.848 92.5652 47.044C92.7518 47.2307 92.9805 47.38 93.2512 47.492C93.5218 47.5947 93.8858 47.7113 94.3432 47.842C94.8938 47.9913 95.3325 48.136 95.6592 48.276C95.9858 48.416 96.2658 48.6213 96.4992 48.892C96.7325 49.1627 96.8538 49.522 96.8632 49.97C96.8632 50.3807 96.7512 50.7493 96.5272 51.076C96.3032 51.3933 95.9905 51.6453 95.5892 51.832C95.1878 52.0187 94.7258 52.112 94.2032 52.112ZM99.6739 46.036C99.9166 45.5227 100.299 45.098 100.822 44.762C101.354 44.4167 101.984 44.244 102.712 44.244C103.403 44.244 104.023 44.4073 104.574 44.734C105.134 45.0513 105.568 45.5087 105.876 46.106C106.193 46.694 106.352 47.38 106.352 48.164C106.352 48.948 106.193 49.6387 105.876 50.236C105.568 50.8333 105.134 51.2953 104.574 51.622C104.023 51.9487 103.403 52.112 102.712 52.112C101.993 52.112 101.368 51.944 100.836 51.608C100.304 51.2627 99.9166 50.8333 99.6739 50.32V55.612H98.7079V44.356H99.6739V46.036ZM105.358 48.164C105.358 47.5293 105.232 46.9833 104.98 46.526C104.737 46.0593 104.401 45.7047 103.972 45.462C103.543 45.2193 103.057 45.098 102.516 45.098C101.993 45.098 101.513 45.224 101.074 45.476C100.645 45.728 100.304 46.0873 100.052 46.554C99.7999 47.0207 99.6739 47.562 99.6739 48.178C99.6739 48.794 99.7999 49.3353 100.052 49.802C100.304 50.2687 100.645 50.628 101.074 50.88C101.513 51.132 101.993 51.258 102.516 51.258C103.057 51.258 103.543 51.1367 103.972 50.894C104.401 50.642 104.737 50.2827 104.98 49.816C105.232 49.34 105.358 48.7893 105.358 48.164ZM115.071 47.786C115.071 48.122 115.062 48.3787 115.043 48.556H108.701C108.729 49.1347 108.869 49.6293 109.121 50.04C109.373 50.4507 109.704 50.7633 110.115 50.978C110.526 51.1833 110.974 51.286 111.459 51.286C112.094 51.286 112.626 51.132 113.055 50.824C113.494 50.516 113.783 50.1007 113.923 49.578H114.959C114.772 50.3247 114.371 50.936 113.755 51.412C113.148 51.8787 112.383 52.112 111.459 52.112C110.74 52.112 110.096 51.9533 109.527 51.636C108.958 51.3093 108.51 50.852 108.183 50.264C107.866 49.6667 107.707 48.9713 107.707 48.178C107.707 47.3847 107.866 46.6893 108.183 46.092C108.5 45.4947 108.944 45.0373 109.513 44.72C110.082 44.4027 110.731 44.244 111.459 44.244C112.187 44.244 112.822 44.4027 113.363 44.72C113.914 45.0373 114.334 45.4667 114.623 46.008C114.922 46.54 115.071 47.1327 115.071 47.786ZM114.077 47.758C114.086 47.1887 113.97 46.7033 113.727 46.302C113.494 45.9007 113.172 45.5973 112.761 45.392C112.35 45.1867 111.902 45.084 111.417 45.084C110.689 45.084 110.068 45.3173 109.555 45.784C109.042 46.2507 108.757 46.9087 108.701 47.758H114.077ZM116.416 48.178C116.416 47.3847 116.575 46.694 116.892 46.106C117.209 45.5087 117.648 45.0513 118.208 44.734C118.768 44.4073 119.407 44.244 120.126 44.244C121.069 44.244 121.843 44.4773 122.45 44.944C123.066 45.4107 123.463 46.0453 123.64 46.848H122.59C122.459 46.2973 122.175 45.868 121.736 45.56C121.307 45.2427 120.77 45.084 120.126 45.084C119.613 45.084 119.151 45.2007 118.74 45.434C118.329 45.6673 118.003 46.0173 117.76 46.484C117.527 46.9413 117.41 47.506 117.41 48.178C117.41 48.85 117.527 49.4193 117.76 49.886C118.003 50.3527 118.329 50.7027 118.74 50.936C119.151 51.1693 119.613 51.286 120.126 51.286C120.77 51.286 121.307 51.132 121.736 50.824C122.175 50.5067 122.459 50.068 122.59 49.508H123.64C123.463 50.292 123.066 50.922 122.45 51.398C121.834 51.874 121.059 52.112 120.126 52.112C119.407 52.112 118.768 51.9533 118.208 51.636C117.648 51.3093 117.209 50.852 116.892 50.264C116.575 49.6667 116.416 48.9713 116.416 48.178ZM125.94 42.914C125.744 42.914 125.576 42.844 125.436 42.704C125.296 42.564 125.226 42.3913 125.226 42.186C125.226 41.9807 125.296 41.8127 125.436 41.682C125.576 41.542 125.744 41.472 125.94 41.472C126.136 41.472 126.304 41.542 126.444 41.682C126.584 41.8127 126.654 41.9807 126.654 42.186C126.654 42.3913 126.584 42.564 126.444 42.704C126.304 42.844 126.136 42.914 125.94 42.914ZM126.43 44.356V52H125.45V44.356H126.43ZM131.659 45.182H129.881V52H128.901V45.182H127.837V44.356H128.901V43.824C128.901 42.9933 129.111 42.382 129.531 41.99C129.961 41.598 130.651 41.402 131.603 41.402V42.242C130.969 42.242 130.521 42.3633 130.259 42.606C130.007 42.8487 129.881 43.2547 129.881 43.824V44.356H131.659V45.182ZM133.692 42.914C133.496 42.914 133.328 42.844 133.188 42.704C133.048 42.564 132.978 42.3913 132.978 42.186C132.978 41.9807 133.048 41.8127 133.188 41.682C133.328 41.542 133.496 41.472 133.692 41.472C133.888 41.472 134.056 41.542 134.196 41.682C134.336 41.8127 134.406 41.9807 134.406 42.186C134.406 42.3913 134.336 42.564 134.196 42.704C134.056 42.844 133.888 42.914 133.692 42.914ZM134.182 44.356V52H133.202V44.356H134.182ZM135.953 48.178C135.953 47.3847 136.112 46.694 136.429 46.106C136.747 45.5087 137.185 45.0513 137.745 44.734C138.305 44.4073 138.945 44.244 139.663 44.244C140.606 44.244 141.381 44.4773 141.987 44.944C142.603 45.4107 143 46.0453 143.177 46.848H142.127C141.997 46.2973 141.712 45.868 141.273 45.56C140.844 45.2427 140.307 45.084 139.663 45.084C139.15 45.084 138.688 45.2007 138.277 45.434C137.867 45.6673 137.54 46.0173 137.297 46.484C137.064 46.9413 136.947 47.506 136.947 48.178C136.947 48.85 137.064 49.4193 137.297 49.886C137.54 50.3527 137.867 50.7027 138.277 50.936C138.688 51.1693 139.15 51.286 139.663 51.286C140.307 51.286 140.844 51.132 141.273 50.824C141.712 50.5067 141.997 50.068 142.127 49.508H143.177C143 50.292 142.603 50.922 141.987 51.398C141.371 51.874 140.597 52.112 139.663 52.112C138.945 52.112 138.305 51.9533 137.745 51.636C137.185 51.3093 136.747 50.852 136.429 50.264C136.112 49.6667 135.953 48.9713 135.953 48.178ZM155.745 47.786C155.745 48.122 155.736 48.3787 155.717 48.556H149.375C149.403 49.1347 149.543 49.6293 149.795 50.04C150.047 50.4507 150.378 50.7633 150.789 50.978C151.2 51.1833 151.648 51.286 152.133 51.286C152.768 51.286 153.3 51.132 153.729 50.824C154.168 50.516 154.457 50.1007 154.597 49.578H155.633C155.446 50.3247 155.045 50.936 154.429 51.412C153.822 51.8787 153.057 52.112 152.133 52.112C151.414 52.112 150.77 51.9533 150.201 51.636C149.632 51.3093 149.184 50.852 148.857 50.264C148.54 49.6667 148.381 48.9713 148.381 48.178C148.381 47.3847 148.54 46.6893 148.857 46.092C149.174 45.4947 149.618 45.0373 150.187 44.72C150.756 44.4027 151.405 44.244 152.133 44.244C152.861 44.244 153.496 44.4027 154.037 44.72C154.588 45.0373 155.008 45.4667 155.297 46.008C155.596 46.54 155.745 47.1327 155.745 47.786ZM154.751 47.758C154.76 47.1887 154.644 46.7033 154.401 46.302C154.168 45.9007 153.846 45.5973 153.435 45.392C153.024 45.1867 152.576 45.084 152.091 45.084C151.363 45.084 150.742 45.3173 150.229 45.784C149.716 46.2507 149.431 46.9087 149.375 47.758H154.751ZM161.122 44.216C162.037 44.216 162.783 44.5007 163.362 45.07C163.941 45.63 164.23 46.4467 164.23 47.52V52H163.264V47.632C163.264 46.8013 163.054 46.1667 162.634 45.728C162.223 45.2893 161.659 45.07 160.94 45.07C160.203 45.07 159.615 45.3033 159.176 45.77C158.737 46.2367 158.518 46.9227 158.518 47.828V52H157.538V44.356H158.518V45.658C158.761 45.1913 159.111 44.8367 159.568 44.594C160.025 44.342 160.543 44.216 161.122 44.216ZM169.743 52.112C169.025 52.112 168.376 51.9533 167.797 51.636C167.228 51.3093 166.775 50.852 166.439 50.264C166.113 49.6667 165.949 48.9713 165.949 48.178C165.949 47.3847 166.117 46.694 166.453 46.106C166.789 45.5087 167.247 45.0513 167.825 44.734C168.404 44.4073 169.053 44.244 169.771 44.244C170.49 44.244 171.139 44.4073 171.717 44.734C172.305 45.0513 172.763 45.5087 173.089 46.106C173.425 46.694 173.593 47.3847 173.593 48.178C173.593 48.962 173.425 49.6527 173.089 50.25C172.753 50.8473 172.291 51.3093 171.703 51.636C171.115 51.9533 170.462 52.112 169.743 52.112ZM169.743 51.258C170.247 51.258 170.714 51.146 171.143 50.922C171.573 50.6887 171.918 50.3433 172.179 49.886C172.45 49.4193 172.585 48.85 172.585 48.178C172.585 47.506 172.455 46.9413 172.193 46.484C171.932 46.0173 171.587 45.672 171.157 45.448C170.728 45.2147 170.261 45.098 169.757 45.098C169.253 45.098 168.787 45.2147 168.357 45.448C167.928 45.672 167.583 46.0173 167.321 46.484C167.069 46.9413 166.943 47.506 166.943 48.178C166.943 48.85 167.069 49.4193 167.321 49.886C167.583 50.3433 167.923 50.6887 168.343 50.922C168.773 51.146 169.239 51.258 169.743 51.258ZM182.002 44.356V52H181.022V50.656C180.798 51.132 180.452 51.496 179.986 51.748C179.519 52 178.996 52.126 178.418 52.126C177.503 52.126 176.756 51.846 176.178 51.286C175.599 50.7167 175.31 49.8953 175.31 48.822V44.356H176.276V48.71C176.276 49.5407 176.481 50.1753 176.892 50.614C177.312 51.0527 177.881 51.272 178.6 51.272C179.337 51.272 179.925 51.0387 180.364 50.572C180.802 50.1053 181.022 49.4193 181.022 48.514V44.356H182.002ZM187.445 44.244C188.164 44.244 188.789 44.412 189.321 44.748C189.853 45.084 190.236 45.5087 190.469 46.022V44.356H191.449V52.196C191.449 52.896 191.295 53.5167 190.987 54.058C190.688 54.5993 190.268 55.0147 189.727 55.304C189.186 55.6027 188.57 55.752 187.879 55.752C186.899 55.752 186.082 55.5187 185.429 55.052C184.785 54.5853 184.384 53.9507 184.225 53.148H185.191C185.359 53.68 185.676 54.1047 186.143 54.422C186.619 54.7393 187.198 54.898 187.879 54.898C188.374 54.898 188.817 54.7907 189.209 54.576C189.601 54.3707 189.909 54.0627 190.133 53.652C190.357 53.2413 190.469 52.756 190.469 52.196V50.306C190.226 50.8287 189.839 51.2627 189.307 51.608C188.784 51.944 188.164 52.112 187.445 52.112C186.745 52.112 186.115 51.9487 185.555 51.622C185.004 51.2953 184.57 50.8333 184.253 50.236C183.945 49.6387 183.791 48.948 183.791 48.164C183.791 47.38 183.945 46.694 184.253 46.106C184.57 45.5087 185.004 45.0513 185.555 44.734C186.115 44.4073 186.745 44.244 187.445 44.244ZM190.469 48.178C190.469 47.562 190.343 47.0207 190.091 46.554C189.839 46.0873 189.494 45.728 189.055 45.476C188.626 45.224 188.15 45.098 187.627 45.098C187.086 45.098 186.6 45.2193 186.171 45.462C185.742 45.7047 185.401 46.0593 185.149 46.526C184.906 46.9833 184.785 47.5293 184.785 48.164C184.785 48.7893 184.906 49.34 185.149 49.816C185.401 50.2827 185.742 50.642 186.171 50.894C186.6 51.1367 187.086 51.258 187.627 51.258C188.15 51.258 188.626 51.132 189.055 50.88C189.494 50.628 189.839 50.2687 190.091 49.802C190.343 49.3353 190.469 48.794 190.469 48.178ZM197.326 44.216C197.905 44.216 198.423 44.3373 198.88 44.58C199.347 44.8227 199.711 45.196 199.972 45.7C200.243 46.1947 200.378 46.8013 200.378 47.52V52H199.412V47.632C199.412 46.8013 199.202 46.1667 198.782 45.728C198.372 45.2893 197.807 45.07 197.088 45.07C196.351 45.07 195.763 45.3033 195.324 45.77C194.886 46.2367 194.666 46.9227 194.666 47.828V52H193.686V41.64H194.666V45.658C194.909 45.2007 195.264 44.846 195.73 44.594C196.206 44.342 196.738 44.216 197.326 44.216ZM209.02 52.112C208.142 52.112 207.424 51.9113 206.864 51.51C206.313 51.0993 206.005 50.544 205.94 49.844H206.948C206.994 50.2733 207.195 50.6233 207.55 50.894C207.914 51.1553 208.399 51.286 209.006 51.286C209.538 51.286 209.953 51.16 210.252 50.908C210.56 50.656 210.714 50.3433 210.714 49.97C210.714 49.7087 210.63 49.494 210.462 49.326C210.294 49.158 210.079 49.0273 209.818 48.934C209.566 48.8313 209.22 48.724 208.782 48.612C208.212 48.4627 207.75 48.3133 207.396 48.164C207.041 48.0147 206.738 47.7953 206.486 47.506C206.243 47.2073 206.122 46.8107 206.122 46.316C206.122 45.9427 206.234 45.5973 206.458 45.28C206.682 44.9627 206.999 44.7107 207.41 44.524C207.82 44.3373 208.287 44.244 208.81 44.244C209.631 44.244 210.294 44.454 210.798 44.874C211.302 45.2847 211.572 45.854 211.61 46.582H210.63C210.602 46.134 210.424 45.7747 210.098 45.504C209.78 45.224 209.342 45.084 208.782 45.084C208.287 45.084 207.886 45.2007 207.578 45.434C207.27 45.6673 207.116 45.9567 207.116 46.302C207.116 46.6007 207.204 46.848 207.382 47.044C207.568 47.2307 207.797 47.38 208.068 47.492C208.338 47.5947 208.702 47.7113 209.16 47.842C209.71 47.9913 210.149 48.136 210.476 48.276C210.802 48.416 211.082 48.6213 211.316 48.892C211.549 49.1627 211.67 49.522 211.68 49.97C211.68 50.3807 211.568 50.7493 211.344 51.076C211.12 51.3933 210.807 51.6453 210.406 51.832C210.004 52.0187 209.542 52.112 209.02 52.112ZM216.87 52.112C216.152 52.112 215.503 51.9533 214.924 51.636C214.355 51.3093 213.902 50.852 213.566 50.264C213.24 49.6667 213.076 48.9713 213.076 48.178C213.076 47.3847 213.244 46.694 213.58 46.106C213.916 45.5087 214.374 45.0513 214.952 44.734C215.531 44.4073 216.18 44.244 216.898 44.244C217.617 44.244 218.266 44.4073 218.844 44.734C219.432 45.0513 219.89 45.5087 220.216 46.106C220.552 46.694 220.72 47.3847 220.72 48.178C220.72 48.962 220.552 49.6527 220.216 50.25C219.88 50.8473 219.418 51.3093 218.83 51.636C218.242 51.9533 217.589 52.112 216.87 52.112ZM216.87 51.258C217.374 51.258 217.841 51.146 218.27 50.922C218.7 50.6887 219.045 50.3433 219.306 49.886C219.577 49.4193 219.712 48.85 219.712 48.178C219.712 47.506 219.582 46.9413 219.32 46.484C219.059 46.0173 218.714 45.672 218.284 45.448C217.855 45.2147 217.388 45.098 216.884 45.098C216.38 45.098 215.914 45.2147 215.484 45.448C215.055 45.672 214.71 46.0173 214.448 46.484C214.196 46.9413 214.07 47.506 214.07 48.178C214.07 48.85 214.196 49.4193 214.448 49.886C214.71 50.3433 215.05 50.6887 215.47 50.922C215.9 51.146 216.366 51.258 216.87 51.258ZM27.42 65.356L22.884 76.598H21.862L23.346 72.958L20.21 65.356H21.288L23.892 71.88L26.412 65.356H27.42ZM32.0949 73.112C31.3762 73.112 30.7276 72.9533 30.1489 72.636C29.5796 72.3093 29.1269 71.852 28.7909 71.264C28.4642 70.6667 28.3009 69.9713 28.3009 69.178C28.3009 68.3847 28.4689 67.694 28.8049 67.106C29.1409 66.5087 29.5982 66.0513 30.1769 65.734C30.7556 65.4073 31.4042 65.244 32.1229 65.244C32.8416 65.244 33.4902 65.4073 34.0689 65.734C34.6569 66.0513 35.1142 66.5087 35.4409 67.106C35.7769 67.694 35.9449 68.3847 35.9449 69.178C35.9449 69.962 35.7769 70.6527 35.4409 71.25C35.1049 71.8473 34.6429 72.3093 34.0549 72.636C33.4669 72.9533 32.8136 73.112 32.0949 73.112ZM32.0949 72.258C32.5989 72.258 33.0656 72.146 33.4949 71.922C33.9242 71.6887 34.2696 71.3433 34.5309 70.886C34.8016 70.4193 34.9369 69.85 34.9369 69.178C34.9369 68.506 34.8062 67.9413 34.5449 67.484C34.2836 67.0173 33.9382 66.672 33.5089 66.448C33.0796 66.2147 32.6129 66.098 32.1089 66.098C31.6049 66.098 31.1382 66.2147 30.7089 66.448C30.2796 66.672 29.9342 67.0173 29.6729 67.484C29.4209 67.9413 29.2949 68.506 29.2949 69.178C29.2949 69.85 29.4209 70.4193 29.6729 70.886C29.9342 71.3433 30.2749 71.6887 30.6949 71.922C31.1242 72.146 31.5909 72.258 32.0949 72.258ZM44.3533 65.356V73H43.3733V71.656C43.1493 72.132 42.804 72.496 42.3373 72.748C41.8707 73 41.348 73.126 40.7693 73.126C39.8547 73.126 39.108 72.846 38.5293 72.286C37.9507 71.7167 37.6613 70.8953 37.6613 69.822V65.356H38.6273V69.71C38.6273 70.5407 38.8327 71.1753 39.2433 71.614C39.6633 72.0527 40.2327 72.272 40.9513 72.272C41.6887 72.272 42.2767 72.0387 42.7153 71.572C43.154 71.1053 43.3733 70.4193 43.3733 69.514V65.356H44.3533ZM47.5707 66.714C47.7854 66.238 48.112 65.8693 48.5507 65.608C48.9987 65.3467 49.5447 65.216 50.1887 65.216V66.238H49.9227C49.2134 66.238 48.644 66.4293 48.2147 66.812C47.7854 67.1947 47.5707 67.834 47.5707 68.73V73H46.5907V65.356H47.5707V66.714ZM59.0888 65.216C60.0034 65.216 60.7501 65.5007 61.3288 66.07C61.9074 66.63 62.1968 67.4467 62.1968 68.52V73H61.2308V68.632C61.2308 67.8013 61.0208 67.1667 60.6008 66.728C60.1901 66.2893 59.6254 66.07 58.9068 66.07C58.1694 66.07 57.5814 66.3033 57.1428 66.77C56.7041 67.2367 56.4848 67.9227 56.4848 68.828V73H55.5048V65.356H56.4848V66.658C56.7274 66.1913 57.0774 65.8367 57.5348 65.594C57.9921 65.342 58.5101 65.216 59.0888 65.216ZM71.2801 68.786C71.2801 69.122 71.2708 69.3787 71.2521 69.556H64.9101C64.9381 70.1347 65.0781 70.6293 65.3301 71.04C65.5821 71.4507 65.9135 71.7633 66.3241 71.978C66.7348 72.1833 67.1828 72.286 67.6681 72.286C68.3028 72.286 68.8348 72.132 69.2641 71.824C69.7028 71.516 69.9921 71.1007 70.1321 70.578H71.1681C70.9815 71.3247 70.5801 71.936 69.9641 72.412C69.3575 72.8787 68.5921 73.112 67.6681 73.112C66.9495 73.112 66.3055 72.9533 65.7361 72.636C65.1668 72.3093 64.7188 71.852 64.3921 71.264C64.0748 70.6667 63.9161 69.9713 63.9161 69.178C63.9161 68.3847 64.0748 67.6893 64.3921 67.092C64.7095 66.4947 65.1528 66.0373 65.7221 65.72C66.2915 65.4027 66.9401 65.244 67.6681 65.244C68.3961 65.244 69.0308 65.4027 69.5721 65.72C70.1228 66.0373 70.5428 66.4667 70.8321 67.008C71.1308 67.54 71.2801 68.1327 71.2801 68.786ZM70.2861 68.758C70.2955 68.1887 70.1788 67.7033 69.9361 67.302C69.7028 66.9007 69.3808 66.5973 68.9701 66.392C68.5595 66.1867 68.1115 66.084 67.6261 66.084C66.8981 66.084 66.2775 66.3173 65.7641 66.784C65.2508 67.2507 64.9661 67.9087 64.9101 68.758H70.2861ZM73.5631 63.914C73.3671 63.914 73.1991 63.844 73.0591 63.704C72.9191 63.564 72.8491 63.3913 72.8491 63.186C72.8491 62.9807 72.9191 62.8127 73.0591 62.682C73.1991 62.542 73.3671 62.472 73.5631 62.472C73.7591 62.472 73.9271 62.542 74.0671 62.682C74.2071 62.8127 74.2771 62.9807 74.2771 63.186C74.2771 63.3913 74.2071 63.564 74.0671 63.704C73.9271 63.844 73.7591 63.914 73.5631 63.914ZM74.0531 65.356V73H73.0731V65.356H74.0531ZM79.4783 65.244C80.197 65.244 80.8223 65.412 81.3543 65.748C81.8863 66.084 82.269 66.5087 82.5023 67.022V65.356H83.4823V73.196C83.4823 73.896 83.3283 74.5167 83.0203 75.058C82.7217 75.5993 82.3017 76.0147 81.7603 76.304C81.219 76.6027 80.603 76.752 79.9123 76.752C78.9323 76.752 78.1157 76.5187 77.4623 76.052C76.8183 75.5853 76.417 74.9507 76.2583 74.148H77.2243C77.3923 74.68 77.7097 75.1047 78.1763 75.422C78.6523 75.7393 79.231 75.898 79.9123 75.898C80.407 75.898 80.8503 75.7907 81.2423 75.576C81.6343 75.3707 81.9423 75.0627 82.1663 74.652C82.3903 74.2413 82.5023 73.756 82.5023 73.196V71.306C82.2597 71.8287 81.8723 72.2627 81.3403 72.608C80.8177 72.944 80.197 73.112 79.4783 73.112C78.7783 73.112 78.1483 72.9487 77.5883 72.622C77.0377 72.2953 76.6037 71.8333 76.2863 71.236C75.9783 70.6387 75.8243 69.948 75.8243 69.164C75.8243 68.38 75.9783 67.694 76.2863 67.106C76.6037 66.5087 77.0377 66.0513 77.5883 65.734C78.1483 65.4073 78.7783 65.244 79.4783 65.244ZM82.5023 69.178C82.5023 68.562 82.3763 68.0207 82.1243 67.554C81.8723 67.0873 81.527 66.728 81.0883 66.476C80.659 66.224 80.183 66.098 79.6603 66.098C79.119 66.098 78.6337 66.2193 78.2043 66.462C77.775 66.7047 77.4343 67.0593 77.1823 67.526C76.9397 67.9833 76.8183 68.5293 76.8183 69.164C76.8183 69.7893 76.9397 70.34 77.1823 70.816C77.4343 71.2827 77.775 71.642 78.2043 71.894C78.6337 72.1367 79.119 72.258 79.6603 72.258C80.183 72.258 80.659 72.132 81.0883 71.88C81.527 71.628 81.8723 71.2687 82.1243 70.802C82.3763 70.3353 82.5023 69.794 82.5023 69.178ZM89.3596 65.216C89.9383 65.216 90.4563 65.3373 90.9136 65.58C91.3803 65.8227 91.7443 66.196 92.0056 66.7C92.2763 67.1947 92.4116 67.8013 92.4116 68.52V73H91.4456V68.632C91.4456 67.8013 91.2356 67.1667 90.8156 66.728C90.4049 66.2893 89.8403 66.07 89.1216 66.07C88.3843 66.07 87.7963 66.3033 87.3576 66.77C86.9189 67.2367 86.6996 67.9227 86.6996 68.828V73H85.7196V62.64H86.6996V66.658C86.9423 66.2007 87.2969 65.846 87.7636 65.594C88.2396 65.342 88.7716 65.216 89.3596 65.216ZM95.545 67.05C95.797 66.518 96.1843 66.084 96.707 65.748C97.239 65.412 97.8643 65.244 98.583 65.244C99.283 65.244 99.9083 65.4073 100.459 65.734C101.01 66.0513 101.439 66.5087 101.747 67.106C102.064 67.694 102.223 68.38 102.223 69.164C102.223 69.948 102.064 70.6387 101.747 71.236C101.439 71.8333 101.005 72.2953 100.445 72.622C99.8943 72.9487 99.2737 73.112 98.583 73.112C97.855 73.112 97.225 72.9487 96.693 72.622C96.1703 72.286 95.7877 71.852 95.545 71.32V73H94.579V62.64H95.545V67.05ZM101.229 69.164C101.229 68.5293 101.103 67.9833 100.851 67.526C100.608 67.0593 100.272 66.7047 99.843 66.462C99.4137 66.2193 98.9283 66.098 98.387 66.098C97.8643 66.098 97.3837 66.224 96.945 66.476C96.5157 66.728 96.175 67.0873 95.923 67.554C95.671 68.0207 95.545 68.562 95.545 69.178C95.545 69.794 95.671 70.3353 95.923 70.802C96.175 71.2687 96.5157 71.628 96.945 71.88C97.3837 72.132 97.8643 72.258 98.387 72.258C98.9283 72.258 99.4137 72.1367 99.843 71.894C100.272 71.642 100.608 71.2827 100.851 70.816C101.103 70.34 101.229 69.7893 101.229 69.164ZM107.372 73.112C106.654 73.112 106.005 72.9533 105.426 72.636C104.857 72.3093 104.404 71.852 104.068 71.264C103.742 70.6667 103.578 69.9713 103.578 69.178C103.578 68.3847 103.746 67.694 104.082 67.106C104.418 66.5087 104.876 66.0513 105.454 65.734C106.033 65.4073 106.682 65.244 107.4 65.244C108.119 65.244 108.768 65.4073 109.346 65.734C109.934 66.0513 110.392 66.5087 110.718 67.106C111.054 67.694 111.222 68.3847 111.222 69.178C111.222 69.962 111.054 70.6527 110.718 71.25C110.382 71.8473 109.92 72.3093 109.332 72.636C108.744 72.9533 108.091 73.112 107.372 73.112ZM107.372 72.258C107.876 72.258 108.343 72.146 108.772 71.922C109.202 71.6887 109.547 71.3433 109.808 70.886C110.079 70.4193 110.214 69.85 110.214 69.178C110.214 68.506 110.084 67.9413 109.822 67.484C109.561 67.0173 109.216 66.672 108.786 66.448C108.357 66.2147 107.89 66.098 107.386 66.098C106.882 66.098 106.416 66.2147 105.986 66.448C105.557 66.672 105.212 67.0173 104.95 67.484C104.698 67.9413 104.572 68.506 104.572 69.178C104.572 69.85 104.698 70.4193 104.95 70.886C105.212 71.3433 105.552 71.6887 105.972 71.922C106.402 72.146 106.868 72.258 107.372 72.258ZM119.631 65.356V73H118.651V71.656C118.427 72.132 118.081 72.496 117.615 72.748C117.148 73 116.625 73.126 116.047 73.126C115.132 73.126 114.385 72.846 113.807 72.286C113.228 71.7167 112.939 70.8953 112.939 69.822V65.356H113.905V69.71C113.905 70.5407 114.11 71.1753 114.521 71.614C114.941 72.0527 115.51 72.272 116.229 72.272C116.966 72.272 117.554 72.0387 117.993 71.572C118.431 71.1053 118.651 70.4193 118.651 69.514V65.356H119.631ZM122.848 66.714C123.063 66.238 123.389 65.8693 123.828 65.608C124.276 65.3467 124.822 65.216 125.466 65.216V66.238H125.2C124.491 66.238 123.921 66.4293 123.492 66.812C123.063 67.1947 122.848 67.834 122.848 68.73V73H121.868V65.356H122.848V66.714ZM130.334 69.178C130.334 68.3847 130.493 67.694 130.81 67.106C131.127 66.5087 131.566 66.0513 132.126 65.734C132.686 65.4073 133.325 65.244 134.044 65.244C134.987 65.244 135.761 65.4773 136.368 65.944C136.984 66.4107 137.381 67.0453 137.558 67.848H136.508C136.377 67.2973 136.093 66.868 135.654 66.56C135.225 66.2427 134.688 66.084 134.044 66.084C133.531 66.084 133.069 66.2007 132.658 66.434C132.247 66.6673 131.921 67.0173 131.678 67.484C131.445 67.9413 131.328 68.506 131.328 69.178C131.328 69.85 131.445 70.4193 131.678 70.886C131.921 71.3527 132.247 71.7027 132.658 71.936C133.069 72.1693 133.531 72.286 134.044 72.286C134.688 72.286 135.225 72.132 135.654 71.824C136.093 71.5067 136.377 71.068 136.508 70.508H137.558C137.381 71.292 136.984 71.922 136.368 72.398C135.752 72.874 134.977 73.112 134.044 73.112C133.325 73.112 132.686 72.9533 132.126 72.636C131.566 72.3093 131.127 71.852 130.81 71.264C130.493 70.6667 130.334 69.9713 130.334 69.178ZM138.92 69.164C138.92 68.38 139.074 67.694 139.382 67.106C139.699 66.5087 140.133 66.0513 140.684 65.734C141.244 65.4073 141.874 65.244 142.574 65.244C143.302 65.244 143.927 65.412 144.45 65.748C144.982 66.084 145.365 66.5133 145.598 67.036V65.356H146.578V73H145.598V71.306C145.355 71.8287 144.968 72.2627 144.436 72.608C143.913 72.944 143.288 73.112 142.56 73.112C141.869 73.112 141.244 72.9487 140.684 72.622C140.133 72.2953 139.699 71.8333 139.382 71.236C139.074 70.6387 138.92 69.948 138.92 69.164ZM145.598 69.178C145.598 68.562 145.472 68.0207 145.22 67.554C144.968 67.0873 144.623 66.728 144.184 66.476C143.755 66.224 143.279 66.098 142.756 66.098C142.215 66.098 141.729 66.2193 141.3 66.462C140.871 66.7047 140.53 67.0593 140.278 67.526C140.035 67.9833 139.914 68.5293 139.914 69.164C139.914 69.7893 140.035 70.34 140.278 70.816C140.53 71.2827 140.871 71.642 141.3 71.894C141.729 72.1367 142.215 72.258 142.756 72.258C143.279 72.258 143.755 72.132 144.184 71.88C144.623 71.628 144.968 71.2687 145.22 70.802C145.472 70.3353 145.598 69.794 145.598 69.178ZM152.399 65.216C153.314 65.216 154.061 65.5007 154.639 66.07C155.218 66.63 155.507 67.4467 155.507 68.52V73H154.541V68.632C154.541 67.8013 154.331 67.1667 153.911 66.728C153.501 66.2893 152.936 66.07 152.217 66.07C151.48 66.07 150.892 66.3033 150.453 66.77C150.015 67.2367 149.795 67.9227 149.795 68.828V73H148.815V65.356H149.795V66.658C150.038 66.1913 150.388 65.8367 150.845 65.594C151.303 65.342 151.821 65.216 152.399 65.216ZM168.138 65.356V73H167.158V71.656C166.934 72.132 166.589 72.496 166.122 72.748C165.656 73 165.133 73.126 164.554 73.126C163.64 73.126 162.893 72.846 162.314 72.286C161.736 71.7167 161.446 70.8953 161.446 69.822V65.356H162.412V69.71C162.412 70.5407 162.618 71.1753 163.028 71.614C163.448 72.0527 164.018 72.272 164.736 72.272C165.474 72.272 166.062 72.0387 166.5 71.572C166.939 71.1053 167.158 70.4193 167.158 69.514V65.356H168.138ZM173.96 65.216C174.875 65.216 175.621 65.5007 176.2 66.07C176.779 66.63 177.068 67.4467 177.068 68.52V73H176.102V68.632C176.102 67.8013 175.892 67.1667 175.472 66.728C175.061 66.2893 174.497 66.07 173.778 66.07C173.041 66.07 172.453 66.3033 172.014 66.77C171.575 67.2367 171.356 67.9227 171.356 68.828V73H170.376V65.356H171.356V66.658C171.599 66.1913 171.949 65.8367 172.406 65.594C172.863 65.342 173.381 65.216 173.96 65.216ZM178.787 69.164C178.787 68.38 178.946 67.694 179.263 67.106C179.581 66.5087 180.015 66.0513 180.565 65.734C181.125 65.4073 181.755 65.244 182.455 65.244C183.127 65.244 183.734 65.4073 184.275 65.734C184.817 66.0607 185.213 66.4853 185.465 67.008V62.64H186.445V73H185.465V71.292C185.232 71.824 184.849 72.2627 184.317 72.608C183.785 72.944 183.16 73.112 182.441 73.112C181.741 73.112 181.111 72.9487 180.551 72.622C180.001 72.2953 179.567 71.8333 179.249 71.236C178.941 70.6387 178.787 69.948 178.787 69.164ZM185.465 69.178C185.465 68.562 185.339 68.0207 185.087 67.554C184.835 67.0873 184.49 66.728 184.051 66.476C183.622 66.224 183.146 66.098 182.623 66.098C182.082 66.098 181.597 66.2193 181.167 66.462C180.738 66.7047 180.397 67.0593 180.145 67.526C179.903 67.9833 179.781 68.5293 179.781 69.164C179.781 69.7893 179.903 70.34 180.145 70.816C180.397 71.2827 180.738 71.642 181.167 71.894C181.597 72.1367 182.082 72.258 182.623 72.258C183.146 72.258 183.622 72.132 184.051 71.88C184.49 71.628 184.835 71.2687 185.087 70.802C185.339 70.3353 185.465 69.794 185.465 69.178ZM195.599 68.786C195.599 69.122 195.589 69.3787 195.571 69.556H189.229C189.257 70.1347 189.397 70.6293 189.649 71.04C189.901 71.4507 190.232 71.7633 190.643 71.978C191.053 72.1833 191.501 72.286 191.987 72.286C192.621 72.286 193.153 72.132 193.583 71.824C194.021 71.516 194.311 71.1007 194.451 70.578H195.487C195.3 71.3247 194.899 71.936 194.283 72.412C193.676 72.8787 192.911 73.112 191.987 73.112C191.268 73.112 190.624 72.9533 190.055 72.636C189.485 72.3093 189.037 71.852 188.711 71.264C188.393 70.6667 188.235 69.9713 188.235 69.178C188.235 68.3847 188.393 67.6893 188.711 67.092C189.028 66.4947 189.471 66.0373 190.041 65.72C190.61 65.4027 191.259 65.244 191.987 65.244C192.715 65.244 193.349 65.4027 193.891 65.72C194.441 66.0373 194.861 66.4667 195.151 67.008C195.449 67.54 195.599 68.1327 195.599 68.786ZM194.605 68.758C194.614 68.1887 194.497 67.7033 194.255 67.302C194.021 66.9007 193.699 66.5973 193.289 66.392C192.878 66.1867 192.43 66.084 191.945 66.084C191.217 66.084 190.596 66.3173 190.083 66.784C189.569 67.2507 189.285 67.9087 189.229 68.758H194.605ZM198.371 66.714C198.586 66.238 198.913 65.8693 199.351 65.608C199.799 65.3467 200.345 65.216 200.989 65.216V66.238H200.723C200.014 66.238 199.445 66.4293 199.015 66.812C198.586 67.1947 198.371 67.834 198.371 68.73V73H197.391V65.356H198.371V66.714ZM205.096 73.112C204.218 73.112 203.5 72.9113 202.94 72.51C202.389 72.0993 202.081 71.544 202.016 70.844H203.024C203.07 71.2733 203.271 71.6233 203.626 71.894C203.99 72.1553 204.475 72.286 205.082 72.286C205.614 72.286 206.029 72.16 206.328 71.908C206.636 71.656 206.79 71.3433 206.79 70.97C206.79 70.7087 206.706 70.494 206.538 70.326C206.37 70.158 206.155 70.0273 205.894 69.934C205.642 69.8313 205.296 69.724 204.858 69.612C204.288 69.4627 203.826 69.3133 203.472 69.164C203.117 69.0147 202.814 68.7953 202.562 68.506C202.319 68.2073 202.198 67.8107 202.198 67.316C202.198 66.9427 202.31 66.5973 202.534 66.28C202.758 65.9627 203.075 65.7107 203.486 65.524C203.896 65.3373 204.363 65.244 204.886 65.244C205.707 65.244 206.37 65.454 206.874 65.874C207.378 66.2847 207.648 66.854 207.686 67.582H206.706C206.678 67.134 206.5 66.7747 206.174 66.504C205.856 66.224 205.418 66.084 204.858 66.084C204.363 66.084 203.962 66.2007 203.654 66.434C203.346 66.6673 203.192 66.9567 203.192 67.302C203.192 67.6007 203.28 67.848 203.458 68.044C203.644 68.2307 203.873 68.38 204.144 68.492C204.414 68.5947 204.778 68.7113 205.236 68.842C205.786 68.9913 206.225 69.136 206.552 69.276C206.878 69.416 207.158 69.6213 207.392 69.892C207.625 70.1627 207.746 70.522 207.756 70.97C207.756 71.3807 207.644 71.7493 207.42 72.076C207.196 72.3933 206.883 72.6453 206.482 72.832C206.08 73.0187 205.618 73.112 205.096 73.112ZM210.874 66.182V70.928C210.874 71.3947 210.963 71.7167 211.14 71.894C211.318 72.0713 211.63 72.16 212.078 72.16H212.974V73H211.924C211.234 73 210.72 72.8413 210.384 72.524C210.048 72.1973 209.88 71.6653 209.88 70.928V66.182H208.816V65.356H209.88V63.438H210.874V65.356H212.974V66.182H210.874ZM214.143 69.164C214.143 68.38 214.297 67.694 214.605 67.106C214.922 66.5087 215.356 66.0513 215.907 65.734C216.467 65.4073 217.097 65.244 217.797 65.244C218.525 65.244 219.15 65.412 219.673 65.748C220.205 66.084 220.587 66.5133 220.821 67.036V65.356H221.801V73H220.821V71.306C220.578 71.8287 220.191 72.2627 219.659 72.608C219.136 72.944 218.511 73.112 217.783 73.112C217.092 73.112 216.467 72.9487 215.907 72.622C215.356 72.2953 214.922 71.8333 214.605 71.236C214.297 70.6387 214.143 69.948 214.143 69.164ZM220.821 69.178C220.821 68.562 220.695 68.0207 220.443 67.554C220.191 67.0873 219.845 66.728 219.407 66.476C218.977 66.224 218.501 66.098 217.979 66.098C217.437 66.098 216.952 66.2193 216.523 66.462C216.093 66.7047 215.753 67.0593 215.501 67.526C215.258 67.9833 215.137 68.5293 215.137 69.164C215.137 69.7893 215.258 70.34 215.501 70.816C215.753 71.2827 216.093 71.642 216.523 71.894C216.952 72.1367 217.437 72.258 217.979 72.258C218.501 72.258 218.977 72.132 219.407 71.88C219.845 71.628 220.191 71.2687 220.443 70.802C220.695 70.3353 220.821 69.794 220.821 69.178ZM227.622 65.216C228.537 65.216 229.283 65.5007 229.862 66.07C230.441 66.63 230.73 67.4467 230.73 68.52V73H229.764V68.632C229.764 67.8013 229.554 67.1667 229.134 66.728C228.723 66.2893 228.159 66.07 227.44 66.07C226.703 66.07 226.115 66.3033 225.676 66.77C225.237 67.2367 225.018 67.9227 225.018 68.828V73H224.038V65.356H225.018V66.658C225.261 66.1913 225.611 65.8367 226.068 65.594C226.525 65.342 227.043 65.216 227.622 65.216ZM232.449 69.164C232.449 68.38 232.608 67.694 232.925 67.106C233.243 66.5087 233.677 66.0513 234.227 65.734C234.787 65.4073 235.417 65.244 236.117 65.244C236.789 65.244 237.396 65.4073 237.937 65.734C238.479 66.0607 238.875 66.4853 239.127 67.008V62.64H240.107V73H239.127V71.292C238.894 71.824 238.511 72.2627 237.979 72.608C237.447 72.944 236.822 73.112 236.103 73.112C235.403 73.112 234.773 72.9487 234.213 72.622C233.663 72.2953 233.229 71.8333 232.911 71.236C232.603 70.6387 232.449 69.948 232.449 69.164ZM239.127 69.178C239.127 68.562 239.001 68.0207 238.749 67.554C238.497 67.0873 238.152 66.728 237.713 66.476C237.284 66.224 236.808 66.098 236.285 66.098C235.744 66.098 235.259 66.2193 234.829 66.462C234.4 66.7047 234.059 67.0593 233.807 67.526C233.565 67.9833 233.443 68.5293 233.443 69.164C233.443 69.7893 233.565 70.34 233.807 70.816C234.059 71.2827 234.4 71.642 234.829 71.894C235.259 72.1367 235.744 72.258 236.285 72.258C236.808 72.258 237.284 72.132 237.713 71.88C238.152 71.628 238.497 71.2687 238.749 70.802C239.001 70.3353 239.127 69.794 239.127 69.178ZM21.61 84.914C21.414 84.914 21.246 84.844 21.106 84.704C20.966 84.564 20.896 84.3913 20.896 84.186C20.896 83.9807 20.966 83.8127 21.106 83.682C21.246 83.542 21.414 83.472 21.61 83.472C21.806 83.472 21.974 83.542 22.114 83.682C22.254 83.8127 22.324 83.9807 22.324 84.186C22.324 84.3913 22.254 84.564 22.114 84.704C21.974 84.844 21.806 84.914 21.61 84.914ZM22.1 86.356V94H21.12V86.356H22.1ZM25.5932 87.182V91.928C25.5932 92.3947 25.6819 92.7167 25.8592 92.894C26.0366 93.0713 26.3492 93.16 26.7972 93.16H27.6932V94H26.6432C25.9526 94 25.4392 93.8413 25.1032 93.524C24.7672 93.1973 24.5992 92.6653 24.5992 91.928V87.182H23.5352V86.356H24.5992V84.438H25.5932V86.356H27.6932V87.182H25.5932ZM33.6413 84.914C33.4453 84.914 33.2773 84.844 33.1373 84.704C32.9973 84.564 32.9273 84.3913 32.9273 84.186C32.9273 83.9807 32.9973 83.8127 33.1373 83.682C33.2773 83.542 33.4453 83.472 33.6413 83.472C33.8373 83.472 34.0053 83.542 34.1453 83.682C34.2853 83.8127 34.3553 83.9807 34.3553 84.186C34.3553 84.3913 34.2853 84.564 34.1453 84.704C34.0053 84.844 33.8373 84.914 33.6413 84.914ZM34.1313 86.356V94H33.1513V86.356H34.1313ZM39.9345 86.216C40.8491 86.216 41.5958 86.5007 42.1745 87.07C42.7531 87.63 43.0425 88.4467 43.0425 89.52V94H42.0765V89.632C42.0765 88.8013 41.8665 88.1667 41.4465 87.728C41.0358 87.2893 40.4711 87.07 39.7525 87.07C39.0151 87.07 38.4271 87.3033 37.9885 87.77C37.5498 88.2367 37.3305 88.9227 37.3305 89.828V94H36.3505V86.356H37.3305V87.658C37.5731 87.1913 37.9231 86.8367 38.3805 86.594C38.8378 86.342 39.3558 86.216 39.9345 86.216ZM52.3976 94.112C51.679 94.112 51.0303 93.9533 50.4516 93.636C49.8823 93.3093 49.4296 92.852 49.0936 92.264C48.767 91.6667 48.6036 90.9713 48.6036 90.178C48.6036 89.3847 48.7716 88.694 49.1076 88.106C49.4436 87.5087 49.901 87.0513 50.4796 86.734C51.0583 86.4073 51.707 86.244 52.4256 86.244C53.1443 86.244 53.793 86.4073 54.3716 86.734C54.9596 87.0513 55.417 87.5087 55.7436 88.106C56.0796 88.694 56.2476 89.3847 56.2476 90.178C56.2476 90.962 56.0796 91.6527 55.7436 92.25C55.4076 92.8473 54.9456 93.3093 54.3576 93.636C53.7696 93.9533 53.1163 94.112 52.3976 94.112ZM52.3976 93.258C52.9016 93.258 53.3683 93.146 53.7976 92.922C54.227 92.6887 54.5723 92.3433 54.8336 91.886C55.1043 91.4193 55.2396 90.85 55.2396 90.178C55.2396 89.506 55.109 88.9413 54.8476 88.484C54.5863 88.0173 54.241 87.672 53.8116 87.448C53.3823 87.2147 52.9156 87.098 52.4116 87.098C51.9076 87.098 51.441 87.2147 51.0116 87.448C50.5823 87.672 50.237 88.0173 49.9756 88.484C49.7236 88.9413 49.5976 89.506 49.5976 90.178C49.5976 90.85 49.7236 91.4193 49.9756 91.886C50.237 92.3433 50.5776 92.6887 50.9976 92.922C51.427 93.146 51.8936 93.258 52.3976 93.258ZM61.6181 86.216C62.5327 86.216 63.2794 86.5007 63.8581 87.07C64.4367 87.63 64.7261 88.4467 64.7261 89.52V94H63.7601V89.632C63.7601 88.8013 63.5501 88.1667 63.1301 87.728C62.7194 87.2893 62.1547 87.07 61.4361 87.07C60.6987 87.07 60.1107 87.3033 59.6721 87.77C59.2334 88.2367 59.0141 88.9227 59.0141 89.828V94H58.0341V86.356H59.0141V87.658C59.2567 87.1913 59.6067 86.8367 60.0641 86.594C60.5214 86.342 61.0394 86.216 61.6181 86.216ZM73.8094 89.786C73.8094 90.122 73.8001 90.3787 73.7814 90.556H67.4394C67.4674 91.1347 67.6074 91.6293 67.8594 92.04C68.1114 92.4507 68.4428 92.7633 68.8534 92.978C69.2641 93.1833 69.7121 93.286 70.1974 93.286C70.8321 93.286 71.3641 93.132 71.7934 92.824C72.2321 92.516 72.5214 92.1007 72.6614 91.578H73.6974C73.5108 92.3247 73.1094 92.936 72.4934 93.412C71.8868 93.8787 71.1214 94.112 70.1974 94.112C69.4788 94.112 68.8348 93.9533 68.2654 93.636C67.6961 93.3093 67.2481 92.852 66.9214 92.264C66.6041 91.6667 66.4454 90.9713 66.4454 90.178C66.4454 89.3847 66.6041 88.6893 66.9214 88.092C67.2388 87.4947 67.6821 87.0373 68.2514 86.72C68.8208 86.4027 69.4694 86.244 70.1974 86.244C70.9254 86.244 71.5601 86.4027 72.1014 86.72C72.6521 87.0373 73.0721 87.4667 73.3614 88.008C73.6601 88.54 73.8094 89.1327 73.8094 89.786ZM72.8154 89.758C72.8248 89.1887 72.7081 88.7033 72.4654 88.302C72.2321 87.9007 71.9101 87.5973 71.4994 87.392C71.0888 87.1867 70.6408 87.084 70.1554 87.084C69.4274 87.084 68.8068 87.3173 68.2934 87.784C67.7801 88.2507 67.4954 88.9087 67.4394 89.758H72.8154ZM82.0762 94.112C81.1989 94.112 80.4802 93.9113 79.9202 93.51C79.3696 93.0993 79.0616 92.544 78.9962 91.844H80.0042C80.0509 92.2733 80.2516 92.6233 80.6062 92.894C80.9702 93.1553 81.4556 93.286 82.0622 93.286C82.5942 93.286 83.0096 93.16 83.3082 92.908C83.6162 92.656 83.7702 92.3433 83.7702 91.97C83.7702 91.7087 83.6862 91.494 83.5182 91.326C83.3502 91.158 83.1356 91.0273 82.8742 90.934C82.6222 90.8313 82.2769 90.724 81.8382 90.612C81.2689 90.4627 80.8069 90.3133 80.4522 90.164C80.0976 90.0147 79.7942 89.7953 79.5422 89.506C79.2996 89.2073 79.1782 88.8107 79.1782 88.316C79.1782 87.9427 79.2902 87.5973 79.5142 87.28C79.7382 86.9627 80.0556 86.7107 80.4662 86.524C80.8769 86.3373 81.3436 86.244 81.8662 86.244C82.6876 86.244 83.3502 86.454 83.8542 86.874C84.3582 87.2847 84.6289 87.854 84.6662 88.582H83.6862C83.6582 88.134 83.4809 87.7747 83.1542 87.504C82.8369 87.224 82.3982 87.084 81.8382 87.084C81.3436 87.084 80.9422 87.2007 80.6342 87.434C80.3262 87.6673 80.1722 87.9567 80.1722 88.302C80.1722 88.6007 80.2609 88.848 80.4382 89.044C80.6249 89.2307 80.8536 89.38 81.1242 89.492C81.3949 89.5947 81.7589 89.7113 82.2162 89.842C82.7669 89.9913 83.2056 90.136 83.5322 90.276C83.8589 90.416 84.1389 90.6213 84.3722 90.892C84.6056 91.1627 84.7269 91.522 84.7362 91.97C84.7362 92.3807 84.6242 92.7493 84.4002 93.076C84.1762 93.3933 83.8636 93.6453 83.4622 93.832C83.0609 94.0187 82.5989 94.112 82.0762 94.112ZM93.4969 89.786C93.4969 90.122 93.4876 90.3787 93.4689 90.556H87.1269C87.1549 91.1347 87.2949 91.6293 87.5469 92.04C87.7989 92.4507 88.1303 92.7633 88.5409 92.978C88.9516 93.1833 89.3996 93.286 89.8849 93.286C90.5196 93.286 91.0516 93.132 91.4809 92.824C91.9196 92.516 92.2089 92.1007 92.3489 91.578H93.3849C93.1983 92.3247 92.7969 92.936 92.1809 93.412C91.5743 93.8787 90.8089 94.112 89.8849 94.112C89.1663 94.112 88.5223 93.9533 87.9529 93.636C87.3836 93.3093 86.9356 92.852 86.6089 92.264C86.2916 91.6667 86.1329 90.9713 86.1329 90.178C86.1329 89.3847 86.2916 88.6893 86.6089 88.092C86.9263 87.4947 87.3696 87.0373 87.9389 86.72C88.5083 86.4027 89.1569 86.244 89.8849 86.244C90.6129 86.244 91.2476 86.4027 91.7889 86.72C92.3396 87.0373 92.7596 87.4667 93.0489 88.008C93.3476 88.54 93.4969 89.1327 93.4969 89.786ZM92.5029 89.758C92.5123 89.1887 92.3956 88.7033 92.1529 88.302C91.9196 87.9007 91.5976 87.5973 91.1869 87.392C90.7763 87.1867 90.3283 87.084 89.8429 87.084C89.1149 87.084 88.4943 87.3173 87.9809 87.784C87.4676 88.2507 87.1829 88.9087 87.1269 89.758H92.5029ZM98.8739 86.216C99.7886 86.216 100.535 86.5007 101.114 87.07C101.693 87.63 101.982 88.4467 101.982 89.52V94H101.016V89.632C101.016 88.8013 100.806 88.1667 100.386 87.728C99.9753 87.2893 99.4106 87.07 98.6919 87.07C97.9546 87.07 97.3666 87.3033 96.9279 87.77C96.4893 88.2367 96.2699 88.9227 96.2699 89.828V94H95.2899V86.356H96.2699V87.658C96.5126 87.1913 96.8626 86.8367 97.3199 86.594C97.7773 86.342 98.2953 86.216 98.8739 86.216ZM105.423 87.182V91.928C105.423 92.3947 105.512 92.7167 105.689 92.894C105.867 93.0713 106.179 93.16 106.627 93.16H107.523V94H106.473C105.783 94 105.269 93.8413 104.933 93.524C104.597 93.1973 104.429 92.6653 104.429 91.928V87.182H103.365V86.356H104.429V84.438H105.423V86.356H107.523V87.182H105.423ZM116.056 89.786C116.056 90.122 116.046 90.3787 116.028 90.556H109.686C109.714 91.1347 109.854 91.6293 110.106 92.04C110.358 92.4507 110.689 92.7633 111.1 92.978C111.51 93.1833 111.958 93.286 112.444 93.286C113.078 93.286 113.61 93.132 114.04 92.824C114.478 92.516 114.768 92.1007 114.908 91.578H115.944C115.757 92.3247 115.356 92.936 114.74 93.412C114.133 93.8787 113.368 94.112 112.444 94.112C111.725 94.112 111.081 93.9533 110.512 93.636C109.942 93.3093 109.494 92.852 109.168 92.264C108.85 91.6667 108.692 90.9713 108.692 90.178C108.692 89.3847 108.85 88.6893 109.168 88.092C109.485 87.4947 109.928 87.0373 110.498 86.72C111.067 86.4027 111.716 86.244 112.444 86.244C113.172 86.244 113.806 86.4027 114.348 86.72C114.898 87.0373 115.318 87.4667 115.608 88.008C115.906 88.54 116.056 89.1327 116.056 89.786ZM115.062 89.758C115.071 89.1887 114.954 88.7033 114.712 88.302C114.478 87.9007 114.156 87.5973 113.746 87.392C113.335 87.1867 112.887 87.084 112.402 87.084C111.674 87.084 111.053 87.3173 110.54 87.784C110.026 88.2507 109.742 88.9087 109.686 89.758H115.062ZM121.433 86.216C122.347 86.216 123.094 86.5007 123.673 87.07C124.251 87.63 124.541 88.4467 124.541 89.52V94H123.575V89.632C123.575 88.8013 123.365 88.1667 122.945 87.728C122.534 87.2893 121.969 87.07 121.251 87.07C120.513 87.07 119.925 87.3033 119.487 87.77C119.048 88.2367 118.829 88.9227 118.829 89.828V94H117.849V86.356H118.829V87.658C119.071 87.1913 119.421 86.8367 119.879 86.594C120.336 86.342 120.854 86.216 121.433 86.216ZM126.26 90.178C126.26 89.3847 126.419 88.694 126.736 88.106C127.053 87.5087 127.492 87.0513 128.052 86.734C128.612 86.4073 129.251 86.244 129.97 86.244C130.913 86.244 131.687 86.4773 132.294 86.944C132.91 87.4107 133.307 88.0453 133.484 88.848H132.434C132.303 88.2973 132.019 87.868 131.58 87.56C131.151 87.2427 130.614 87.084 129.97 87.084C129.457 87.084 128.995 87.2007 128.584 87.434C128.173 87.6673 127.847 88.0173 127.604 88.484C127.371 88.9413 127.254 89.506 127.254 90.178C127.254 90.85 127.371 91.4193 127.604 91.886C127.847 92.3527 128.173 92.7027 128.584 92.936C128.995 93.1693 129.457 93.286 129.97 93.286C130.614 93.286 131.151 93.132 131.58 92.824C132.019 92.5067 132.303 92.068 132.434 91.508H133.484C133.307 92.292 132.91 92.922 132.294 93.398C131.678 93.874 130.903 94.112 129.97 94.112C129.251 94.112 128.612 93.9533 128.052 93.636C127.492 93.3093 127.053 92.852 126.736 92.264C126.419 91.6667 126.26 90.9713 126.26 90.178ZM142.21 89.786C142.21 90.122 142.2 90.3787 142.182 90.556H135.84C135.868 91.1347 136.008 91.6293 136.26 92.04C136.512 92.4507 136.843 92.7633 137.254 92.978C137.664 93.1833 138.112 93.286 138.598 93.286C139.232 93.286 139.764 93.132 140.194 92.824C140.632 92.516 140.922 92.1007 141.062 91.578H142.098C141.911 92.3247 141.51 92.936 140.894 93.412C140.287 93.8787 139.522 94.112 138.598 94.112C137.879 94.112 137.235 93.9533 136.666 93.636C136.096 93.3093 135.648 92.852 135.322 92.264C135.004 91.6667 134.846 90.9713 134.846 90.178C134.846 89.3847 135.004 88.6893 135.322 88.092C135.639 87.4947 136.082 87.0373 136.652 86.72C137.221 86.4027 137.87 86.244 138.598 86.244C139.326 86.244 139.96 86.4027 140.502 86.72C141.052 87.0373 141.472 87.4667 141.762 88.008C142.06 88.54 142.21 89.1327 142.21 89.786ZM141.216 89.758C141.225 89.1887 141.108 88.7033 140.866 88.302C140.632 87.9007 140.31 87.5973 139.9 87.392C139.489 87.1867 139.041 87.084 138.556 87.084C137.828 87.084 137.207 87.3173 136.694 87.784C136.18 88.2507 135.896 88.9087 135.84 89.758H141.216ZM144.171 94.07C143.965 94.07 143.793 94 143.653 93.86C143.522 93.72 143.457 93.5473 143.457 93.342C143.457 93.1367 143.522 92.9687 143.653 92.838C143.793 92.698 143.965 92.628 144.171 92.628C144.367 92.628 144.53 92.698 144.661 92.838C144.801 92.9687 144.871 93.1367 144.871 93.342C144.871 93.5473 144.801 93.72 144.661 93.86C144.53 94 144.367 94.07 144.171 94.07Z" fill="white"/>
</svg>
