<svg width="255" height="146" viewBox="0 0 255 146" fill="none" xmlns="http://www.w3.org/2000/svg">
<path d="M202.192 142.857C202.528 143.693 203.711 143.693 204.047 142.857L210.465 126.913C210.729 126.256 210.246 125.54 209.537 125.54L196.702 125.54C195.994 125.54 195.51 126.256 195.775 126.913L202.192 142.857Z" fill="#3D37CD"/>
<rect width="255" height="132" rx="20" transform="matrix(-1 0 0 1 255 0)" fill="#3D37CD"/>
<path d="M21.846 19.214V20.026H19.13V29H18.15V20.026H15.42V19.214H21.846ZM27.0334 21.216C27.6121 21.216 28.1301 21.3373 28.5874 21.58C29.0541 21.8227 29.4181 22.196 29.6794 22.7C29.9501 23.1947 30.0854 23.8013 30.0854 24.52V29H29.1194V24.632C29.1194 23.8013 28.9094 23.1667 28.4894 22.728C28.0788 22.2893 27.5141 22.07 26.7954 22.07C26.0581 22.07 25.4701 22.3033 25.0314 22.77C24.5928 23.2367 24.3734 23.9227 24.3734 24.828V29H23.3934V18.64H24.3734V22.658C24.6161 22.2007 24.9708 21.846 25.4374 21.594C25.9134 21.342 26.4454 21.216 27.0334 21.216ZM39.1688 24.786C39.1688 25.122 39.1595 25.3787 39.1408 25.556H32.7988C32.8268 26.1347 32.9668 26.6293 33.2188 27.04C33.4708 27.4507 33.8021 27.7633 34.2128 27.978C34.6235 28.1833 35.0715 28.286 35.5568 28.286C36.1915 28.286 36.7235 28.132 37.1528 27.824C37.5915 27.516 37.8808 27.1007 38.0208 26.578H39.0568C38.8701 27.3247 38.4688 27.936 37.8528 28.412C37.2461 28.8787 36.4808 29.112 35.5568 29.112C34.8381 29.112 34.1941 28.9533 33.6248 28.636C33.0555 28.3093 32.6075 27.852 32.2808 27.264C31.9635 26.6667 31.8048 25.9713 31.8048 25.178C31.8048 24.3847 31.9635 23.6893 32.2808 23.092C32.5981 22.4947 33.0415 22.0373 33.6108 21.72C34.1801 21.4027 34.8288 21.244 35.5568 21.244C36.2848 21.244 36.9195 21.4027 37.4608 21.72C38.0115 22.0373 38.4315 22.4667 38.7208 23.008C39.0195 23.54 39.1688 24.1327 39.1688 24.786ZM38.1748 24.758C38.1841 24.1887 38.0675 23.7033 37.8248 23.302C37.5915 22.9007 37.2695 22.5973 36.8588 22.392C36.4481 22.1867 36.0001 22.084 35.5148 22.084C34.7868 22.084 34.1661 22.3173 33.6528 22.784C33.1395 23.2507 32.8548 23.9087 32.7988 24.758H38.1748ZM45.7696 23.036C46.0123 22.5227 46.3949 22.098 46.9176 21.762C47.4496 21.4167 48.0796 21.244 48.8076 21.244C49.4983 21.244 50.1189 21.4073 50.6696 21.734C51.2296 22.0513 51.6636 22.5087 51.9716 23.106C52.2889 23.694 52.4476 24.38 52.4476 25.164C52.4476 25.948 52.2889 26.6387 51.9716 27.236C51.6636 27.8333 51.2296 28.2953 50.6696 28.622C50.1189 28.9487 49.4983 29.112 48.8076 29.112C48.0889 29.112 47.4636 28.944 46.9316 28.608C46.3996 28.2627 46.0123 27.8333 45.7696 27.32V32.612H44.8036V21.356H45.7696V23.036ZM51.4536 25.164C51.4536 24.5293 51.3276 23.9833 51.0756 23.526C50.8329 23.0593 50.4969 22.7047 50.0676 22.462C49.6383 22.2193 49.1529 22.098 48.6116 22.098C48.0889 22.098 47.6083 22.224 47.1696 22.476C46.7403 22.728 46.3996 23.0873 46.1476 23.554C45.8956 24.0207 45.7696 24.562 45.7696 25.178C45.7696 25.794 45.8956 26.3353 46.1476 26.802C46.3996 27.2687 46.7403 27.628 47.1696 27.88C47.6083 28.132 48.0889 28.258 48.6116 28.258C49.1529 28.258 49.6383 28.1367 50.0676 27.894C50.4969 27.642 50.8329 27.2827 51.0756 26.816C51.3276 26.34 51.4536 25.7893 51.4536 25.164ZM55.2309 22.714C55.4455 22.238 55.7722 21.8693 56.2109 21.608C56.6589 21.3467 57.2049 21.216 57.8489 21.216V22.238H57.5829C56.8735 22.238 56.3042 22.4293 55.8749 22.812C55.4455 23.1947 55.2309 23.834 55.2309 24.73V29H54.2509V21.356H55.2309V22.714ZM62.6691 29.112C61.9505 29.112 61.3018 28.9533 60.7231 28.636C60.1538 28.3093 59.7011 27.852 59.3651 27.264C59.0385 26.6667 58.8751 25.9713 58.8751 25.178C58.8751 24.3847 59.0431 23.694 59.3791 23.106C59.7151 22.5087 60.1725 22.0513 60.7511 21.734C61.3298 21.4073 61.9785 21.244 62.6971 21.244C63.4158 21.244 64.0645 21.4073 64.6431 21.734C65.2311 22.0513 65.6885 22.5087 66.0151 23.106C66.3511 23.694 66.5191 24.3847 66.5191 25.178C66.5191 25.962 66.3511 26.6527 66.0151 27.25C65.6791 27.8473 65.2171 28.3093 64.6291 28.636C64.0411 28.9533 63.3878 29.112 62.6691 29.112ZM62.6691 28.258C63.1731 28.258 63.6398 28.146 64.0691 27.922C64.4985 27.6887 64.8438 27.3433 65.1051 26.886C65.3758 26.4193 65.5111 25.85 65.5111 25.178C65.5111 24.506 65.3805 23.9413 65.1191 23.484C64.8578 23.0173 64.5125 22.672 64.0831 22.448C63.6538 22.2147 63.1871 22.098 62.6831 22.098C62.1791 22.098 61.7125 22.2147 61.2831 22.448C60.8538 22.672 60.5085 23.0173 60.2471 23.484C59.9951 23.9413 59.8691 24.506 59.8691 25.178C59.8691 25.85 59.9951 26.4193 60.2471 26.886C60.5085 27.3433 60.8491 27.6887 61.2691 27.922C61.6985 28.146 62.1651 28.258 62.6691 28.258ZM69.2715 23.05C69.5235 22.518 69.9109 22.084 70.4335 21.748C70.9655 21.412 71.5909 21.244 72.3095 21.244C73.0095 21.244 73.6349 21.4073 74.1855 21.734C74.7362 22.0513 75.1655 22.5087 75.4735 23.106C75.7909 23.694 75.9495 24.38 75.9495 25.164C75.9495 25.948 75.7909 26.6387 75.4735 27.236C75.1655 27.8333 74.7315 28.2953 74.1715 28.622C73.6209 28.9487 73.0002 29.112 72.3095 29.112C71.5815 29.112 70.9515 28.9487 70.4195 28.622C69.8969 28.286 69.5142 27.852 69.2715 27.32V29H68.3055V18.64H69.2715V23.05ZM74.9555 25.164C74.9555 24.5293 74.8295 23.9833 74.5775 23.526C74.3349 23.0593 73.9989 22.7047 73.5695 22.462C73.1402 22.2193 72.6549 22.098 72.1135 22.098C71.5909 22.098 71.1102 22.224 70.6715 22.476C70.2422 22.728 69.9015 23.0873 69.6495 23.554C69.3975 24.0207 69.2715 24.562 69.2715 25.178C69.2715 25.794 69.3975 26.3353 69.6495 26.802C69.9015 27.2687 70.2422 27.628 70.6715 27.88C71.1102 28.132 71.5909 28.258 72.1135 28.258C72.6549 28.258 73.1402 28.1367 73.5695 27.894C73.9989 27.642 74.3349 27.2827 74.5775 26.816C74.8295 26.34 74.9555 25.7893 74.9555 25.164ZM78.7328 18.64V29H77.7528V18.64H78.7328ZM87.868 24.786C87.868 25.122 87.8587 25.3787 87.84 25.556H81.498C81.526 26.1347 81.666 26.6293 81.918 27.04C82.17 27.4507 82.5014 27.7633 82.912 27.978C83.3227 28.1833 83.7707 28.286 84.256 28.286C84.8907 28.286 85.4227 28.132 85.852 27.824C86.2907 27.516 86.58 27.1007 86.72 26.578H87.756C87.5694 27.3247 87.168 27.936 86.552 28.412C85.9454 28.8787 85.18 29.112 84.256 29.112C83.5374 29.112 82.8934 28.9533 82.324 28.636C81.7547 28.3093 81.3067 27.852 80.98 27.264C80.6627 26.6667 80.504 25.9713 80.504 25.178C80.504 24.3847 80.6627 23.6893 80.98 23.092C81.2974 22.4947 81.7407 22.0373 82.31 21.72C82.8794 21.4027 83.528 21.244 84.256 21.244C84.984 21.244 85.6187 21.4027 86.16 21.72C86.7107 22.0373 87.1307 22.4667 87.42 23.008C87.7187 23.54 87.868 24.1327 87.868 24.786ZM86.874 24.758C86.8834 24.1887 86.7667 23.7033 86.524 23.302C86.2907 22.9007 85.9687 22.5973 85.558 22.392C85.1474 22.1867 84.6994 22.084 84.214 22.084C83.486 22.084 82.8654 22.3173 82.352 22.784C81.8387 23.2507 81.554 23.9087 81.498 24.758H86.874ZM98.761 21.216C99.657 21.216 100.385 21.5007 100.945 22.07C101.514 22.63 101.799 23.4467 101.799 24.52V29H100.833V24.632C100.833 23.8013 100.632 23.1667 100.231 22.728C99.8297 22.2893 99.2837 22.07 98.593 22.07C97.8743 22.07 97.3003 22.308 96.871 22.784C96.4417 23.26 96.227 23.9507 96.227 24.856V29H95.261V24.632C95.261 23.8013 95.0603 23.1667 94.659 22.728C94.2577 22.2893 93.707 22.07 93.007 22.07C92.2883 22.07 91.7143 22.308 91.285 22.784C90.8557 23.26 90.641 23.9507 90.641 24.856V29H89.661V21.356H90.641V22.672C90.8837 22.196 91.229 21.8367 91.677 21.594C92.125 21.342 92.6243 21.216 93.175 21.216C93.8377 21.216 94.4163 21.3747 94.911 21.692C95.415 22.0093 95.779 22.476 96.003 23.092C96.2083 22.4853 96.5583 22.0233 97.053 21.706C97.557 21.3793 98.1263 21.216 98.761 21.216ZM108.721 23.4V24.226H103.275V23.4H108.721ZM113.867 29.112C112.99 29.112 112.271 28.9113 111.711 28.51C111.161 28.0993 110.853 27.544 110.787 26.844H111.795C111.842 27.2733 112.043 27.6233 112.397 27.894C112.761 28.1553 113.247 28.286 113.853 28.286C114.385 28.286 114.801 28.16 115.099 27.908C115.407 27.656 115.561 27.3433 115.561 26.97C115.561 26.7087 115.477 26.494 115.309 26.326C115.141 26.158 114.927 26.0273 114.665 25.934C114.413 25.8313 114.068 25.724 113.629 25.612C113.06 25.4627 112.598 25.3133 112.243 25.164C111.889 25.0147 111.585 24.7953 111.333 24.506C111.091 24.2073 110.969 23.8107 110.969 23.316C110.969 22.9427 111.081 22.5973 111.305 22.28C111.529 21.9627 111.847 21.7107 112.257 21.524C112.668 21.3373 113.135 21.244 113.657 21.244C114.479 21.244 115.141 21.454 115.645 21.874C116.149 22.2847 116.42 22.854 116.457 23.582H115.477C115.449 23.134 115.272 22.7747 114.945 22.504C114.628 22.224 114.189 22.084 113.629 22.084C113.135 22.084 112.733 22.2007 112.425 22.434C112.117 22.6673 111.963 22.9567 111.963 23.302C111.963 23.6007 112.052 23.848 112.229 24.044C112.416 24.2307 112.645 24.38 112.915 24.492C113.186 24.5947 113.55 24.7113 114.007 24.842C114.558 24.9913 114.997 25.136 115.323 25.276C115.65 25.416 115.93 25.6213 116.163 25.892C116.397 26.1627 116.518 26.522 116.527 26.97C116.527 27.3807 116.415 27.7493 116.191 28.076C115.967 28.3933 115.655 28.6453 115.253 28.832C114.852 29.0187 114.39 29.112 113.867 29.112ZM121.718 29.112C120.999 29.112 120.351 28.9533 119.772 28.636C119.203 28.3093 118.75 27.852 118.414 27.264C118.087 26.6667 117.924 25.9713 117.924 25.178C117.924 24.3847 118.092 23.694 118.428 23.106C118.764 22.5087 119.221 22.0513 119.8 21.734C120.379 21.4073 121.027 21.244 121.746 21.244C122.465 21.244 123.113 21.4073 123.692 21.734C124.28 22.0513 124.737 22.5087 125.064 23.106C125.4 23.694 125.568 24.3847 125.568 25.178C125.568 25.962 125.4 26.6527 125.064 27.25C124.728 27.8473 124.266 28.3093 123.678 28.636C123.09 28.9533 122.437 29.112 121.718 29.112ZM121.718 28.258C122.222 28.258 122.689 28.146 123.118 27.922C123.547 27.6887 123.893 27.3433 124.154 26.886C124.425 26.4193 124.56 25.85 124.56 25.178C124.56 24.506 124.429 23.9413 124.168 23.484C123.907 23.0173 123.561 22.672 123.132 22.448C122.703 22.2147 122.236 22.098 121.732 22.098C121.228 22.098 120.761 22.2147 120.332 22.448C119.903 22.672 119.557 23.0173 119.296 23.484C119.044 23.9413 118.918 24.506 118.918 25.178C118.918 25.85 119.044 26.4193 119.296 26.886C119.557 27.3433 119.898 27.6887 120.318 27.922C120.747 28.146 121.214 28.258 121.718 28.258ZM128.334 18.64V29H127.354V18.64H128.334ZM133.27 28.048L135.846 21.356H136.882L133.816 29H132.71L129.644 21.356H130.694L133.27 28.048ZM138.7 19.914C138.504 19.914 138.336 19.844 138.196 19.704C138.056 19.564 137.986 19.3913 137.986 19.186C137.986 18.9807 138.056 18.8127 138.196 18.682C138.336 18.542 138.504 18.472 138.7 18.472C138.896 18.472 139.064 18.542 139.204 18.682C139.344 18.8127 139.414 18.9807 139.414 19.186C139.414 19.3913 139.344 19.564 139.204 19.704C139.064 19.844 138.896 19.914 138.7 19.914ZM139.19 21.356V29H138.21V21.356H139.19ZM144.993 21.216C145.908 21.216 146.654 21.5007 147.233 22.07C147.812 22.63 148.101 23.4467 148.101 24.52V29H147.135V24.632C147.135 23.8013 146.925 23.1667 146.505 22.728C146.094 22.2893 145.53 22.07 144.811 22.07C144.074 22.07 143.486 22.3033 143.047 22.77C142.608 23.2367 142.389 23.9227 142.389 24.828V29H141.409V21.356H142.389V22.658C142.632 22.1913 142.982 21.8367 143.439 21.594C143.896 21.342 144.414 21.216 144.993 21.216ZM153.474 21.244C154.193 21.244 154.818 21.412 155.35 21.748C155.882 22.084 156.265 22.5087 156.498 23.022V21.356H157.478V29.196C157.478 29.896 157.324 30.5167 157.016 31.058C156.718 31.5993 156.298 32.0147 155.756 32.304C155.215 32.6027 154.599 32.752 153.908 32.752C152.928 32.752 152.112 32.5187 151.458 32.052C150.814 31.5853 150.413 30.9507 150.254 30.148H151.22C151.388 30.68 151.706 31.1047 152.172 31.422C152.648 31.7393 153.227 31.898 153.908 31.898C154.403 31.898 154.846 31.7907 155.238 31.576C155.63 31.3707 155.938 31.0627 156.162 30.652C156.386 30.2413 156.498 29.756 156.498 29.196V27.306C156.256 27.8287 155.868 28.2627 155.336 28.608C154.814 28.944 154.193 29.112 153.474 29.112C152.774 29.112 152.144 28.9487 151.584 28.622C151.034 28.2953 150.6 27.8333 150.282 27.236C149.974 26.6387 149.82 25.948 149.82 25.164C149.82 24.38 149.974 23.694 150.282 23.106C150.6 22.5087 151.034 22.0513 151.584 21.734C152.144 21.4073 152.774 21.244 153.474 21.244ZM156.498 25.178C156.498 24.562 156.372 24.0207 156.12 23.554C155.868 23.0873 155.523 22.728 155.084 22.476C154.655 22.224 154.179 22.098 153.656 22.098C153.115 22.098 152.63 22.2193 152.2 22.462C151.771 22.7047 151.43 23.0593 151.178 23.526C150.936 23.9833 150.814 24.5293 150.814 25.164C150.814 25.7893 150.936 26.34 151.178 26.816C151.43 27.2827 151.771 27.642 152.2 27.894C152.63 28.1367 153.115 28.258 153.656 28.258C154.179 28.258 154.655 28.132 155.084 27.88C155.523 27.628 155.868 27.2687 156.12 26.802C156.372 26.3353 156.498 25.794 156.498 25.178ZM164.048 19.914C163.852 19.914 163.684 19.844 163.544 19.704C163.404 19.564 163.334 19.3913 163.334 19.186C163.334 18.9807 163.404 18.8127 163.544 18.682C163.684 18.542 163.852 18.472 164.048 18.472C164.244 18.472 164.412 18.542 164.552 18.682C164.692 18.8127 164.762 18.9807 164.762 19.186C164.762 19.3913 164.692 19.564 164.552 19.704C164.412 19.844 164.244 19.914 164.048 19.914ZM164.538 21.356V29H163.558V21.356H164.538ZM166.309 25.164C166.309 24.38 166.467 23.694 166.785 23.106C167.102 22.5087 167.536 22.0513 168.087 21.734C168.647 21.4073 169.277 21.244 169.977 21.244C170.649 21.244 171.255 21.4073 171.797 21.734C172.338 22.0607 172.735 22.4853 172.987 23.008V18.64H173.967V29H172.987V27.292C172.753 27.824 172.371 28.2627 171.839 28.608C171.307 28.944 170.681 29.112 169.963 29.112C169.263 29.112 168.633 28.9487 168.073 28.622C167.522 28.2953 167.088 27.8333 166.771 27.236C166.463 26.6387 166.309 25.948 166.309 25.164ZM172.987 25.178C172.987 24.562 172.861 24.0207 172.609 23.554C172.357 23.0873 172.011 22.728 171.573 22.476C171.143 22.224 170.667 22.098 170.145 22.098C169.603 22.098 169.118 22.2193 168.689 22.462C168.259 22.7047 167.919 23.0593 167.667 23.526C167.424 23.9833 167.303 24.5293 167.303 25.164C167.303 25.7893 167.424 26.34 167.667 26.816C167.919 27.2827 168.259 27.642 168.689 27.894C169.118 28.1367 169.603 28.258 170.145 28.258C170.667 28.258 171.143 28.132 171.573 27.88C172.011 27.628 172.357 27.2687 172.609 26.802C172.861 26.3353 172.987 25.794 172.987 25.178ZM183.12 24.786C183.12 25.122 183.111 25.3787 183.092 25.556H176.75C176.778 26.1347 176.918 26.6293 177.17 27.04C177.422 27.4507 177.753 27.7633 178.164 27.978C178.575 28.1833 179.023 28.286 179.508 28.286C180.143 28.286 180.675 28.132 181.104 27.824C181.543 27.516 181.832 27.1007 181.972 26.578H183.008C182.821 27.3247 182.42 27.936 181.804 28.412C181.197 28.8787 180.432 29.112 179.508 29.112C178.789 29.112 178.145 28.9533 177.576 28.636C177.007 28.3093 176.559 27.852 176.232 27.264C175.915 26.6667 175.756 25.9713 175.756 25.178C175.756 24.3847 175.915 23.6893 176.232 23.092C176.549 22.4947 176.993 22.0373 177.562 21.72C178.131 21.4027 178.78 21.244 179.508 21.244C180.236 21.244 180.871 21.4027 181.412 21.72C181.963 22.0373 182.383 22.4667 182.672 23.008C182.971 23.54 183.12 24.1327 183.12 24.786ZM182.126 24.758C182.135 24.1887 182.019 23.7033 181.776 23.302C181.543 22.9007 181.221 22.5973 180.81 22.392C180.399 22.1867 179.951 22.084 179.466 22.084C178.738 22.084 178.117 22.3173 177.604 22.784C177.091 23.2507 176.806 23.9087 176.75 24.758H182.126ZM184.465 25.164C184.465 24.38 184.619 23.694 184.927 23.106C185.244 22.5087 185.678 22.0513 186.229 21.734C186.789 21.4073 187.419 21.244 188.119 21.244C188.847 21.244 189.472 21.412 189.995 21.748C190.527 22.084 190.91 22.5133 191.143 23.036V21.356H192.123V29H191.143V27.306C190.9 27.8287 190.513 28.2627 189.981 28.608C189.458 28.944 188.833 29.112 188.105 29.112C187.414 29.112 186.789 28.9487 186.229 28.622C185.678 28.2953 185.244 27.8333 184.927 27.236C184.619 26.6387 184.465 25.948 184.465 25.164ZM191.143 25.178C191.143 24.562 191.017 24.0207 190.765 23.554C190.513 23.0873 190.168 22.728 189.729 22.476C189.3 22.224 188.824 22.098 188.301 22.098C187.76 22.098 187.274 22.2193 186.845 22.462C186.416 22.7047 186.075 23.0593 185.823 23.526C185.58 23.9833 185.459 24.5293 185.459 25.164C185.459 25.7893 185.58 26.34 185.823 26.816C186.075 27.2827 186.416 27.642 186.845 27.894C187.274 28.1367 187.76 28.258 188.301 28.258C188.824 28.258 189.3 28.132 189.729 27.88C190.168 27.628 190.513 27.2687 190.765 26.802C191.017 26.3353 191.143 25.794 191.143 25.178ZM15.672 46.164C15.672 45.38 15.8307 44.694 16.148 44.106C16.4653 43.5087 16.8993 43.0513 17.45 42.734C18.01 42.4073 18.64 42.244 19.34 42.244C20.012 42.244 20.6187 42.4073 21.16 42.734C21.7013 43.0607 22.098 43.4853 22.35 44.008V39.64H23.33V50H22.35V48.292C22.1167 48.824 21.734 49.2627 21.202 49.608C20.67 49.944 20.0447 50.112 19.326 50.112C18.626 50.112 17.996 49.9487 17.436 49.622C16.8853 49.2953 16.4513 48.8333 16.134 48.236C15.826 47.6387 15.672 46.948 15.672 46.164ZM22.35 46.178C22.35 45.562 22.224 45.0207 21.972 44.554C21.72 44.0873 21.3747 43.728 20.936 43.476C20.5067 43.224 20.0307 43.098 19.508 43.098C18.9667 43.098 18.4813 43.2193 18.052 43.462C17.6227 43.7047 17.282 44.0593 17.03 44.526C16.7873 44.9833 16.666 45.5293 16.666 46.164C16.666 46.7893 16.7873 47.34 17.03 47.816C17.282 48.2827 17.6227 48.642 18.052 48.894C18.4813 49.1367 18.9667 49.258 19.508 49.258C20.0307 49.258 20.5067 49.132 20.936 48.88C21.3747 48.628 21.72 48.2687 21.972 47.802C22.224 47.3353 22.35 46.794 22.35 46.178ZM28.9133 50.112C28.1946 50.112 27.5459 49.9533 26.9673 49.636C26.3979 49.3093 25.9453 48.852 25.6093 48.264C25.2826 47.6667 25.1193 46.9713 25.1193 46.178C25.1193 45.3847 25.2873 44.694 25.6233 44.106C25.9593 43.5087 26.4166 43.0513 26.9953 42.734C27.5739 42.4073 28.2226 42.244 28.9413 42.244C29.6599 42.244 30.3086 42.4073 30.8873 42.734C31.4753 43.0513 31.9326 43.5087 32.2593 44.106C32.5953 44.694 32.7633 45.3847 32.7633 46.178C32.7633 46.962 32.5953 47.6527 32.2593 48.25C31.9233 48.8473 31.4613 49.3093 30.8733 49.636C30.2853 49.9533 29.6319 50.112 28.9133 50.112ZM28.9133 49.258C29.4173 49.258 29.8839 49.146 30.3133 48.922C30.7426 48.6887 31.0879 48.3433 31.3493 47.886C31.6199 47.4193 31.7553 46.85 31.7553 46.178C31.7553 45.506 31.6246 44.9413 31.3633 44.484C31.1019 44.0173 30.7566 43.672 30.3273 43.448C29.8979 43.2147 29.4313 43.098 28.9273 43.098C28.4233 43.098 27.9566 43.2147 27.5273 43.448C27.0979 43.672 26.7526 44.0173 26.4913 44.484C26.2393 44.9413 26.1133 45.506 26.1133 46.178C26.1133 46.85 26.2393 47.4193 26.4913 47.886C26.7526 48.3433 27.0933 48.6887 27.5133 48.922C27.9426 49.146 28.4093 49.258 28.9133 49.258ZM41.4657 45.786C41.4657 46.122 41.4564 46.3787 41.4377 46.556H35.0957C35.1237 47.1347 35.2637 47.6293 35.5157 48.04C35.7677 48.4507 36.099 48.7633 36.5097 48.978C36.9204 49.1833 37.3684 49.286 37.8537 49.286C38.4884 49.286 39.0204 49.132 39.4497 48.824C39.8884 48.516 40.1777 48.1007 40.3177 47.578H41.3537C41.167 48.3247 40.7657 48.936 40.1497 49.412C39.543 49.8787 38.7777 50.112 37.8537 50.112C37.135 50.112 36.491 49.9533 35.9217 49.636C35.3524 49.3093 34.9044 48.852 34.5777 48.264C34.2604 47.6667 34.1017 46.9713 34.1017 46.178C34.1017 45.3847 34.2604 44.6893 34.5777 44.092C34.895 43.4947 35.3384 43.0373 35.9077 42.72C36.477 42.4027 37.1257 42.244 37.8537 42.244C38.5817 42.244 39.2164 42.4027 39.7577 42.72C40.3084 43.0373 40.7284 43.4667 41.0177 44.008C41.3164 44.54 41.4657 45.1327 41.4657 45.786ZM40.4717 45.758C40.481 45.1887 40.3644 44.7033 40.1217 44.302C39.8884 43.9007 39.5664 43.5973 39.1557 43.392C38.745 43.1867 38.297 43.084 37.8117 43.084C37.0837 43.084 36.463 43.3173 35.9497 43.784C35.4364 44.2507 35.1517 44.9087 35.0957 45.758H40.4717ZM45.8907 50.112C45.0133 50.112 44.2947 49.9113 43.7347 49.51C43.184 49.0993 42.876 48.544 42.8107 47.844H43.8187C43.8653 48.2733 44.066 48.6233 44.4207 48.894C44.7847 49.1553 45.27 49.286 45.8767 49.286C46.4087 49.286 46.824 49.16 47.1227 48.908C47.4307 48.656 47.5847 48.3433 47.5847 47.97C47.5847 47.7087 47.5007 47.494 47.3327 47.326C47.1647 47.158 46.95 47.0273 46.6887 46.934C46.4367 46.8313 46.0913 46.724 45.6527 46.612C45.0833 46.4627 44.6213 46.3133 44.2667 46.164C43.912 46.0147 43.6087 45.7953 43.3567 45.506C43.114 45.2073 42.9927 44.8107 42.9927 44.316C42.9927 43.9427 43.1047 43.5973 43.3287 43.28C43.5527 42.9627 43.87 42.7107 44.2807 42.524C44.6913 42.3373 45.158 42.244 45.6807 42.244C46.502 42.244 47.1647 42.454 47.6687 42.874C48.1727 43.2847 48.4433 43.854 48.4807 44.582H47.5007C47.4727 44.134 47.2953 43.7747 46.9687 43.504C46.6513 43.224 46.2127 43.084 45.6527 43.084C45.158 43.084 44.7567 43.2007 44.4487 43.434C44.1407 43.6673 43.9867 43.9567 43.9867 44.302C43.9867 44.6007 44.0753 44.848 44.2527 45.044C44.4393 45.2307 44.668 45.38 44.9387 45.492C45.2093 45.5947 45.5733 45.7113 46.0307 45.842C46.5813 45.9913 47.02 46.136 47.3467 46.276C47.6733 46.416 47.9533 46.6213 48.1867 46.892C48.42 47.1627 48.5413 47.522 48.5507 47.97C48.5507 48.3807 48.4387 48.7493 48.2147 49.076C47.9907 49.3933 47.678 49.6453 47.2767 49.832C46.8753 50.0187 46.4133 50.112 45.8907 50.112ZM53.9794 42.216C54.8941 42.216 55.6407 42.5007 56.2194 43.07C56.7981 43.63 57.0874 44.4467 57.0874 45.52V50H56.1214V45.632C56.1214 44.8013 55.9114 44.1667 55.4914 43.728C55.0807 43.2893 54.5161 43.07 53.7974 43.07C53.0601 43.07 52.4721 43.3033 52.0334 43.77C51.5947 44.2367 51.3754 44.9227 51.3754 45.828V50H50.3954V42.356H51.3754V43.658C51.6181 43.1913 51.9681 42.8367 52.4254 42.594C52.8827 42.342 53.4007 42.216 53.9794 42.216ZM59.3808 40.214H60.5148L59.2828 43.238H58.5688L59.3808 40.214ZM63.2905 43.182V47.928C63.2905 48.3947 63.3792 48.7167 63.5565 48.894C63.7338 49.0713 64.0465 49.16 64.4945 49.16H65.3905V50H64.3405C63.6498 50 63.1365 49.8413 62.8005 49.524C62.4645 49.1973 62.2965 48.6653 62.2965 47.928V43.182H61.2325V42.356H62.2965V40.438H63.2905V42.356H65.3905V43.182H63.2905ZM74.4885 42.216C75.0672 42.216 75.5852 42.3373 76.0425 42.58C76.5092 42.8227 76.8732 43.196 77.1345 43.7C77.4052 44.1947 77.5405 44.8013 77.5405 45.52V50H76.5745V45.632C76.5745 44.8013 76.3645 44.1667 75.9445 43.728C75.5338 43.2893 74.9692 43.07 74.2505 43.07C73.5132 43.07 72.9252 43.3033 72.4865 43.77C72.0478 44.2367 71.8285 44.9227 71.8285 45.828V50H70.8485V39.64H71.8285V43.658C72.0712 43.2007 72.4258 42.846 72.8925 42.594C73.3685 42.342 73.9005 42.216 74.4885 42.216ZM79.2599 46.164C79.2599 45.38 79.4139 44.694 79.7219 44.106C80.0392 43.5087 80.4732 43.0513 81.0239 42.734C81.5839 42.4073 82.2139 42.244 82.9139 42.244C83.6419 42.244 84.2672 42.412 84.7899 42.748C85.3219 43.084 85.7046 43.5133 85.9379 44.036V42.356H86.9179V50H85.9379V48.306C85.6952 48.8287 85.3079 49.2627 84.7759 49.608C84.2532 49.944 83.6279 50.112 82.8999 50.112C82.2092 50.112 81.5839 49.9487 81.0239 49.622C80.4732 49.2953 80.0392 48.8333 79.7219 48.236C79.4139 47.6387 79.2599 46.948 79.2599 46.164ZM85.9379 46.178C85.9379 45.562 85.8119 45.0207 85.5599 44.554C85.3079 44.0873 84.9626 43.728 84.5239 43.476C84.0946 43.224 83.6186 43.098 83.0959 43.098C82.5546 43.098 82.0692 43.2193 81.6399 43.462C81.2106 43.7047 80.8699 44.0593 80.6179 44.526C80.3752 44.9833 80.2539 45.5293 80.2539 46.164C80.2539 46.7893 80.3752 47.34 80.6179 47.816C80.8699 48.2827 81.2106 48.642 81.6399 48.894C82.0692 49.1367 82.5546 49.258 83.0959 49.258C83.6186 49.258 84.0946 49.132 84.5239 48.88C84.9626 48.628 85.3079 48.2687 85.5599 47.802C85.8119 47.3353 85.9379 46.794 85.9379 46.178ZM91.8712 49.048L94.4472 42.356H95.4832L92.4172 50H91.3112L88.2452 42.356H89.2952L91.8712 49.048ZM103.727 45.786C103.727 46.122 103.718 46.3787 103.699 46.556H97.3574C97.3854 47.1347 97.5254 47.6293 97.7774 48.04C98.0294 48.4507 98.3607 48.7633 98.7714 48.978C99.1821 49.1833 99.6301 49.286 100.115 49.286C100.75 49.286 101.282 49.132 101.711 48.824C102.15 48.516 102.439 48.1007 102.579 47.578H103.615C103.429 48.3247 103.027 48.936 102.411 49.412C101.805 49.8787 101.039 50.112 100.115 50.112C99.3967 50.112 98.7527 49.9533 98.1834 49.636C97.6141 49.3093 97.1661 48.852 96.8394 48.264C96.5221 47.6667 96.3634 46.9713 96.3634 46.178C96.3634 45.3847 96.5221 44.6893 96.8394 44.092C97.1567 43.4947 97.6001 43.0373 98.1694 42.72C98.7387 42.4027 99.3874 42.244 100.115 42.244C100.843 42.244 101.478 42.4027 102.019 42.72C102.57 43.0373 102.99 43.4667 103.279 44.008C103.578 44.54 103.727 45.1327 103.727 45.786ZM102.733 45.758C102.743 45.1887 102.626 44.7033 102.383 44.302C102.15 43.9007 101.828 43.5973 101.417 43.392C101.007 43.1867 100.559 43.084 100.073 43.084C99.3454 43.084 98.7247 43.3173 98.2114 43.784C97.6981 44.2507 97.4134 44.9087 97.3574 45.758H102.733ZM110.636 43.182V47.928C110.636 48.3947 110.725 48.7167 110.902 48.894C111.08 49.0713 111.392 49.16 111.84 49.16H112.736V50H111.686C110.996 50 110.482 49.8413 110.146 49.524C109.81 49.1973 109.642 48.6653 109.642 47.928V43.182H108.578V42.356H109.642V40.438H110.636V42.356H112.736V43.182H110.636ZM117.698 50.112C116.98 50.112 116.331 49.9533 115.752 49.636C115.183 49.3093 114.73 48.852 114.394 48.264C114.068 47.6667 113.904 46.9713 113.904 46.178C113.904 45.3847 114.072 44.694 114.408 44.106C114.744 43.5087 115.202 43.0513 115.78 42.734C116.359 42.4073 117.008 42.244 117.726 42.244C118.445 42.244 119.094 42.4073 119.672 42.734C120.26 43.0513 120.718 43.5087 121.044 44.106C121.38 44.694 121.548 45.3847 121.548 46.178C121.548 46.962 121.38 47.6527 121.044 48.25C120.708 48.8473 120.246 49.3093 119.658 49.636C119.07 49.9533 118.417 50.112 117.698 50.112ZM117.698 49.258C118.202 49.258 118.669 49.146 119.098 48.922C119.528 48.6887 119.873 48.3433 120.134 47.886C120.405 47.4193 120.54 46.85 120.54 46.178C120.54 45.506 120.41 44.9413 120.148 44.484C119.887 44.0173 119.542 43.672 119.112 43.448C118.683 43.2147 118.216 43.098 117.712 43.098C117.208 43.098 116.742 43.2147 116.312 43.448C115.883 43.672 115.538 44.0173 115.276 44.484C115.024 44.9413 114.898 45.506 114.898 46.178C114.898 46.85 115.024 47.4193 115.276 47.886C115.538 48.3433 115.878 48.6887 116.298 48.922C116.728 49.146 117.194 49.258 117.698 49.258ZM128.143 44.05C128.395 43.518 128.782 43.084 129.305 42.748C129.837 42.412 130.462 42.244 131.181 42.244C131.881 42.244 132.506 42.4073 133.057 42.734C133.607 43.0513 134.037 43.5087 134.345 44.106C134.662 44.694 134.821 45.38 134.821 46.164C134.821 46.948 134.662 47.6387 134.345 48.236C134.037 48.8333 133.603 49.2953 133.043 49.622C132.492 49.9487 131.871 50.112 131.181 50.112C130.453 50.112 129.823 49.9487 129.291 49.622C128.768 49.286 128.385 48.852 128.143 48.32V50H127.177V39.64H128.143V44.05ZM133.827 46.164C133.827 45.5293 133.701 44.9833 133.449 44.526C133.206 44.0593 132.87 43.7047 132.441 43.462C132.011 43.2193 131.526 43.098 130.985 43.098C130.462 43.098 129.981 43.224 129.543 43.476C129.113 43.728 128.773 44.0873 128.521 44.554C128.269 45.0207 128.143 45.562 128.143 46.178C128.143 46.794 128.269 47.3353 128.521 47.802C128.773 48.2687 129.113 48.628 129.543 48.88C129.981 49.132 130.462 49.258 130.985 49.258C131.526 49.258 132.011 49.1367 132.441 48.894C132.87 48.642 133.206 48.2827 133.449 47.816C133.701 47.34 133.827 46.7893 133.827 46.164ZM143.54 45.786C143.54 46.122 143.531 46.3787 143.512 46.556H137.17C137.198 47.1347 137.338 47.6293 137.59 48.04C137.842 48.4507 138.173 48.7633 138.584 48.978C138.995 49.1833 139.443 49.286 139.928 49.286C140.563 49.286 141.095 49.132 141.524 48.824C141.963 48.516 142.252 48.1007 142.392 47.578H143.428C143.241 48.3247 142.84 48.936 142.224 49.412C141.617 49.8787 140.852 50.112 139.928 50.112C139.209 50.112 138.565 49.9533 137.996 49.636C137.427 49.3093 136.979 48.852 136.652 48.264C136.335 47.6667 136.176 46.9713 136.176 46.178C136.176 45.3847 136.335 44.6893 136.652 44.092C136.969 43.4947 137.413 43.0373 137.982 42.72C138.551 42.4027 139.2 42.244 139.928 42.244C140.656 42.244 141.291 42.4027 141.832 42.72C142.383 43.0373 142.803 43.4667 143.092 44.008C143.391 44.54 143.54 45.1327 143.54 45.786ZM142.546 45.758C142.555 45.1887 142.439 44.7033 142.196 44.302C141.963 43.9007 141.641 43.5973 141.23 43.392C140.819 43.1867 140.371 43.084 139.886 43.084C139.158 43.084 138.537 43.3173 138.024 43.784C137.511 44.2507 137.226 44.9087 137.17 45.758H142.546ZM152.185 43.182H150.407V50H149.427V43.182H148.363V42.356H149.427V41.824C149.427 40.9933 149.637 40.382 150.057 39.99C150.486 39.598 151.177 39.402 152.129 39.402V40.242C151.494 40.242 151.046 40.3633 150.785 40.606C150.533 40.8487 150.407 41.2547 150.407 41.824V42.356H152.185V43.182ZM160.349 42.356V50H159.369V48.656C159.145 49.132 158.8 49.496 158.333 49.748C157.867 50 157.344 50.126 156.765 50.126C155.851 50.126 155.104 49.846 154.525 49.286C153.947 48.7167 153.657 47.8953 153.657 46.822V42.356H154.623V46.71C154.623 47.5407 154.829 48.1753 155.239 48.614C155.659 49.0527 156.229 49.272 156.947 49.272C157.685 49.272 158.273 49.0387 158.711 48.572C159.15 48.1053 159.369 47.4193 159.369 46.514V42.356H160.349ZM163.567 39.64V50H162.587V39.64H163.567ZM166.766 39.64V50H165.786V39.64H166.766ZM175.285 42.356L170.749 53.598H169.727L171.211 49.958L168.075 42.356H169.153L171.757 48.88L174.277 42.356H175.285ZM183.466 43.182H181.688V50H180.708V43.182H179.644V42.356H180.708V41.824C180.708 40.9933 180.918 40.382 181.338 39.99C181.767 39.598 182.458 39.402 183.41 39.402V40.242C182.775 40.242 182.327 40.3633 182.066 40.606C181.814 40.8487 181.688 41.2547 181.688 41.824V42.356H183.466V43.182ZM185.989 39.64V50H185.009V39.64H185.989ZM195.124 45.786C195.124 46.122 195.115 46.3787 195.096 46.556H188.754C188.782 47.1347 188.922 47.6293 189.174 48.04C189.426 48.4507 189.757 48.7633 190.168 48.978C190.579 49.1833 191.027 49.286 191.512 49.286C192.147 49.286 192.679 49.132 193.108 48.824C193.547 48.516 193.836 48.1007 193.976 47.578H195.012C194.825 48.3247 194.424 48.936 193.808 49.412C193.201 49.8787 192.436 50.112 191.512 50.112C190.793 50.112 190.149 49.9533 189.58 49.636C189.011 49.3093 188.563 48.852 188.236 48.264C187.919 47.6667 187.76 46.9713 187.76 46.178C187.76 45.3847 187.919 44.6893 188.236 44.092C188.553 43.4947 188.997 43.0373 189.566 42.72C190.135 42.4027 190.784 42.244 191.512 42.244C192.24 42.244 192.875 42.4027 193.416 42.72C193.967 43.0373 194.387 43.4667 194.676 44.008C194.975 44.54 195.124 45.1327 195.124 45.786ZM194.13 45.758C194.139 45.1887 194.023 44.7033 193.78 44.302C193.547 43.9007 193.225 43.5973 192.814 43.392C192.403 43.1867 191.955 43.084 191.47 43.084C190.742 43.084 190.121 43.3173 189.608 43.784C189.095 44.2507 188.81 44.9087 188.754 45.758H194.13ZM199.549 50.112C198.672 50.112 197.953 49.9113 197.393 49.51C196.842 49.0993 196.534 48.544 196.469 47.844H197.477C197.524 48.2733 197.724 48.6233 198.079 48.894C198.443 49.1553 198.928 49.286 199.535 49.286C200.067 49.286 200.482 49.16 200.781 48.908C201.089 48.656 201.243 48.3433 201.243 47.97C201.243 47.7087 201.159 47.494 200.991 47.326C200.823 47.158 200.608 47.0273 200.347 46.934C200.095 46.8313 199.75 46.724 199.311 46.612C198.742 46.4627 198.28 46.3133 197.925 46.164C197.57 46.0147 197.267 45.7953 197.015 45.506C196.772 45.2073 196.651 44.8107 196.651 44.316C196.651 43.9427 196.763 43.5973 196.987 43.28C197.211 42.9627 197.528 42.7107 197.939 42.524C198.35 42.3373 198.816 42.244 199.339 42.244C200.16 42.244 200.823 42.454 201.327 42.874C201.831 43.2847 202.102 43.854 202.139 44.582H201.159C201.131 44.134 200.954 43.7747 200.627 43.504C200.31 43.224 199.871 43.084 199.311 43.084C198.816 43.084 198.415 43.2007 198.107 43.434C197.799 43.6673 197.645 43.9567 197.645 44.302C197.645 44.6007 197.734 44.848 197.911 45.044C198.098 45.2307 198.326 45.38 198.597 45.492C198.868 45.5947 199.232 45.7113 199.689 45.842C200.24 45.9913 200.678 46.136 201.005 46.276C201.332 46.416 201.612 46.6213 201.845 46.892C202.078 47.1627 202.2 47.522 202.209 47.97C202.209 48.3807 202.097 48.7493 201.873 49.076C201.649 49.3933 201.336 49.6453 200.935 49.832C200.534 50.0187 200.072 50.112 199.549 50.112ZM207.694 42.216C208.272 42.216 208.79 42.3373 209.248 42.58C209.714 42.8227 210.078 43.196 210.34 43.7C210.61 44.1947 210.746 44.8013 210.746 45.52V50H209.78V45.632C209.78 44.8013 209.57 44.1667 209.15 43.728C208.739 43.2893 208.174 43.07 207.456 43.07C206.718 43.07 206.13 43.3033 205.692 43.77C205.253 44.2367 205.034 44.9227 205.034 45.828V50H204.054V39.64H205.034V43.658C205.276 43.2007 205.631 42.846 206.098 42.594C206.574 42.342 207.106 42.216 207.694 42.216ZM219.829 45.786C219.829 46.122 219.82 46.3787 219.801 46.556H213.459C213.487 47.1347 213.627 47.6293 213.879 48.04C214.131 48.4507 214.462 48.7633 214.873 48.978C215.284 49.1833 215.732 49.286 216.217 49.286C216.852 49.286 217.384 49.132 217.813 48.824C218.252 48.516 218.541 48.1007 218.681 47.578H219.717C219.53 48.3247 219.129 48.936 218.513 49.412C217.906 49.8787 217.141 50.112 216.217 50.112C215.498 50.112 214.854 49.9533 214.285 49.636C213.716 49.3093 213.268 48.852 212.941 48.264C212.624 47.6667 212.465 46.9713 212.465 46.178C212.465 45.3847 212.624 44.6893 212.941 44.092C213.258 43.4947 213.702 43.0373 214.271 42.72C214.84 42.4027 215.489 42.244 216.217 42.244C216.945 42.244 217.58 42.4027 218.121 42.72C218.672 43.0373 219.092 43.4667 219.381 44.008C219.68 44.54 219.829 45.1327 219.829 45.786ZM218.835 45.758C218.844 45.1887 218.728 44.7033 218.485 44.302C218.252 43.9007 217.93 43.5973 217.519 43.392C217.108 43.1867 216.66 43.084 216.175 43.084C215.447 43.084 214.826 43.3173 214.313 43.784C213.8 44.2507 213.515 44.9087 213.459 45.758H218.835ZM221.174 46.164C221.174 45.38 221.333 44.694 221.65 44.106C221.967 43.5087 222.401 43.0513 222.952 42.734C223.512 42.4073 224.142 42.244 224.842 42.244C225.514 42.244 226.121 42.4073 226.662 42.734C227.203 43.0607 227.6 43.4853 227.852 44.008V39.64H228.832V50H227.852V48.292C227.619 48.824 227.236 49.2627 226.704 49.608C226.172 49.944 225.547 50.112 224.828 50.112C224.128 50.112 223.498 49.9487 222.938 49.622C222.387 49.2953 221.953 48.8333 221.636 48.236C221.328 47.6387 221.174 46.948 221.174 46.164ZM227.852 46.178C227.852 45.562 227.726 45.0207 227.474 44.554C227.222 44.0873 226.877 43.728 226.438 43.476C226.009 43.224 225.533 43.098 225.01 43.098C224.469 43.098 223.983 43.2193 223.554 43.462C223.125 43.7047 222.784 44.0593 222.532 44.526C222.289 44.9833 222.168 45.5293 222.168 46.164C222.168 46.7893 222.289 47.34 222.532 47.816C222.784 48.2827 223.125 48.642 223.554 48.894C223.983 49.1367 224.469 49.258 225.01 49.258C225.533 49.258 226.009 49.132 226.438 48.88C226.877 48.628 227.222 48.2687 227.474 47.802C227.726 47.3353 227.852 46.794 227.852 46.178ZM19.466 71.112C18.7473 71.112 18.0987 70.9533 17.52 70.636C16.9507 70.3093 16.498 69.852 16.162 69.264C15.8353 68.6667 15.672 67.9713 15.672 67.178C15.672 66.3847 15.84 65.694 16.176 65.106C16.512 64.5087 16.9693 64.0513 17.548 63.734C18.1267 63.4073 18.7753 63.244 19.494 63.244C20.2127 63.244 20.8613 63.4073 21.44 63.734C22.028 64.0513 22.4853 64.5087 22.812 65.106C23.148 65.694 23.316 66.3847 23.316 67.178C23.316 67.962 23.148 68.6527 22.812 69.25C22.476 69.8473 22.014 70.3093 21.426 70.636C20.838 70.9533 20.1847 71.112 19.466 71.112ZM19.466 70.258C19.97 70.258 20.4367 70.146 20.866 69.922C21.2953 69.6887 21.6407 69.3433 21.902 68.886C22.1727 68.4193 22.308 67.85 22.308 67.178C22.308 66.506 22.1773 65.9413 21.916 65.484C21.6547 65.0173 21.3093 64.672 20.88 64.448C20.4507 64.2147 19.984 64.098 19.48 64.098C18.976 64.098 18.5093 64.2147 18.08 64.448C17.6507 64.672 17.3053 65.0173 17.044 65.484C16.792 65.9413 16.666 66.506 16.666 67.178C16.666 67.85 16.792 68.4193 17.044 68.886C17.3053 69.3433 17.646 69.6887 18.066 69.922C18.4953 70.146 18.962 70.258 19.466 70.258ZM31.7244 63.356V71H30.7444V69.656C30.5204 70.132 30.1751 70.496 29.7084 70.748C29.2418 71 28.7191 71.126 28.1404 71.126C27.2258 71.126 26.4791 70.846 25.9004 70.286C25.3218 69.7167 25.0324 68.8953 25.0324 67.822V63.356H25.9984V67.71C25.9984 68.5407 26.2038 69.1753 26.6144 69.614C27.0344 70.0527 27.6038 70.272 28.3224 70.272C29.0598 70.272 29.6478 70.0387 30.0864 69.572C30.5251 69.1053 30.7444 68.4193 30.7444 67.514V63.356H31.7244ZM35.2358 64.182V68.928C35.2358 69.3947 35.3245 69.7167 35.5018 69.894C35.6791 70.0713 35.9918 70.16 36.4398 70.16H37.3358V71H36.2858C35.5951 71 35.0818 70.8413 34.7458 70.524C34.4098 70.1973 34.2418 69.6653 34.2418 68.928V64.182H33.1778V63.356H34.2418V61.438H35.2358V63.356H37.3358V64.182H35.2358ZM43.7598 65.05C44.0118 64.518 44.3992 64.084 44.9218 63.748C45.4538 63.412 46.0792 63.244 46.7978 63.244C47.4978 63.244 48.1232 63.4073 48.6738 63.734C49.2245 64.0513 49.6538 64.5087 49.9618 65.106C50.2792 65.694 50.4378 66.38 50.4378 67.164C50.4378 67.948 50.2792 68.6387 49.9618 69.236C49.6538 69.8333 49.2198 70.2953 48.6598 70.622C48.1092 70.9487 47.4885 71.112 46.7978 71.112C46.0698 71.112 45.4398 70.9487 44.9078 70.622C44.3852 70.286 44.0025 69.852 43.7598 69.32V71H42.7938V60.64H43.7598V65.05ZM49.4438 67.164C49.4438 66.5293 49.3178 65.9833 49.0658 65.526C48.8232 65.0593 48.4872 64.7047 48.0578 64.462C47.6285 64.2193 47.1432 64.098 46.6018 64.098C46.0792 64.098 45.5985 64.224 45.1598 64.476C44.7305 64.728 44.3898 65.0873 44.1378 65.554C43.8858 66.0207 43.7598 66.562 43.7598 67.178C43.7598 67.794 43.8858 68.3353 44.1378 68.802C44.3898 69.2687 44.7305 69.628 45.1598 69.88C45.5985 70.132 46.0792 70.258 46.6018 70.258C47.1432 70.258 47.6285 70.1367 48.0578 69.894C48.4872 69.642 48.8232 69.2827 49.0658 68.816C49.3178 68.34 49.4438 67.7893 49.4438 67.164ZM58.8631 63.356V71H57.8831V69.656C57.6591 70.132 57.3138 70.496 56.8471 70.748C56.3804 71 55.8578 71.126 55.2791 71.126C54.3644 71.126 53.6178 70.846 53.0391 70.286C52.4604 69.7167 52.1711 68.8953 52.1711 67.822V63.356H53.1371V67.71C53.1371 68.5407 53.3424 69.1753 53.7531 69.614C54.1731 70.0527 54.7424 70.272 55.4611 70.272C56.1984 70.272 56.7864 70.0387 57.2251 69.572C57.6638 69.1053 57.8831 68.4193 57.8831 67.514V63.356H58.8631ZM62.3745 64.182V68.928C62.3745 69.3947 62.4631 69.7167 62.6405 69.894C62.8178 70.0713 63.1305 70.16 63.5785 70.16H64.4745V71H63.4245C62.7338 71 62.2205 70.8413 61.8845 70.524C61.5485 70.1973 61.3805 69.6653 61.3805 68.928V64.182H60.3165V63.356H61.3805V61.438H62.3745V63.356H64.4745V64.182H62.3745ZM72.5645 71.112C71.6872 71.112 70.9685 70.9113 70.4085 70.51C69.8578 70.0993 69.5498 69.544 69.4845 68.844H70.4925C70.5392 69.2733 70.7398 69.6233 71.0945 69.894C71.4585 70.1553 71.9438 70.286 72.5505 70.286C73.0825 70.286 73.4978 70.16 73.7965 69.908C74.1045 69.656 74.2585 69.3433 74.2585 68.97C74.2585 68.7087 74.1745 68.494 74.0065 68.326C73.8385 68.158 73.6238 68.0273 73.3625 67.934C73.1105 67.8313 72.7652 67.724 72.3265 67.612C71.7572 67.4627 71.2952 67.3133 70.9405 67.164C70.5858 67.0147 70.2825 66.7953 70.0305 66.506C69.7878 66.2073 69.6665 65.8107 69.6665 65.316C69.6665 64.9427 69.7785 64.5973 70.0025 64.28C70.2265 63.9627 70.5438 63.7107 70.9545 63.524C71.3652 63.3373 71.8318 63.244 72.3545 63.244C73.1758 63.244 73.8385 63.454 74.3425 63.874C74.8465 64.2847 75.1172 64.854 75.1545 65.582H74.1745C74.1465 65.134 73.9692 64.7747 73.6425 64.504C73.3252 64.224 72.8865 64.084 72.3265 64.084C71.8318 64.084 71.4305 64.2007 71.1225 64.434C70.8145 64.6673 70.6605 64.9567 70.6605 65.302C70.6605 65.6007 70.7492 65.848 70.9265 66.044C71.1132 66.2307 71.3418 66.38 71.6125 66.492C71.8832 66.5947 72.2472 66.7113 72.7045 66.842C73.2552 66.9913 73.6938 67.136 74.0205 67.276C74.3472 67.416 74.6272 67.6213 74.8605 67.892C75.0938 68.1627 75.2152 68.522 75.2245 68.97C75.2245 69.3807 75.1125 69.7493 74.8885 70.076C74.6645 70.3933 74.3518 70.6453 73.9505 70.832C73.5492 71.0187 73.0872 71.112 72.5645 71.112ZM80.7092 63.216C81.2879 63.216 81.8059 63.3373 82.2632 63.58C82.7299 63.8227 83.0939 64.196 83.3552 64.7C83.6259 65.1947 83.7612 65.8013 83.7612 66.52V71H82.7952V66.632C82.7952 65.8013 82.5852 65.1667 82.1652 64.728C81.7546 64.2893 81.1899 64.07 80.4712 64.07C79.7339 64.07 79.1459 64.3033 78.7072 64.77C78.2686 65.2367 78.0492 65.9227 78.0492 66.828V71H77.0692V60.64H78.0492V64.658C78.2919 64.2007 78.6466 63.846 79.1132 63.594C79.5892 63.342 80.1212 63.216 80.7092 63.216ZM89.2746 71.112C88.5559 71.112 87.9073 70.9533 87.3286 70.636C86.7593 70.3093 86.3066 69.852 85.9706 69.264C85.6439 68.6667 85.4806 67.9713 85.4806 67.178C85.4806 66.3847 85.6486 65.694 85.9846 65.106C86.3206 64.5087 86.7779 64.0513 87.3566 63.734C87.9353 63.4073 88.5839 63.244 89.3026 63.244C90.0213 63.244 90.6699 63.4073 91.2486 63.734C91.8366 64.0513 92.2939 64.5087 92.6206 65.106C92.9566 65.694 93.1246 66.3847 93.1246 67.178C93.1246 67.962 92.9566 68.6527 92.6206 69.25C92.2846 69.8473 91.8226 70.3093 91.2346 70.636C90.6466 70.9533 89.9933 71.112 89.2746 71.112ZM89.2746 70.258C89.7786 70.258 90.2453 70.146 90.6746 69.922C91.1039 69.6887 91.4493 69.3433 91.7106 68.886C91.9813 68.4193 92.1166 67.85 92.1166 67.178C92.1166 66.506 91.9859 65.9413 91.7246 65.484C91.4633 65.0173 91.1179 64.672 90.6886 64.448C90.2593 64.2147 89.7926 64.098 89.2886 64.098C88.7846 64.098 88.3179 64.2147 87.8886 64.448C87.4593 64.672 87.1139 65.0173 86.8526 65.484C86.6006 65.9413 86.4746 66.506 86.4746 67.178C86.4746 67.85 86.6006 68.4193 86.8526 68.886C87.1139 69.3433 87.4546 69.6887 87.8746 69.922C88.3039 70.146 88.7706 70.258 89.2746 70.258ZM101.533 63.356V71H100.553V69.656C100.329 70.132 99.9837 70.496 99.517 70.748C99.0503 71 98.5277 71.126 97.949 71.126C97.0343 71.126 96.2877 70.846 95.709 70.286C95.1303 69.7167 94.841 68.8953 94.841 67.822V63.356H95.807V67.71C95.807 68.5407 96.0123 69.1753 96.423 69.614C96.843 70.0527 97.4123 70.272 98.131 70.272C98.8683 70.272 99.4563 70.0387 99.895 69.572C100.334 69.1053 100.553 68.4193 100.553 67.514V63.356H101.533ZM104.75 60.64V71H103.77V60.64H104.75ZM106.522 67.164C106.522 66.38 106.68 65.694 106.998 65.106C107.315 64.5087 107.749 64.0513 108.3 63.734C108.86 63.4073 109.49 63.244 110.19 63.244C110.862 63.244 111.468 63.4073 112.01 63.734C112.551 64.0607 112.948 64.4853 113.2 65.008V60.64H114.18V71H113.2V69.292C112.966 69.824 112.584 70.2627 112.052 70.608C111.52 70.944 110.894 71.112 110.176 71.112C109.476 71.112 108.846 70.9487 108.286 70.622C107.735 70.2953 107.301 69.8333 106.984 69.236C106.676 68.6387 106.522 67.948 106.522 67.164ZM113.2 67.178C113.2 66.562 113.074 66.0207 112.822 65.554C112.57 65.0873 112.224 64.728 111.786 64.476C111.356 64.224 110.88 64.098 110.358 64.098C109.816 64.098 109.331 64.2193 108.902 64.462C108.472 64.7047 108.132 65.0593 107.88 65.526C107.637 65.9833 107.516 66.5293 107.516 67.164C107.516 67.7893 107.637 68.34 107.88 68.816C108.132 69.2827 108.472 69.642 108.902 69.894C109.331 70.1367 109.816 70.258 110.358 70.258C110.88 70.258 111.356 70.132 111.786 69.88C112.224 69.628 112.57 69.2687 112.822 68.802C113.074 68.3353 113.2 67.794 113.2 67.178ZM121.225 65.05C121.477 64.518 121.864 64.084 122.387 63.748C122.919 63.412 123.544 63.244 124.263 63.244C124.963 63.244 125.588 63.4073 126.139 63.734C126.689 64.0513 127.119 64.5087 127.427 65.106C127.744 65.694 127.903 66.38 127.903 67.164C127.903 67.948 127.744 68.6387 127.427 69.236C127.119 69.8333 126.685 70.2953 126.125 70.622C125.574 70.9487 124.953 71.112 124.263 71.112C123.535 71.112 122.905 70.9487 122.373 70.622C121.85 70.286 121.467 69.852 121.225 69.32V71H120.259V60.64H121.225V65.05ZM126.909 67.164C126.909 66.5293 126.783 65.9833 126.531 65.526C126.288 65.0593 125.952 64.7047 125.523 64.462C125.093 64.2193 124.608 64.098 124.067 64.098C123.544 64.098 123.063 64.224 122.625 64.476C122.195 64.728 121.855 65.0873 121.603 65.554C121.351 66.0207 121.225 66.562 121.225 67.178C121.225 67.794 121.351 68.3353 121.603 68.802C121.855 69.2687 122.195 69.628 122.625 69.88C123.063 70.132 123.544 70.258 124.067 70.258C124.608 70.258 125.093 70.1367 125.523 69.894C125.952 69.642 126.288 69.2827 126.531 68.816C126.783 68.34 126.909 67.7893 126.909 67.164ZM136.622 66.786C136.622 67.122 136.613 67.3787 136.594 67.556H130.252C130.28 68.1347 130.42 68.6293 130.672 69.04C130.924 69.4507 131.255 69.7633 131.666 69.978C132.077 70.1833 132.525 70.286 133.01 70.286C133.645 70.286 134.177 70.132 134.606 69.824C135.045 69.516 135.334 69.1007 135.474 68.578H136.51C136.323 69.3247 135.922 69.936 135.306 70.412C134.699 70.8787 133.934 71.112 133.01 71.112C132.291 71.112 131.647 70.9533 131.078 70.636C130.509 70.3093 130.061 69.852 129.734 69.264C129.417 68.6667 129.258 67.9713 129.258 67.178C129.258 66.3847 129.417 65.6893 129.734 65.092C130.051 64.4947 130.495 64.0373 131.064 63.72C131.633 63.4027 132.282 63.244 133.01 63.244C133.738 63.244 134.373 63.4027 134.914 63.72C135.465 64.0373 135.885 64.4667 136.174 65.008C136.473 65.54 136.622 66.1327 136.622 66.786ZM135.628 66.758C135.637 66.1887 135.521 65.7033 135.278 65.302C135.045 64.9007 134.723 64.5973 134.312 64.392C133.901 64.1867 133.453 64.084 132.968 64.084C132.24 64.084 131.619 64.3173 131.106 64.784C130.593 65.2507 130.308 65.9087 130.252 66.758H135.628ZM143.223 65.05C143.475 64.518 143.862 64.084 144.385 63.748C144.917 63.412 145.542 63.244 146.261 63.244C146.961 63.244 147.586 63.4073 148.137 63.734C148.687 64.0513 149.117 64.5087 149.425 65.106C149.742 65.694 149.901 66.38 149.901 67.164C149.901 67.948 149.742 68.6387 149.425 69.236C149.117 69.8333 148.683 70.2953 148.123 70.622C147.572 70.9487 146.951 71.112 146.261 71.112C145.533 71.112 144.903 70.9487 144.371 70.622C143.848 70.286 143.465 69.852 143.223 69.32V71H142.257V60.64H143.223V65.05ZM148.907 67.164C148.907 66.5293 148.781 65.9833 148.529 65.526C148.286 65.0593 147.95 64.7047 147.521 64.462C147.091 64.2193 146.606 64.098 146.065 64.098C145.542 64.098 145.061 64.224 144.623 64.476C144.193 64.728 143.853 65.0873 143.601 65.554C143.349 66.0207 143.223 66.562 143.223 67.178C143.223 67.794 143.349 68.3353 143.601 68.802C143.853 69.2687 144.193 69.628 144.623 69.88C145.061 70.132 145.542 70.258 146.065 70.258C146.606 70.258 147.091 70.1367 147.521 69.894C147.95 69.642 148.286 69.2827 148.529 68.816C148.781 68.34 148.907 67.7893 148.907 67.164ZM158.326 63.356V71H157.346V69.656C157.122 70.132 156.777 70.496 156.31 70.748C155.843 71 155.321 71.126 154.742 71.126C153.827 71.126 153.081 70.846 152.502 70.286C151.923 69.7167 151.634 68.8953 151.634 67.822V63.356H152.6V67.71C152.6 68.5407 152.805 69.1753 153.216 69.614C153.636 70.0527 154.205 70.272 154.924 70.272C155.661 70.272 156.249 70.0387 156.688 69.572C157.127 69.1053 157.346 68.4193 157.346 67.514V63.356H158.326ZM161.053 61.914C160.857 61.914 160.689 61.844 160.549 61.704C160.409 61.564 160.339 61.3913 160.339 61.186C160.339 60.9807 160.409 60.8127 160.549 60.682C160.689 60.542 160.857 60.472 161.053 60.472C161.249 60.472 161.417 60.542 161.557 60.682C161.697 60.8127 161.767 60.9807 161.767 61.186C161.767 61.3913 161.697 61.564 161.557 61.704C161.417 61.844 161.249 61.914 161.053 61.914ZM161.543 63.356V71H160.563V63.356H161.543ZM164.743 60.64V71H163.763V60.64H164.743ZM168.236 64.182V68.928C168.236 69.3947 168.324 69.7167 168.502 69.894C168.679 70.0713 168.992 70.16 169.44 70.16H170.336V71H169.286C168.595 71 168.082 70.8413 167.746 70.524C167.41 70.1973 167.242 69.6653 167.242 68.928V64.182H166.178V63.356H167.242V61.438H168.236V63.356H170.336V64.182H168.236ZM179.14 71.112C178.421 71.112 177.772 70.9533 177.194 70.636C176.624 70.3093 176.172 69.852 175.836 69.264C175.509 68.6667 175.346 67.9713 175.346 67.178C175.346 66.3847 175.514 65.694 175.85 65.106C176.186 64.5087 176.643 64.0513 177.222 63.734C177.8 63.4073 178.449 63.244 179.168 63.244C179.886 63.244 180.535 63.4073 181.114 63.734C181.702 64.0513 182.159 64.5087 182.486 65.106C182.822 65.694 182.99 66.3847 182.99 67.178C182.99 67.962 182.822 68.6527 182.486 69.25C182.15 69.8473 181.688 70.3093 181.1 70.636C180.512 70.9533 179.858 71.112 179.14 71.112ZM179.14 70.258C179.644 70.258 180.11 70.146 180.54 69.922C180.969 69.6887 181.314 69.3433 181.576 68.886C181.846 68.4193 181.982 67.85 181.982 67.178C181.982 66.506 181.851 65.9413 181.59 65.484C181.328 65.0173 180.983 64.672 180.554 64.448C180.124 64.2147 179.658 64.098 179.154 64.098C178.65 64.098 178.183 64.2147 177.754 64.448C177.324 64.672 176.979 65.0173 176.718 65.484C176.466 65.9413 176.34 66.506 176.34 67.178C176.34 67.85 176.466 68.4193 176.718 68.886C176.979 69.3433 177.32 69.6887 177.74 69.922C178.169 70.146 178.636 70.258 179.14 70.258ZM188.36 63.216C189.275 63.216 190.022 63.5007 190.6 64.07C191.179 64.63 191.468 65.4467 191.468 66.52V71H190.502V66.632C190.502 65.8013 190.292 65.1667 189.872 64.728C189.462 64.2893 188.897 64.07 188.178 64.07C187.441 64.07 186.853 64.3033 186.414 64.77C185.976 65.2367 185.756 65.9227 185.756 66.828V71H184.776V63.356H185.756V64.658C185.999 64.1913 186.349 63.8367 186.806 63.594C187.264 63.342 187.782 63.216 188.36 63.216ZM200.109 71.112C199.232 71.112 198.513 70.9113 197.953 70.51C197.403 70.0993 197.095 69.544 197.029 68.844H198.037C198.084 69.2733 198.285 69.6233 198.639 69.894C199.003 70.1553 199.489 70.286 200.095 70.286C200.627 70.286 201.043 70.16 201.341 69.908C201.649 69.656 201.803 69.3433 201.803 68.97C201.803 68.7087 201.719 68.494 201.551 68.326C201.383 68.158 201.169 68.0273 200.907 67.934C200.655 67.8313 200.31 67.724 199.871 67.612C199.302 67.4627 198.84 67.3133 198.485 67.164C198.131 67.0147 197.827 66.7953 197.575 66.506C197.333 66.2073 197.211 65.8107 197.211 65.316C197.211 64.9427 197.323 64.5973 197.547 64.28C197.771 63.9627 198.089 63.7107 198.499 63.524C198.91 63.3373 199.377 63.244 199.899 63.244C200.721 63.244 201.383 63.454 201.887 63.874C202.391 64.2847 202.662 64.854 202.699 65.582H201.719C201.691 65.134 201.514 64.7747 201.187 64.504C200.87 64.224 200.431 64.084 199.871 64.084C199.377 64.084 198.975 64.2007 198.667 64.434C198.359 64.6673 198.205 64.9567 198.205 65.302C198.205 65.6007 198.294 65.848 198.471 66.044C198.658 66.2307 198.887 66.38 199.157 66.492C199.428 66.5947 199.792 66.7113 200.249 66.842C200.8 66.9913 201.239 67.136 201.565 67.276C201.892 67.416 202.172 67.6213 202.405 67.892C202.639 68.1627 202.76 68.522 202.769 68.97C202.769 69.3807 202.657 69.7493 202.433 70.076C202.209 70.3933 201.897 70.6453 201.495 70.832C201.094 71.0187 200.632 71.112 200.109 71.112ZM207.96 71.112C207.241 71.112 206.593 70.9533 206.014 70.636C205.445 70.3093 204.992 69.852 204.656 69.264C204.329 68.6667 204.166 67.9713 204.166 67.178C204.166 66.3847 204.334 65.694 204.67 65.106C205.006 64.5087 205.463 64.0513 206.042 63.734C206.621 63.4073 207.269 63.244 207.988 63.244C208.707 63.244 209.355 63.4073 209.934 63.734C210.522 64.0513 210.979 64.5087 211.306 65.106C211.642 65.694 211.81 66.3847 211.81 67.178C211.81 67.962 211.642 68.6527 211.306 69.25C210.97 69.8473 210.508 70.3093 209.92 70.636C209.332 70.9533 208.679 71.112 207.96 71.112ZM207.96 70.258C208.464 70.258 208.931 70.146 209.36 69.922C209.789 69.6887 210.135 69.3433 210.396 68.886C210.667 68.4193 210.802 67.85 210.802 67.178C210.802 66.506 210.671 65.9413 210.41 65.484C210.149 65.0173 209.803 64.672 209.374 64.448C208.945 64.2147 208.478 64.098 207.974 64.098C207.47 64.098 207.003 64.2147 206.574 64.448C206.145 64.672 205.799 65.0173 205.538 65.484C205.286 65.9413 205.16 66.506 205.16 67.178C205.16 67.85 205.286 68.4193 205.538 68.886C205.799 69.3433 206.14 69.6887 206.56 69.922C206.989 70.146 207.456 70.258 207.96 70.258ZM222.697 63.216C223.593 63.216 224.321 63.5007 224.881 64.07C225.45 64.63 225.735 65.4467 225.735 66.52V71H224.769V66.632C224.769 65.8013 224.568 65.1667 224.167 64.728C223.765 64.2893 223.219 64.07 222.529 64.07C221.81 64.07 221.236 64.308 220.807 64.784C220.377 65.26 220.163 65.9507 220.163 66.856V71H219.197V66.632C219.197 65.8013 218.996 65.1667 218.595 64.728C218.193 64.2893 217.643 64.07 216.943 64.07C216.224 64.07 215.65 64.308 215.221 64.784C214.791 65.26 214.577 65.9507 214.577 66.856V71H213.597V63.356H214.577V64.672C214.819 64.196 215.165 63.8367 215.613 63.594C216.061 63.342 216.56 63.216 217.111 63.216C217.773 63.216 218.352 63.3747 218.847 63.692C219.351 64.0093 219.715 64.476 219.939 65.092C220.144 64.4853 220.494 64.0233 220.989 63.706C221.493 63.3793 222.062 63.216 222.697 63.216ZM234.827 66.786C234.827 67.122 234.818 67.3787 234.799 67.556H228.457C228.485 68.1347 228.625 68.6293 228.877 69.04C229.129 69.4507 229.46 69.7633 229.871 69.978C230.282 70.1833 230.73 70.286 231.215 70.286C231.85 70.286 232.382 70.132 232.811 69.824C233.25 69.516 233.539 69.1007 233.679 68.578H234.715C234.528 69.3247 234.127 69.936 233.511 70.412C232.904 70.8787 232.139 71.112 231.215 71.112C230.496 71.112 229.852 70.9533 229.283 70.636C228.714 70.3093 228.266 69.852 227.939 69.264C227.622 68.6667 227.463 67.9713 227.463 67.178C227.463 66.3847 227.622 65.6893 227.939 65.092C228.256 64.4947 228.7 64.0373 229.269 63.72C229.838 63.4027 230.487 63.244 231.215 63.244C231.943 63.244 232.578 63.4027 233.119 63.72C233.67 64.0373 234.09 64.4667 234.379 65.008C234.678 65.54 234.827 66.1327 234.827 66.786ZM233.833 66.758C233.842 66.1887 233.726 65.7033 233.483 65.302C233.25 64.9007 232.928 64.5973 232.517 64.392C232.106 64.1867 231.658 64.084 231.173 64.084C230.445 64.084 229.824 64.3173 229.311 64.784C228.798 65.2507 228.513 65.9087 228.457 66.758H233.833ZM23.036 87.786C23.036 88.122 23.0267 88.3787 23.008 88.556H16.666C16.694 89.1347 16.834 89.6293 17.086 90.04C17.338 90.4507 17.6693 90.7633 18.08 90.978C18.4907 91.1833 18.9387 91.286 19.424 91.286C20.0587 91.286 20.5907 91.132 21.02 90.824C21.4587 90.516 21.748 90.1007 21.888 89.578H22.924C22.7373 90.3247 22.336 90.936 21.72 91.412C21.1133 91.8787 20.348 92.112 19.424 92.112C18.7053 92.112 18.0613 91.9533 17.492 91.636C16.9227 91.3093 16.4747 90.852 16.148 90.264C15.8307 89.6667 15.672 88.9713 15.672 88.178C15.672 87.3847 15.8307 86.6893 16.148 86.092C16.4653 85.4947 16.9087 85.0373 17.478 84.72C18.0473 84.4027 18.696 84.244 19.424 84.244C20.152 84.244 20.7867 84.4027 21.328 84.72C21.8787 85.0373 22.2987 85.4667 22.588 86.008C22.8867 86.54 23.036 87.1327 23.036 87.786ZM22.042 87.758C22.0513 87.1887 21.9347 86.7033 21.692 86.302C21.4587 85.9007 21.1367 85.5973 20.726 85.392C20.3153 85.1867 19.8673 85.084 19.382 85.084C18.654 85.084 18.0333 85.3173 17.52 85.784C17.0067 86.2507 16.722 86.9087 16.666 87.758H22.042ZM27.545 91.048L30.121 84.356H31.157L28.091 92H26.985L23.919 84.356H24.969L27.545 91.048ZM32.9752 82.914C32.7792 82.914 32.6112 82.844 32.4712 82.704C32.3312 82.564 32.2612 82.3913 32.2612 82.186C32.2612 81.9807 32.3312 81.8127 32.4712 81.682C32.6112 81.542 32.7792 81.472 32.9752 81.472C33.1712 81.472 33.3392 81.542 33.4792 81.682C33.6192 81.8127 33.6892 81.9807 33.6892 82.186C33.6892 82.3913 33.6192 82.564 33.4792 82.704C33.3392 82.844 33.1712 82.914 32.9752 82.914ZM33.4652 84.356V92H32.4852V84.356H33.4652ZM35.2365 88.164C35.2365 87.38 35.3951 86.694 35.7125 86.106C36.0298 85.5087 36.4638 85.0513 37.0145 84.734C37.5745 84.4073 38.2045 84.244 38.9045 84.244C39.5765 84.244 40.1831 84.4073 40.7245 84.734C41.2658 85.0607 41.6625 85.4853 41.9145 86.008V81.64H42.8945V92H41.9145V90.292C41.6811 90.824 41.2985 91.2627 40.7665 91.608C40.2345 91.944 39.6091 92.112 38.8905 92.112C38.1905 92.112 37.5605 91.9487 37.0005 91.622C36.4498 91.2953 36.0158 90.8333 35.6985 90.236C35.3905 89.6387 35.2365 88.948 35.2365 88.164ZM41.9145 88.178C41.9145 87.562 41.7885 87.0207 41.5365 86.554C41.2845 86.0873 40.9391 85.728 40.5005 85.476C40.0711 85.224 39.5951 85.098 39.0725 85.098C38.5311 85.098 38.0458 85.2193 37.6165 85.462C37.1871 85.7047 36.8465 86.0593 36.5945 86.526C36.3518 86.9833 36.2305 87.5293 36.2305 88.164C36.2305 88.7893 36.3518 89.34 36.5945 89.816C36.8465 90.2827 37.1871 90.642 37.6165 90.894C38.0458 91.1367 38.5311 91.258 39.0725 91.258C39.5951 91.258 40.0711 91.132 40.5005 90.88C40.9391 90.628 41.2845 90.2687 41.5365 89.802C41.7885 89.3353 41.9145 88.794 41.9145 88.178ZM52.0477 87.786C52.0477 88.122 52.0384 88.3787 52.0197 88.556H45.6777C45.7057 89.1347 45.8457 89.6293 46.0977 90.04C46.3497 90.4507 46.6811 90.7633 47.0917 90.978C47.5024 91.1833 47.9504 91.286 48.4357 91.286C49.0704 91.286 49.6024 91.132 50.0317 90.824C50.4704 90.516 50.7597 90.1007 50.8997 89.578H51.9357C51.7491 90.3247 51.3477 90.936 50.7317 91.412C50.1251 91.8787 49.3597 92.112 48.4357 92.112C47.7171 92.112 47.0731 91.9533 46.5037 91.636C45.9344 91.3093 45.4864 90.852 45.1597 90.264C44.8424 89.6667 44.6837 88.9713 44.6837 88.178C44.6837 87.3847 44.8424 86.6893 45.1597 86.092C45.4771 85.4947 45.9204 85.0373 46.4897 84.72C47.0591 84.4027 47.7077 84.244 48.4357 84.244C49.1637 84.244 49.7984 84.4027 50.3397 84.72C50.8904 85.0373 51.3104 85.4667 51.5997 86.008C51.8984 86.54 52.0477 87.1327 52.0477 87.786ZM51.0537 87.758C51.0631 87.1887 50.9464 86.7033 50.7037 86.302C50.4704 85.9007 50.1484 85.5973 49.7377 85.392C49.3271 85.1867 48.8791 85.084 48.3937 85.084C47.6657 85.084 47.0451 85.3173 46.5317 85.784C46.0184 86.2507 45.7337 86.9087 45.6777 87.758H51.0537ZM57.4247 84.216C58.3394 84.216 59.086 84.5007 59.6647 85.07C60.2434 85.63 60.5327 86.4467 60.5327 87.52V92H59.5667V87.632C59.5667 86.8013 59.3567 86.1667 58.9367 85.728C58.526 85.2893 57.9614 85.07 57.2427 85.07C56.5054 85.07 55.9174 85.3033 55.4787 85.77C55.04 86.2367 54.8207 86.9227 54.8207 87.828V92H53.8407V84.356H54.8207V85.658C55.0634 85.1913 55.4134 84.8367 55.8707 84.594C56.328 84.342 56.846 84.216 57.4247 84.216ZM62.2521 88.178C62.2521 87.3847 62.4107 86.694 62.7281 86.106C63.0454 85.5087 63.4841 85.0513 64.0441 84.734C64.6041 84.4073 65.2434 84.244 65.9621 84.244C66.9047 84.244 67.6794 84.4773 68.2861 84.944C68.9021 85.4107 69.2987 86.0453 69.4761 86.848H68.4261C68.2954 86.2973 68.0107 85.868 67.5721 85.56C67.1427 85.2427 66.6061 85.084 65.9621 85.084C65.4487 85.084 64.9867 85.2007 64.5761 85.434C64.1654 85.6673 63.8387 86.0173 63.5961 86.484C63.3627 86.9413 63.2461 87.506 63.2461 88.178C63.2461 88.85 63.3627 89.4193 63.5961 89.886C63.8387 90.3527 64.1654 90.7027 64.5761 90.936C64.9867 91.1693 65.4487 91.286 65.9621 91.286C66.6061 91.286 67.1427 91.132 67.5721 90.824C68.0107 90.5067 68.2954 90.068 68.4261 89.508H69.4761C69.2987 90.292 68.9021 90.922 68.2861 91.398C67.6701 91.874 66.8954 92.112 65.9621 92.112C65.2434 92.112 64.6041 91.9533 64.0441 91.636C63.4841 91.3093 63.0454 90.852 62.7281 90.264C62.4107 89.6667 62.2521 88.9713 62.2521 88.178ZM78.202 87.786C78.202 88.122 78.1927 88.3787 78.174 88.556H71.832C71.86 89.1347 72 89.6293 72.252 90.04C72.504 90.4507 72.8353 90.7633 73.246 90.978C73.6567 91.1833 74.1047 91.286 74.59 91.286C75.2247 91.286 75.7567 91.132 76.186 90.824C76.6247 90.516 76.914 90.1007 77.054 89.578H78.09C77.9033 90.3247 77.502 90.936 76.886 91.412C76.2793 91.8787 75.514 92.112 74.59 92.112C73.8713 92.112 73.2273 91.9533 72.658 91.636C72.0887 91.3093 71.6407 90.852 71.314 90.264C70.9967 89.6667 70.838 88.9713 70.838 88.178C70.838 87.3847 70.9967 86.6893 71.314 86.092C71.6313 85.4947 72.0747 85.0373 72.644 84.72C73.2133 84.4027 73.862 84.244 74.59 84.244C75.318 84.244 75.9527 84.4027 76.494 84.72C77.0447 85.0373 77.4647 85.4667 77.754 86.008C78.0527 86.54 78.202 87.1327 78.202 87.786ZM77.208 87.758C77.2173 87.1887 77.1007 86.7033 76.858 86.302C76.6247 85.9007 76.3027 85.5973 75.892 85.392C75.4813 85.1867 75.0333 85.084 74.548 85.084C73.82 85.084 73.1993 85.3173 72.686 85.784C72.1727 86.2507 71.888 86.9087 71.832 87.758H77.208ZM85.1108 85.182V89.928C85.1108 90.3947 85.1995 90.7167 85.3768 90.894C85.5541 91.0713 85.8668 91.16 86.3148 91.16H87.2108V92H86.1608C85.4701 92 84.9568 91.8413 84.6208 91.524C84.2848 91.1973 84.1168 90.6653 84.1168 89.928V85.182H83.0528V84.356H84.1168V82.438H85.1108V84.356H87.2108V85.182H85.1108ZM92.173 92.112C91.4544 92.112 90.8057 91.9533 90.227 91.636C89.6577 91.3093 89.205 90.852 88.869 90.264C88.5424 89.6667 88.379 88.9713 88.379 88.178C88.379 87.3847 88.547 86.694 88.883 86.106C89.219 85.5087 89.6764 85.0513 90.255 84.734C90.8337 84.4073 91.4824 84.244 92.201 84.244C92.9197 84.244 93.5684 84.4073 94.147 84.734C94.735 85.0513 95.1924 85.5087 95.519 86.106C95.855 86.694 96.023 87.3847 96.023 88.178C96.023 88.962 95.855 89.6527 95.519 90.25C95.183 90.8473 94.721 91.3093 94.133 91.636C93.545 91.9533 92.8917 92.112 92.173 92.112ZM92.173 91.258C92.677 91.258 93.1437 91.146 93.573 90.922C94.0024 90.6887 94.3477 90.3433 94.609 89.886C94.8797 89.4193 95.015 88.85 95.015 88.178C95.015 87.506 94.8844 86.9413 94.623 86.484C94.3617 86.0173 94.0164 85.672 93.587 85.448C93.1577 85.2147 92.691 85.098 92.187 85.098C91.683 85.098 91.2164 85.2147 90.787 85.448C90.3577 85.672 90.0124 86.0173 89.751 86.484C89.499 86.9413 89.373 87.506 89.373 88.178C89.373 88.85 89.499 89.4193 89.751 89.886C90.0124 90.3433 90.353 90.6887 90.773 90.922C91.2024 91.146 91.669 91.258 92.173 91.258ZM104.283 92.112C103.406 92.112 102.687 91.9113 102.127 91.51C101.577 91.0993 101.269 90.544 101.203 89.844H102.211C102.258 90.2733 102.459 90.6233 102.813 90.894C103.177 91.1553 103.663 91.286 104.269 91.286C104.801 91.286 105.217 91.16 105.515 90.908C105.823 90.656 105.977 90.3433 105.977 89.97C105.977 89.7087 105.893 89.494 105.725 89.326C105.557 89.158 105.343 89.0273 105.081 88.934C104.829 88.8313 104.484 88.724 104.045 88.612C103.476 88.4627 103.014 88.3133 102.659 88.164C102.305 88.0147 102.001 87.7953 101.749 87.506C101.507 87.2073 101.385 86.8107 101.385 86.316C101.385 85.9427 101.497 85.5973 101.721 85.28C101.945 84.9627 102.263 84.7107 102.673 84.524C103.084 84.3373 103.551 84.244 104.073 84.244C104.895 84.244 105.557 84.454 106.061 84.874C106.565 85.2847 106.836 85.854 106.873 86.582H105.893C105.865 86.134 105.688 85.7747 105.361 85.504C105.044 85.224 104.605 85.084 104.045 85.084C103.551 85.084 103.149 85.2007 102.841 85.434C102.533 85.6673 102.379 85.9567 102.379 86.302C102.379 86.6007 102.468 86.848 102.645 87.044C102.832 87.2307 103.061 87.38 103.331 87.492C103.602 87.5947 103.966 87.7113 104.423 87.842C104.974 87.9913 105.413 88.136 105.739 88.276C106.066 88.416 106.346 88.6213 106.579 88.892C106.813 89.1627 106.934 89.522 106.943 89.97C106.943 90.3807 106.831 90.7493 106.607 91.076C106.383 91.3933 106.071 91.6453 105.669 91.832C105.268 92.0187 104.806 92.112 104.283 92.112ZM112.428 84.216C113.007 84.216 113.525 84.3373 113.982 84.58C114.449 84.8227 114.813 85.196 115.074 85.7C115.345 86.1947 115.48 86.8013 115.48 87.52V92H114.514V87.632C114.514 86.8013 114.304 86.1667 113.884 85.728C113.473 85.2893 112.909 85.07 112.19 85.07C111.453 85.07 110.865 85.3033 110.426 85.77C109.987 86.2367 109.768 86.9227 109.768 87.828V92H108.788V81.64H109.768V85.658C110.011 85.2007 110.365 84.846 110.832 84.594C111.308 84.342 111.84 84.216 112.428 84.216ZM120.993 92.112C120.275 92.112 119.626 91.9533 119.047 91.636C118.478 91.3093 118.025 90.852 117.689 90.264C117.363 89.6667 117.199 88.9713 117.199 88.178C117.199 87.3847 117.367 86.694 117.703 86.106C118.039 85.5087 118.497 85.0513 119.075 84.734C119.654 84.4073 120.303 84.244 121.021 84.244C121.74 84.244 122.389 84.4073 122.967 84.734C123.555 85.0513 124.013 85.5087 124.339 86.106C124.675 86.694 124.843 87.3847 124.843 88.178C124.843 88.962 124.675 89.6527 124.339 90.25C124.003 90.8473 123.541 91.3093 122.953 91.636C122.365 91.9533 121.712 92.112 120.993 92.112ZM120.993 91.258C121.497 91.258 121.964 91.146 122.393 90.922C122.823 90.6887 123.168 90.3433 123.429 89.886C123.7 89.4193 123.835 88.85 123.835 88.178C123.835 87.506 123.705 86.9413 123.443 86.484C123.182 86.0173 122.837 85.672 122.407 85.448C121.978 85.2147 121.511 85.098 121.007 85.098C120.503 85.098 120.037 85.2147 119.607 85.448C119.178 85.672 118.833 86.0173 118.571 86.484C118.319 86.9413 118.193 87.506 118.193 88.178C118.193 88.85 118.319 89.4193 118.571 89.886C118.833 90.3433 119.173 90.6887 119.593 90.922C120.023 91.146 120.489 91.258 120.993 91.258ZM136.71 84.356L134.316 92H133.336L131.222 85.588L129.108 92H128.114L125.72 84.356H126.714L128.618 91.006L130.76 84.356H131.74L133.854 91.02L135.744 84.356H136.71ZM148.188 84.356L143.652 95.598H142.63L144.114 91.958L140.978 84.356H142.056L144.66 90.88L147.18 84.356H148.188ZM152.862 92.112C152.144 92.112 151.495 91.9533 150.916 91.636C150.347 91.3093 149.894 90.852 149.558 90.264C149.232 89.6667 149.068 88.9713 149.068 88.178C149.068 87.3847 149.236 86.694 149.572 86.106C149.908 85.5087 150.366 85.0513 150.944 84.734C151.523 84.4073 152.172 84.244 152.89 84.244C153.609 84.244 154.258 84.4073 154.836 84.734C155.424 85.0513 155.882 85.5087 156.208 86.106C156.544 86.694 156.712 87.3847 156.712 88.178C156.712 88.962 156.544 89.6527 156.208 90.25C155.872 90.8473 155.41 91.3093 154.822 91.636C154.234 91.9533 153.581 92.112 152.862 92.112ZM152.862 91.258C153.366 91.258 153.833 91.146 154.262 90.922C154.692 90.6887 155.037 90.3433 155.298 89.886C155.569 89.4193 155.704 88.85 155.704 88.178C155.704 87.506 155.574 86.9413 155.312 86.484C155.051 86.0173 154.706 85.672 154.276 85.448C153.847 85.2147 153.38 85.098 152.876 85.098C152.372 85.098 151.906 85.2147 151.476 85.448C151.047 85.672 150.702 86.0173 150.44 86.484C150.188 86.9413 150.062 87.506 150.062 88.178C150.062 88.85 150.188 89.4193 150.44 89.886C150.702 90.3433 151.042 90.6887 151.462 90.922C151.892 91.146 152.358 91.258 152.862 91.258ZM165.121 84.356V92H164.141V90.656C163.917 91.132 163.572 91.496 163.105 91.748C162.638 92 162.116 92.126 161.537 92.126C160.622 92.126 159.876 91.846 159.297 91.286C158.718 90.7167 158.429 89.8953 158.429 88.822V84.356H159.395V88.71C159.395 89.5407 159.6 90.1753 160.011 90.614C160.431 91.0527 161 91.272 161.719 91.272C162.456 91.272 163.044 91.0387 163.483 90.572C163.922 90.1053 164.141 89.4193 164.141 88.514V84.356H165.121ZM167.484 82.214H168.618L167.386 85.238H166.672L167.484 82.214ZM172.836 91.048L175.412 84.356H176.448L173.382 92H172.276L169.21 84.356H170.26L172.836 91.048ZM184.692 87.786C184.692 88.122 184.683 88.3787 184.664 88.556H178.322C178.35 89.1347 178.49 89.6293 178.742 90.04C178.994 90.4507 179.326 90.7633 179.736 90.978C180.147 91.1833 180.595 91.286 181.08 91.286C181.715 91.286 182.247 91.132 182.676 90.824C183.115 90.516 183.404 90.1007 183.544 89.578H184.58C184.394 90.3247 183.992 90.936 183.376 91.412C182.77 91.8787 182.004 92.112 181.08 92.112C180.362 92.112 179.718 91.9533 179.148 91.636C178.579 91.3093 178.131 90.852 177.804 90.264C177.487 89.6667 177.328 88.9713 177.328 88.178C177.328 87.3847 177.487 86.6893 177.804 86.092C178.122 85.4947 178.565 85.0373 179.134 84.72C179.704 84.4027 180.352 84.244 181.08 84.244C181.808 84.244 182.443 84.4027 182.984 84.72C183.535 85.0373 183.955 85.4667 184.244 86.008C184.543 86.54 184.692 87.1327 184.692 87.786ZM183.698 87.758C183.708 87.1887 183.591 86.7033 183.348 86.302C183.115 85.9007 182.793 85.5973 182.382 85.392C181.972 85.1867 181.524 85.084 181.038 85.084C180.31 85.084 179.69 85.3173 179.176 85.784C178.663 86.2507 178.378 86.9087 178.322 87.758H183.698ZM17.394 106.182V110.928C17.394 111.395 17.4827 111.717 17.66 111.894C17.8373 112.071 18.15 112.16 18.598 112.16H19.494V113H18.444C17.7533 113 17.24 112.841 16.904 112.524C16.568 112.197 16.4 111.665 16.4 110.928V106.182H15.336V105.356H16.4V103.438H17.394V105.356H19.494V106.182H17.394ZM24.7502 105.216C25.3289 105.216 25.8469 105.337 26.3042 105.58C26.7709 105.823 27.1349 106.196 27.3962 106.7C27.6669 107.195 27.8022 107.801 27.8022 108.52V113H26.8362V108.632C26.8362 107.801 26.6262 107.167 26.2062 106.728C25.7956 106.289 25.2309 106.07 24.5122 106.07C23.7749 106.07 23.1869 106.303 22.7482 106.77C22.3096 107.237 22.0902 107.923 22.0902 108.828V113H21.1102V102.64H22.0902V106.658C22.3329 106.201 22.6876 105.846 23.1542 105.594C23.6302 105.342 24.1622 105.216 24.7502 105.216ZM33.3156 113.112C32.5969 113.112 31.9483 112.953 31.3696 112.636C30.8003 112.309 30.3476 111.852 30.0116 111.264C29.6849 110.667 29.5216 109.971 29.5216 109.178C29.5216 108.385 29.6896 107.694 30.0256 107.106C30.3616 106.509 30.8189 106.051 31.3976 105.734C31.9763 105.407 32.6249 105.244 33.3436 105.244C34.0623 105.244 34.7109 105.407 35.2896 105.734C35.8776 106.051 36.3349 106.509 36.6616 107.106C36.9976 107.694 37.1656 108.385 37.1656 109.178C37.1656 109.962 36.9976 110.653 36.6616 111.25C36.3256 111.847 35.8636 112.309 35.2756 112.636C34.6876 112.953 34.0343 113.112 33.3156 113.112ZM33.3156 112.258C33.8196 112.258 34.2863 112.146 34.7156 111.922C35.1449 111.689 35.4903 111.343 35.7516 110.886C36.0223 110.419 36.1576 109.85 36.1576 109.178C36.1576 108.506 36.0269 107.941 35.7656 107.484C35.5043 107.017 35.1589 106.672 34.7296 106.448C34.3003 106.215 33.8336 106.098 33.3296 106.098C32.8256 106.098 32.3589 106.215 31.9296 106.448C31.5003 106.672 31.1549 107.017 30.8936 107.484C30.6416 107.941 30.5156 108.506 30.5156 109.178C30.5156 109.85 30.6416 110.419 30.8936 110.886C31.1549 111.343 31.4956 111.689 31.9156 111.922C32.3449 112.146 32.8116 112.258 33.3156 112.258ZM45.574 105.356V113H44.594V111.656C44.37 112.132 44.0247 112.496 43.558 112.748C43.0914 113 42.5687 113.126 41.99 113.126C41.0754 113.126 40.3287 112.846 39.75 112.286C39.1714 111.717 38.882 110.895 38.882 109.822V105.356H39.848V109.71C39.848 110.541 40.0534 111.175 40.464 111.614C40.884 112.053 41.4534 112.272 42.172 112.272C42.9094 112.272 43.4974 112.039 43.936 111.572C44.3747 111.105 44.594 110.419 44.594 109.514V105.356H45.574ZM51.0174 105.244C51.7361 105.244 52.3614 105.412 52.8934 105.748C53.4254 106.084 53.8081 106.509 54.0414 107.022V105.356H55.0214V113.196C55.0214 113.896 54.8674 114.517 54.5594 115.058C54.2607 115.599 53.8407 116.015 53.2994 116.304C52.7581 116.603 52.1421 116.752 51.4514 116.752C50.4714 116.752 49.6547 116.519 49.0014 116.052C48.3574 115.585 47.9561 114.951 47.7974 114.148H48.7634C48.9314 114.68 49.2487 115.105 49.7154 115.422C50.1914 115.739 50.7701 115.898 51.4514 115.898C51.9461 115.898 52.3894 115.791 52.7814 115.576C53.1734 115.371 53.4814 115.063 53.7054 114.652C53.9294 114.241 54.0414 113.756 54.0414 113.196V111.306C53.7987 111.829 53.4114 112.263 52.8794 112.608C52.3567 112.944 51.7361 113.112 51.0174 113.112C50.3174 113.112 49.6874 112.949 49.1274 112.622C48.5767 112.295 48.1427 111.833 47.8254 111.236C47.5174 110.639 47.3634 109.948 47.3634 109.164C47.3634 108.38 47.5174 107.694 47.8254 107.106C48.1427 106.509 48.5767 106.051 49.1274 105.734C49.6874 105.407 50.3174 105.244 51.0174 105.244ZM54.0414 109.178C54.0414 108.562 53.9154 108.021 53.6634 107.554C53.4114 107.087 53.0661 106.728 52.6274 106.476C52.1981 106.224 51.7221 106.098 51.1994 106.098C50.6581 106.098 50.1727 106.219 49.7434 106.462C49.3141 106.705 48.9734 107.059 48.7214 107.526C48.4787 107.983 48.3574 108.529 48.3574 109.164C48.3574 109.789 48.4787 110.34 48.7214 110.816C48.9734 111.283 49.3141 111.642 49.7434 111.894C50.1727 112.137 50.6581 112.258 51.1994 112.258C51.7221 112.258 52.1981 112.132 52.6274 111.88C53.0661 111.628 53.4114 111.269 53.6634 110.802C53.9154 110.335 54.0414 109.794 54.0414 109.178ZM60.8987 105.216C61.4773 105.216 61.9953 105.337 62.4527 105.58C62.9193 105.823 63.2833 106.196 63.5447 106.7C63.8153 107.195 63.9507 107.801 63.9507 108.52V113H62.9847V108.632C62.9847 107.801 62.7747 107.167 62.3547 106.728C61.944 106.289 61.3793 106.07 60.6607 106.07C59.9233 106.07 59.3353 106.303 58.8967 106.77C58.458 107.237 58.2387 107.923 58.2387 108.828V113H57.2587V102.64H58.2387V106.658C58.4813 106.201 58.836 105.846 59.3027 105.594C59.7787 105.342 60.3107 105.216 60.8987 105.216ZM67.392 106.182V110.928C67.392 111.395 67.4807 111.717 67.658 111.894C67.8354 112.071 68.148 112.16 68.596 112.16H69.492V113H68.442C67.7514 113 67.238 112.841 66.902 112.524C66.566 112.197 66.398 111.665 66.398 110.928V106.182H65.334V105.356H66.398V103.438H67.392V105.356H69.492V106.182H67.392ZM75.4401 103.914C75.2441 103.914 75.0761 103.844 74.9361 103.704C74.7961 103.564 74.7261 103.391 74.7261 103.186C74.7261 102.981 74.7961 102.813 74.9361 102.682C75.0761 102.542 75.2441 102.472 75.4401 102.472C75.6361 102.472 75.8041 102.542 75.9441 102.682C76.0841 102.813 76.1541 102.981 76.1541 103.186C76.1541 103.391 76.0841 103.564 75.9441 103.704C75.8041 103.844 75.6361 103.914 75.4401 103.914ZM75.9301 105.356V113H74.9501V105.356H75.9301ZM79.4233 106.182V110.928C79.4233 111.395 79.512 111.717 79.6893 111.894C79.8666 112.071 80.1793 112.16 80.6273 112.16H81.5233V113H80.4733C79.7826 113 79.2693 112.841 78.9333 112.524C78.5973 112.197 78.4293 111.665 78.4293 110.928V106.182H77.3653V105.356H78.4293V103.438H79.4233V105.356H81.5233V106.182H79.4233ZM88.2553 106.182V110.928C88.2553 111.395 88.344 111.717 88.5213 111.894C88.6987 112.071 89.0113 112.16 89.4593 112.16H90.3553V113H89.3053C88.6147 113 88.1013 112.841 87.7653 112.524C87.4293 112.197 87.2613 111.665 87.2613 110.928V106.182H86.1973V105.356H87.2613V103.438H88.2553V105.356H90.3553V106.182H88.2553ZM95.6116 105.216C96.1902 105.216 96.7082 105.337 97.1656 105.58C97.6322 105.823 97.9962 106.196 98.2576 106.7C98.5282 107.195 98.6636 107.801 98.6636 108.52V113H97.6976V108.632C97.6976 107.801 97.4876 107.167 97.0676 106.728C96.6569 106.289 96.0922 106.07 95.3736 106.07C94.6362 106.07 94.0482 106.303 93.6096 106.77C93.1709 107.237 92.9516 107.923 92.9516 108.828V113H91.9716V102.64H92.9516V106.658C93.1942 106.201 93.5489 105.846 94.0156 105.594C94.4916 105.342 95.0236 105.216 95.6116 105.216ZM101.811 106.714C102.026 106.238 102.352 105.869 102.791 105.608C103.239 105.347 103.785 105.216 104.429 105.216V106.238H104.163C103.454 106.238 102.884 106.429 102.455 106.812C102.026 107.195 101.811 107.834 101.811 108.73V113H100.831V105.356H101.811V106.714ZM109.249 113.112C108.531 113.112 107.882 112.953 107.303 112.636C106.734 112.309 106.281 111.852 105.945 111.264C105.619 110.667 105.455 109.971 105.455 109.178C105.455 108.385 105.623 107.694 105.959 107.106C106.295 106.509 106.753 106.051 107.331 105.734C107.91 105.407 108.559 105.244 109.277 105.244C109.996 105.244 110.645 105.407 111.223 105.734C111.811 106.051 112.269 106.509 112.595 107.106C112.931 107.694 113.099 108.385 113.099 109.178C113.099 109.962 112.931 110.653 112.595 111.25C112.259 111.847 111.797 112.309 111.209 112.636C110.621 112.953 109.968 113.112 109.249 113.112ZM109.249 112.258C109.753 112.258 110.22 112.146 110.649 111.922C111.079 111.689 111.424 111.343 111.685 110.886C111.956 110.419 112.091 109.85 112.091 109.178C112.091 108.506 111.961 107.941 111.699 107.484C111.438 107.017 111.093 106.672 110.663 106.448C110.234 106.215 109.767 106.098 109.263 106.098C108.759 106.098 108.293 106.215 107.863 106.448C107.434 106.672 107.089 107.017 106.827 107.484C106.575 107.941 106.449 108.506 106.449 109.178C106.449 109.85 106.575 110.419 106.827 110.886C107.089 111.343 107.429 111.689 107.849 111.922C108.279 112.146 108.745 112.258 109.249 112.258ZM121.508 105.356V113H120.528V111.656C120.304 112.132 119.958 112.496 119.492 112.748C119.025 113 118.502 113.126 117.924 113.126C117.009 113.126 116.262 112.846 115.684 112.286C115.105 111.717 114.816 110.895 114.816 109.822V105.356H115.782V109.71C115.782 110.541 115.987 111.175 116.398 111.614C116.818 112.053 117.387 112.272 118.106 112.272C118.843 112.272 119.431 112.039 119.87 111.572C120.308 111.105 120.528 110.419 120.528 109.514V105.356H121.508ZM126.951 105.244C127.67 105.244 128.295 105.412 128.827 105.748C129.359 106.084 129.742 106.509 129.975 107.022V105.356H130.955V113.196C130.955 113.896 130.801 114.517 130.493 115.058C130.194 115.599 129.774 116.015 129.233 116.304C128.692 116.603 128.076 116.752 127.385 116.752C126.405 116.752 125.588 116.519 124.935 116.052C124.291 115.585 123.89 114.951 123.731 114.148H124.697C124.865 114.68 125.182 115.105 125.649 115.422C126.125 115.739 126.704 115.898 127.385 115.898C127.88 115.898 128.323 115.791 128.715 115.576C129.107 115.371 129.415 115.063 129.639 114.652C129.863 114.241 129.975 113.756 129.975 113.196V111.306C129.732 111.829 129.345 112.263 128.813 112.608C128.29 112.944 127.67 113.112 126.951 113.112C126.251 113.112 125.621 112.949 125.061 112.622C124.51 112.295 124.076 111.833 123.759 111.236C123.451 110.639 123.297 109.948 123.297 109.164C123.297 108.38 123.451 107.694 123.759 107.106C124.076 106.509 124.51 106.051 125.061 105.734C125.621 105.407 126.251 105.244 126.951 105.244ZM129.975 109.178C129.975 108.562 129.849 108.021 129.597 107.554C129.345 107.087 129 106.728 128.561 106.476C128.132 106.224 127.656 106.098 127.133 106.098C126.592 106.098 126.106 106.219 125.677 106.462C125.248 106.705 124.907 107.059 124.655 107.526C124.412 107.983 124.291 108.529 124.291 109.164C124.291 109.789 124.412 110.34 124.655 110.816C124.907 111.283 125.248 111.642 125.677 111.894C126.106 112.137 126.592 112.258 127.133 112.258C127.656 112.258 128.132 112.132 128.561 111.88C129 111.628 129.345 111.269 129.597 110.802C129.849 110.335 129.975 109.794 129.975 109.178ZM136.832 105.216C137.411 105.216 137.929 105.337 138.386 105.58C138.853 105.823 139.217 106.196 139.478 106.7C139.749 107.195 139.884 107.801 139.884 108.52V113H138.918V108.632C138.918 107.801 138.708 107.167 138.288 106.728C137.878 106.289 137.313 106.07 136.594 106.07C135.857 106.07 135.269 106.303 134.83 106.77C134.392 107.237 134.172 107.923 134.172 108.828V113H133.192V102.64H134.172V106.658C134.415 106.201 134.77 105.846 135.236 105.594C135.712 105.342 136.244 105.216 136.832 105.216ZM142.22 113.07C142.014 113.07 141.842 113 141.702 112.86C141.571 112.72 141.506 112.547 141.506 112.342C141.506 112.137 141.571 111.969 141.702 111.838C141.842 111.698 142.014 111.628 142.22 111.628C142.416 111.628 142.579 111.698 142.71 111.838C142.85 111.969 142.92 112.137 142.92 112.342C142.92 112.547 142.85 112.72 142.71 112.86C142.579 113 142.416 113.07 142.22 113.07Z" fill="white"/>
</svg>
