<svg width="255" height="146" viewBox="0 0 255 146" fill="none" xmlns="http://www.w3.org/2000/svg">
<path d="M202.192 142.857C202.528 143.693 203.711 143.693 204.047 142.857L210.465 126.913C210.729 126.256 210.246 125.54 209.537 125.54L196.702 125.54C195.994 125.54 195.51 126.256 195.775 126.913L202.192 142.857Z" fill="#3D37CD"/>
<rect width="255" height="132" rx="20" transform="matrix(-1 0 0 1 255 0)" fill="#3D37CD"/>
<path d="M17.1 28.202H20.614V29H16.12V19.214H17.1V28.202ZM22.5026 19.914C22.3066 19.914 22.1386 19.844 21.9986 19.704C21.8586 19.564 21.7886 19.3913 21.7886 19.186C21.7886 18.9807 21.8586 18.8127 21.9986 18.682C22.1386 18.542 22.3066 18.472 22.5026 18.472C22.6986 18.472 22.8666 18.542 23.0066 18.682C23.1466 18.8127 23.2166 18.9807 23.2166 19.186C23.2166 19.3913 23.1466 19.564 23.0066 19.704C22.8666 19.844 22.6986 19.914 22.5026 19.914ZM22.9926 21.356V29H22.0126V21.356H22.9926ZM29.3418 29L26.1918 25.57V29H25.2118V18.64H26.1918V24.772L29.2718 21.356H30.6438L27.0178 25.164L30.6718 29H29.3418ZM38.8544 24.786C38.8544 25.122 38.845 25.3787 38.8264 25.556H32.4844C32.5124 26.1347 32.6524 26.6293 32.9044 27.04C33.1564 27.4507 33.4877 27.7633 33.8984 27.978C34.309 28.1833 34.757 28.286 35.2424 28.286C35.877 28.286 36.409 28.132 36.8384 27.824C37.277 27.516 37.5664 27.1007 37.7064 26.578H38.7424C38.5557 27.3247 38.1544 27.936 37.5384 28.412C36.9317 28.8787 36.1664 29.112 35.2424 29.112C34.5237 29.112 33.8797 28.9533 33.3104 28.636C32.741 28.3093 32.293 27.852 31.9664 27.264C31.649 26.6667 31.4904 25.9713 31.4904 25.178C31.4904 24.3847 31.649 23.6893 31.9664 23.092C32.2837 22.4947 32.727 22.0373 33.2964 21.72C33.8657 21.4027 34.5144 21.244 35.2424 21.244C35.9704 21.244 36.605 21.4027 37.1464 21.72C37.697 22.0373 38.117 22.4667 38.4064 23.008C38.705 23.54 38.8544 24.1327 38.8544 24.786ZM37.8604 24.758C37.8697 24.1887 37.753 23.7033 37.5104 23.302C37.277 22.9007 36.955 22.5973 36.5444 22.392C36.1337 22.1867 35.6857 22.084 35.2004 22.084C34.4724 22.084 33.8517 22.3173 33.3384 22.784C32.825 23.2507 32.5404 23.9087 32.4844 24.758H37.8604ZM44.0411 25.164C44.0411 24.38 44.1951 23.694 44.5031 23.106C44.8205 22.5087 45.2545 22.0513 45.8051 21.734C46.3651 21.4073 46.9951 21.244 47.6951 21.244C48.4231 21.244 49.0485 21.412 49.5711 21.748C50.1031 22.084 50.4858 22.5133 50.7191 23.036V21.356H51.6991V29H50.7191V27.306C50.4765 27.8287 50.0891 28.2627 49.5571 28.608C49.0345 28.944 48.4091 29.112 47.6811 29.112C46.9905 29.112 46.3651 28.9487 45.8051 28.622C45.2545 28.2953 44.8205 27.8333 44.5031 27.236C44.1951 26.6387 44.0411 25.948 44.0411 25.164ZM50.7191 25.178C50.7191 24.562 50.5931 24.0207 50.3411 23.554C50.0891 23.0873 49.7438 22.728 49.3051 22.476C48.8758 22.224 48.3998 22.098 47.8771 22.098C47.3358 22.098 46.8505 22.2193 46.4211 22.462C45.9918 22.7047 45.6511 23.0593 45.3991 23.526C45.1565 23.9833 45.0351 24.5293 45.0351 25.164C45.0351 25.7893 45.1565 26.34 45.3991 26.816C45.6511 27.2827 45.9918 27.642 46.4211 27.894C46.8505 28.1367 47.3358 28.258 47.8771 28.258C48.3998 28.258 48.8758 28.132 49.3051 27.88C49.7438 27.628 50.0891 27.2687 50.3411 26.802C50.5931 26.3353 50.7191 25.794 50.7191 25.178ZM60.9842 21.244C61.7029 21.244 62.3282 21.412 62.8602 21.748C63.3922 22.084 63.7749 22.5087 64.0082 23.022V21.356H64.9882V29.196C64.9882 29.896 64.8342 30.5167 64.5262 31.058C64.2275 31.5993 63.8075 32.0147 63.2662 32.304C62.7249 32.6027 62.1089 32.752 61.4182 32.752C60.4382 32.752 59.6215 32.5187 58.9682 32.052C58.3242 31.5853 57.9229 30.9507 57.7642 30.148H58.7302C58.8982 30.68 59.2155 31.1047 59.6822 31.422C60.1582 31.7393 60.7369 31.898 61.4182 31.898C61.9129 31.898 62.3562 31.7907 62.7482 31.576C63.1402 31.3707 63.4482 31.0627 63.6722 30.652C63.8962 30.2413 64.0082 29.756 64.0082 29.196V27.306C63.7655 27.8287 63.3782 28.2627 62.8462 28.608C62.3235 28.944 61.7029 29.112 60.9842 29.112C60.2842 29.112 59.6542 28.9487 59.0942 28.622C58.5435 28.2953 58.1095 27.8333 57.7922 27.236C57.4842 26.6387 57.3302 25.948 57.3302 25.164C57.3302 24.38 57.4842 23.694 57.7922 23.106C58.1095 22.5087 58.5435 22.0513 59.0942 21.734C59.6542 21.4073 60.2842 21.244 60.9842 21.244ZM64.0082 25.178C64.0082 24.562 63.8822 24.0207 63.6302 23.554C63.3782 23.0873 63.0329 22.728 62.5942 22.476C62.1649 22.224 61.6889 22.098 61.1662 22.098C60.6249 22.098 60.1395 22.2193 59.7102 22.462C59.2809 22.7047 58.9402 23.0593 58.6882 23.526C58.4455 23.9833 58.3242 24.5293 58.3242 25.164C58.3242 25.7893 58.4455 26.34 58.6882 26.816C58.9402 27.2827 59.2809 27.642 59.7102 27.894C60.1395 28.1367 60.6249 28.258 61.1662 28.258C61.6889 28.258 62.1649 28.132 62.5942 27.88C63.0329 27.628 63.3782 27.2687 63.6302 26.802C63.8822 26.3353 64.0082 25.794 64.0082 25.178ZM70.5715 29.112C69.8528 29.112 69.2041 28.9533 68.6255 28.636C68.0561 28.3093 67.6035 27.852 67.2675 27.264C66.9408 26.6667 66.7775 25.9713 66.7775 25.178C66.7775 24.3847 66.9455 23.694 67.2815 23.106C67.6175 22.5087 68.0748 22.0513 68.6535 21.734C69.2321 21.4073 69.8808 21.244 70.5995 21.244C71.3181 21.244 71.9668 21.4073 72.5455 21.734C73.1335 22.0513 73.5908 22.5087 73.9175 23.106C74.2535 23.694 74.4215 24.3847 74.4215 25.178C74.4215 25.962 74.2535 26.6527 73.9175 27.25C73.5815 27.8473 73.1195 28.3093 72.5315 28.636C71.9435 28.9533 71.2901 29.112 70.5715 29.112ZM70.5715 28.258C71.0755 28.258 71.5421 28.146 71.9715 27.922C72.4008 27.6887 72.7461 27.3433 73.0075 26.886C73.2781 26.4193 73.4135 25.85 73.4135 25.178C73.4135 24.506 73.2828 23.9413 73.0215 23.484C72.7601 23.0173 72.4148 22.672 71.9855 22.448C71.5561 22.2147 71.0895 22.098 70.5855 22.098C70.0815 22.098 69.6148 22.2147 69.1855 22.448C68.7561 22.672 68.4108 23.0173 68.1495 23.484C67.8975 23.9413 67.7715 24.506 67.7715 25.178C67.7715 25.85 67.8975 26.4193 68.1495 26.886C68.4108 27.3433 68.7515 27.6887 69.1715 27.922C69.6008 28.146 70.0675 28.258 70.5715 28.258ZM79.5539 29.112C78.8352 29.112 78.1866 28.9533 77.6079 28.636C77.0386 28.3093 76.5859 27.852 76.2499 27.264C75.9232 26.6667 75.7599 25.9713 75.7599 25.178C75.7599 24.3847 75.9279 23.694 76.2639 23.106C76.5999 22.5087 77.0572 22.0513 77.6359 21.734C78.2146 21.4073 78.8632 21.244 79.5819 21.244C80.3006 21.244 80.9492 21.4073 81.5279 21.734C82.1159 22.0513 82.5732 22.5087 82.8999 23.106C83.2359 23.694 83.4039 24.3847 83.4039 25.178C83.4039 25.962 83.2359 26.6527 82.8999 27.25C82.5639 27.8473 82.1019 28.3093 81.5139 28.636C80.9259 28.9533 80.2726 29.112 79.5539 29.112ZM79.5539 28.258C80.0579 28.258 80.5246 28.146 80.9539 27.922C81.3832 27.6887 81.7286 27.3433 81.9899 26.886C82.2606 26.4193 82.3959 25.85 82.3959 25.178C82.3959 24.506 82.2652 23.9413 82.0039 23.484C81.7426 23.0173 81.3972 22.672 80.9679 22.448C80.5386 22.2147 80.0719 22.098 79.5679 22.098C79.0639 22.098 78.5972 22.2147 78.1679 22.448C77.7386 22.672 77.3932 23.0173 77.1319 23.484C76.8799 23.9413 76.7539 24.506 76.7539 25.178C76.7539 25.85 76.8799 26.4193 77.1319 26.886C77.3932 27.3433 77.7339 27.6887 78.1539 27.922C78.5832 28.146 79.0499 28.258 79.5539 28.258ZM84.7423 25.164C84.7423 24.38 84.901 23.694 85.2183 23.106C85.5356 22.5087 85.9696 22.0513 86.5203 21.734C87.0803 21.4073 87.7103 21.244 88.4103 21.244C89.0823 21.244 89.689 21.4073 90.2303 21.734C90.7716 22.0607 91.1683 22.4853 91.4203 23.008V18.64H92.4003V29H91.4203V27.292C91.187 27.824 90.8043 28.2627 90.2723 28.608C89.7403 28.944 89.115 29.112 88.3963 29.112C87.6963 29.112 87.0663 28.9487 86.5063 28.622C85.9556 28.2953 85.5216 27.8333 85.2043 27.236C84.8963 26.6387 84.7423 25.948 84.7423 25.164ZM91.4203 25.178C91.4203 24.562 91.2943 24.0207 91.0423 23.554C90.7903 23.0873 90.445 22.728 90.0063 22.476C89.577 22.224 89.101 22.098 88.5783 22.098C88.037 22.098 87.5516 22.2193 87.1223 22.462C86.693 22.7047 86.3523 23.0593 86.1003 23.526C85.8576 23.9833 85.7363 24.5293 85.7363 25.164C85.7363 25.7893 85.8576 26.34 86.1003 26.816C86.3523 27.2827 86.693 27.642 87.1223 27.894C87.5516 28.1367 88.037 28.258 88.5783 28.258C89.101 28.258 89.577 28.132 90.0063 27.88C90.445 27.628 90.7903 27.2687 91.0423 26.802C91.2943 26.3353 91.4203 25.794 91.4203 25.178ZM98.0314 24.1C98.0314 23.1387 98.2414 22.28 98.6614 21.524C99.0814 20.7587 99.6554 20.166 100.383 19.746C101.111 19.3167 101.923 19.102 102.819 19.102C103.911 19.102 104.845 19.3633 105.619 19.886C106.403 20.3993 106.973 21.1273 107.327 22.07H106.179C105.899 21.4073 105.47 20.8893 104.891 20.516C104.322 20.1427 103.631 19.956 102.819 19.956C102.101 19.956 101.452 20.124 100.873 20.46C100.304 20.796 99.856 21.2813 99.5294 21.916C99.2027 22.5413 99.0394 23.2693 99.0394 24.1C99.0394 24.9307 99.2027 25.6587 99.5294 26.284C99.856 26.9093 100.304 27.39 100.873 27.726C101.452 28.062 102.101 28.23 102.819 28.23C103.631 28.23 104.322 28.048 104.891 27.684C105.47 27.3107 105.899 26.7973 106.179 26.144H107.327C106.973 27.0773 106.403 27.8007 105.619 28.314C104.835 28.8273 103.902 29.084 102.819 29.084C101.923 29.084 101.111 28.874 100.383 28.454C99.6554 28.0247 99.0814 27.432 98.6614 26.676C98.2414 25.92 98.0314 25.0613 98.0314 24.1ZM117.036 19.214L113.326 29H112.206L108.496 19.214H109.56L112.766 27.936L116 19.214H117.036ZM119.405 27.376L117.949 31.044H117.277L118.313 27.376H119.405ZM131.07 21.356L126.534 32.598H125.512L126.996 28.958L123.86 21.356H124.938L127.542 27.88L130.062 21.356H131.07ZM135.745 29.112C135.027 29.112 134.378 28.9533 133.799 28.636C133.23 28.3093 132.777 27.852 132.441 27.264C132.115 26.6667 131.951 25.9713 131.951 25.178C131.951 24.3847 132.119 23.694 132.455 23.106C132.791 22.5087 133.249 22.0513 133.827 21.734C134.406 21.4073 135.055 21.244 135.773 21.244C136.492 21.244 137.141 21.4073 137.719 21.734C138.307 22.0513 138.765 22.5087 139.091 23.106C139.427 23.694 139.595 24.3847 139.595 25.178C139.595 25.962 139.427 26.6527 139.091 27.25C138.755 27.8473 138.293 28.3093 137.705 28.636C137.117 28.9533 136.464 29.112 135.745 29.112ZM135.745 28.258C136.249 28.258 136.716 28.146 137.145 27.922C137.575 27.6887 137.92 27.3433 138.181 26.886C138.452 26.4193 138.587 25.85 138.587 25.178C138.587 24.506 138.457 23.9413 138.195 23.484C137.934 23.0173 137.589 22.672 137.159 22.448C136.73 22.2147 136.263 22.098 135.759 22.098C135.255 22.098 134.789 22.2147 134.359 22.448C133.93 22.672 133.585 23.0173 133.323 23.484C133.071 23.9413 132.945 24.506 132.945 25.178C132.945 25.85 133.071 26.4193 133.323 26.886C133.585 27.3433 133.925 27.6887 134.345 27.922C134.775 28.146 135.241 28.258 135.745 28.258ZM148.004 21.356V29H147.024V27.656C146.8 28.132 146.454 28.496 145.988 28.748C145.521 29 144.998 29.126 144.42 29.126C143.505 29.126 142.758 28.846 142.18 28.286C141.601 27.7167 141.312 26.8953 141.312 25.822V21.356H142.278V25.71C142.278 26.5407 142.483 27.1753 142.894 27.614C143.314 28.0527 143.883 28.272 144.602 28.272C145.339 28.272 145.927 28.0387 146.366 27.572C146.804 27.1053 147.024 26.4193 147.024 25.514V21.356H148.004ZM151.221 22.714C151.436 22.238 151.762 21.8693 152.201 21.608C152.649 21.3467 153.195 21.216 153.839 21.216V22.238H153.573C152.864 22.238 152.294 22.4293 151.865 22.812C151.436 23.1947 151.221 23.834 151.221 24.73V29H150.241V21.356H151.221V22.714ZM158.707 25.178C158.707 24.3847 158.866 23.694 159.183 23.106C159.5 22.5087 159.939 22.0513 160.499 21.734C161.059 21.4073 161.698 21.244 162.417 21.244C163.36 21.244 164.134 21.4773 164.741 21.944C165.357 22.4107 165.754 23.0453 165.931 23.848H164.881C164.75 23.2973 164.466 22.868 164.027 22.56C163.598 22.2427 163.061 22.084 162.417 22.084C161.904 22.084 161.442 22.2007 161.031 22.434C160.62 22.6673 160.294 23.0173 160.051 23.484C159.818 23.9413 159.701 24.506 159.701 25.178C159.701 25.85 159.818 26.4193 160.051 26.886C160.294 27.3527 160.62 27.7027 161.031 27.936C161.442 28.1693 161.904 28.286 162.417 28.286C163.061 28.286 163.598 28.132 164.027 27.824C164.466 27.5067 164.75 27.068 164.881 26.508H165.931C165.754 27.292 165.357 27.922 164.741 28.398C164.125 28.874 163.35 29.112 162.417 29.112C161.698 29.112 161.059 28.9533 160.499 28.636C159.939 28.3093 159.5 27.852 159.183 27.264C158.866 26.6667 158.707 25.9713 158.707 25.178ZM171.087 29.112C170.368 29.112 169.72 28.9533 169.141 28.636C168.572 28.3093 168.119 27.852 167.783 27.264C167.456 26.6667 167.293 25.9713 167.293 25.178C167.293 24.3847 167.461 23.694 167.797 23.106C168.133 22.5087 168.59 22.0513 169.169 21.734C169.748 21.4073 170.396 21.244 171.115 21.244C171.834 21.244 172.482 21.4073 173.061 21.734C173.649 22.0513 174.106 22.5087 174.433 23.106C174.769 23.694 174.937 24.3847 174.937 25.178C174.937 25.962 174.769 26.6527 174.433 27.25C174.097 27.8473 173.635 28.3093 173.047 28.636C172.459 28.9533 171.806 29.112 171.087 29.112ZM171.087 28.258C171.591 28.258 172.058 28.146 172.487 27.922C172.916 27.6887 173.262 27.3433 173.523 26.886C173.794 26.4193 173.929 25.85 173.929 25.178C173.929 24.506 173.798 23.9413 173.537 23.484C173.276 23.0173 172.93 22.672 172.501 22.448C172.072 22.2147 171.605 22.098 171.101 22.098C170.597 22.098 170.13 22.2147 169.701 22.448C169.272 22.672 168.926 23.0173 168.665 23.484C168.413 23.9413 168.287 24.506 168.287 25.178C168.287 25.85 168.413 26.4193 168.665 26.886C168.926 27.3433 169.267 27.6887 169.687 27.922C170.116 28.146 170.583 28.258 171.087 28.258ZM180.308 21.216C181.222 21.216 181.969 21.5007 182.548 22.07C183.126 22.63 183.416 23.4467 183.416 24.52V29H182.45V24.632C182.45 23.8013 182.24 23.1667 181.82 22.728C181.409 22.2893 180.844 22.07 180.126 22.07C179.388 22.07 178.8 22.3033 178.362 22.77C177.923 23.2367 177.704 23.9227 177.704 24.828V29H176.724V21.356H177.704V22.658C177.946 22.1913 178.296 21.8367 178.754 21.594C179.211 21.342 179.729 21.216 180.308 21.216ZM185.135 25.178C185.135 24.3847 185.294 23.694 185.611 23.106C185.928 22.5087 186.367 22.0513 186.927 21.734C187.487 21.4073 188.126 21.244 188.845 21.244C189.788 21.244 190.562 21.4773 191.169 21.944C191.785 22.4107 192.182 23.0453 192.359 23.848H191.309C191.178 23.2973 190.894 22.868 190.455 22.56C190.026 22.2427 189.489 22.084 188.845 22.084C188.332 22.084 187.87 22.2007 187.459 22.434C187.048 22.6673 186.722 23.0173 186.479 23.484C186.246 23.9413 186.129 24.506 186.129 25.178C186.129 25.85 186.246 26.4193 186.479 26.886C186.722 27.3527 187.048 27.7027 187.459 27.936C187.87 28.1693 188.332 28.286 188.845 28.286C189.489 28.286 190.026 28.132 190.455 27.824C190.894 27.5067 191.178 27.068 191.309 26.508H192.359C192.182 27.292 191.785 27.922 191.169 28.398C190.553 28.874 189.778 29.112 188.845 29.112C188.126 29.112 187.487 28.9533 186.927 28.636C186.367 28.3093 185.928 27.852 185.611 27.264C185.294 26.6667 185.135 25.9713 185.135 25.178ZM201.085 24.786C201.085 25.122 201.075 25.3787 201.057 25.556H194.715C194.743 26.1347 194.883 26.6293 195.135 27.04C195.387 27.4507 195.718 27.7633 196.129 27.978C196.539 28.1833 196.987 28.286 197.473 28.286C198.107 28.286 198.639 28.132 199.069 27.824C199.507 27.516 199.797 27.1007 199.937 26.578H200.973C200.786 27.3247 200.385 27.936 199.769 28.412C199.162 28.8787 198.397 29.112 197.473 29.112C196.754 29.112 196.11 28.9533 195.541 28.636C194.971 28.3093 194.523 27.852 194.197 27.264C193.879 26.6667 193.721 25.9713 193.721 25.178C193.721 24.3847 193.879 23.6893 194.197 23.092C194.514 22.4947 194.957 22.0373 195.527 21.72C196.096 21.4027 196.745 21.244 197.473 21.244C198.201 21.244 198.835 21.4027 199.377 21.72C199.927 22.0373 200.347 22.4667 200.637 23.008C200.935 23.54 201.085 24.1327 201.085 24.786ZM200.091 24.758C200.1 24.1887 199.983 23.7033 199.741 23.302C199.507 22.9007 199.185 22.5973 198.775 22.392C198.364 22.1867 197.916 22.084 197.431 22.084C196.703 22.084 196.082 22.3173 195.569 22.784C195.055 23.2507 194.771 23.9087 194.715 24.758H200.091ZM203.844 23.036C204.086 22.5227 204.469 22.098 204.992 21.762C205.524 21.4167 206.154 21.244 206.882 21.244C207.572 21.244 208.193 21.4073 208.744 21.734C209.304 22.0513 209.738 22.5087 210.046 23.106C210.363 23.694 210.522 24.38 210.522 25.164C210.522 25.948 210.363 26.6387 210.046 27.236C209.738 27.8333 209.304 28.2953 208.744 28.622C208.193 28.9487 207.572 29.112 206.882 29.112C206.163 29.112 205.538 28.944 205.006 28.608C204.474 28.2627 204.086 27.8333 203.844 27.32V32.612H202.878V21.356H203.844V23.036ZM209.528 25.164C209.528 24.5293 209.402 23.9833 209.15 23.526C208.907 23.0593 208.571 22.7047 208.142 22.462C207.712 22.2193 207.227 22.098 206.686 22.098C206.163 22.098 205.682 22.224 205.244 22.476C204.814 22.728 204.474 23.0873 204.222 23.554C203.97 24.0207 203.844 24.562 203.844 25.178C203.844 25.794 203.97 26.3353 204.222 26.802C204.474 27.2687 204.814 27.628 205.244 27.88C205.682 28.132 206.163 28.258 206.686 28.258C207.227 28.258 207.712 28.1367 208.142 27.894C208.571 27.642 208.907 27.2827 209.15 26.816C209.402 26.34 209.528 25.7893 209.528 25.164ZM213.599 22.182V26.928C213.599 27.3947 213.688 27.7167 213.865 27.894C214.042 28.0713 214.355 28.16 214.803 28.16H215.699V29H214.649C213.958 29 213.445 28.8413 213.109 28.524C212.773 28.1973 212.605 27.6653 212.605 26.928V22.182H211.541V21.356H212.605V19.438H213.599V21.356H215.699V22.182H213.599ZM19.76 42.216C20.3387 42.216 20.8567 42.3373 21.314 42.58C21.7807 42.8227 22.1447 43.196 22.406 43.7C22.6767 44.1947 22.812 44.8013 22.812 45.52V50H21.846V45.632C21.846 44.8013 21.636 44.1667 21.216 43.728C20.8053 43.2893 20.2407 43.07 19.522 43.07C18.7847 43.07 18.1967 43.3033 17.758 43.77C17.3193 44.2367 17.1 44.9227 17.1 45.828V50H16.12V39.64H17.1V43.658C17.3427 43.2007 17.6973 42.846 18.164 42.594C18.64 42.342 19.172 42.216 19.76 42.216ZM24.5314 46.164C24.5314 45.38 24.6854 44.694 24.9934 44.106C25.3107 43.5087 25.7447 43.0513 26.2954 42.734C26.8554 42.4073 27.4854 42.244 28.1854 42.244C28.9134 42.244 29.5387 42.412 30.0614 42.748C30.5934 43.084 30.976 43.5133 31.2094 44.036V42.356H32.1894V50H31.2094V48.306C30.9667 48.8287 30.5794 49.2627 30.0474 49.608C29.5247 49.944 28.8994 50.112 28.1714 50.112C27.4807 50.112 26.8554 49.9487 26.2954 49.622C25.7447 49.2953 25.3107 48.8333 24.9934 48.236C24.6854 47.6387 24.5314 46.948 24.5314 46.164ZM31.2094 46.178C31.2094 45.562 31.0834 45.0207 30.8314 44.554C30.5794 44.0873 30.234 43.728 29.7954 43.476C29.366 43.224 28.89 43.098 28.3674 43.098C27.826 43.098 27.3407 43.2193 26.9114 43.462C26.482 43.7047 26.1414 44.0593 25.8894 44.526C25.6467 44.9833 25.5254 45.5293 25.5254 46.164C25.5254 46.7893 25.6467 47.34 25.8894 47.816C26.1414 48.2827 26.482 48.642 26.9114 48.894C27.3407 49.1367 27.826 49.258 28.3674 49.258C28.89 49.258 29.366 49.132 29.7954 48.88C30.234 48.628 30.5794 48.2687 30.8314 47.802C31.0834 47.3353 31.2094 46.794 31.2094 46.178ZM37.0586 50.112C36.1813 50.112 35.4626 49.9113 34.9026 49.51C34.352 49.0993 34.044 48.544 33.9786 47.844H34.9866C35.0333 48.2733 35.234 48.6233 35.5886 48.894C35.9526 49.1553 36.438 49.286 37.0446 49.286C37.5766 49.286 37.992 49.16 38.2906 48.908C38.5986 48.656 38.7526 48.3433 38.7526 47.97C38.7526 47.7087 38.6686 47.494 38.5006 47.326C38.3326 47.158 38.118 47.0273 37.8566 46.934C37.6046 46.8313 37.2593 46.724 36.8206 46.612C36.2513 46.4627 35.7893 46.3133 35.4346 46.164C35.08 46.0147 34.7766 45.7953 34.5246 45.506C34.282 45.2073 34.1606 44.8107 34.1606 44.316C34.1606 43.9427 34.2726 43.5973 34.4966 43.28C34.7206 42.9627 35.038 42.7107 35.4486 42.524C35.8593 42.3373 36.326 42.244 36.8486 42.244C37.67 42.244 38.3326 42.454 38.8366 42.874C39.3406 43.2847 39.6113 43.854 39.6486 44.582H38.6686C38.6406 44.134 38.4633 43.7747 38.1366 43.504C37.8193 43.224 37.3806 43.084 36.8206 43.084C36.326 43.084 35.9246 43.2007 35.6166 43.434C35.3086 43.6673 35.1546 43.9567 35.1546 44.302C35.1546 44.6007 35.2433 44.848 35.4206 45.044C35.6073 45.2307 35.836 45.38 36.1066 45.492C36.3773 45.5947 36.7413 45.7113 37.1986 45.842C37.7493 45.9913 38.188 46.136 38.5146 46.276C38.8413 46.416 39.1213 46.6213 39.3546 46.892C39.588 47.1627 39.7093 47.522 39.7186 47.97C39.7186 48.3807 39.6066 48.7493 39.3826 49.076C39.1586 49.3933 38.846 49.6453 38.4446 49.832C38.0433 50.0187 37.5813 50.112 37.0586 50.112ZM46.6792 43.182V47.928C46.6792 48.3947 46.7678 48.7167 46.9452 48.894C47.1225 49.0713 47.4352 49.16 47.8832 49.16H48.7792V50H47.7292C47.0385 50 46.5252 49.8413 46.1892 49.524C45.8532 49.1973 45.6852 48.6653 45.6852 47.928V43.182H44.6212V42.356H45.6852V40.438H46.6792V42.356H48.7792V43.182H46.6792ZM53.7414 50.112C53.0227 50.112 52.3741 49.9533 51.7954 49.636C51.2261 49.3093 50.7734 48.852 50.4374 48.264C50.1107 47.6667 49.9474 46.9713 49.9474 46.178C49.9474 45.3847 50.1154 44.694 50.4514 44.106C50.7874 43.5087 51.2447 43.0513 51.8234 42.734C52.4021 42.4073 53.0507 42.244 53.7694 42.244C54.4881 42.244 55.1367 42.4073 55.7154 42.734C56.3034 43.0513 56.7607 43.5087 57.0874 44.106C57.4234 44.694 57.5914 45.3847 57.5914 46.178C57.5914 46.962 57.4234 47.6527 57.0874 48.25C56.7514 48.8473 56.2894 49.3093 55.7014 49.636C55.1134 49.9533 54.4601 50.112 53.7414 50.112ZM53.7414 49.258C54.2454 49.258 54.7121 49.146 55.1414 48.922C55.5707 48.6887 55.9161 48.3433 56.1774 47.886C56.4481 47.4193 56.5834 46.85 56.5834 46.178C56.5834 45.506 56.4527 44.9413 56.1914 44.484C55.9301 44.0173 55.5847 43.672 55.1554 43.448C54.7261 43.2147 54.2594 43.098 53.7554 43.098C53.2514 43.098 52.7847 43.2147 52.3554 43.448C51.9261 43.672 51.5807 44.0173 51.3194 44.484C51.0674 44.9413 50.9414 45.506 50.9414 46.178C50.9414 46.85 51.0674 47.4193 51.3194 47.886C51.5807 48.3433 51.9214 48.6887 52.3414 48.922C52.7707 49.146 53.2374 49.258 53.7414 49.258ZM65.8516 50.112C64.9743 50.112 64.2556 49.9113 63.6956 49.51C63.1449 49.0993 62.8369 48.544 62.7716 47.844H63.7796C63.8263 48.2733 64.0269 48.6233 64.3816 48.894C64.7456 49.1553 65.2309 49.286 65.8376 49.286C66.3696 49.286 66.7849 49.16 67.0836 48.908C67.3916 48.656 67.5456 48.3433 67.5456 47.97C67.5456 47.7087 67.4616 47.494 67.2936 47.326C67.1256 47.158 66.9109 47.0273 66.6496 46.934C66.3976 46.8313 66.0523 46.724 65.6136 46.612C65.0443 46.4627 64.5823 46.3133 64.2276 46.164C63.8729 46.0147 63.5696 45.7953 63.3176 45.506C63.0749 45.2073 62.9536 44.8107 62.9536 44.316C62.9536 43.9427 63.0656 43.5973 63.2896 43.28C63.5136 42.9627 63.8309 42.7107 64.2416 42.524C64.6523 42.3373 65.1189 42.244 65.6416 42.244C66.4629 42.244 67.1256 42.454 67.6296 42.874C68.1336 43.2847 68.4043 43.854 68.4416 44.582H67.4616C67.4336 44.134 67.2563 43.7747 66.9296 43.504C66.6123 43.224 66.1736 43.084 65.6136 43.084C65.1189 43.084 64.7176 43.2007 64.4096 43.434C64.1016 43.6673 63.9476 43.9567 63.9476 44.302C63.9476 44.6007 64.0363 44.848 64.2136 45.044C64.4003 45.2307 64.6289 45.38 64.8996 45.492C65.1703 45.5947 65.5343 45.7113 65.9916 45.842C66.5423 45.9913 66.9809 46.136 67.3076 46.276C67.6343 46.416 67.9143 46.6213 68.1476 46.892C68.3809 47.1627 68.5023 47.522 68.5116 47.97C68.5116 48.3807 68.3996 48.7493 68.1756 49.076C67.9516 49.3933 67.6389 49.6453 67.2376 49.832C66.8363 50.0187 66.3743 50.112 65.8516 50.112ZM71.6303 43.182V47.928C71.6303 48.3947 71.719 48.7167 71.8963 48.894C72.0737 49.0713 72.3863 49.16 72.8343 49.16H73.7303V50H72.6803C71.9897 50 71.4763 49.8413 71.1403 49.524C70.8043 49.1973 70.6363 48.6653 70.6363 47.928V43.182H69.5723V42.356H70.6363V40.438H71.6303V42.356H73.7303V43.182H71.6303ZM76.3266 43.714C76.5412 43.238 76.8679 42.8693 77.3066 42.608C77.7546 42.3467 78.3006 42.216 78.9446 42.216V43.238H78.6786C77.9692 43.238 77.3999 43.4293 76.9706 43.812C76.5412 44.1947 76.3266 44.834 76.3266 45.73V50H75.3466V42.356H76.3266V43.714ZM80.9088 40.914C80.7128 40.914 80.5448 40.844 80.4048 40.704C80.2648 40.564 80.1948 40.3913 80.1948 40.186C80.1948 39.9807 80.2648 39.8127 80.4048 39.682C80.5448 39.542 80.7128 39.472 80.9088 39.472C81.1048 39.472 81.2728 39.542 81.4128 39.682C81.5528 39.8127 81.6228 39.9807 81.6228 40.186C81.6228 40.3913 81.5528 40.564 81.4128 40.704C81.2728 40.844 81.1048 40.914 80.9088 40.914ZM81.3988 42.356V50H80.4188V42.356H81.3988ZM87.748 50L84.598 46.57V50H83.618V39.64H84.598V45.772L87.678 42.356H89.05L85.424 46.164L89.078 50H87.748ZM97.2606 45.786C97.2606 46.122 97.2513 46.3787 97.2326 46.556H90.8906C90.9186 47.1347 91.0586 47.6293 91.3106 48.04C91.5626 48.4507 91.8939 48.7633 92.3046 48.978C92.7153 49.1833 93.1633 49.286 93.6486 49.286C94.2833 49.286 94.8153 49.132 95.2446 48.824C95.6833 48.516 95.9726 48.1007 96.1126 47.578H97.1486C96.9619 48.3247 96.5606 48.936 95.9446 49.412C95.3379 49.8787 94.5726 50.112 93.6486 50.112C92.9299 50.112 92.2859 49.9533 91.7166 49.636C91.1473 49.3093 90.6993 48.852 90.3726 48.264C90.0553 47.6667 89.8966 46.9713 89.8966 46.178C89.8966 45.3847 90.0553 44.6893 90.3726 44.092C90.6899 43.4947 91.1333 43.0373 91.7026 42.72C92.2719 42.4027 92.9206 42.244 93.6486 42.244C94.3766 42.244 95.0113 42.4027 95.5526 42.72C96.1033 43.0373 96.5233 43.4667 96.8126 44.008C97.1113 44.54 97.2606 45.1327 97.2606 45.786ZM96.2666 45.758C96.2759 45.1887 96.1593 44.7033 95.9166 44.302C95.6833 43.9007 95.3613 43.5973 94.9506 43.392C94.5399 43.1867 94.0919 43.084 93.6066 43.084C92.8786 43.084 92.2579 43.3173 91.7446 43.784C91.2313 44.2507 90.9466 44.9087 90.8906 45.758H96.2666ZM102.447 46.164C102.447 45.38 102.601 44.694 102.909 44.106C103.227 43.5087 103.661 43.0513 104.211 42.734C104.771 42.4073 105.401 42.244 106.101 42.244C106.829 42.244 107.455 42.412 107.977 42.748C108.509 43.084 108.892 43.5133 109.125 44.036V42.356H110.105V50H109.125V48.306C108.883 48.8287 108.495 49.2627 107.963 49.608C107.441 49.944 106.815 50.112 106.087 50.112C105.397 50.112 104.771 49.9487 104.211 49.622C103.661 49.2953 103.227 48.8333 102.909 48.236C102.601 47.6387 102.447 46.948 102.447 46.164ZM109.125 46.178C109.125 45.562 108.999 45.0207 108.747 44.554C108.495 44.0873 108.15 43.728 107.711 43.476C107.282 43.224 106.806 43.098 106.283 43.098C105.742 43.098 105.257 43.2193 104.827 43.462C104.398 43.7047 104.057 44.0593 103.805 44.526C103.563 44.9833 103.441 45.5293 103.441 46.164C103.441 46.7893 103.563 47.34 103.805 47.816C104.057 48.2827 104.398 48.642 104.827 48.894C105.257 49.1367 105.742 49.258 106.283 49.258C106.806 49.258 107.282 49.132 107.711 48.88C108.15 48.628 108.495 48.2687 108.747 47.802C108.999 47.3353 109.125 46.794 109.125 46.178ZM117.15 44.05C117.402 43.518 117.79 43.084 118.312 42.748C118.844 42.412 119.47 42.244 120.188 42.244C120.888 42.244 121.514 42.4073 122.064 42.734C122.615 43.0513 123.044 43.5087 123.352 44.106C123.67 44.694 123.828 45.38 123.828 46.164C123.828 46.948 123.67 47.6387 123.352 48.236C123.044 48.8333 122.61 49.2953 122.05 49.622C121.5 49.9487 120.879 50.112 120.188 50.112C119.46 50.112 118.83 49.9487 118.298 49.622C117.776 49.286 117.393 48.852 117.15 48.32V50H116.184V39.64H117.15V44.05ZM122.834 46.164C122.834 45.5293 122.708 44.9833 122.456 44.526C122.214 44.0593 121.878 43.7047 121.448 43.462C121.019 43.2193 120.534 43.098 119.992 43.098C119.47 43.098 118.989 43.224 118.55 43.476C118.121 43.728 117.78 44.0873 117.528 44.554C117.276 45.0207 117.15 45.562 117.15 46.178C117.15 46.794 117.276 47.3353 117.528 47.802C117.78 48.2687 118.121 48.628 118.55 48.88C118.989 49.132 119.47 49.258 119.992 49.258C120.534 49.258 121.019 49.1367 121.448 48.894C121.878 48.642 122.214 48.2827 122.456 47.816C122.708 47.34 122.834 46.7893 122.834 46.164ZM125.184 46.164C125.184 45.38 125.338 44.694 125.646 44.106C125.963 43.5087 126.397 43.0513 126.948 42.734C127.508 42.4073 128.138 42.244 128.838 42.244C129.566 42.244 130.191 42.412 130.714 42.748C131.246 43.084 131.628 43.5133 131.862 44.036V42.356H132.842V50H131.862V48.306C131.619 48.8287 131.232 49.2627 130.7 49.608C130.177 49.944 129.552 50.112 128.824 50.112C128.133 50.112 127.508 49.9487 126.948 49.622C126.397 49.2953 125.963 48.8333 125.646 48.236C125.338 47.6387 125.184 46.948 125.184 46.164ZM131.862 46.178C131.862 45.562 131.736 45.0207 131.484 44.554C131.232 44.0873 130.886 43.728 130.448 43.476C130.018 43.224 129.542 43.098 129.02 43.098C128.478 43.098 127.993 43.2193 127.564 43.462C127.134 43.7047 126.794 44.0593 126.542 44.526C126.299 44.9833 126.178 45.5293 126.178 46.164C126.178 46.7893 126.299 47.34 126.542 47.816C126.794 48.2827 127.134 48.642 127.564 48.894C127.993 49.1367 128.478 49.258 129.02 49.258C129.542 49.258 130.018 49.132 130.448 48.88C130.886 48.628 131.232 48.2687 131.484 47.802C131.736 47.3353 131.862 46.794 131.862 46.178ZM136.059 39.64V50H135.079V39.64H136.059ZM137.83 46.164C137.83 45.38 137.984 44.694 138.292 44.106C138.61 43.5087 139.044 43.0513 139.594 42.734C140.154 42.4073 140.784 42.244 141.484 42.244C142.212 42.244 142.838 42.412 143.36 42.748C143.892 43.084 144.275 43.5133 144.508 44.036V42.356H145.488V50H144.508V48.306C144.266 48.8287 143.878 49.2627 143.346 49.608C142.824 49.944 142.198 50.112 141.47 50.112C140.78 50.112 140.154 49.9487 139.594 49.622C139.044 49.2953 138.61 48.8333 138.292 48.236C137.984 47.6387 137.83 46.948 137.83 46.164ZM144.508 46.178C144.508 45.562 144.382 45.0207 144.13 44.554C143.878 44.0873 143.533 43.728 143.094 43.476C142.665 43.224 142.189 43.098 141.666 43.098C141.125 43.098 140.64 43.2193 140.21 43.462C139.781 43.7047 139.44 44.0593 139.188 44.526C138.946 44.9833 138.824 45.5293 138.824 46.164C138.824 46.7893 138.946 47.34 139.188 47.816C139.44 48.2827 139.781 48.642 140.21 48.894C140.64 49.1367 141.125 49.258 141.666 49.258C142.189 49.258 142.665 49.132 143.094 48.88C143.533 48.628 143.878 48.2687 144.13 47.802C144.382 47.3353 144.508 46.794 144.508 46.178ZM151.309 42.216C152.224 42.216 152.971 42.5007 153.549 43.07C154.128 43.63 154.417 44.4467 154.417 45.52V50H153.451V45.632C153.451 44.8013 153.241 44.1667 152.821 43.728C152.411 43.2893 151.846 43.07 151.127 43.07C150.39 43.07 149.802 43.3033 149.363 43.77C148.925 44.2367 148.705 44.9227 148.705 45.828V50H147.725V42.356H148.705V43.658C148.948 43.1913 149.298 42.8367 149.755 42.594C150.213 42.342 150.731 42.216 151.309 42.216ZM156.137 46.178C156.137 45.3847 156.296 44.694 156.613 44.106C156.93 43.5087 157.369 43.0513 157.929 42.734C158.489 42.4073 159.128 42.244 159.847 42.244C160.79 42.244 161.564 42.4773 162.171 42.944C162.787 43.4107 163.184 44.0453 163.361 44.848H162.311C162.18 44.2973 161.896 43.868 161.457 43.56C161.028 43.2427 160.491 43.084 159.847 43.084C159.334 43.084 158.872 43.2007 158.461 43.434C158.05 43.6673 157.724 44.0173 157.481 44.484C157.248 44.9413 157.131 45.506 157.131 46.178C157.131 46.85 157.248 47.4193 157.481 47.886C157.724 48.3527 158.05 48.7027 158.461 48.936C158.872 49.1693 159.334 49.286 159.847 49.286C160.491 49.286 161.028 49.132 161.457 48.824C161.896 48.5067 162.18 48.068 162.311 47.508H163.361C163.184 48.292 162.787 48.922 162.171 49.398C161.555 49.874 160.78 50.112 159.847 50.112C159.128 50.112 158.489 49.9533 157.929 49.636C157.369 49.3093 156.93 48.852 156.613 48.264C156.296 47.6667 156.137 46.9713 156.137 46.178ZM172.087 45.786C172.087 46.122 172.077 46.3787 172.059 46.556H165.717C165.745 47.1347 165.885 47.6293 166.137 48.04C166.389 48.4507 166.72 48.7633 167.131 48.978C167.541 49.1833 167.989 49.286 168.475 49.286C169.109 49.286 169.641 49.132 170.071 48.824C170.509 48.516 170.799 48.1007 170.939 47.578H171.975C171.788 48.3247 171.387 48.936 170.771 49.412C170.164 49.8787 169.399 50.112 168.475 50.112C167.756 50.112 167.112 49.9533 166.543 49.636C165.973 49.3093 165.525 48.852 165.199 48.264C164.881 47.6667 164.723 46.9713 164.723 46.178C164.723 45.3847 164.881 44.6893 165.199 44.092C165.516 43.4947 165.959 43.0373 166.529 42.72C167.098 42.4027 167.747 42.244 168.475 42.244C169.203 42.244 169.837 42.4027 170.379 42.72C170.929 43.0373 171.349 43.4667 171.639 44.008C171.937 44.54 172.087 45.1327 172.087 45.786ZM171.093 45.758C171.102 45.1887 170.985 44.7033 170.743 44.302C170.509 43.9007 170.187 43.5973 169.777 43.392C169.366 43.1867 168.918 43.084 168.433 43.084C167.705 43.084 167.084 43.3173 166.571 43.784C166.057 44.2507 165.773 44.9087 165.717 45.758H171.093ZM178.688 44.05C178.94 43.518 179.327 43.084 179.85 42.748C180.382 42.412 181.007 42.244 181.726 42.244C182.426 42.244 183.051 42.4073 183.602 42.734C184.152 43.0513 184.582 43.5087 184.89 44.106C185.207 44.694 185.366 45.38 185.366 46.164C185.366 46.948 185.207 47.6387 184.89 48.236C184.582 48.8333 184.148 49.2953 183.588 49.622C183.037 49.9487 182.416 50.112 181.726 50.112C180.998 50.112 180.368 49.9487 179.836 49.622C179.313 49.286 178.93 48.852 178.688 48.32V50H177.722V39.64H178.688V44.05ZM184.372 46.164C184.372 45.5293 184.246 44.9833 183.994 44.526C183.751 44.0593 183.415 43.7047 182.986 43.462C182.556 43.2193 182.071 43.098 181.53 43.098C181.007 43.098 180.526 43.224 180.088 43.476C179.658 43.728 179.318 44.0873 179.066 44.554C178.814 45.0207 178.688 45.562 178.688 46.178C178.688 46.794 178.814 47.3353 179.066 47.802C179.318 48.2687 179.658 48.628 180.088 48.88C180.526 49.132 181.007 49.258 181.53 49.258C182.071 49.258 182.556 49.1367 182.986 48.894C183.415 48.642 183.751 48.2827 183.994 47.816C184.246 47.34 184.372 46.7893 184.372 46.164ZM194.085 45.786C194.085 46.122 194.075 46.3787 194.057 46.556H187.715C187.743 47.1347 187.883 47.6293 188.135 48.04C188.387 48.4507 188.718 48.7633 189.129 48.978C189.539 49.1833 189.987 49.286 190.473 49.286C191.107 49.286 191.639 49.132 192.069 48.824C192.507 48.516 192.797 48.1007 192.937 47.578H193.973C193.786 48.3247 193.385 48.936 192.769 49.412C192.162 49.8787 191.397 50.112 190.473 50.112C189.754 50.112 189.11 49.9533 188.541 49.636C187.971 49.3093 187.523 48.852 187.197 48.264C186.879 47.6667 186.721 46.9713 186.721 46.178C186.721 45.3847 186.879 44.6893 187.197 44.092C187.514 43.4947 187.957 43.0373 188.527 42.72C189.096 42.4027 189.745 42.244 190.473 42.244C191.201 42.244 191.835 42.4027 192.377 42.72C192.927 43.0373 193.347 43.4667 193.637 44.008C193.935 44.54 194.085 45.1327 194.085 45.786ZM193.091 45.758C193.1 45.1887 192.983 44.7033 192.741 44.302C192.507 43.9007 192.185 43.5973 191.775 43.392C191.364 43.1867 190.916 43.084 190.431 43.084C189.703 43.084 189.082 43.3173 188.569 43.784C188.055 44.2507 187.771 44.9087 187.715 45.758H193.091ZM197.152 43.182V47.928C197.152 48.3947 197.24 48.7167 197.418 48.894C197.595 49.0713 197.908 49.16 198.356 49.16H199.252V50H198.202C197.511 50 196.998 49.8413 196.662 49.524C196.326 49.1973 196.158 48.6653 196.158 47.928V43.182H195.094V42.356H196.158V40.438H197.152V42.356H199.252V43.182H197.152ZM210.948 42.356L208.554 50H207.574L205.46 43.588L203.346 50H202.352L199.958 42.356H200.952L202.856 49.006L204.998 42.356H205.978L208.092 49.02L209.982 42.356H210.948ZM219.2 45.786C219.2 46.122 219.191 46.3787 219.172 46.556H212.83C212.858 47.1347 212.998 47.6293 213.25 48.04C213.502 48.4507 213.833 48.7633 214.244 48.978C214.655 49.1833 215.103 49.286 215.588 49.286C216.223 49.286 216.755 49.132 217.184 48.824C217.623 48.516 217.912 48.1007 218.052 47.578H219.088C218.901 48.3247 218.5 48.936 217.884 49.412C217.277 49.8787 216.512 50.112 215.588 50.112C214.869 50.112 214.225 49.9533 213.656 49.636C213.087 49.3093 212.639 48.852 212.312 48.264C211.995 47.6667 211.836 46.9713 211.836 46.178C211.836 45.3847 211.995 44.6893 212.312 44.092C212.629 43.4947 213.073 43.0373 213.642 42.72C214.211 42.4027 214.86 42.244 215.588 42.244C216.316 42.244 216.951 42.4027 217.492 42.72C218.043 43.0373 218.463 43.4667 218.752 44.008C219.051 44.54 219.2 45.1327 219.2 45.786ZM218.206 45.758C218.215 45.1887 218.099 44.7033 217.856 44.302C217.623 43.9007 217.301 43.5973 216.89 43.392C216.479 43.1867 216.031 43.084 215.546 43.084C214.818 43.084 214.197 43.3173 213.684 43.784C213.171 44.2507 212.886 44.9087 212.83 45.758H218.206ZM227.909 45.786C227.909 46.122 227.9 46.3787 227.881 46.556H221.539C221.567 47.1347 221.707 47.6293 221.959 48.04C222.211 48.4507 222.542 48.7633 222.953 48.978C223.364 49.1833 223.812 49.286 224.297 49.286C224.932 49.286 225.464 49.132 225.893 48.824C226.332 48.516 226.621 48.1007 226.761 47.578H227.797C227.61 48.3247 227.209 48.936 226.593 49.412C225.986 49.8787 225.221 50.112 224.297 50.112C223.578 50.112 222.934 49.9533 222.365 49.636C221.796 49.3093 221.348 48.852 221.021 48.264C220.704 47.6667 220.545 46.9713 220.545 46.178C220.545 45.3847 220.704 44.6893 221.021 44.092C221.338 43.4947 221.782 43.0373 222.351 42.72C222.92 42.4027 223.569 42.244 224.297 42.244C225.025 42.244 225.66 42.4027 226.201 42.72C226.752 43.0373 227.172 43.4667 227.461 44.008C227.76 44.54 227.909 45.1327 227.909 45.786ZM226.915 45.758C226.924 45.1887 226.808 44.7033 226.565 44.302C226.332 43.9007 226.01 43.5973 225.599 43.392C225.188 43.1867 224.74 43.084 224.255 43.084C223.527 43.084 222.906 43.3173 222.393 43.784C221.88 44.2507 221.595 44.9087 221.539 45.758H226.915ZM233.286 42.216C234.201 42.216 234.947 42.5007 235.526 43.07C236.105 43.63 236.394 44.4467 236.394 45.52V50H235.428V45.632C235.428 44.8013 235.218 44.1667 234.798 43.728C234.387 43.2893 233.823 43.07 233.104 43.07C232.367 43.07 231.779 43.3033 231.34 43.77C230.901 44.2367 230.682 44.9227 230.682 45.828V50H229.702V42.356H230.682V43.658C230.925 43.1913 231.275 42.8367 231.732 42.594C232.189 42.342 232.707 42.216 233.286 42.216ZM15.672 67.164C15.672 66.38 15.8307 65.694 16.148 65.106C16.4653 64.5087 16.8993 64.0513 17.45 63.734C18.01 63.4073 18.64 63.244 19.34 63.244C20.012 63.244 20.6187 63.4073 21.16 63.734C21.7013 64.0607 22.098 64.4853 22.35 65.008V60.64H23.33V71H22.35V69.292C22.1167 69.824 21.734 70.2627 21.202 70.608C20.67 70.944 20.0447 71.112 19.326 71.112C18.626 71.112 17.996 70.9487 17.436 70.622C16.8853 70.2953 16.4513 69.8333 16.134 69.236C15.826 68.6387 15.672 67.948 15.672 67.164ZM22.35 67.178C22.35 66.562 22.224 66.0207 21.972 65.554C21.72 65.0873 21.3747 64.728 20.936 64.476C20.5067 64.224 20.0307 64.098 19.508 64.098C18.9667 64.098 18.4813 64.2193 18.052 64.462C17.6227 64.7047 17.282 65.0593 17.03 65.526C16.7873 65.9833 16.666 66.5293 16.666 67.164C16.666 67.7893 16.7873 68.34 17.03 68.816C17.282 69.2827 17.6227 69.642 18.052 69.894C18.4813 70.1367 18.9667 70.258 19.508 70.258C20.0307 70.258 20.5067 70.132 20.936 69.88C21.3747 69.628 21.72 69.2687 21.972 68.802C22.224 68.3353 22.35 67.794 22.35 67.178ZM32.4833 66.786C32.4833 67.122 32.4739 67.3787 32.4553 67.556H26.1133C26.1413 68.1347 26.2813 68.6293 26.5333 69.04C26.7853 69.4507 27.1166 69.7633 27.5273 69.978C27.9379 70.1833 28.3859 70.286 28.8713 70.286C29.5059 70.286 30.0379 70.132 30.4673 69.824C30.9059 69.516 31.1953 69.1007 31.3353 68.578H32.3713C32.1846 69.3247 31.7833 69.936 31.1673 70.412C30.5606 70.8787 29.7953 71.112 28.8713 71.112C28.1526 71.112 27.5086 70.9533 26.9393 70.636C26.3699 70.3093 25.9219 69.852 25.5953 69.264C25.2779 68.6667 25.1193 67.9713 25.1193 67.178C25.1193 66.3847 25.2779 65.6893 25.5953 65.092C25.9126 64.4947 26.3559 64.0373 26.9253 63.72C27.4946 63.4027 28.1433 63.244 28.8713 63.244C29.5993 63.244 30.2339 63.4027 30.7753 63.72C31.3259 64.0373 31.7459 64.4667 32.0353 65.008C32.3339 65.54 32.4833 66.1327 32.4833 66.786ZM31.4893 66.758C31.4986 66.1887 31.3819 65.7033 31.1393 65.302C30.9059 64.9007 30.5839 64.5973 30.1733 64.392C29.7626 64.1867 29.3146 64.084 28.8293 64.084C28.1013 64.084 27.4806 64.3173 26.9673 64.784C26.4539 65.2507 26.1693 65.9087 26.1133 66.758H31.4893ZM35.5503 64.182V68.928C35.5503 69.3947 35.6389 69.7167 35.8163 69.894C35.9936 70.0713 36.3063 70.16 36.7542 70.16H37.6503V71H36.6003C35.9096 71 35.3963 70.8413 35.0603 70.524C34.7243 70.1973 34.5563 69.6653 34.5563 68.928V64.182H33.4923V63.356H34.5563V61.438H35.5503V63.356H37.6503V64.182H35.5503ZM38.8185 67.164C38.8185 66.38 38.9725 65.694 39.2805 65.106C39.5978 64.5087 40.0318 64.0513 40.5825 63.734C41.1425 63.4073 41.7725 63.244 42.4725 63.244C43.2005 63.244 43.8258 63.412 44.3485 63.748C44.8805 64.084 45.2632 64.5133 45.4965 65.036V63.356H46.4765V71H45.4965V69.306C45.2538 69.8287 44.8665 70.2627 44.3345 70.608C43.8118 70.944 43.1865 71.112 42.4585 71.112C41.7678 71.112 41.1425 70.9487 40.5825 70.622C40.0318 70.2953 39.5978 69.8333 39.2805 69.236C38.9725 68.6387 38.8185 67.948 38.8185 67.164ZM45.4965 67.178C45.4965 66.562 45.3705 66.0207 45.1185 65.554C44.8665 65.0873 44.5212 64.728 44.0825 64.476C43.6532 64.224 43.1772 64.098 42.6545 64.098C42.1132 64.098 41.6278 64.2193 41.1985 64.462C40.7692 64.7047 40.4285 65.0593 40.1765 65.526C39.9338 65.9833 39.8125 66.5293 39.8125 67.164C39.8125 67.7893 39.9338 68.34 40.1765 68.816C40.4285 69.2827 40.7692 69.642 41.1985 69.894C41.6278 70.1367 42.1132 70.258 42.6545 70.258C43.1772 70.258 43.6532 70.132 44.0825 69.88C44.5212 69.628 44.8665 69.2687 45.1185 68.802C45.3705 68.3353 45.4965 67.794 45.4965 67.178ZM49.2038 61.914C49.0078 61.914 48.8398 61.844 48.6998 61.704C48.5598 61.564 48.4898 61.3913 48.4898 61.186C48.4898 60.9807 48.5598 60.8127 48.6998 60.682C48.8398 60.542 49.0078 60.472 49.2038 60.472C49.3998 60.472 49.5678 60.542 49.7078 60.682C49.8478 60.8127 49.9178 60.9807 49.9178 61.186C49.9178 61.3913 49.8478 61.564 49.7078 61.704C49.5678 61.844 49.3998 61.914 49.2038 61.914ZM49.6938 63.356V71H48.7138V63.356H49.6938ZM52.893 60.64V71H51.913V60.64H52.893ZM58.506 67.164C58.506 66.38 58.66 65.694 58.968 65.106C59.2853 64.5087 59.7193 64.0513 60.27 63.734C60.83 63.4073 61.46 63.244 62.16 63.244C62.888 63.244 63.5133 63.412 64.036 63.748C64.568 64.084 64.9507 64.5133 65.184 65.036V63.356H66.164V71H65.184V69.306C64.9413 69.8287 64.554 70.2627 64.022 70.608C63.4993 70.944 62.874 71.112 62.146 71.112C61.4553 71.112 60.83 70.9487 60.27 70.622C59.7193 70.2953 59.2853 69.8333 58.968 69.236C58.66 68.6387 58.506 67.948 58.506 67.164ZM65.184 67.178C65.184 66.562 65.058 66.0207 64.806 65.554C64.554 65.0873 64.2087 64.728 63.77 64.476C63.3407 64.224 62.8647 64.098 62.342 64.098C61.8007 64.098 61.3153 64.2193 60.886 64.462C60.4567 64.7047 60.116 65.0593 59.864 65.526C59.6213 65.9833 59.5 66.5293 59.5 67.164C59.5 67.7893 59.6213 68.34 59.864 68.816C60.116 69.2827 60.4567 69.642 60.886 69.894C61.3153 70.1367 61.8007 70.258 62.342 70.258C62.8647 70.258 63.3407 70.132 63.77 69.88C64.2087 69.628 64.554 69.2687 64.806 68.802C65.058 68.3353 65.184 67.794 65.184 67.178ZM71.9853 63.216C72.8999 63.216 73.6466 63.5007 74.2253 64.07C74.8039 64.63 75.0933 65.4467 75.0933 66.52V71H74.1273V66.632C74.1273 65.8013 73.9173 65.1667 73.4973 64.728C73.0866 64.2893 72.5219 64.07 71.8033 64.07C71.0659 64.07 70.4779 64.3033 70.0393 64.77C69.6006 65.2367 69.3813 65.9227 69.3813 66.828V71H68.4013V63.356H69.3813V64.658C69.6239 64.1913 69.9739 63.8367 70.4313 63.594C70.8886 63.342 71.4066 63.216 71.9853 63.216ZM76.8126 67.164C76.8126 66.38 76.9713 65.694 77.2886 65.106C77.606 64.5087 78.04 64.0513 78.5906 63.734C79.1506 63.4073 79.7806 63.244 80.4806 63.244C81.1526 63.244 81.7593 63.4073 82.3006 63.734C82.842 64.0607 83.2386 64.4853 83.4906 65.008V60.64H84.4706V71H83.4906V69.292C83.2573 69.824 82.8746 70.2627 82.3426 70.608C81.8106 70.944 81.1853 71.112 80.4666 71.112C79.7666 71.112 79.1366 70.9487 78.5766 70.622C78.026 70.2953 77.592 69.8333 77.2746 69.236C76.9666 68.6387 76.8126 67.948 76.8126 67.164ZM83.4906 67.178C83.4906 66.562 83.3646 66.0207 83.1126 65.554C82.8606 65.0873 82.5153 64.728 82.0766 64.476C81.6473 64.224 81.1713 64.098 80.6486 64.098C80.1073 64.098 79.622 64.2193 79.1926 64.462C78.7633 64.7047 78.4226 65.0593 78.1706 65.526C77.928 65.9833 77.8066 66.5293 77.8066 67.164C77.8066 67.7893 77.928 68.34 78.1706 68.816C78.4226 69.2827 78.7633 69.642 79.1926 69.894C79.622 70.1367 80.1073 70.258 80.6486 70.258C81.1713 70.258 81.6473 70.132 82.0766 69.88C82.5153 69.628 82.8606 69.2687 83.1126 68.802C83.3646 68.3353 83.4906 67.794 83.4906 67.178ZM90.1017 67.178C90.1017 66.3847 90.2604 65.694 90.5777 65.106C90.895 64.5087 91.3337 64.0513 91.8937 63.734C92.4537 63.4073 93.093 63.244 93.8117 63.244C94.7544 63.244 95.529 63.4773 96.1357 63.944C96.7517 64.4107 97.1484 65.0453 97.3257 65.848H96.2757C96.145 65.2973 95.8604 64.868 95.4217 64.56C94.9924 64.2427 94.4557 64.084 93.8117 64.084C93.2984 64.084 92.8364 64.2007 92.4257 64.434C92.015 64.6673 91.6884 65.0173 91.4457 65.484C91.2124 65.9413 91.0957 66.506 91.0957 67.178C91.0957 67.85 91.2124 68.4193 91.4457 68.886C91.6884 69.3527 92.015 69.7027 92.4257 69.936C92.8364 70.1693 93.2984 70.286 93.8117 70.286C94.4557 70.286 94.9924 70.132 95.4217 69.824C95.8604 69.5067 96.145 69.068 96.2757 68.508H97.3257C97.1484 69.292 96.7517 69.922 96.1357 70.398C95.5197 70.874 94.745 71.112 93.8117 71.112C93.093 71.112 92.4537 70.9533 91.8937 70.636C91.3337 70.3093 90.895 69.852 90.5777 69.264C90.2604 68.6667 90.1017 67.9713 90.1017 67.178ZM102.482 71.112C101.763 71.112 101.114 70.9533 100.536 70.636C99.9663 70.3093 99.5136 69.852 99.1776 69.264C98.851 68.6667 98.6876 67.9713 98.6876 67.178C98.6876 66.3847 98.8556 65.694 99.1916 65.106C99.5276 64.5087 99.985 64.0513 100.564 63.734C101.142 63.4073 101.791 63.244 102.51 63.244C103.228 63.244 103.877 63.4073 104.456 63.734C105.044 64.0513 105.501 64.5087 105.828 65.106C106.164 65.694 106.332 66.3847 106.332 67.178C106.332 67.962 106.164 68.6527 105.828 69.25C105.492 69.8473 105.03 70.3093 104.442 70.636C103.854 70.9533 103.2 71.112 102.482 71.112ZM102.482 70.258C102.986 70.258 103.452 70.146 103.882 69.922C104.311 69.6887 104.656 69.3433 104.918 68.886C105.188 68.4193 105.324 67.85 105.324 67.178C105.324 66.506 105.193 65.9413 104.932 65.484C104.67 65.0173 104.325 64.672 103.896 64.448C103.466 64.2147 103 64.098 102.496 64.098C101.992 64.098 101.525 64.2147 101.096 64.448C100.666 64.672 100.321 65.0173 100.06 65.484C99.8076 65.9413 99.6816 66.506 99.6816 67.178C99.6816 67.85 99.8076 68.4193 100.06 68.886C100.321 69.3433 100.662 69.6887 101.082 69.922C101.511 70.146 101.978 70.258 102.482 70.258ZM111.702 63.216C112.617 63.216 113.363 63.5007 113.942 64.07C114.521 64.63 114.81 65.4467 114.81 66.52V71H113.844V66.632C113.844 65.8013 113.634 65.1667 113.214 64.728C112.803 64.2893 112.239 64.07 111.52 64.07C110.783 64.07 110.195 64.3033 109.756 64.77C109.317 65.2367 109.098 65.9227 109.098 66.828V71H108.118V63.356H109.098V64.658C109.341 64.1913 109.691 63.8367 110.148 63.594C110.605 63.342 111.123 63.216 111.702 63.216ZM119.609 71.112C118.732 71.112 118.013 70.9113 117.453 70.51C116.903 70.0993 116.595 69.544 116.529 68.844H117.537C117.584 69.2733 117.785 69.6233 118.139 69.894C118.503 70.1553 118.989 70.286 119.595 70.286C120.127 70.286 120.543 70.16 120.841 69.908C121.149 69.656 121.303 69.3433 121.303 68.97C121.303 68.7087 121.219 68.494 121.051 68.326C120.883 68.158 120.669 68.0273 120.407 67.934C120.155 67.8313 119.81 67.724 119.371 67.612C118.802 67.4627 118.34 67.3133 117.985 67.164C117.631 67.0147 117.327 66.7953 117.075 66.506C116.833 66.2073 116.711 65.8107 116.711 65.316C116.711 64.9427 116.823 64.5973 117.047 64.28C117.271 63.9627 117.589 63.7107 117.999 63.524C118.41 63.3373 118.877 63.244 119.399 63.244C120.221 63.244 120.883 63.454 121.387 63.874C121.891 64.2847 122.162 64.854 122.199 65.582H121.219C121.191 65.134 121.014 64.7747 120.687 64.504C120.37 64.224 119.931 64.084 119.371 64.084C118.877 64.084 118.475 64.2007 118.167 64.434C117.859 64.6673 117.705 64.9567 117.705 65.302C117.705 65.6007 117.794 65.848 117.971 66.044C118.158 66.2307 118.387 66.38 118.657 66.492C118.928 66.5947 119.292 66.7113 119.749 66.842C120.3 66.9913 120.739 67.136 121.065 67.276C121.392 67.416 121.672 67.6213 121.905 67.892C122.139 68.1627 122.26 68.522 122.269 68.97C122.269 69.3807 122.157 69.7493 121.933 70.076C121.709 70.3933 121.397 70.6453 120.995 70.832C120.594 71.0187 120.132 71.112 119.609 71.112ZM130.736 63.356V71H129.756V69.656C129.532 70.132 129.187 70.496 128.72 70.748C128.253 71 127.731 71.126 127.152 71.126C126.237 71.126 125.491 70.846 124.912 70.286C124.333 69.7167 124.044 68.8953 124.044 67.822V63.356H125.01V67.71C125.01 68.5407 125.215 69.1753 125.626 69.614C126.046 70.0527 126.615 70.272 127.334 70.272C128.071 70.272 128.659 70.0387 129.098 69.572C129.537 69.1053 129.756 68.4193 129.756 67.514V63.356H130.736ZM142.074 63.216C142.97 63.216 143.698 63.5007 144.258 64.07C144.827 64.63 145.112 65.4467 145.112 66.52V71H144.146V66.632C144.146 65.8013 143.945 65.1667 143.544 64.728C143.142 64.2893 142.596 64.07 141.906 64.07C141.187 64.07 140.613 64.308 140.184 64.784C139.754 65.26 139.54 65.9507 139.54 66.856V71H138.574V66.632C138.574 65.8013 138.373 65.1667 137.972 64.728C137.57 64.2893 137.02 64.07 136.32 64.07C135.601 64.07 135.027 64.308 134.598 64.784C134.168 65.26 133.954 65.9507 133.954 66.856V71H132.974V63.356H133.954V64.672C134.196 64.196 134.542 63.8367 134.99 63.594C135.438 63.342 135.937 63.216 136.488 63.216C137.15 63.216 137.729 63.3747 138.224 63.692C138.728 64.0093 139.092 64.476 139.316 65.092C139.521 64.4853 139.871 64.0233 140.366 63.706C140.87 63.3793 141.439 63.216 142.074 63.216ZM146.84 67.164C146.84 66.38 146.994 65.694 147.302 65.106C147.619 64.5087 148.053 64.0513 148.604 63.734C149.164 63.4073 149.794 63.244 150.494 63.244C151.222 63.244 151.847 63.412 152.37 63.748C152.902 64.084 153.285 64.5133 153.518 65.036V63.356H154.498V71H153.518V69.306C153.275 69.8287 152.888 70.2627 152.356 70.608C151.833 70.944 151.208 71.112 150.48 71.112C149.789 71.112 149.164 70.9487 148.604 70.622C148.053 70.2953 147.619 69.8333 147.302 69.236C146.994 68.6387 146.84 67.948 146.84 67.164ZM153.518 67.178C153.518 66.562 153.392 66.0207 153.14 65.554C152.888 65.0873 152.543 64.728 152.104 64.476C151.675 64.224 151.199 64.098 150.676 64.098C150.135 64.098 149.649 64.2193 149.22 64.462C148.791 64.7047 148.45 65.0593 148.198 65.526C147.955 65.9833 147.834 66.5293 147.834 67.164C147.834 67.7893 147.955 68.34 148.198 68.816C148.45 69.2827 148.791 69.642 149.22 69.894C149.649 70.1367 150.135 70.258 150.676 70.258C151.199 70.258 151.675 70.132 152.104 69.88C152.543 69.628 152.888 69.2687 153.14 68.802C153.392 68.3353 153.518 67.794 153.518 67.178ZM157.701 65.05C157.953 64.518 158.341 64.084 158.863 63.748C159.395 63.412 160.021 63.244 160.739 63.244C161.439 63.244 162.065 63.4073 162.615 63.734C163.166 64.0513 163.595 64.5087 163.903 65.106C164.221 65.694 164.379 66.38 164.379 67.164C164.379 67.948 164.221 68.6387 163.903 69.236C163.595 69.8333 163.161 70.2953 162.601 70.622C162.051 70.9487 161.43 71.112 160.739 71.112C160.011 71.112 159.381 70.9487 158.849 70.622C158.327 70.286 157.944 69.852 157.701 69.32V71H156.735V60.64H157.701V65.05ZM163.385 67.164C163.385 66.5293 163.259 65.9833 163.007 65.526C162.765 65.0593 162.429 64.7047 161.999 64.462C161.57 64.2193 161.085 64.098 160.543 64.098C160.021 64.098 159.54 64.224 159.101 64.476C158.672 64.728 158.331 65.0873 158.079 65.554C157.827 66.0207 157.701 66.562 157.701 67.178C157.701 67.794 157.827 68.3353 158.079 68.802C158.331 69.2687 158.672 69.628 159.101 69.88C159.54 70.132 160.021 70.258 160.543 70.258C161.085 70.258 161.57 70.1367 161.999 69.894C162.429 69.642 162.765 69.2827 163.007 68.816C163.259 68.34 163.385 67.7893 163.385 67.164ZM167.163 60.64V71H166.183V60.64H167.163ZM176.298 66.786C176.298 67.122 176.288 67.3787 176.27 67.556H169.928C169.956 68.1347 170.096 68.6293 170.348 69.04C170.6 69.4507 170.931 69.7633 171.342 69.978C171.752 70.1833 172.2 70.286 172.686 70.286C173.32 70.286 173.852 70.132 174.282 69.824C174.72 69.516 175.01 69.1007 175.15 68.578H176.186C175.999 69.3247 175.598 69.936 174.982 70.412C174.375 70.8787 173.61 71.112 172.686 71.112C171.967 71.112 171.323 70.9533 170.754 70.636C170.184 70.3093 169.736 69.852 169.41 69.264C169.092 68.6667 168.934 67.9713 168.934 67.178C168.934 66.3847 169.092 65.6893 169.41 65.092C169.727 64.4947 170.17 64.0373 170.74 63.72C171.309 63.4027 171.958 63.244 172.686 63.244C173.414 63.244 174.048 63.4027 174.59 63.72C175.14 64.0373 175.56 64.4667 175.85 65.008C176.148 65.54 176.298 66.1327 176.298 66.786ZM175.304 66.758C175.313 66.1887 175.196 65.7033 174.954 65.302C174.72 64.9007 174.398 64.5973 173.988 64.392C173.577 64.1867 173.129 64.084 172.644 64.084C171.916 64.084 171.295 64.3173 170.782 64.784C170.268 65.2507 169.984 65.9087 169.928 66.758H175.304ZM178.259 71.07C178.053 71.07 177.881 71 177.741 70.86C177.61 70.72 177.545 70.5473 177.545 70.342C177.545 70.1367 177.61 69.9687 177.741 69.838C177.881 69.698 178.053 69.628 178.259 69.628C178.455 69.628 178.618 69.698 178.749 69.838C178.889 69.9687 178.959 70.1367 178.959 70.342C178.959 70.5473 178.889 70.72 178.749 70.86C178.618 71 178.455 71.07 178.259 71.07ZM190.201 61.214V62.026H187.485V71H186.505V62.026H183.775V61.214H190.201ZM201.829 63.356L199.435 71H198.455L196.341 64.588L194.227 71H193.233L190.839 63.356H191.833L193.737 70.006L195.879 63.356H196.859L198.973 70.02L200.863 63.356H201.829ZM206.511 71.112C205.792 71.112 205.144 70.9533 204.565 70.636C203.996 70.3093 203.543 69.852 203.207 69.264C202.88 68.6667 202.717 67.9713 202.717 67.178C202.717 66.3847 202.885 65.694 203.221 65.106C203.557 64.5087 204.014 64.0513 204.593 63.734C205.172 63.4073 205.82 63.244 206.539 63.244C207.258 63.244 207.906 63.4073 208.485 63.734C209.073 64.0513 209.53 64.5087 209.857 65.106C210.193 65.694 210.361 66.3847 210.361 67.178C210.361 67.962 210.193 68.6527 209.857 69.25C209.521 69.8473 209.059 70.3093 208.471 70.636C207.883 70.9533 207.23 71.112 206.511 71.112ZM206.511 70.258C207.015 70.258 207.482 70.146 207.911 69.922C208.34 69.6887 208.686 69.3433 208.947 68.886C209.218 68.4193 209.353 67.85 209.353 67.178C209.353 66.506 209.222 65.9413 208.961 65.484C208.7 65.0173 208.354 64.672 207.925 64.448C207.496 64.2147 207.029 64.098 206.525 64.098C206.021 64.098 205.554 64.2147 205.125 64.448C204.696 64.672 204.35 65.0173 204.089 65.484C203.837 65.9413 203.711 66.506 203.711 67.178C203.711 67.85 203.837 68.4193 204.089 68.886C204.35 69.3433 204.691 69.6887 205.111 69.922C205.54 70.146 206.007 70.258 206.511 70.258ZM17.086 86.036C17.3287 85.5227 17.7113 85.098 18.234 84.762C18.766 84.4167 19.396 84.244 20.124 84.244C20.8147 84.244 21.4353 84.4073 21.986 84.734C22.546 85.0513 22.98 85.5087 23.288 86.106C23.6053 86.694 23.764 87.38 23.764 88.164C23.764 88.948 23.6053 89.6387 23.288 90.236C22.98 90.8333 22.546 91.2953 21.986 91.622C21.4353 91.9487 20.8147 92.112 20.124 92.112C19.4053 92.112 18.78 91.944 18.248 91.608C17.716 91.2627 17.3287 90.8333 17.086 90.32V95.612H16.12V84.356H17.086V86.036ZM22.77 88.164C22.77 87.5293 22.644 86.9833 22.392 86.526C22.1493 86.0593 21.8133 85.7047 21.384 85.462C20.9547 85.2193 20.4693 85.098 19.928 85.098C19.4053 85.098 18.9247 85.224 18.486 85.476C18.0567 85.728 17.716 86.0873 17.464 86.554C17.212 87.0207 17.086 87.562 17.086 88.178C17.086 88.794 17.212 89.3353 17.464 89.802C17.716 90.2687 18.0567 90.628 18.486 90.88C18.9247 91.132 19.4053 91.258 19.928 91.258C20.4693 91.258 20.9547 91.1367 21.384 90.894C21.8133 90.642 22.1493 90.2827 22.392 89.816C22.644 89.34 22.77 88.7893 22.77 88.164ZM25.1193 88.164C25.1193 87.38 25.2733 86.694 25.5813 86.106C25.8986 85.5087 26.3326 85.0513 26.8833 84.734C27.4433 84.4073 28.0733 84.244 28.7733 84.244C29.5013 84.244 30.1266 84.412 30.6493 84.748C31.1813 85.084 31.5639 85.5133 31.7973 86.036V84.356H32.7773V92H31.7973V90.306C31.5546 90.8287 31.1673 91.2627 30.6353 91.608C30.1126 91.944 29.4873 92.112 28.7593 92.112C28.0686 92.112 27.4433 91.9487 26.8833 91.622C26.3326 91.2953 25.8986 90.8333 25.5813 90.236C25.2733 89.6387 25.1193 88.948 25.1193 88.164ZM31.7973 88.178C31.7973 87.562 31.6713 87.0207 31.4193 86.554C31.1673 86.0873 30.8219 85.728 30.3833 85.476C29.9539 85.224 29.4779 85.098 28.9553 85.098C28.4139 85.098 27.9286 85.2193 27.4993 85.462C27.0699 85.7047 26.7293 86.0593 26.4773 86.526C26.2346 86.9833 26.1133 87.5293 26.1133 88.164C26.1133 88.7893 26.2346 89.34 26.4773 89.816C26.7293 90.2827 27.0699 90.642 27.4993 90.894C27.9286 91.1367 28.4139 91.258 28.9553 91.258C29.4779 91.258 29.9539 91.132 30.3833 90.88C30.8219 90.628 31.1673 90.2687 31.4193 89.802C31.6713 89.3353 31.7973 88.794 31.7973 88.178ZM38.2205 84.244C38.9392 84.244 39.5645 84.412 40.0965 84.748C40.6285 85.084 41.0112 85.5087 41.2445 86.022V84.356H42.2245V92.196C42.2245 92.896 42.0705 93.5167 41.7625 94.058C41.4639 94.5993 41.0439 95.0147 40.5025 95.304C39.9612 95.6027 39.3452 95.752 38.6545 95.752C37.6745 95.752 36.8579 95.5187 36.2045 95.052C35.5605 94.5853 35.1592 93.9507 35.0005 93.148H35.9665C36.1345 93.68 36.4519 94.1047 36.9185 94.422C37.3945 94.7393 37.9732 94.898 38.6545 94.898C39.1492 94.898 39.5925 94.7907 39.9845 94.576C40.3765 94.3707 40.6845 94.0627 40.9085 93.652C41.1325 93.2413 41.2445 92.756 41.2445 92.196V90.306C41.0019 90.8287 40.6145 91.2627 40.0825 91.608C39.5599 91.944 38.9392 92.112 38.2205 92.112C37.5205 92.112 36.8905 91.9487 36.3305 91.622C35.7799 91.2953 35.3459 90.8333 35.0285 90.236C34.7205 89.6387 34.5665 88.948 34.5665 88.164C34.5665 87.38 34.7205 86.694 35.0285 86.106C35.3459 85.5087 35.7799 85.0513 36.3305 84.734C36.8905 84.4073 37.5205 84.244 38.2205 84.244ZM41.2445 88.178C41.2445 87.562 41.1185 87.0207 40.8665 86.554C40.6145 86.0873 40.2692 85.728 39.8305 85.476C39.4012 85.224 38.9252 85.098 38.4025 85.098C37.8612 85.098 37.3759 85.2193 36.9465 85.462C36.5172 85.7047 36.1765 86.0593 35.9245 86.526C35.6819 86.9833 35.5605 87.5293 35.5605 88.164C35.5605 88.7893 35.6819 89.34 35.9245 89.816C36.1765 90.2827 36.5172 90.642 36.9465 90.894C37.3759 91.1367 37.8612 91.258 38.4025 91.258C38.9252 91.258 39.4012 91.132 39.8305 90.88C40.2692 90.628 40.6145 90.2687 40.8665 89.802C41.1185 89.3353 41.2445 88.794 41.2445 88.178ZM51.3778 87.786C51.3778 88.122 51.3685 88.3787 51.3498 88.556H45.0078C45.0358 89.1347 45.1758 89.6293 45.4278 90.04C45.6798 90.4507 46.0111 90.7633 46.4218 90.978C46.8325 91.1833 47.2805 91.286 47.7658 91.286C48.4005 91.286 48.9325 91.132 49.3618 90.824C49.8005 90.516 50.0898 90.1007 50.2298 89.578H51.2658C51.0791 90.3247 50.6778 90.936 50.0618 91.412C49.4551 91.8787 48.6898 92.112 47.7658 92.112C47.0471 92.112 46.4031 91.9533 45.8338 91.636C45.2645 91.3093 44.8165 90.852 44.4898 90.264C44.1725 89.6667 44.0138 88.9713 44.0138 88.178C44.0138 87.3847 44.1725 86.6893 44.4898 86.092C44.8071 85.4947 45.2505 85.0373 45.8198 84.72C46.3891 84.4027 47.0378 84.244 47.7658 84.244C48.4938 84.244 49.1285 84.4027 49.6698 84.72C50.2205 85.0373 50.6405 85.4667 50.9298 86.008C51.2285 86.54 51.3778 87.1327 51.3778 87.786ZM50.3838 87.758C50.3931 87.1887 50.2765 86.7033 50.0338 86.302C49.8005 85.9007 49.4785 85.5973 49.0678 85.392C48.6571 85.1867 48.2091 85.084 47.7238 85.084C46.9958 85.084 46.3751 85.3173 45.8618 85.784C45.3485 86.2507 45.0638 86.9087 45.0078 87.758H50.3838ZM55.8028 92.112C54.9254 92.112 54.2068 91.9113 53.6468 91.51C53.0961 91.0993 52.7881 90.544 52.7228 89.844H53.7308C53.7774 90.2733 53.9781 90.6233 54.3328 90.894C54.6968 91.1553 55.1821 91.286 55.7888 91.286C56.3208 91.286 56.7361 91.16 57.0348 90.908C57.3428 90.656 57.4968 90.3433 57.4968 89.97C57.4968 89.7087 57.4128 89.494 57.2448 89.326C57.0768 89.158 56.8621 89.0273 56.6008 88.934C56.3488 88.8313 56.0034 88.724 55.5648 88.612C54.9954 88.4627 54.5334 88.3133 54.1788 88.164C53.8241 88.0147 53.5208 87.7953 53.2688 87.506C53.0261 87.2073 52.9048 86.8107 52.9048 86.316C52.9048 85.9427 53.0168 85.5973 53.2408 85.28C53.4648 84.9627 53.7821 84.7107 54.1928 84.524C54.6034 84.3373 55.0701 84.244 55.5928 84.244C56.4141 84.244 57.0768 84.454 57.5808 84.874C58.0848 85.2847 58.3554 85.854 58.3928 86.582H57.4128C57.3848 86.134 57.2074 85.7747 56.8808 85.504C56.5634 85.224 56.1248 85.084 55.5648 85.084C55.0701 85.084 54.6688 85.2007 54.3608 85.434C54.0528 85.6673 53.8988 85.9567 53.8988 86.302C53.8988 86.6007 53.9874 86.848 54.1648 87.044C54.3514 87.2307 54.5801 87.38 54.8508 87.492C55.1214 87.5947 55.4854 87.7113 55.9428 87.842C56.4934 87.9913 56.9321 88.136 57.2588 88.276C57.5854 88.416 57.8654 88.6213 58.0988 88.892C58.3321 89.1627 58.4534 89.522 58.4628 89.97C58.4628 90.3807 58.3508 90.7493 58.1268 91.076C57.9028 91.3933 57.5901 91.6453 57.1888 91.832C56.7874 92.0187 56.3254 92.112 55.8028 92.112ZM67.4953 92.112C66.7766 92.112 66.128 91.9533 65.5493 91.636C64.98 91.3093 64.5273 90.852 64.1913 90.264C63.8646 89.6667 63.7013 88.9713 63.7013 88.178C63.7013 87.3847 63.8693 86.694 64.2053 86.106C64.5413 85.5087 64.9986 85.0513 65.5773 84.734C66.156 84.4073 66.8046 84.244 67.5233 84.244C68.242 84.244 68.8906 84.4073 69.4693 84.734C70.0573 85.0513 70.5146 85.5087 70.8413 86.106C71.1773 86.694 71.3453 87.3847 71.3453 88.178C71.3453 88.962 71.1773 89.6527 70.8413 90.25C70.5053 90.8473 70.0433 91.3093 69.4553 91.636C68.8673 91.9533 68.214 92.112 67.4953 92.112ZM67.4953 91.258C67.9993 91.258 68.466 91.146 68.8953 90.922C69.3246 90.6887 69.67 90.3433 69.9313 89.886C70.202 89.4193 70.3373 88.85 70.3373 88.178C70.3373 87.506 70.2066 86.9413 69.9453 86.484C69.684 86.0173 69.3386 85.672 68.9093 85.448C68.48 85.2147 68.0133 85.098 67.5093 85.098C67.0053 85.098 66.5386 85.2147 66.1093 85.448C65.68 85.672 65.3346 86.0173 65.0733 86.484C64.8213 86.9413 64.6953 87.506 64.6953 88.178C64.6953 88.85 64.8213 89.4193 65.0733 89.886C65.3346 90.3433 65.6753 90.6887 66.0953 90.922C66.5246 91.146 66.9913 91.258 67.4953 91.258ZM76.1417 85.182H74.3637V92H73.3837V85.182H72.3197V84.356H73.3837V83.824C73.3837 82.9933 73.5937 82.382 74.0137 81.99C74.4431 81.598 75.1337 81.402 76.0857 81.402V82.242C75.4511 82.242 75.0031 82.3633 74.7417 82.606C74.4897 82.8487 74.3637 83.2547 74.3637 83.824V84.356H76.1417V85.182ZM84.1583 92.112C83.2809 92.112 82.5623 91.9113 82.0023 91.51C81.4516 91.0993 81.1436 90.544 81.0783 89.844H82.0863C82.1329 90.2733 82.3336 90.6233 82.6883 90.894C83.0523 91.1553 83.5376 91.286 84.1443 91.286C84.6763 91.286 85.0916 91.16 85.3903 90.908C85.6983 90.656 85.8523 90.3433 85.8523 89.97C85.8523 89.7087 85.7683 89.494 85.6003 89.326C85.4323 89.158 85.2176 89.0273 84.9563 88.934C84.7043 88.8313 84.3589 88.724 83.9203 88.612C83.3509 88.4627 82.8889 88.3133 82.5343 88.164C82.1796 88.0147 81.8763 87.7953 81.6243 87.506C81.3816 87.2073 81.2603 86.8107 81.2603 86.316C81.2603 85.9427 81.3723 85.5973 81.5963 85.28C81.8203 84.9627 82.1376 84.7107 82.5483 84.524C82.9589 84.3373 83.4256 84.244 83.9483 84.244C84.7696 84.244 85.4323 84.454 85.9363 84.874C86.4403 85.2847 86.7109 85.854 86.7483 86.582H85.7683C85.7403 86.134 85.5629 85.7747 85.2363 85.504C84.9189 85.224 84.4803 85.084 83.9203 85.084C83.4256 85.084 83.0243 85.2007 82.7163 85.434C82.4083 85.6673 82.2542 85.9567 82.2542 86.302C82.2542 86.6007 82.3429 86.848 82.5203 87.044C82.7069 87.2307 82.9356 87.38 83.2063 87.492C83.4769 87.5947 83.8409 87.7113 84.2983 87.842C84.8489 87.9913 85.2876 88.136 85.6143 88.276C85.9409 88.416 86.2209 88.6213 86.4543 88.892C86.6876 89.1627 86.8089 89.522 86.8183 89.97C86.8183 90.3807 86.7063 90.7493 86.4823 91.076C86.2583 91.3933 85.9456 91.6453 85.5443 91.832C85.1429 92.0187 84.6809 92.112 84.1583 92.112ZM89.153 82.914C88.957 82.914 88.789 82.844 88.649 82.704C88.509 82.564 88.439 82.3913 88.439 82.186C88.439 81.9807 88.509 81.8127 88.649 81.682C88.789 81.542 88.957 81.472 89.153 81.472C89.349 81.472 89.517 81.542 89.657 81.682C89.797 81.8127 89.867 81.9807 89.867 82.186C89.867 82.3913 89.797 82.564 89.657 82.704C89.517 82.844 89.349 82.914 89.153 82.914ZM89.643 84.356V92H88.663V84.356H89.643ZM92.3802 91.188H96.3842V92H91.2602V91.188L95.1942 85.168H91.3302V84.356H96.3142V85.168L92.3802 91.188ZM104.958 87.786C104.958 88.122 104.949 88.3787 104.93 88.556H98.5879C98.6159 89.1347 98.7559 89.6293 99.0079 90.04C99.2599 90.4507 99.5912 90.7633 100.002 90.978C100.413 91.1833 100.861 91.286 101.346 91.286C101.981 91.286 102.513 91.132 102.942 90.824C103.381 90.516 103.67 90.1007 103.81 89.578H104.846C104.659 90.3247 104.258 90.936 103.642 91.412C103.035 91.8787 102.27 92.112 101.346 92.112C100.627 92.112 99.9832 91.9533 99.4139 91.636C98.8445 91.3093 98.3965 90.852 98.0699 90.264C97.7525 89.6667 97.5939 88.9713 97.5939 88.178C97.5939 87.3847 97.7525 86.6893 98.0699 86.092C98.3872 85.4947 98.8305 85.0373 99.3999 84.72C99.9692 84.4027 100.618 84.244 101.346 84.244C102.074 84.244 102.709 84.4027 103.25 84.72C103.801 85.0373 104.221 85.4667 104.51 86.008C104.809 86.54 104.958 87.1327 104.958 87.786ZM103.964 87.758C103.973 87.1887 103.857 86.7033 103.614 86.302C103.381 85.9007 103.059 85.5973 102.648 85.392C102.237 85.1867 101.789 85.084 101.304 85.084C100.576 85.084 99.9552 85.3173 99.4419 85.784C98.9285 86.2507 98.6439 86.9087 98.5879 87.758H103.964ZM109.907 82.844V81.962H112.287V92H111.293V82.844H109.907ZM114.275 91.23C115.992 89.942 117.317 88.7893 118.251 87.772C119.193 86.7453 119.665 85.742 119.665 84.762C119.665 84.118 119.501 83.6047 119.175 83.222C118.857 82.83 118.335 82.634 117.607 82.634C116.897 82.634 116.347 82.858 115.955 83.306C115.572 83.7447 115.357 84.3327 115.311 85.07H114.359C114.415 84.034 114.732 83.2313 115.311 82.662C115.899 82.0833 116.664 81.794 117.607 81.794C118.512 81.794 119.245 82.0507 119.805 82.564C120.365 83.068 120.645 83.7867 120.645 84.72C120.645 85.8493 120.173 86.946 119.231 88.01C118.297 89.0647 117.145 90.096 115.773 91.104H120.953V91.93H114.275V91.23ZM129.544 85.182H127.766V92H126.786V85.182H125.722V84.356H126.786V83.824C126.786 82.9933 126.996 82.382 127.416 81.99C127.845 81.598 128.536 81.402 129.488 81.402V82.242C128.853 82.242 128.405 82.3633 128.144 82.606C127.892 82.8487 127.766 83.2547 127.766 83.824V84.356H129.544V85.182ZM134.433 92.112C133.714 92.112 133.065 91.9533 132.487 91.636C131.917 91.3093 131.465 90.852 131.129 90.264C130.802 89.6667 130.639 88.9713 130.639 88.178C130.639 87.3847 130.807 86.694 131.143 86.106C131.479 85.5087 131.936 85.0513 132.515 84.734C133.093 84.4073 133.742 84.244 134.461 84.244C135.179 84.244 135.828 84.4073 136.407 84.734C136.995 85.0513 137.452 85.5087 137.779 86.106C138.115 86.694 138.283 87.3847 138.283 88.178C138.283 88.962 138.115 89.6527 137.779 90.25C137.443 90.8473 136.981 91.3093 136.393 91.636C135.805 91.9533 135.151 92.112 134.433 92.112ZM134.433 91.258C134.937 91.258 135.403 91.146 135.833 90.922C136.262 90.6887 136.607 90.3433 136.869 89.886C137.139 89.4193 137.275 88.85 137.275 88.178C137.275 87.506 137.144 86.9413 136.883 86.484C136.621 86.0173 136.276 85.672 135.847 85.448C135.417 85.2147 134.951 85.098 134.447 85.098C133.943 85.098 133.476 85.2147 133.047 85.448C132.617 85.672 132.272 86.0173 132.011 86.484C131.759 86.9413 131.633 87.506 131.633 88.178C131.633 88.85 131.759 89.4193 132.011 89.886C132.272 90.3433 132.613 90.6887 133.033 90.922C133.462 91.146 133.929 91.258 134.433 91.258ZM143.653 84.216C144.568 84.216 145.315 84.5007 145.893 85.07C146.472 85.63 146.761 86.4467 146.761 87.52V92H145.795V87.632C145.795 86.8013 145.585 86.1667 145.165 85.728C144.755 85.2893 144.19 85.07 143.471 85.07C142.734 85.07 142.146 85.3033 141.707 85.77C141.269 86.2367 141.049 86.9227 141.049 87.828V92H140.069V84.356H141.049V85.658C141.292 85.1913 141.642 84.8367 142.099 84.594C142.557 84.342 143.075 84.216 143.653 84.216ZM150.203 85.182V89.928C150.203 90.3947 150.291 90.7167 150.469 90.894C150.646 91.0713 150.959 91.16 151.407 91.16H152.303V92H151.253C150.562 92 150.049 91.8413 149.713 91.524C149.377 91.1973 149.209 90.6653 149.209 89.928V85.182H148.145V84.356H149.209V82.438H150.203V84.356H152.303V85.182H150.203ZM158.251 82.914C158.055 82.914 157.887 82.844 157.747 82.704C157.607 82.564 157.537 82.3913 157.537 82.186C157.537 81.9807 157.607 81.8127 157.747 81.682C157.887 81.542 158.055 81.472 158.251 81.472C158.447 81.472 158.615 81.542 158.755 81.682C158.895 81.8127 158.965 81.9807 158.965 82.186C158.965 82.3913 158.895 82.564 158.755 82.704C158.615 82.844 158.447 82.914 158.251 82.914ZM158.741 84.356V92H157.761V84.356H158.741ZM163.592 92.112C162.715 92.112 161.996 91.9113 161.436 91.51C160.885 91.0993 160.577 90.544 160.512 89.844H161.52C161.567 90.2733 161.767 90.6233 162.122 90.894C162.486 91.1553 162.971 91.286 163.578 91.286C164.11 91.286 164.525 91.16 164.824 90.908C165.132 90.656 165.286 90.3433 165.286 89.97C165.286 89.7087 165.202 89.494 165.034 89.326C164.866 89.158 164.651 89.0273 164.39 88.934C164.138 88.8313 163.793 88.724 163.354 88.612C162.785 88.4627 162.323 88.3133 161.968 88.164C161.613 88.0147 161.31 87.7953 161.058 87.506C160.815 87.2073 160.694 86.8107 160.694 86.316C160.694 85.9427 160.806 85.5973 161.03 85.28C161.254 84.9627 161.571 84.7107 161.982 84.524C162.393 84.3373 162.859 84.244 163.382 84.244C164.203 84.244 164.866 84.454 165.37 84.874C165.874 85.2847 166.145 85.854 166.182 86.582H165.202C165.174 86.134 164.997 85.7747 164.67 85.504C164.353 85.224 163.914 85.084 163.354 85.084C162.859 85.084 162.458 85.2007 162.15 85.434C161.842 85.6673 161.688 85.9567 161.688 86.302C161.688 86.6007 161.777 86.848 161.954 87.044C162.141 87.2307 162.369 87.38 162.64 87.492C162.911 87.5947 163.275 87.7113 163.732 87.842C164.283 87.9913 164.721 88.136 165.048 88.276C165.375 88.416 165.655 88.6213 165.888 88.892C166.121 89.1627 166.243 89.522 166.252 89.97C166.252 90.3807 166.14 90.7493 165.916 91.076C165.692 91.3933 165.379 91.6453 164.978 91.832C164.577 92.0187 164.115 92.112 163.592 92.112ZM171.49 88.164C171.49 87.38 171.644 86.694 171.952 86.106C172.27 85.5087 172.704 85.0513 173.254 84.734C173.814 84.4073 174.444 84.244 175.144 84.244C175.872 84.244 176.498 84.412 177.02 84.748C177.552 85.084 177.935 85.5133 178.168 86.036V84.356H179.148V92H178.168V90.306C177.926 90.8287 177.538 91.2627 177.006 91.608C176.484 91.944 175.858 92.112 175.13 92.112C174.44 92.112 173.814 91.9487 173.254 91.622C172.704 91.2953 172.27 90.8333 171.952 90.236C171.644 89.6387 171.49 88.948 171.49 88.164ZM178.168 88.178C178.168 87.562 178.042 87.0207 177.79 86.554C177.538 86.0873 177.193 85.728 176.754 85.476C176.325 85.224 175.849 85.098 175.326 85.098C174.785 85.098 174.3 85.2193 173.87 85.462C173.441 85.7047 173.1 86.0593 172.848 86.526C172.606 86.9833 172.484 87.5293 172.484 88.164C172.484 88.7893 172.606 89.34 172.848 89.816C173.1 90.2827 173.441 90.642 173.87 90.894C174.3 91.1367 174.785 91.258 175.326 91.258C175.849 91.258 176.325 91.132 176.754 90.88C177.193 90.628 177.538 90.2687 177.79 89.802C178.042 89.3353 178.168 88.794 178.168 88.178ZM188.433 84.244C189.152 84.244 189.777 84.412 190.309 84.748C190.841 85.084 191.224 85.5087 191.457 86.022V84.356H192.437V92.196C192.437 92.896 192.283 93.5167 191.975 94.058C191.677 94.5993 191.257 95.0147 190.715 95.304C190.174 95.6027 189.558 95.752 188.867 95.752C187.887 95.752 187.071 95.5187 186.417 95.052C185.773 94.5853 185.372 93.9507 185.213 93.148H186.179C186.347 93.68 186.665 94.1047 187.131 94.422C187.607 94.7393 188.186 94.898 188.867 94.898C189.362 94.898 189.805 94.7907 190.197 94.576C190.589 94.3707 190.897 94.0627 191.121 93.652C191.345 93.2413 191.457 92.756 191.457 92.196V90.306C191.215 90.8287 190.827 91.2627 190.295 91.608C189.773 91.944 189.152 92.112 188.433 92.112C187.733 92.112 187.103 91.9487 186.543 91.622C185.993 91.2953 185.559 90.8333 185.241 90.236C184.933 89.6387 184.779 88.948 184.779 88.164C184.779 87.38 184.933 86.694 185.241 86.106C185.559 85.5087 185.993 85.0513 186.543 84.734C187.103 84.4073 187.733 84.244 188.433 84.244ZM191.457 88.178C191.457 87.562 191.331 87.0207 191.079 86.554C190.827 86.0873 190.482 85.728 190.043 85.476C189.614 85.224 189.138 85.098 188.615 85.098C188.074 85.098 187.589 85.2193 187.159 85.462C186.73 85.7047 186.389 86.0593 186.137 86.526C185.895 86.9833 185.773 87.5293 185.773 88.164C185.773 88.7893 185.895 89.34 186.137 89.816C186.389 90.2827 186.73 90.642 187.159 90.894C187.589 91.1367 188.074 91.258 188.615 91.258C189.138 91.258 189.614 91.132 190.043 90.88C190.482 90.628 190.827 90.2687 191.079 89.802C191.331 89.3353 191.457 88.794 191.457 88.178ZM198.021 92.112C197.302 92.112 196.653 91.9533 196.075 91.636C195.505 91.3093 195.053 90.852 194.717 90.264C194.39 89.6667 194.227 88.9713 194.227 88.178C194.227 87.3847 194.395 86.694 194.731 86.106C195.067 85.5087 195.524 85.0513 196.103 84.734C196.681 84.4073 197.33 84.244 198.049 84.244C198.767 84.244 199.416 84.4073 199.995 84.734C200.583 85.0513 201.04 85.5087 201.367 86.106C201.703 86.694 201.871 87.3847 201.871 88.178C201.871 88.962 201.703 89.6527 201.367 90.25C201.031 90.8473 200.569 91.3093 199.981 91.636C199.393 91.9533 198.739 92.112 198.021 92.112ZM198.021 91.258C198.525 91.258 198.991 91.146 199.421 90.922C199.85 90.6887 200.195 90.3433 200.457 89.886C200.727 89.4193 200.863 88.85 200.863 88.178C200.863 87.506 200.732 86.9413 200.471 86.484C200.209 86.0173 199.864 85.672 199.435 85.448C199.005 85.2147 198.539 85.098 198.035 85.098C197.531 85.098 197.064 85.2147 196.635 85.448C196.205 85.672 195.86 86.0173 195.599 86.484C195.347 86.9413 195.221 87.506 195.221 88.178C195.221 88.85 195.347 89.4193 195.599 89.886C195.86 90.3433 196.201 90.6887 196.621 90.922C197.05 91.146 197.517 91.258 198.021 91.258ZM207.003 92.112C206.284 92.112 205.636 91.9533 205.057 91.636C204.488 91.3093 204.035 90.852 203.699 90.264C203.372 89.6667 203.209 88.9713 203.209 88.178C203.209 87.3847 203.377 86.694 203.713 86.106C204.049 85.5087 204.506 85.0513 205.085 84.734C205.664 84.4073 206.312 84.244 207.031 84.244C207.75 84.244 208.398 84.4073 208.977 84.734C209.565 85.0513 210.022 85.5087 210.349 86.106C210.685 86.694 210.853 87.3847 210.853 88.178C210.853 88.962 210.685 89.6527 210.349 90.25C210.013 90.8473 209.551 91.3093 208.963 91.636C208.375 91.9533 207.722 92.112 207.003 92.112ZM207.003 91.258C207.507 91.258 207.974 91.146 208.403 90.922C208.832 90.6887 209.178 90.3433 209.439 89.886C209.71 89.4193 209.845 88.85 209.845 88.178C209.845 87.506 209.714 86.9413 209.453 86.484C209.192 86.0173 208.846 85.672 208.417 85.448C207.988 85.2147 207.521 85.098 207.017 85.098C206.513 85.098 206.046 85.2147 205.617 85.448C205.188 85.672 204.842 86.0173 204.581 86.484C204.329 86.9413 204.203 87.506 204.203 88.178C204.203 88.85 204.329 89.4193 204.581 89.886C204.842 90.3433 205.183 90.6887 205.603 90.922C206.032 91.146 206.499 91.258 207.003 91.258ZM212.192 88.164C212.192 87.38 212.35 86.694 212.668 86.106C212.985 85.5087 213.419 85.0513 213.97 84.734C214.53 84.4073 215.16 84.244 215.86 84.244C216.532 84.244 217.138 84.4073 217.68 84.734C218.221 85.0607 218.618 85.4853 218.87 86.008V81.64H219.85V92H218.87V90.292C218.636 90.824 218.254 91.2627 217.722 91.608C217.19 91.944 216.564 92.112 215.846 92.112C215.146 92.112 214.516 91.9487 213.956 91.622C213.405 91.2953 212.971 90.8333 212.654 90.236C212.346 89.6387 212.192 88.948 212.192 88.164ZM218.87 88.178C218.87 87.562 218.744 87.0207 218.492 86.554C218.24 86.0873 217.894 85.728 217.456 85.476C217.026 85.224 216.55 85.098 216.028 85.098C215.486 85.098 215.001 85.2193 214.572 85.462C214.142 85.7047 213.802 86.0593 213.55 86.526C213.307 86.9833 213.186 87.5293 213.186 88.164C213.186 88.7893 213.307 89.34 213.55 89.816C213.802 90.2827 214.142 90.642 214.572 90.894C215.001 91.1367 215.486 91.258 216.028 91.258C216.55 91.258 217.026 91.132 217.456 90.88C217.894 90.628 218.24 90.2687 218.492 89.802C218.744 89.3353 218.87 88.794 218.87 88.178ZM17.086 107.036C17.3287 106.523 17.7113 106.098 18.234 105.762C18.766 105.417 19.396 105.244 20.124 105.244C20.8147 105.244 21.4353 105.407 21.986 105.734C22.546 106.051 22.98 106.509 23.288 107.106C23.6053 107.694 23.764 108.38 23.764 109.164C23.764 109.948 23.6053 110.639 23.288 111.236C22.98 111.833 22.546 112.295 21.986 112.622C21.4353 112.949 20.8147 113.112 20.124 113.112C19.4053 113.112 18.78 112.944 18.248 112.608C17.716 112.263 17.3287 111.833 17.086 111.32V116.612H16.12V105.356H17.086V107.036ZM22.77 109.164C22.77 108.529 22.644 107.983 22.392 107.526C22.1493 107.059 21.8133 106.705 21.384 106.462C20.9547 106.219 20.4693 106.098 19.928 106.098C19.4053 106.098 18.9247 106.224 18.486 106.476C18.0567 106.728 17.716 107.087 17.464 107.554C17.212 108.021 17.086 108.562 17.086 109.178C17.086 109.794 17.212 110.335 17.464 110.802C17.716 111.269 18.0567 111.628 18.486 111.88C18.9247 112.132 19.4053 112.258 19.928 112.258C20.4693 112.258 20.9547 112.137 21.384 111.894C21.8133 111.642 22.1493 111.283 22.392 110.816C22.644 110.34 22.77 109.789 22.77 109.164ZM26.5473 102.64V113H25.5673V102.64H26.5473ZM28.3185 109.164C28.3185 108.38 28.4725 107.694 28.7805 107.106C29.0978 106.509 29.5318 106.051 30.0825 105.734C30.6425 105.407 31.2725 105.244 31.9725 105.244C32.7005 105.244 33.3258 105.412 33.8485 105.748C34.3805 106.084 34.7632 106.513 34.9965 107.036V105.356H35.9765V113H34.9965V111.306C34.7538 111.829 34.3665 112.263 33.8345 112.608C33.3118 112.944 32.6865 113.112 31.9585 113.112C31.2678 113.112 30.6425 112.949 30.0825 112.622C29.5318 112.295 29.0978 111.833 28.7805 111.236C28.4725 110.639 28.3185 109.948 28.3185 109.164ZM34.9965 109.178C34.9965 108.562 34.8705 108.021 34.6185 107.554C34.3665 107.087 34.0212 106.728 33.5825 106.476C33.1532 106.224 32.6772 106.098 32.1545 106.098C31.6132 106.098 31.1278 106.219 30.6985 106.462C30.2692 106.705 29.9285 107.059 29.6765 107.526C29.4338 107.983 29.3125 108.529 29.3125 109.164C29.3125 109.789 29.4338 110.34 29.6765 110.816C29.9285 111.283 30.2692 111.642 30.6985 111.894C31.1278 112.137 31.6132 112.258 32.1545 112.258C32.6772 112.258 33.1532 112.132 33.5825 111.88C34.0212 111.628 34.3665 111.269 34.6185 110.802C34.8705 110.335 34.9965 109.794 34.9965 109.178ZM37.7658 109.178C37.7658 108.385 37.9244 107.694 38.2418 107.106C38.5591 106.509 38.9978 106.051 39.5578 105.734C40.1178 105.407 40.7571 105.244 41.4758 105.244C42.4184 105.244 43.1931 105.477 43.7998 105.944C44.4158 106.411 44.8124 107.045 44.9898 107.848H43.9398C43.8091 107.297 43.5244 106.868 43.0858 106.56C42.6564 106.243 42.1198 106.084 41.4758 106.084C40.9624 106.084 40.5004 106.201 40.0898 106.434C39.6791 106.667 39.3524 107.017 39.1098 107.484C38.8764 107.941 38.7598 108.506 38.7598 109.178C38.7598 109.85 38.8764 110.419 39.1098 110.886C39.3524 111.353 39.6791 111.703 40.0898 111.936C40.5004 112.169 40.9624 112.286 41.4758 112.286C42.1198 112.286 42.6564 112.132 43.0858 111.824C43.5244 111.507 43.8091 111.068 43.9398 110.508H44.9898C44.8124 111.292 44.4158 111.922 43.7998 112.398C43.1838 112.874 42.4091 113.112 41.4758 113.112C40.7571 113.112 40.1178 112.953 39.5578 112.636C38.9978 112.309 38.5591 111.852 38.2418 111.264C37.9244 110.667 37.7658 109.971 37.7658 109.178ZM53.7157 108.786C53.7157 109.122 53.7064 109.379 53.6877 109.556H47.3457C47.3737 110.135 47.5137 110.629 47.7657 111.04C48.0177 111.451 48.349 111.763 48.7597 111.978C49.1704 112.183 49.6184 112.286 50.1037 112.286C50.7384 112.286 51.2704 112.132 51.6997 111.824C52.1384 111.516 52.4277 111.101 52.5677 110.578H53.6037C53.417 111.325 53.0157 111.936 52.3997 112.412C51.793 112.879 51.0277 113.112 50.1037 113.112C49.385 113.112 48.741 112.953 48.1717 112.636C47.6024 112.309 47.1544 111.852 46.8277 111.264C46.5104 110.667 46.3517 109.971 46.3517 109.178C46.3517 108.385 46.5104 107.689 46.8277 107.092C47.145 106.495 47.5884 106.037 48.1577 105.72C48.727 105.403 49.3757 105.244 50.1037 105.244C50.8317 105.244 51.4664 105.403 52.0077 105.72C52.5584 106.037 52.9784 106.467 53.2677 107.008C53.5664 107.54 53.7157 108.133 53.7157 108.786ZM52.7217 108.758C52.731 108.189 52.6144 107.703 52.3717 107.302C52.1384 106.901 51.8164 106.597 51.4057 106.392C50.995 106.187 50.547 106.084 50.0617 106.084C49.3337 106.084 48.713 106.317 48.1997 106.784C47.6864 107.251 47.4017 107.909 47.3457 108.758H52.7217ZM60.6245 106.182V110.928C60.6245 111.395 60.7131 111.717 60.8905 111.894C61.0678 112.071 61.3805 112.16 61.8285 112.16H62.7245V113H61.6745C60.9838 113 60.4705 112.841 60.1345 112.524C59.7985 112.197 59.6305 111.665 59.6305 110.928V106.182H58.5665V105.356H59.6305V103.438H60.6245V105.356H62.7245V106.182H60.6245ZM67.6867 113.112C66.968 113.112 66.3194 112.953 65.7407 112.636C65.1714 112.309 64.7187 111.852 64.3827 111.264C64.056 110.667 63.8927 109.971 63.8927 109.178C63.8927 108.385 64.0607 107.694 64.3967 107.106C64.7327 106.509 65.19 106.051 65.7687 105.734C66.3474 105.407 66.996 105.244 67.7147 105.244C68.4334 105.244 69.082 105.407 69.6607 105.734C70.2487 106.051 70.706 106.509 71.0327 107.106C71.3687 107.694 71.5367 108.385 71.5367 109.178C71.5367 109.962 71.3687 110.653 71.0327 111.25C70.6967 111.847 70.2347 112.309 69.6467 112.636C69.0587 112.953 68.4054 113.112 67.6867 113.112ZM67.6867 112.258C68.1907 112.258 68.6574 112.146 69.0867 111.922C69.516 111.689 69.8614 111.343 70.1227 110.886C70.3934 110.419 70.5287 109.85 70.5287 109.178C70.5287 108.506 70.398 107.941 70.1367 107.484C69.8754 107.017 69.53 106.672 69.1007 106.448C68.6714 106.215 68.2047 106.098 67.7007 106.098C67.1967 106.098 66.73 106.215 66.3007 106.448C65.8714 106.672 65.526 107.017 65.2647 107.484C65.0127 107.941 64.8867 108.506 64.8867 109.178C64.8867 109.85 65.0127 110.419 65.2647 110.886C65.526 111.343 65.8667 111.689 66.2867 111.922C66.716 112.146 67.1827 112.258 67.6867 112.258ZM79.7969 113.112C78.9196 113.112 78.2009 112.911 77.6409 112.51C77.0903 112.099 76.7823 111.544 76.7169 110.844H77.7249C77.7716 111.273 77.9723 111.623 78.3269 111.894C78.6909 112.155 79.1763 112.286 79.7829 112.286C80.3149 112.286 80.7303 112.16 81.0289 111.908C81.3369 111.656 81.4909 111.343 81.4909 110.97C81.4909 110.709 81.4069 110.494 81.2389 110.326C81.0709 110.158 80.8563 110.027 80.5949 109.934C80.3429 109.831 79.9976 109.724 79.5589 109.612C78.9896 109.463 78.5276 109.313 78.1729 109.164C77.8183 109.015 77.5149 108.795 77.2629 108.506C77.0203 108.207 76.8989 107.811 76.8989 107.316C76.8989 106.943 77.0109 106.597 77.2349 106.28C77.4589 105.963 77.7763 105.711 78.1869 105.524C78.5976 105.337 79.0643 105.244 79.5869 105.244C80.4083 105.244 81.0709 105.454 81.5749 105.874C82.0789 106.285 82.3496 106.854 82.3869 107.582H81.4069C81.3789 107.134 81.2016 106.775 80.8749 106.504C80.5576 106.224 80.1189 106.084 79.5589 106.084C79.0643 106.084 78.6629 106.201 78.3549 106.434C78.0469 106.667 77.8929 106.957 77.8929 107.302C77.8929 107.601 77.9816 107.848 78.1589 108.044C78.3456 108.231 78.5743 108.38 78.8449 108.492C79.1156 108.595 79.4796 108.711 79.9369 108.842C80.4876 108.991 80.9263 109.136 81.2529 109.276C81.5796 109.416 81.8596 109.621 82.0929 109.892C82.3263 110.163 82.4476 110.522 82.4569 110.97C82.4569 111.381 82.3449 111.749 82.1209 112.076C81.8969 112.393 81.5843 112.645 81.1829 112.832C80.7816 113.019 80.3196 113.112 79.7969 113.112ZM85.5756 106.182V110.928C85.5756 111.395 85.6643 111.717 85.8416 111.894C86.019 112.071 86.3316 112.16 86.7796 112.16H87.6756V113H86.6256C85.935 113 85.4216 112.841 85.0856 112.524C84.7496 112.197 84.5816 111.665 84.5816 110.928V106.182H83.5176V105.356H84.5816V103.438H85.5756V105.356H87.6756V106.182H85.5756ZM88.8439 109.164C88.8439 108.38 88.9979 107.694 89.3059 107.106C89.6232 106.509 90.0572 106.051 90.6079 105.734C91.1679 105.407 91.7979 105.244 92.4979 105.244C93.2259 105.244 93.8512 105.412 94.3739 105.748C94.9059 106.084 95.2885 106.513 95.5219 107.036V105.356H96.5019V113H95.5219V111.306C95.2792 111.829 94.8919 112.263 94.3599 112.608C93.8372 112.944 93.2119 113.112 92.4839 113.112C91.7932 113.112 91.1679 112.949 90.6079 112.622C90.0572 112.295 89.6232 111.833 89.3059 111.236C88.9979 110.639 88.8439 109.948 88.8439 109.164ZM95.5219 109.178C95.5219 108.562 95.3959 108.021 95.1439 107.554C94.8919 107.087 94.5465 106.728 94.1079 106.476C93.6785 106.224 93.2025 106.098 92.6799 106.098C92.1385 106.098 91.6532 106.219 91.2239 106.462C90.7945 106.705 90.4539 107.059 90.2019 107.526C89.9592 107.983 89.8379 108.529 89.8379 109.164C89.8379 109.789 89.9592 110.34 90.2019 110.816C90.4539 111.283 90.7945 111.642 91.2239 111.894C91.6532 112.137 92.1385 112.258 92.6799 112.258C93.2025 112.258 93.6785 112.132 94.1079 111.88C94.5465 111.628 94.8919 111.269 95.1439 110.802C95.3959 110.335 95.5219 109.794 95.5219 109.178ZM99.7191 106.714C99.9338 106.238 100.26 105.869 100.699 105.608C101.147 105.347 101.693 105.216 102.337 105.216V106.238H102.071C101.362 106.238 100.792 106.429 100.363 106.812C99.9338 107.195 99.7191 107.834 99.7191 108.73V113H98.7391V105.356H99.7191V106.714ZM105.085 106.182V110.928C105.085 111.395 105.174 111.717 105.351 111.894C105.529 112.071 105.841 112.16 106.289 112.16H107.185V113H106.135C105.445 113 104.931 112.841 104.595 112.524C104.259 112.197 104.091 111.665 104.091 110.928V106.182H103.027V105.356H104.091V103.438H105.085V105.356H107.185V106.182H105.085ZM108.97 113.07C108.764 113.07 108.592 113 108.452 112.86C108.321 112.72 108.256 112.547 108.256 112.342C108.256 112.137 108.321 111.969 108.452 111.838C108.592 111.698 108.764 111.628 108.97 111.628C109.166 111.628 109.329 111.698 109.46 111.838C109.6 111.969 109.67 112.137 109.67 112.342C109.67 112.547 109.6 112.72 109.46 112.86C109.329 113 109.166 113.07 108.97 113.07Z" fill="white"/>
</svg>
