<svg width="255" height="146" viewBox="0 0 255 146" fill="none" xmlns="http://www.w3.org/2000/svg">
<path d="M202.192 142.857C202.528 143.693 203.711 143.693 204.047 142.857L210.465 126.913C210.729 126.256 210.246 125.54 209.537 125.54L196.702 125.54C195.994 125.54 195.51 126.256 195.775 126.913L202.192 142.857Z" fill="#3D37CD"/>
<rect width="255" height="132" rx="20" transform="matrix(-1 0 0 1 255 0)" fill="#3D37CD"/>
<path d="M17.1 29.214V39H16.12V29.214H17.1ZM28.4192 31.216C29.3152 31.216 30.0432 31.5007 30.6032 32.07C31.1726 32.63 31.4572 33.4467 31.4572 34.52V39H30.4912V34.632C30.4912 33.8013 30.2906 33.1667 29.8892 32.728C29.4879 32.2893 28.9419 32.07 28.2512 32.07C27.5326 32.07 26.9586 32.308 26.5292 32.784C26.0999 33.26 25.8852 33.9507 25.8852 34.856V39H24.9192V34.632C24.9192 33.8013 24.7186 33.1667 24.3172 32.728C23.9159 32.2893 23.3652 32.07 22.6652 32.07C21.9466 32.07 21.3726 32.308 20.9432 32.784C20.5139 33.26 20.2992 33.9507 20.2992 34.856V39H19.3192V31.356H20.2992V32.672C20.5419 32.196 20.8872 31.8367 21.3352 31.594C21.7832 31.342 22.2826 31.216 22.8332 31.216C23.4959 31.216 24.0746 31.3747 24.5692 31.692C25.0732 32.0093 25.4372 32.476 25.6612 33.092C25.8666 32.4853 26.2166 32.0233 26.7112 31.706C27.2152 31.3793 27.7846 31.216 28.4192 31.216ZM34.5997 33.036C34.8423 32.5227 35.225 32.098 35.7477 31.762C36.2797 31.4167 36.9097 31.244 37.6377 31.244C38.3283 31.244 38.949 31.4073 39.4997 31.734C40.0597 32.0513 40.4937 32.5087 40.8017 33.106C41.119 33.694 41.2777 34.38 41.2777 35.164C41.2777 35.948 41.119 36.6387 40.8017 37.236C40.4937 37.8333 40.0597 38.2953 39.4997 38.622C38.949 38.9487 38.3283 39.112 37.6377 39.112C36.919 39.112 36.2937 38.944 35.7617 38.608C35.2297 38.2627 34.8423 37.8333 34.5997 37.32V42.612H33.6337V31.356H34.5997V33.036ZM40.2837 35.164C40.2837 34.5293 40.1577 33.9833 39.9057 33.526C39.663 33.0593 39.327 32.7047 38.8977 32.462C38.4683 32.2193 37.983 32.098 37.4417 32.098C36.919 32.098 36.4383 32.224 35.9997 32.476C35.5703 32.728 35.2297 33.0873 34.9777 33.554C34.7257 34.0207 34.5997 34.562 34.5997 35.178C34.5997 35.794 34.7257 36.3353 34.9777 36.802C35.2297 37.2687 35.5703 37.628 35.9997 37.88C36.4383 38.132 36.919 38.258 37.4417 38.258C37.983 38.258 38.4683 38.1367 38.8977 37.894C39.327 37.642 39.663 37.2827 39.9057 36.816C40.1577 36.34 40.2837 35.7893 40.2837 35.164ZM44.0609 28.64V39H43.0809V28.64H44.0609ZM53.1962 34.786C53.1962 35.122 53.1868 35.3787 53.1682 35.556H46.8262C46.8542 36.1347 46.9942 36.6293 47.2462 37.04C47.4982 37.4507 47.8295 37.7633 48.2402 37.978C48.6508 38.1833 49.0988 38.286 49.5842 38.286C50.2188 38.286 50.7508 38.132 51.1802 37.824C51.6188 37.516 51.9082 37.1007 52.0482 36.578H53.0842C52.8975 37.3247 52.4962 37.936 51.8802 38.412C51.2735 38.8787 50.5082 39.112 49.5842 39.112C48.8655 39.112 48.2215 38.9533 47.6522 38.636C47.0828 38.3093 46.6348 37.852 46.3082 37.264C45.9908 36.6667 45.8322 35.9713 45.8322 35.178C45.8322 34.3847 45.9908 33.6893 46.3082 33.092C46.6255 32.4947 47.0688 32.0373 47.6382 31.72C48.2075 31.4027 48.8562 31.244 49.5842 31.244C50.3122 31.244 50.9468 31.4027 51.4882 31.72C52.0388 32.0373 52.4588 32.4667 52.7482 33.008C53.0468 33.54 53.1962 34.1327 53.1962 34.786ZM52.2022 34.758C52.2115 34.1887 52.0948 33.7033 51.8522 33.302C51.6188 32.9007 51.2968 32.5973 50.8862 32.392C50.4755 32.1867 50.0275 32.084 49.5422 32.084C48.8142 32.084 48.1935 32.3173 47.6802 32.784C47.1668 33.2507 46.8822 33.9087 46.8262 34.758H52.2022ZM64.0891 31.216C64.9851 31.216 65.7131 31.5007 66.2731 32.07C66.8425 32.63 67.1271 33.4467 67.1271 34.52V39H66.1611V34.632C66.1611 33.8013 65.9605 33.1667 65.5591 32.728C65.1578 32.2893 64.6118 32.07 63.9211 32.07C63.2025 32.07 62.6285 32.308 62.1991 32.784C61.7698 33.26 61.5551 33.9507 61.5551 34.856V39H60.5891V34.632C60.5891 33.8013 60.3885 33.1667 59.9871 32.728C59.5858 32.2893 59.0351 32.07 58.3351 32.07C57.6165 32.07 57.0425 32.308 56.6131 32.784C56.1838 33.26 55.9691 33.9507 55.9691 34.856V39H54.9891V31.356H55.9691V32.672C56.2118 32.196 56.5571 31.8367 57.0051 31.594C57.4531 31.342 57.9525 31.216 58.5031 31.216C59.1658 31.216 59.7445 31.3747 60.2391 31.692C60.7431 32.0093 61.1071 32.476 61.3311 33.092C61.5365 32.4853 61.8865 32.0233 62.3811 31.706C62.8851 31.3793 63.4545 31.216 64.0891 31.216ZM76.2196 34.786C76.2196 35.122 76.2103 35.3787 76.1916 35.556H69.8496C69.8776 36.1347 70.0176 36.6293 70.2696 37.04C70.5216 37.4507 70.8529 37.7633 71.2636 37.978C71.6743 38.1833 72.1223 38.286 72.6076 38.286C73.2423 38.286 73.7743 38.132 74.2036 37.824C74.6423 37.516 74.9316 37.1007 75.0716 36.578H76.1076C75.9209 37.3247 75.5196 37.936 74.9036 38.412C74.2969 38.8787 73.5316 39.112 72.6076 39.112C71.8889 39.112 71.2449 38.9533 70.6756 38.636C70.1063 38.3093 69.6583 37.852 69.3316 37.264C69.0143 36.6667 68.8556 35.9713 68.8556 35.178C68.8556 34.3847 69.0143 33.6893 69.3316 33.092C69.6489 32.4947 70.0923 32.0373 70.6616 31.72C71.2309 31.4027 71.8796 31.244 72.6076 31.244C73.3356 31.244 73.9703 31.4027 74.5116 31.72C75.0623 32.0373 75.4823 32.4667 75.7716 33.008C76.0703 33.54 76.2196 34.1327 76.2196 34.786ZM75.2256 34.758C75.2349 34.1887 75.1183 33.7033 74.8756 33.302C74.6423 32.9007 74.3203 32.5973 73.9096 32.392C73.4989 32.1867 73.0509 32.084 72.5656 32.084C71.8376 32.084 71.2169 32.3173 70.7036 32.784C70.1903 33.2507 69.9056 33.9087 69.8496 34.758H75.2256ZM81.5966 31.216C82.5112 31.216 83.2579 31.5007 83.8366 32.07C84.4152 32.63 84.7046 33.4467 84.7046 34.52V39H83.7386V34.632C83.7386 33.8013 83.5286 33.1667 83.1086 32.728C82.6979 32.2893 82.1332 32.07 81.4146 32.07C80.6772 32.07 80.0892 32.3033 79.6506 32.77C79.2119 33.2367 78.9926 33.9227 78.9926 34.828V39H78.0126V31.356H78.9926V32.658C79.2352 32.1913 79.5852 31.8367 80.0426 31.594C80.4999 31.342 81.0179 31.216 81.5966 31.216ZM88.146 32.182V36.928C88.146 37.3947 88.2346 37.7167 88.412 37.894C88.5893 38.0713 88.902 38.16 89.35 38.16H90.246V39H89.196C88.5053 39 87.992 38.8413 87.656 38.524C87.32 38.1973 87.152 37.6653 87.152 36.928V32.182H86.088V31.356H87.152V29.438H88.146V31.356H90.246V32.182H88.146ZM91.4142 35.164C91.4142 34.38 91.5682 33.694 91.8762 33.106C92.1935 32.5087 92.6275 32.0513 93.1782 31.734C93.7382 31.4073 94.3682 31.244 95.0682 31.244C95.7962 31.244 96.4215 31.412 96.9442 31.748C97.4762 32.084 97.8589 32.5133 98.0922 33.036V31.356H99.0722V39H98.0922V37.306C97.8495 37.8287 97.4622 38.2627 96.9302 38.608C96.4075 38.944 95.7822 39.112 95.0542 39.112C94.3635 39.112 93.7382 38.9487 93.1782 38.622C92.6275 38.2953 92.1935 37.8333 91.8762 37.236C91.5682 36.6387 91.4142 35.948 91.4142 35.164ZM98.0922 35.178C98.0922 34.562 97.9662 34.0207 97.7142 33.554C97.4622 33.0873 97.1169 32.728 96.6782 32.476C96.2489 32.224 95.7729 32.098 95.2502 32.098C94.7089 32.098 94.2235 32.2193 93.7942 32.462C93.3649 32.7047 93.0242 33.0593 92.7722 33.526C92.5295 33.9833 92.4082 34.5293 92.4082 35.164C92.4082 35.7893 92.5295 36.34 92.7722 36.816C93.0242 37.2827 93.3649 37.642 93.7942 37.894C94.2235 38.1367 94.7089 38.258 95.2502 38.258C95.7729 38.258 96.2489 38.132 96.6782 37.88C97.1169 37.628 97.4622 37.2687 97.7142 36.802C97.9662 36.3353 98.0922 35.794 98.0922 35.178ZM102.583 32.182V36.928C102.583 37.3947 102.672 37.7167 102.849 37.894C103.027 38.0713 103.339 38.16 103.787 38.16H104.683V39H103.633C102.943 39 102.429 38.8413 102.093 38.524C101.757 38.1973 101.589 37.6653 101.589 36.928V32.182H100.525V31.356H101.589V29.438H102.583V31.356H104.683V32.182H102.583ZM106.79 29.914C106.594 29.914 106.426 29.844 106.286 29.704C106.146 29.564 106.076 29.3913 106.076 29.186C106.076 28.9807 106.146 28.8127 106.286 28.682C106.426 28.542 106.594 28.472 106.79 28.472C106.986 28.472 107.154 28.542 107.294 28.682C107.434 28.8127 107.504 28.9807 107.504 29.186C107.504 29.3913 107.434 29.564 107.294 29.704C107.154 29.844 106.986 29.914 106.79 29.914ZM107.28 31.356V39H106.3V31.356H107.28ZM112.845 39.112C112.126 39.112 111.478 38.9533 110.899 38.636C110.33 38.3093 109.877 37.852 109.541 37.264C109.214 36.6667 109.051 35.9713 109.051 35.178C109.051 34.3847 109.219 33.694 109.555 33.106C109.891 32.5087 110.348 32.0513 110.927 31.734C111.506 31.4073 112.154 31.244 112.873 31.244C113.592 31.244 114.24 31.4073 114.819 31.734C115.407 32.0513 115.864 32.5087 116.191 33.106C116.527 33.694 116.695 34.3847 116.695 35.178C116.695 35.962 116.527 36.6527 116.191 37.25C115.855 37.8473 115.393 38.3093 114.805 38.636C114.217 38.9533 113.564 39.112 112.845 39.112ZM112.845 38.258C113.349 38.258 113.816 38.146 114.245 37.922C114.674 37.6887 115.02 37.3433 115.281 36.886C115.552 36.4193 115.687 35.85 115.687 35.178C115.687 34.506 115.556 33.9413 115.295 33.484C115.034 33.0173 114.688 32.672 114.259 32.448C113.83 32.2147 113.363 32.098 112.859 32.098C112.355 32.098 111.888 32.2147 111.459 32.448C111.03 32.672 110.684 33.0173 110.423 33.484C110.171 33.9413 110.045 34.506 110.045 35.178C110.045 35.85 110.171 36.4193 110.423 36.886C110.684 37.3433 111.025 37.6887 111.445 37.922C111.874 38.146 112.341 38.258 112.845 38.258ZM122.065 31.216C122.98 31.216 123.727 31.5007 124.305 32.07C124.884 32.63 125.173 33.4467 125.173 34.52V39H124.207V34.632C124.207 33.8013 123.997 33.1667 123.577 32.728C123.167 32.2893 122.602 32.07 121.883 32.07C121.146 32.07 120.558 32.3033 120.119 32.77C119.681 33.2367 119.461 33.9227 119.461 34.828V39H118.481V31.356H119.461V32.658C119.704 32.1913 120.054 31.8367 120.511 31.594C120.969 31.342 121.487 31.216 122.065 31.216ZM130.735 35.178C130.735 34.3847 130.893 33.694 131.211 33.106C131.528 32.5087 131.967 32.0513 132.527 31.734C133.087 31.4073 133.726 31.244 134.445 31.244C135.387 31.244 136.162 31.4773 136.769 31.944C137.385 32.4107 137.781 33.0453 137.959 33.848H136.909C136.778 33.2973 136.493 32.868 136.055 32.56C135.625 32.2427 135.089 32.084 134.445 32.084C133.931 32.084 133.469 32.2007 133.059 32.434C132.648 32.6673 132.321 33.0173 132.079 33.484C131.845 33.9413 131.729 34.506 131.729 35.178C131.729 35.85 131.845 36.4193 132.079 36.886C132.321 37.3527 132.648 37.7027 133.059 37.936C133.469 38.1693 133.931 38.286 134.445 38.286C135.089 38.286 135.625 38.132 136.055 37.824C136.493 37.5067 136.778 37.068 136.909 36.508H137.959C137.781 37.292 137.385 37.922 136.769 38.398C136.153 38.874 135.378 39.112 134.445 39.112C133.726 39.112 133.087 38.9533 132.527 38.636C131.967 38.3093 131.528 37.852 131.211 37.264C130.893 36.6667 130.735 35.9713 130.735 35.178ZM139.32 35.164C139.32 34.38 139.474 33.694 139.782 33.106C140.1 32.5087 140.534 32.0513 141.084 31.734C141.644 31.4073 142.274 31.244 142.974 31.244C143.702 31.244 144.328 31.412 144.85 31.748C145.382 32.084 145.765 32.5133 145.998 33.036V31.356H146.978V39H145.998V37.306C145.756 37.8287 145.368 38.2627 144.836 38.608C144.314 38.944 143.688 39.112 142.96 39.112C142.27 39.112 141.644 38.9487 141.084 38.622C140.534 38.2953 140.1 37.8333 139.782 37.236C139.474 36.6387 139.32 35.948 139.32 35.164ZM145.998 35.178C145.998 34.562 145.872 34.0207 145.62 33.554C145.368 33.0873 145.023 32.728 144.584 32.476C144.155 32.224 143.679 32.098 143.156 32.098C142.615 32.098 142.13 32.2193 141.7 32.462C141.271 32.7047 140.93 33.0593 140.678 33.526C140.436 33.9833 140.314 34.5293 140.314 35.164C140.314 35.7893 140.436 36.34 140.678 36.816C140.93 37.2827 141.271 37.642 141.7 37.894C142.13 38.1367 142.615 38.258 143.156 38.258C143.679 38.258 144.155 38.132 144.584 37.88C145.023 37.628 145.368 37.2687 145.62 36.802C145.872 36.3353 145.998 35.794 145.998 35.178ZM152.8 31.216C153.714 31.216 154.461 31.5007 155.04 32.07C155.618 32.63 155.908 33.4467 155.908 34.52V39H154.942V34.632C154.942 33.8013 154.732 33.1667 154.312 32.728C153.901 32.2893 153.336 32.07 152.618 32.07C151.88 32.07 151.292 32.3033 150.854 32.77C150.415 33.2367 150.196 33.9227 150.196 34.828V39H149.216V31.356H150.196V32.658C150.438 32.1913 150.788 31.8367 151.246 31.594C151.703 31.342 152.221 31.216 152.8 31.216ZM162.883 33.05C163.135 32.518 163.522 32.084 164.045 31.748C164.577 31.412 165.202 31.244 165.921 31.244C166.621 31.244 167.246 31.4073 167.797 31.734C168.348 32.0513 168.777 32.5087 169.085 33.106C169.402 33.694 169.561 34.38 169.561 35.164C169.561 35.948 169.402 36.6387 169.085 37.236C168.777 37.8333 168.343 38.2953 167.783 38.622C167.232 38.9487 166.612 39.112 165.921 39.112C165.193 39.112 164.563 38.9487 164.031 38.622C163.508 38.286 163.126 37.852 162.883 37.32V39H161.917V28.64H162.883V33.05ZM168.567 35.164C168.567 34.5293 168.441 33.9833 168.189 33.526C167.946 33.0593 167.61 32.7047 167.181 32.462C166.752 32.2193 166.266 32.098 165.725 32.098C165.202 32.098 164.722 32.224 164.283 32.476C163.854 32.728 163.513 33.0873 163.261 33.554C163.009 34.0207 162.883 34.562 162.883 35.178C162.883 35.794 163.009 36.3353 163.261 36.802C163.513 37.2687 163.854 37.628 164.283 37.88C164.722 38.132 165.202 38.258 165.725 38.258C166.266 38.258 166.752 38.1367 167.181 37.894C167.61 37.642 167.946 37.2827 168.189 36.816C168.441 36.34 168.567 35.7893 168.567 35.164ZM178.28 34.786C178.28 35.122 178.271 35.3787 178.252 35.556H171.91C171.938 36.1347 172.078 36.6293 172.33 37.04C172.582 37.4507 172.913 37.7633 173.324 37.978C173.735 38.1833 174.183 38.286 174.668 38.286C175.303 38.286 175.835 38.132 176.264 37.824C176.703 37.516 176.992 37.1007 177.132 36.578H178.168C177.981 37.3247 177.58 37.936 176.964 38.412C176.357 38.8787 175.592 39.112 174.668 39.112C173.949 39.112 173.305 38.9533 172.736 38.636C172.167 38.3093 171.719 37.852 171.392 37.264C171.075 36.6667 170.916 35.9713 170.916 35.178C170.916 34.3847 171.075 33.6893 171.392 33.092C171.709 32.4947 172.153 32.0373 172.722 31.72C173.291 31.4027 173.94 31.244 174.668 31.244C175.396 31.244 176.031 31.4027 176.572 31.72C177.123 32.0373 177.543 32.4667 177.832 33.008C178.131 33.54 178.28 34.1327 178.28 34.786ZM177.286 34.758C177.295 34.1887 177.179 33.7033 176.936 33.302C176.703 32.9007 176.381 32.5973 175.97 32.392C175.559 32.1867 175.111 32.084 174.626 32.084C173.898 32.084 173.277 32.3173 172.764 32.784C172.251 33.2507 171.966 33.9087 171.91 34.758H177.286ZM186.547 39.112C185.67 39.112 184.951 38.9113 184.391 38.51C183.84 38.0993 183.532 37.544 183.467 36.844H184.475C184.522 37.2733 184.722 37.6233 185.077 37.894C185.441 38.1553 185.926 38.286 186.533 38.286C187.065 38.286 187.48 38.16 187.779 37.908C188.087 37.656 188.241 37.3433 188.241 36.97C188.241 36.7087 188.157 36.494 187.989 36.326C187.821 36.158 187.606 36.0273 187.345 35.934C187.093 35.8313 186.748 35.724 186.309 35.612C185.74 35.4627 185.278 35.3133 184.923 35.164C184.568 35.0147 184.265 34.7953 184.013 34.506C183.77 34.2073 183.649 33.8107 183.649 33.316C183.649 32.9427 183.761 32.5973 183.985 32.28C184.209 31.9627 184.526 31.7107 184.937 31.524C185.348 31.3373 185.814 31.244 186.337 31.244C187.158 31.244 187.821 31.454 188.325 31.874C188.829 32.2847 189.1 32.854 189.137 33.582H188.157C188.129 33.134 187.952 32.7747 187.625 32.504C187.308 32.224 186.869 32.084 186.309 32.084C185.814 32.084 185.413 32.2007 185.105 32.434C184.797 32.6673 184.643 32.9567 184.643 33.302C184.643 33.6007 184.732 33.848 184.909 34.044C185.096 34.2307 185.324 34.38 185.595 34.492C185.866 34.5947 186.23 34.7113 186.687 34.842C187.238 34.9913 187.676 35.136 188.003 35.276C188.33 35.416 188.61 35.6213 188.843 35.892C189.076 36.1627 189.198 36.522 189.207 36.97C189.207 37.3807 189.095 37.7493 188.871 38.076C188.647 38.3933 188.334 38.6453 187.933 38.832C187.532 39.0187 187.07 39.112 186.547 39.112ZM192.326 32.182V36.928C192.326 37.3947 192.414 37.7167 192.592 37.894C192.769 38.0713 193.082 38.16 193.53 38.16H194.426V39H193.376C192.685 39 192.172 38.8413 191.836 38.524C191.5 38.1973 191.332 37.6653 191.332 36.928V32.182H190.268V31.356H191.332V29.438H192.326V31.356H194.426V32.182H192.326ZM197.022 32.714C197.237 32.238 197.563 31.8693 198.002 31.608C198.45 31.3467 198.996 31.216 199.64 31.216V32.238H199.374C198.665 32.238 198.095 32.4293 197.666 32.812C197.237 33.1947 197.022 33.834 197.022 34.73V39H196.042V31.356H197.022V32.714ZM208.03 34.786C208.03 35.122 208.021 35.3787 208.002 35.556H201.66C201.688 36.1347 201.828 36.6293 202.08 37.04C202.332 37.4507 202.663 37.7633 203.074 37.978C203.485 38.1833 203.933 38.286 204.418 38.286C205.053 38.286 205.585 38.132 206.014 37.824C206.453 37.516 206.742 37.1007 206.882 36.578H207.918C207.731 37.3247 207.33 37.936 206.714 38.412C206.107 38.8787 205.342 39.112 204.418 39.112C203.699 39.112 203.055 38.9533 202.486 38.636C201.917 38.3093 201.469 37.852 201.142 37.264C200.825 36.6667 200.666 35.9713 200.666 35.178C200.666 34.3847 200.825 33.6893 201.142 33.092C201.459 32.4947 201.903 32.0373 202.472 31.72C203.041 31.4027 203.69 31.244 204.418 31.244C205.146 31.244 205.781 31.4027 206.322 31.72C206.873 32.0373 207.293 32.4667 207.582 33.008C207.881 33.54 208.03 34.1327 208.03 34.786ZM207.036 34.758C207.045 34.1887 206.929 33.7033 206.686 33.302C206.453 32.9007 206.131 32.5973 205.72 32.392C205.309 32.1867 204.861 32.084 204.376 32.084C203.648 32.084 203.027 32.3173 202.514 32.784C202.001 33.2507 201.716 33.9087 201.66 34.758H207.036ZM212.455 39.112C211.578 39.112 210.859 38.9113 210.299 38.51C209.748 38.0993 209.44 37.544 209.375 36.844H210.383C210.43 37.2733 210.63 37.6233 210.985 37.894C211.349 38.1553 211.834 38.286 212.441 38.286C212.973 38.286 213.388 38.16 213.687 37.908C213.995 37.656 214.149 37.3433 214.149 36.97C214.149 36.7087 214.065 36.494 213.897 36.326C213.729 36.158 213.514 36.0273 213.253 35.934C213.001 35.8313 212.656 35.724 212.217 35.612C211.648 35.4627 211.186 35.3133 210.831 35.164C210.476 35.0147 210.173 34.7953 209.921 34.506C209.678 34.2073 209.557 33.8107 209.557 33.316C209.557 32.9427 209.669 32.5973 209.893 32.28C210.117 31.9627 210.434 31.7107 210.845 31.524C211.256 31.3373 211.722 31.244 212.245 31.244C213.066 31.244 213.729 31.454 214.233 31.874C214.737 32.2847 215.008 32.854 215.045 33.582H214.065C214.037 33.134 213.86 32.7747 213.533 32.504C213.216 32.224 212.777 32.084 212.217 32.084C211.722 32.084 211.321 32.2007 211.013 32.434C210.705 32.6673 210.551 32.9567 210.551 33.302C210.551 33.6007 210.64 33.848 210.817 34.044C211.004 34.2307 211.232 34.38 211.503 34.492C211.774 34.5947 212.138 34.7113 212.595 34.842C213.146 34.9913 213.584 35.136 213.911 35.276C214.238 35.416 214.518 35.6213 214.751 35.892C214.984 36.1627 215.106 36.522 215.115 36.97C215.115 37.3807 215.003 37.7493 214.779 38.076C214.555 38.3933 214.242 38.6453 213.841 38.832C213.44 39.0187 212.978 39.112 212.455 39.112ZM219.592 39.112C218.715 39.112 217.996 38.9113 217.436 38.51C216.885 38.0993 216.577 37.544 216.512 36.844H217.52C217.567 37.2733 217.767 37.6233 218.122 37.894C218.486 38.1553 218.971 38.286 219.578 38.286C220.11 38.286 220.525 38.16 220.824 37.908C221.132 37.656 221.286 37.3433 221.286 36.97C221.286 36.7087 221.202 36.494 221.034 36.326C220.866 36.158 220.651 36.0273 220.39 35.934C220.138 35.8313 219.793 35.724 219.354 35.612C218.785 35.4627 218.323 35.3133 217.968 35.164C217.613 35.0147 217.31 34.7953 217.058 34.506C216.815 34.2073 216.694 33.8107 216.694 33.316C216.694 32.9427 216.806 32.5973 217.03 32.28C217.254 31.9627 217.571 31.7107 217.982 31.524C218.393 31.3373 218.859 31.244 219.382 31.244C220.203 31.244 220.866 31.454 221.37 31.874C221.874 32.2847 222.145 32.854 222.182 33.582H221.202C221.174 33.134 220.997 32.7747 220.67 32.504C220.353 32.224 219.914 32.084 219.354 32.084C218.859 32.084 218.458 32.2007 218.15 32.434C217.842 32.6673 217.688 32.9567 217.688 33.302C217.688 33.6007 217.777 33.848 217.954 34.044C218.141 34.2307 218.369 34.38 218.64 34.492C218.911 34.5947 219.275 34.7113 219.732 34.842C220.283 34.9913 220.721 35.136 221.048 35.276C221.375 35.416 221.655 35.6213 221.888 35.892C222.121 36.1627 222.243 36.522 222.252 36.97C222.252 37.3807 222.14 37.7493 221.916 38.076C221.692 38.3933 221.379 38.6453 220.978 38.832C220.577 39.0187 220.115 39.112 219.592 39.112ZM227.107 32.182H225.329V39H224.349V32.182H223.285V31.356H224.349V30.824C224.349 29.9933 224.559 29.382 224.979 28.99C225.408 28.598 226.099 28.402 227.051 28.402V29.242C226.416 29.242 225.968 29.3633 225.707 29.606C225.455 29.8487 225.329 30.2547 225.329 30.824V31.356H227.107V32.182ZM235.271 31.356V39H234.291V37.656C234.067 38.132 233.722 38.496 233.255 38.748C232.789 39 232.266 39.126 231.687 39.126C230.773 39.126 230.026 38.846 229.447 38.286C228.869 37.7167 228.579 36.8953 228.579 35.822V31.356H229.545V35.71C229.545 36.5407 229.751 37.1753 230.161 37.614C230.581 38.0527 231.151 38.272 231.869 38.272C232.607 38.272 233.195 38.0387 233.633 37.572C234.072 37.1053 234.291 36.4193 234.291 35.514V31.356H235.271ZM238.489 28.64V39H237.509V28.64H238.489ZM18.752 60.112C17.8747 60.112 17.156 59.9113 16.596 59.51C16.0453 59.0993 15.7373 58.544 15.672 57.844H16.68C16.7267 58.2733 16.9273 58.6233 17.282 58.894C17.646 59.1553 18.1313 59.286 18.738 59.286C19.27 59.286 19.6853 59.16 19.984 58.908C20.292 58.656 20.446 58.3433 20.446 57.97C20.446 57.7087 20.362 57.494 20.194 57.326C20.026 57.158 19.8113 57.0273 19.55 56.934C19.298 56.8313 18.9527 56.724 18.514 56.612C17.9447 56.4627 17.4827 56.3133 17.128 56.164C16.7733 56.0147 16.47 55.7953 16.218 55.506C15.9753 55.2073 15.854 54.8107 15.854 54.316C15.854 53.9427 15.966 53.5973 16.19 53.28C16.414 52.9627 16.7313 52.7107 17.142 52.524C17.5527 52.3373 18.0193 52.244 18.542 52.244C19.3633 52.244 20.026 52.454 20.53 52.874C21.034 53.2847 21.3047 53.854 21.342 54.582H20.362C20.334 54.134 20.1567 53.7747 19.83 53.504C19.5127 53.224 19.074 53.084 18.514 53.084C18.0193 53.084 17.618 53.2007 17.31 53.434C17.002 53.6673 16.848 53.9567 16.848 54.302C16.848 54.6007 16.9367 54.848 17.114 55.044C17.3007 55.2307 17.5293 55.38 17.8 55.492C18.0707 55.5947 18.4347 55.7113 18.892 55.842C19.4427 55.9913 19.8813 56.136 20.208 56.276C20.5347 56.416 20.8147 56.6213 21.048 56.892C21.2813 57.1627 21.4027 57.522 21.412 57.97C21.412 58.3807 21.3 58.7493 21.076 59.076C20.852 59.3933 20.5393 59.6453 20.138 59.832C19.7367 60.0187 19.2747 60.112 18.752 60.112ZM26.6027 60.112C25.8841 60.112 25.2354 59.9533 24.6567 59.636C24.0874 59.3093 23.6347 58.852 23.2987 58.264C22.9721 57.6667 22.8087 56.9713 22.8087 56.178C22.8087 55.3847 22.9767 54.694 23.3127 54.106C23.6487 53.5087 24.1061 53.0513 24.6847 52.734C25.2634 52.4073 25.9121 52.244 26.6307 52.244C27.3494 52.244 27.9981 52.4073 28.5767 52.734C29.1647 53.0513 29.6221 53.5087 29.9487 54.106C30.2847 54.694 30.4527 55.3847 30.4527 56.178C30.4527 56.962 30.2847 57.6527 29.9487 58.25C29.6127 58.8473 29.1507 59.3093 28.5627 59.636C27.9747 59.9533 27.3214 60.112 26.6027 60.112ZM26.6027 59.258C27.1067 59.258 27.5734 59.146 28.0027 58.922C28.4321 58.6887 28.7774 58.3433 29.0387 57.886C29.3094 57.4193 29.4447 56.85 29.4447 56.178C29.4447 55.506 29.3141 54.9413 29.0527 54.484C28.7914 54.0173 28.4461 53.672 28.0167 53.448C27.5874 53.2147 27.1207 53.098 26.6167 53.098C26.1127 53.098 25.6461 53.2147 25.2167 53.448C24.7874 53.672 24.4421 54.0173 24.1807 54.484C23.9287 54.9413 23.8027 55.506 23.8027 56.178C23.8027 56.85 23.9287 57.4193 24.1807 57.886C24.4421 58.3433 24.7827 58.6887 25.2027 58.922C25.6321 59.146 26.0987 59.258 26.6027 59.258ZM45.1809 52.216C46.0769 52.216 46.8049 52.5007 47.3649 53.07C47.9343 53.63 48.2189 54.4467 48.2189 55.52V60H47.2529V55.632C47.2529 54.8013 47.0523 54.1667 46.6509 53.728C46.2496 53.2893 45.7036 53.07 45.0129 53.07C44.2943 53.07 43.7203 53.308 43.2909 53.784C42.8616 54.26 42.6469 54.9507 42.6469 55.856V60H41.6809V55.632C41.6809 54.8013 41.4803 54.1667 41.0789 53.728C40.6776 53.2893 40.1269 53.07 39.4269 53.07C38.7083 53.07 38.1343 53.308 37.7049 53.784C37.2756 54.26 37.0609 54.9507 37.0609 55.856V60H36.0809V52.356H37.0609V53.672C37.3036 53.196 37.6489 52.8367 38.0969 52.594C38.5449 52.342 39.0443 52.216 39.5949 52.216C40.2576 52.216 40.8363 52.3747 41.3309 52.692C41.8349 53.0093 42.1989 53.476 42.4229 54.092C42.6283 53.4853 42.9783 53.0233 43.4729 52.706C43.9769 52.3793 44.5463 52.216 45.1809 52.216ZM49.9474 56.164C49.9474 55.38 50.1014 54.694 50.4094 54.106C50.7267 53.5087 51.1607 53.0513 51.7114 52.734C52.2714 52.4073 52.9014 52.244 53.6014 52.244C54.3294 52.244 54.9547 52.412 55.4774 52.748C56.0094 53.084 56.3921 53.5133 56.6254 54.036V52.356H57.6054V60H56.6254V58.306C56.3827 58.8287 55.9954 59.2627 55.4634 59.608C54.9407 59.944 54.3154 60.112 53.5874 60.112C52.8967 60.112 52.2714 59.9487 51.7114 59.622C51.1607 59.2953 50.7267 58.8333 50.4094 58.236C50.1014 57.6387 49.9474 56.948 49.9474 56.164ZM56.6254 56.178C56.6254 55.562 56.4994 55.0207 56.2474 54.554C55.9954 54.0873 55.6501 53.728 55.2114 53.476C54.7821 53.224 54.3061 53.098 53.7834 53.098C53.2421 53.098 52.7567 53.2193 52.3274 53.462C51.8981 53.7047 51.5574 54.0593 51.3054 54.526C51.0627 54.9833 50.9414 55.5293 50.9414 56.164C50.9414 56.7893 51.0627 57.34 51.3054 57.816C51.5574 58.2827 51.8981 58.642 52.3274 58.894C52.7567 59.1367 53.2421 59.258 53.7834 59.258C54.3061 59.258 54.7821 59.132 55.2114 58.88C55.6501 58.628 55.9954 58.2687 56.2474 57.802C56.4994 57.3353 56.6254 56.794 56.6254 56.178ZM63.9727 60L60.8227 56.57V60H59.8427V49.64H60.8227V55.772L63.9027 52.356H65.2747L61.6487 56.164L65.3027 60H63.9727ZM73.4852 55.786C73.4852 56.122 73.4759 56.3787 73.4572 56.556H67.1152C67.1432 57.1347 67.2832 57.6293 67.5352 58.04C67.7872 58.4507 68.1186 58.7633 68.5292 58.978C68.9399 59.1833 69.3879 59.286 69.8732 59.286C70.5079 59.286 71.0399 59.132 71.4692 58.824C71.9079 58.516 72.1972 58.1007 72.3372 57.578H73.3732C73.1866 58.3247 72.7852 58.936 72.1692 59.412C71.5626 59.8787 70.7972 60.112 69.8732 60.112C69.1546 60.112 68.5106 59.9533 67.9412 59.636C67.3719 59.3093 66.9239 58.852 66.5972 58.264C66.2799 57.6667 66.1212 56.9713 66.1212 56.178C66.1212 55.3847 66.2799 54.6893 66.5972 54.092C66.9146 53.4947 67.3579 53.0373 67.9272 52.72C68.4966 52.4027 69.1452 52.244 69.8732 52.244C70.6012 52.244 71.2359 52.4027 71.7772 52.72C72.3279 53.0373 72.7479 53.4667 73.0372 54.008C73.3359 54.54 73.4852 55.1327 73.4852 55.786ZM72.4912 55.758C72.5006 55.1887 72.3839 54.7033 72.1412 54.302C71.9079 53.9007 71.5859 53.5973 71.1752 53.392C70.7646 53.1867 70.3166 53.084 69.8312 53.084C69.1032 53.084 68.4826 53.3173 67.9692 53.784C67.4559 54.2507 67.1712 54.9087 67.1152 55.758H72.4912ZM81.752 60.112C80.8747 60.112 80.156 59.9113 79.596 59.51C79.0453 59.0993 78.7373 58.544 78.672 57.844H79.68C79.7267 58.2733 79.9273 58.6233 80.282 58.894C80.646 59.1553 81.1313 59.286 81.738 59.286C82.27 59.286 82.6853 59.16 82.984 58.908C83.292 58.656 83.446 58.3433 83.446 57.97C83.446 57.7087 83.362 57.494 83.194 57.326C83.026 57.158 82.8113 57.0273 82.55 56.934C82.298 56.8313 81.9527 56.724 81.514 56.612C80.9447 56.4627 80.4827 56.3133 80.128 56.164C79.7733 56.0147 79.47 55.7953 79.218 55.506C78.9753 55.2073 78.854 54.8107 78.854 54.316C78.854 53.9427 78.966 53.5973 79.19 53.28C79.414 52.9627 79.7313 52.7107 80.142 52.524C80.5527 52.3373 81.0193 52.244 81.542 52.244C82.3633 52.244 83.026 52.454 83.53 52.874C84.034 53.2847 84.3047 53.854 84.342 54.582H83.362C83.334 54.134 83.1567 53.7747 82.83 53.504C82.5127 53.224 82.074 53.084 81.514 53.084C81.0193 53.084 80.618 53.2007 80.31 53.434C80.002 53.6673 79.848 53.9567 79.848 54.302C79.848 54.6007 79.9367 54.848 80.114 55.044C80.3007 55.2307 80.5293 55.38 80.8 55.492C81.0707 55.5947 81.4347 55.7113 81.892 55.842C82.4427 55.9913 82.8813 56.136 83.208 56.276C83.5347 56.416 83.8147 56.6213 84.048 56.892C84.2813 57.1627 84.4027 57.522 84.412 57.97C84.412 58.3807 84.3 58.7493 84.076 59.076C83.852 59.3933 83.5393 59.6453 83.138 59.832C82.7367 60.0187 82.2747 60.112 81.752 60.112ZM92.8787 52.356V60H91.8987V58.656C91.6747 59.132 91.3294 59.496 90.8627 59.748C90.3961 60 89.8734 60.126 89.2947 60.126C88.3801 60.126 87.6334 59.846 87.0547 59.286C86.4761 58.7167 86.1867 57.8953 86.1867 56.822V52.356H87.1527V56.71C87.1527 57.5407 87.3581 58.1753 87.7687 58.614C88.1887 59.0527 88.7581 59.272 89.4767 59.272C90.2141 59.272 90.8021 59.0387 91.2407 58.572C91.6794 58.1053 91.8987 57.4193 91.8987 56.514V52.356H92.8787ZM96.0961 53.714C96.3108 53.238 96.6374 52.8693 97.0761 52.608C97.5241 52.3467 98.0701 52.216 98.7141 52.216V53.238H98.4481C97.7388 53.238 97.1694 53.4293 96.7401 53.812C96.3108 54.1947 96.0961 54.834 96.0961 55.73V60H95.1161V52.356H96.0961V53.714ZM107.104 55.786C107.104 56.122 107.095 56.3787 107.076 56.556H100.734C100.762 57.1347 100.902 57.6293 101.154 58.04C101.406 58.4507 101.738 58.7633 102.148 58.978C102.559 59.1833 103.007 59.286 103.492 59.286C104.127 59.286 104.659 59.132 105.088 58.824C105.527 58.516 105.816 58.1007 105.956 57.578H106.992C106.806 58.3247 106.404 58.936 105.788 59.412C105.182 59.8787 104.416 60.112 103.492 60.112C102.774 60.112 102.13 59.9533 101.56 59.636C100.991 59.3093 100.543 58.852 100.216 58.264C99.899 57.6667 99.7404 56.9713 99.7404 56.178C99.7404 55.3847 99.899 54.6893 100.216 54.092C100.534 53.4947 100.977 53.0373 101.546 52.72C102.116 52.4027 102.764 52.244 103.492 52.244C104.22 52.244 104.855 52.4027 105.396 52.72C105.947 53.0373 106.367 53.4667 106.656 54.008C106.955 54.54 107.104 55.1327 107.104 55.786ZM106.11 55.758C106.12 55.1887 106.003 54.7033 105.76 54.302C105.527 53.9007 105.205 53.5973 104.794 53.392C104.384 53.1867 103.936 53.084 103.45 53.084C102.722 53.084 102.102 53.3173 101.588 53.784C101.075 54.2507 100.79 54.9087 100.734 55.758H106.11ZM119.039 52.356L114.503 63.598H113.481L114.965 59.958L111.829 52.356H112.907L115.511 58.88L118.031 52.356H119.039ZM123.714 60.112C122.995 60.112 122.347 59.9533 121.768 59.636C121.199 59.3093 120.746 58.852 120.41 58.264C120.083 57.6667 119.92 56.9713 119.92 56.178C119.92 55.3847 120.088 54.694 120.424 54.106C120.76 53.5087 121.217 53.0513 121.796 52.734C122.375 52.4073 123.023 52.244 123.742 52.244C124.461 52.244 125.109 52.4073 125.688 52.734C126.276 53.0513 126.733 53.5087 127.06 54.106C127.396 54.694 127.564 55.3847 127.564 56.178C127.564 56.962 127.396 57.6527 127.06 58.25C126.724 58.8473 126.262 59.3093 125.674 59.636C125.086 59.9533 124.433 60.112 123.714 60.112ZM123.714 59.258C124.218 59.258 124.685 59.146 125.114 58.922C125.543 58.6887 125.889 58.3433 126.15 57.886C126.421 57.4193 126.556 56.85 126.556 56.178C126.556 55.506 126.425 54.9413 126.164 54.484C125.903 54.0173 125.557 53.672 125.128 53.448C124.699 53.2147 124.232 53.098 123.728 53.098C123.224 53.098 122.757 53.2147 122.328 53.448C121.899 53.672 121.553 54.0173 121.292 54.484C121.04 54.9413 120.914 55.506 120.914 56.178C120.914 56.85 121.04 57.4193 121.292 57.886C121.553 58.3433 121.894 58.6887 122.314 58.922C122.743 59.146 123.21 59.258 123.714 59.258ZM135.972 52.356V60H134.992V58.656C134.768 59.132 134.423 59.496 133.956 59.748C133.49 60 132.967 60.126 132.388 60.126C131.474 60.126 130.727 59.846 130.148 59.286C129.57 58.7167 129.28 57.8953 129.28 56.822V52.356H130.246V56.71C130.246 57.5407 130.452 58.1753 130.862 58.614C131.282 59.0527 131.852 59.272 132.57 59.272C133.308 59.272 133.896 59.0387 134.334 58.572C134.773 58.1053 134.992 57.4193 134.992 56.514V52.356H135.972ZM145.692 52.216C146.27 52.216 146.788 52.3373 147.246 52.58C147.712 52.8227 148.076 53.196 148.338 53.7C148.608 54.1947 148.744 54.8013 148.744 55.52V60H147.778V55.632C147.778 54.8013 147.568 54.1667 147.148 53.728C146.737 53.2893 146.172 53.07 145.454 53.07C144.716 53.07 144.128 53.3033 143.69 53.77C143.251 54.2367 143.032 54.9227 143.032 55.828V60H142.052V49.64H143.032V53.658C143.274 53.2007 143.629 52.846 144.096 52.594C144.572 52.342 145.104 52.216 145.692 52.216ZM150.463 56.164C150.463 55.38 150.617 54.694 150.925 54.106C151.242 53.5087 151.676 53.0513 152.227 52.734C152.787 52.4073 153.417 52.244 154.117 52.244C154.845 52.244 155.47 52.412 155.993 52.748C156.525 53.084 156.908 53.5133 157.141 54.036V52.356H158.121V60H157.141V58.306C156.898 58.8287 156.511 59.2627 155.979 59.608C155.456 59.944 154.831 60.112 154.103 60.112C153.412 60.112 152.787 59.9487 152.227 59.622C151.676 59.2953 151.242 58.8333 150.925 58.236C150.617 57.6387 150.463 56.948 150.463 56.164ZM157.141 56.178C157.141 55.562 157.015 55.0207 156.763 54.554C156.511 54.0873 156.166 53.728 155.727 53.476C155.298 53.224 154.822 53.098 154.299 53.098C153.758 53.098 153.272 53.2193 152.843 53.462C152.414 53.7047 152.073 54.0593 151.821 54.526C151.578 54.9833 151.457 55.5293 151.457 56.164C151.457 56.7893 151.578 57.34 151.821 57.816C152.073 58.2827 152.414 58.642 152.843 58.894C153.272 59.1367 153.758 59.258 154.299 59.258C154.822 59.258 155.298 59.132 155.727 58.88C156.166 58.628 156.511 58.2687 156.763 57.802C157.015 57.3353 157.141 56.794 157.141 56.178ZM163.074 59.048L165.65 52.356H166.686L163.62 60H162.514L159.448 52.356H160.498L163.074 59.048ZM174.931 55.786C174.931 56.122 174.921 56.3787 174.903 56.556H168.561C168.589 57.1347 168.729 57.6293 168.981 58.04C169.233 58.4507 169.564 58.7633 169.975 58.978C170.385 59.1833 170.833 59.286 171.319 59.286C171.953 59.286 172.485 59.132 172.915 58.824C173.353 58.516 173.643 58.1007 173.783 57.578H174.819C174.632 58.3247 174.231 58.936 173.615 59.412C173.008 59.8787 172.243 60.112 171.319 60.112C170.6 60.112 169.956 59.9533 169.387 59.636C168.817 59.3093 168.369 58.852 168.043 58.264C167.725 57.6667 167.567 56.9713 167.567 56.178C167.567 55.3847 167.725 54.6893 168.043 54.092C168.36 53.4947 168.803 53.0373 169.373 52.72C169.942 52.4027 170.591 52.244 171.319 52.244C172.047 52.244 172.681 52.4027 173.223 52.72C173.773 53.0373 174.193 53.4667 174.483 54.008C174.781 54.54 174.931 55.1327 174.931 55.786ZM173.937 55.758C173.946 55.1887 173.829 54.7033 173.587 54.302C173.353 53.9007 173.031 53.5973 172.621 53.392C172.21 53.1867 171.762 53.084 171.277 53.084C170.549 53.084 169.928 53.3173 169.415 53.784C168.901 54.2507 168.617 54.9087 168.561 55.758H173.937ZM187.481 55.786C187.481 56.122 187.472 56.3787 187.453 56.556H181.111C181.139 57.1347 181.279 57.6293 181.531 58.04C181.783 58.4507 182.115 58.7633 182.525 58.978C182.936 59.1833 183.384 59.286 183.869 59.286C184.504 59.286 185.036 59.132 185.465 58.824C185.904 58.516 186.193 58.1007 186.333 57.578H187.369C187.183 58.3247 186.781 58.936 186.165 59.412C185.559 59.8787 184.793 60.112 183.869 60.112C183.151 60.112 182.507 59.9533 181.937 59.636C181.368 59.3093 180.92 58.852 180.593 58.264C180.276 57.6667 180.117 56.9713 180.117 56.178C180.117 55.3847 180.276 54.6893 180.593 54.092C180.911 53.4947 181.354 53.0373 181.923 52.72C182.493 52.4027 183.141 52.244 183.869 52.244C184.597 52.244 185.232 52.4027 185.773 52.72C186.324 53.0373 186.744 53.4667 187.033 54.008C187.332 54.54 187.481 55.1327 187.481 55.786ZM186.487 55.758C186.497 55.1887 186.38 54.7033 186.137 54.302C185.904 53.9007 185.582 53.5973 185.171 53.392C184.761 53.1867 184.313 53.084 183.827 53.084C183.099 53.084 182.479 53.3173 181.965 53.784C181.452 54.2507 181.167 54.9087 181.111 55.758H186.487ZM192.858 52.216C193.773 52.216 194.52 52.5007 195.098 53.07C195.677 53.63 195.966 54.4467 195.966 55.52V60H195V55.632C195 54.8013 194.79 54.1667 194.37 53.728C193.96 53.2893 193.395 53.07 192.676 53.07C191.939 53.07 191.351 53.3033 190.912 53.77C190.474 54.2367 190.254 54.9227 190.254 55.828V60H189.274V52.356H190.254V53.658C190.497 53.1913 190.847 52.8367 191.304 52.594C191.762 52.342 192.28 52.216 192.858 52.216ZM201.48 60.112C200.761 60.112 200.112 59.9533 199.534 59.636C198.964 59.3093 198.512 58.852 198.176 58.264C197.849 57.6667 197.686 56.9713 197.686 56.178C197.686 55.3847 197.854 54.694 198.19 54.106C198.526 53.5087 198.983 53.0513 199.562 52.734C200.14 52.4073 200.789 52.244 201.508 52.244C202.226 52.244 202.875 52.4073 203.454 52.734C204.042 53.0513 204.499 53.5087 204.826 54.106C205.162 54.694 205.33 55.3847 205.33 56.178C205.33 56.962 205.162 57.6527 204.826 58.25C204.49 58.8473 204.028 59.3093 203.44 59.636C202.852 59.9533 202.198 60.112 201.48 60.112ZM201.48 59.258C201.984 59.258 202.45 59.146 202.88 58.922C203.309 58.6887 203.654 58.3433 203.916 57.886C204.186 57.4193 204.322 56.85 204.322 56.178C204.322 55.506 204.191 54.9413 203.93 54.484C203.668 54.0173 203.323 53.672 202.894 53.448C202.464 53.2147 201.998 53.098 201.494 53.098C200.99 53.098 200.523 53.2147 200.094 53.448C199.664 53.672 199.319 54.0173 199.058 54.484C198.806 54.9413 198.68 55.506 198.68 56.178C198.68 56.85 198.806 57.4193 199.058 57.886C199.319 58.3433 199.66 58.6887 200.08 58.922C200.509 59.146 200.976 59.258 201.48 59.258ZM213.738 52.356V60H212.758V58.656C212.534 59.132 212.189 59.496 211.722 59.748C211.255 60 210.733 60.126 210.154 60.126C209.239 60.126 208.493 59.846 207.914 59.286C207.335 58.7167 207.046 57.8953 207.046 56.822V52.356H208.012V56.71C208.012 57.5407 208.217 58.1753 208.628 58.614C209.048 59.0527 209.617 59.272 210.336 59.272C211.073 59.272 211.661 59.0387 212.1 58.572C212.539 58.1053 212.758 57.4193 212.758 56.514V52.356H213.738ZM219.181 52.244C219.9 52.244 220.525 52.412 221.057 52.748C221.589 53.084 221.972 53.5087 222.205 54.022V52.356H223.185V60.196C223.185 60.896 223.031 61.5167 222.723 62.058C222.425 62.5993 222.005 63.0147 221.463 63.304C220.922 63.6027 220.306 63.752 219.615 63.752C218.635 63.752 217.819 63.5187 217.165 63.052C216.521 62.5853 216.12 61.9507 215.961 61.148H216.927C217.095 61.68 217.413 62.1047 217.879 62.422C218.355 62.7393 218.934 62.898 219.615 62.898C220.11 62.898 220.553 62.7907 220.945 62.576C221.337 62.3707 221.645 62.0627 221.869 61.652C222.093 61.2413 222.205 60.756 222.205 60.196V58.306C221.963 58.8287 221.575 59.2627 221.043 59.608C220.521 59.944 219.9 60.112 219.181 60.112C218.481 60.112 217.851 59.9487 217.291 59.622C216.741 59.2953 216.307 58.8333 215.989 58.236C215.681 57.6387 215.527 56.948 215.527 56.164C215.527 55.38 215.681 54.694 215.989 54.106C216.307 53.5087 216.741 53.0513 217.291 52.734C217.851 52.4073 218.481 52.244 219.181 52.244ZM222.205 56.178C222.205 55.562 222.079 55.0207 221.827 54.554C221.575 54.0873 221.23 53.728 220.791 53.476C220.362 53.224 219.886 53.098 219.363 53.098C218.822 53.098 218.337 53.2193 217.907 53.462C217.478 53.7047 217.137 54.0593 216.885 54.526C216.643 54.9833 216.521 55.5293 216.521 56.164C216.521 56.7893 216.643 57.34 216.885 57.816C217.137 58.2827 217.478 58.642 217.907 58.894C218.337 59.1367 218.822 59.258 219.363 59.258C219.886 59.258 220.362 59.132 220.791 58.88C221.23 58.628 221.575 58.2687 221.827 57.802C222.079 57.3353 222.205 56.794 222.205 56.178ZM229.063 52.216C229.641 52.216 230.159 52.3373 230.617 52.58C231.083 52.8227 231.447 53.196 231.709 53.7C231.979 54.1947 232.115 54.8013 232.115 55.52V60H231.149V55.632C231.149 54.8013 230.939 54.1667 230.519 53.728C230.108 53.2893 229.543 53.07 228.825 53.07C228.087 53.07 227.499 53.3033 227.061 53.77C226.622 54.2367 226.403 54.9227 226.403 55.828V60H225.423V49.64H226.403V53.658C226.645 53.2007 227 52.846 227.467 52.594C227.943 52.342 228.475 52.216 229.063 52.216ZM18.752 81.112C17.8747 81.112 17.156 80.9113 16.596 80.51C16.0453 80.0993 15.7373 79.544 15.672 78.844H16.68C16.7267 79.2733 16.9273 79.6233 17.282 79.894C17.646 80.1553 18.1313 80.286 18.738 80.286C19.27 80.286 19.6853 80.16 19.984 79.908C20.292 79.656 20.446 79.3433 20.446 78.97C20.446 78.7087 20.362 78.494 20.194 78.326C20.026 78.158 19.8113 78.0273 19.55 77.934C19.298 77.8313 18.9527 77.724 18.514 77.612C17.9447 77.4627 17.4827 77.3133 17.128 77.164C16.7733 77.0147 16.47 76.7953 16.218 76.506C15.9753 76.2073 15.854 75.8107 15.854 75.316C15.854 74.9427 15.966 74.5973 16.19 74.28C16.414 73.9627 16.7313 73.7107 17.142 73.524C17.5527 73.3373 18.0193 73.244 18.542 73.244C19.3633 73.244 20.026 73.454 20.53 73.874C21.034 74.2847 21.3047 74.854 21.342 75.582H20.362C20.334 75.134 20.1567 74.7747 19.83 74.504C19.5127 74.224 19.074 74.084 18.514 74.084C18.0193 74.084 17.618 74.2007 17.31 74.434C17.002 74.6673 16.848 74.9567 16.848 75.302C16.848 75.6007 16.9367 75.848 17.114 76.044C17.3007 76.2307 17.5293 76.38 17.8 76.492C18.0707 76.5947 18.4347 76.7113 18.892 76.842C19.4427 76.9913 19.8813 77.136 20.208 77.276C20.5347 77.416 20.8147 77.6213 21.048 77.892C21.2813 78.1627 21.4027 78.522 21.412 78.97C21.412 79.3807 21.3 79.7493 21.076 80.076C20.852 80.3933 20.5393 80.6453 20.138 80.832C19.7367 81.0187 19.2747 81.112 18.752 81.112ZM29.8787 73.356V81H28.8987V79.656C28.6747 80.132 28.3294 80.496 27.8627 80.748C27.3961 81 26.8734 81.126 26.2947 81.126C25.3801 81.126 24.6334 80.846 24.0547 80.286C23.4761 79.7167 23.1867 78.8953 23.1867 77.822V73.356H24.1527V77.71C24.1527 78.5407 24.3581 79.1753 24.7687 79.614C25.1887 80.0527 25.7581 80.272 26.4767 80.272C27.2141 80.272 27.8021 80.0387 28.2407 79.572C28.6794 79.1053 28.8987 78.4193 28.8987 77.514V73.356H29.8787ZM33.0821 75.036C33.3248 74.5227 33.7074 74.098 34.2301 73.762C34.7621 73.4167 35.3921 73.244 36.1201 73.244C36.8108 73.244 37.4314 73.4073 37.9821 73.734C38.5421 74.0513 38.9761 74.5087 39.2841 75.106C39.6014 75.694 39.7601 76.38 39.7601 77.164C39.7601 77.948 39.6014 78.6387 39.2841 79.236C38.9761 79.8333 38.5421 80.2953 37.9821 80.622C37.4314 80.9487 36.8108 81.112 36.1201 81.112C35.4014 81.112 34.7761 80.944 34.2441 80.608C33.7121 80.2627 33.3248 79.8333 33.0821 79.32V84.612H32.1161V73.356H33.0821V75.036ZM38.7661 77.164C38.7661 76.5293 38.6401 75.9833 38.3881 75.526C38.1454 75.0593 37.8094 74.7047 37.3801 74.462C36.9508 74.2193 36.4654 74.098 35.9241 74.098C35.4014 74.098 34.9208 74.224 34.4821 74.476C34.0528 74.728 33.7121 75.0873 33.4601 75.554C33.2081 76.0207 33.0821 76.562 33.0821 77.178C33.0821 77.794 33.2081 78.3353 33.4601 78.802C33.7121 79.2687 34.0528 79.628 34.4821 79.88C34.9208 80.132 35.4014 80.258 35.9241 80.258C36.4654 80.258 36.9508 80.1367 37.3801 79.894C37.8094 79.642 38.1454 79.2827 38.3881 78.816C38.6401 78.34 38.7661 77.7893 38.7661 77.164ZM42.5294 75.036C42.772 74.5227 43.1547 74.098 43.6774 73.762C44.2094 73.4167 44.8394 73.244 45.5674 73.244C46.258 73.244 46.8787 73.4073 47.4294 73.734C47.9894 74.0513 48.4234 74.5087 48.7314 75.106C49.0487 75.694 49.2074 76.38 49.2074 77.164C49.2074 77.948 49.0487 78.6387 48.7314 79.236C48.4234 79.8333 47.9894 80.2953 47.4294 80.622C46.8787 80.9487 46.258 81.112 45.5674 81.112C44.8487 81.112 44.2234 80.944 43.6914 80.608C43.1594 80.2627 42.772 79.8333 42.5294 79.32V84.612H41.5634V73.356H42.5294V75.036ZM48.2134 77.164C48.2134 76.5293 48.0874 75.9833 47.8354 75.526C47.5927 75.0593 47.2567 74.7047 46.8274 74.462C46.398 74.2193 45.9127 74.098 45.3714 74.098C44.8487 74.098 44.368 74.224 43.9294 74.476C43.5 74.728 43.1594 75.0873 42.9074 75.554C42.6554 76.0207 42.5294 76.562 42.5294 77.178C42.5294 77.794 42.6554 78.3353 42.9074 78.802C43.1594 79.2687 43.5 79.628 43.9294 79.88C44.368 80.132 44.8487 80.258 45.3714 80.258C45.9127 80.258 46.398 80.1367 46.8274 79.894C47.2567 79.642 47.5927 79.2827 47.8354 78.816C48.0874 78.34 48.2134 77.7893 48.2134 77.164ZM54.3566 81.112C53.638 81.112 52.9893 80.9533 52.4106 80.636C51.8413 80.3093 51.3886 79.852 51.0526 79.264C50.726 78.6667 50.5626 77.9713 50.5626 77.178C50.5626 76.3847 50.7306 75.694 51.0666 75.106C51.4026 74.5087 51.86 74.0513 52.4386 73.734C53.0173 73.4073 53.666 73.244 54.3846 73.244C55.1033 73.244 55.752 73.4073 56.3306 73.734C56.9186 74.0513 57.376 74.5087 57.7026 75.106C58.0386 75.694 58.2066 76.3847 58.2066 77.178C58.2066 77.962 58.0386 78.6527 57.7026 79.25C57.3666 79.8473 56.9046 80.3093 56.3166 80.636C55.7286 80.9533 55.0753 81.112 54.3566 81.112ZM54.3566 80.258C54.8606 80.258 55.3273 80.146 55.7566 79.922C56.186 79.6887 56.5313 79.3433 56.7926 78.886C57.0633 78.4193 57.1986 77.85 57.1986 77.178C57.1986 76.506 57.068 75.9413 56.8066 75.484C56.5453 75.0173 56.2 74.672 55.7706 74.448C55.3413 74.2147 54.8746 74.098 54.3706 74.098C53.8666 74.098 53.4 74.2147 52.9706 74.448C52.5413 74.672 52.196 75.0173 51.9346 75.484C51.6826 75.9413 51.5566 76.506 51.5566 77.178C51.5566 77.85 51.6826 78.4193 51.9346 78.886C52.196 79.3433 52.5366 79.6887 52.9566 79.922C53.386 80.146 53.8526 80.258 54.3566 80.258ZM60.973 74.714C61.1877 74.238 61.5144 73.8693 61.953 73.608C62.401 73.3467 62.947 73.216 63.591 73.216V74.238H63.325C62.6157 74.238 62.0464 74.4293 61.617 74.812C61.1877 75.1947 60.973 75.834 60.973 76.73V81H59.993V73.356H60.973V74.714ZM66.3393 74.182V78.928C66.3393 79.3947 66.428 79.7167 66.6053 79.894C66.7826 80.0713 67.0953 80.16 67.5433 80.16H68.4393V81H67.3893C66.6986 81 66.1853 80.8413 65.8493 80.524C65.5133 80.1973 65.3453 79.6653 65.3453 78.928V74.182H64.2813V73.356H65.3453V71.438H66.3393V73.356H68.4393V74.182H66.3393ZM73.4493 77.164C73.4493 76.38 73.6033 75.694 73.9113 75.106C74.2287 74.5087 74.6627 74.0513 75.2133 73.734C75.7733 73.4073 76.4033 73.244 77.1033 73.244C77.8313 73.244 78.4567 73.412 78.9793 73.748C79.5113 74.084 79.894 74.5133 80.1273 75.036V73.356H81.1073V81H80.1273V79.306C79.8847 79.8287 79.4973 80.2627 78.9653 80.608C78.4427 80.944 77.8173 81.112 77.0893 81.112C76.3987 81.112 75.7733 80.9487 75.2133 80.622C74.6627 80.2953 74.2287 79.8333 73.9113 79.236C73.6033 78.6387 73.4493 77.948 73.4493 77.164ZM80.1273 77.178C80.1273 76.562 80.0013 76.0207 79.7493 75.554C79.4973 75.0873 79.152 74.728 78.7133 74.476C78.284 74.224 77.808 74.098 77.2853 74.098C76.744 74.098 76.2587 74.2193 75.8293 74.462C75.4 74.7047 75.0593 75.0593 74.8073 75.526C74.5647 75.9833 74.4433 76.5293 74.4433 77.164C74.4433 77.7893 74.5647 78.34 74.8073 78.816C75.0593 79.2827 75.4 79.642 75.8293 79.894C76.2587 80.1367 76.744 80.258 77.2853 80.258C77.808 80.258 78.284 80.132 78.7133 79.88C79.152 79.628 79.4973 79.2687 79.7493 78.802C80.0013 78.3353 80.1273 77.794 80.1273 77.178ZM84.3246 74.714C84.5393 74.238 84.8659 73.8693 85.3046 73.608C85.7526 73.3467 86.2986 73.216 86.9426 73.216V74.238H86.6766C85.9673 74.238 85.3979 74.4293 84.9686 74.812C84.5393 75.1947 84.3246 75.834 84.3246 76.73V81H83.3446V73.356H84.3246V74.714ZM91.7629 81.112C91.0442 81.112 90.3955 80.9533 89.8169 80.636C89.2475 80.3093 88.7949 79.852 88.4589 79.264C88.1322 78.6667 87.9689 77.9713 87.9689 77.178C87.9689 76.3847 88.1369 75.694 88.4729 75.106C88.8089 74.5087 89.2662 74.0513 89.8449 73.734C90.4235 73.4073 91.0722 73.244 91.7909 73.244C92.5095 73.244 93.1582 73.4073 93.7369 73.734C94.3249 74.0513 94.7822 74.5087 95.1089 75.106C95.4449 75.694 95.6129 76.3847 95.6129 77.178C95.6129 77.962 95.4449 78.6527 95.1089 79.25C94.7729 79.8473 94.3109 80.3093 93.7229 80.636C93.1349 80.9533 92.4815 81.112 91.7629 81.112ZM91.7629 80.258C92.2669 80.258 92.7335 80.146 93.1629 79.922C93.5922 79.6887 93.9375 79.3433 94.1989 78.886C94.4695 78.4193 94.6049 77.85 94.6049 77.178C94.6049 76.506 94.4742 75.9413 94.2129 75.484C93.9515 75.0173 93.6062 74.672 93.1769 74.448C92.7475 74.2147 92.2809 74.098 91.7769 74.098C91.2729 74.098 90.8062 74.2147 90.3769 74.448C89.9475 74.672 89.6022 75.0173 89.3409 75.484C89.0889 75.9413 88.9629 76.506 88.9629 77.178C88.9629 77.85 89.0889 78.4193 89.3409 78.886C89.6022 79.3433 89.9429 79.6887 90.3629 79.922C90.7922 80.146 91.2589 80.258 91.7629 80.258ZM104.021 73.356V81H103.041V79.656C102.817 80.132 102.472 80.496 102.005 80.748C101.539 81 101.016 81.126 100.437 81.126C99.5226 81.126 98.776 80.846 98.1973 80.286C97.6186 79.7167 97.3293 78.8953 97.3293 77.822V73.356H98.2953V77.71C98.2953 78.5407 98.5006 79.1753 98.9113 79.614C99.3313 80.0527 99.9006 80.272 100.619 80.272C101.357 80.272 101.945 80.0387 102.383 79.572C102.822 79.1053 103.041 78.4193 103.041 77.514V73.356H104.021ZM109.843 73.216C110.757 73.216 111.504 73.5007 112.083 74.07C112.661 74.63 112.951 75.4467 112.951 76.52V81H111.985V76.632C111.985 75.8013 111.775 75.1667 111.355 74.728C110.944 74.2893 110.379 74.07 109.661 74.07C108.923 74.07 108.335 74.3033 107.897 74.77C107.458 75.2367 107.239 75.9227 107.239 76.828V81H106.259V73.356H107.239V74.658C107.481 74.1913 107.831 73.8367 108.289 73.594C108.746 73.342 109.264 73.216 109.843 73.216ZM114.67 77.164C114.67 76.38 114.829 75.694 115.146 75.106C115.463 74.5087 115.897 74.0513 116.448 73.734C117.008 73.4073 117.638 73.244 118.338 73.244C119.01 73.244 119.617 73.4073 120.158 73.734C120.699 74.0607 121.096 74.4853 121.348 75.008V70.64H122.328V81H121.348V79.292C121.115 79.824 120.732 80.2627 120.2 80.608C119.668 80.944 119.043 81.112 118.324 81.112C117.624 81.112 116.994 80.9487 116.434 80.622C115.883 80.2953 115.449 79.8333 115.132 79.236C114.824 78.6387 114.67 77.948 114.67 77.164ZM121.348 77.178C121.348 76.562 121.222 76.0207 120.97 75.554C120.718 75.0873 120.373 74.728 119.934 74.476C119.505 74.224 119.029 74.098 118.506 74.098C117.965 74.098 117.479 74.2193 117.05 74.462C116.621 74.7047 116.28 75.0593 116.028 75.526C115.785 75.9833 115.664 76.5293 115.664 77.164C115.664 77.7893 115.785 78.34 116.028 78.816C116.28 79.2827 116.621 79.642 117.05 79.894C117.479 80.1367 117.965 80.258 118.506 80.258C119.029 80.258 119.505 80.132 119.934 79.88C120.373 79.628 120.718 79.2687 120.97 78.802C121.222 78.3353 121.348 77.794 121.348 77.178ZM124.733 81.07C124.528 81.07 124.355 81 124.215 80.86C124.085 80.72 124.019 80.5473 124.019 80.342C124.019 80.1367 124.085 79.9687 124.215 79.838C124.355 79.698 124.528 79.628 124.733 79.628C124.929 79.628 125.093 79.698 125.223 79.838C125.363 79.9687 125.433 80.1367 125.433 80.342C125.433 80.5473 125.363 80.72 125.223 80.86C125.093 81 124.929 81.07 124.733 81.07ZM136.676 71.214V72.026H133.96V81H132.98V72.026H130.25V71.214H136.676ZM141.864 73.216C142.442 73.216 142.96 73.3373 143.418 73.58C143.884 73.8227 144.248 74.196 144.51 74.7C144.78 75.1947 144.916 75.8013 144.916 76.52V81H143.95V76.632C143.95 75.8013 143.74 75.1667 143.32 74.728C142.909 74.2893 142.344 74.07 141.626 74.07C140.888 74.07 140.3 74.3033 139.862 74.77C139.423 75.2367 139.204 75.9227 139.204 76.828V81H138.224V70.64H139.204V74.658C139.446 74.2007 139.801 73.846 140.268 73.594C140.744 73.342 141.276 73.216 141.864 73.216ZM147.573 71.914C147.377 71.914 147.209 71.844 147.069 71.704C146.929 71.564 146.859 71.3913 146.859 71.186C146.859 70.9807 146.929 70.8127 147.069 70.682C147.209 70.542 147.377 70.472 147.573 70.472C147.769 70.472 147.937 70.542 148.077 70.682C148.217 70.8127 148.287 70.9807 148.287 71.186C148.287 71.3913 148.217 71.564 148.077 71.704C147.937 71.844 147.769 71.914 147.573 71.914ZM148.063 73.356V81H147.083V73.356H148.063ZM152.914 81.112C152.037 81.112 151.318 80.9113 150.758 80.51C150.207 80.0993 149.899 79.544 149.834 78.844H150.842C150.889 79.2733 151.089 79.6233 151.444 79.894C151.808 80.1553 152.293 80.286 152.9 80.286C153.432 80.286 153.847 80.16 154.146 79.908C154.454 79.656 154.608 79.3433 154.608 78.97C154.608 78.7087 154.524 78.494 154.356 78.326C154.188 78.158 153.973 78.0273 153.712 77.934C153.46 77.8313 153.115 77.724 152.676 77.612C152.107 77.4627 151.645 77.3133 151.29 77.164C150.935 77.0147 150.632 76.7953 150.38 76.506C150.137 76.2073 150.016 75.8107 150.016 75.316C150.016 74.9427 150.128 74.5973 150.352 74.28C150.576 73.9627 150.893 73.7107 151.304 73.524C151.715 73.3373 152.181 73.244 152.704 73.244C153.525 73.244 154.188 73.454 154.692 73.874C155.196 74.2847 155.467 74.854 155.504 75.582H154.524C154.496 75.134 154.319 74.7747 153.992 74.504C153.675 74.224 153.236 74.084 152.676 74.084C152.181 74.084 151.78 74.2007 151.472 74.434C151.164 74.6673 151.01 74.9567 151.01 75.302C151.01 75.6007 151.099 75.848 151.276 76.044C151.463 76.2307 151.691 76.38 151.962 76.492C152.233 76.5947 152.597 76.7113 153.054 76.842C153.605 76.9913 154.043 77.136 154.37 77.276C154.697 77.416 154.977 77.6213 155.21 77.892C155.443 78.1627 155.565 78.522 155.574 78.97C155.574 79.3807 155.462 79.7493 155.238 80.076C155.014 80.3933 154.701 80.6453 154.3 80.832C153.899 81.0187 153.437 81.112 152.914 81.112ZM161.751 71.914C161.555 71.914 161.387 71.844 161.247 71.704C161.107 71.564 161.037 71.3913 161.037 71.186C161.037 70.9807 161.107 70.8127 161.247 70.682C161.387 70.542 161.555 70.472 161.751 70.472C161.947 70.472 162.115 70.542 162.255 70.682C162.395 70.8127 162.465 70.9807 162.465 71.186C162.465 71.3913 162.395 71.564 162.255 71.704C162.115 71.844 161.947 71.914 161.751 71.914ZM162.241 73.356V81H161.261V73.356H162.241ZM167.092 81.112C166.215 81.112 165.496 80.9113 164.936 80.51C164.385 80.0993 164.077 79.544 164.012 78.844H165.02C165.067 79.2733 165.267 79.6233 165.622 79.894C165.986 80.1553 166.471 80.286 167.078 80.286C167.61 80.286 168.025 80.16 168.324 79.908C168.632 79.656 168.786 79.3433 168.786 78.97C168.786 78.7087 168.702 78.494 168.534 78.326C168.366 78.158 168.151 78.0273 167.89 77.934C167.638 77.8313 167.293 77.724 166.854 77.612C166.285 77.4627 165.823 77.3133 165.468 77.164C165.113 77.0147 164.81 76.7953 164.558 76.506C164.315 76.2073 164.194 75.8107 164.194 75.316C164.194 74.9427 164.306 74.5973 164.53 74.28C164.754 73.9627 165.071 73.7107 165.482 73.524C165.893 73.3373 166.359 73.244 166.882 73.244C167.703 73.244 168.366 73.454 168.87 73.874C169.374 74.2847 169.645 74.854 169.682 75.582H168.702C168.674 75.134 168.497 74.7747 168.17 74.504C167.853 74.224 167.414 74.084 166.854 74.084C166.359 74.084 165.958 74.2007 165.65 74.434C165.342 74.6673 165.188 74.9567 165.188 75.302C165.188 75.6007 165.277 75.848 165.454 76.044C165.641 76.2307 165.869 76.38 166.14 76.492C166.411 76.5947 166.775 76.7113 167.232 76.842C167.783 76.9913 168.221 77.136 168.548 77.276C168.875 77.416 169.155 77.6213 169.388 77.892C169.621 78.1627 169.743 78.522 169.752 78.97C169.752 79.3807 169.64 79.7493 169.416 80.076C169.192 80.3933 168.879 80.6453 168.478 80.832C168.077 81.0187 167.615 81.112 167.092 81.112ZM176.712 74.182V78.928C176.712 79.3947 176.801 79.7167 176.978 79.894C177.156 80.0713 177.468 80.16 177.916 80.16H178.812V81H177.762C177.072 81 176.558 80.8413 176.222 80.524C175.886 80.1973 175.718 79.6653 175.718 78.928V74.182H174.654V73.356H175.718V71.438H176.712V73.356H178.812V74.182H176.712ZM184.069 73.216C184.647 73.216 185.165 73.3373 185.623 73.58C186.089 73.8227 186.453 74.196 186.715 74.7C186.985 75.1947 187.121 75.8013 187.121 76.52V81H186.155V76.632C186.155 75.8013 185.945 75.1667 185.525 74.728C185.114 74.2893 184.549 74.07 183.831 74.07C183.093 74.07 182.505 74.3033 182.067 74.77C181.628 75.2367 181.409 75.9227 181.409 76.828V81H180.429V70.64H181.409V74.658C181.651 74.2007 182.006 73.846 182.473 73.594C182.949 73.342 183.481 73.216 184.069 73.216ZM196.204 76.786C196.204 77.122 196.195 77.3787 196.176 77.556H189.834C189.862 78.1347 190.002 78.6293 190.254 79.04C190.506 79.4507 190.837 79.7633 191.248 79.978C191.659 80.1833 192.107 80.286 192.592 80.286C193.227 80.286 193.759 80.132 194.188 79.824C194.627 79.516 194.916 79.1007 195.056 78.578H196.092C195.905 79.3247 195.504 79.936 194.888 80.412C194.281 80.8787 193.516 81.112 192.592 81.112C191.873 81.112 191.229 80.9533 190.66 80.636C190.091 80.3093 189.643 79.852 189.316 79.264C188.999 78.6667 188.84 77.9713 188.84 77.178C188.84 76.3847 188.999 75.6893 189.316 75.092C189.633 74.4947 190.077 74.0373 190.646 73.72C191.215 73.4027 191.864 73.244 192.592 73.244C193.32 73.244 193.955 73.4027 194.496 73.72C195.047 74.0373 195.467 74.4667 195.756 75.008C196.055 75.54 196.204 76.1327 196.204 76.786ZM195.21 76.758C195.219 76.1887 195.103 75.7033 194.86 75.302C194.627 74.9007 194.305 74.5973 193.894 74.392C193.483 74.1867 193.035 74.084 192.55 74.084C191.822 74.084 191.201 74.3173 190.688 74.784C190.175 75.2507 189.89 75.9087 189.834 76.758H195.21ZM204.849 74.182H203.071V81H202.091V74.182H201.027V73.356H202.091V72.824C202.091 71.9933 202.301 71.382 202.721 70.99C203.15 70.598 203.841 70.402 204.793 70.402V71.242C204.158 71.242 203.71 71.3633 203.449 71.606C203.197 71.8487 203.071 72.2547 203.071 72.824V73.356H204.849V74.182ZM213.013 73.356V81H212.033V79.656C211.809 80.132 211.464 80.496 210.997 80.748C210.531 81 210.008 81.126 209.429 81.126C208.515 81.126 207.768 80.846 207.189 80.286C206.611 79.7167 206.321 78.8953 206.321 77.822V73.356H207.287V77.71C207.287 78.5407 207.493 79.1753 207.903 79.614C208.323 80.0527 208.893 80.272 209.611 80.272C210.349 80.272 210.937 80.0387 211.375 79.572C211.814 79.1053 212.033 78.4193 212.033 77.514V73.356H213.013ZM218.835 73.216C219.75 73.216 220.496 73.5007 221.075 74.07C221.654 74.63 221.943 75.4467 221.943 76.52V81H220.977V76.632C220.977 75.8013 220.767 75.1667 220.347 74.728C219.936 74.2893 219.372 74.07 218.653 74.07C217.916 74.07 217.328 74.3033 216.889 74.77C216.45 75.2367 216.231 75.9227 216.231 76.828V81H215.251V73.356H216.231V74.658C216.474 74.1913 216.824 73.8367 217.281 73.594C217.738 73.342 218.256 73.216 218.835 73.216ZM17.086 96.036C17.3287 95.5227 17.7113 95.098 18.234 94.762C18.766 94.4167 19.396 94.244 20.124 94.244C20.8147 94.244 21.4353 94.4073 21.986 94.734C22.546 95.0513 22.98 95.5087 23.288 96.106C23.6053 96.694 23.764 97.38 23.764 98.164C23.764 98.948 23.6053 99.6387 23.288 100.236C22.98 100.833 22.546 101.295 21.986 101.622C21.4353 101.949 20.8147 102.112 20.124 102.112C19.4053 102.112 18.78 101.944 18.248 101.608C17.716 101.263 17.3287 100.833 17.086 100.32V105.612H16.12V94.356H17.086V96.036ZM22.77 98.164C22.77 97.5293 22.644 96.9833 22.392 96.526C22.1493 96.0593 21.8133 95.7047 21.384 95.462C20.9547 95.2193 20.4693 95.098 19.928 95.098C19.4053 95.098 18.9247 95.224 18.486 95.476C18.0567 95.728 17.716 96.0873 17.464 96.554C17.212 97.0207 17.086 97.562 17.086 98.178C17.086 98.794 17.212 99.3353 17.464 99.802C17.716 100.269 18.0567 100.628 18.486 100.88C18.9247 101.132 19.4053 101.258 19.928 101.258C20.4693 101.258 20.9547 101.137 21.384 100.894C21.8133 100.642 22.1493 100.283 22.392 99.816C22.644 99.34 22.77 98.7893 22.77 98.164ZM25.1193 98.164C25.1193 97.38 25.2733 96.694 25.5813 96.106C25.8986 95.5087 26.3326 95.0513 26.8833 94.734C27.4433 94.4073 28.0733 94.244 28.7733 94.244C29.5013 94.244 30.1266 94.412 30.6493 94.748C31.1813 95.084 31.5639 95.5133 31.7973 96.036V94.356H32.7773V102H31.7973V100.306C31.5546 100.829 31.1673 101.263 30.6353 101.608C30.1126 101.944 29.4873 102.112 28.7593 102.112C28.0686 102.112 27.4433 101.949 26.8833 101.622C26.3326 101.295 25.8986 100.833 25.5813 100.236C25.2733 99.6387 25.1193 98.948 25.1193 98.164ZM31.7973 98.178C31.7973 97.562 31.6713 97.0207 31.4193 96.554C31.1673 96.0873 30.8219 95.728 30.3833 95.476C29.9539 95.224 29.4779 95.098 28.9553 95.098C28.4139 95.098 27.9286 95.2193 27.4993 95.462C27.0699 95.7047 26.7293 96.0593 26.4773 96.526C26.2346 96.9833 26.1133 97.5293 26.1133 98.164C26.1133 98.7893 26.2346 99.34 26.4773 99.816C26.7293 100.283 27.0699 100.642 27.4993 100.894C27.9286 101.137 28.4139 101.258 28.9553 101.258C29.4779 101.258 29.9539 101.132 30.3833 100.88C30.8219 100.628 31.1673 100.269 31.4193 99.802C31.6713 99.3353 31.7973 98.794 31.7973 98.178ZM35.9945 95.714C36.2092 95.238 36.5359 94.8693 36.9745 94.608C37.4225 94.3467 37.9685 94.216 38.6125 94.216V95.238H38.3465C37.6372 95.238 37.0679 95.4293 36.6385 95.812C36.2092 96.1947 35.9945 96.834 35.9945 97.73V102H35.0145V94.356H35.9945V95.714ZM41.3608 95.182V99.928C41.3608 100.395 41.4495 100.717 41.6268 100.894C41.8041 101.071 42.1168 101.16 42.5648 101.16H43.4608V102H42.4108C41.7201 102 41.2068 101.841 40.8708 101.524C40.5348 101.197 40.3668 100.665 40.3668 99.928V95.182H39.3028V94.356H40.3668V92.438H41.3608V94.356H43.4608V95.182H41.3608ZM46.393 92.214L46.267 99.41H45.441L45.329 92.214H46.393ZM45.903 102.07C45.6977 102.07 45.525 102 45.385 101.86C45.2544 101.72 45.189 101.547 45.189 101.342C45.189 101.137 45.2544 100.969 45.385 100.838C45.525 100.698 45.6977 100.628 45.903 100.628C46.099 100.628 46.2624 100.698 46.393 100.838C46.533 100.969 46.603 101.137 46.603 101.342C46.603 101.547 46.533 101.72 46.393 101.86C46.2624 102 46.099 102.07 45.903 102.07Z" fill="white"/>
</svg>
